<?xml version="1.0" encoding="utf-8" standalone="no"?>
<!DOCTYPE svg PUBLIC "-//W3C//DTD SVG 1.1//EN"
  "http://www.w3.org/Graphics/SVG/1.1/DTD/svg11.dtd">
<svg xmlns:xlink="http://www.w3.org/1999/xlink" width="576pt" height="288pt" viewBox="0 0 576 288" xmlns="http://www.w3.org/2000/svg" version="1.1">
 <metadata>
  <rdf:RDF xmlns:dc="http://purl.org/dc/elements/1.1/" xmlns:cc="http://creativecommons.org/ns#" xmlns:rdf="http://www.w3.org/1999/02/22-rdf-syntax-ns#">
   <cc:Work>
    <dc:type rdf:resource="http://purl.org/dc/dcmitype/StillImage"/>
    <dc:date>2024-04-16T08:43:44.909990</dc:date>
    <dc:format>image/svg+xml</dc:format>
    <dc:creator>
     <cc:Agent>
      <dc:title>Matplotlib v3.8.0, https://matplotlib.org/</dc:title>
     </cc:Agent>
    </dc:creator>
   </cc:Work>
  </rdf:RDF>
 </metadata>
 <defs>
  <style type="text/css">*{stroke-linejoin: round; stroke-linecap: butt}</style>
 </defs>
 <g id="figure_1">
  <g id="patch_1">
   <path d="M 0 288 
L 576 288 
L 576 0 
L 0 0 
z
" style="fill: #ffffff"/>
  </g>
  <g id="axes_1">
   <g id="patch_2">
    <path d="M 46.64 246.04 
L 565.2 246.04 
L 565.2 10.8 
L 46.64 10.8 
z
" style="fill: #ffffff"/>
   </g>
   <g id="matplotlib.axis_1">
    <g id="xtick_1">
     <g id="line2d_1">
      <defs>
       <path id="m7ae04a0e43" d="M 0 0 
L 0 3.5 
" style="stroke: #000000; stroke-width: 0.8"/>
      </defs>
      <g>
       <use xlink:href="#m7ae04a0e43" x="98.496" y="246.04" style="stroke: #000000; stroke-width: 0.8"/>
      </g>
     </g>
     <g id="text_1">
      <!-- −200 -->
      <g transform="translate(84.762406 260.638438) scale(0.1 -0.1)">
       <defs>
        <path id="DejaVuSans-2212" d="M 678 2272 
L 4684 2272 
L 4684 1741 
L 678 1741 
L 678 2272 
z
" transform="scale(0.015625)"/>
        <path id="DejaVuSans-32" d="M 1228 531 
L 3431 531 
L 3431 0 
L 469 0 
L 469 531 
Q 828 903 1448 1529 
Q 2069 2156 2228 2338 
Q 2531 2678 2651 2914 
Q 2772 3150 2772 3378 
Q 2772 3750 2511 3984 
Q 2250 4219 1831 4219 
Q 1534 4219 1204 4116 
Q 875 4013 500 3803 
L 500 4441 
Q 881 4594 1212 4672 
Q 1544 4750 1819 4750 
Q 2544 4750 2975 4387 
Q 3406 4025 3406 3419 
Q 3406 3131 3298 2873 
Q 3191 2616 2906 2266 
Q 2828 2175 2409 1742 
Q 1991 1309 1228 531 
z
" transform="scale(0.015625)"/>
        <path id="DejaVuSans-30" d="M 2034 4250 
Q 1547 4250 1301 3770 
Q 1056 3291 1056 2328 
Q 1056 1369 1301 889 
Q 1547 409 2034 409 
Q 2525 409 2770 889 
Q 3016 1369 3016 2328 
Q 3016 3291 2770 3770 
Q 2525 4250 2034 4250 
z
M 2034 4750 
Q 2819 4750 3233 4129 
Q 3647 3509 3647 2328 
Q 3647 1150 3233 529 
Q 2819 -91 2034 -91 
Q 1250 -91 836 529 
Q 422 1150 422 2328 
Q 422 3509 836 4129 
Q 1250 4750 2034 4750 
z
" transform="scale(0.015625)"/>
       </defs>
       <use xlink:href="#DejaVuSans-2212"/>
       <use xlink:href="#DejaVuSans-32" x="83.789062"/>
       <use xlink:href="#DejaVuSans-30" x="147.412109"/>
       <use xlink:href="#DejaVuSans-30" x="211.035156"/>
      </g>
     </g>
    </g>
    <g id="xtick_2">
     <g id="line2d_2">
      <g>
       <use xlink:href="#m7ae04a0e43" x="202.208" y="246.04" style="stroke: #000000; stroke-width: 0.8"/>
      </g>
     </g>
     <g id="text_2">
      <!-- −100 -->
      <g transform="translate(188.474406 260.638438) scale(0.1 -0.1)">
       <defs>
        <path id="DejaVuSans-31" d="M 794 531 
L 1825 531 
L 1825 4091 
L 703 3866 
L 703 4441 
L 1819 4666 
L 2450 4666 
L 2450 531 
L 3481 531 
L 3481 0 
L 794 0 
L 794 531 
z
" transform="scale(0.015625)"/>
       </defs>
       <use xlink:href="#DejaVuSans-2212"/>
       <use xlink:href="#DejaVuSans-31" x="83.789062"/>
       <use xlink:href="#DejaVuSans-30" x="147.412109"/>
       <use xlink:href="#DejaVuSans-30" x="211.035156"/>
      </g>
     </g>
    </g>
    <g id="xtick_3">
     <g id="line2d_3">
      <g>
       <use xlink:href="#m7ae04a0e43" x="305.92" y="246.04" style="stroke: #000000; stroke-width: 0.8"/>
      </g>
     </g>
     <g id="text_3">
      <!-- 0 -->
      <g transform="translate(302.73875 260.638438) scale(0.1 -0.1)">
       <use xlink:href="#DejaVuSans-30"/>
      </g>
     </g>
    </g>
    <g id="xtick_4">
     <g id="line2d_4">
      <g>
       <use xlink:href="#m7ae04a0e43" x="409.632" y="246.04" style="stroke: #000000; stroke-width: 0.8"/>
      </g>
     </g>
     <g id="text_4">
      <!-- 100 -->
      <g transform="translate(400.08825 260.638438) scale(0.1 -0.1)">
       <use xlink:href="#DejaVuSans-31"/>
       <use xlink:href="#DejaVuSans-30" x="63.623047"/>
       <use xlink:href="#DejaVuSans-30" x="127.246094"/>
      </g>
     </g>
    </g>
    <g id="xtick_5">
     <g id="line2d_5">
      <g>
       <use xlink:href="#m7ae04a0e43" x="513.344" y="246.04" style="stroke: #000000; stroke-width: 0.8"/>
      </g>
     </g>
     <g id="text_5">
      <!-- 200 -->
      <g transform="translate(503.80025 260.638438) scale(0.1 -0.1)">
       <use xlink:href="#DejaVuSans-32"/>
       <use xlink:href="#DejaVuSans-30" x="63.623047"/>
       <use xlink:href="#DejaVuSans-30" x="127.246094"/>
      </g>
     </g>
    </g>
    <g id="text_6">
     <!-- relative shift / step -->
     <g transform="translate(258.999687 274.316562) scale(0.1 -0.1)">
      <defs>
       <path id="DejaVuSans-72" d="M 2631 2963 
Q 2534 3019 2420 3045 
Q 2306 3072 2169 3072 
Q 1681 3072 1420 2755 
Q 1159 2438 1159 1844 
L 1159 0 
L 581 0 
L 581 3500 
L 1159 3500 
L 1159 2956 
Q 1341 3275 1631 3429 
Q 1922 3584 2338 3584 
Q 2397 3584 2469 3576 
Q 2541 3569 2628 3553 
L 2631 2963 
z
" transform="scale(0.015625)"/>
       <path id="DejaVuSans-65" d="M 3597 1894 
L 3597 1613 
L 953 1613 
Q 991 1019 1311 708 
Q 1631 397 2203 397 
Q 2534 397 2845 478 
Q 3156 559 3463 722 
L 3463 178 
Q 3153 47 2828 -22 
Q 2503 -91 2169 -91 
Q 1331 -91 842 396 
Q 353 884 353 1716 
Q 353 2575 817 3079 
Q 1281 3584 2069 3584 
Q 2775 3584 3186 3129 
Q 3597 2675 3597 1894 
z
M 3022 2063 
Q 3016 2534 2758 2815 
Q 2500 3097 2075 3097 
Q 1594 3097 1305 2825 
Q 1016 2553 972 2059 
L 3022 2063 
z
" transform="scale(0.015625)"/>
       <path id="DejaVuSans-6c" d="M 603 4863 
L 1178 4863 
L 1178 0 
L 603 0 
L 603 4863 
z
" transform="scale(0.015625)"/>
       <path id="DejaVuSans-61" d="M 2194 1759 
Q 1497 1759 1228 1600 
Q 959 1441 959 1056 
Q 959 750 1161 570 
Q 1363 391 1709 391 
Q 2188 391 2477 730 
Q 2766 1069 2766 1631 
L 2766 1759 
L 2194 1759 
z
M 3341 1997 
L 3341 0 
L 2766 0 
L 2766 531 
Q 2569 213 2275 61 
Q 1981 -91 1556 -91 
Q 1019 -91 701 211 
Q 384 513 384 1019 
Q 384 1609 779 1909 
Q 1175 2209 1959 2209 
L 2766 2209 
L 2766 2266 
Q 2766 2663 2505 2880 
Q 2244 3097 1772 3097 
Q 1472 3097 1187 3025 
Q 903 2953 641 2809 
L 641 3341 
Q 956 3463 1253 3523 
Q 1550 3584 1831 3584 
Q 2591 3584 2966 3190 
Q 3341 2797 3341 1997 
z
" transform="scale(0.015625)"/>
       <path id="DejaVuSans-74" d="M 1172 4494 
L 1172 3500 
L 2356 3500 
L 2356 3053 
L 1172 3053 
L 1172 1153 
Q 1172 725 1289 603 
Q 1406 481 1766 481 
L 2356 481 
L 2356 0 
L 1766 0 
Q 1100 0 847 248 
Q 594 497 594 1153 
L 594 3053 
L 172 3053 
L 172 3500 
L 594 3500 
L 594 4494 
L 1172 4494 
z
" transform="scale(0.015625)"/>
       <path id="DejaVuSans-69" d="M 603 3500 
L 1178 3500 
L 1178 0 
L 603 0 
L 603 3500 
z
M 603 4863 
L 1178 4863 
L 1178 4134 
L 603 4134 
L 603 4863 
z
" transform="scale(0.015625)"/>
       <path id="DejaVuSans-76" d="M 191 3500 
L 800 3500 
L 1894 563 
L 2988 3500 
L 3597 3500 
L 2284 0 
L 1503 0 
L 191 3500 
z
" transform="scale(0.015625)"/>
       <path id="DejaVuSans-20" transform="scale(0.015625)"/>
       <path id="DejaVuSans-73" d="M 2834 3397 
L 2834 2853 
Q 2591 2978 2328 3040 
Q 2066 3103 1784 3103 
Q 1356 3103 1142 2972 
Q 928 2841 928 2578 
Q 928 2378 1081 2264 
Q 1234 2150 1697 2047 
L 1894 2003 
Q 2506 1872 2764 1633 
Q 3022 1394 3022 966 
Q 3022 478 2636 193 
Q 2250 -91 1575 -91 
Q 1294 -91 989 -36 
Q 684 19 347 128 
L 347 722 
Q 666 556 975 473 
Q 1284 391 1588 391 
Q 1994 391 2212 530 
Q 2431 669 2431 922 
Q 2431 1156 2273 1281 
Q 2116 1406 1581 1522 
L 1381 1569 
Q 847 1681 609 1914 
Q 372 2147 372 2553 
Q 372 3047 722 3315 
Q 1072 3584 1716 3584 
Q 2034 3584 2315 3537 
Q 2597 3491 2834 3397 
z
" transform="scale(0.015625)"/>
       <path id="DejaVuSans-68" d="M 3513 2113 
L 3513 0 
L 2938 0 
L 2938 2094 
Q 2938 2591 2744 2837 
Q 2550 3084 2163 3084 
Q 1697 3084 1428 2787 
Q 1159 2491 1159 1978 
L 1159 0 
L 581 0 
L 581 4863 
L 1159 4863 
L 1159 2956 
Q 1366 3272 1645 3428 
Q 1925 3584 2291 3584 
Q 2894 3584 3203 3211 
Q 3513 2838 3513 2113 
z
" transform="scale(0.015625)"/>
       <path id="DejaVuSans-66" d="M 2375 4863 
L 2375 4384 
L 1825 4384 
Q 1516 4384 1395 4259 
Q 1275 4134 1275 3809 
L 1275 3500 
L 2222 3500 
L 2222 3053 
L 1275 3053 
L 1275 0 
L 697 0 
L 697 3053 
L 147 3053 
L 147 3500 
L 697 3500 
L 697 3744 
Q 697 4328 969 4595 
Q 1241 4863 1831 4863 
L 2375 4863 
z
" transform="scale(0.015625)"/>
       <path id="DejaVuSans-2f" d="M 1625 4666 
L 2156 4666 
L 531 -594 
L 0 -594 
L 1625 4666 
z
" transform="scale(0.015625)"/>
       <path id="DejaVuSans-70" d="M 1159 525 
L 1159 -1331 
L 581 -1331 
L 581 3500 
L 1159 3500 
L 1159 2969 
Q 1341 3281 1617 3432 
Q 1894 3584 2278 3584 
Q 2916 3584 3314 3078 
Q 3713 2572 3713 1747 
Q 3713 922 3314 415 
Q 2916 -91 2278 -91 
Q 1894 -91 1617 61 
Q 1341 213 1159 525 
z
M 3116 1747 
Q 3116 2381 2855 2742 
Q 2594 3103 2138 3103 
Q 1681 3103 1420 2742 
Q 1159 2381 1159 1747 
Q 1159 1113 1420 752 
Q 1681 391 2138 391 
Q 2594 391 2855 752 
Q 3116 1113 3116 1747 
z
" transform="scale(0.015625)"/>
      </defs>
      <use xlink:href="#DejaVuSans-72"/>
      <use xlink:href="#DejaVuSans-65" x="38.863281"/>
      <use xlink:href="#DejaVuSans-6c" x="100.386719"/>
      <use xlink:href="#DejaVuSans-61" x="128.169922"/>
      <use xlink:href="#DejaVuSans-74" x="189.449219"/>
      <use xlink:href="#DejaVuSans-69" x="228.658203"/>
      <use xlink:href="#DejaVuSans-76" x="256.441406"/>
      <use xlink:href="#DejaVuSans-65" x="315.621094"/>
      <use xlink:href="#DejaVuSans-20" x="377.144531"/>
      <use xlink:href="#DejaVuSans-73" x="408.931641"/>
      <use xlink:href="#DejaVuSans-68" x="461.03125"/>
      <use xlink:href="#DejaVuSans-69" x="524.410156"/>
      <use xlink:href="#DejaVuSans-66" x="552.193359"/>
      <use xlink:href="#DejaVuSans-74" x="585.648438"/>
      <use xlink:href="#DejaVuSans-20" x="624.857422"/>
      <use xlink:href="#DejaVuSans-2f" x="656.644531"/>
      <use xlink:href="#DejaVuSans-20" x="690.335938"/>
      <use xlink:href="#DejaVuSans-73" x="722.123047"/>
      <use xlink:href="#DejaVuSans-74" x="774.222656"/>
      <use xlink:href="#DejaVuSans-65" x="813.431641"/>
      <use xlink:href="#DejaVuSans-70" x="874.955078"/>
     </g>
    </g>
   </g>
   <g id="matplotlib.axis_2">
    <g id="ytick_1">
     <g id="line2d_6">
      <defs>
       <path id="m17a2d0aa75" d="M 0 0 
L -3.5 0 
" style="stroke: #000000; stroke-width: 0.8"/>
      </defs>
      <g>
       <use xlink:href="#m17a2d0aa75" x="46.64" y="241.620971" style="stroke: #000000; stroke-width: 0.8"/>
      </g>
     </g>
     <g id="text_7">
      <!-- −2 -->
      <g transform="translate(24.897813 245.42019) scale(0.1 -0.1)">
       <use xlink:href="#DejaVuSans-2212"/>
       <use xlink:href="#DejaVuSans-32" x="83.789062"/>
      </g>
     </g>
    </g>
    <g id="ytick_2">
     <g id="line2d_7">
      <g>
       <use xlink:href="#m17a2d0aa75" x="46.64" y="191.110135" style="stroke: #000000; stroke-width: 0.8"/>
      </g>
     </g>
     <g id="text_8">
      <!-- 0 -->
      <g transform="translate(33.2775 194.909354) scale(0.1 -0.1)">
       <use xlink:href="#DejaVuSans-30"/>
      </g>
     </g>
    </g>
    <g id="ytick_3">
     <g id="line2d_8">
      <g>
       <use xlink:href="#m17a2d0aa75" x="46.64" y="140.599299" style="stroke: #000000; stroke-width: 0.8"/>
      </g>
     </g>
     <g id="text_9">
      <!-- 2 -->
      <g transform="translate(33.2775 144.398518) scale(0.1 -0.1)">
       <use xlink:href="#DejaVuSans-32"/>
      </g>
     </g>
    </g>
    <g id="ytick_4">
     <g id="line2d_9">
      <g>
       <use xlink:href="#m17a2d0aa75" x="46.64" y="90.088463" style="stroke: #000000; stroke-width: 0.8"/>
      </g>
     </g>
     <g id="text_10">
      <!-- 4 -->
      <g transform="translate(33.2775 93.887682) scale(0.1 -0.1)">
       <defs>
        <path id="DejaVuSans-34" d="M 2419 4116 
L 825 1625 
L 2419 1625 
L 2419 4116 
z
M 2253 4666 
L 3047 4666 
L 3047 1625 
L 3713 1625 
L 3713 1100 
L 3047 1100 
L 3047 0 
L 2419 0 
L 2419 1100 
L 313 1100 
L 313 1709 
L 2253 4666 
z
" transform="scale(0.015625)"/>
       </defs>
       <use xlink:href="#DejaVuSans-34"/>
      </g>
     </g>
    </g>
    <g id="ytick_5">
     <g id="line2d_10">
      <g>
       <use xlink:href="#m17a2d0aa75" x="46.64" y="39.577627" style="stroke: #000000; stroke-width: 0.8"/>
      </g>
     </g>
     <g id="text_11">
      <!-- 6 -->
      <g transform="translate(33.2775 43.376846) scale(0.1 -0.1)">
       <defs>
        <path id="DejaVuSans-36" d="M 2113 2584 
Q 1688 2584 1439 2293 
Q 1191 2003 1191 1497 
Q 1191 994 1439 701 
Q 1688 409 2113 409 
Q 2538 409 2786 701 
Q 3034 994 3034 1497 
Q 3034 2003 2786 2293 
Q 2538 2584 2113 2584 
z
M 3366 4563 
L 3366 3988 
Q 3128 4100 2886 4159 
Q 2644 4219 2406 4219 
Q 1781 4219 1451 3797 
Q 1122 3375 1075 2522 
Q 1259 2794 1537 2939 
Q 1816 3084 2150 3084 
Q 2853 3084 3261 2657 
Q 3669 2231 3669 1497 
Q 3669 778 3244 343 
Q 2819 -91 2113 -91 
Q 1303 -91 875 529 
Q 447 1150 447 2328 
Q 447 3434 972 4092 
Q 1497 4750 2381 4750 
Q 2619 4750 2861 4703 
Q 3103 4656 3366 4563 
z
" transform="scale(0.015625)"/>
       </defs>
       <use xlink:href="#DejaVuSans-36"/>
      </g>
     </g>
    </g>
    <g id="text_12">
     <!-- intensity / arb. u. -->
     <g transform="translate(18.818125 171.18875) rotate(-90) scale(0.1 -0.1)">
      <defs>
       <path id="DejaVuSans-6e" d="M 3513 2113 
L 3513 0 
L 2938 0 
L 2938 2094 
Q 2938 2591 2744 2837 
Q 2550 3084 2163 3084 
Q 1697 3084 1428 2787 
Q 1159 2491 1159 1978 
L 1159 0 
L 581 0 
L 581 3500 
L 1159 3500 
L 1159 2956 
Q 1366 3272 1645 3428 
Q 1925 3584 2291 3584 
Q 2894 3584 3203 3211 
Q 3513 2838 3513 2113 
z
" transform="scale(0.015625)"/>
       <path id="DejaVuSans-79" d="M 2059 -325 
Q 1816 -950 1584 -1140 
Q 1353 -1331 966 -1331 
L 506 -1331 
L 506 -850 
L 844 -850 
Q 1081 -850 1212 -737 
Q 1344 -625 1503 -206 
L 1606 56 
L 191 3500 
L 800 3500 
L 1894 763 
L 2988 3500 
L 3597 3500 
L 2059 -325 
z
" transform="scale(0.015625)"/>
       <path id="DejaVuSans-62" d="M 3116 1747 
Q 3116 2381 2855 2742 
Q 2594 3103 2138 3103 
Q 1681 3103 1420 2742 
Q 1159 2381 1159 1747 
Q 1159 1113 1420 752 
Q 1681 391 2138 391 
Q 2594 391 2855 752 
Q 3116 1113 3116 1747 
z
M 1159 2969 
Q 1341 3281 1617 3432 
Q 1894 3584 2278 3584 
Q 2916 3584 3314 3078 
Q 3713 2572 3713 1747 
Q 3713 922 3314 415 
Q 2916 -91 2278 -91 
Q 1894 -91 1617 61 
Q 1341 213 1159 525 
L 1159 0 
L 581 0 
L 581 4863 
L 1159 4863 
L 1159 2969 
z
" transform="scale(0.015625)"/>
       <path id="DejaVuSans-2e" d="M 684 794 
L 1344 794 
L 1344 0 
L 684 0 
L 684 794 
z
" transform="scale(0.015625)"/>
       <path id="DejaVuSans-75" d="M 544 1381 
L 544 3500 
L 1119 3500 
L 1119 1403 
Q 1119 906 1312 657 
Q 1506 409 1894 409 
Q 2359 409 2629 706 
Q 2900 1003 2900 1516 
L 2900 3500 
L 3475 3500 
L 3475 0 
L 2900 0 
L 2900 538 
Q 2691 219 2414 64 
Q 2138 -91 1772 -91 
Q 1169 -91 856 284 
Q 544 659 544 1381 
z
M 1991 3584 
L 1991 3584 
z
" transform="scale(0.015625)"/>
      </defs>
      <use xlink:href="#DejaVuSans-69"/>
      <use xlink:href="#DejaVuSans-6e" x="27.783203"/>
      <use xlink:href="#DejaVuSans-74" x="91.162109"/>
      <use xlink:href="#DejaVuSans-65" x="130.371094"/>
      <use xlink:href="#DejaVuSans-6e" x="191.894531"/>
      <use xlink:href="#DejaVuSans-73" x="255.273438"/>
      <use xlink:href="#DejaVuSans-69" x="307.373047"/>
      <use xlink:href="#DejaVuSans-74" x="335.15625"/>
      <use xlink:href="#DejaVuSans-79" x="374.365234"/>
      <use xlink:href="#DejaVuSans-20" x="433.544922"/>
      <use xlink:href="#DejaVuSans-2f" x="465.332031"/>
      <use xlink:href="#DejaVuSans-20" x="499.023438"/>
      <use xlink:href="#DejaVuSans-61" x="530.810547"/>
      <use xlink:href="#DejaVuSans-72" x="592.089844"/>
      <use xlink:href="#DejaVuSans-62" x="633.203125"/>
      <use xlink:href="#DejaVuSans-2e" x="696.679688"/>
      <use xlink:href="#DejaVuSans-20" x="728.466797"/>
      <use xlink:href="#DejaVuSans-75" x="760.253906"/>
      <use xlink:href="#DejaVuSans-2e" x="823.632812"/>
     </g>
    </g>
   </g>
   <g id="line2d_11">
    <path d="M 45.60288 190.759481 
L 46.64 190.555708 
L 47.67712 190.737406 
L 48.71424 191.140499 
L 50.78848 192.273407 
L 51.8256 192.656832 
L 52.86272 192.672746 
L 53.89984 192.422189 
L 55.97408 191.189681 
L 57.0112 190.476782 
L 59.08544 189.506512 
L 60.12256 189.315116 
L 61.15968 189.247778 
L 62.1968 189.477653 
L 63.23392 189.92825 
L 65.30816 191.646325 
L 66.34528 192.606905 
L 67.3824 193.248792 
L 68.41952 193.519969 
L 69.45664 193.244205 
L 70.49376 192.639861 
L 72.568 190.99921 
L 73.60512 190.367189 
L 74.64224 190.100787 
L 75.67936 190.062985 
L 78.79072 190.687806 
L 80.86496 190.634343 
L 82.9392 190.384191 
L 85.01344 190.227496 
L 86.05056 190.152859 
L 88.1248 190.359246 
L 89.16192 190.813803 
L 90.19904 191.468449 
L 92.27328 193.204423 
L 93.3104 193.880402 
L 94.34752 194.081738 
L 95.38464 193.84166 
L 96.42176 193.064922 
L 97.45888 192.026182 
L 99.53312 189.765246 
L 100.57024 188.911886 
L 101.60736 188.456018 
L 102.64448 188.27476 
L 103.6816 188.459933 
L 104.71872 188.847985 
L 105.75584 189.549487 
L 106.79296 190.418965 
L 109.90432 193.618331 
L 110.94144 194.183063 
L 111.97856 194.281306 
L 113.01568 193.753443 
L 114.0528 192.835103 
L 116.12704 190.45823 
L 117.16416 189.44423 
L 118.20128 188.822772 
L 119.2384 188.521606 
L 120.27552 188.67151 
L 121.31264 189.112005 
L 123.38688 190.764575 
L 124.424 191.702425 
L 125.46112 192.412065 
L 126.49824 192.87142 
L 127.53536 192.861646 
L 128.57248 192.505777 
L 131.68384 190.275393 
L 132.72096 189.987805 
L 133.75808 190.117425 
L 134.7952 190.737006 
L 136.86944 192.267667 
L 137.90656 192.656229 
L 138.94368 192.67931 
L 139.9808 192.220482 
L 141.01792 191.502374 
L 144.12928 188.67849 
L 145.1664 188.12497 
L 146.20352 187.949521 
L 147.24064 188.373003 
L 148.27776 189.258309 
L 150.352 192.110346 
L 151.38912 193.608957 
L 152.42624 194.7009 
L 153.46336 195.263919 
L 154.50048 195.046621 
L 155.5376 194.22875 
L 158.64896 190.481068 
L 159.68608 189.821369 
L 160.7232 189.495546 
L 162.79744 189.595085 
L 165.9088 190.347899 
L 169.02016 191.040274 
L 170.05728 191.165162 
L 175.24288 191.199538 
L 176.28 191.322909 
L 177.31712 191.323148 
L 178.35424 191.187996 
L 179.39136 190.697752 
L 182.50272 188.760848 
L 183.53984 188.717303 
L 184.57696 189.327494 
L 185.61408 190.378162 
L 187.68832 193.111311 
L 188.72544 194.272467 
L 189.76256 194.92936 
L 190.79968 195.082257 
L 191.8368 194.571845 
L 192.87392 193.602335 
L 195.98528 189.522751 
L 197.0224 188.666863 
L 198.05952 188.308728 
L 199.09664 188.662274 
L 200.13376 189.542791 
L 202.208 192.090616 
L 203.24512 192.990403 
L 204.28224 193.138668 
L 205.31936 192.603915 
L 207.3936 190.144249 
L 208.43072 188.948178 
L 209.46784 188.283928 
L 210.50496 188.17836 
L 211.54208 188.75185 
L 212.5792 189.720577 
L 214.65344 192.073288 
L 215.69056 192.979337 
L 216.72768 193.444516 
L 217.7648 193.586426 
L 218.80192 193.341368 
L 219.83904 192.939276 
L 220.87616 192.391287 
L 221.91328 191.985821 
L 222.9504 191.729921 
L 226.06176 191.777608 
L 227.09888 191.177052 
L 228.136 190.059583 
L 230.21024 186.806991 
L 231.24736 185.440395 
L 232.28448 184.815525 
L 233.3216 185.001279 
L 234.35872 186.158911 
L 235.39584 188.045668 
L 238.5072 195.374386 
L 239.54432 197.045032 
L 240.58144 198.070503 
L 241.61856 198.305808 
L 242.65568 197.85366 
L 243.6928 196.535075 
L 244.72992 194.541412 
L 246.80416 189.851574 
L 247.84128 188.351309 
L 248.8784 188.009199 
L 249.91552 188.550271 
L 250.95264 189.589617 
L 251.98976 190.411227 
L 253.02688 190.728074 
L 254.064 190.309889 
L 256.13824 188.692613 
L 257.17536 188.574011 
L 258.21248 189.415204 
L 259.2496 191.263719 
L 260.28672 193.408754 
L 261.32384 195.142466 
L 262.36096 195.628153 
L 263.39808 194.690116 
L 264.4352 192.428061 
L 265.47232 189.681934 
L 266.50944 187.300077 
L 267.54656 186.242684 
L 268.58368 186.655256 
L 269.6208 188.270795 
L 270.65792 190.363901 
L 271.69504 192.852395 
L 272.73216 195.835727 
L 273.76928 199.381512 
L 274.8064 202.298412 
L 275.84352 202.899996 
L 276.88064 199.723546 
L 277.91776 193.040748 
L 281.02912 165.559481 
L 282.06624 158.982465 
L 283.10336 157.139325 
L 284.14048 162.148737 
L 285.1776 173.342166 
L 286.21472 187.267725 
L 287.25184 199.394645 
L 288.28896 207.522495 
L 289.32608 211.814375 
L 290.3632 213.38799 
L 291.40032 212.494276 
L 292.43744 210.310541 
L 293.47456 209.969189 
L 294.51168 215.071339 
L 295.5488 224.725349 
L 296.58592 233.215463 
L 297.62304 235.327068 
L 298.66016 233.148283 
L 299.69728 232.900275 
L 300.7344 234.28806 
L 301.77152 223.585319 
L 302.80864 184.237782 
L 304.88288 49.962402 
L 305.92 21.492727 
L 306.95712 49.939925 
L 309.03136 184.256269 
L 310.06848 223.627243 
L 311.1056 234.323923 
L 312.14272 232.916439 
L 313.17984 233.158386 
L 314.21696 235.347273 
L 315.25408 233.236425 
L 316.2912 224.718278 
L 317.32832 215.025223 
L 318.36544 209.911405 
L 319.40256 210.287559 
L 320.43968 212.53269 
L 321.4768 213.47704 
L 322.51392 211.924893 
L 323.55104 207.635892 
L 324.58816 199.510516 
L 325.62528 187.387916 
L 326.6624 173.453997 
L 327.69952 162.226271 
L 328.73664 157.16256 
L 329.77376 158.952664 
L 330.81088 165.500131 
L 333.92224 193.018977 
L 334.95936 199.715919 
L 335.99648 202.893505 
L 337.0336 202.277045 
L 338.07072 199.32595 
L 339.10784 195.72925 
L 340.14496 192.691415 
L 341.18208 190.166896 
L 342.2192 188.07509 
L 343.25632 186.501072 
L 344.29344 186.15429 
L 345.33056 187.280025 
L 346.36768 189.718781 
L 347.4048 192.508821 
L 348.44192 194.802629 
L 349.47904 195.757486 
L 350.51616 195.267909 
L 351.55328 193.510842 
L 352.5904 191.33519 
L 353.62752 189.463755 
L 354.66464 188.61367 
L 355.70176 188.731128 
L 357.776 190.333119 
L 358.81312 190.736519 
L 359.85024 190.408562 
L 360.88736 189.580652 
L 361.92448 188.535674 
L 362.9616 187.984146 
L 363.99872 188.311405 
L 365.03584 189.79724 
L 368.1472 196.485599 
L 369.18432 197.818959 
L 370.22144 198.286841 
L 371.25856 198.065199 
L 372.29568 197.048972 
L 373.3328 195.380018 
L 375.40704 190.509546 
L 376.44416 188.028797 
L 377.48128 186.140753 
L 378.5184 184.991151 
L 379.55552 184.822571 
L 380.59264 185.472646 
L 381.62976 186.868361 
L 383.704 190.165635 
L 384.74112 191.284263 
L 385.77824 191.869197 
L 386.81536 191.907282 
L 388.8896 191.752441 
L 389.92672 191.997833 
L 390.96384 192.397767 
L 392.00096 192.9409 
L 393.03808 193.338418 
L 394.0752 193.57966 
L 395.11232 193.432717 
L 396.14944 192.958198 
L 397.18656 192.035441 
L 400.29792 188.643848 
L 401.33504 188.063271 
L 402.37216 188.17735 
L 403.40928 188.8641 
L 406.52064 192.598331 
L 407.55776 193.141855 
L 408.59488 192.987166 
L 409.632 192.068737 
L 411.70624 189.47463 
L 412.74336 188.580653 
L 413.78048 188.228643 
L 414.8176 188.604674 
L 415.85472 189.495826 
L 418.96608 193.71753 
L 420.0032 194.712568 
L 421.04032 195.228814 
L 422.07744 195.066927 
L 423.11456 194.394198 
L 424.15168 193.221304 
L 426.22592 190.481838 
L 427.26304 189.427599 
L 428.30016 188.811364 
L 429.33728 188.844876 
L 430.3744 189.309239 
L 432.44864 190.738641 
L 433.48576 191.20243 
L 434.52288 191.30561 
L 435.56 191.269849 
L 437.63424 191.05785 
L 439.70848 191.036537 
L 442.81984 190.899738 
L 443.85696 190.758708 
L 448.00544 189.752879 
L 449.04256 189.556414 
L 451.1168 189.490172 
L 452.15392 189.828026 
L 453.19104 190.50272 
L 454.22816 191.655677 
L 456.3024 194.317018 
L 457.33952 195.146229 
L 458.37664 195.366557 
L 459.41376 194.801012 
L 460.45088 193.70566 
L 463.56224 189.342556 
L 464.59936 188.453795 
L 465.63648 188.026247 
L 466.6736 188.196215 
L 467.71072 188.741498 
L 471.8592 192.219699 
L 472.89632 192.661229 
L 473.93344 192.620816 
L 474.97056 192.213019 
L 477.0448 190.642284 
L 478.08192 190.007819 
L 479.11904 189.873597 
L 480.15616 190.170866 
L 483.26752 192.474599 
L 484.30464 192.852082 
L 485.34176 192.875289 
L 486.37888 192.424536 
L 487.416 191.71556 
L 489.49024 189.893766 
L 490.52736 189.108146 
L 491.56448 188.663054 
L 492.6016 188.513297 
L 493.63872 188.819724 
L 494.67584 189.450008 
L 496.75008 191.643249 
L 497.7872 192.873357 
L 498.82432 193.796099 
L 499.86144 194.322599 
L 500.89856 194.219279 
L 501.93568 193.649062 
L 504.00992 191.553623 
L 505.04704 190.448878 
L 506.08416 189.584566 
L 507.12128 188.885984 
L 508.1584 188.494406 
L 509.19552 188.300369 
L 510.23264 188.465969 
L 511.26976 188.90315 
L 512.30688 189.738885 
L 513.344 190.7742 
L 515.41824 193.015636 
L 516.45536 193.794155 
L 517.49248 194.038501 
L 518.5296 193.84065 
L 519.56672 193.167573 
L 522.67808 190.793591 
L 523.7152 190.350538 
L 525.78944 190.17449 
L 532.01216 190.707415 
L 533.04928 190.689218 
L 536.16064 190.033267 
L 537.19776 190.074966 
L 538.23488 190.353546 
L 539.272 191.001298 
L 542.38336 193.286 
L 543.42048 193.563189 
L 544.4576 193.285814 
L 545.49472 192.632789 
L 547.56896 190.733481 
L 548.60608 189.925621 
L 549.6432 189.467515 
L 550.68032 189.23073 
L 551.71744 189.287219 
L 552.75456 189.471157 
L 554.8288 190.429605 
L 556.90304 191.795484 
L 557.94016 192.378167 
L 558.97728 192.634348 
L 560.0144 192.631127 
L 561.05152 192.263654 
L 564.16288 190.776733 
L 565.2 190.603496 
L 566.23712 190.809777 
L 566.23712 190.809777 
" clip-path="url(#pe11195c8f4)" style="fill: none; stroke: #1f77b4; stroke-width: 1.5; stroke-linecap: square"/>
   </g>
   <g id="line2d_12">
    <path d="M 45.60288 190.662834 
L 46.64 190.328245 
L 47.67712 190.378763 
L 48.71424 190.675242 
L 50.78848 191.732017 
L 51.8256 192.167087 
L 52.86272 192.293041 
L 53.89984 192.192509 
L 55.97408 191.289868 
L 57.0112 190.711905 
L 59.08544 189.892534 
L 61.15968 189.635262 
L 62.1968 189.829127 
L 63.23392 190.229549 
L 65.30816 191.805876 
L 66.34528 192.671213 
L 67.3824 193.204744 
L 68.41952 193.359537 
L 69.45664 192.975927 
L 70.49376 192.28902 
L 72.568 190.615573 
L 73.60512 190.05536 
L 74.64224 189.913945 
L 75.67936 190.040495 
L 78.79072 191.114516 
L 80.86496 191.122167 
L 86.05056 190.154806 
L 88.1248 190.1537 
L 89.16192 190.511286 
L 90.19904 191.076366 
L 92.27328 192.680376 
L 93.3104 193.337408 
L 94.34752 193.56527 
L 95.38464 193.399529 
L 96.42176 192.747977 
L 97.45888 191.868846 
L 99.53312 189.944095 
L 100.57024 189.223689 
L 101.60736 188.848851 
L 102.64448 188.694944 
L 103.6816 188.853382 
L 104.71872 189.174196 
L 105.75584 189.785435 
L 106.79296 190.559804 
L 109.90432 193.561805 
L 110.94144 194.102801 
L 111.97856 194.194352 
L 113.01568 193.67106 
L 114.0528 192.767037 
L 116.12704 190.449385 
L 117.16416 189.481148 
L 118.20128 188.915586 
L 119.2384 188.676308 
L 120.27552 188.886332 
L 121.31264 189.377795 
L 123.38688 191.053962 
L 124.424 191.948347 
L 125.46112 192.57674 
L 126.49824 192.920418 
L 127.53536 192.777465 
L 128.57248 192.281292 
L 131.68384 189.76833 
L 132.72096 189.466636 
L 133.75808 189.630791 
L 134.7952 190.319676 
L 136.86944 192.049669 
L 137.90656 192.543365 
L 138.94368 192.665667 
L 139.9808 192.294415 
L 141.01792 191.653399 
L 144.12928 189.01836 
L 145.1664 188.509534 
L 146.20352 188.362194 
L 147.24064 188.784732 
L 148.27776 189.635161 
L 150.352 192.315457 
L 151.38912 193.691946 
L 152.42624 194.660441 
L 153.46336 195.118246 
L 154.50048 194.829147 
L 155.5376 193.986778 
L 157.61184 191.44557 
L 158.64896 190.38458 
L 159.68608 189.791679 
L 160.7232 189.509512 
L 162.79744 189.597075 
L 165.9088 190.242915 
L 170.05728 191.230123 
L 172.13152 191.274655 
L 175.24288 191.060309 
L 177.31712 191.075608 
L 178.35424 190.970775 
L 179.39136 190.569106 
L 182.50272 188.981187 
L 183.53984 188.97636 
L 184.57696 189.55753 
L 185.61408 190.523181 
L 187.68832 193.062058 
L 188.72544 194.185866 
L 189.76256 194.875061 
L 190.79968 195.119003 
L 191.8368 194.72709 
L 192.87392 193.860122 
L 194.94816 191.103411 
L 195.98528 189.690874 
L 197.0224 188.678596 
L 198.05952 188.156438 
L 199.09664 188.379166 
L 200.13376 189.199755 
L 202.208 191.852048 
L 203.24512 192.870094 
L 204.28224 193.125373 
L 205.31936 192.643394 
L 206.35648 191.465769 
L 208.43072 188.754474 
L 209.46784 187.98407 
L 210.50496 187.845089 
L 211.54208 188.486653 
L 212.5792 189.627869 
L 214.65344 192.465439 
L 215.69056 193.556428 
L 216.72768 194.093936 
L 217.7648 194.175587 
L 218.80192 193.759605 
L 219.83904 193.122717 
L 220.87616 192.341544 
L 221.91328 191.762144 
L 222.9504 191.428048 
L 226.06176 191.686108 
L 227.09888 191.144102 
L 228.136 190.001672 
L 231.24736 184.948975 
L 232.28448 184.245965 
L 233.3216 184.488594 
L 234.35872 185.85966 
L 235.39584 188.089082 
L 238.5072 196.392457 
L 239.54432 198.094672 
L 240.58144 198.955731 
L 241.61856 198.881429 
L 242.65568 198.056436 
L 243.6928 196.400059 
L 244.72992 194.171976 
L 245.76704 191.607028 
L 246.80416 189.400697 
L 247.84128 187.978741 
L 248.8784 187.702523 
L 249.91552 188.23228 
L 250.95264 189.155876 
L 251.98976 189.783784 
L 253.02688 189.893008 
L 254.064 189.34638 
L 255.10112 188.574037 
L 256.13824 187.988237 
L 257.17536 188.28913 
L 258.21248 189.668561 
L 261.32384 196.573135 
L 262.36096 197.011771 
L 263.39808 195.799334 
L 264.4352 193.125022 
L 265.47232 189.935945 
L 266.50944 187.187767 
L 267.54656 185.907292 
L 268.58368 186.250083 
L 269.6208 187.910375 
L 270.65792 190.087028 
L 271.69504 192.617669 
L 272.73216 195.548295 
L 273.76928 198.940224 
L 274.8064 201.652378 
L 275.84352 202.082528 
L 276.88064 198.865114 
L 277.91776 192.345027 
L 281.02912 166.400057 
L 282.06624 160.334135 
L 283.10336 158.776129 
L 284.14048 163.764326 
L 285.1776 174.63244 
L 286.21472 188.006724 
L 287.25184 199.489782 
L 288.28896 207.017462 
L 289.32608 210.865352 
L 290.3632 212.20341 
L 291.40032 211.270904 
L 292.43744 209.175462 
L 293.47456 208.965362 
L 294.51168 214.161993 
L 295.5488 223.832317 
L 296.58592 232.265859 
L 297.62304 234.313316 
L 298.66016 232.166605 
L 299.69728 232.150694 
L 300.7344 234.016565 
L 301.77152 223.994205 
L 302.80864 185.404178 
L 304.88288 52.26898 
L 305.92 23.962707 
L 306.95712 52.246755 
L 309.03136 185.422994 
L 310.06848 224.036129 
L 311.1056 234.052175 
L 312.14272 232.166353 
L 313.17984 232.176455 
L 314.21696 234.333773 
L 315.25408 232.287579 
L 316.2912 223.826509 
L 317.32832 214.117063 
L 318.36544 208.908462 
L 319.40256 209.152631 
L 320.43968 211.308332 
L 321.4768 212.290288 
L 322.51392 210.972688 
L 323.55104 207.127247 
L 324.58816 199.602295 
L 325.62528 188.12449 
L 326.6624 174.743058 
L 327.69952 163.841608 
L 328.73664 158.799363 
L 329.77376 160.304334 
L 330.81088 166.339116 
L 333.92224 192.318496 
L 334.95936 198.853446 
L 335.99648 202.074093 
L 337.0336 201.631997 
L 338.07072 198.889006 
L 339.10784 195.448991 
L 340.14496 192.46555 
L 341.18208 189.89913 
L 342.2192 187.722424 
L 343.25632 186.101405 
L 344.29344 185.821827 
L 345.33056 187.168345 
L 346.36768 189.972447 
L 347.4048 193.205047 
L 348.44192 195.911619 
L 349.47904 197.14171 
L 350.51616 196.699614 
L 351.55328 194.733277 
L 353.62752 189.712089 
L 354.66464 188.320497 
L 355.70176 188.016296 
L 356.73888 188.597413 
L 357.776 189.35976 
L 358.81312 189.8952 
L 359.85024 189.779407 
L 360.88736 189.150383 
L 361.92448 188.225436 
L 362.9616 187.687799 
L 363.99872 187.949142 
L 365.03584 189.35525 
L 366.07296 191.551395 
L 367.11008 194.115429 
L 368.1472 196.351341 
L 369.18432 198.021204 
L 370.22144 198.861553 
L 371.25856 198.950528 
L 372.29568 198.099572 
L 373.3328 196.40011 
L 374.36992 193.854465 
L 376.44416 188.067741 
L 377.48128 185.833925 
L 378.5184 184.468364 
L 379.55552 184.242808 
L 380.59264 184.972589 
L 381.62976 186.529434 
L 383.704 190.111824 
L 384.74112 191.259017 
L 385.77824 191.787432 
L 386.81536 191.724019 
L 388.8896 191.454968 
L 389.92672 191.775168 
L 390.96384 192.346304 
L 392.00096 193.12132 
L 393.03808 193.753898 
L 394.0752 194.166723 
L 395.11232 194.081763 
L 396.14944 193.536292 
L 397.18656 192.428362 
L 400.29792 188.373407 
L 401.33504 187.722727 
L 402.37216 187.870446 
L 403.40928 188.664903 
L 406.52064 192.644283 
L 407.55776 193.137845 
L 408.59488 192.877734 
L 409.632 191.839966 
L 411.70624 189.135785 
L 412.74336 188.29802 
L 413.78048 188.073828 
L 414.8176 188.612556 
L 415.85472 189.660903 
L 418.96608 193.975867 
L 420.0032 194.868318 
L 421.04032 195.264323 
L 422.07744 195.008511 
L 423.11456 194.301309 
L 425.1888 191.906572 
L 426.22592 190.618154 
L 427.26304 189.650819 
L 428.30016 189.067795 
L 429.33728 189.067325 
L 430.3744 189.436996 
L 432.44864 190.614634 
L 433.48576 190.989491 
L 435.56 191.052838 
L 436.59712 190.971917 
L 441.78272 191.090552 
L 443.85696 190.706134 
L 446.96832 189.856805 
L 450.07968 189.509629 
L 451.1168 189.506239 
L 452.15392 189.8025 
L 453.19104 190.414017 
L 454.22816 191.497548 
L 456.3024 194.083834 
L 457.33952 194.937038 
L 458.37664 195.227223 
L 459.41376 194.764948 
L 460.45088 193.791831 
L 463.56224 189.721658 
L 464.59936 188.866699 
L 465.63648 188.436622 
L 466.6736 188.575375 
L 467.71072 189.073101 
L 471.8592 192.272311 
L 472.89632 192.625735 
L 473.93344 192.488437 
L 474.97056 191.978449 
L 477.0448 190.217619 
L 478.08192 189.518763 
L 479.11904 189.354745 
L 480.15616 189.667821 
L 482.2304 191.376863 
L 483.26752 192.261323 
L 484.30464 192.781193 
L 485.34176 192.940724 
L 486.37888 192.604246 
L 487.416 191.975926 
L 490.52736 189.384629 
L 491.56448 188.886603 
L 492.6016 188.671722 
L 493.63872 188.910845 
L 494.67584 189.483466 
L 495.71296 190.464011 
L 498.82432 193.719575 
L 499.86144 194.246454 
L 500.89856 194.154095 
L 501.93568 193.607201 
L 506.08416 189.817669 
L 507.12128 189.205498 
L 508.1584 188.875983 
L 509.19552 188.703243 
L 510.23264 188.838703 
L 511.26976 189.192383 
L 512.30688 189.895125 
L 513.344 190.764262 
L 515.41824 192.670407 
L 516.45536 193.32526 
L 517.49248 193.499108 
L 518.5296 193.282394 
L 520.60384 191.870227 
L 521.64096 191.064256 
L 522.67808 190.513996 
L 523.7152 190.172811 
L 525.78944 190.204615 
L 530.97504 191.15844 
L 533.04928 191.110551 
L 535.12352 190.400617 
L 536.16064 190.00001 
L 537.19776 189.879787 
L 538.23488 190.033327 
L 539.272 190.611598 
L 540.30912 191.398678 
L 541.34624 192.328191 
L 542.38336 193.031519 
L 543.42048 193.41994 
L 544.4576 193.262844 
L 545.49472 192.720362 
L 547.56896 190.987167 
L 548.60608 190.236467 
L 549.6432 189.819619 
L 550.68032 189.608193 
L 552.75456 189.83167 
L 554.8288 190.633348 
L 556.90304 191.706153 
L 557.94016 192.123817 
L 558.97728 192.237378 
L 560.0144 192.130214 
L 562.08864 191.23189 
L 563.12576 190.709604 
L 564.16288 190.433732 
L 565.2 190.396041 
L 566.23712 190.737595 
L 566.23712 190.737595 
" clip-path="url(#pe11195c8f4)" style="fill: none; stroke: #ff7f0e; stroke-width: 1.5; stroke-linecap: square"/>
   </g>
   <g id="patch_3">
    <path d="M 46.64 246.04 
L 46.64 10.8 
" style="fill: none; stroke: #000000; stroke-width: 0.8; stroke-linejoin: miter; stroke-linecap: square"/>
   </g>
   <g id="patch_4">
    <path d="M 565.2 246.04 
L 565.2 10.8 
" style="fill: none; stroke: #000000; stroke-width: 0.8; stroke-linejoin: miter; stroke-linecap: square"/>
   </g>
   <g id="patch_5">
    <path d="M 46.64 246.04 
L 565.2 246.04 
" style="fill: none; stroke: #000000; stroke-width: 0.8; stroke-linejoin: miter; stroke-linecap: square"/>
   </g>
   <g id="patch_6">
    <path d="M 46.64 10.8 
L 565.2 10.8 
" style="fill: none; stroke: #000000; stroke-width: 0.8; stroke-linejoin: miter; stroke-linecap: square"/>
   </g>
   <g id="legend_1">
    <g id="patch_7">
     <path d="M 467.057812 48.15625 
L 558.2 48.15625 
Q 560.2 48.15625 560.2 46.15625 
L 560.2 17.8 
Q 560.2 15.8 558.2 15.8 
L 467.057812 15.8 
Q 465.057812 15.8 465.057812 17.8 
L 465.057812 46.15625 
Q 465.057812 48.15625 467.057812 48.15625 
z
" style="fill: #ffffff; opacity: 0.8; stroke: #cccccc; stroke-linejoin: miter"/>
    </g>
    <g id="line2d_13">
     <path d="M 469.057812 23.898438 
L 479.057812 23.898438 
L 489.057812 23.898438 
" style="fill: none; stroke: #1f77b4; stroke-width: 1.5; stroke-linecap: square"/>
    </g>
    <g id="text_13">
     <!-- background -->
     <g transform="translate(497.057812 27.398438) scale(0.1 -0.1)">
      <defs>
       <path id="DejaVuSans-63" d="M 3122 3366 
L 3122 2828 
Q 2878 2963 2633 3030 
Q 2388 3097 2138 3097 
Q 1578 3097 1268 2742 
Q 959 2388 959 1747 
Q 959 1106 1268 751 
Q 1578 397 2138 397 
Q 2388 397 2633 464 
Q 2878 531 3122 666 
L 3122 134 
Q 2881 22 2623 -34 
Q 2366 -91 2075 -91 
Q 1284 -91 818 406 
Q 353 903 353 1747 
Q 353 2603 823 3093 
Q 1294 3584 2113 3584 
Q 2378 3584 2631 3529 
Q 2884 3475 3122 3366 
z
" transform="scale(0.015625)"/>
       <path id="DejaVuSans-6b" d="M 581 4863 
L 1159 4863 
L 1159 1991 
L 2875 3500 
L 3609 3500 
L 1753 1863 
L 3688 0 
L 2938 0 
L 1159 1709 
L 1159 0 
L 581 0 
L 581 4863 
z
" transform="scale(0.015625)"/>
       <path id="DejaVuSans-67" d="M 2906 1791 
Q 2906 2416 2648 2759 
Q 2391 3103 1925 3103 
Q 1463 3103 1205 2759 
Q 947 2416 947 1791 
Q 947 1169 1205 825 
Q 1463 481 1925 481 
Q 2391 481 2648 825 
Q 2906 1169 2906 1791 
z
M 3481 434 
Q 3481 -459 3084 -895 
Q 2688 -1331 1869 -1331 
Q 1566 -1331 1297 -1286 
Q 1028 -1241 775 -1147 
L 775 -588 
Q 1028 -725 1275 -790 
Q 1522 -856 1778 -856 
Q 2344 -856 2625 -561 
Q 2906 -266 2906 331 
L 2906 616 
Q 2728 306 2450 153 
Q 2172 0 1784 0 
Q 1141 0 747 490 
Q 353 981 353 1791 
Q 353 2603 747 3093 
Q 1141 3584 1784 3584 
Q 2172 3584 2450 3431 
Q 2728 3278 2906 2969 
L 2906 3500 
L 3481 3500 
L 3481 434 
z
" transform="scale(0.015625)"/>
       <path id="DejaVuSans-6f" d="M 1959 3097 
Q 1497 3097 1228 2736 
Q 959 2375 959 1747 
Q 959 1119 1226 758 
Q 1494 397 1959 397 
Q 2419 397 2687 759 
Q 2956 1122 2956 1747 
Q 2956 2369 2687 2733 
Q 2419 3097 1959 3097 
z
M 1959 3584 
Q 2709 3584 3137 3096 
Q 3566 2609 3566 1747 
Q 3566 888 3137 398 
Q 2709 -91 1959 -91 
Q 1206 -91 779 398 
Q 353 888 353 1747 
Q 353 2609 779 3096 
Q 1206 3584 1959 3584 
z
" transform="scale(0.015625)"/>
       <path id="DejaVuSans-64" d="M 2906 2969 
L 2906 4863 
L 3481 4863 
L 3481 0 
L 2906 0 
L 2906 525 
Q 2725 213 2448 61 
Q 2172 -91 1784 -91 
Q 1150 -91 751 415 
Q 353 922 353 1747 
Q 353 2572 751 3078 
Q 1150 3584 1784 3584 
Q 2172 3584 2448 3432 
Q 2725 3281 2906 2969 
z
M 947 1747 
Q 947 1113 1208 752 
Q 1469 391 1925 391 
Q 2381 391 2643 752 
Q 2906 1113 2906 1747 
Q 2906 2381 2643 2742 
Q 2381 3103 1925 3103 
Q 1469 3103 1208 2742 
Q 947 2381 947 1747 
z
" transform="scale(0.015625)"/>
      </defs>
      <use xlink:href="#DejaVuSans-62"/>
      <use xlink:href="#DejaVuSans-61" x="63.476562"/>
      <use xlink:href="#DejaVuSans-63" x="124.755859"/>
      <use xlink:href="#DejaVuSans-6b" x="179.736328"/>
      <use xlink:href="#DejaVuSans-67" x="237.646484"/>
      <use xlink:href="#DejaVuSans-72" x="301.123047"/>
      <use xlink:href="#DejaVuSans-6f" x="339.986328"/>
      <use xlink:href="#DejaVuSans-75" x="401.167969"/>
      <use xlink:href="#DejaVuSans-6e" x="464.546875"/>
      <use xlink:href="#DejaVuSans-64" x="527.925781"/>
     </g>
    </g>
    <g id="line2d_14">
     <path d="M 469.057812 38.576562 
L 479.057812 38.576562 
L 489.057812 38.576562 
" style="fill: none; stroke: #ff7f0e; stroke-width: 1.5; stroke-linecap: square"/>
    </g>
    <g id="text_14">
     <!-- sample -->
     <g transform="translate(497.057812 42.076562) scale(0.1 -0.1)">
      <defs>
       <path id="DejaVuSans-6d" d="M 3328 2828 
Q 3544 3216 3844 3400 
Q 4144 3584 4550 3584 
Q 5097 3584 5394 3201 
Q 5691 2819 5691 2113 
L 5691 0 
L 5113 0 
L 5113 2094 
Q 5113 2597 4934 2840 
Q 4756 3084 4391 3084 
Q 3944 3084 3684 2787 
Q 3425 2491 3425 1978 
L 3425 0 
L 2847 0 
L 2847 2094 
Q 2847 2600 2669 2842 
Q 2491 3084 2119 3084 
Q 1678 3084 1418 2786 
Q 1159 2488 1159 1978 
L 1159 0 
L 581 0 
L 581 3500 
L 1159 3500 
L 1159 2956 
Q 1356 3278 1631 3431 
Q 1906 3584 2284 3584 
Q 2666 3584 2933 3390 
Q 3200 3197 3328 2828 
z
" transform="scale(0.015625)"/>
      </defs>
      <use xlink:href="#DejaVuSans-73"/>
      <use xlink:href="#DejaVuSans-61" x="52.099609"/>
      <use xlink:href="#DejaVuSans-6d" x="113.378906"/>
      <use xlink:href="#DejaVuSans-70" x="210.791016"/>
      <use xlink:href="#DejaVuSans-6c" x="274.267578"/>
      <use xlink:href="#DejaVuSans-65" x="302.050781"/>
     </g>
    </g>
   </g>
  </g>
 </g>
 <defs>
  <clipPath id="pe11195c8f4">
   <rect x="46.64" y="10.8" width="518.56" height="235.24"/>
  </clipPath>
 </defs>
</svg>
