<?xml version="1.0" encoding="utf-8" standalone="no"?>
<!DOCTYPE svg PUBLIC "-//W3C//DTD SVG 1.1//EN"
  "http://www.w3.org/Graphics/SVG/1.1/DTD/svg11.dtd">
<svg xmlns:xlink="http://www.w3.org/1999/xlink" width="576pt" height="288pt" viewBox="0 0 576 288" xmlns="http://www.w3.org/2000/svg" version="1.1">
 <metadata>
  <rdf:RDF xmlns:dc="http://purl.org/dc/elements/1.1/" xmlns:cc="http://creativecommons.org/ns#" xmlns:rdf="http://www.w3.org/1999/02/22-rdf-syntax-ns#">
   <cc:Work>
    <dc:type rdf:resource="http://purl.org/dc/dcmitype/StillImage"/>
    <dc:date>2024-04-16T08:43:56.150701</dc:date>
    <dc:format>image/svg+xml</dc:format>
    <dc:creator>
     <cc:Agent>
      <dc:title>Matplotlib v3.8.0, https://matplotlib.org/</dc:title>
     </cc:Agent>
    </dc:creator>
   </cc:Work>
  </rdf:RDF>
 </metadata>
 <defs>
  <style type="text/css">*{stroke-linejoin: round; stroke-linecap: butt}</style>
 </defs>
 <g id="figure_1">
  <g id="patch_1">
   <path d="M 0 288 
L 576 288 
L 576 0 
L 0 0 
z
" style="fill: #ffffff"/>
  </g>
  <g id="axes_1">
   <g id="patch_2">
    <path d="M 44.66 246.04 
L 552.42 246.04 
L 552.42 10.8 
L 44.66 10.8 
z
" style="fill: #ffffff"/>
   </g>
   <g id="matplotlib.axis_1">
    <g id="xtick_1">
     <g id="line2d_1">
      <defs>
       <path id="m20ed8d2ca6" d="M 0 0 
L 0 3.5 
" style="stroke: #000000; stroke-width: 0.8"/>
      </defs>
      <g>
       <use xlink:href="#m20ed8d2ca6" x="44.66" y="246.04" style="stroke: #000000; stroke-width: 0.8"/>
      </g>
     </g>
     <g id="text_1">
      <!-- 0 -->
      <g transform="translate(41.47875 260.638438) scale(0.1 -0.1)">
       <defs>
        <path id="DejaVuSans-30" d="M 2034 4250 
Q 1547 4250 1301 3770 
Q 1056 3291 1056 2328 
Q 1056 1369 1301 889 
Q 1547 409 2034 409 
Q 2525 409 2770 889 
Q 3016 1369 3016 2328 
Q 3016 3291 2770 3770 
Q 2525 4250 2034 4250 
z
M 2034 4750 
Q 2819 4750 3233 4129 
Q 3647 3509 3647 2328 
Q 3647 1150 3233 529 
Q 2819 -91 2034 -91 
Q 1250 -91 836 529 
Q 422 1150 422 2328 
Q 422 3509 836 4129 
Q 1250 4750 2034 4750 
z
" transform="scale(0.015625)"/>
       </defs>
       <use xlink:href="#DejaVuSans-30"/>
      </g>
     </g>
    </g>
    <g id="xtick_2">
     <g id="line2d_2">
      <g>
       <use xlink:href="#m20ed8d2ca6" x="108.13" y="246.04" style="stroke: #000000; stroke-width: 0.8"/>
      </g>
     </g>
     <g id="text_2">
      <!-- 500 -->
      <g transform="translate(98.58625 260.638438) scale(0.1 -0.1)">
       <defs>
        <path id="DejaVuSans-35" d="M 691 4666 
L 3169 4666 
L 3169 4134 
L 1269 4134 
L 1269 2991 
Q 1406 3038 1543 3061 
Q 1681 3084 1819 3084 
Q 2600 3084 3056 2656 
Q 3513 2228 3513 1497 
Q 3513 744 3044 326 
Q 2575 -91 1722 -91 
Q 1428 -91 1123 -41 
Q 819 9 494 109 
L 494 744 
Q 775 591 1075 516 
Q 1375 441 1709 441 
Q 2250 441 2565 725 
Q 2881 1009 2881 1497 
Q 2881 1984 2565 2268 
Q 2250 2553 1709 2553 
Q 1456 2553 1204 2497 
Q 953 2441 691 2322 
L 691 4666 
z
" transform="scale(0.015625)"/>
       </defs>
       <use xlink:href="#DejaVuSans-35"/>
       <use xlink:href="#DejaVuSans-30" x="63.623047"/>
       <use xlink:href="#DejaVuSans-30" x="127.246094"/>
      </g>
     </g>
    </g>
    <g id="xtick_3">
     <g id="line2d_3">
      <g>
       <use xlink:href="#m20ed8d2ca6" x="171.6" y="246.04" style="stroke: #000000; stroke-width: 0.8"/>
      </g>
     </g>
     <g id="text_3">
      <!-- 1000 -->
      <g transform="translate(158.875 260.638438) scale(0.1 -0.1)">
       <defs>
        <path id="DejaVuSans-31" d="M 794 531 
L 1825 531 
L 1825 4091 
L 703 3866 
L 703 4441 
L 1819 4666 
L 2450 4666 
L 2450 531 
L 3481 531 
L 3481 0 
L 794 0 
L 794 531 
z
" transform="scale(0.015625)"/>
       </defs>
       <use xlink:href="#DejaVuSans-31"/>
       <use xlink:href="#DejaVuSans-30" x="63.623047"/>
       <use xlink:href="#DejaVuSans-30" x="127.246094"/>
       <use xlink:href="#DejaVuSans-30" x="190.869141"/>
      </g>
     </g>
    </g>
    <g id="xtick_4">
     <g id="line2d_4">
      <g>
       <use xlink:href="#m20ed8d2ca6" x="235.07" y="246.04" style="stroke: #000000; stroke-width: 0.8"/>
      </g>
     </g>
     <g id="text_4">
      <!-- 1500 -->
      <g transform="translate(222.345 260.638438) scale(0.1 -0.1)">
       <use xlink:href="#DejaVuSans-31"/>
       <use xlink:href="#DejaVuSans-35" x="63.623047"/>
       <use xlink:href="#DejaVuSans-30" x="127.246094"/>
       <use xlink:href="#DejaVuSans-30" x="190.869141"/>
      </g>
     </g>
    </g>
    <g id="xtick_5">
     <g id="line2d_5">
      <g>
       <use xlink:href="#m20ed8d2ca6" x="298.54" y="246.04" style="stroke: #000000; stroke-width: 0.8"/>
      </g>
     </g>
     <g id="text_5">
      <!-- 2000 -->
      <g transform="translate(285.815 260.638438) scale(0.1 -0.1)">
       <defs>
        <path id="DejaVuSans-32" d="M 1228 531 
L 3431 531 
L 3431 0 
L 469 0 
L 469 531 
Q 828 903 1448 1529 
Q 2069 2156 2228 2338 
Q 2531 2678 2651 2914 
Q 2772 3150 2772 3378 
Q 2772 3750 2511 3984 
Q 2250 4219 1831 4219 
Q 1534 4219 1204 4116 
Q 875 4013 500 3803 
L 500 4441 
Q 881 4594 1212 4672 
Q 1544 4750 1819 4750 
Q 2544 4750 2975 4387 
Q 3406 4025 3406 3419 
Q 3406 3131 3298 2873 
Q 3191 2616 2906 2266 
Q 2828 2175 2409 1742 
Q 1991 1309 1228 531 
z
" transform="scale(0.015625)"/>
       </defs>
       <use xlink:href="#DejaVuSans-32"/>
       <use xlink:href="#DejaVuSans-30" x="63.623047"/>
       <use xlink:href="#DejaVuSans-30" x="127.246094"/>
       <use xlink:href="#DejaVuSans-30" x="190.869141"/>
      </g>
     </g>
    </g>
    <g id="xtick_6">
     <g id="line2d_6">
      <g>
       <use xlink:href="#m20ed8d2ca6" x="362.01" y="246.04" style="stroke: #000000; stroke-width: 0.8"/>
      </g>
     </g>
     <g id="text_6">
      <!-- 2500 -->
      <g transform="translate(349.285 260.638438) scale(0.1 -0.1)">
       <use xlink:href="#DejaVuSans-32"/>
       <use xlink:href="#DejaVuSans-35" x="63.623047"/>
       <use xlink:href="#DejaVuSans-30" x="127.246094"/>
       <use xlink:href="#DejaVuSans-30" x="190.869141"/>
      </g>
     </g>
    </g>
    <g id="xtick_7">
     <g id="line2d_7">
      <g>
       <use xlink:href="#m20ed8d2ca6" x="425.48" y="246.04" style="stroke: #000000; stroke-width: 0.8"/>
      </g>
     </g>
     <g id="text_7">
      <!-- 3000 -->
      <g transform="translate(412.755 260.638438) scale(0.1 -0.1)">
       <defs>
        <path id="DejaVuSans-33" d="M 2597 2516 
Q 3050 2419 3304 2112 
Q 3559 1806 3559 1356 
Q 3559 666 3084 287 
Q 2609 -91 1734 -91 
Q 1441 -91 1130 -33 
Q 819 25 488 141 
L 488 750 
Q 750 597 1062 519 
Q 1375 441 1716 441 
Q 2309 441 2620 675 
Q 2931 909 2931 1356 
Q 2931 1769 2642 2001 
Q 2353 2234 1838 2234 
L 1294 2234 
L 1294 2753 
L 1863 2753 
Q 2328 2753 2575 2939 
Q 2822 3125 2822 3475 
Q 2822 3834 2567 4026 
Q 2313 4219 1838 4219 
Q 1578 4219 1281 4162 
Q 984 4106 628 3988 
L 628 4550 
Q 988 4650 1302 4700 
Q 1616 4750 1894 4750 
Q 2613 4750 3031 4423 
Q 3450 4097 3450 3541 
Q 3450 3153 3228 2886 
Q 3006 2619 2597 2516 
z
" transform="scale(0.015625)"/>
       </defs>
       <use xlink:href="#DejaVuSans-33"/>
       <use xlink:href="#DejaVuSans-30" x="63.623047"/>
       <use xlink:href="#DejaVuSans-30" x="127.246094"/>
       <use xlink:href="#DejaVuSans-30" x="190.869141"/>
      </g>
     </g>
    </g>
    <g id="xtick_8">
     <g id="line2d_8">
      <g>
       <use xlink:href="#m20ed8d2ca6" x="488.95" y="246.04" style="stroke: #000000; stroke-width: 0.8"/>
      </g>
     </g>
     <g id="text_8">
      <!-- 3500 -->
      <g transform="translate(476.225 260.638438) scale(0.1 -0.1)">
       <use xlink:href="#DejaVuSans-33"/>
       <use xlink:href="#DejaVuSans-35" x="63.623047"/>
       <use xlink:href="#DejaVuSans-30" x="127.246094"/>
       <use xlink:href="#DejaVuSans-30" x="190.869141"/>
      </g>
     </g>
    </g>
    <g id="xtick_9">
     <g id="line2d_9">
      <g>
       <use xlink:href="#m20ed8d2ca6" x="552.42" y="246.04" style="stroke: #000000; stroke-width: 0.8"/>
      </g>
     </g>
     <g id="text_9">
      <!-- 4000 -->
      <g transform="translate(539.695 260.638438) scale(0.1 -0.1)">
       <defs>
        <path id="DejaVuSans-34" d="M 2419 4116 
L 825 1625 
L 2419 1625 
L 2419 4116 
z
M 2253 4666 
L 3047 4666 
L 3047 1625 
L 3713 1625 
L 3713 1100 
L 3047 1100 
L 3047 0 
L 2419 0 
L 2419 1100 
L 313 1100 
L 313 1709 
L 2253 4666 
z
" transform="scale(0.015625)"/>
       </defs>
       <use xlink:href="#DejaVuSans-34"/>
       <use xlink:href="#DejaVuSans-30" x="63.623047"/>
       <use xlink:href="#DejaVuSans-30" x="127.246094"/>
       <use xlink:href="#DejaVuSans-30" x="190.869141"/>
      </g>
     </g>
    </g>
    <g id="text_10">
     <!-- wavenumber / cm⁻¹ -->
     <g transform="translate(248.711094 274.316562) scale(0.1 -0.1)">
      <defs>
       <path id="DejaVuSans-77" d="M 269 3500 
L 844 3500 
L 1563 769 
L 2278 3500 
L 2956 3500 
L 3675 769 
L 4391 3500 
L 4966 3500 
L 4050 0 
L 3372 0 
L 2619 2869 
L 1863 0 
L 1184 0 
L 269 3500 
z
" transform="scale(0.015625)"/>
       <path id="DejaVuSans-61" d="M 2194 1759 
Q 1497 1759 1228 1600 
Q 959 1441 959 1056 
Q 959 750 1161 570 
Q 1363 391 1709 391 
Q 2188 391 2477 730 
Q 2766 1069 2766 1631 
L 2766 1759 
L 2194 1759 
z
M 3341 1997 
L 3341 0 
L 2766 0 
L 2766 531 
Q 2569 213 2275 61 
Q 1981 -91 1556 -91 
Q 1019 -91 701 211 
Q 384 513 384 1019 
Q 384 1609 779 1909 
Q 1175 2209 1959 2209 
L 2766 2209 
L 2766 2266 
Q 2766 2663 2505 2880 
Q 2244 3097 1772 3097 
Q 1472 3097 1187 3025 
Q 903 2953 641 2809 
L 641 3341 
Q 956 3463 1253 3523 
Q 1550 3584 1831 3584 
Q 2591 3584 2966 3190 
Q 3341 2797 3341 1997 
z
" transform="scale(0.015625)"/>
       <path id="DejaVuSans-76" d="M 191 3500 
L 800 3500 
L 1894 563 
L 2988 3500 
L 3597 3500 
L 2284 0 
L 1503 0 
L 191 3500 
z
" transform="scale(0.015625)"/>
       <path id="DejaVuSans-65" d="M 3597 1894 
L 3597 1613 
L 953 1613 
Q 991 1019 1311 708 
Q 1631 397 2203 397 
Q 2534 397 2845 478 
Q 3156 559 3463 722 
L 3463 178 
Q 3153 47 2828 -22 
Q 2503 -91 2169 -91 
Q 1331 -91 842 396 
Q 353 884 353 1716 
Q 353 2575 817 3079 
Q 1281 3584 2069 3584 
Q 2775 3584 3186 3129 
Q 3597 2675 3597 1894 
z
M 3022 2063 
Q 3016 2534 2758 2815 
Q 2500 3097 2075 3097 
Q 1594 3097 1305 2825 
Q 1016 2553 972 2059 
L 3022 2063 
z
" transform="scale(0.015625)"/>
       <path id="DejaVuSans-6e" d="M 3513 2113 
L 3513 0 
L 2938 0 
L 2938 2094 
Q 2938 2591 2744 2837 
Q 2550 3084 2163 3084 
Q 1697 3084 1428 2787 
Q 1159 2491 1159 1978 
L 1159 0 
L 581 0 
L 581 3500 
L 1159 3500 
L 1159 2956 
Q 1366 3272 1645 3428 
Q 1925 3584 2291 3584 
Q 2894 3584 3203 3211 
Q 3513 2838 3513 2113 
z
" transform="scale(0.015625)"/>
       <path id="DejaVuSans-75" d="M 544 1381 
L 544 3500 
L 1119 3500 
L 1119 1403 
Q 1119 906 1312 657 
Q 1506 409 1894 409 
Q 2359 409 2629 706 
Q 2900 1003 2900 1516 
L 2900 3500 
L 3475 3500 
L 3475 0 
L 2900 0 
L 2900 538 
Q 2691 219 2414 64 
Q 2138 -91 1772 -91 
Q 1169 -91 856 284 
Q 544 659 544 1381 
z
M 1991 3584 
L 1991 3584 
z
" transform="scale(0.015625)"/>
       <path id="DejaVuSans-6d" d="M 3328 2828 
Q 3544 3216 3844 3400 
Q 4144 3584 4550 3584 
Q 5097 3584 5394 3201 
Q 5691 2819 5691 2113 
L 5691 0 
L 5113 0 
L 5113 2094 
Q 5113 2597 4934 2840 
Q 4756 3084 4391 3084 
Q 3944 3084 3684 2787 
Q 3425 2491 3425 1978 
L 3425 0 
L 2847 0 
L 2847 2094 
Q 2847 2600 2669 2842 
Q 2491 3084 2119 3084 
Q 1678 3084 1418 2786 
Q 1159 2488 1159 1978 
L 1159 0 
L 581 0 
L 581 3500 
L 1159 3500 
L 1159 2956 
Q 1356 3278 1631 3431 
Q 1906 3584 2284 3584 
Q 2666 3584 2933 3390 
Q 3200 3197 3328 2828 
z
" transform="scale(0.015625)"/>
       <path id="DejaVuSans-62" d="M 3116 1747 
Q 3116 2381 2855 2742 
Q 2594 3103 2138 3103 
Q 1681 3103 1420 2742 
Q 1159 2381 1159 1747 
Q 1159 1113 1420 752 
Q 1681 391 2138 391 
Q 2594 391 2855 752 
Q 3116 1113 3116 1747 
z
M 1159 2969 
Q 1341 3281 1617 3432 
Q 1894 3584 2278 3584 
Q 2916 3584 3314 3078 
Q 3713 2572 3713 1747 
Q 3713 922 3314 415 
Q 2916 -91 2278 -91 
Q 1894 -91 1617 61 
Q 1341 213 1159 525 
L 1159 0 
L 581 0 
L 581 4863 
L 1159 4863 
L 1159 2969 
z
" transform="scale(0.015625)"/>
       <path id="DejaVuSans-72" d="M 2631 2963 
Q 2534 3019 2420 3045 
Q 2306 3072 2169 3072 
Q 1681 3072 1420 2755 
Q 1159 2438 1159 1844 
L 1159 0 
L 581 0 
L 581 3500 
L 1159 3500 
L 1159 2956 
Q 1341 3275 1631 3429 
Q 1922 3584 2338 3584 
Q 2397 3584 2469 3576 
Q 2541 3569 2628 3553 
L 2631 2963 
z
" transform="scale(0.015625)"/>
       <path id="DejaVuSans-20" transform="scale(0.015625)"/>
       <path id="DejaVuSans-2f" d="M 1625 4666 
L 2156 4666 
L 531 -594 
L 0 -594 
L 1625 4666 
z
" transform="scale(0.015625)"/>
       <path id="DejaVuSans-63" d="M 3122 3366 
L 3122 2828 
Q 2878 2963 2633 3030 
Q 2388 3097 2138 3097 
Q 1578 3097 1268 2742 
Q 959 2388 959 1747 
Q 959 1106 1268 751 
Q 1578 397 2138 397 
Q 2388 397 2633 464 
Q 2878 531 3122 666 
L 3122 134 
Q 2881 22 2623 -34 
Q 2366 -91 2075 -91 
Q 1284 -91 818 406 
Q 353 903 353 1747 
Q 353 2603 823 3093 
Q 1294 3584 2113 3584 
Q 2378 3584 2631 3529 
Q 2884 3475 3122 3366 
z
" transform="scale(0.015625)"/>
       <path id="DejaVuSans-207b" d="M 428 3359 
L 2950 3359 
L 2950 3063 
L 428 3063 
L 428 3359 
z
" transform="scale(0.015625)"/>
       <path id="DejaVuSans-b9" d="M 488 2431 
L 1125 2431 
L 1125 4341 
L 428 4213 
L 428 4575 
L 1147 4697 
L 1575 4697 
L 1575 2431 
L 2216 2431 
L 2216 2088 
L 488 2088 
L 488 2431 
z
" transform="scale(0.015625)"/>
      </defs>
      <use xlink:href="#DejaVuSans-77"/>
      <use xlink:href="#DejaVuSans-61" x="81.787109"/>
      <use xlink:href="#DejaVuSans-76" x="143.066406"/>
      <use xlink:href="#DejaVuSans-65" x="202.246094"/>
      <use xlink:href="#DejaVuSans-6e" x="263.769531"/>
      <use xlink:href="#DejaVuSans-75" x="327.148438"/>
      <use xlink:href="#DejaVuSans-6d" x="390.527344"/>
      <use xlink:href="#DejaVuSans-62" x="487.939453"/>
      <use xlink:href="#DejaVuSans-65" x="551.416016"/>
      <use xlink:href="#DejaVuSans-72" x="612.939453"/>
      <use xlink:href="#DejaVuSans-20" x="654.052734"/>
      <use xlink:href="#DejaVuSans-2f" x="685.839844"/>
      <use xlink:href="#DejaVuSans-20" x="719.53125"/>
      <use xlink:href="#DejaVuSans-63" x="751.318359"/>
      <use xlink:href="#DejaVuSans-6d" x="806.298828"/>
      <use xlink:href="#DejaVuSans-207b" x="903.710938"/>
      <use xlink:href="#DejaVuSans-b9" x="956.494141"/>
     </g>
    </g>
   </g>
   <g id="matplotlib.axis_2">
    <g id="ytick_1">
     <g id="line2d_10">
      <defs>
       <path id="me2825f05e8" d="M 0 0 
L -3.5 0 
" style="stroke: #000000; stroke-width: 0.8"/>
      </defs>
      <g>
       <use xlink:href="#me2825f05e8" x="44.66" y="235.34729" style="stroke: #000000; stroke-width: 0.8"/>
      </g>
     </g>
     <g id="text_11">
      <!-- 0 -->
      <g transform="translate(31.2975 239.146509) scale(0.1 -0.1)">
       <use xlink:href="#DejaVuSans-30"/>
      </g>
     </g>
    </g>
    <g id="ytick_2">
     <g id="line2d_11">
      <g>
       <use xlink:href="#me2825f05e8" x="44.66" y="207.982909" style="stroke: #000000; stroke-width: 0.8"/>
      </g>
     </g>
     <g id="text_12">
      <!-- 2 -->
      <g transform="translate(31.2975 211.782128) scale(0.1 -0.1)">
       <use xlink:href="#DejaVuSans-32"/>
      </g>
     </g>
    </g>
    <g id="ytick_3">
     <g id="line2d_12">
      <g>
       <use xlink:href="#me2825f05e8" x="44.66" y="180.618528" style="stroke: #000000; stroke-width: 0.8"/>
      </g>
     </g>
     <g id="text_13">
      <!-- 4 -->
      <g transform="translate(31.2975 184.417747) scale(0.1 -0.1)">
       <use xlink:href="#DejaVuSans-34"/>
      </g>
     </g>
    </g>
    <g id="ytick_4">
     <g id="line2d_13">
      <g>
       <use xlink:href="#me2825f05e8" x="44.66" y="153.254147" style="stroke: #000000; stroke-width: 0.8"/>
      </g>
     </g>
     <g id="text_14">
      <!-- 6 -->
      <g transform="translate(31.2975 157.053366) scale(0.1 -0.1)">
       <defs>
        <path id="DejaVuSans-36" d="M 2113 2584 
Q 1688 2584 1439 2293 
Q 1191 2003 1191 1497 
Q 1191 994 1439 701 
Q 1688 409 2113 409 
Q 2538 409 2786 701 
Q 3034 994 3034 1497 
Q 3034 2003 2786 2293 
Q 2538 2584 2113 2584 
z
M 3366 4563 
L 3366 3988 
Q 3128 4100 2886 4159 
Q 2644 4219 2406 4219 
Q 1781 4219 1451 3797 
Q 1122 3375 1075 2522 
Q 1259 2794 1537 2939 
Q 1816 3084 2150 3084 
Q 2853 3084 3261 2657 
Q 3669 2231 3669 1497 
Q 3669 778 3244 343 
Q 2819 -91 2113 -91 
Q 1303 -91 875 529 
Q 447 1150 447 2328 
Q 447 3434 972 4092 
Q 1497 4750 2381 4750 
Q 2619 4750 2861 4703 
Q 3103 4656 3366 4563 
z
" transform="scale(0.015625)"/>
       </defs>
       <use xlink:href="#DejaVuSans-36"/>
      </g>
     </g>
    </g>
    <g id="ytick_5">
     <g id="line2d_14">
      <g>
       <use xlink:href="#me2825f05e8" x="44.66" y="125.889766" style="stroke: #000000; stroke-width: 0.8"/>
      </g>
     </g>
     <g id="text_15">
      <!-- 8 -->
      <g transform="translate(31.2975 129.688985) scale(0.1 -0.1)">
       <defs>
        <path id="DejaVuSans-38" d="M 2034 2216 
Q 1584 2216 1326 1975 
Q 1069 1734 1069 1313 
Q 1069 891 1326 650 
Q 1584 409 2034 409 
Q 2484 409 2743 651 
Q 3003 894 3003 1313 
Q 3003 1734 2745 1975 
Q 2488 2216 2034 2216 
z
M 1403 2484 
Q 997 2584 770 2862 
Q 544 3141 544 3541 
Q 544 4100 942 4425 
Q 1341 4750 2034 4750 
Q 2731 4750 3128 4425 
Q 3525 4100 3525 3541 
Q 3525 3141 3298 2862 
Q 3072 2584 2669 2484 
Q 3125 2378 3379 2068 
Q 3634 1759 3634 1313 
Q 3634 634 3220 271 
Q 2806 -91 2034 -91 
Q 1263 -91 848 271 
Q 434 634 434 1313 
Q 434 1759 690 2068 
Q 947 2378 1403 2484 
z
M 1172 3481 
Q 1172 3119 1398 2916 
Q 1625 2713 2034 2713 
Q 2441 2713 2670 2916 
Q 2900 3119 2900 3481 
Q 2900 3844 2670 4047 
Q 2441 4250 2034 4250 
Q 1625 4250 1398 4047 
Q 1172 3844 1172 3481 
z
" transform="scale(0.015625)"/>
       </defs>
       <use xlink:href="#DejaVuSans-38"/>
      </g>
     </g>
    </g>
    <g id="ytick_6">
     <g id="line2d_15">
      <g>
       <use xlink:href="#me2825f05e8" x="44.66" y="98.525386" style="stroke: #000000; stroke-width: 0.8"/>
      </g>
     </g>
     <g id="text_16">
      <!-- 10 -->
      <g transform="translate(24.935 102.324604) scale(0.1 -0.1)">
       <use xlink:href="#DejaVuSans-31"/>
       <use xlink:href="#DejaVuSans-30" x="63.623047"/>
      </g>
     </g>
    </g>
    <g id="ytick_7">
     <g id="line2d_16">
      <g>
       <use xlink:href="#me2825f05e8" x="44.66" y="71.161005" style="stroke: #000000; stroke-width: 0.8"/>
      </g>
     </g>
     <g id="text_17">
      <!-- 12 -->
      <g transform="translate(24.935 74.960224) scale(0.1 -0.1)">
       <use xlink:href="#DejaVuSans-31"/>
       <use xlink:href="#DejaVuSans-32" x="63.623047"/>
      </g>
     </g>
    </g>
    <g id="ytick_8">
     <g id="line2d_17">
      <g>
       <use xlink:href="#me2825f05e8" x="44.66" y="43.796624" style="stroke: #000000; stroke-width: 0.8"/>
      </g>
     </g>
     <g id="text_18">
      <!-- 14 -->
      <g transform="translate(24.935 47.595843) scale(0.1 -0.1)">
       <use xlink:href="#DejaVuSans-31"/>
       <use xlink:href="#DejaVuSans-34" x="63.623047"/>
      </g>
     </g>
    </g>
    <g id="ytick_9">
     <g id="line2d_18">
      <g>
       <use xlink:href="#me2825f05e8" x="44.66" y="16.432243" style="stroke: #000000; stroke-width: 0.8"/>
      </g>
     </g>
     <g id="text_19">
      <!-- 16 -->
      <g transform="translate(24.935 20.231462) scale(0.1 -0.1)">
       <use xlink:href="#DejaVuSans-31"/>
       <use xlink:href="#DejaVuSans-36" x="63.623047"/>
      </g>
     </g>
    </g>
    <g id="text_20">
     <!-- intensity / arb. u. -->
     <g transform="translate(18.855313 171.18875) rotate(-90) scale(0.1 -0.1)">
      <defs>
       <path id="DejaVuSans-69" d="M 603 3500 
L 1178 3500 
L 1178 0 
L 603 0 
L 603 3500 
z
M 603 4863 
L 1178 4863 
L 1178 4134 
L 603 4134 
L 603 4863 
z
" transform="scale(0.015625)"/>
       <path id="DejaVuSans-74" d="M 1172 4494 
L 1172 3500 
L 2356 3500 
L 2356 3053 
L 1172 3053 
L 1172 1153 
Q 1172 725 1289 603 
Q 1406 481 1766 481 
L 2356 481 
L 2356 0 
L 1766 0 
Q 1100 0 847 248 
Q 594 497 594 1153 
L 594 3053 
L 172 3053 
L 172 3500 
L 594 3500 
L 594 4494 
L 1172 4494 
z
" transform="scale(0.015625)"/>
       <path id="DejaVuSans-73" d="M 2834 3397 
L 2834 2853 
Q 2591 2978 2328 3040 
Q 2066 3103 1784 3103 
Q 1356 3103 1142 2972 
Q 928 2841 928 2578 
Q 928 2378 1081 2264 
Q 1234 2150 1697 2047 
L 1894 2003 
Q 2506 1872 2764 1633 
Q 3022 1394 3022 966 
Q 3022 478 2636 193 
Q 2250 -91 1575 -91 
Q 1294 -91 989 -36 
Q 684 19 347 128 
L 347 722 
Q 666 556 975 473 
Q 1284 391 1588 391 
Q 1994 391 2212 530 
Q 2431 669 2431 922 
Q 2431 1156 2273 1281 
Q 2116 1406 1581 1522 
L 1381 1569 
Q 847 1681 609 1914 
Q 372 2147 372 2553 
Q 372 3047 722 3315 
Q 1072 3584 1716 3584 
Q 2034 3584 2315 3537 
Q 2597 3491 2834 3397 
z
" transform="scale(0.015625)"/>
       <path id="DejaVuSans-79" d="M 2059 -325 
Q 1816 -950 1584 -1140 
Q 1353 -1331 966 -1331 
L 506 -1331 
L 506 -850 
L 844 -850 
Q 1081 -850 1212 -737 
Q 1344 -625 1503 -206 
L 1606 56 
L 191 3500 
L 800 3500 
L 1894 763 
L 2988 3500 
L 3597 3500 
L 2059 -325 
z
" transform="scale(0.015625)"/>
       <path id="DejaVuSans-2e" d="M 684 794 
L 1344 794 
L 1344 0 
L 684 0 
L 684 794 
z
" transform="scale(0.015625)"/>
      </defs>
      <use xlink:href="#DejaVuSans-69"/>
      <use xlink:href="#DejaVuSans-6e" x="27.783203"/>
      <use xlink:href="#DejaVuSans-74" x="91.162109"/>
      <use xlink:href="#DejaVuSans-65" x="130.371094"/>
      <use xlink:href="#DejaVuSans-6e" x="191.894531"/>
      <use xlink:href="#DejaVuSans-73" x="255.273438"/>
      <use xlink:href="#DejaVuSans-69" x="307.373047"/>
      <use xlink:href="#DejaVuSans-74" x="335.15625"/>
      <use xlink:href="#DejaVuSans-79" x="374.365234"/>
      <use xlink:href="#DejaVuSans-20" x="433.544922"/>
      <use xlink:href="#DejaVuSans-2f" x="465.332031"/>
      <use xlink:href="#DejaVuSans-20" x="499.023438"/>
      <use xlink:href="#DejaVuSans-61" x="530.810547"/>
      <use xlink:href="#DejaVuSans-72" x="592.089844"/>
      <use xlink:href="#DejaVuSans-62" x="633.203125"/>
      <use xlink:href="#DejaVuSans-2e" x="696.679688"/>
      <use xlink:href="#DejaVuSans-20" x="728.466797"/>
      <use xlink:href="#DejaVuSans-75" x="760.253906"/>
      <use xlink:href="#DejaVuSans-2e" x="823.632812"/>
     </g>
    </g>
   </g>
   <g id="line2d_19">
    <path d="M 44.415204 235.288401 
L 44.66 235.190468 
L 45.149593 235.321751 
L 45.639185 235.237406 
L 46.373574 235.313145 
L 46.61837 235.168247 
L 47.107963 235.334423 
L 47.352759 235.219009 
L 48.331944 235.272876 
L 48.576741 235.213872 
L 49.066333 235.325684 
L 49.555926 235.214899 
L 50.045518 235.346588 
L 50.290315 235.187477 
L 51.024704 235.240196 
L 57.634204 235.317152 
L 57.879 235.210414 
L 58.368593 235.220066 
L 58.613389 234.980529 
L 58.858185 235.193616 
L 59.83737 235.280862 
L 60.082167 235.180492 
L 60.326963 235.311591 
L 60.816555 235.322272 
L 61.061352 235.180716 
L 62.040537 235.102935 
L 62.285333 235.271948 
L 62.53013 235.288071 
L 62.774926 235.191534 
L 63.019722 235.340591 
L 63.264518 235.207779 
L 63.509315 235.267815 
L 63.998907 235.204145 
L 64.243704 235.305302 
L 64.978092 235.213819 
L 65.467685 235.28077 
L 65.712481 235.20986 
L 65.957278 235.34349 
L 66.44687 235.251214 
L 66.691667 235.287677 
L 66.936463 235.110686 
L 67.426055 235.262358 
L 67.670852 235.107405 
L 67.915648 235.346438 
L 69.629222 235.117298 
L 69.874018 235.303698 
L 70.118815 234.895055 
L 70.363611 235.237773 
L 70.608407 235.253655 
L 71.098 235.083818 
L 71.587592 235.300376 
L 71.832389 235.157533 
L 72.321981 235.309072 
L 72.566778 234.933212 
L 73.301167 235.301344 
L 73.545963 235.026578 
L 73.790759 235.302215 
L 74.035555 235.323011 
L 74.280352 234.925888 
L 74.525148 235.261378 
L 74.769944 235.327071 
L 75.259537 235.22637 
L 75.993926 235.240712 
L 76.238722 234.761728 
L 76.483518 235.175955 
L 76.728315 235.287943 
L 76.973111 235.044759 
L 77.217907 235.288757 
L 77.462704 235.284727 
L 77.7075 235.086117 
L 77.952296 235.33184 
L 78.197092 235.25617 
L 78.686685 235.338401 
L 78.931481 235.080042 
L 79.176278 235.194257 
L 79.421074 234.934922 
L 79.66587 235.020346 
L 79.910666 235.346083 
L 80.155463 235.149306 
L 80.400259 235.309612 
L 80.645055 235.252852 
L 80.889852 234.866983 
L 81.134648 235.317399 
L 82.603426 235.2548 
L 82.848222 234.89368 
L 83.337815 235.329088 
L 83.582611 235.238485 
L 83.827407 235.302227 
L 84.072203 234.914861 
L 84.317 235.220359 
L 84.561796 235.32488 
L 84.806592 235.139932 
L 85.296185 235.208775 
L 85.540981 234.909292 
L 85.785778 235.238592 
L 86.030574 235.322454 
L 86.27537 235.236397 
L 86.520166 235.344174 
L 86.764963 235.073016 
L 87.254555 235.250446 
L 87.499352 235.203497 
L 87.744148 235.301007 
L 87.988944 235.211637 
L 88.478537 235.247835 
L 88.723333 234.988038 
L 88.968129 235.259041 
L 91.171296 235.209235 
L 91.660889 235.231302 
L 91.905685 235.131797 
L 92.395278 235.185178 
L 92.88487 234.983609 
L 93.129666 235.183223 
L 93.619259 235.124483 
L 93.864055 235.321073 
L 94.108852 235.275121 
L 94.353648 234.937205 
L 94.598444 235.204225 
L 95.088037 235.170996 
L 95.332833 235.322192 
L 95.577629 235.282394 
L 95.822426 234.893661 
L 96.312018 235.292834 
L 96.556815 235.030095 
L 96.801611 235.260337 
L 97.046407 235.196367 
L 97.291203 235.340379 
L 97.536 235.285779 
L 97.780796 235.08194 
L 98.025592 235.243322 
L 98.270389 235.249752 
L 98.515185 235.081083 
L 99.004777 235.328109 
L 99.249574 234.95588 
L 99.49437 235.199583 
L 99.983963 235.22737 
L 100.228759 235.31206 
L 100.963148 235.104114 
L 101.45274 235.339148 
L 101.942333 235.269967 
L 103.900703 235.303594 
L 104.1455 235.187192 
L 105.369481 235.337271 
L 105.614277 235.188991 
L 106.10387 235.280032 
L 106.348666 235.13327 
L 106.593463 235.216361 
L 106.838259 235.155833 
L 107.327852 235.320571 
L 107.817444 235.216875 
L 108.06224 235.31127 
L 108.307037 235.188777 
L 108.551833 235.288424 
L 108.796629 235.178082 
L 109.041426 235.334035 
L 109.286222 235.170478 
L 111.244592 235.274654 
L 111.489389 235.113778 
L 111.734185 235.31664 
L 111.978981 235.286407 
L 112.223777 235.138975 
L 112.958166 235.294796 
L 113.447759 235.330895 
L 113.937351 235.175884 
L 114.182148 235.343674 
L 114.426944 234.945738 
L 114.67174 235.221125 
L 114.916537 235.294904 
L 115.406129 235.157043 
L 115.650926 235.154909 
L 115.895722 235.327972 
L 116.140518 234.907147 
L 116.385314 235.242566 
L 116.630111 235.139755 
L 116.874907 235.323116 
L 117.119703 234.998937 
L 117.854092 235.311968 
L 118.098888 235.169847 
L 118.343685 235.328085 
L 118.588481 235.171629 
L 118.833277 235.34166 
L 119.078074 235.091466 
L 119.567666 235.194543 
L 120.302055 235.28513 
L 120.791648 235.243724 
L 121.036444 235.323789 
L 121.28124 235.249968 
L 121.526037 235.345302 
L 121.770833 235.17064 
L 122.015629 235.306926 
L 122.505222 234.966287 
L 122.750018 235.321363 
L 122.994814 235.311158 
L 123.239611 234.85758 
L 123.729203 235.174929 
L 123.974 234.87935 
L 124.218796 235.296483 
L 124.463592 235.288915 
L 124.708388 235.150119 
L 124.953185 235.329228 
L 125.197981 235.037725 
L 125.687574 235.311282 
L 125.93237 235.238087 
L 126.177166 235.290872 
L 126.421963 235.018133 
L 126.666759 235.281814 
L 126.911555 235.296227 
L 127.156351 234.69171 
L 127.401148 235.071808 
L 127.645944 235.227864 
L 127.89074 235.122278 
L 128.135537 235.18735 
L 128.380333 234.759188 
L 128.625129 235.052273 
L 129.114722 234.64479 
L 129.359518 235.051027 
L 129.604314 235.190181 
L 129.849111 234.719166 
L 130.093907 234.949059 
L 130.338703 234.058852 
L 130.5835 234.101166 
L 130.828296 232.668511 
L 131.073092 230.321205 
L 131.317888 225.377693 
L 131.807481 192.267739 
L 132.54187 230.170074 
L 133.031462 233.799259 
L 133.276259 233.091465 
L 133.521055 233.817019 
L 134.010648 233.906698 
L 134.255444 234.365816 
L 134.50024 234.222679 
L 134.745037 234.866755 
L 134.989833 234.984312 
L 135.234629 234.460341 
L 135.479425 234.530824 
L 135.724222 234.207422 
L 135.969018 234.387466 
L 136.213814 234.862852 
L 136.458611 234.680054 
L 136.948203 235.221702 
L 137.192999 234.841035 
L 138.172185 234.784935 
L 138.661777 234.889045 
L 138.906574 234.668008 
L 139.15137 234.830945 
L 139.640962 234.262278 
L 139.885759 234.968659 
L 140.130555 234.88343 
L 140.375351 234.531742 
L 140.620148 234.903622 
L 140.864944 234.571076 
L 141.10974 234.453815 
L 141.354536 234.59326 
L 141.599333 234.259164 
L 142.088925 235.009317 
L 142.333722 234.643557 
L 142.578518 234.754229 
L 142.823314 234.536805 
L 143.068111 234.502503 
L 143.312907 234.844295 
L 143.802499 234.592626 
L 144.292092 234.36823 
L 144.536888 234.692676 
L 145.026481 234.345787 
L 145.271277 234.285151 
L 145.516074 233.932395 
L 145.76087 234.316794 
L 146.005666 234.371649 
L 146.250462 233.806583 
L 146.495259 233.75952 
L 146.984851 232.537016 
L 147.229648 232.454322 
L 147.474444 232.080063 
L 147.964036 232.593031 
L 148.208833 231.968421 
L 148.453629 231.662433 
L 148.698425 230.679321 
L 149.188018 226.794479 
L 149.432814 221.802217 
L 149.677611 212.576842 
L 149.922407 194.595694 
L 150.411999 131.701504 
L 150.656796 137.478848 
L 151.146388 194.29172 
L 151.635981 220.361322 
L 152.125573 227.306839 
L 152.37037 228.977717 
L 152.615166 229.323006 
L 153.104759 231.17233 
L 153.594351 232.414047 
L 153.839148 232.041116 
L 154.32874 232.856731 
L 154.573536 232.188988 
L 155.063129 232.309168 
L 155.307925 231.878045 
L 155.552722 231.753099 
L 156.042314 230.893973 
L 156.28711 230.661088 
L 156.531907 230.148025 
L 157.021499 230.901221 
L 157.266296 231.088836 
L 157.511092 231.817687 
L 157.755888 231.860123 
L 158.000685 232.023588 
L 158.245481 232.361845 
L 158.490277 232.0783 
L 159.224666 232.86837 
L 159.469462 232.798606 
L 159.714259 232.239976 
L 160.203851 232.028755 
L 160.448647 231.505245 
L 160.693444 231.782819 
L 161.183036 231.079059 
L 161.427833 231.462863 
L 161.917425 230.361449 
L 162.407018 228.943883 
L 162.651814 229.721952 
L 162.89661 231.081802 
L 163.386203 232.153564 
L 163.630999 232.38664 
L 163.875796 232.868601 
L 164.120592 232.902772 
L 164.365388 232.470884 
L 164.610185 232.796961 
L 165.099777 232.710687 
L 165.344573 233.232888 
L 165.58937 232.713076 
L 165.834166 232.644418 
L 166.078962 232.90876 
L 166.323759 232.391408 
L 166.568555 232.564071 
L 166.813351 232.43616 
L 167.058147 232.050536 
L 167.302944 232.381297 
L 167.792536 231.412904 
L 168.037333 231.620759 
L 168.282129 231.174276 
L 168.526925 231.091926 
L 169.016518 230.329727 
L 169.261314 230.649816 
L 169.750907 229.544216 
L 169.995703 229.815369 
L 170.730092 228.063533 
L 171.219684 226.631225 
L 171.464481 226.254294 
L 171.709277 226.281289 
L 171.954073 226.118736 
L 172.933259 223.123756 
L 173.178055 222.957255 
L 173.422851 222.453604 
L 173.912444 222.962249 
L 174.402036 221.562586 
L 174.891629 218.207383 
L 175.136425 215.951932 
L 176.11561 201.989584 
L 176.360407 202.290425 
L 176.605203 204.623377 
L 177.829184 221.854307 
L 179.053166 227.875383 
L 179.542759 228.843077 
L 179.787555 229.610548 
L 180.032351 229.769531 
L 180.521944 230.680646 
L 181.011536 231.226585 
L 181.256333 231.13378 
L 181.501129 231.698367 
L 181.745925 231.939442 
L 181.990721 231.459444 
L 182.235518 232.03151 
L 182.480314 232.136912 
L 182.72511 231.869163 
L 182.969907 232.32956 
L 183.214703 232.181693 
L 183.704296 232.579672 
L 183.949092 232.328432 
L 184.193888 232.895191 
L 184.438684 232.592982 
L 184.683481 232.010759 
L 184.928277 232.693878 
L 185.41787 232.465887 
L 185.662666 232.856503 
L 185.907462 232.438699 
L 186.397055 232.651357 
L 186.641851 232.272883 
L 187.131444 232.60787 
L 187.37624 232.670639 
L 187.621036 232.578165 
L 187.865833 232.339172 
L 188.110629 232.647615 
L 188.600221 232.534675 
L 188.845018 232.658743 
L 189.089814 232.197182 
L 189.33461 232.602545 
L 189.579407 232.53051 
L 189.824203 231.848408 
L 190.068999 232.395593 
L 190.558592 232.093526 
L 190.803388 232.486682 
L 191.048184 231.75621 
L 191.537777 231.416779 
L 191.782573 230.884378 
L 192.02737 231.512737 
L 192.516962 227.753585 
L 193.496147 232.461459 
L 193.740944 231.875297 
L 194.230536 232.457832 
L 194.475332 232.178225 
L 194.720129 232.659655 
L 194.964925 232.117399 
L 195.209721 231.88845 
L 195.454518 232.417369 
L 195.699314 232.090372 
L 196.188907 232.222111 
L 196.433703 232.140122 
L 196.678499 232.277643 
L 196.923295 231.831927 
L 197.412888 232.21994 
L 197.657684 231.64092 
L 197.902481 231.988183 
L 198.147277 231.863348 
L 198.392073 231.879418 
L 198.63687 232.402209 
L 198.881666 231.856625 
L 199.371258 232.446453 
L 199.616055 231.806691 
L 199.860851 232.417001 
L 200.105647 232.366935 
L 200.350444 232.028212 
L 200.59524 232.489614 
L 200.840036 232.097894 
L 201.084832 232.296765 
L 201.329629 232.312462 
L 201.574425 231.810044 
L 201.819221 232.464702 
L 202.308814 231.682665 
L 202.55361 232.441477 
L 202.798407 231.664913 
L 203.043203 231.778712 
L 203.287999 232.048054 
L 203.532795 231.457515 
L 203.777592 232.297939 
L 204.267184 231.468313 
L 204.511981 232.238312 
L 204.756777 231.338719 
L 205.001573 231.385797 
L 205.246369 231.86616 
L 205.491166 230.918286 
L 205.735962 231.315494 
L 205.980758 231.155786 
L 206.225555 230.71917 
L 206.470351 231.228329 
L 206.715147 230.386831 
L 206.959944 230.56316 
L 207.20474 230.968759 
L 207.449536 230.223301 
L 207.694332 230.814175 
L 208.183925 229.519158 
L 208.428721 230.256382 
L 208.673518 229.041131 
L 208.918314 228.623288 
L 209.16311 228.815234 
L 209.407906 227.879606 
L 209.652703 228.600891 
L 209.897499 228.346759 
L 210.142295 227.607164 
L 210.387092 228.33941 
L 210.631888 227.678844 
L 210.876684 227.788028 
L 211.121481 228.15504 
L 211.366277 227.190035 
L 211.611073 227.570208 
L 212.100666 226.87836 
L 212.345462 226.875924 
L 212.590258 225.252919 
L 212.835055 225.461141 
L 213.079851 225.394498 
L 213.324647 224.087193 
L 213.569443 225.044312 
L 214.059036 223.307202 
L 214.303832 225.191358 
L 214.548629 225.439308 
L 214.793425 225.137776 
L 215.283018 219.90596 
L 215.527814 220.979749 
L 216.017406 218.080602 
L 216.262203 218.591566 
L 216.506999 216.665684 
L 216.751795 218.183672 
L 216.996592 217.358795 
L 217.241388 215.661859 
L 217.486184 221.792416 
L 217.730981 218.577197 
L 217.975777 210.603389 
L 218.220573 211.996071 
L 218.465369 204.606076 
L 218.710166 193.054424 
L 218.954962 188.980716 
L 219.199758 182.118945 
L 219.444555 181.941655 
L 219.934147 199.034403 
L 220.178943 200.907556 
L 220.42374 205.803102 
L 220.668536 214.325231 
L 220.913332 212.887367 
L 221.158129 204.896446 
L 221.647721 215.844002 
L 221.892518 212.318548 
L 222.137314 214.152683 
L 222.38211 210.220095 
L 222.626906 204.340193 
L 222.871703 209.328217 
L 223.116499 208.291758 
L 223.361295 201.853622 
L 223.850888 203.084752 
L 224.095684 199.089545 
L 224.34048 199.89714 
L 224.585277 212.709188 
L 224.830073 214.694669 
L 225.074869 201.244766 
L 225.319666 203.419562 
L 225.564462 204.350183 
L 225.809258 194.578439 
L 226.054055 203.795384 
L 226.298851 201.94723 
L 226.543647 185.192652 
L 226.788443 199.286684 
L 227.03324 204.933931 
L 227.278036 177.972569 
L 227.522832 167.313894 
L 227.767629 168.269985 
L 228.012425 167.514419 
L 228.257221 180.925451 
L 228.502017 187.708562 
L 228.746814 179.258414 
L 228.99161 176.952547 
L 229.236406 186.347314 
L 229.481203 208.426021 
L 229.725999 213.617716 
L 230.215592 144.163356 
L 230.460388 170.3325 
L 230.705184 166.665382 
L 230.94998 125.124694 
L 231.194777 136.049652 
L 231.439573 180.017108 
L 231.684369 185.39341 
L 232.173962 151.376173 
L 232.418758 147.706472 
L 232.908351 158.948319 
L 233.153147 163.162499 
L 233.64274 205.828024 
L 233.887536 197.06284 
L 234.132332 178.602719 
L 234.377129 190.017847 
L 234.621925 206.957943 
L 234.866721 203.54787 
L 235.111517 195.172076 
L 235.356314 190.798955 
L 235.60111 205.669519 
L 235.845906 228.843593 
L 236.090703 222.146615 
L 236.335499 205.134849 
L 236.580295 200.158439 
L 236.825092 201.056919 
L 237.069888 212.742152 
L 237.314684 215.999263 
L 237.55948 214.793831 
L 237.804277 224.851214 
L 238.293869 212.008697 
L 238.538666 219.365198 
L 238.783462 206.130277 
L 239.028258 209.629371 
L 239.273054 225.164561 
L 239.517851 209.799282 
L 239.762647 212.785298 
L 240.007443 231.69563 
L 240.25224 226.409486 
L 240.497036 224.434891 
L 240.741832 220.4804 
L 240.986629 211.122647 
L 241.231425 215.465327 
L 241.476221 215.33961 
L 241.721017 215.488956 
L 241.965814 219.736042 
L 242.21061 221.935176 
L 242.455406 233.494434 
L 242.700203 229.127857 
L 242.944999 213.691647 
L 243.189795 217.115843 
L 243.434591 215.524657 
L 243.679388 216.586362 
L 243.924184 224.691405 
L 244.16898 211.504696 
L 244.413777 211.316047 
L 244.658573 226.132953 
L 245.148166 206.722687 
L 245.392962 210.406988 
L 245.637758 209.078116 
L 245.882554 210.005243 
L 246.127351 210.009509 
L 246.372147 208.028782 
L 246.616943 207.161977 
L 246.86174 203.588275 
L 247.106536 201.784335 
L 247.351332 193.163007 
L 248.085721 132.981945 
L 248.575314 21.492727 
L 248.82011 35.033563 
L 249.309703 168.122357 
L 249.799295 225.578547 
L 250.044091 223.936679 
L 250.288888 218.117977 
L 250.533684 226.139953 
L 251.023277 219.354789 
L 251.268073 226.476504 
L 251.757666 228.820651 
L 252.002462 232.586524 
L 252.247258 233.641289 
L 252.492054 232.99739 
L 252.736851 231.475705 
L 252.981647 231.846189 
L 253.47124 233.593002 
L 253.716036 235.069236 
L 253.960832 232.943556 
L 254.205628 233.281433 
L 254.450425 234.771149 
L 254.940017 232.400329 
L 255.184814 233.086488 
L 255.42961 232.57468 
L 255.674406 234.351723 
L 256.163999 232.360587 
L 256.408795 234.935397 
L 256.653591 233.596067 
L 256.898388 233.147978 
L 257.143184 234.469128 
L 257.38798 233.091946 
L 257.632777 232.995155 
L 257.877573 232.473452 
L 258.122369 232.769165 
L 258.367165 235.064172 
L 258.611962 233.566967 
L 258.856758 232.991744 
L 259.101554 234.010757 
L 259.346351 232.540683 
L 259.835943 234.303792 
L 260.08074 233.235845 
L 260.325536 234.427178 
L 260.570332 232.986382 
L 260.815128 230.429111 
L 261.059925 230.875486 
L 261.304721 229.272665 
L 261.549517 226.194829 
L 261.794314 225.285429 
L 262.03911 226.312295 
L 262.528702 232.272117 
L 262.773499 231.950481 
L 263.018295 229.481839 
L 263.263091 229.598877 
L 263.507888 231.038764 
L 263.752684 230.72756 
L 264.242277 232.938579 
L 264.487073 232.922711 
L 264.731869 234.447303 
L 265.221462 231.188049 
L 265.466258 232.442508 
L 265.711054 231.04357 
L 265.955851 230.569432 
L 266.200647 232.109901 
L 266.445443 230.864351 
L 266.690239 232.022935 
L 266.935036 231.235025 
L 267.179832 226.143743 
L 267.669425 227.13538 
L 267.914221 224.927878 
L 268.159017 227.692623 
L 268.403814 228.018924 
L 268.64861 226.094149 
L 269.138202 230.243697 
L 269.382999 231.333266 
L 269.627795 233.297534 
L 270.117388 231.664215 
L 270.60698 233.230956 
L 271.096573 233.721887 
L 271.830962 234.263757 
L 272.075758 234.970484 
L 272.565351 234.444748 
L 272.810147 234.907518 
L 273.299739 234.88099 
L 273.789332 234.499752 
L 274.034128 234.900497 
L 274.768517 234.893573 
L 275.013314 234.468701 
L 275.502906 234.802367 
L 275.747702 234.631537 
L 275.992499 234.994028 
L 276.482091 234.628851 
L 276.726888 234.901082 
L 276.971684 234.768087 
L 277.461276 234.206889 
L 277.950869 234.654311 
L 278.195665 234.45238 
L 278.685258 235.262309 
L 278.930054 234.879689 
L 279.174851 235.048346 
L 279.419647 235.007188 
L 279.664443 234.794847 
L 279.909239 234.920673 
L 280.154036 234.705509 
L 280.643628 234.830089 
L 280.888425 234.561702 
L 281.133221 234.690782 
L 281.378017 234.554906 
L 281.622813 234.610489 
L 281.86761 234.848716 
L 282.112406 234.326907 
L 282.357202 234.286314 
L 282.601999 234.369341 
L 282.846795 234.047951 
L 283.091591 234.429512 
L 283.336388 234.456111 
L 283.581184 234.195342 
L 283.82598 234.500886 
L 284.070776 234.466895 
L 284.560369 234.720585 
L 284.805165 234.520974 
L 285.049962 234.701862 
L 285.539554 234.479671 
L 285.784351 234.740498 
L 286.029147 234.66017 
L 286.518739 234.819424 
L 286.763536 234.567992 
L 287.008332 234.722632 
L 287.497925 234.164482 
L 287.742721 234.539512 
L 287.987517 234.555879 
L 288.232313 234.432555 
L 288.966702 234.639148 
L 289.211499 234.508863 
L 289.456295 234.578706 
L 289.701091 234.864089 
L 289.945888 234.811705 
L 290.43548 235.109315 
L 290.680276 234.934808 
L 290.925073 235.037473 
L 291.414665 234.987103 
L 291.659462 235.086086 
L 291.904258 234.830135 
L 292.39385 235.064066 
L 292.638647 234.868744 
L 293.373036 235.318111 
L 293.617832 235.291649 
L 293.862628 235.089802 
L 294.352221 235.219402 
L 294.841813 235.179198 
L 295.576202 235.328962 
L 295.820999 235.184551 
L 296.065795 235.279836 
L 296.310591 235.13481 
L 296.555387 235.341367 
L 296.800184 235.226244 
L 297.289776 235.343744 
L 297.534573 235.210884 
L 298.024165 235.319017 
L 298.268962 235.220515 
L 299.248147 235.3337 
L 299.737739 235.195412 
L 299.982536 235.305411 
L 300.227332 235.232395 
L 300.472128 235.346995 
L 301.940906 235.236485 
L 302.430499 235.31268 
L 302.675295 235.227131 
L 303.65448 235.330007 
L 303.899276 235.146462 
L 304.144073 235.273959 
L 304.633665 235.037203 
L 305.123258 235.248323 
L 305.61285 235.170546 
L 305.857647 235.292847 
L 306.592036 235.142948 
L 307.571221 235.344969 
L 308.060813 235.229353 
L 308.30561 235.341218 
L 308.550406 235.209355 
L 308.795202 235.340392 
L 309.039999 235.313664 
L 309.284795 235.169836 
L 309.529591 235.23965 
L 309.774387 235.114625 
L 310.019184 235.227197 
L 310.753573 235.120864 
L 311.977554 235.310415 
L 312.467147 235.191746 
L 312.711943 235.336981 
L 312.956739 235.32517 
L 313.201536 235.160739 
L 313.691128 235.248849 
L 314.425517 235.182585 
L 314.91511 235.239703 
L 315.159906 235.22048 
L 315.404702 235.328073 
L 315.894295 235.164164 
L 316.139091 235.320514 
L 316.383887 235.171068 
L 317.118276 235.295493 
L 318.83185 235.31288 
L 319.076647 235.138194 
L 319.811035 235.326553 
L 320.055832 235.194583 
L 320.300628 235.315701 
L 321.035017 235.22787 
L 321.279813 235.064151 
L 321.769406 235.250267 
L 322.258998 235.328698 
L 322.503795 235.154827 
L 322.748591 235.314992 
L 322.993387 235.17496 
L 323.48298 235.242414 
L 323.727776 235.154144 
L 323.972573 235.320315 
L 324.462165 235.274858 
L 324.706961 235.081278 
L 324.951758 235.107248 
L 325.196554 235.313658 
L 325.44135 235.212811 
L 326.420535 235.338213 
L 326.665332 235.330123 
L 326.910128 235.176538 
L 327.644517 235.334782 
L 327.889313 235.211166 
L 328.623702 235.300787 
L 328.868498 235.104197 
L 329.358091 235.333698 
L 329.602887 235.257113 
L 329.847684 235.298099 
L 330.09248 235.06439 
L 330.337276 235.208558 
L 330.826869 235.113148 
L 331.316461 235.309808 
L 332.295647 235.184995 
L 332.785239 235.342321 
L 333.764424 235.247763 
L 334.009221 235.056353 
L 334.254017 235.297972 
L 335.233202 235.255098 
L 335.477998 235.2915 
L 335.722795 235.131946 
L 335.967591 235.228931 
L 336.946776 234.454611 
L 338.170758 235.333548 
L 338.415554 235.243918 
L 338.905146 235.299476 
L 339.639535 235.25945 
L 340.129128 235.311851 
L 340.373924 235.179322 
L 340.863517 235.27782 
L 341.108313 235.054753 
L 341.597906 235.197195 
L 341.842702 235.09642 
L 342.087498 235.346388 
L 342.332295 235.329523 
L 342.577091 235.180504 
L 342.821887 235.341733 
L 343.31148 235.205575 
L 343.556276 235.327565 
L 343.801072 235.153821 
L 344.290665 235.224131 
L 344.535461 235.114518 
L 344.780258 235.319482 
L 345.26985 235.105799 
L 345.514646 235.284271 
L 346.493832 235.187057 
L 346.738628 234.946142 
L 347.228221 234.969147 
L 347.473017 234.67099 
L 347.962609 234.698298 
L 348.207406 234.476701 
L 348.696998 234.604011 
L 348.941795 234.590023 
L 349.431387 234.683751 
L 351.144961 234.903892 
L 351.87935 234.736055 
L 352.124146 234.819085 
L 352.368943 234.753696 
L 352.613739 234.57292 
L 353.592924 234.573522 
L 354.082517 234.392845 
L 354.327313 234.571136 
L 354.816906 234.585735 
L 355.306498 234.7387 
L 355.796091 234.627139 
L 356.285683 234.845561 
L 357.020072 234.465728 
L 357.509665 234.464233 
L 357.754461 234.369341 
L 358.244054 234.731063 
L 358.733646 234.997844 
L 358.978443 234.899844 
L 359.223239 234.972743 
L 359.468035 235.167039 
L 360.202424 235.077827 
L 361.181609 235.201762 
L 362.160795 235.322311 
L 362.405591 235.206881 
L 362.650387 235.263898 
L 362.895183 235.179876 
L 363.13998 235.293022 
L 363.384776 235.164828 
L 363.874369 235.25022 
L 365.587943 235.152967 
L 365.832739 235.31522 
L 366.077535 235.256891 
L 366.567128 235.277076 
L 366.811924 235.129395 
L 367.301517 235.286479 
L 367.546313 235.068399 
L 368.035906 235.317621 
L 368.770294 235.247955 
L 369.015091 235.319853 
L 369.259887 235.131097 
L 370.239072 235.343824 
L 370.728665 235.248198 
L 370.973461 235.28565 
L 371.218257 235.151904 
L 372.442239 235.291373 
L 372.931831 235.197106 
L 373.66622 235.246022 
L 373.911017 235.288469 
L 374.155813 235.216468 
L 374.645406 235.273364 
L 374.890202 235.195636 
L 375.624591 235.341067 
L 376.35898 235.265818 
L 376.603776 235.053713 
L 377.093369 235.270182 
L 377.582961 235.215683 
L 378.31735 235.346026 
L 378.562146 235.126419 
L 378.806943 235.136754 
L 379.051739 235.346585 
L 380.520517 235.281011 
L 380.765313 235.346488 
L 381.254906 235.311541 
L 382.234091 235.216071 
L 382.723683 235.335193 
L 382.96848 235.314519 
L 383.213276 235.120606 
L 383.458072 235.232103 
L 383.702868 235.07024 
L 383.947665 234.7722 
L 384.92685 235.100936 
L 385.171646 234.928146 
L 385.661239 235.114188 
L 385.906035 235.065164 
L 386.150831 235.246438 
L 386.640424 235.084895 
L 386.88522 235.187597 
L 387.374813 234.95383 
L 387.619609 235.061925 
L 388.353998 234.680915 
L 388.598794 234.663361 
L 389.57798 233.949493 
L 390.067572 232.988109 
L 390.557165 230.680592 
L 391.046757 227.628327 
L 391.291554 227.552938 
L 391.781146 230.130329 
L 392.270739 232.695401 
L 393.005128 233.896106 
L 393.249924 234.02782 
L 393.49472 234.016469 
L 393.739517 233.890595 
L 394.229109 234.140211 
L 394.473905 233.979952 
L 394.963498 234.282821 
L 395.208294 234.187696 
L 395.453091 234.305899 
L 395.697887 234.266729 
L 395.942683 234.070846 
L 396.432276 234.333754 
L 396.921868 234.0792 
L 397.411461 234.000079 
L 397.901054 233.963945 
L 398.390646 233.982473 
L 398.880239 233.586931 
L 399.125035 233.640424 
L 399.614628 233.268268 
L 399.859424 233.27959 
L 400.349017 232.9941 
L 400.838609 232.622944 
L 401.083405 232.617354 
L 401.572998 231.879675 
L 401.817794 231.795836 
L 402.307387 231.086586 
L 402.552183 231.005884 
L 403.776165 228.598419 
L 404.510554 226.054374 
L 405.734535 219.989616 
L 406.468924 215.057603 
L 407.203313 209.314525 
L 407.448109 207.842714 
L 407.692905 207.450161 
L 407.937702 207.836948 
L 408.182498 208.634722 
L 409.406479 214.381483 
L 409.896072 215.997364 
L 410.385665 216.755978 
L 410.630461 216.938412 
L 410.875257 216.899846 
L 411.120054 216.488993 
L 411.609646 215.114957 
L 412.099239 212.832205 
L 412.588831 209.203522 
L 413.078424 204.279066 
L 414.547202 186.96694 
L 414.791998 186.103128 
L 415.036794 186.593447 
L 415.281591 188.218069 
L 416.505572 204.320147 
L 416.995165 207.036243 
L 417.239961 207.408865 
L 417.97435 206.82229 
L 418.219146 206.914489 
L 418.463942 206.854346 
L 418.708739 207.156796 
L 420.177516 212.194587 
L 420.422313 212.67085 
L 421.646294 213.188484 
L 422.135887 214.165849 
L 423.115072 216.886124 
L 423.604665 217.536328 
L 423.849461 218.183184 
L 424.094257 218.493713 
L 424.58385 218.427971 
L 424.828646 217.923871 
L 425.318239 216.187273 
L 426.54222 209.528057 
L 427.031813 204.945366 
L 427.276609 202.547542 
L 427.521405 201.911345 
L 427.766202 203.795388 
L 428.745387 216.238628 
L 429.479776 221.773365 
L 431.19335 228.691262 
L 431.927739 230.380792 
L 432.906924 231.596178 
L 433.886109 232.467961 
L 434.375702 232.63702 
L 434.865294 233.006692 
L 437.068461 234.312883 
L 437.313257 234.296779 
L 437.558053 234.394959 
L 437.80285 234.6729 
L 438.537239 234.746944 
L 438.782035 234.689544 
L 439.516424 234.951017 
L 440.006016 234.971184 
L 440.250813 235.037509 
L 440.740405 234.942777 
L 440.985201 235.097201 
L 442.698776 235.175259 
L 442.943572 235.317386 
L 443.433164 235.103125 
L 443.922757 235.266017 
L 444.167553 235.119063 
L 444.657146 235.33456 
L 445.146738 235.165301 
L 445.881127 235.340448 
L 447.105109 235.25026 
L 448.32909 235.33629 
L 449.553072 235.198676 
L 449.797868 235.339105 
L 450.042664 235.146176 
L 450.777053 235.277352 
L 454.693794 235.260198 
L 455.428183 235.236893 
L 456.896961 235.332464 
L 457.386553 235.275645 
L 458.120942 235.324207 
L 458.855331 235.275393 
L 459.344924 235.224779 
L 459.58972 235.344356 
L 460.079312 235.146741 
L 461.058498 235.32343 
L 461.54809 235.245236 
L 462.037683 235.214742 
L 462.282479 235.15096 
L 462.772072 235.285489 
L 463.261664 235.178512 
L 463.506461 235.311977 
L 467.178405 235.171987 
L 467.423201 235.329362 
L 468.15759 235.165188 
L 468.647183 235.276486 
L 468.891979 235.346703 
L 469.381572 235.208956 
L 469.871164 235.301505 
L 471.584738 235.261843 
L 471.829535 235.268622 
L 472.319127 235.149356 
L 472.563924 235.306088 
L 473.787905 235.090325 
L 474.032701 235.289192 
L 474.522294 235.245291 
L 474.76709 235.117095 
L 475.011886 235.306 
L 475.256683 235.33026 
L 475.501479 235.152964 
L 476.480664 235.307975 
L 477.215053 235.233288 
L 477.704646 235.340469 
L 477.949442 235.211503 
L 480.152609 235.338163 
L 480.397405 235.252308 
L 481.131794 235.321587 
L 481.621386 235.199026 
L 481.866183 235.314229 
L 484.803738 235.194877 
L 485.048535 234.991252 
L 485.538127 235.031665 
L 485.782923 234.996876 
L 486.02772 235.134006 
L 486.517312 235.084837 
L 486.762109 235.199797 
L 487.251701 235.081569 
L 487.496498 235.140884 
L 487.741294 235.084621 
L 488.230886 235.261686 
L 488.720479 235.221075 
L 489.210072 235.237691 
L 489.699664 235.259423 
L 489.94446 235.3461 
L 490.434053 235.284292 
L 490.923646 235.335788 
L 491.168442 235.22225 
L 492.63722 235.324367 
L 493.126812 235.266277 
L 494.105997 235.324721 
L 494.350794 235.249595 
L 494.840386 235.320853 
L 495.329979 235.1464 
L 495.574775 235.291784 
L 496.064368 235.280961 
L 496.55396 235.239478 
L 497.777942 235.232281 
L 498.512331 235.119709 
L 499.001923 235.238996 
L 500.470701 235.197746 
L 500.715497 235.302008 
L 501.20509 235.013928 
L 501.694683 235.145646 
L 502.184275 235.082412 
L 502.429072 235.030927 
L 502.673868 235.171188 
L 503.408257 235.198371 
L 503.653053 235.051778 
L 504.142646 235.299366 
L 504.387442 235.081264 
L 505.85622 235.15716 
L 506.101016 235.197542 
L 506.345812 235.091033 
L 506.835405 235.237076 
L 507.080201 235.093438 
L 510.507349 235.109763 
L 510.752146 235.244699 
L 512.710516 235.10822 
L 512.955312 235.264083 
L 513.200108 235.224471 
L 513.444905 235.051513 
L 513.934497 235.077618 
L 514.179294 235.080317 
L 514.42409 235.26915 
L 514.913683 235.087905 
L 515.158479 235.196081 
L 515.403275 235.025292 
L 515.648071 235.091853 
L 515.892868 235.329707 
L 516.38246 234.964134 
L 516.627257 235.17804 
L 517.116849 235.070604 
L 517.606442 235.118017 
L 519.07522 235.164234 
L 519.564812 235.10011 
L 520.054405 235.287816 
L 520.543997 235.149368 
L 522.99196 235.092584 
L 523.236757 235.012178 
L 524.460738 235.145514 
L 524.950331 235.19482 
L 525.195127 235.228583 
L 525.439923 235.078598 
L 525.68472 235.059402 
L 525.929516 235.208303 
L 528.622275 235.145422 
L 529.111868 235.280676 
L 529.356664 235.032741 
L 529.60146 235.027898 
L 529.846257 235.303888 
L 530.335849 235.060978 
L 530.825442 235.151876 
L 531.315034 235.22349 
L 531.559831 235.063393 
L 533.273405 235.173867 
L 533.518201 235.045123 
L 534.007794 235.311599 
L 534.25259 235.152617 
L 534.742182 235.200751 
L 534.986979 235.088333 
L 535.476571 235.21631 
L 536.21096 235.176212 
L 537.679738 235.234284 
L 538.169331 235.25194 
L 539.393312 235.285079 
L 539.638108 235.328942 
L 540.127701 235.165968 
L 540.617294 235.345655 
L 541.106886 235.227449 
L 546.002812 235.266984 
L 546.492405 235.280725 
L 547.961182 235.207189 
L 548.205979 235.177617 
L 548.450775 235.273668 
L 548.940368 235.287936 
L 549.185164 235.308849 
L 549.42996 235.165219 
L 551.143534 235.24589 
L 552.612312 235.287121 
L 552.612312 235.287121 
" clip-path="url(#p1fbff42eab)" style="fill: none; stroke: #1f77b4; stroke-width: 1.5; stroke-linecap: square"/>
   </g>
   <g id="patch_3">
    <path d="M 44.66 246.04 
L 44.66 10.8 
" style="fill: none; stroke: #000000; stroke-width: 0.8; stroke-linejoin: miter; stroke-linecap: square"/>
   </g>
   <g id="patch_4">
    <path d="M 552.42 246.04 
L 552.42 10.8 
" style="fill: none; stroke: #000000; stroke-width: 0.8; stroke-linejoin: miter; stroke-linecap: square"/>
   </g>
   <g id="patch_5">
    <path d="M 44.66 246.04 
L 552.42 246.04 
" style="fill: none; stroke: #000000; stroke-width: 0.8; stroke-linejoin: miter; stroke-linecap: square"/>
   </g>
   <g id="patch_6">
    <path d="M 44.66 10.8 
L 552.42 10.8 
" style="fill: none; stroke: #000000; stroke-width: 0.8; stroke-linejoin: miter; stroke-linecap: square"/>
   </g>
  </g>
 </g>
 <defs>
  <clipPath id="p1fbff42eab">
   <rect x="44.66" y="10.8" width="507.76" height="235.24"/>
  </clipPath>
 </defs>
</svg>
