<?xml version="1.0" encoding="utf-8" standalone="no"?>
<!DOCTYPE svg PUBLIC "-//W3C//DTD SVG 1.1//EN"
  "http://www.w3.org/Graphics/SVG/1.1/DTD/svg11.dtd">
<svg xmlns:xlink="http://www.w3.org/1999/xlink" width="576pt" height="288pt" viewBox="0 0 576 288" xmlns="http://www.w3.org/2000/svg" version="1.1">
 <metadata>
  <rdf:RDF xmlns:dc="http://purl.org/dc/elements/1.1/" xmlns:cc="http://creativecommons.org/ns#" xmlns:rdf="http://www.w3.org/1999/02/22-rdf-syntax-ns#">
   <cc:Work>
    <dc:type rdf:resource="http://purl.org/dc/dcmitype/StillImage"/>
    <dc:date>2024-05-21T17:50:55.029141</dc:date>
    <dc:format>image/svg+xml</dc:format>
    <dc:creator>
     <cc:Agent>
      <dc:title>Matplotlib v3.7.2, https://matplotlib.org/</dc:title>
     </cc:Agent>
    </dc:creator>
   </cc:Work>
  </rdf:RDF>
 </metadata>
 <defs>
  <style type="text/css">*{stroke-linejoin: round; stroke-linecap: butt}</style>
 </defs>
 <g id="figure_1">
  <g id="patch_1">
   <path d="M 0 288 
L 576 288 
L 576 0 
L 0 0 
z
" style="fill: #ffffff"/>
  </g>
  <g id="axes_1">
   <g id="patch_2">
    <path d="M 46.595 246.04 
L 265.14 246.04 
L 265.14 10.8 
L 46.595 10.8 
z
" style="fill: #ffffff"/>
   </g>
   <g id="matplotlib.axis_1">
    <g id="xtick_1">
     <g id="line2d_1">
      <defs>
       <path id="m3582542e81" d="M 0 0 
L 0 3.5 
" style="stroke: #000000; stroke-width: 0.8"/>
      </defs>
      <g>
       <use xlink:href="#m3582542e81" x="46.595" y="246.04" style="stroke: #000000; stroke-width: 0.8"/>
      </g>
     </g>
     <g id="text_1">
      <!-- −200 -->
      <g transform="translate(32.861406 260.638438) scale(0.1 -0.1)">
       <defs>
        <path id="DejaVuSans-2212" d="M 678 2272 
L 4684 2272 
L 4684 1741 
L 678 1741 
L 678 2272 
z
" transform="scale(0.015625)"/>
        <path id="DejaVuSans-32" d="M 1228 531 
L 3431 531 
L 3431 0 
L 469 0 
L 469 531 
Q 828 903 1448 1529 
Q 2069 2156 2228 2338 
Q 2531 2678 2651 2914 
Q 2772 3150 2772 3378 
Q 2772 3750 2511 3984 
Q 2250 4219 1831 4219 
Q 1534 4219 1204 4116 
Q 875 4013 500 3803 
L 500 4441 
Q 881 4594 1212 4672 
Q 1544 4750 1819 4750 
Q 2544 4750 2975 4387 
Q 3406 4025 3406 3419 
Q 3406 3131 3298 2873 
Q 3191 2616 2906 2266 
Q 2828 2175 2409 1742 
Q 1991 1309 1228 531 
z
" transform="scale(0.015625)"/>
        <path id="DejaVuSans-30" d="M 2034 4250 
Q 1547 4250 1301 3770 
Q 1056 3291 1056 2328 
Q 1056 1369 1301 889 
Q 1547 409 2034 409 
Q 2525 409 2770 889 
Q 3016 1369 3016 2328 
Q 3016 3291 2770 3770 
Q 2525 4250 2034 4250 
z
M 2034 4750 
Q 2819 4750 3233 4129 
Q 3647 3509 3647 2328 
Q 3647 1150 3233 529 
Q 2819 -91 2034 -91 
Q 1250 -91 836 529 
Q 422 1150 422 2328 
Q 422 3509 836 4129 
Q 1250 4750 2034 4750 
z
" transform="scale(0.015625)"/>
       </defs>
       <use xlink:href="#DejaVuSans-2212"/>
       <use xlink:href="#DejaVuSans-32" x="83.789062"/>
       <use xlink:href="#DejaVuSans-30" x="147.412109"/>
       <use xlink:href="#DejaVuSans-30" x="211.035156"/>
      </g>
     </g>
    </g>
    <g id="xtick_2">
     <g id="line2d_2">
      <g>
       <use xlink:href="#m3582542e81" x="101.23125" y="246.04" style="stroke: #000000; stroke-width: 0.8"/>
      </g>
     </g>
     <g id="text_2">
      <!-- −100 -->
      <g transform="translate(87.497656 260.638438) scale(0.1 -0.1)">
       <defs>
        <path id="DejaVuSans-31" d="M 794 531 
L 1825 531 
L 1825 4091 
L 703 3866 
L 703 4441 
L 1819 4666 
L 2450 4666 
L 2450 531 
L 3481 531 
L 3481 0 
L 794 0 
L 794 531 
z
" transform="scale(0.015625)"/>
       </defs>
       <use xlink:href="#DejaVuSans-2212"/>
       <use xlink:href="#DejaVuSans-31" x="83.789062"/>
       <use xlink:href="#DejaVuSans-30" x="147.412109"/>
       <use xlink:href="#DejaVuSans-30" x="211.035156"/>
      </g>
     </g>
    </g>
    <g id="xtick_3">
     <g id="line2d_3">
      <g>
       <use xlink:href="#m3582542e81" x="155.8675" y="246.04" style="stroke: #000000; stroke-width: 0.8"/>
      </g>
     </g>
     <g id="text_3">
      <!-- 0 -->
      <g transform="translate(152.68625 260.638438) scale(0.1 -0.1)">
       <use xlink:href="#DejaVuSans-30"/>
      </g>
     </g>
    </g>
    <g id="xtick_4">
     <g id="line2d_4">
      <g>
       <use xlink:href="#m3582542e81" x="210.50375" y="246.04" style="stroke: #000000; stroke-width: 0.8"/>
      </g>
     </g>
     <g id="text_4">
      <!-- 100 -->
      <g transform="translate(200.96 260.638438) scale(0.1 -0.1)">
       <use xlink:href="#DejaVuSans-31"/>
       <use xlink:href="#DejaVuSans-30" x="63.623047"/>
       <use xlink:href="#DejaVuSans-30" x="127.246094"/>
      </g>
     </g>
    </g>
    <g id="xtick_5">
     <g id="line2d_5">
      <g>
       <use xlink:href="#m3582542e81" x="265.14" y="246.04" style="stroke: #000000; stroke-width: 0.8"/>
      </g>
     </g>
     <g id="text_5">
      <!-- 200 -->
      <g transform="translate(255.59625 260.638438) scale(0.1 -0.1)">
       <use xlink:href="#DejaVuSans-32"/>
       <use xlink:href="#DejaVuSans-30" x="63.623047"/>
       <use xlink:href="#DejaVuSans-30" x="127.246094"/>
      </g>
     </g>
    </g>
    <g id="text_6">
     <!-- relative shift / step -->
     <g transform="translate(108.947188 274.316562) scale(0.1 -0.1)">
      <defs>
       <path id="DejaVuSans-72" d="M 2631 2963 
Q 2534 3019 2420 3045 
Q 2306 3072 2169 3072 
Q 1681 3072 1420 2755 
Q 1159 2438 1159 1844 
L 1159 0 
L 581 0 
L 581 3500 
L 1159 3500 
L 1159 2956 
Q 1341 3275 1631 3429 
Q 1922 3584 2338 3584 
Q 2397 3584 2469 3576 
Q 2541 3569 2628 3553 
L 2631 2963 
z
" transform="scale(0.015625)"/>
       <path id="DejaVuSans-65" d="M 3597 1894 
L 3597 1613 
L 953 1613 
Q 991 1019 1311 708 
Q 1631 397 2203 397 
Q 2534 397 2845 478 
Q 3156 559 3463 722 
L 3463 178 
Q 3153 47 2828 -22 
Q 2503 -91 2169 -91 
Q 1331 -91 842 396 
Q 353 884 353 1716 
Q 353 2575 817 3079 
Q 1281 3584 2069 3584 
Q 2775 3584 3186 3129 
Q 3597 2675 3597 1894 
z
M 3022 2063 
Q 3016 2534 2758 2815 
Q 2500 3097 2075 3097 
Q 1594 3097 1305 2825 
Q 1016 2553 972 2059 
L 3022 2063 
z
" transform="scale(0.015625)"/>
       <path id="DejaVuSans-6c" d="M 603 4863 
L 1178 4863 
L 1178 0 
L 603 0 
L 603 4863 
z
" transform="scale(0.015625)"/>
       <path id="DejaVuSans-61" d="M 2194 1759 
Q 1497 1759 1228 1600 
Q 959 1441 959 1056 
Q 959 750 1161 570 
Q 1363 391 1709 391 
Q 2188 391 2477 730 
Q 2766 1069 2766 1631 
L 2766 1759 
L 2194 1759 
z
M 3341 1997 
L 3341 0 
L 2766 0 
L 2766 531 
Q 2569 213 2275 61 
Q 1981 -91 1556 -91 
Q 1019 -91 701 211 
Q 384 513 384 1019 
Q 384 1609 779 1909 
Q 1175 2209 1959 2209 
L 2766 2209 
L 2766 2266 
Q 2766 2663 2505 2880 
Q 2244 3097 1772 3097 
Q 1472 3097 1187 3025 
Q 903 2953 641 2809 
L 641 3341 
Q 956 3463 1253 3523 
Q 1550 3584 1831 3584 
Q 2591 3584 2966 3190 
Q 3341 2797 3341 1997 
z
" transform="scale(0.015625)"/>
       <path id="DejaVuSans-74" d="M 1172 4494 
L 1172 3500 
L 2356 3500 
L 2356 3053 
L 1172 3053 
L 1172 1153 
Q 1172 725 1289 603 
Q 1406 481 1766 481 
L 2356 481 
L 2356 0 
L 1766 0 
Q 1100 0 847 248 
Q 594 497 594 1153 
L 594 3053 
L 172 3053 
L 172 3500 
L 594 3500 
L 594 4494 
L 1172 4494 
z
" transform="scale(0.015625)"/>
       <path id="DejaVuSans-69" d="M 603 3500 
L 1178 3500 
L 1178 0 
L 603 0 
L 603 3500 
z
M 603 4863 
L 1178 4863 
L 1178 4134 
L 603 4134 
L 603 4863 
z
" transform="scale(0.015625)"/>
       <path id="DejaVuSans-76" d="M 191 3500 
L 800 3500 
L 1894 563 
L 2988 3500 
L 3597 3500 
L 2284 0 
L 1503 0 
L 191 3500 
z
" transform="scale(0.015625)"/>
       <path id="DejaVuSans-20" transform="scale(0.015625)"/>
       <path id="DejaVuSans-73" d="M 2834 3397 
L 2834 2853 
Q 2591 2978 2328 3040 
Q 2066 3103 1784 3103 
Q 1356 3103 1142 2972 
Q 928 2841 928 2578 
Q 928 2378 1081 2264 
Q 1234 2150 1697 2047 
L 1894 2003 
Q 2506 1872 2764 1633 
Q 3022 1394 3022 966 
Q 3022 478 2636 193 
Q 2250 -91 1575 -91 
Q 1294 -91 989 -36 
Q 684 19 347 128 
L 347 722 
Q 666 556 975 473 
Q 1284 391 1588 391 
Q 1994 391 2212 530 
Q 2431 669 2431 922 
Q 2431 1156 2273 1281 
Q 2116 1406 1581 1522 
L 1381 1569 
Q 847 1681 609 1914 
Q 372 2147 372 2553 
Q 372 3047 722 3315 
Q 1072 3584 1716 3584 
Q 2034 3584 2315 3537 
Q 2597 3491 2834 3397 
z
" transform="scale(0.015625)"/>
       <path id="DejaVuSans-68" d="M 3513 2113 
L 3513 0 
L 2938 0 
L 2938 2094 
Q 2938 2591 2744 2837 
Q 2550 3084 2163 3084 
Q 1697 3084 1428 2787 
Q 1159 2491 1159 1978 
L 1159 0 
L 581 0 
L 581 4863 
L 1159 4863 
L 1159 2956 
Q 1366 3272 1645 3428 
Q 1925 3584 2291 3584 
Q 2894 3584 3203 3211 
Q 3513 2838 3513 2113 
z
" transform="scale(0.015625)"/>
       <path id="DejaVuSans-66" d="M 2375 4863 
L 2375 4384 
L 1825 4384 
Q 1516 4384 1395 4259 
Q 1275 4134 1275 3809 
L 1275 3500 
L 2222 3500 
L 2222 3053 
L 1275 3053 
L 1275 0 
L 697 0 
L 697 3053 
L 147 3053 
L 147 3500 
L 697 3500 
L 697 3744 
Q 697 4328 969 4595 
Q 1241 4863 1831 4863 
L 2375 4863 
z
" transform="scale(0.015625)"/>
       <path id="DejaVuSans-2f" d="M 1625 4666 
L 2156 4666 
L 531 -594 
L 0 -594 
L 1625 4666 
z
" transform="scale(0.015625)"/>
       <path id="DejaVuSans-70" d="M 1159 525 
L 1159 -1331 
L 581 -1331 
L 581 3500 
L 1159 3500 
L 1159 2969 
Q 1341 3281 1617 3432 
Q 1894 3584 2278 3584 
Q 2916 3584 3314 3078 
Q 3713 2572 3713 1747 
Q 3713 922 3314 415 
Q 2916 -91 2278 -91 
Q 1894 -91 1617 61 
Q 1341 213 1159 525 
z
M 3116 1747 
Q 3116 2381 2855 2742 
Q 2594 3103 2138 3103 
Q 1681 3103 1420 2742 
Q 1159 2381 1159 1747 
Q 1159 1113 1420 752 
Q 1681 391 2138 391 
Q 2594 391 2855 752 
Q 3116 1113 3116 1747 
z
" transform="scale(0.015625)"/>
      </defs>
      <use xlink:href="#DejaVuSans-72"/>
      <use xlink:href="#DejaVuSans-65" x="38.863281"/>
      <use xlink:href="#DejaVuSans-6c" x="100.386719"/>
      <use xlink:href="#DejaVuSans-61" x="128.169922"/>
      <use xlink:href="#DejaVuSans-74" x="189.449219"/>
      <use xlink:href="#DejaVuSans-69" x="228.658203"/>
      <use xlink:href="#DejaVuSans-76" x="256.441406"/>
      <use xlink:href="#DejaVuSans-65" x="315.621094"/>
      <use xlink:href="#DejaVuSans-20" x="377.144531"/>
      <use xlink:href="#DejaVuSans-73" x="408.931641"/>
      <use xlink:href="#DejaVuSans-68" x="461.03125"/>
      <use xlink:href="#DejaVuSans-69" x="524.410156"/>
      <use xlink:href="#DejaVuSans-66" x="552.193359"/>
      <use xlink:href="#DejaVuSans-74" x="585.648438"/>
      <use xlink:href="#DejaVuSans-20" x="624.857422"/>
      <use xlink:href="#DejaVuSans-2f" x="656.644531"/>
      <use xlink:href="#DejaVuSans-20" x="690.335938"/>
      <use xlink:href="#DejaVuSans-73" x="722.123047"/>
      <use xlink:href="#DejaVuSans-74" x="774.222656"/>
      <use xlink:href="#DejaVuSans-65" x="813.431641"/>
      <use xlink:href="#DejaVuSans-70" x="874.955078"/>
     </g>
    </g>
   </g>
   <g id="matplotlib.axis_2">
    <g id="ytick_1">
     <g id="line2d_6">
      <defs>
       <path id="m70f85aae40" d="M 0 0 
L -3.5 0 
" style="stroke: #000000; stroke-width: 0.8"/>
      </defs>
      <g>
       <use xlink:href="#m70f85aae40" x="46.595" y="241.620971" style="stroke: #000000; stroke-width: 0.8"/>
      </g>
     </g>
     <g id="text_7">
      <!-- −2 -->
      <g transform="translate(24.852813 245.42019) scale(0.1 -0.1)">
       <use xlink:href="#DejaVuSans-2212"/>
       <use xlink:href="#DejaVuSans-32" x="83.789062"/>
      </g>
     </g>
    </g>
    <g id="ytick_2">
     <g id="line2d_7">
      <g>
       <use xlink:href="#m70f85aae40" x="46.595" y="191.110135" style="stroke: #000000; stroke-width: 0.8"/>
      </g>
     </g>
     <g id="text_8">
      <!-- 0 -->
      <g transform="translate(33.2325 194.909354) scale(0.1 -0.1)">
       <use xlink:href="#DejaVuSans-30"/>
      </g>
     </g>
    </g>
    <g id="ytick_3">
     <g id="line2d_8">
      <g>
       <use xlink:href="#m70f85aae40" x="46.595" y="140.599299" style="stroke: #000000; stroke-width: 0.8"/>
      </g>
     </g>
     <g id="text_9">
      <!-- 2 -->
      <g transform="translate(33.2325 144.398518) scale(0.1 -0.1)">
       <use xlink:href="#DejaVuSans-32"/>
      </g>
     </g>
    </g>
    <g id="ytick_4">
     <g id="line2d_9">
      <g>
       <use xlink:href="#m70f85aae40" x="46.595" y="90.088463" style="stroke: #000000; stroke-width: 0.8"/>
      </g>
     </g>
     <g id="text_10">
      <!-- 4 -->
      <g transform="translate(33.2325 93.887682) scale(0.1 -0.1)">
       <defs>
        <path id="DejaVuSans-34" d="M 2419 4116 
L 825 1625 
L 2419 1625 
L 2419 4116 
z
M 2253 4666 
L 3047 4666 
L 3047 1625 
L 3713 1625 
L 3713 1100 
L 3047 1100 
L 3047 0 
L 2419 0 
L 2419 1100 
L 313 1100 
L 313 1709 
L 2253 4666 
z
" transform="scale(0.015625)"/>
       </defs>
       <use xlink:href="#DejaVuSans-34"/>
      </g>
     </g>
    </g>
    <g id="ytick_5">
     <g id="line2d_10">
      <g>
       <use xlink:href="#m70f85aae40" x="46.595" y="39.577627" style="stroke: #000000; stroke-width: 0.8"/>
      </g>
     </g>
     <g id="text_11">
      <!-- 6 -->
      <g transform="translate(33.2325 43.376846) scale(0.1 -0.1)">
       <defs>
        <path id="DejaVuSans-36" d="M 2113 2584 
Q 1688 2584 1439 2293 
Q 1191 2003 1191 1497 
Q 1191 994 1439 701 
Q 1688 409 2113 409 
Q 2538 409 2786 701 
Q 3034 994 3034 1497 
Q 3034 2003 2786 2293 
Q 2538 2584 2113 2584 
z
M 3366 4563 
L 3366 3988 
Q 3128 4100 2886 4159 
Q 2644 4219 2406 4219 
Q 1781 4219 1451 3797 
Q 1122 3375 1075 2522 
Q 1259 2794 1537 2939 
Q 1816 3084 2150 3084 
Q 2853 3084 3261 2657 
Q 3669 2231 3669 1497 
Q 3669 778 3244 343 
Q 2819 -91 2113 -91 
Q 1303 -91 875 529 
Q 447 1150 447 2328 
Q 447 3434 972 4092 
Q 1497 4750 2381 4750 
Q 2619 4750 2861 4703 
Q 3103 4656 3366 4563 
z
" transform="scale(0.015625)"/>
       </defs>
       <use xlink:href="#DejaVuSans-36"/>
      </g>
     </g>
    </g>
    <g id="text_12">
     <!-- intensity / arb. u. -->
     <g transform="translate(18.773125 171.18875) rotate(-90) scale(0.1 -0.1)">
      <defs>
       <path id="DejaVuSans-6e" d="M 3513 2113 
L 3513 0 
L 2938 0 
L 2938 2094 
Q 2938 2591 2744 2837 
Q 2550 3084 2163 3084 
Q 1697 3084 1428 2787 
Q 1159 2491 1159 1978 
L 1159 0 
L 581 0 
L 581 3500 
L 1159 3500 
L 1159 2956 
Q 1366 3272 1645 3428 
Q 1925 3584 2291 3584 
Q 2894 3584 3203 3211 
Q 3513 2838 3513 2113 
z
" transform="scale(0.015625)"/>
       <path id="DejaVuSans-79" d="M 2059 -325 
Q 1816 -950 1584 -1140 
Q 1353 -1331 966 -1331 
L 506 -1331 
L 506 -850 
L 844 -850 
Q 1081 -850 1212 -737 
Q 1344 -625 1503 -206 
L 1606 56 
L 191 3500 
L 800 3500 
L 1894 763 
L 2988 3500 
L 3597 3500 
L 2059 -325 
z
" transform="scale(0.015625)"/>
       <path id="DejaVuSans-62" d="M 3116 1747 
Q 3116 2381 2855 2742 
Q 2594 3103 2138 3103 
Q 1681 3103 1420 2742 
Q 1159 2381 1159 1747 
Q 1159 1113 1420 752 
Q 1681 391 2138 391 
Q 2594 391 2855 752 
Q 3116 1113 3116 1747 
z
M 1159 2969 
Q 1341 3281 1617 3432 
Q 1894 3584 2278 3584 
Q 2916 3584 3314 3078 
Q 3713 2572 3713 1747 
Q 3713 922 3314 415 
Q 2916 -91 2278 -91 
Q 1894 -91 1617 61 
Q 1341 213 1159 525 
L 1159 0 
L 581 0 
L 581 4863 
L 1159 4863 
L 1159 2969 
z
" transform="scale(0.015625)"/>
       <path id="DejaVuSans-2e" d="M 684 794 
L 1344 794 
L 1344 0 
L 684 0 
L 684 794 
z
" transform="scale(0.015625)"/>
       <path id="DejaVuSans-75" d="M 544 1381 
L 544 3500 
L 1119 3500 
L 1119 1403 
Q 1119 906 1312 657 
Q 1506 409 1894 409 
Q 2359 409 2629 706 
Q 2900 1003 2900 1516 
L 2900 3500 
L 3475 3500 
L 3475 0 
L 2900 0 
L 2900 538 
Q 2691 219 2414 64 
Q 2138 -91 1772 -91 
Q 1169 -91 856 284 
Q 544 659 544 1381 
z
M 1991 3584 
L 1991 3584 
z
" transform="scale(0.015625)"/>
      </defs>
      <use xlink:href="#DejaVuSans-69"/>
      <use xlink:href="#DejaVuSans-6e" x="27.783203"/>
      <use xlink:href="#DejaVuSans-74" x="91.162109"/>
      <use xlink:href="#DejaVuSans-65" x="130.371094"/>
      <use xlink:href="#DejaVuSans-6e" x="191.894531"/>
      <use xlink:href="#DejaVuSans-73" x="255.273438"/>
      <use xlink:href="#DejaVuSans-69" x="307.373047"/>
      <use xlink:href="#DejaVuSans-74" x="335.15625"/>
      <use xlink:href="#DejaVuSans-79" x="374.365234"/>
      <use xlink:href="#DejaVuSans-20" x="433.544922"/>
      <use xlink:href="#DejaVuSans-2f" x="465.332031"/>
      <use xlink:href="#DejaVuSans-20" x="499.023438"/>
      <use xlink:href="#DejaVuSans-61" x="530.810547"/>
      <use xlink:href="#DejaVuSans-72" x="592.089844"/>
      <use xlink:href="#DejaVuSans-62" x="633.203125"/>
      <use xlink:href="#DejaVuSans-2e" x="696.679688"/>
      <use xlink:href="#DejaVuSans-20" x="728.466797"/>
      <use xlink:href="#DejaVuSans-75" x="760.253906"/>
      <use xlink:href="#DejaVuSans-2e" x="823.632812"/>
     </g>
    </g>
   </g>
   <g id="line2d_11">
    <path d="M 46.048638 192.026182 
L 47.141363 189.765246 
L 47.687725 188.911886 
L 48.234088 188.456018 
L 48.78045 188.27476 
L 49.326813 188.459933 
L 49.873175 188.847985 
L 50.9659 190.418965 
L 52.604988 193.618331 
L 53.15135 194.183063 
L 53.697713 194.281306 
L 54.244075 193.753443 
L 54.790438 192.835103 
L 55.883163 190.45823 
L 56.429525 189.44423 
L 56.975888 188.822772 
L 57.52225 188.521606 
L 58.068613 188.67151 
L 58.614975 189.112005 
L 59.7077 190.764575 
L 60.254063 191.702425 
L 60.800425 192.412065 
L 61.346788 192.87142 
L 61.89315 192.861646 
L 62.439513 192.505777 
L 64.0786 190.275393 
L 64.624963 189.987805 
L 65.171325 190.117425 
L 66.26405 191.506372 
L 66.810413 192.267667 
L 67.356775 192.656229 
L 67.903138 192.67931 
L 68.4495 192.220482 
L 68.995863 191.502374 
L 70.63495 188.67849 
L 71.181313 188.12497 
L 71.727675 187.949521 
L 72.274038 188.373003 
L 72.8204 189.258309 
L 75.00585 194.7009 
L 75.552213 195.263919 
L 76.098575 195.046621 
L 76.644938 194.22875 
L 78.284025 190.481068 
L 78.830388 189.821369 
L 79.37675 189.495546 
L 80.469475 189.595085 
L 82.108563 190.347899 
L 83.74765 191.040274 
L 84.294013 191.165162 
L 87.025825 191.199538 
L 87.572188 191.322909 
L 88.11855 191.323148 
L 88.664913 191.187996 
L 89.211275 190.697752 
L 90.850363 188.760848 
L 91.396725 188.717303 
L 91.943088 189.327494 
L 92.48945 190.378162 
L 94.128538 194.272467 
L 94.6749 194.92936 
L 95.221263 195.082257 
L 95.767625 194.571845 
L 96.313988 193.602335 
L 97.953075 189.522751 
L 98.499438 188.666863 
L 99.0458 188.308728 
L 99.592163 188.662274 
L 100.138525 189.542791 
L 101.23125 192.090616 
L 101.777613 192.990403 
L 102.323975 193.138668 
L 102.870338 192.603915 
L 104.509425 188.948178 
L 105.055788 188.283928 
L 105.60215 188.17836 
L 106.148513 188.75185 
L 106.694875 189.720577 
L 107.7876 192.073288 
L 108.333963 192.979337 
L 108.880325 193.444516 
L 109.426688 193.586426 
L 109.97305 193.341368 
L 110.519413 192.939276 
L 111.612138 191.985821 
L 112.1585 191.729921 
L 113.797588 191.777608 
L 114.34395 191.177052 
L 114.890313 190.059583 
L 116.5294 185.440395 
L 117.075763 184.815525 
L 117.622125 185.001279 
L 118.168488 186.158911 
L 118.71485 188.045668 
L 120.353938 195.374386 
L 120.9003 197.045032 
L 121.446663 198.070503 
L 121.993025 198.305808 
L 122.539388 197.85366 
L 123.08575 196.535075 
L 123.632113 194.541412 
L 124.724838 189.851574 
L 125.2712 188.351309 
L 125.817563 188.009199 
L 126.363925 188.550271 
L 127.45665 190.411227 
L 128.003013 190.728074 
L 128.549375 190.309889 
L 129.6421 188.692613 
L 130.188463 188.574011 
L 130.734825 189.415204 
L 132.373913 195.142466 
L 132.920275 195.628153 
L 133.466638 194.690116 
L 134.013 192.428061 
L 135.105725 187.300077 
L 135.652088 186.242684 
L 136.19845 186.655256 
L 136.744813 188.270795 
L 137.837537 192.852395 
L 139.476625 202.298412 
L 140.022987 202.899996 
L 140.56935 199.723546 
L 141.115713 193.040748 
L 143.301163 158.982465 
L 143.847525 157.139325 
L 144.393888 162.148737 
L 144.94025 173.342166 
L 146.032975 199.394645 
L 146.579338 207.522495 
L 147.1257 211.814375 
L 147.672063 213.38799 
L 148.218425 212.494276 
L 148.764788 210.310541 
L 149.31115 209.969189 
L 149.857513 215.071339 
L 150.950238 233.215463 
L 151.4966 235.327068 
L 152.042963 233.148283 
L 152.589325 232.900275 
L 153.135688 234.28806 
L 153.68205 223.585319 
L 154.228413 184.237782 
L 155.321138 49.962402 
L 155.8675 21.492727 
L 156.413862 49.939925 
L 157.506587 184.256269 
L 158.05295 223.627243 
L 158.599312 234.323923 
L 159.145675 232.916439 
L 159.692037 233.158386 
L 160.2384 235.347273 
L 160.784762 233.236425 
L 161.877488 215.025223 
L 162.42385 209.911405 
L 162.970213 210.287559 
L 163.516575 212.53269 
L 164.062938 213.47704 
L 164.6093 211.924893 
L 165.155663 207.635892 
L 165.702025 199.510516 
L 167.341113 162.226271 
L 167.887475 157.16256 
L 168.433838 158.952664 
L 168.9802 165.500131 
L 171.16565 199.715919 
L 171.712013 202.893505 
L 172.258375 202.277045 
L 172.804737 199.32595 
L 173.897463 192.691415 
L 174.990187 188.07509 
L 175.53655 186.501072 
L 176.082912 186.15429 
L 176.629275 187.280025 
L 178.268362 194.802629 
L 178.814725 195.757486 
L 179.361087 195.267909 
L 179.90745 193.510842 
L 181.000175 189.463755 
L 181.546537 188.61367 
L 182.0929 188.731128 
L 183.185625 190.333119 
L 183.731988 190.736519 
L 184.27835 190.408562 
L 184.824713 189.580652 
L 185.371075 188.535674 
L 185.917438 187.984146 
L 186.4638 188.311405 
L 187.010163 189.79724 
L 188.64925 196.485599 
L 189.195612 197.818959 
L 189.741975 198.286841 
L 190.288338 198.065199 
L 190.8347 197.048972 
L 191.381062 195.380018 
L 193.566512 186.140753 
L 194.112875 184.991151 
L 194.659237 184.822571 
L 195.2056 185.472646 
L 196.298325 188.532542 
L 196.844687 190.165635 
L 197.39105 191.284263 
L 197.937412 191.869197 
L 198.483775 191.907282 
L 199.5765 191.752441 
L 200.122862 191.997833 
L 200.669225 192.397767 
L 201.76195 193.338418 
L 202.308312 193.57966 
L 202.854675 193.432717 
L 203.401038 192.958198 
L 204.493763 190.897448 
L 205.586488 188.643848 
L 206.13285 188.063271 
L 206.679213 188.17735 
L 207.225575 188.8641 
L 208.864663 192.598331 
L 209.411025 193.141855 
L 209.957387 192.987166 
L 210.50375 192.068737 
L 211.596475 189.47463 
L 212.142837 188.580653 
L 212.6892 188.228643 
L 213.235562 188.604674 
L 213.781925 189.495826 
L 215.967375 194.712568 
L 216.513737 195.228814 
L 217.0601 195.066927 
L 217.606462 194.394198 
L 218.699187 191.877056 
L 219.24555 190.481838 
L 219.791912 189.427599 
L 220.338275 188.811364 
L 220.884637 188.844876 
L 221.431 189.309239 
L 222.523725 190.738641 
L 223.070087 191.20243 
L 223.61645 191.30561 
L 224.162812 191.269849 
L 225.255538 191.05785 
L 226.348262 191.036537 
L 227.98735 190.899738 
L 228.533712 190.758708 
L 230.719162 189.752879 
L 231.265525 189.556414 
L 232.35825 189.490172 
L 232.904612 189.828026 
L 233.450975 190.50272 
L 234.5437 192.993298 
L 235.090062 194.317018 
L 235.636425 195.146229 
L 236.182787 195.366557 
L 236.72915 194.801012 
L 237.275512 193.70566 
L 238.9146 189.342556 
L 239.460962 188.453795 
L 240.007325 188.026247 
L 240.553687 188.196215 
L 241.10005 188.741498 
L 243.2855 192.219699 
L 243.831862 192.661229 
L 244.378225 192.620816 
L 244.924587 192.213019 
L 246.563675 190.007819 
L 247.110037 189.873597 
L 247.6564 190.170866 
L 249.295487 192.474599 
L 249.84185 192.852082 
L 250.388212 192.875289 
L 250.934575 192.424536 
L 251.480937 191.71556 
L 253.120025 189.108146 
L 253.666387 188.663054 
L 254.21275 188.513297 
L 254.759112 188.819724 
L 255.305475 189.450008 
L 256.3982 191.643249 
L 256.944562 192.873357 
L 257.490925 193.796099 
L 258.037287 194.322599 
L 258.58365 194.219279 
L 259.130012 193.649062 
L 261.315462 189.584566 
L 261.861825 188.885984 
L 262.408187 188.494406 
L 262.95455 188.300369 
L 263.500912 188.465969 
L 264.047275 188.90315 
L 265.14 190.7742 
L 265.686362 191.979891 
L 265.686362 191.979891 
" clip-path="url(#p1e09d13bdc)" style="fill: none; stroke: #1f77b4; stroke-width: 1.5; stroke-linecap: square"/>
   </g>
   <g id="line2d_12">
    <path d="M 46.048638 191.868846 
L 47.141363 189.944095 
L 47.687725 189.223689 
L 48.234088 188.848851 
L 48.78045 188.694944 
L 49.326813 188.853382 
L 49.873175 189.174196 
L 50.9659 190.559804 
L 52.604988 193.561805 
L 53.15135 194.102801 
L 53.697713 194.194352 
L 54.244075 193.67106 
L 54.790438 192.767037 
L 55.883163 190.449385 
L 56.429525 189.481148 
L 56.975888 188.915586 
L 57.52225 188.676308 
L 58.068613 188.886332 
L 58.614975 189.377795 
L 60.800425 192.57674 
L 61.346788 192.920418 
L 61.89315 192.777465 
L 62.439513 192.281292 
L 64.0786 189.76833 
L 64.624963 189.466636 
L 65.171325 189.630791 
L 66.26405 191.182355 
L 66.810413 192.049669 
L 67.356775 192.543365 
L 67.903138 192.665667 
L 68.4495 192.294415 
L 68.995863 191.653399 
L 70.63495 189.01836 
L 71.181313 188.509534 
L 71.727675 188.362194 
L 72.274038 188.784732 
L 72.8204 189.635161 
L 75.00585 194.660441 
L 75.552213 195.118246 
L 76.098575 194.829147 
L 76.644938 193.986778 
L 78.284025 190.38458 
L 78.830388 189.791679 
L 79.37675 189.509512 
L 80.469475 189.597075 
L 82.108563 190.242915 
L 84.294013 191.230123 
L 85.386738 191.274655 
L 87.025825 191.060309 
L 88.11855 191.075608 
L 88.664913 190.970775 
L 89.211275 190.569106 
L 90.850363 188.981187 
L 91.396725 188.97636 
L 91.943088 189.55753 
L 92.48945 190.523181 
L 94.128538 194.185866 
L 94.6749 194.875061 
L 95.221263 195.119003 
L 95.767625 194.72709 
L 96.313988 193.860122 
L 98.499438 188.678596 
L 99.0458 188.156438 
L 99.592163 188.379166 
L 100.138525 189.199755 
L 101.23125 191.852048 
L 101.777613 192.870094 
L 102.323975 193.125373 
L 102.870338 192.643394 
L 103.963063 190.073236 
L 104.509425 188.754474 
L 105.055788 187.98407 
L 105.60215 187.845089 
L 106.148513 188.486653 
L 106.694875 189.627869 
L 107.7876 192.465439 
L 108.333963 193.556428 
L 108.880325 194.093936 
L 109.426688 194.175587 
L 109.97305 193.759605 
L 111.612138 191.762144 
L 112.1585 191.428048 
L 113.797588 191.686108 
L 114.34395 191.144102 
L 114.890313 190.001672 
L 116.5294 184.948975 
L 117.075763 184.245965 
L 117.622125 184.488594 
L 118.168488 185.85966 
L 118.71485 188.089082 
L 120.353938 196.392457 
L 120.9003 198.094672 
L 121.446663 198.955731 
L 121.993025 198.881429 
L 122.539388 198.056436 
L 123.08575 196.400059 
L 124.724838 189.400697 
L 125.2712 187.978741 
L 125.817563 187.702523 
L 126.363925 188.23228 
L 126.910288 189.155876 
L 127.45665 189.783784 
L 128.003013 189.893008 
L 128.549375 189.34638 
L 129.6421 187.988237 
L 130.188463 188.28913 
L 130.734825 189.668561 
L 132.373913 196.573135 
L 132.920275 197.011771 
L 133.466638 195.799334 
L 134.559363 189.935945 
L 135.105725 187.187767 
L 135.652088 185.907292 
L 136.19845 186.250083 
L 136.744813 187.910375 
L 137.837537 192.617669 
L 139.476625 201.652378 
L 140.022987 202.082528 
L 140.56935 198.865114 
L 141.115713 192.345027 
L 142.7548 166.400057 
L 143.301163 160.334135 
L 143.847525 158.776129 
L 144.393888 163.764326 
L 144.94025 174.63244 
L 146.032975 199.489782 
L 146.579338 207.017462 
L 147.1257 210.865352 
L 147.672063 212.20341 
L 148.218425 211.270904 
L 148.764788 209.175462 
L 149.31115 208.965362 
L 149.857513 214.161993 
L 150.950238 232.265859 
L 151.4966 234.313316 
L 152.042963 232.166605 
L 152.589325 232.150694 
L 153.135688 234.016565 
L 153.68205 223.994205 
L 154.228413 185.404178 
L 155.321138 52.26898 
L 155.8675 23.962707 
L 156.413862 52.246755 
L 157.506587 185.422994 
L 158.05295 224.036129 
L 158.599312 234.052175 
L 159.145675 232.166353 
L 159.692037 232.176455 
L 160.2384 234.333773 
L 160.784762 232.287579 
L 161.877488 214.117063 
L 162.42385 208.908462 
L 162.970213 209.152631 
L 163.516575 211.308332 
L 164.062938 212.290288 
L 164.6093 210.972688 
L 165.155663 207.127247 
L 165.702025 199.602295 
L 167.341113 163.841608 
L 167.887475 158.799363 
L 168.433838 160.304334 
L 168.9802 166.339116 
L 171.16565 198.853446 
L 171.712013 202.074093 
L 172.258375 201.631997 
L 172.804737 198.889006 
L 173.897463 192.46555 
L 174.990187 187.722424 
L 175.53655 186.101405 
L 176.082912 185.821827 
L 176.629275 187.168345 
L 178.268362 195.911619 
L 178.814725 197.14171 
L 179.361087 196.699614 
L 179.90745 194.733277 
L 181.000175 189.712089 
L 181.546537 188.320497 
L 182.0929 188.016296 
L 182.639263 188.597413 
L 183.185625 189.35976 
L 183.731988 189.8952 
L 184.27835 189.779407 
L 184.824713 189.150383 
L 185.371075 188.225436 
L 185.917438 187.687799 
L 186.4638 187.949142 
L 187.010163 189.35525 
L 189.195612 198.021204 
L 189.741975 198.861553 
L 190.288338 198.950528 
L 190.8347 198.099572 
L 191.381062 196.40011 
L 192.473788 190.947897 
L 193.02015 188.067741 
L 193.566512 185.833925 
L 194.112875 184.468364 
L 194.659237 184.242808 
L 195.2056 184.972589 
L 196.298325 188.363735 
L 196.844687 190.111824 
L 197.39105 191.259017 
L 197.937412 191.787432 
L 198.483775 191.724019 
L 199.5765 191.454968 
L 200.122862 191.775168 
L 200.669225 192.346304 
L 201.76195 193.753898 
L 202.308312 194.166723 
L 202.854675 194.081763 
L 203.401038 193.536292 
L 203.9474 192.428362 
L 205.586488 188.373407 
L 206.13285 187.722727 
L 206.679213 187.870446 
L 207.225575 188.664903 
L 208.864663 192.644283 
L 209.411025 193.137845 
L 209.957387 192.877734 
L 210.50375 191.839966 
L 211.596475 189.135785 
L 212.142837 188.29802 
L 212.6892 188.073828 
L 213.235562 188.612556 
L 213.781925 189.660903 
L 215.421012 193.975867 
L 215.967375 194.868318 
L 216.513737 195.264323 
L 217.0601 195.008511 
L 217.606462 194.301309 
L 218.699187 191.906572 
L 219.24555 190.618154 
L 219.791912 189.650819 
L 220.338275 189.067795 
L 220.884637 189.067325 
L 221.431 189.436996 
L 222.523725 190.614634 
L 223.070087 190.989491 
L 224.162812 191.052838 
L 224.709175 190.971917 
L 227.440988 191.090552 
L 228.533712 190.706134 
L 230.1728 189.856805 
L 231.811887 189.509629 
L 232.35825 189.506239 
L 232.904612 189.8025 
L 233.450975 190.414017 
L 234.5437 192.780988 
L 235.090062 194.083834 
L 235.636425 194.937038 
L 236.182787 195.227223 
L 236.72915 194.764948 
L 237.275512 193.791831 
L 238.9146 189.721658 
L 239.460962 188.866699 
L 240.007325 188.436622 
L 240.553687 188.575375 
L 241.10005 189.073101 
L 243.2855 192.272311 
L 243.831862 192.625735 
L 244.378225 192.488437 
L 244.924587 191.978449 
L 246.563675 189.518763 
L 247.110037 189.354745 
L 247.6564 189.667821 
L 248.749125 191.376863 
L 249.295487 192.261323 
L 249.84185 192.781193 
L 250.388212 192.940724 
L 250.934575 192.604246 
L 251.480937 191.975926 
L 253.120025 189.384629 
L 253.666387 188.886603 
L 254.21275 188.671722 
L 254.759112 188.910845 
L 255.305475 189.483466 
L 256.3982 191.597885 
L 256.944562 192.807264 
L 257.490925 193.719575 
L 258.037287 194.246454 
L 258.58365 194.154095 
L 259.130012 193.607201 
L 261.315462 189.817669 
L 261.861825 189.205498 
L 262.408187 188.875983 
L 262.95455 188.703243 
L 263.500912 188.838703 
L 264.047275 189.192383 
L 265.14 190.764262 
L 265.686362 191.793337 
L 265.686362 191.793337 
" clip-path="url(#p1e09d13bdc)" style="fill: none; stroke: #ff7f0e; stroke-width: 1.5; stroke-linecap: square"/>
   </g>
   <g id="patch_3">
    <path d="M 46.595 246.04 
L 46.595 10.8 
" style="fill: none; stroke: #000000; stroke-width: 0.8; stroke-linejoin: miter; stroke-linecap: square"/>
   </g>
   <g id="patch_4">
    <path d="M 265.14 246.04 
L 265.14 10.8 
" style="fill: none; stroke: #000000; stroke-width: 0.8; stroke-linejoin: miter; stroke-linecap: square"/>
   </g>
   <g id="patch_5">
    <path d="M 46.595 246.04 
L 265.14 246.04 
" style="fill: none; stroke: #000000; stroke-width: 0.8; stroke-linejoin: miter; stroke-linecap: square"/>
   </g>
   <g id="patch_6">
    <path d="M 46.595 10.8 
L 265.14 10.8 
" style="fill: none; stroke: #000000; stroke-width: 0.8; stroke-linejoin: miter; stroke-linecap: square"/>
   </g>
   <g id="legend_1">
    <g id="patch_7">
     <path d="M 166.997812 48.15625 
L 258.14 48.15625 
Q 260.14 48.15625 260.14 46.15625 
L 260.14 17.8 
Q 260.14 15.8 258.14 15.8 
L 166.997812 15.8 
Q 164.997812 15.8 164.997812 17.8 
L 164.997812 46.15625 
Q 164.997812 48.15625 166.997812 48.15625 
z
" style="fill: #ffffff; opacity: 0.8; stroke: #cccccc; stroke-linejoin: miter"/>
    </g>
    <g id="line2d_13">
     <path d="M 168.997812 23.898438 
L 178.997812 23.898438 
L 188.997812 23.898438 
" style="fill: none; stroke: #1f77b4; stroke-width: 1.5; stroke-linecap: square"/>
    </g>
    <g id="text_13">
     <!-- background -->
     <g transform="translate(196.997812 27.398438) scale(0.1 -0.1)">
      <defs>
       <path id="DejaVuSans-63" d="M 3122 3366 
L 3122 2828 
Q 2878 2963 2633 3030 
Q 2388 3097 2138 3097 
Q 1578 3097 1268 2742 
Q 959 2388 959 1747 
Q 959 1106 1268 751 
Q 1578 397 2138 397 
Q 2388 397 2633 464 
Q 2878 531 3122 666 
L 3122 134 
Q 2881 22 2623 -34 
Q 2366 -91 2075 -91 
Q 1284 -91 818 406 
Q 353 903 353 1747 
Q 353 2603 823 3093 
Q 1294 3584 2113 3584 
Q 2378 3584 2631 3529 
Q 2884 3475 3122 3366 
z
" transform="scale(0.015625)"/>
       <path id="DejaVuSans-6b" d="M 581 4863 
L 1159 4863 
L 1159 1991 
L 2875 3500 
L 3609 3500 
L 1753 1863 
L 3688 0 
L 2938 0 
L 1159 1709 
L 1159 0 
L 581 0 
L 581 4863 
z
" transform="scale(0.015625)"/>
       <path id="DejaVuSans-67" d="M 2906 1791 
Q 2906 2416 2648 2759 
Q 2391 3103 1925 3103 
Q 1463 3103 1205 2759 
Q 947 2416 947 1791 
Q 947 1169 1205 825 
Q 1463 481 1925 481 
Q 2391 481 2648 825 
Q 2906 1169 2906 1791 
z
M 3481 434 
Q 3481 -459 3084 -895 
Q 2688 -1331 1869 -1331 
Q 1566 -1331 1297 -1286 
Q 1028 -1241 775 -1147 
L 775 -588 
Q 1028 -725 1275 -790 
Q 1522 -856 1778 -856 
Q 2344 -856 2625 -561 
Q 2906 -266 2906 331 
L 2906 616 
Q 2728 306 2450 153 
Q 2172 0 1784 0 
Q 1141 0 747 490 
Q 353 981 353 1791 
Q 353 2603 747 3093 
Q 1141 3584 1784 3584 
Q 2172 3584 2450 3431 
Q 2728 3278 2906 2969 
L 2906 3500 
L 3481 3500 
L 3481 434 
z
" transform="scale(0.015625)"/>
       <path id="DejaVuSans-6f" d="M 1959 3097 
Q 1497 3097 1228 2736 
Q 959 2375 959 1747 
Q 959 1119 1226 758 
Q 1494 397 1959 397 
Q 2419 397 2687 759 
Q 2956 1122 2956 1747 
Q 2956 2369 2687 2733 
Q 2419 3097 1959 3097 
z
M 1959 3584 
Q 2709 3584 3137 3096 
Q 3566 2609 3566 1747 
Q 3566 888 3137 398 
Q 2709 -91 1959 -91 
Q 1206 -91 779 398 
Q 353 888 353 1747 
Q 353 2609 779 3096 
Q 1206 3584 1959 3584 
z
" transform="scale(0.015625)"/>
       <path id="DejaVuSans-64" d="M 2906 2969 
L 2906 4863 
L 3481 4863 
L 3481 0 
L 2906 0 
L 2906 525 
Q 2725 213 2448 61 
Q 2172 -91 1784 -91 
Q 1150 -91 751 415 
Q 353 922 353 1747 
Q 353 2572 751 3078 
Q 1150 3584 1784 3584 
Q 2172 3584 2448 3432 
Q 2725 3281 2906 2969 
z
M 947 1747 
Q 947 1113 1208 752 
Q 1469 391 1925 391 
Q 2381 391 2643 752 
Q 2906 1113 2906 1747 
Q 2906 2381 2643 2742 
Q 2381 3103 1925 3103 
Q 1469 3103 1208 2742 
Q 947 2381 947 1747 
z
" transform="scale(0.015625)"/>
      </defs>
      <use xlink:href="#DejaVuSans-62"/>
      <use xlink:href="#DejaVuSans-61" x="63.476562"/>
      <use xlink:href="#DejaVuSans-63" x="124.755859"/>
      <use xlink:href="#DejaVuSans-6b" x="179.736328"/>
      <use xlink:href="#DejaVuSans-67" x="237.646484"/>
      <use xlink:href="#DejaVuSans-72" x="301.123047"/>
      <use xlink:href="#DejaVuSans-6f" x="339.986328"/>
      <use xlink:href="#DejaVuSans-75" x="401.167969"/>
      <use xlink:href="#DejaVuSans-6e" x="464.546875"/>
      <use xlink:href="#DejaVuSans-64" x="527.925781"/>
     </g>
    </g>
    <g id="line2d_14">
     <path d="M 168.997812 38.576562 
L 178.997812 38.576562 
L 188.997812 38.576562 
" style="fill: none; stroke: #ff7f0e; stroke-width: 1.5; stroke-linecap: square"/>
    </g>
    <g id="text_14">
     <!-- sample -->
     <g transform="translate(196.997812 42.076562) scale(0.1 -0.1)">
      <defs>
       <path id="DejaVuSans-6d" d="M 3328 2828 
Q 3544 3216 3844 3400 
Q 4144 3584 4550 3584 
Q 5097 3584 5394 3201 
Q 5691 2819 5691 2113 
L 5691 0 
L 5113 0 
L 5113 2094 
Q 5113 2597 4934 2840 
Q 4756 3084 4391 3084 
Q 3944 3084 3684 2787 
Q 3425 2491 3425 1978 
L 3425 0 
L 2847 0 
L 2847 2094 
Q 2847 2600 2669 2842 
Q 2491 3084 2119 3084 
Q 1678 3084 1418 2786 
Q 1159 2488 1159 1978 
L 1159 0 
L 581 0 
L 581 3500 
L 1159 3500 
L 1159 2956 
Q 1356 3278 1631 3431 
Q 1906 3584 2284 3584 
Q 2666 3584 2933 3390 
Q 3200 3197 3328 2828 
z
" transform="scale(0.015625)"/>
      </defs>
      <use xlink:href="#DejaVuSans-73"/>
      <use xlink:href="#DejaVuSans-61" x="52.099609"/>
      <use xlink:href="#DejaVuSans-6d" x="113.378906"/>
      <use xlink:href="#DejaVuSans-70" x="210.791016"/>
      <use xlink:href="#DejaVuSans-6c" x="274.267578"/>
      <use xlink:href="#DejaVuSans-65" x="302.050781"/>
     </g>
    </g>
   </g>
  </g>
  <g id="axes_2">
   <g id="patch_8">
    <path d="M 337.1375 246.04 
L 555.6825 246.04 
L 555.6825 10.8 
L 337.1375 10.8 
z
" style="fill: #ffffff"/>
   </g>
   <g id="matplotlib.axis_3">
    <g id="xtick_6">
     <g id="line2d_15">
      <g>
       <use xlink:href="#m3582542e81" x="337.1375" y="246.04" style="stroke: #000000; stroke-width: 0.8"/>
      </g>
     </g>
     <g id="text_15">
      <!-- −200 -->
      <g transform="translate(323.403906 260.638438) scale(0.1 -0.1)">
       <use xlink:href="#DejaVuSans-2212"/>
       <use xlink:href="#DejaVuSans-32" x="83.789062"/>
       <use xlink:href="#DejaVuSans-30" x="147.412109"/>
       <use xlink:href="#DejaVuSans-30" x="211.035156"/>
      </g>
     </g>
    </g>
    <g id="xtick_7">
     <g id="line2d_16">
      <g>
       <use xlink:href="#m3582542e81" x="391.77375" y="246.04" style="stroke: #000000; stroke-width: 0.8"/>
      </g>
     </g>
     <g id="text_16">
      <!-- −100 -->
      <g transform="translate(378.040156 260.638438) scale(0.1 -0.1)">
       <use xlink:href="#DejaVuSans-2212"/>
       <use xlink:href="#DejaVuSans-31" x="83.789062"/>
       <use xlink:href="#DejaVuSans-30" x="147.412109"/>
       <use xlink:href="#DejaVuSans-30" x="211.035156"/>
      </g>
     </g>
    </g>
    <g id="xtick_8">
     <g id="line2d_17">
      <g>
       <use xlink:href="#m3582542e81" x="446.41" y="246.04" style="stroke: #000000; stroke-width: 0.8"/>
      </g>
     </g>
     <g id="text_17">
      <!-- 0 -->
      <g transform="translate(443.22875 260.638438) scale(0.1 -0.1)">
       <use xlink:href="#DejaVuSans-30"/>
      </g>
     </g>
    </g>
    <g id="xtick_9">
     <g id="line2d_18">
      <g>
       <use xlink:href="#m3582542e81" x="501.04625" y="246.04" style="stroke: #000000; stroke-width: 0.8"/>
      </g>
     </g>
     <g id="text_18">
      <!-- 100 -->
      <g transform="translate(491.5025 260.638438) scale(0.1 -0.1)">
       <use xlink:href="#DejaVuSans-31"/>
       <use xlink:href="#DejaVuSans-30" x="63.623047"/>
       <use xlink:href="#DejaVuSans-30" x="127.246094"/>
      </g>
     </g>
    </g>
    <g id="xtick_10">
     <g id="line2d_19">
      <g>
       <use xlink:href="#m3582542e81" x="555.6825" y="246.04" style="stroke: #000000; stroke-width: 0.8"/>
      </g>
     </g>
     <g id="text_19">
      <!-- 200 -->
      <g transform="translate(546.13875 260.638438) scale(0.1 -0.1)">
       <use xlink:href="#DejaVuSans-32"/>
       <use xlink:href="#DejaVuSans-30" x="63.623047"/>
       <use xlink:href="#DejaVuSans-30" x="127.246094"/>
      </g>
     </g>
    </g>
    <g id="text_20">
     <!-- relative shift / step -->
     <g transform="translate(399.489688 274.316562) scale(0.1 -0.1)">
      <use xlink:href="#DejaVuSans-72"/>
      <use xlink:href="#DejaVuSans-65" x="38.863281"/>
      <use xlink:href="#DejaVuSans-6c" x="100.386719"/>
      <use xlink:href="#DejaVuSans-61" x="128.169922"/>
      <use xlink:href="#DejaVuSans-74" x="189.449219"/>
      <use xlink:href="#DejaVuSans-69" x="228.658203"/>
      <use xlink:href="#DejaVuSans-76" x="256.441406"/>
      <use xlink:href="#DejaVuSans-65" x="315.621094"/>
      <use xlink:href="#DejaVuSans-20" x="377.144531"/>
      <use xlink:href="#DejaVuSans-73" x="408.931641"/>
      <use xlink:href="#DejaVuSans-68" x="461.03125"/>
      <use xlink:href="#DejaVuSans-69" x="524.410156"/>
      <use xlink:href="#DejaVuSans-66" x="552.193359"/>
      <use xlink:href="#DejaVuSans-74" x="585.648438"/>
      <use xlink:href="#DejaVuSans-20" x="624.857422"/>
      <use xlink:href="#DejaVuSans-2f" x="656.644531"/>
      <use xlink:href="#DejaVuSans-20" x="690.335938"/>
      <use xlink:href="#DejaVuSans-73" x="722.123047"/>
      <use xlink:href="#DejaVuSans-74" x="774.222656"/>
      <use xlink:href="#DejaVuSans-65" x="813.431641"/>
      <use xlink:href="#DejaVuSans-70" x="874.955078"/>
     </g>
    </g>
   </g>
   <g id="matplotlib.axis_4">
    <g id="ytick_6">
     <g id="line2d_20">
      <g>
       <use xlink:href="#m70f85aae40" x="337.1375" y="238.563592" style="stroke: #000000; stroke-width: 0.8"/>
      </g>
     </g>
     <g id="text_21">
      <!-- −0.10 -->
      <g transform="translate(299.492188 242.362811) scale(0.1 -0.1)">
       <use xlink:href="#DejaVuSans-2212"/>
       <use xlink:href="#DejaVuSans-30" x="83.789062"/>
       <use xlink:href="#DejaVuSans-2e" x="147.412109"/>
       <use xlink:href="#DejaVuSans-31" x="179.199219"/>
       <use xlink:href="#DejaVuSans-30" x="242.822266"/>
      </g>
     </g>
    </g>
    <g id="ytick_7">
     <g id="line2d_21">
      <g>
       <use xlink:href="#m70f85aae40" x="337.1375" y="209.324324" style="stroke: #000000; stroke-width: 0.8"/>
      </g>
     </g>
     <g id="text_22">
      <!-- −0.08 -->
      <g transform="translate(299.492188 213.123543) scale(0.1 -0.1)">
       <defs>
        <path id="DejaVuSans-38" d="M 2034 2216 
Q 1584 2216 1326 1975 
Q 1069 1734 1069 1313 
Q 1069 891 1326 650 
Q 1584 409 2034 409 
Q 2484 409 2743 651 
Q 3003 894 3003 1313 
Q 3003 1734 2745 1975 
Q 2488 2216 2034 2216 
z
M 1403 2484 
Q 997 2584 770 2862 
Q 544 3141 544 3541 
Q 544 4100 942 4425 
Q 1341 4750 2034 4750 
Q 2731 4750 3128 4425 
Q 3525 4100 3525 3541 
Q 3525 3141 3298 2862 
Q 3072 2584 2669 2484 
Q 3125 2378 3379 2068 
Q 3634 1759 3634 1313 
Q 3634 634 3220 271 
Q 2806 -91 2034 -91 
Q 1263 -91 848 271 
Q 434 634 434 1313 
Q 434 1759 690 2068 
Q 947 2378 1403 2484 
z
M 1172 3481 
Q 1172 3119 1398 2916 
Q 1625 2713 2034 2713 
Q 2441 2713 2670 2916 
Q 2900 3119 2900 3481 
Q 2900 3844 2670 4047 
Q 2441 4250 2034 4250 
Q 1625 4250 1398 4047 
Q 1172 3844 1172 3481 
z
" transform="scale(0.015625)"/>
       </defs>
       <use xlink:href="#DejaVuSans-2212"/>
       <use xlink:href="#DejaVuSans-30" x="83.789062"/>
       <use xlink:href="#DejaVuSans-2e" x="147.412109"/>
       <use xlink:href="#DejaVuSans-30" x="179.199219"/>
       <use xlink:href="#DejaVuSans-38" x="242.822266"/>
      </g>
     </g>
    </g>
    <g id="ytick_8">
     <g id="line2d_22">
      <g>
       <use xlink:href="#m70f85aae40" x="337.1375" y="180.085056" style="stroke: #000000; stroke-width: 0.8"/>
      </g>
     </g>
     <g id="text_23">
      <!-- −0.06 -->
      <g transform="translate(299.492188 183.884275) scale(0.1 -0.1)">
       <use xlink:href="#DejaVuSans-2212"/>
       <use xlink:href="#DejaVuSans-30" x="83.789062"/>
       <use xlink:href="#DejaVuSans-2e" x="147.412109"/>
       <use xlink:href="#DejaVuSans-30" x="179.199219"/>
       <use xlink:href="#DejaVuSans-36" x="242.822266"/>
      </g>
     </g>
    </g>
    <g id="ytick_9">
     <g id="line2d_23">
      <g>
       <use xlink:href="#m70f85aae40" x="337.1375" y="150.845788" style="stroke: #000000; stroke-width: 0.8"/>
      </g>
     </g>
     <g id="text_24">
      <!-- −0.04 -->
      <g transform="translate(299.492188 154.645006) scale(0.1 -0.1)">
       <use xlink:href="#DejaVuSans-2212"/>
       <use xlink:href="#DejaVuSans-30" x="83.789062"/>
       <use xlink:href="#DejaVuSans-2e" x="147.412109"/>
       <use xlink:href="#DejaVuSans-30" x="179.199219"/>
       <use xlink:href="#DejaVuSans-34" x="242.822266"/>
      </g>
     </g>
    </g>
    <g id="ytick_10">
     <g id="line2d_24">
      <g>
       <use xlink:href="#m70f85aae40" x="337.1375" y="121.60652" style="stroke: #000000; stroke-width: 0.8"/>
      </g>
     </g>
     <g id="text_25">
      <!-- −0.02 -->
      <g transform="translate(299.492188 125.405738) scale(0.1 -0.1)">
       <use xlink:href="#DejaVuSans-2212"/>
       <use xlink:href="#DejaVuSans-30" x="83.789062"/>
       <use xlink:href="#DejaVuSans-2e" x="147.412109"/>
       <use xlink:href="#DejaVuSans-30" x="179.199219"/>
       <use xlink:href="#DejaVuSans-32" x="242.822266"/>
      </g>
     </g>
    </g>
    <g id="ytick_11">
     <g id="line2d_25">
      <g>
       <use xlink:href="#m70f85aae40" x="337.1375" y="92.367251" style="stroke: #000000; stroke-width: 0.8"/>
      </g>
     </g>
     <g id="text_26">
      <!-- 0.00 -->
      <g transform="translate(307.871875 96.16647) scale(0.1 -0.1)">
       <use xlink:href="#DejaVuSans-30"/>
       <use xlink:href="#DejaVuSans-2e" x="63.623047"/>
       <use xlink:href="#DejaVuSans-30" x="95.410156"/>
       <use xlink:href="#DejaVuSans-30" x="159.033203"/>
      </g>
     </g>
    </g>
    <g id="ytick_12">
     <g id="line2d_26">
      <g>
       <use xlink:href="#m70f85aae40" x="337.1375" y="63.127983" style="stroke: #000000; stroke-width: 0.8"/>
      </g>
     </g>
     <g id="text_27">
      <!-- 0.02 -->
      <g transform="translate(307.871875 66.927202) scale(0.1 -0.1)">
       <use xlink:href="#DejaVuSans-30"/>
       <use xlink:href="#DejaVuSans-2e" x="63.623047"/>
       <use xlink:href="#DejaVuSans-30" x="95.410156"/>
       <use xlink:href="#DejaVuSans-32" x="159.033203"/>
      </g>
     </g>
    </g>
    <g id="ytick_13">
     <g id="line2d_27">
      <g>
       <use xlink:href="#m70f85aae40" x="337.1375" y="33.888715" style="stroke: #000000; stroke-width: 0.8"/>
      </g>
     </g>
     <g id="text_28">
      <!-- 0.04 -->
      <g transform="translate(307.871875 37.687934) scale(0.1 -0.1)">
       <use xlink:href="#DejaVuSans-30"/>
       <use xlink:href="#DejaVuSans-2e" x="63.623047"/>
       <use xlink:href="#DejaVuSans-30" x="95.410156"/>
       <use xlink:href="#DejaVuSans-34" x="159.033203"/>
      </g>
     </g>
    </g>
    <g id="text_29">
     <!-- intensity / arb. u. -->
     <g transform="translate(293.4125 171.18875) rotate(-90) scale(0.1 -0.1)">
      <use xlink:href="#DejaVuSans-69"/>
      <use xlink:href="#DejaVuSans-6e" x="27.783203"/>
      <use xlink:href="#DejaVuSans-74" x="91.162109"/>
      <use xlink:href="#DejaVuSans-65" x="130.371094"/>
      <use xlink:href="#DejaVuSans-6e" x="191.894531"/>
      <use xlink:href="#DejaVuSans-73" x="255.273438"/>
      <use xlink:href="#DejaVuSans-69" x="307.373047"/>
      <use xlink:href="#DejaVuSans-74" x="335.15625"/>
      <use xlink:href="#DejaVuSans-79" x="374.365234"/>
      <use xlink:href="#DejaVuSans-20" x="433.544922"/>
      <use xlink:href="#DejaVuSans-2f" x="465.332031"/>
      <use xlink:href="#DejaVuSans-20" x="499.023438"/>
      <use xlink:href="#DejaVuSans-61" x="530.810547"/>
      <use xlink:href="#DejaVuSans-72" x="592.089844"/>
      <use xlink:href="#DejaVuSans-62" x="633.203125"/>
      <use xlink:href="#DejaVuSans-2e" x="696.679688"/>
      <use xlink:href="#DejaVuSans-20" x="728.466797"/>
      <use xlink:href="#DejaVuSans-75" x="760.253906"/>
      <use xlink:href="#DejaVuSans-2e" x="823.632812"/>
     </g>
    </g>
   </g>
   <g id="line2d_28">
    <path d="M 336.591138 83.259512 
L 337.683863 102.720291 
L 338.230225 110.416652 
L 338.776588 115.107215 
L 339.32295 116.690521 
L 339.869313 115.142887 
L 340.415675 111.250702 
L 342.054763 95.554039 
L 342.601125 91.689485 
L 343.147488 89.095085 
L 343.69385 87.721132 
L 344.240213 87.333711 
L 344.786575 87.598327 
L 345.332938 88.427114 
L 345.8793 89.887908 
L 346.425663 91.855272 
L 346.972025 94.504349 
L 349.157475 107.7531 
L 349.703838 109.413014 
L 350.2502 109.118998 
L 350.796563 106.602974 
L 351.342925 101.899838 
L 352.43565 87.494235 
L 353.528375 72.065112 
L 354.074738 66.38208 
L 354.6211 63.014827 
L 355.167463 62.198321 
L 355.713825 64.197409 
L 356.260188 68.209183 
L 357.352913 79.748022 
L 358.445638 91.577499 
L 359.538363 101.109646 
L 360.631088 108.739049 
L 361.17745 112.041332 
L 361.723813 114.628568 
L 362.270175 116.255733 
L 362.816538 116.201056 
L 363.3629 114.182085 
L 363.909263 110.11999 
L 365.001988 97.171263 
L 366.094713 83.934646 
L 366.641075 79.778284 
L 367.187438 78.36018 
L 367.7338 79.546709 
L 368.280163 82.659814 
L 369.372888 90.648567 
L 369.91925 93.175717 
L 370.465613 93.723369 
L 371.011975 92.482454 
L 372.1047 87.651835 
L 372.651063 86.290016 
L 373.197425 86.783428 
L 373.743788 89.035817 
L 374.836513 96.127626 
L 375.382875 98.202722 
L 375.929238 97.858123 
L 376.4756 94.785019 
L 378.114688 79.791514 
L 378.66105 78.037919 
L 379.207413 79.792933 
L 379.753775 84.920302 
L 381.392863 105.122005 
L 381.939225 107.363341 
L 382.485588 105.683399 
L 383.03195 100.761991 
L 384.124675 89.51613 
L 384.671038 87.354179 
L 385.2174 89.22403 
L 385.763763 94.494408 
L 386.856488 107.289804 
L 387.40285 110.110078 
L 387.949213 108.30098 
L 388.495575 102.099396 
L 390.134663 75.978934 
L 390.681025 72.509841 
L 391.227388 73.606314 
L 391.77375 78.557253 
L 392.866475 91.597674 
L 393.412838 94.652593 
L 393.9592 93.479221 
L 394.505563 88.256503 
L 395.598288 75.00936 
L 396.14465 73.075182 
L 396.691013 77.015758 
L 397.237375 87.000676 
L 398.876463 125.773408 
L 399.422825 129.960325 
L 399.969188 126.47208 
L 400.51555 116.577804 
L 401.608275 89.487768 
L 402.154638 79.419226 
L 402.701 74.892695 
L 403.247363 76.125861 
L 404.88645 90.459872 
L 405.432813 89.014969 
L 405.979175 82.618879 
L 407.0719 63.920367 
L 407.618263 59.397053 
L 408.164625 62.689394 
L 408.710988 75.044447 
L 410.896438 151.300458 
L 411.4428 153.127913 
L 411.989163 143.610531 
L 412.535525 125.688321 
L 413.62825 84.551595 
L 414.174613 70.981651 
L 414.720975 65.251631 
L 415.267338 66.267257 
L 416.360063 74.61463 
L 416.906425 73.95967 
L 417.452788 67.259199 
L 418.545513 44.027724 
L 419.091875 36.59247 
L 419.638238 38.261009 
L 420.1846 51.592946 
L 420.730963 75.876304 
L 422.37005 163.120579 
L 422.916413 175.184555 
L 423.462775 172.460917 
L 424.009138 156.576684 
L 425.648225 85.8659 
L 426.194588 72.952377 
L 426.74095 68.912972 
L 427.287313 71.503572 
L 427.833675 76.339893 
L 428.380038 78.779617 
L 428.9264 75.728646 
L 429.472763 66.822365 
L 430.565488 45.04642 
L 431.11185 42.675115 
L 431.658213 52.093961 
L 432.204575 74.181889 
L 433.843663 170.611533 
L 434.390025 187.1171 
L 434.936388 185.889051 
L 435.48275 167.0575 
L 436.575475 97.874468 
L 437.121838 63.132369 
L 437.6682 37.431052 
L 438.214563 23.79532 
L 438.760925 21.549744 
L 439.307288 26.660768 
L 439.85365 34.258592 
L 440.400013 39.727797 
L 440.946375 40.672225 
L 442.0391 33.68404 
L 442.585463 35.540734 
L 443.131825 48.976177 
L 443.678188 76.651145 
L 445.317275 199.149059 
L 445.863638 225.888369 
L 446.41 235.347273 
L 446.956363 225.902989 
L 447.502725 199.178298 
L 449.688175 48.946938 
L 450.234538 35.526114 
L 450.7809 33.69866 
L 451.873625 40.745323 
L 452.419988 39.796509 
L 452.96635 34.30976 
L 453.512713 26.66954 
L 454.059075 21.492727 
L 454.605438 23.669591 
L 455.1518 37.246845 
L 455.698163 62.923308 
L 457.33725 166.987326 
L 457.883613 185.874431 
L 458.429975 187.1171 
L 458.976338 170.611533 
L 460.069063 105.766146 
L 460.615425 73.927507 
L 461.161788 51.81838 
L 461.70815 42.441201 
L 462.254513 44.933849 
L 463.8936 76.143843 
L 464.439963 79.29262 
L 464.986325 76.867077 
L 465.532688 71.952394 
L 466.07905 69.23168 
L 466.625413 73.121965 
L 467.171775 85.902449 
L 467.718138 107.051212 
L 468.810863 156.563527 
L 469.357225 172.496004 
L 469.903588 175.244495 
L 470.44995 163.13052 
L 470.996313 138.367243 
L 472.089038 75.396342 
L 472.6354 50.987693 
L 473.181763 37.613359 
L 473.728125 36.022304 
L 474.274488 43.665742 
L 475.367213 67.460219 
L 475.913575 74.408493 
L 476.459938 75.212573 
L 477.0063 71.396848 
L 477.552663 66.781722 
L 478.099025 65.598555 
L 478.645388 71.146852 
L 479.19175 84.595454 
L 480.830838 143.616379 
L 481.3772 153.183467 
L 481.923563 151.417415 
L 482.469925 138.471876 
L 484.109013 74.605858 
L 484.655375 62.104609 
L 485.201738 58.806419 
L 485.7481 63.420376 
L 486.840825 82.595488 
L 487.387188 89.252246 
L 487.93355 90.9058 
L 488.479913 87.634145 
L 489.572638 76.579655 
L 490.119 75.147369 
L 490.665363 79.477851 
L 491.211725 89.388209 
L 492.30445 116.418158 
L 492.850813 126.350591 
L 493.397175 129.938688 
L 493.943538 125.831448 
L 494.4899 115.112332 
L 495.582625 86.816322 
L 496.128988 76.712255 
L 496.67535 72.654137 
L 497.221713 74.601472 
L 498.8608 93.598956 
L 499.407163 95.027294 
L 499.953525 92.135092 
L 501.592613 74.070779 
L 502.138975 72.752527 
L 502.685338 76.006419 
L 503.2317 83.405416 
L 504.324425 101.923083 
L 504.870788 108.149203 
L 505.41715 110.011542 
L 505.963513 107.321675 
L 507.6026 88.98573 
L 508.148963 86.99015 
L 508.695325 89.05722 
L 509.241688 94.075848 
L 510.334413 105.288815 
L 510.880775 107.211297 
L 511.427138 105.244225 
L 511.9735 99.762739 
L 513.066225 85.188865 
L 513.612588 80.040809 
L 514.15895 78.150812 
L 514.705313 79.805111 
L 515.251675 84.194108 
L 516.3444 94.775573 
L 516.890763 97.963065 
L 517.437125 98.404526 
L 517.983488 96.428666 
L 519.076213 89.323882 
L 519.622575 86.953162 
L 520.168938 86.323933 
L 520.7153 87.570696 
L 521.808025 92.367251 
L 522.354388 93.68682 
L 522.90075 93.297352 
L 523.447113 90.889645 
L 525.0862 80.077256 
L 525.632563 78.868943 
L 526.178925 80.257808 
L 526.725288 84.301599 
L 527.818013 97.355471 
L 528.910738 110.30889 
L 529.4571 114.312345 
L 530.003463 116.269037 
L 530.549825 116.122695 
L 531.096188 114.315708 
L 531.64255 111.562831 
L 532.735275 104.238248 
L 533.828 95.412814 
L 534.920725 84.704224 
L 536.559813 67.784629 
L 537.106175 64.057207 
L 537.652538 62.332383 
L 538.1989 63.247426 
L 538.745263 66.775158 
L 539.291625 72.608231 
L 541.477075 102.770144 
L 542.023438 107.439071 
L 542.5698 109.890403 
L 543.116163 110.123528 
L 543.662525 108.372096 
L 544.208888 105.30782 
L 545.847975 94.30406 
L 546.394338 91.666532 
L 546.9407 89.741273 
L 547.487063 88.541293 
L 548.033425 87.937502 
L 548.579788 87.959432 
L 549.12615 88.593924 
L 549.672513 89.944047 
L 550.218875 92.477776 
L 550.765238 96.101544 
L 552.950688 114.455618 
L 553.49705 115.688492 
L 554.043413 113.943785 
L 554.589775 109.110095 
L 555.136138 101.411542 
L 556.228863 81.568166 
L 556.228863 81.568166 
" clip-path="url(#p81a620c055)" style="fill: none; stroke: #1f77b4; stroke-width: 1.5; stroke-linecap: square"/>
   </g>
   <g id="patch_9">
    <path d="M 337.1375 246.04 
L 337.1375 10.8 
" style="fill: none; stroke: #000000; stroke-width: 0.8; stroke-linejoin: miter; stroke-linecap: square"/>
   </g>
   <g id="patch_10">
    <path d="M 555.6825 246.04 
L 555.6825 10.8 
" style="fill: none; stroke: #000000; stroke-width: 0.8; stroke-linejoin: miter; stroke-linecap: square"/>
   </g>
   <g id="patch_11">
    <path d="M 337.1375 246.04 
L 555.6825 246.04 
" style="fill: none; stroke: #000000; stroke-width: 0.8; stroke-linejoin: miter; stroke-linecap: square"/>
   </g>
   <g id="patch_12">
    <path d="M 337.1375 10.8 
L 555.6825 10.8 
" style="fill: none; stroke: #000000; stroke-width: 0.8; stroke-linejoin: miter; stroke-linecap: square"/>
   </g>
   <g id="legend_2">
    <g id="patch_13">
     <path d="M 466.334063 33.478125 
L 548.6825 33.478125 
Q 550.6825 33.478125 550.6825 31.478125 
L 550.6825 17.8 
Q 550.6825 15.8 548.6825 15.8 
L 466.334063 15.8 
Q 464.334063 15.8 464.334063 17.8 
L 464.334063 31.478125 
Q 464.334063 33.478125 466.334063 33.478125 
z
" style="fill: #ffffff; opacity: 0.8; stroke: #cccccc; stroke-linejoin: miter"/>
    </g>
    <g id="line2d_29">
     <path d="M 468.334063 23.898438 
L 478.334063 23.898438 
L 488.334063 23.898438 
" style="fill: none; stroke: #1f77b4; stroke-width: 1.5; stroke-linecap: square"/>
    </g>
    <g id="text_30">
     <!-- difference -->
     <g transform="translate(496.334063 27.398438) scale(0.1 -0.1)">
      <use xlink:href="#DejaVuSans-64"/>
      <use xlink:href="#DejaVuSans-69" x="63.476562"/>
      <use xlink:href="#DejaVuSans-66" x="91.259766"/>
      <use xlink:href="#DejaVuSans-66" x="126.464844"/>
      <use xlink:href="#DejaVuSans-65" x="161.669922"/>
      <use xlink:href="#DejaVuSans-72" x="223.193359"/>
      <use xlink:href="#DejaVuSans-65" x="262.056641"/>
      <use xlink:href="#DejaVuSans-6e" x="323.580078"/>
      <use xlink:href="#DejaVuSans-63" x="386.958984"/>
      <use xlink:href="#DejaVuSans-65" x="441.939453"/>
     </g>
    </g>
   </g>
  </g>
 </g>
 <defs>
  <clipPath id="p1e09d13bdc">
   <rect x="46.595" y="10.8" width="218.545" height="235.24"/>
  </clipPath>
  <clipPath id="p81a620c055">
   <rect x="337.1375" y="10.8" width="218.545" height="235.24"/>
  </clipPath>
 </defs>
</svg>
