<?xml version="1.0" encoding="utf-8" standalone="no"?>
<!DOCTYPE svg PUBLIC "-//W3C//DTD SVG 1.1//EN"
  "http://www.w3.org/Graphics/SVG/1.1/DTD/svg11.dtd">
<svg xmlns:xlink="http://www.w3.org/1999/xlink" width="576pt" height="288pt" viewBox="0 0 576 288" xmlns="http://www.w3.org/2000/svg" version="1.1">
 <metadata>
  <rdf:RDF xmlns:dc="http://purl.org/dc/elements/1.1/" xmlns:cc="http://creativecommons.org/ns#" xmlns:rdf="http://www.w3.org/1999/02/22-rdf-syntax-ns#">
   <cc:Work>
    <dc:type rdf:resource="http://purl.org/dc/dcmitype/StillImage"/>
    <dc:date>2024-05-09T17:47:33.131556</dc:date>
    <dc:format>image/svg+xml</dc:format>
    <dc:creator>
     <cc:Agent>
      <dc:title>Matplotlib v3.7.2, https://matplotlib.org/</dc:title>
     </cc:Agent>
    </dc:creator>
   </cc:Work>
  </rdf:RDF>
 </metadata>
 <defs>
  <style type="text/css">*{stroke-linejoin: round; stroke-linecap: butt}</style>
 </defs>
 <g id="figure_1">
  <g id="patch_1">
   <path d="M 0 288 
L 576 288 
L 576 0 
L 0 0 
z
" style="fill: #ffffff"/>
  </g>
  <g id="axes_1">
   <g id="patch_2">
    <path d="M 47.765 246.04 
L 552.51 246.04 
L 552.51 10.8 
L 47.765 10.8 
z
" style="fill: #ffffff"/>
   </g>
   <g id="matplotlib.axis_1">
    <g id="xtick_1">
     <g id="line2d_1">
      <defs>
       <path id="m56141e621f" d="M 0 0 
L 0 3.5 
" style="stroke: #000000; stroke-width: 0.8"/>
      </defs>
      <g>
       <use xlink:href="#m56141e621f" x="47.765" y="246.04" style="stroke: #000000; stroke-width: 0.8"/>
      </g>
     </g>
     <g id="text_1">
      <!-- 0 -->
      <g transform="translate(44.58375 260.638438) scale(0.1 -0.1)">
       <defs>
        <path id="DejaVuSans-30" d="M 2034 4250 
Q 1547 4250 1301 3770 
Q 1056 3291 1056 2328 
Q 1056 1369 1301 889 
Q 1547 409 2034 409 
Q 2525 409 2770 889 
Q 3016 1369 3016 2328 
Q 3016 3291 2770 3770 
Q 2525 4250 2034 4250 
z
M 2034 4750 
Q 2819 4750 3233 4129 
Q 3647 3509 3647 2328 
Q 3647 1150 3233 529 
Q 2819 -91 2034 -91 
Q 1250 -91 836 529 
Q 422 1150 422 2328 
Q 422 3509 836 4129 
Q 1250 4750 2034 4750 
z
" transform="scale(0.015625)"/>
       </defs>
       <use xlink:href="#DejaVuSans-30"/>
      </g>
     </g>
    </g>
    <g id="xtick_2">
     <g id="line2d_2">
      <g>
       <use xlink:href="#m56141e621f" x="110.858125" y="246.04" style="stroke: #000000; stroke-width: 0.8"/>
      </g>
     </g>
     <g id="text_2">
      <!-- 500 -->
      <g transform="translate(101.314375 260.638438) scale(0.1 -0.1)">
       <defs>
        <path id="DejaVuSans-35" d="M 691 4666 
L 3169 4666 
L 3169 4134 
L 1269 4134 
L 1269 2991 
Q 1406 3038 1543 3061 
Q 1681 3084 1819 3084 
Q 2600 3084 3056 2656 
Q 3513 2228 3513 1497 
Q 3513 744 3044 326 
Q 2575 -91 1722 -91 
Q 1428 -91 1123 -41 
Q 819 9 494 109 
L 494 744 
Q 775 591 1075 516 
Q 1375 441 1709 441 
Q 2250 441 2565 725 
Q 2881 1009 2881 1497 
Q 2881 1984 2565 2268 
Q 2250 2553 1709 2553 
Q 1456 2553 1204 2497 
Q 953 2441 691 2322 
L 691 4666 
z
" transform="scale(0.015625)"/>
       </defs>
       <use xlink:href="#DejaVuSans-35"/>
       <use xlink:href="#DejaVuSans-30" x="63.623047"/>
       <use xlink:href="#DejaVuSans-30" x="127.246094"/>
      </g>
     </g>
    </g>
    <g id="xtick_3">
     <g id="line2d_3">
      <g>
       <use xlink:href="#m56141e621f" x="173.95125" y="246.04" style="stroke: #000000; stroke-width: 0.8"/>
      </g>
     </g>
     <g id="text_3">
      <!-- 1000 -->
      <g transform="translate(161.22625 260.638438) scale(0.1 -0.1)">
       <defs>
        <path id="DejaVuSans-31" d="M 794 531 
L 1825 531 
L 1825 4091 
L 703 3866 
L 703 4441 
L 1819 4666 
L 2450 4666 
L 2450 531 
L 3481 531 
L 3481 0 
L 794 0 
L 794 531 
z
" transform="scale(0.015625)"/>
       </defs>
       <use xlink:href="#DejaVuSans-31"/>
       <use xlink:href="#DejaVuSans-30" x="63.623047"/>
       <use xlink:href="#DejaVuSans-30" x="127.246094"/>
       <use xlink:href="#DejaVuSans-30" x="190.869141"/>
      </g>
     </g>
    </g>
    <g id="xtick_4">
     <g id="line2d_4">
      <g>
       <use xlink:href="#m56141e621f" x="237.044375" y="246.04" style="stroke: #000000; stroke-width: 0.8"/>
      </g>
     </g>
     <g id="text_4">
      <!-- 1500 -->
      <g transform="translate(224.319375 260.638438) scale(0.1 -0.1)">
       <use xlink:href="#DejaVuSans-31"/>
       <use xlink:href="#DejaVuSans-35" x="63.623047"/>
       <use xlink:href="#DejaVuSans-30" x="127.246094"/>
       <use xlink:href="#DejaVuSans-30" x="190.869141"/>
      </g>
     </g>
    </g>
    <g id="xtick_5">
     <g id="line2d_5">
      <g>
       <use xlink:href="#m56141e621f" x="300.1375" y="246.04" style="stroke: #000000; stroke-width: 0.8"/>
      </g>
     </g>
     <g id="text_5">
      <!-- 2000 -->
      <g transform="translate(287.4125 260.638438) scale(0.1 -0.1)">
       <defs>
        <path id="DejaVuSans-32" d="M 1228 531 
L 3431 531 
L 3431 0 
L 469 0 
L 469 531 
Q 828 903 1448 1529 
Q 2069 2156 2228 2338 
Q 2531 2678 2651 2914 
Q 2772 3150 2772 3378 
Q 2772 3750 2511 3984 
Q 2250 4219 1831 4219 
Q 1534 4219 1204 4116 
Q 875 4013 500 3803 
L 500 4441 
Q 881 4594 1212 4672 
Q 1544 4750 1819 4750 
Q 2544 4750 2975 4387 
Q 3406 4025 3406 3419 
Q 3406 3131 3298 2873 
Q 3191 2616 2906 2266 
Q 2828 2175 2409 1742 
Q 1991 1309 1228 531 
z
" transform="scale(0.015625)"/>
       </defs>
       <use xlink:href="#DejaVuSans-32"/>
       <use xlink:href="#DejaVuSans-30" x="63.623047"/>
       <use xlink:href="#DejaVuSans-30" x="127.246094"/>
       <use xlink:href="#DejaVuSans-30" x="190.869141"/>
      </g>
     </g>
    </g>
    <g id="xtick_6">
     <g id="line2d_6">
      <g>
       <use xlink:href="#m56141e621f" x="363.230625" y="246.04" style="stroke: #000000; stroke-width: 0.8"/>
      </g>
     </g>
     <g id="text_6">
      <!-- 2500 -->
      <g transform="translate(350.505625 260.638438) scale(0.1 -0.1)">
       <use xlink:href="#DejaVuSans-32"/>
       <use xlink:href="#DejaVuSans-35" x="63.623047"/>
       <use xlink:href="#DejaVuSans-30" x="127.246094"/>
       <use xlink:href="#DejaVuSans-30" x="190.869141"/>
      </g>
     </g>
    </g>
    <g id="xtick_7">
     <g id="line2d_7">
      <g>
       <use xlink:href="#m56141e621f" x="426.32375" y="246.04" style="stroke: #000000; stroke-width: 0.8"/>
      </g>
     </g>
     <g id="text_7">
      <!-- 3000 -->
      <g transform="translate(413.59875 260.638438) scale(0.1 -0.1)">
       <defs>
        <path id="DejaVuSans-33" d="M 2597 2516 
Q 3050 2419 3304 2112 
Q 3559 1806 3559 1356 
Q 3559 666 3084 287 
Q 2609 -91 1734 -91 
Q 1441 -91 1130 -33 
Q 819 25 488 141 
L 488 750 
Q 750 597 1062 519 
Q 1375 441 1716 441 
Q 2309 441 2620 675 
Q 2931 909 2931 1356 
Q 2931 1769 2642 2001 
Q 2353 2234 1838 2234 
L 1294 2234 
L 1294 2753 
L 1863 2753 
Q 2328 2753 2575 2939 
Q 2822 3125 2822 3475 
Q 2822 3834 2567 4026 
Q 2313 4219 1838 4219 
Q 1578 4219 1281 4162 
Q 984 4106 628 3988 
L 628 4550 
Q 988 4650 1302 4700 
Q 1616 4750 1894 4750 
Q 2613 4750 3031 4423 
Q 3450 4097 3450 3541 
Q 3450 3153 3228 2886 
Q 3006 2619 2597 2516 
z
" transform="scale(0.015625)"/>
       </defs>
       <use xlink:href="#DejaVuSans-33"/>
       <use xlink:href="#DejaVuSans-30" x="63.623047"/>
       <use xlink:href="#DejaVuSans-30" x="127.246094"/>
       <use xlink:href="#DejaVuSans-30" x="190.869141"/>
      </g>
     </g>
    </g>
    <g id="xtick_8">
     <g id="line2d_8">
      <g>
       <use xlink:href="#m56141e621f" x="489.416875" y="246.04" style="stroke: #000000; stroke-width: 0.8"/>
      </g>
     </g>
     <g id="text_8">
      <!-- 3500 -->
      <g transform="translate(476.691875 260.638438) scale(0.1 -0.1)">
       <use xlink:href="#DejaVuSans-33"/>
       <use xlink:href="#DejaVuSans-35" x="63.623047"/>
       <use xlink:href="#DejaVuSans-30" x="127.246094"/>
       <use xlink:href="#DejaVuSans-30" x="190.869141"/>
      </g>
     </g>
    </g>
    <g id="xtick_9">
     <g id="line2d_9">
      <g>
       <use xlink:href="#m56141e621f" x="552.51" y="246.04" style="stroke: #000000; stroke-width: 0.8"/>
      </g>
     </g>
     <g id="text_9">
      <!-- 4000 -->
      <g transform="translate(539.785 260.638438) scale(0.1 -0.1)">
       <defs>
        <path id="DejaVuSans-34" d="M 2419 4116 
L 825 1625 
L 2419 1625 
L 2419 4116 
z
M 2253 4666 
L 3047 4666 
L 3047 1625 
L 3713 1625 
L 3713 1100 
L 3047 1100 
L 3047 0 
L 2419 0 
L 2419 1100 
L 313 1100 
L 313 1709 
L 2253 4666 
z
" transform="scale(0.015625)"/>
       </defs>
       <use xlink:href="#DejaVuSans-34"/>
       <use xlink:href="#DejaVuSans-30" x="63.623047"/>
       <use xlink:href="#DejaVuSans-30" x="127.246094"/>
       <use xlink:href="#DejaVuSans-30" x="190.869141"/>
      </g>
     </g>
    </g>
    <g id="text_10">
     <!-- wavenumber / cm⁻¹ -->
     <g transform="translate(250.308594 274.316562) scale(0.1 -0.1)">
      <defs>
       <path id="DejaVuSans-77" d="M 269 3500 
L 844 3500 
L 1563 769 
L 2278 3500 
L 2956 3500 
L 3675 769 
L 4391 3500 
L 4966 3500 
L 4050 0 
L 3372 0 
L 2619 2869 
L 1863 0 
L 1184 0 
L 269 3500 
z
" transform="scale(0.015625)"/>
       <path id="DejaVuSans-61" d="M 2194 1759 
Q 1497 1759 1228 1600 
Q 959 1441 959 1056 
Q 959 750 1161 570 
Q 1363 391 1709 391 
Q 2188 391 2477 730 
Q 2766 1069 2766 1631 
L 2766 1759 
L 2194 1759 
z
M 3341 1997 
L 3341 0 
L 2766 0 
L 2766 531 
Q 2569 213 2275 61 
Q 1981 -91 1556 -91 
Q 1019 -91 701 211 
Q 384 513 384 1019 
Q 384 1609 779 1909 
Q 1175 2209 1959 2209 
L 2766 2209 
L 2766 2266 
Q 2766 2663 2505 2880 
Q 2244 3097 1772 3097 
Q 1472 3097 1187 3025 
Q 903 2953 641 2809 
L 641 3341 
Q 956 3463 1253 3523 
Q 1550 3584 1831 3584 
Q 2591 3584 2966 3190 
Q 3341 2797 3341 1997 
z
" transform="scale(0.015625)"/>
       <path id="DejaVuSans-76" d="M 191 3500 
L 800 3500 
L 1894 563 
L 2988 3500 
L 3597 3500 
L 2284 0 
L 1503 0 
L 191 3500 
z
" transform="scale(0.015625)"/>
       <path id="DejaVuSans-65" d="M 3597 1894 
L 3597 1613 
L 953 1613 
Q 991 1019 1311 708 
Q 1631 397 2203 397 
Q 2534 397 2845 478 
Q 3156 559 3463 722 
L 3463 178 
Q 3153 47 2828 -22 
Q 2503 -91 2169 -91 
Q 1331 -91 842 396 
Q 353 884 353 1716 
Q 353 2575 817 3079 
Q 1281 3584 2069 3584 
Q 2775 3584 3186 3129 
Q 3597 2675 3597 1894 
z
M 3022 2063 
Q 3016 2534 2758 2815 
Q 2500 3097 2075 3097 
Q 1594 3097 1305 2825 
Q 1016 2553 972 2059 
L 3022 2063 
z
" transform="scale(0.015625)"/>
       <path id="DejaVuSans-6e" d="M 3513 2113 
L 3513 0 
L 2938 0 
L 2938 2094 
Q 2938 2591 2744 2837 
Q 2550 3084 2163 3084 
Q 1697 3084 1428 2787 
Q 1159 2491 1159 1978 
L 1159 0 
L 581 0 
L 581 3500 
L 1159 3500 
L 1159 2956 
Q 1366 3272 1645 3428 
Q 1925 3584 2291 3584 
Q 2894 3584 3203 3211 
Q 3513 2838 3513 2113 
z
" transform="scale(0.015625)"/>
       <path id="DejaVuSans-75" d="M 544 1381 
L 544 3500 
L 1119 3500 
L 1119 1403 
Q 1119 906 1312 657 
Q 1506 409 1894 409 
Q 2359 409 2629 706 
Q 2900 1003 2900 1516 
L 2900 3500 
L 3475 3500 
L 3475 0 
L 2900 0 
L 2900 538 
Q 2691 219 2414 64 
Q 2138 -91 1772 -91 
Q 1169 -91 856 284 
Q 544 659 544 1381 
z
M 1991 3584 
L 1991 3584 
z
" transform="scale(0.015625)"/>
       <path id="DejaVuSans-6d" d="M 3328 2828 
Q 3544 3216 3844 3400 
Q 4144 3584 4550 3584 
Q 5097 3584 5394 3201 
Q 5691 2819 5691 2113 
L 5691 0 
L 5113 0 
L 5113 2094 
Q 5113 2597 4934 2840 
Q 4756 3084 4391 3084 
Q 3944 3084 3684 2787 
Q 3425 2491 3425 1978 
L 3425 0 
L 2847 0 
L 2847 2094 
Q 2847 2600 2669 2842 
Q 2491 3084 2119 3084 
Q 1678 3084 1418 2786 
Q 1159 2488 1159 1978 
L 1159 0 
L 581 0 
L 581 3500 
L 1159 3500 
L 1159 2956 
Q 1356 3278 1631 3431 
Q 1906 3584 2284 3584 
Q 2666 3584 2933 3390 
Q 3200 3197 3328 2828 
z
" transform="scale(0.015625)"/>
       <path id="DejaVuSans-62" d="M 3116 1747 
Q 3116 2381 2855 2742 
Q 2594 3103 2138 3103 
Q 1681 3103 1420 2742 
Q 1159 2381 1159 1747 
Q 1159 1113 1420 752 
Q 1681 391 2138 391 
Q 2594 391 2855 752 
Q 3116 1113 3116 1747 
z
M 1159 2969 
Q 1341 3281 1617 3432 
Q 1894 3584 2278 3584 
Q 2916 3584 3314 3078 
Q 3713 2572 3713 1747 
Q 3713 922 3314 415 
Q 2916 -91 2278 -91 
Q 1894 -91 1617 61 
Q 1341 213 1159 525 
L 1159 0 
L 581 0 
L 581 4863 
L 1159 4863 
L 1159 2969 
z
" transform="scale(0.015625)"/>
       <path id="DejaVuSans-72" d="M 2631 2963 
Q 2534 3019 2420 3045 
Q 2306 3072 2169 3072 
Q 1681 3072 1420 2755 
Q 1159 2438 1159 1844 
L 1159 0 
L 581 0 
L 581 3500 
L 1159 3500 
L 1159 2956 
Q 1341 3275 1631 3429 
Q 1922 3584 2338 3584 
Q 2397 3584 2469 3576 
Q 2541 3569 2628 3553 
L 2631 2963 
z
" transform="scale(0.015625)"/>
       <path id="DejaVuSans-20" transform="scale(0.015625)"/>
       <path id="DejaVuSans-2f" d="M 1625 4666 
L 2156 4666 
L 531 -594 
L 0 -594 
L 1625 4666 
z
" transform="scale(0.015625)"/>
       <path id="DejaVuSans-63" d="M 3122 3366 
L 3122 2828 
Q 2878 2963 2633 3030 
Q 2388 3097 2138 3097 
Q 1578 3097 1268 2742 
Q 959 2388 959 1747 
Q 959 1106 1268 751 
Q 1578 397 2138 397 
Q 2388 397 2633 464 
Q 2878 531 3122 666 
L 3122 134 
Q 2881 22 2623 -34 
Q 2366 -91 2075 -91 
Q 1284 -91 818 406 
Q 353 903 353 1747 
Q 353 2603 823 3093 
Q 1294 3584 2113 3584 
Q 2378 3584 2631 3529 
Q 2884 3475 3122 3366 
z
" transform="scale(0.015625)"/>
       <path id="DejaVuSans-207b" d="M 428 3359 
L 2950 3359 
L 2950 3063 
L 428 3063 
L 428 3359 
z
" transform="scale(0.015625)"/>
       <path id="DejaVuSans-b9" d="M 488 2431 
L 1125 2431 
L 1125 4341 
L 428 4213 
L 428 4575 
L 1147 4697 
L 1575 4697 
L 1575 2431 
L 2216 2431 
L 2216 2088 
L 488 2088 
L 488 2431 
z
" transform="scale(0.015625)"/>
      </defs>
      <use xlink:href="#DejaVuSans-77"/>
      <use xlink:href="#DejaVuSans-61" x="81.787109"/>
      <use xlink:href="#DejaVuSans-76" x="143.066406"/>
      <use xlink:href="#DejaVuSans-65" x="202.246094"/>
      <use xlink:href="#DejaVuSans-6e" x="263.769531"/>
      <use xlink:href="#DejaVuSans-75" x="327.148438"/>
      <use xlink:href="#DejaVuSans-6d" x="390.527344"/>
      <use xlink:href="#DejaVuSans-62" x="487.939453"/>
      <use xlink:href="#DejaVuSans-65" x="551.416016"/>
      <use xlink:href="#DejaVuSans-72" x="612.939453"/>
      <use xlink:href="#DejaVuSans-20" x="654.052734"/>
      <use xlink:href="#DejaVuSans-2f" x="685.839844"/>
      <use xlink:href="#DejaVuSans-20" x="719.53125"/>
      <use xlink:href="#DejaVuSans-63" x="751.318359"/>
      <use xlink:href="#DejaVuSans-6d" x="806.298828"/>
      <use xlink:href="#DejaVuSans-207b" x="903.710938"/>
      <use xlink:href="#DejaVuSans-b9" x="956.494141"/>
     </g>
    </g>
   </g>
   <g id="matplotlib.axis_2">
    <g id="ytick_1">
     <g id="line2d_10">
      <defs>
       <path id="ma8526d5e91" d="M 0 0 
L -3.5 0 
" style="stroke: #000000; stroke-width: 0.8"/>
      </defs>
      <g>
       <use xlink:href="#ma8526d5e91" x="47.765" y="235.347273" style="stroke: #000000; stroke-width: 0.8"/>
      </g>
     </g>
     <g id="text_11">
      <!-- 0.0 -->
      <g transform="translate(24.861875 239.146491) scale(0.1 -0.1)">
       <defs>
        <path id="DejaVuSans-2e" d="M 684 794 
L 1344 794 
L 1344 0 
L 684 0 
L 684 794 
z
" transform="scale(0.015625)"/>
       </defs>
       <use xlink:href="#DejaVuSans-30"/>
       <use xlink:href="#DejaVuSans-2e" x="63.623047"/>
       <use xlink:href="#DejaVuSans-30" x="95.410156"/>
      </g>
     </g>
    </g>
    <g id="ytick_2">
     <g id="line2d_11">
      <g>
       <use xlink:href="#ma8526d5e91" x="47.765" y="192.576364" style="stroke: #000000; stroke-width: 0.8"/>
      </g>
     </g>
     <g id="text_12">
      <!-- 0.2 -->
      <g transform="translate(24.861875 196.375582) scale(0.1 -0.1)">
       <use xlink:href="#DejaVuSans-30"/>
       <use xlink:href="#DejaVuSans-2e" x="63.623047"/>
       <use xlink:href="#DejaVuSans-32" x="95.410156"/>
      </g>
     </g>
    </g>
    <g id="ytick_3">
     <g id="line2d_12">
      <g>
       <use xlink:href="#ma8526d5e91" x="47.765" y="149.805455" style="stroke: #000000; stroke-width: 0.8"/>
      </g>
     </g>
     <g id="text_13">
      <!-- 0.4 -->
      <g transform="translate(24.861875 153.604673) scale(0.1 -0.1)">
       <use xlink:href="#DejaVuSans-30"/>
       <use xlink:href="#DejaVuSans-2e" x="63.623047"/>
       <use xlink:href="#DejaVuSans-34" x="95.410156"/>
      </g>
     </g>
    </g>
    <g id="ytick_4">
     <g id="line2d_13">
      <g>
       <use xlink:href="#ma8526d5e91" x="47.765" y="107.034545" style="stroke: #000000; stroke-width: 0.8"/>
      </g>
     </g>
     <g id="text_14">
      <!-- 0.6 -->
      <g transform="translate(24.861875 110.833764) scale(0.1 -0.1)">
       <defs>
        <path id="DejaVuSans-36" d="M 2113 2584 
Q 1688 2584 1439 2293 
Q 1191 2003 1191 1497 
Q 1191 994 1439 701 
Q 1688 409 2113 409 
Q 2538 409 2786 701 
Q 3034 994 3034 1497 
Q 3034 2003 2786 2293 
Q 2538 2584 2113 2584 
z
M 3366 4563 
L 3366 3988 
Q 3128 4100 2886 4159 
Q 2644 4219 2406 4219 
Q 1781 4219 1451 3797 
Q 1122 3375 1075 2522 
Q 1259 2794 1537 2939 
Q 1816 3084 2150 3084 
Q 2853 3084 3261 2657 
Q 3669 2231 3669 1497 
Q 3669 778 3244 343 
Q 2819 -91 2113 -91 
Q 1303 -91 875 529 
Q 447 1150 447 2328 
Q 447 3434 972 4092 
Q 1497 4750 2381 4750 
Q 2619 4750 2861 4703 
Q 3103 4656 3366 4563 
z
" transform="scale(0.015625)"/>
       </defs>
       <use xlink:href="#DejaVuSans-30"/>
       <use xlink:href="#DejaVuSans-2e" x="63.623047"/>
       <use xlink:href="#DejaVuSans-36" x="95.410156"/>
      </g>
     </g>
    </g>
    <g id="ytick_5">
     <g id="line2d_14">
      <g>
       <use xlink:href="#ma8526d5e91" x="47.765" y="64.263636" style="stroke: #000000; stroke-width: 0.8"/>
      </g>
     </g>
     <g id="text_15">
      <!-- 0.8 -->
      <g transform="translate(24.861875 68.062855) scale(0.1 -0.1)">
       <defs>
        <path id="DejaVuSans-38" d="M 2034 2216 
Q 1584 2216 1326 1975 
Q 1069 1734 1069 1313 
Q 1069 891 1326 650 
Q 1584 409 2034 409 
Q 2484 409 2743 651 
Q 3003 894 3003 1313 
Q 3003 1734 2745 1975 
Q 2488 2216 2034 2216 
z
M 1403 2484 
Q 997 2584 770 2862 
Q 544 3141 544 3541 
Q 544 4100 942 4425 
Q 1341 4750 2034 4750 
Q 2731 4750 3128 4425 
Q 3525 4100 3525 3541 
Q 3525 3141 3298 2862 
Q 3072 2584 2669 2484 
Q 3125 2378 3379 2068 
Q 3634 1759 3634 1313 
Q 3634 634 3220 271 
Q 2806 -91 2034 -91 
Q 1263 -91 848 271 
Q 434 634 434 1313 
Q 434 1759 690 2068 
Q 947 2378 1403 2484 
z
M 1172 3481 
Q 1172 3119 1398 2916 
Q 1625 2713 2034 2713 
Q 2441 2713 2670 2916 
Q 2900 3119 2900 3481 
Q 2900 3844 2670 4047 
Q 2441 4250 2034 4250 
Q 1625 4250 1398 4047 
Q 1172 3844 1172 3481 
z
" transform="scale(0.015625)"/>
       </defs>
       <use xlink:href="#DejaVuSans-30"/>
       <use xlink:href="#DejaVuSans-2e" x="63.623047"/>
       <use xlink:href="#DejaVuSans-38" x="95.410156"/>
      </g>
     </g>
    </g>
    <g id="ytick_6">
     <g id="line2d_15">
      <g>
       <use xlink:href="#ma8526d5e91" x="47.765" y="21.492727" style="stroke: #000000; stroke-width: 0.8"/>
      </g>
     </g>
     <g id="text_16">
      <!-- 1.0 -->
      <g transform="translate(24.861875 25.291946) scale(0.1 -0.1)">
       <use xlink:href="#DejaVuSans-31"/>
       <use xlink:href="#DejaVuSans-2e" x="63.623047"/>
       <use xlink:href="#DejaVuSans-30" x="95.410156"/>
      </g>
     </g>
    </g>
    <g id="text_17">
     <!-- intensity / arb. u. -->
     <g transform="translate(18.782188 171.18875) rotate(-90) scale(0.1 -0.1)">
      <defs>
       <path id="DejaVuSans-69" d="M 603 3500 
L 1178 3500 
L 1178 0 
L 603 0 
L 603 3500 
z
M 603 4863 
L 1178 4863 
L 1178 4134 
L 603 4134 
L 603 4863 
z
" transform="scale(0.015625)"/>
       <path id="DejaVuSans-74" d="M 1172 4494 
L 1172 3500 
L 2356 3500 
L 2356 3053 
L 1172 3053 
L 1172 1153 
Q 1172 725 1289 603 
Q 1406 481 1766 481 
L 2356 481 
L 2356 0 
L 1766 0 
Q 1100 0 847 248 
Q 594 497 594 1153 
L 594 3053 
L 172 3053 
L 172 3500 
L 594 3500 
L 594 4494 
L 1172 4494 
z
" transform="scale(0.015625)"/>
       <path id="DejaVuSans-73" d="M 2834 3397 
L 2834 2853 
Q 2591 2978 2328 3040 
Q 2066 3103 1784 3103 
Q 1356 3103 1142 2972 
Q 928 2841 928 2578 
Q 928 2378 1081 2264 
Q 1234 2150 1697 2047 
L 1894 2003 
Q 2506 1872 2764 1633 
Q 3022 1394 3022 966 
Q 3022 478 2636 193 
Q 2250 -91 1575 -91 
Q 1294 -91 989 -36 
Q 684 19 347 128 
L 347 722 
Q 666 556 975 473 
Q 1284 391 1588 391 
Q 1994 391 2212 530 
Q 2431 669 2431 922 
Q 2431 1156 2273 1281 
Q 2116 1406 1581 1522 
L 1381 1569 
Q 847 1681 609 1914 
Q 372 2147 372 2553 
Q 372 3047 722 3315 
Q 1072 3584 1716 3584 
Q 2034 3584 2315 3537 
Q 2597 3491 2834 3397 
z
" transform="scale(0.015625)"/>
       <path id="DejaVuSans-79" d="M 2059 -325 
Q 1816 -950 1584 -1140 
Q 1353 -1331 966 -1331 
L 506 -1331 
L 506 -850 
L 844 -850 
Q 1081 -850 1212 -737 
Q 1344 -625 1503 -206 
L 1606 56 
L 191 3500 
L 800 3500 
L 1894 763 
L 2988 3500 
L 3597 3500 
L 2059 -325 
z
" transform="scale(0.015625)"/>
      </defs>
      <use xlink:href="#DejaVuSans-69"/>
      <use xlink:href="#DejaVuSans-6e" x="27.783203"/>
      <use xlink:href="#DejaVuSans-74" x="91.162109"/>
      <use xlink:href="#DejaVuSans-65" x="130.371094"/>
      <use xlink:href="#DejaVuSans-6e" x="191.894531"/>
      <use xlink:href="#DejaVuSans-73" x="255.273438"/>
      <use xlink:href="#DejaVuSans-69" x="307.373047"/>
      <use xlink:href="#DejaVuSans-74" x="335.15625"/>
      <use xlink:href="#DejaVuSans-79" x="374.365234"/>
      <use xlink:href="#DejaVuSans-20" x="433.544922"/>
      <use xlink:href="#DejaVuSans-2f" x="465.332031"/>
      <use xlink:href="#DejaVuSans-20" x="499.023438"/>
      <use xlink:href="#DejaVuSans-61" x="530.810547"/>
      <use xlink:href="#DejaVuSans-72" x="592.089844"/>
      <use xlink:href="#DejaVuSans-62" x="633.203125"/>
      <use xlink:href="#DejaVuSans-2e" x="696.679688"/>
      <use xlink:href="#DejaVuSans-20" x="728.466797"/>
      <use xlink:href="#DejaVuSans-75" x="760.253906"/>
      <use xlink:href="#DejaVuSans-2e" x="823.632812"/>
     </g>
    </g>
   </g>
   <g id="line2d_16">
    <path d="M 47.521657 235.288384 
L 47.765 235.190451 
L 48.251685 235.321734 
L 48.738371 235.237388 
L 49.468399 235.313128 
L 49.711742 235.16823 
L 50.198427 235.334406 
L 50.44177 235.218992 
L 51.415141 235.272859 
L 51.658484 235.213854 
L 52.145169 235.325667 
L 52.631855 235.214882 
L 53.11854 235.346571 
L 53.361883 235.18746 
L 54.091911 235.240178 
L 60.662165 235.317134 
L 60.905508 235.210397 
L 61.392193 235.220049 
L 61.635536 234.980512 
L 61.878878 235.193599 
L 62.852249 235.280845 
L 63.095592 235.180475 
L 63.338935 235.311573 
L 63.82562 235.322255 
L 64.068963 235.180698 
L 65.042334 235.102918 
L 65.285677 235.27193 
L 65.529019 235.288054 
L 65.772362 235.191516 
L 66.015705 235.340573 
L 66.259048 235.207762 
L 66.50239 235.267797 
L 66.989076 235.204128 
L 67.232419 235.305285 
L 67.962447 235.213802 
L 68.449132 235.280753 
L 68.692475 235.209843 
L 68.935818 235.343472 
L 69.422503 235.251197 
L 69.665846 235.28766 
L 69.909189 235.110669 
L 70.395874 235.26234 
L 70.639217 235.107388 
L 70.88256 235.346421 
L 72.585959 235.117281 
L 72.829301 235.303681 
L 73.072644 234.895037 
L 73.315987 235.237756 
L 73.55933 235.253638 
L 74.046015 235.083801 
L 74.532701 235.300358 
L 74.776043 235.157516 
L 75.262729 235.309055 
L 75.506072 234.933195 
L 76.2361 235.301327 
L 76.479442 235.026561 
L 76.722785 235.302198 
L 76.966128 235.322994 
L 77.209471 234.92587 
L 77.452813 235.261361 
L 77.696156 235.327054 
L 78.182842 235.226353 
L 78.91287 235.240694 
L 79.156212 234.761711 
L 79.399555 235.175937 
L 79.642898 235.287926 
L 79.886241 235.044742 
L 80.129583 235.28874 
L 80.372926 235.28471 
L 80.616269 235.0861 
L 80.859612 235.331823 
L 81.102954 235.256153 
L 81.58964 235.338384 
L 81.832983 235.080025 
L 82.076325 235.19424 
L 82.319668 234.934905 
L 82.563011 235.020329 
L 82.806353 235.346066 
L 83.049696 235.149289 
L 83.293039 235.309595 
L 83.536382 235.252835 
L 83.779724 234.866965 
L 84.023067 235.317382 
L 85.483124 235.254783 
L 85.726466 234.893663 
L 86.213152 235.32907 
L 86.456494 235.238468 
L 86.699837 235.30221 
L 86.94318 234.914844 
L 87.186523 235.220342 
L 87.429865 235.324863 
L 87.673208 235.139915 
L 88.159894 235.208758 
L 88.403236 234.909274 
L 88.646579 235.238575 
L 88.889922 235.322437 
L 89.133265 235.23638 
L 89.376607 235.344157 
L 89.61995 235.072999 
L 90.106635 235.250429 
L 90.349978 235.20348 
L 90.593321 235.30099 
L 90.836664 235.21162 
L 91.323349 235.247818 
L 91.566692 234.988021 
L 91.810035 235.259024 
L 94.000119 235.209218 
L 94.486805 235.231285 
L 94.730147 235.13178 
L 95.216833 235.185161 
L 95.703518 234.983591 
L 95.946861 235.183206 
L 96.433547 235.124466 
L 96.676889 235.321055 
L 96.920232 235.275103 
L 97.163575 234.937187 
L 97.406917 235.204207 
L 97.893603 235.170979 
L 98.136946 235.322175 
L 98.380288 235.282377 
L 98.623631 234.893644 
L 99.110317 235.292816 
L 99.353659 235.030078 
L 99.597002 235.26032 
L 99.840345 235.19635 
L 100.083687 235.340362 
L 100.32703 235.285761 
L 100.570373 235.081923 
L 100.813716 235.243305 
L 101.057058 235.249735 
L 101.300401 235.081066 
L 101.787087 235.328092 
L 102.030429 234.955863 
L 102.273772 235.199566 
L 102.760458 235.227353 
L 103.0038 235.312042 
L 103.733828 235.104097 
L 104.220514 235.339131 
L 104.707199 235.26995 
L 106.653941 235.303577 
L 106.897284 235.187175 
L 108.113998 235.337253 
L 108.35734 235.188974 
L 108.844026 235.280015 
L 109.087369 235.133253 
L 109.330711 235.216344 
L 109.574054 235.155816 
L 110.06074 235.320554 
L 110.547425 235.216858 
L 110.790768 235.311252 
L 111.03411 235.18876 
L 111.277453 235.288407 
L 111.520796 235.178065 
L 111.764139 235.334018 
L 112.007481 235.170461 
L 113.954223 235.274636 
L 114.197566 235.113761 
L 114.440909 235.316623 
L 114.684251 235.28639 
L 114.927594 235.138958 
L 115.657622 235.294779 
L 116.144308 235.330877 
L 116.630993 235.175867 
L 116.874336 235.343657 
L 117.117679 234.945721 
L 117.361022 235.221108 
L 117.604364 235.294887 
L 118.09105 235.157026 
L 118.334392 235.154892 
L 118.577735 235.327955 
L 118.821078 234.90713 
L 119.064421 235.242549 
L 119.307763 235.139738 
L 119.551106 235.323099 
L 119.794449 234.99892 
L 120.524477 235.311951 
L 120.76782 235.169829 
L 121.011162 235.328068 
L 121.254505 235.171612 
L 121.497848 235.341643 
L 121.741191 235.091448 
L 122.227876 235.194526 
L 122.957904 235.285113 
L 123.44459 235.243707 
L 123.687933 235.323772 
L 123.931275 235.249951 
L 124.174618 235.345285 
L 124.417961 235.170623 
L 124.661303 235.306909 
L 125.147989 234.96627 
L 125.391332 235.321345 
L 125.634674 235.311141 
L 125.878017 234.857563 
L 126.364703 235.174912 
L 126.608045 234.879333 
L 126.851388 235.296466 
L 127.094731 235.288898 
L 127.338074 235.150102 
L 127.581416 235.329211 
L 127.824759 235.037708 
L 128.311444 235.311265 
L 128.554787 235.238069 
L 128.79813 235.290855 
L 129.041473 235.018116 
L 129.284815 235.281796 
L 129.528158 235.29621 
L 129.771501 234.691693 
L 130.014844 235.071791 
L 130.258186 235.227847 
L 130.501529 235.122261 
L 130.744872 235.187333 
L 130.988215 234.759171 
L 131.231557 235.052256 
L 131.718243 234.644773 
L 131.961585 235.051009 
L 132.204928 235.190164 
L 132.448271 234.719149 
L 132.691614 234.949042 
L 132.934956 234.058835 
L 133.178299 234.101149 
L 133.421642 232.668494 
L 133.664985 230.321189 
L 133.908327 225.377677 
L 134.395013 192.267725 
L 135.125041 230.170058 
L 135.611726 233.799242 
L 135.855069 233.091448 
L 136.098412 233.817002 
L 136.585097 233.906681 
L 136.82844 234.365799 
L 137.071783 234.222662 
L 137.315126 234.866737 
L 137.558468 234.984295 
L 137.801811 234.460323 
L 138.045154 234.530807 
L 138.288497 234.207405 
L 138.531839 234.387449 
L 138.775182 234.862835 
L 139.018525 234.680037 
L 139.50521 235.221685 
L 139.748553 234.841018 
L 140.721924 234.784918 
L 141.208609 234.889028 
L 141.451952 234.667991 
L 141.695295 234.830928 
L 142.18198 234.262261 
L 142.425323 234.968642 
L 142.668666 234.883413 
L 142.912008 234.531725 
L 143.155351 234.903605 
L 143.398694 234.571059 
L 143.642037 234.453798 
L 143.885379 234.593243 
L 144.128722 234.259147 
L 144.615408 235.0093 
L 144.85875 234.64354 
L 145.102093 234.754212 
L 145.345436 234.536787 
L 145.588778 234.502486 
L 145.832121 234.844278 
L 146.318807 234.592609 
L 146.805492 234.368213 
L 147.048835 234.692658 
L 147.53552 234.34577 
L 147.778863 234.285134 
L 148.022206 233.932378 
L 148.265549 234.316777 
L 148.508891 234.371632 
L 148.752234 233.806566 
L 148.995577 233.759503 
L 149.482262 232.536999 
L 149.725605 232.454305 
L 149.968948 232.080046 
L 150.455633 232.593014 
L 150.698976 231.968404 
L 150.942319 231.662416 
L 151.185661 230.679304 
L 151.672347 226.794463 
L 151.91569 221.802201 
L 152.159032 212.576827 
L 152.402375 194.59568 
L 152.88906 131.701495 
L 153.132403 137.478839 
L 153.619089 194.291706 
L 154.105774 220.361306 
L 154.59246 227.306823 
L 154.835802 228.9777 
L 155.079145 229.322989 
L 155.565831 231.172313 
L 156.052516 232.41403 
L 156.295859 232.041099 
L 156.782544 232.856714 
L 157.025887 232.188971 
L 157.512572 232.309151 
L 157.755915 231.878028 
L 157.999258 231.753082 
L 158.485943 230.893956 
L 158.729286 230.661072 
L 158.972629 230.148009 
L 159.459314 230.901204 
L 159.702657 231.08882 
L 159.946 231.81767 
L 160.189342 231.860106 
L 160.432685 232.023571 
L 160.676028 232.361828 
L 160.919371 232.078283 
L 161.649399 232.868353 
L 161.892742 232.798589 
L 162.136084 232.239959 
L 162.62277 232.028738 
L 162.866112 231.505228 
L 163.109455 231.782802 
L 163.596141 231.079042 
L 163.839483 231.462846 
L 164.326169 230.361432 
L 164.812854 228.943866 
L 165.056197 229.721935 
L 165.29954 231.081785 
L 165.786225 232.153547 
L 166.029568 232.386623 
L 166.272911 232.868584 
L 166.516253 232.902755 
L 166.759596 232.470867 
L 167.002939 232.796944 
L 167.489624 232.71067 
L 167.732967 233.232871 
L 167.97631 232.713059 
L 168.219653 232.644401 
L 168.462995 232.908743 
L 168.706338 232.391391 
L 168.949681 232.564054 
L 169.193024 232.436143 
L 169.436366 232.050519 
L 169.679709 232.381281 
L 170.166394 231.412887 
L 170.409737 231.620742 
L 170.65308 231.174259 
L 170.896423 231.091909 
L 171.383108 230.32971 
L 171.626451 230.649799 
L 172.113136 229.544199 
L 172.356479 229.815352 
L 173.086507 228.063517 
L 173.573193 226.631209 
L 173.816535 226.254277 
L 174.059878 226.281272 
L 174.303221 226.11872 
L 175.276592 223.12374 
L 175.519935 222.957238 
L 175.763277 222.453588 
L 176.249963 222.962233 
L 176.736648 221.56257 
L 177.223334 218.207367 
L 177.466676 215.951917 
L 178.440047 201.989569 
L 178.68339 202.29041 
L 179.170076 208.026628 
L 179.656761 216.170737 
L 180.143447 221.854291 
L 181.36016 227.875366 
L 181.846846 228.84306 
L 182.090188 229.610532 
L 182.333531 229.769514 
L 182.820217 230.68063 
L 183.306902 231.226568 
L 183.550245 231.133763 
L 183.793587 231.69835 
L 184.03693 231.939426 
L 184.280273 231.459427 
L 184.523616 232.031493 
L 184.766958 232.136895 
L 185.010301 231.869146 
L 185.253644 232.329543 
L 185.496987 232.181677 
L 185.983672 232.579655 
L 186.227015 232.328415 
L 186.470358 232.895174 
L 186.7137 232.592965 
L 186.957043 232.010742 
L 187.200386 232.693861 
L 187.687071 232.46587 
L 187.930414 232.856486 
L 188.173757 232.438682 
L 188.660442 232.65134 
L 188.903785 232.272866 
L 189.39047 232.607854 
L 189.633813 232.670622 
L 189.877156 232.578148 
L 190.120499 232.339155 
L 190.363841 232.647598 
L 190.850527 232.534658 
L 191.093869 232.658726 
L 191.337212 232.197165 
L 191.580555 232.602528 
L 191.823898 232.530493 
L 192.06724 231.848391 
L 192.310583 232.395576 
L 192.797269 232.093509 
L 193.040611 232.486665 
L 193.283954 231.756193 
L 193.77064 231.416762 
L 194.013982 230.884361 
L 194.257325 231.51272 
L 194.74401 227.753568 
L 195.717381 232.461442 
L 195.960724 231.87528 
L 196.44741 232.457815 
L 196.690752 232.178208 
L 196.934095 232.659638 
L 197.177438 232.117382 
L 197.420781 231.888433 
L 197.664123 232.417352 
L 197.907466 232.090355 
L 198.394151 232.222094 
L 198.637494 232.140105 
L 198.880837 232.277626 
L 199.12418 231.83191 
L 199.610865 232.219923 
L 199.854208 231.640903 
L 200.097551 231.988166 
L 200.340893 231.863331 
L 200.584236 231.879401 
L 200.827579 232.402192 
L 201.070922 231.856608 
L 201.557607 232.446436 
L 201.80095 231.806674 
L 202.044292 232.416984 
L 202.287635 232.366918 
L 202.530978 232.028195 
L 202.774321 232.489597 
L 203.017663 232.097877 
L 203.261006 232.296748 
L 203.504349 232.312445 
L 203.747692 231.810027 
L 203.991034 232.464685 
L 204.47772 231.682648 
L 204.721062 232.44146 
L 204.964405 231.664896 
L 205.207748 231.778696 
L 205.451091 232.048037 
L 205.694433 231.457498 
L 205.937776 232.297922 
L 206.424462 231.468296 
L 206.667804 232.238295 
L 206.911147 231.338702 
L 207.15449 231.38578 
L 207.397833 231.866143 
L 207.641175 230.918269 
L 207.884518 231.315477 
L 208.127861 231.155769 
L 208.371203 230.719153 
L 208.614546 231.228312 
L 208.857889 230.386814 
L 209.101232 230.563143 
L 209.344574 230.968742 
L 209.587917 230.223284 
L 209.83126 230.814158 
L 210.317945 229.519141 
L 210.561288 230.256365 
L 210.804631 229.041114 
L 211.047974 228.623272 
L 211.291316 228.815217 
L 211.534659 227.879589 
L 211.778002 228.600875 
L 212.021344 228.346742 
L 212.264687 227.607148 
L 212.50803 228.339393 
L 212.751373 227.678827 
L 212.994715 227.788011 
L 213.238058 228.155024 
L 213.481401 227.190018 
L 213.724744 227.570191 
L 214.211429 226.878344 
L 214.454772 226.875907 
L 214.698115 225.252903 
L 214.941457 225.461125 
L 215.1848 225.394482 
L 215.428143 224.087177 
L 215.671485 225.044295 
L 216.158171 223.307186 
L 216.401514 225.191341 
L 216.644856 225.439291 
L 216.888199 225.137759 
L 217.374885 219.905944 
L 217.618227 220.979733 
L 218.104913 218.080586 
L 218.348256 218.59155 
L 218.591598 216.665668 
L 218.834941 218.183656 
L 219.078284 217.358779 
L 219.321626 215.661843 
L 219.564969 221.792399 
L 219.808312 218.577182 
L 220.051655 210.603374 
L 220.294997 211.996056 
L 220.53834 204.606062 
L 220.781683 193.05441 
L 221.025026 188.980702 
L 221.268368 182.118933 
L 221.511711 181.941642 
L 221.998397 199.034389 
L 222.241739 200.907541 
L 222.485082 205.803087 
L 222.728425 214.325215 
L 222.971767 212.887352 
L 223.21511 204.896432 
L 223.701796 215.843986 
L 223.945138 212.318532 
L 224.188481 214.152667 
L 224.431824 210.22008 
L 224.675167 204.340178 
L 224.918509 209.328202 
L 225.161852 208.291743 
L 225.405195 201.853607 
L 225.89188 203.084737 
L 226.135223 199.089531 
L 226.378566 199.897126 
L 226.621908 212.709172 
L 226.865251 214.694653 
L 227.108594 201.244751 
L 227.351937 203.419547 
L 227.595279 204.350168 
L 227.838622 194.578425 
L 228.081965 203.79537 
L 228.325308 201.947215 
L 228.56865 185.192639 
L 228.811993 199.28667 
L 229.055336 204.933917 
L 229.298678 177.972556 
L 229.542021 167.313883 
L 229.785364 168.269973 
L 230.028707 167.514408 
L 230.272049 180.925439 
L 230.515392 187.708548 
L 230.758735 179.258401 
L 231.002078 176.952534 
L 231.24542 186.347301 
L 231.488763 208.426006 
L 231.732106 213.6177 
L 232.218791 144.163346 
L 232.462134 170.332488 
L 232.705477 166.66537 
L 232.948819 125.124685 
L 233.192162 136.049643 
L 233.435505 180.017095 
L 233.678848 185.393397 
L 234.165533 151.376162 
L 234.408876 147.706462 
L 234.895561 158.948308 
L 235.138904 163.162488 
L 235.62559 205.82801 
L 235.868932 197.062826 
L 236.112275 178.602707 
L 236.355618 190.017833 
L 236.59896 206.957928 
L 236.842303 203.547856 
L 237.085646 195.172062 
L 237.328989 190.798941 
L 237.572331 205.669504 
L 237.815674 228.843577 
L 238.059017 222.146599 
L 238.30236 205.134834 
L 238.545702 200.158425 
L 238.789045 201.056905 
L 239.032388 212.742137 
L 239.275731 215.999248 
L 239.519073 214.793815 
L 239.762416 224.851198 
L 240.249101 212.008682 
L 240.492444 219.365182 
L 240.735787 206.130262 
L 240.97913 209.629356 
L 241.222472 225.164545 
L 241.465815 209.799267 
L 241.709158 212.785283 
L 241.952501 231.695613 
L 242.195843 226.409469 
L 242.439186 224.434874 
L 242.682529 220.480384 
L 242.925872 211.122632 
L 243.169214 215.465311 
L 243.412557 215.339595 
L 243.6559 215.48894 
L 243.899242 219.736026 
L 244.142585 221.93516 
L 244.385928 233.494417 
L 244.629271 229.127841 
L 244.872613 213.691632 
L 245.115956 217.115827 
L 245.359299 215.524641 
L 245.602642 216.586346 
L 245.845984 224.691388 
L 246.089327 211.50468 
L 246.33267 211.316032 
L 246.576012 226.132937 
L 247.062698 206.722672 
L 247.306041 210.406973 
L 247.549383 209.0781 
L 247.792726 210.005228 
L 248.036069 210.009494 
L 248.279412 208.028767 
L 248.522754 207.161962 
L 248.766097 203.58826 
L 249.00944 201.784321 
L 249.252783 193.162993 
L 249.982811 132.981936 
L 250.469496 21.492727 
L 250.712839 35.033562 
L 251.199524 168.122345 
L 251.68621 225.578531 
L 251.929553 223.936663 
L 252.172895 218.117961 
L 252.416238 226.139937 
L 252.902924 219.354773 
L 253.146266 226.476488 
L 253.632952 228.820635 
L 253.876294 232.586507 
L 254.119637 233.641272 
L 254.36298 232.997373 
L 254.606323 231.475688 
L 254.849665 231.846172 
L 255.336351 233.592985 
L 255.579694 235.069218 
L 255.823036 232.943539 
L 256.066379 233.281416 
L 256.309722 234.771132 
L 256.796407 232.400312 
L 257.03975 233.086471 
L 257.283093 232.574663 
L 257.526435 234.351705 
L 258.013121 232.36057 
L 258.256464 234.93538 
L 258.499806 233.59605 
L 258.743149 233.147961 
L 258.986492 234.46911 
L 259.229835 233.091929 
L 259.473177 232.995138 
L 259.71652 232.473435 
L 259.959863 232.769148 
L 260.203206 235.064155 
L 260.446548 233.56695 
L 260.689891 232.991727 
L 260.933234 234.01074 
L 261.176576 232.540666 
L 261.663262 234.303775 
L 261.906605 233.235828 
L 262.149947 234.42716 
L 262.39329 232.986365 
L 262.636633 230.429094 
L 262.879976 230.87547 
L 263.123318 229.272648 
L 263.366661 226.194813 
L 263.610004 225.285413 
L 263.853347 226.312279 
L 264.340032 232.2721 
L 264.583375 231.950464 
L 264.826717 229.481822 
L 265.07006 229.59886 
L 265.313403 231.038747 
L 265.556746 230.727543 
L 266.043431 232.938562 
L 266.286774 232.922694 
L 266.530117 234.447286 
L 267.016802 231.188032 
L 267.260145 232.442492 
L 267.503487 231.043553 
L 267.74683 230.569415 
L 267.990173 232.109884 
L 268.233516 230.864334 
L 268.476858 232.022919 
L 268.720201 231.235008 
L 268.963544 226.143727 
L 269.450229 227.135364 
L 269.693572 224.927862 
L 269.936915 227.692606 
L 270.180258 228.018907 
L 270.4236 226.094133 
L 270.910286 230.24368 
L 271.153628 231.333249 
L 271.396971 233.297517 
L 271.883657 231.664198 
L 272.370342 233.230939 
L 272.857028 233.72187 
L 273.587056 234.26374 
L 273.830399 234.970467 
L 274.317084 234.444731 
L 274.560427 234.907501 
L 275.047112 234.880973 
L 275.533798 234.499735 
L 275.77714 234.90048 
L 276.507169 234.893555 
L 276.750511 234.468683 
L 277.237197 234.80235 
L 277.48054 234.63152 
L 277.723882 234.994011 
L 278.210568 234.628834 
L 278.45391 234.901065 
L 278.697253 234.76807 
L 279.183939 234.206872 
L 279.670624 234.654294 
L 279.913967 234.452363 
L 280.400652 235.262292 
L 280.643995 234.879672 
L 280.887338 235.048329 
L 281.130681 235.007171 
L 281.374023 234.794829 
L 281.617366 234.920655 
L 281.860709 234.705492 
L 282.347394 234.830072 
L 282.590737 234.561685 
L 282.83408 234.690765 
L 283.077422 234.554889 
L 283.320765 234.610471 
L 283.564108 234.848699 
L 283.807451 234.32689 
L 284.050793 234.286297 
L 284.294136 234.369324 
L 284.537479 234.047934 
L 284.780822 234.429495 
L 285.024164 234.456094 
L 285.267507 234.195325 
L 285.51085 234.500869 
L 285.754192 234.466878 
L 286.240878 234.720568 
L 286.484221 234.520957 
L 286.727563 234.701845 
L 287.214249 234.479653 
L 287.457592 234.740481 
L 287.700934 234.660153 
L 288.18762 234.819406 
L 288.430962 234.567975 
L 288.674305 234.722614 
L 289.160991 234.164465 
L 289.404333 234.539495 
L 289.647676 234.555862 
L 289.891019 234.432538 
L 290.621047 234.639131 
L 290.86439 234.508846 
L 291.107733 234.578689 
L 291.351075 234.864072 
L 291.594418 234.811688 
L 292.081103 235.109298 
L 292.324446 234.934791 
L 292.567789 235.037455 
L 293.054474 234.987086 
L 293.297817 235.086069 
L 293.54116 234.830118 
L 294.027845 235.064049 
L 294.271188 234.868727 
L 295.001216 235.318094 
L 295.244559 235.291631 
L 295.487902 235.089784 
L 295.974587 235.219385 
L 296.461273 235.179181 
L 297.191301 235.328945 
L 297.434644 235.184534 
L 297.677986 235.279819 
L 297.921329 235.134793 
L 298.164672 235.34135 
L 298.408015 235.226227 
L 298.8947 235.343727 
L 299.138043 235.210867 
L 299.624728 235.319 
L 299.868071 235.220498 
L 300.841442 235.333682 
L 301.328127 235.195394 
L 301.57147 235.305394 
L 301.814813 235.232378 
L 302.058156 235.346978 
L 303.518212 235.236468 
L 304.004897 235.312663 
L 304.24824 235.227114 
L 305.221611 235.32999 
L 305.464954 235.146445 
L 305.708297 235.273942 
L 306.194982 235.037186 
L 306.681667 235.248306 
L 307.168353 235.170529 
L 307.411696 235.29283 
L 308.141724 235.142931 
L 309.115095 235.344952 
L 309.60178 235.229336 
L 309.845123 235.341201 
L 310.088466 235.209338 
L 310.331808 235.340375 
L 310.575151 235.313647 
L 310.818494 235.169819 
L 311.061837 235.239633 
L 311.305179 235.114608 
L 311.548522 235.22718 
L 312.27855 235.120847 
L 313.495264 235.310398 
L 313.981949 235.191729 
L 314.225292 235.336963 
L 314.468635 235.325153 
L 314.711978 235.160722 
L 315.198663 235.248831 
L 315.928691 235.182568 
L 316.415377 235.239686 
L 316.658719 235.220463 
L 316.902062 235.328056 
L 317.388748 235.164147 
L 317.63209 235.320497 
L 317.875433 235.171051 
L 318.605461 235.295476 
L 320.30886 235.312863 
L 320.552203 235.138177 
L 321.282231 235.326536 
L 321.525574 235.194566 
L 321.768917 235.315683 
L 322.498945 235.227853 
L 322.742288 235.064133 
L 323.228973 235.25025 
L 323.715659 235.328681 
L 323.959001 235.15481 
L 324.202344 235.314974 
L 324.445687 235.174942 
L 324.932372 235.242397 
L 325.175715 235.154127 
L 325.419058 235.320297 
L 325.905743 235.274841 
L 326.149086 235.081261 
L 326.392429 235.107231 
L 326.635772 235.313641 
L 326.879114 235.212794 
L 327.852485 235.338195 
L 328.095828 235.330106 
L 328.339171 235.176521 
L 329.069199 235.334765 
L 329.312542 235.211149 
L 330.04257 235.30077 
L 330.285912 235.104179 
L 330.772598 235.333681 
L 331.015941 235.257096 
L 331.259283 235.298082 
L 331.502626 235.064373 
L 331.745969 235.20854 
L 332.232654 235.113131 
L 332.71934 235.309791 
L 333.692711 235.184978 
L 334.179396 235.342304 
L 335.152767 235.247745 
L 335.39611 235.056336 
L 335.639453 235.297955 
L 336.612824 235.255081 
L 336.856166 235.291483 
L 337.099509 235.131928 
L 337.342852 235.228914 
L 338.316223 234.454594 
L 339.532936 235.333531 
L 339.776279 235.243901 
L 340.262965 235.299459 
L 340.992993 235.259432 
L 341.479678 235.311834 
L 341.723021 235.179305 
L 342.209706 235.277803 
L 342.453049 235.054736 
L 342.939735 235.197178 
L 343.183077 235.096403 
L 343.42642 235.346371 
L 343.669763 235.329505 
L 343.913106 235.180487 
L 344.156448 235.341716 
L 344.643134 235.205558 
L 344.886476 235.327548 
L 345.129819 235.153804 
L 345.616505 235.224114 
L 345.859847 235.114501 
L 346.10319 235.319465 
L 346.589876 235.105782 
L 346.833218 235.284253 
L 347.806589 235.18704 
L 348.049932 234.946125 
L 348.536617 234.96913 
L 348.77996 234.670973 
L 349.266646 234.69828 
L 349.509988 234.476683 
L 349.996674 234.603993 
L 350.240017 234.590006 
L 350.726702 234.683734 
L 352.430101 234.903875 
L 353.160129 234.736038 
L 353.403472 234.819068 
L 353.646815 234.753679 
L 353.890158 234.572903 
L 354.863528 234.573505 
L 355.350214 234.392828 
L 355.593557 234.571119 
L 356.080242 234.585718 
L 356.566928 234.738683 
L 357.053613 234.627122 
L 357.540299 234.845544 
L 358.270327 234.465711 
L 358.757012 234.464216 
L 359.000355 234.369324 
L 359.48704 234.731046 
L 359.973726 234.997827 
L 360.217069 234.899827 
L 360.460411 234.972726 
L 360.703754 235.167021 
L 361.433782 235.07781 
L 362.407153 235.201745 
L 363.380524 235.322294 
L 363.623867 235.206864 
L 363.86721 235.26388 
L 364.110552 235.179859 
L 364.353895 235.293005 
L 364.597238 235.164811 
L 365.083923 235.250203 
L 366.787322 235.15295 
L 367.030665 235.315203 
L 367.274008 235.256874 
L 367.760693 235.277058 
L 368.004036 235.129378 
L 368.490722 235.286462 
L 368.734064 235.068382 
L 369.22075 235.317603 
L 369.950778 235.247938 
L 370.194121 235.319836 
L 370.437463 235.13108 
L 371.410834 235.343806 
L 371.89752 235.248181 
L 372.140862 235.285633 
L 372.384205 235.151887 
L 373.600919 235.291356 
L 374.087604 235.197088 
L 374.817633 235.246005 
L 375.060975 235.288452 
L 375.304318 235.216451 
L 375.791003 235.273347 
L 376.034346 235.195619 
L 376.764374 235.34105 
L 377.494403 235.265801 
L 377.737745 235.053696 
L 378.224431 235.270165 
L 378.711116 235.215666 
L 379.441144 235.346008 
L 379.684487 235.126402 
L 379.92783 235.136737 
L 380.171173 235.346567 
L 381.631229 235.280993 
L 381.874572 235.346471 
L 382.361257 235.311524 
L 383.334628 235.216054 
L 383.821314 235.335176 
L 384.064656 235.314501 
L 384.307999 235.120589 
L 384.551342 235.232086 
L 384.794685 235.070222 
L 385.038027 234.772183 
L 386.011398 235.100919 
L 386.254741 234.928129 
L 386.741426 235.11417 
L 386.984769 235.065147 
L 387.228112 235.246421 
L 387.714797 235.084878 
L 387.95814 235.18758 
L 388.444826 234.953813 
L 388.688168 235.061908 
L 389.418197 234.680898 
L 389.661539 234.663343 
L 390.63491 233.949476 
L 391.121596 232.988092 
L 391.608281 230.680575 
L 392.094967 227.62831 
L 392.338309 227.552922 
L 392.824995 230.130312 
L 393.31168 232.695384 
L 394.041708 233.896089 
L 394.285051 234.027803 
L 394.528394 234.016452 
L 394.771737 233.890578 
L 395.258422 234.140194 
L 395.501765 233.979935 
L 395.98845 234.282804 
L 396.231793 234.187679 
L 396.475136 234.305882 
L 396.718478 234.266712 
L 396.961821 234.070829 
L 397.448507 234.333737 
L 397.935192 234.079183 
L 398.421878 234.000062 
L 398.908563 233.963928 
L 399.395249 233.982456 
L 399.881934 233.586914 
L 400.125277 233.640407 
L 400.611962 233.268251 
L 400.855305 233.279573 
L 401.34199 232.994083 
L 401.828676 232.622927 
L 402.072019 232.617337 
L 402.558704 231.879658 
L 402.802047 231.795819 
L 403.288732 231.086569 
L 403.532075 231.005867 
L 404.748789 228.598403 
L 405.478817 226.054358 
L 406.695531 219.9896 
L 407.425559 215.057588 
L 408.155587 209.31451 
L 408.39893 207.842699 
L 408.642272 207.450147 
L 408.885615 207.836933 
L 409.128958 208.634707 
L 410.345672 214.381467 
L 410.832357 215.997349 
L 411.319042 216.755963 
L 411.562385 216.938396 
L 411.805728 216.89983 
L 412.049071 216.488977 
L 412.535756 215.114942 
L 413.022442 212.83219 
L 413.509127 209.203507 
L 413.995812 204.279051 
L 415.455869 186.966926 
L 415.699212 186.103115 
L 415.942554 186.593434 
L 416.185897 188.218056 
L 417.402611 204.320133 
L 417.889296 207.036228 
L 418.132639 207.40885 
L 418.862667 206.822276 
L 419.10601 206.914474 
L 419.349353 206.854331 
L 419.592695 207.156782 
L 421.052752 212.194572 
L 421.296094 212.670834 
L 422.512808 213.188468 
L 422.999494 214.165833 
L 423.972865 216.886108 
L 424.45955 217.536312 
L 424.702893 218.183169 
L 424.946235 218.493698 
L 425.432921 218.427955 
L 425.676264 217.923855 
L 426.162949 216.187257 
L 427.379663 209.528042 
L 427.866348 204.945351 
L 428.109691 202.547527 
L 428.353034 201.91133 
L 428.596376 203.795373 
L 429.569747 216.238613 
L 430.299776 221.773349 
L 432.003175 228.691246 
L 432.733203 230.380775 
L 433.706574 231.596161 
L 434.679945 232.467944 
L 435.16663 232.637003 
L 435.653316 233.006675 
L 437.8434 234.312865 
L 438.086743 234.296762 
L 438.330086 234.394942 
L 438.573428 234.672883 
L 439.303457 234.746927 
L 439.546799 234.689527 
L 440.276828 234.950999 
L 440.763513 234.971167 
L 441.006856 235.037492 
L 441.493541 234.94276 
L 441.736884 235.097183 
L 443.440283 235.175242 
L 443.683626 235.317369 
L 444.170311 235.103108 
L 444.656997 235.266 
L 444.90034 235.119046 
L 445.387025 235.334543 
L 445.87371 235.165283 
L 446.603739 235.340431 
L 447.820452 235.250243 
L 449.037166 235.336273 
L 450.25388 235.198659 
L 450.497222 235.339088 
L 450.740565 235.146158 
L 451.470593 235.277335 
L 455.364077 235.260181 
L 456.094105 235.236876 
L 457.554162 235.332447 
L 458.040847 235.275628 
L 458.770875 235.32419 
L 459.500903 235.275375 
L 459.987589 235.224762 
L 460.230932 235.344338 
L 460.717617 235.146724 
L 461.690988 235.323413 
L 462.177674 235.245219 
L 462.664359 235.214725 
L 462.907702 235.150943 
L 463.394387 235.285471 
L 463.881073 235.178495 
L 464.124415 235.31196 
L 467.774556 235.17197 
L 468.017899 235.329345 
L 468.747927 235.16517 
L 469.234613 235.276469 
L 469.477956 235.346686 
L 469.964641 235.208939 
L 470.451326 235.301488 
L 472.154726 235.261826 
L 472.398068 235.268605 
L 472.884754 235.149339 
L 473.128097 235.30607 
L 474.34481 235.090308 
L 474.588153 235.289175 
L 475.074838 235.245274 
L 475.318181 235.117078 
L 475.561524 235.305983 
L 475.804867 235.330243 
L 476.048209 235.152947 
L 477.02158 235.307958 
L 477.751608 235.233271 
L 478.238294 235.340452 
L 478.481637 235.211486 
L 480.671721 235.338146 
L 480.915064 235.252291 
L 481.645092 235.321569 
L 482.131778 235.199009 
L 482.37512 235.314212 
L 485.295233 235.19486 
L 485.538576 234.991235 
L 486.025261 235.031648 
L 486.268604 234.996859 
L 486.511947 235.133989 
L 486.998632 235.08482 
L 487.241975 235.19978 
L 487.72866 235.081552 
L 487.972003 235.140867 
L 488.215346 235.084604 
L 488.702031 235.261668 
L 489.188717 235.221058 
L 489.675402 235.237674 
L 490.162088 235.259406 
L 490.405431 235.346083 
L 490.892116 235.284275 
L 491.378801 235.335771 
L 491.622144 235.222233 
L 493.082201 235.32435 
L 493.568886 235.26626 
L 494.542257 235.324704 
L 494.7856 235.249577 
L 495.272285 235.320836 
L 495.758971 235.146383 
L 496.002313 235.291767 
L 496.488999 235.280944 
L 496.975684 235.23946 
L 498.192398 235.232264 
L 498.922426 235.119691 
L 499.409112 235.238979 
L 500.869168 235.197729 
L 501.112511 235.301991 
L 501.599196 235.013911 
L 502.085882 235.145629 
L 502.572567 235.082394 
L 502.81591 235.03091 
L 503.059253 235.171171 
L 503.789281 235.198353 
L 504.032624 235.051761 
L 504.519309 235.299348 
L 504.762652 235.081246 
L 506.222708 235.157143 
L 506.466051 235.197525 
L 506.709394 235.091016 
L 507.196079 235.237059 
L 507.439422 235.093421 
L 510.84622 235.109745 
L 511.089563 235.244682 
L 513.036305 235.108202 
L 513.279647 235.264066 
L 513.52299 235.224454 
L 513.766333 235.051496 
L 514.253018 235.0776 
L 514.496361 235.0803 
L 514.739704 235.269133 
L 515.226389 235.087887 
L 515.469732 235.196064 
L 515.713075 235.025275 
L 515.956417 235.091836 
L 516.19976 235.32969 
L 516.686446 234.964117 
L 516.929788 235.178023 
L 517.416474 235.070586 
L 517.903159 235.118 
L 519.363216 235.164217 
L 519.849901 235.100093 
L 520.336587 235.287799 
L 520.823272 235.149351 
L 523.256699 235.092567 
L 523.500042 235.012161 
L 524.716756 235.145497 
L 525.203441 235.194803 
L 525.446784 235.228566 
L 525.690127 235.07858 
L 525.933469 235.059385 
L 526.176812 235.208286 
L 528.853582 235.145405 
L 529.340268 235.280659 
L 529.58361 235.032724 
L 529.826953 235.027881 
L 530.070296 235.303871 
L 530.556981 235.060961 
L 531.043667 235.151858 
L 531.530352 235.223473 
L 531.773695 235.063376 
L 533.477094 235.173849 
L 533.720437 235.045106 
L 534.207122 235.311581 
L 534.450465 235.1526 
L 534.937151 235.200734 
L 535.180493 235.088316 
L 535.667179 235.216293 
L 536.397207 235.176194 
L 537.857263 235.234266 
L 538.343949 235.251923 
L 539.560662 235.285062 
L 539.804005 235.328925 
L 540.290691 235.16595 
L 540.777376 235.345638 
L 541.264062 235.227431 
L 546.130916 235.266967 
L 546.617602 235.280707 
L 548.077658 235.207172 
L 548.321001 235.1776 
L 548.564344 235.273651 
L 549.051029 235.287919 
L 549.294372 235.308832 
L 549.537715 235.165202 
L 551.241114 235.245873 
L 552.70117 235.287103 
L 552.70117 235.287103 
" clip-path="url(#p247e22c74f)" style="fill: none; stroke: #1f77b4; stroke-width: 1.5; stroke-linecap: square"/>
   </g>
   <g id="line2d_17">
    <path d="M 46.923193 235.346628 
L 60.392108 235.331321 
L 61.233915 235.135309 
L 62.075723 235.29273 
L 62.91753 235.112842 
L 65.442951 235.249632 
L 66.284759 235.068658 
L 67.126566 234.329213 
L 67.968373 234.552883 
L 68.81018 233.182312 
L 69.651987 219.197099 
L 70.493795 231.326836 
L 71.335602 233.427299 
L 72.177409 234.719966 
L 73.861024 235.142078 
L 74.702831 235.192685 
L 75.544638 235.116359 
L 76.386445 235.279174 
L 77.228252 235.160214 
L 78.07006 235.237683 
L 78.911867 235.07423 
L 79.753674 235.286296 
L 81.437288 235.178117 
L 83.120903 235.309321 
L 83.96271 235.079738 
L 84.804517 235.242776 
L 88.171746 235.307893 
L 90.697168 235.221382 
L 94.064397 235.298219 
L 96.589818 235.303535 
L 102.482469 235.298096 
L 105.00789 235.248664 
L 106.691505 235.280664 
L 109.216926 235.303171 
L 111.742348 235.228358 
L 112.584155 234.774692 
L 113.425962 235.099955 
L 114.26777 234.984174 
L 115.109577 234.357906 
L 115.951384 235.125165 
L 116.793191 235.314307 
L 129.420299 235.312536 
L 130.262107 234.240057 
L 131.103914 235.212533 
L 132.787528 235.242135 
L 134.471143 234.727924 
L 135.31295 233.83687 
L 136.154757 231.943795 
L 136.996564 234.936312 
L 137.838371 235.111374 
L 141.2056 235.072546 
L 142.047408 234.870673 
L 142.889215 235.178635 
L 144.572829 235.211733 
L 147.098251 235.105839 
L 147.940058 235.056995 
L 148.781865 234.562512 
L 149.623672 234.410716 
L 150.46548 235.175128 
L 151.307287 232.739482 
L 152.149094 233.417932 
L 152.990901 163.92064 
L 153.832708 232.668586 
L 154.674516 230.909771 
L 155.516323 234.680563 
L 156.35813 234.607419 
L 157.199937 233.855579 
L 158.041745 235.15315 
L 158.883552 235.048785 
L 159.725359 234.252276 
L 160.567166 234.871759 
L 162.250781 235.174899 
L 163.092588 231.866366 
L 163.934395 233.675784 
L 164.776202 234.416367 
L 165.618009 233.866211 
L 166.459817 233.659867 
L 167.301624 228.734992 
L 168.143431 232.320076 
L 168.985238 234.533999 
L 169.827045 233.794597 
L 170.668853 234.430103 
L 171.51066 232.832966 
L 172.352467 233.58708 
L 173.194274 230.648677 
L 174.036082 229.187456 
L 174.877889 224.120552 
L 175.719696 225.550901 
L 176.561503 229.284161 
L 177.40331 229.847004 
L 178.245118 226.318376 
L 179.086925 225.640575 
L 179.928732 229.504081 
L 180.770539 225.816976 
L 181.612346 215.795137 
L 182.454154 232.154675 
L 183.295961 233.832288 
L 184.137768 234.57152 
L 184.979575 233.748056 
L 185.821382 233.740068 
L 186.66319 234.612329 
L 187.504997 234.171186 
L 188.346804 234.141501 
L 189.188611 234.778851 
L 190.030418 234.59991 
L 190.872226 233.957005 
L 191.714033 234.77547 
L 192.55584 234.727042 
L 193.397647 234.831475 
L 194.239455 234.823482 
L 195.081262 233.054688 
L 195.923069 234.276651 
L 196.764876 234.978634 
L 197.606683 234.50631 
L 198.448491 235.226782 
L 199.290298 234.532885 
L 200.132105 234.090345 
L 200.973912 234.762587 
L 201.815719 235.015177 
L 202.657527 234.989409 
L 204.341141 234.720185 
L 205.182948 234.654077 
L 206.866563 234.727581 
L 207.70837 235.011879 
L 208.550177 234.53985 
L 209.391984 235.102152 
L 210.233792 234.180366 
L 211.075599 234.008394 
L 211.917406 234.641175 
L 212.759213 234.646873 
L 213.60102 234.389639 
L 214.442828 234.891706 
L 215.284635 234.925154 
L 216.126442 233.653889 
L 216.968249 233.783015 
L 217.810056 233.797023 
L 218.651864 233.542875 
L 219.493671 232.791688 
L 220.335478 229.060478 
L 221.177285 228.641737 
L 222.019092 230.029658 
L 222.8609 226.396252 
L 223.702707 201.756666 
L 224.544514 221.88976 
L 225.386321 233.696026 
L 227.069936 231.623553 
L 227.911743 232.412806 
L 228.75355 227.944939 
L 229.595357 228.80259 
L 230.437165 232.256022 
L 231.278972 230.660963 
L 232.120779 228.229497 
L 232.962586 204.023929 
L 233.804393 221.804661 
L 234.646201 218.728852 
L 235.488008 220.876974 
L 236.329815 220.324072 
L 237.171622 203.200335 
L 238.013429 176.023311 
L 238.855237 210.931893 
L 239.697044 223.523685 
L 240.538851 206.245404 
L 241.380658 221.477066 
L 242.222466 205.592526 
L 243.064273 221.038643 
L 243.90608 204.866862 
L 244.747887 224.228866 
L 245.589694 227.665879 
L 246.431502 225.804225 
L 247.273309 224.858219 
L 248.115116 233.186344 
L 248.956923 215.569533 
L 249.79873 231.781536 
L 250.640538 223.197683 
L 251.482345 174.906321 
L 252.324152 167.624016 
L 253.165959 170.777717 
L 254.007766 228.448174 
L 254.849574 228.820726 
L 255.691381 234.875967 
L 256.533188 232.290037 
L 257.374995 233.511956 
L 259.05861 234.975583 
L 259.900417 234.217425 
L 260.742224 234.887146 
L 262.425839 234.25517 
L 263.267646 235.064031 
L 264.109453 234.754486 
L 264.95126 232.353591 
L 265.793067 234.431479 
L 266.634875 233.931073 
L 267.476682 233.021146 
L 268.318489 213.105927 
L 269.160296 234.83145 
L 270.002103 234.289641 
L 270.843911 234.840642 
L 271.685718 234.820599 
L 272.527525 234.913931 
L 273.369332 234.48657 
L 274.211139 235.284752 
L 275.052947 234.828008 
L 275.894754 235.231903 
L 276.736561 235.279784 
L 277.578368 233.659583 
L 278.420176 232.763138 
L 279.261983 234.753322 
L 280.10379 235.282408 
L 280.945597 235.160911 
L 281.787404 235.184375 
L 282.629212 234.995706 
L 284.312826 235.239163 
L 285.154633 235.07285 
L 285.99644 234.695563 
L 286.838248 234.896599 
L 287.680055 234.860655 
L 288.521862 235.151543 
L 289.363669 235.15373 
L 291.047284 234.453168 
L 291.889091 234.780264 
L 292.730898 233.932211 
L 293.572705 234.474146 
L 294.414513 234.844026 
L 295.25632 234.929485 
L 296.098127 235.215491 
L 296.939934 234.334529 
L 297.781741 235.212305 
L 298.623549 235.291021 
L 299.465356 235.133117 
L 300.307163 235.21578 
L 301.14897 235.085953 
L 302.832585 235.308141 
L 303.674392 235.203646 
L 305.358006 235.242256 
L 306.199813 234.901618 
L 307.041621 235.189949 
L 307.883428 235.00971 
L 309.567042 235.216093 
L 312.092464 235.316874 
L 312.934271 235.173383 
L 313.776078 235.281146 
L 314.617886 235.227647 
L 315.459693 234.769832 
L 316.3015 235.063375 
L 317.985114 235.258073 
L 320.510536 235.269881 
L 321.352343 235.115171 
L 322.19415 235.303293 
L 323.035958 235.237638 
L 323.877765 235.015759 
L 325.561379 235.210152 
L 326.403187 235.139088 
L 327.244994 235.311107 
L 330.612223 235.090441 
L 331.45403 234.702457 
L 332.295837 234.914449 
L 333.979451 235.132868 
L 334.821259 234.962141 
L 336.504873 235.260405 
L 338.188487 235.163352 
L 339.030295 235.329629 
L 341.555716 235.019338 
L 342.397524 235.274333 
L 344.922945 235.127425 
L 345.764752 235.31539 
L 346.60656 235.090411 
L 347.448367 235.293385 
L 348.290174 234.858457 
L 349.131981 235.188544 
L 349.973788 235.128991 
L 350.815596 234.76324 
L 351.657403 235.21831 
L 352.49921 235.03797 
L 353.341017 234.423948 
L 354.182824 235.061837 
L 355.024632 235.129365 
L 355.866439 234.841666 
L 356.708246 234.147992 
L 357.550053 235.112429 
L 358.39186 234.806425 
L 359.233668 233.368351 
L 360.075475 231.551397 
L 360.917282 235.012162 
L 361.759089 234.930447 
L 362.600897 235.16323 
L 363.442704 235.152776 
L 364.284511 234.980043 
L 365.968125 235.168056 
L 366.809933 235.057193 
L 367.65174 235.061212 
L 368.493547 235.20123 
L 369.335354 235.189847 
L 370.177161 234.900862 
L 371.860776 235.184106 
L 372.702583 235.257019 
L 373.54439 235.095867 
L 374.386197 235.237036 
L 375.228005 235.055993 
L 376.069812 235.255758 
L 376.911619 235.185112 
L 377.753426 235.276731 
L 379.437041 235.173052 
L 381.120655 235.311067 
L 381.962462 235.183912 
L 383.646077 235.304888 
L 384.487884 235.156942 
L 385.329691 235.236505 
L 386.171498 235.001427 
L 388.69692 235.123619 
L 389.538727 234.614555 
L 390.380534 235.139432 
L 392.064149 235.133458 
L 394.589571 235.007227 
L 397.114992 235.031917 
L 397.956799 234.870604 
L 398.798607 235.085126 
L 399.640414 234.767907 
L 401.324028 235.195115 
L 402.165835 235.02638 
L 403.007643 234.370928 
L 403.84945 234.834656 
L 404.691257 235.07869 
L 405.533064 234.442365 
L 406.374871 235.02489 
L 408.058486 234.490852 
L 408.900293 233.718878 
L 409.7421 234.261742 
L 410.583908 233.49694 
L 411.425715 234.147599 
L 412.267522 234.263268 
L 413.109329 233.648145 
L 413.951136 232.863716 
L 414.792944 232.999424 
L 415.634751 234.783438 
L 416.476558 234.687451 
L 417.318365 230.480375 
L 418.160172 234.538124 
L 419.843787 232.596246 
L 420.685594 233.619175 
L 421.527401 231.608769 
L 422.369208 234.133203 
L 423.211016 231.113634 
L 424.052823 195.493971 
L 424.89463 21.492727 
L 425.736437 203.946427 
L 426.578245 166.302969 
L 427.420052 108.041934 
L 428.261859 170.234784 
L 429.103666 215.975544 
L 429.945473 202.60917 
L 430.787281 219.473304 
L 431.629088 228.453479 
L 432.470895 223.308439 
L 433.312702 219.620363 
L 434.154509 222.463691 
L 434.996317 224.402609 
L 435.838124 217.234988 
L 436.679931 224.287312 
L 437.521738 206.39085 
L 438.363545 218.334987 
L 439.205353 211.852317 
L 440.04716 213.346681 
L 440.888967 219.215836 
L 441.730774 199.837274 
L 442.572581 133.450845 
L 443.414389 207.260714 
L 444.256196 234.954736 
L 445.098003 230.649453 
L 446.781618 226.150276 
L 448.465232 234.914616 
L 449.307039 234.342535 
L 450.148846 234.320519 
L 450.990654 234.936791 
L 451.832461 234.854635 
L 452.674268 233.950073 
L 453.516075 234.657877 
L 454.357882 234.428803 
L 456.041497 235.068784 
L 457.725111 235.155634 
L 458.566918 234.745934 
L 459.408726 235.211788 
L 460.250533 234.997034 
L 461.09234 234.926176 
L 461.934147 235.079188 
L 462.775955 235.097812 
L 463.617762 234.71167 
L 464.459569 235.17452 
L 465.301376 235.278927 
L 468.668605 235.176367 
L 469.510412 234.850653 
L 470.352219 235.177624 
L 471.194027 234.940691 
L 472.035834 235.194454 
L 474.561255 235.267498 
L 476.24487 235.186906 
L 477.928484 235.277926 
L 479.612099 235.273078 
L 481.295713 235.250099 
L 482.979328 235.295886 
L 486.346556 235.267714 
L 488.871978 235.315723 
L 492.239207 235.249298 
L 493.922821 235.288596 
L 496.448243 235.312984 
L 497.29005 235.213185 
L 498.131857 235.304979 
L 498.973665 235.184448 
L 499.815472 235.307768 
L 501.499086 235.161865 
L 505.708122 235.312995 
L 508.233544 235.141661 
L 509.075351 235.288512 
L 514.126194 235.297306 
L 520.018845 235.310663 
L 539.380411 235.292519 
L 540.222218 235.220749 
L 542.747639 235.292413 
L 552.007519 235.330599 
L 552.849326 235.182872 
L 552.849326 235.182872 
" clip-path="url(#p247e22c74f)" style="fill: none; stroke: #ff7f0e; stroke-width: 1.5; stroke-linecap: square"/>
   </g>
   <g id="patch_3">
    <path d="M 47.765 246.04 
L 47.765 10.8 
" style="fill: none; stroke: #000000; stroke-width: 0.8; stroke-linejoin: miter; stroke-linecap: square"/>
   </g>
   <g id="patch_4">
    <path d="M 552.51 246.04 
L 552.51 10.8 
" style="fill: none; stroke: #000000; stroke-width: 0.8; stroke-linejoin: miter; stroke-linecap: square"/>
   </g>
   <g id="patch_5">
    <path d="M 47.765 246.04 
L 552.51 246.04 
" style="fill: none; stroke: #000000; stroke-width: 0.8; stroke-linejoin: miter; stroke-linecap: square"/>
   </g>
   <g id="patch_6">
    <path d="M 47.765 10.8 
L 552.51 10.8 
" style="fill: none; stroke: #000000; stroke-width: 0.8; stroke-linejoin: miter; stroke-linecap: square"/>
   </g>
   <g id="legend_1">
    <g id="patch_7">
     <path d="M 446.824062 48.15625 
L 545.51 48.15625 
Q 547.51 48.15625 547.51 46.15625 
L 547.51 17.8 
Q 547.51 15.8 545.51 15.8 
L 446.824062 15.8 
Q 444.824062 15.8 444.824062 17.8 
L 444.824062 46.15625 
Q 444.824062 48.15625 446.824062 48.15625 
z
" style="fill: #ffffff; opacity: 0.8; stroke: #cccccc; stroke-linejoin: miter"/>
    </g>
    <g id="line2d_18">
     <path d="M 448.824062 23.898438 
L 458.824062 23.898438 
L 468.824062 23.898438 
" style="fill: none; stroke: #1f77b4; stroke-width: 1.5; stroke-linecap: square"/>
    </g>
    <g id="text_18">
     <!-- Experimental -->
     <g transform="translate(476.824062 27.398438) scale(0.1 -0.1)">
      <defs>
       <path id="DejaVuSans-45" d="M 628 4666 
L 3578 4666 
L 3578 4134 
L 1259 4134 
L 1259 2753 
L 3481 2753 
L 3481 2222 
L 1259 2222 
L 1259 531 
L 3634 531 
L 3634 0 
L 628 0 
L 628 4666 
z
" transform="scale(0.015625)"/>
       <path id="DejaVuSans-78" d="M 3513 3500 
L 2247 1797 
L 3578 0 
L 2900 0 
L 1881 1375 
L 863 0 
L 184 0 
L 1544 1831 
L 300 3500 
L 978 3500 
L 1906 2253 
L 2834 3500 
L 3513 3500 
z
" transform="scale(0.015625)"/>
       <path id="DejaVuSans-70" d="M 1159 525 
L 1159 -1331 
L 581 -1331 
L 581 3500 
L 1159 3500 
L 1159 2969 
Q 1341 3281 1617 3432 
Q 1894 3584 2278 3584 
Q 2916 3584 3314 3078 
Q 3713 2572 3713 1747 
Q 3713 922 3314 415 
Q 2916 -91 2278 -91 
Q 1894 -91 1617 61 
Q 1341 213 1159 525 
z
M 3116 1747 
Q 3116 2381 2855 2742 
Q 2594 3103 2138 3103 
Q 1681 3103 1420 2742 
Q 1159 2381 1159 1747 
Q 1159 1113 1420 752 
Q 1681 391 2138 391 
Q 2594 391 2855 752 
Q 3116 1113 3116 1747 
z
" transform="scale(0.015625)"/>
       <path id="DejaVuSans-6c" d="M 603 4863 
L 1178 4863 
L 1178 0 
L 603 0 
L 603 4863 
z
" transform="scale(0.015625)"/>
      </defs>
      <use xlink:href="#DejaVuSans-45"/>
      <use xlink:href="#DejaVuSans-78" x="63.183594"/>
      <use xlink:href="#DejaVuSans-70" x="122.363281"/>
      <use xlink:href="#DejaVuSans-65" x="185.839844"/>
      <use xlink:href="#DejaVuSans-72" x="247.363281"/>
      <use xlink:href="#DejaVuSans-69" x="288.476562"/>
      <use xlink:href="#DejaVuSans-6d" x="316.259766"/>
      <use xlink:href="#DejaVuSans-65" x="413.671875"/>
      <use xlink:href="#DejaVuSans-6e" x="475.195312"/>
      <use xlink:href="#DejaVuSans-74" x="538.574219"/>
      <use xlink:href="#DejaVuSans-61" x="577.783203"/>
      <use xlink:href="#DejaVuSans-6c" x="639.0625"/>
     </g>
    </g>
    <g id="line2d_19">
     <path d="M 448.824062 38.576562 
L 458.824062 38.576562 
L 468.824062 38.576562 
" style="fill: none; stroke: #ff7f0e; stroke-width: 1.5; stroke-linecap: square"/>
    </g>
    <g id="text_19">
     <!-- Calculated -->
     <g transform="translate(476.824062 42.076562) scale(0.1 -0.1)">
      <defs>
       <path id="DejaVuSans-43" d="M 4122 4306 
L 4122 3641 
Q 3803 3938 3442 4084 
Q 3081 4231 2675 4231 
Q 1875 4231 1450 3742 
Q 1025 3253 1025 2328 
Q 1025 1406 1450 917 
Q 1875 428 2675 428 
Q 3081 428 3442 575 
Q 3803 722 4122 1019 
L 4122 359 
Q 3791 134 3420 21 
Q 3050 -91 2638 -91 
Q 1578 -91 968 557 
Q 359 1206 359 2328 
Q 359 3453 968 4101 
Q 1578 4750 2638 4750 
Q 3056 4750 3426 4639 
Q 3797 4528 4122 4306 
z
" transform="scale(0.015625)"/>
       <path id="DejaVuSans-64" d="M 2906 2969 
L 2906 4863 
L 3481 4863 
L 3481 0 
L 2906 0 
L 2906 525 
Q 2725 213 2448 61 
Q 2172 -91 1784 -91 
Q 1150 -91 751 415 
Q 353 922 353 1747 
Q 353 2572 751 3078 
Q 1150 3584 1784 3584 
Q 2172 3584 2448 3432 
Q 2725 3281 2906 2969 
z
M 947 1747 
Q 947 1113 1208 752 
Q 1469 391 1925 391 
Q 2381 391 2643 752 
Q 2906 1113 2906 1747 
Q 2906 2381 2643 2742 
Q 2381 3103 1925 3103 
Q 1469 3103 1208 2742 
Q 947 2381 947 1747 
z
" transform="scale(0.015625)"/>
      </defs>
      <use xlink:href="#DejaVuSans-43"/>
      <use xlink:href="#DejaVuSans-61" x="69.824219"/>
      <use xlink:href="#DejaVuSans-6c" x="131.103516"/>
      <use xlink:href="#DejaVuSans-63" x="158.886719"/>
      <use xlink:href="#DejaVuSans-75" x="213.867188"/>
      <use xlink:href="#DejaVuSans-6c" x="277.246094"/>
      <use xlink:href="#DejaVuSans-61" x="305.029297"/>
      <use xlink:href="#DejaVuSans-74" x="366.308594"/>
      <use xlink:href="#DejaVuSans-65" x="405.517578"/>
      <use xlink:href="#DejaVuSans-64" x="467.041016"/>
     </g>
    </g>
   </g>
  </g>
 </g>
 <defs>
  <clipPath id="p247e22c74f">
   <rect x="47.765" y="10.8" width="504.745" height="235.24"/>
  </clipPath>
 </defs>
</svg>
