<?xml version="1.0" encoding="utf-8" standalone="no"?>
<!DOCTYPE svg PUBLIC "-//W3C//DTD SVG 1.1//EN"
  "http://www.w3.org/Graphics/SVG/1.1/DTD/svg11.dtd">
<svg xmlns:xlink="http://www.w3.org/1999/xlink" width="576pt" height="288pt" viewBox="0 0 576 288" xmlns="http://www.w3.org/2000/svg" version="1.1">
 <metadata>
  <rdf:RDF xmlns:dc="http://purl.org/dc/elements/1.1/" xmlns:cc="http://creativecommons.org/ns#" xmlns:rdf="http://www.w3.org/1999/02/22-rdf-syntax-ns#">
   <cc:Work>
    <dc:type rdf:resource="http://purl.org/dc/dcmitype/StillImage"/>
    <dc:date>2025-05-25T16:31:19.385557</dc:date>
    <dc:format>image/svg+xml</dc:format>
    <dc:creator>
     <cc:Agent>
      <dc:title>Matplotlib v3.9.4, https://matplotlib.org/</dc:title>
     </cc:Agent>
    </dc:creator>
   </cc:Work>
  </rdf:RDF>
 </metadata>
 <defs>
  <style type="text/css">*{stroke-linejoin: round; stroke-linecap: butt}</style>
 </defs>
 <g id="figure_1">
  <g id="patch_1">
   <path d="M 0 288 
L 576 288 
L 576 0 
L 0 0 
z
" style="fill: #ffffff"/>
  </g>
  <g id="axes_1">
   <g id="patch_2">
    <path d="M 51.005 246.04 
L 288.9675 246.04 
L 288.9675 10.8 
L 51.005 10.8 
z
" style="fill: #ffffff"/>
   </g>
   <g id="matplotlib.axis_1">
    <g id="xtick_1">
     <g id="line2d_1">
      <defs>
       <path id="m67083d6048" d="M 0 0 
L 0 3.5 
" style="stroke: #000000; stroke-width: 0.8"/>
      </defs>
      <g>
       <use xlink:href="#m67083d6048" x="61.821477" y="246.04" style="stroke: #000000; stroke-width: 0.8"/>
      </g>
     </g>
     <g id="text_1">
      <!-- 0 -->
      <g transform="translate(58.640227 260.638438) scale(0.1 -0.1)">
       <defs>
        <path id="DejaVuSans-30" d="M 2034 4250 
Q 1547 4250 1301 3770 
Q 1056 3291 1056 2328 
Q 1056 1369 1301 889 
Q 1547 409 2034 409 
Q 2525 409 2770 889 
Q 3016 1369 3016 2328 
Q 3016 3291 2770 3770 
Q 2525 4250 2034 4250 
z
M 2034 4750 
Q 2819 4750 3233 4129 
Q 3647 3509 3647 2328 
Q 3647 1150 3233 529 
Q 2819 -91 2034 -91 
Q 1250 -91 836 529 
Q 422 1150 422 2328 
Q 422 3509 836 4129 
Q 1250 4750 2034 4750 
z
" transform="scale(0.015625)"/>
       </defs>
       <use xlink:href="#DejaVuSans-30"/>
      </g>
     </g>
    </g>
    <g id="xtick_2">
     <g id="line2d_2">
      <g>
       <use xlink:href="#m67083d6048" x="118.750305" y="246.04" style="stroke: #000000; stroke-width: 0.8"/>
      </g>
     </g>
     <g id="text_2">
      <!-- 5 -->
      <g transform="translate(115.569055 260.638438) scale(0.1 -0.1)">
       <defs>
        <path id="DejaVuSans-35" d="M 691 4666 
L 3169 4666 
L 3169 4134 
L 1269 4134 
L 1269 2991 
Q 1406 3038 1543 3061 
Q 1681 3084 1819 3084 
Q 2600 3084 3056 2656 
Q 3513 2228 3513 1497 
Q 3513 744 3044 326 
Q 2575 -91 1722 -91 
Q 1428 -91 1123 -41 
Q 819 9 494 109 
L 494 744 
Q 775 591 1075 516 
Q 1375 441 1709 441 
Q 2250 441 2565 725 
Q 2881 1009 2881 1497 
Q 2881 1984 2565 2268 
Q 2250 2553 1709 2553 
Q 1456 2553 1204 2497 
Q 953 2441 691 2322 
L 691 4666 
z
" transform="scale(0.015625)"/>
       </defs>
       <use xlink:href="#DejaVuSans-35"/>
      </g>
     </g>
    </g>
    <g id="xtick_3">
     <g id="line2d_3">
      <g>
       <use xlink:href="#m67083d6048" x="175.679133" y="246.04" style="stroke: #000000; stroke-width: 0.8"/>
      </g>
     </g>
     <g id="text_3">
      <!-- 10 -->
      <g transform="translate(169.316633 260.638438) scale(0.1 -0.1)">
       <defs>
        <path id="DejaVuSans-31" d="M 794 531 
L 1825 531 
L 1825 4091 
L 703 3866 
L 703 4441 
L 1819 4666 
L 2450 4666 
L 2450 531 
L 3481 531 
L 3481 0 
L 794 0 
L 794 531 
z
" transform="scale(0.015625)"/>
       </defs>
       <use xlink:href="#DejaVuSans-31"/>
       <use xlink:href="#DejaVuSans-30" x="63.623047"/>
      </g>
     </g>
    </g>
    <g id="xtick_4">
     <g id="line2d_4">
      <g>
       <use xlink:href="#m67083d6048" x="232.607961" y="246.04" style="stroke: #000000; stroke-width: 0.8"/>
      </g>
     </g>
     <g id="text_4">
      <!-- 15 -->
      <g transform="translate(226.245461 260.638438) scale(0.1 -0.1)">
       <use xlink:href="#DejaVuSans-31"/>
       <use xlink:href="#DejaVuSans-35" x="63.623047"/>
      </g>
     </g>
    </g>
    <g id="text_5">
     <!-- state -->
     <g transform="translate(157.320625 274.316562) scale(0.1 -0.1)">
      <defs>
       <path id="DejaVuSans-73" d="M 2834 3397 
L 2834 2853 
Q 2591 2978 2328 3040 
Q 2066 3103 1784 3103 
Q 1356 3103 1142 2972 
Q 928 2841 928 2578 
Q 928 2378 1081 2264 
Q 1234 2150 1697 2047 
L 1894 2003 
Q 2506 1872 2764 1633 
Q 3022 1394 3022 966 
Q 3022 478 2636 193 
Q 2250 -91 1575 -91 
Q 1294 -91 989 -36 
Q 684 19 347 128 
L 347 722 
Q 666 556 975 473 
Q 1284 391 1588 391 
Q 1994 391 2212 530 
Q 2431 669 2431 922 
Q 2431 1156 2273 1281 
Q 2116 1406 1581 1522 
L 1381 1569 
Q 847 1681 609 1914 
Q 372 2147 372 2553 
Q 372 3047 722 3315 
Q 1072 3584 1716 3584 
Q 2034 3584 2315 3537 
Q 2597 3491 2834 3397 
z
" transform="scale(0.015625)"/>
       <path id="DejaVuSans-74" d="M 1172 4494 
L 1172 3500 
L 2356 3500 
L 2356 3053 
L 1172 3053 
L 1172 1153 
Q 1172 725 1289 603 
Q 1406 481 1766 481 
L 2356 481 
L 2356 0 
L 1766 0 
Q 1100 0 847 248 
Q 594 497 594 1153 
L 594 3053 
L 172 3053 
L 172 3500 
L 594 3500 
L 594 4494 
L 1172 4494 
z
" transform="scale(0.015625)"/>
       <path id="DejaVuSans-61" d="M 2194 1759 
Q 1497 1759 1228 1600 
Q 959 1441 959 1056 
Q 959 750 1161 570 
Q 1363 391 1709 391 
Q 2188 391 2477 730 
Q 2766 1069 2766 1631 
L 2766 1759 
L 2194 1759 
z
M 3341 1997 
L 3341 0 
L 2766 0 
L 2766 531 
Q 2569 213 2275 61 
Q 1981 -91 1556 -91 
Q 1019 -91 701 211 
Q 384 513 384 1019 
Q 384 1609 779 1909 
Q 1175 2209 1959 2209 
L 2766 2209 
L 2766 2266 
Q 2766 2663 2505 2880 
Q 2244 3097 1772 3097 
Q 1472 3097 1187 3025 
Q 903 2953 641 2809 
L 641 3341 
Q 956 3463 1253 3523 
Q 1550 3584 1831 3584 
Q 2591 3584 2966 3190 
Q 3341 2797 3341 1997 
z
" transform="scale(0.015625)"/>
       <path id="DejaVuSans-65" d="M 3597 1894 
L 3597 1613 
L 953 1613 
Q 991 1019 1311 708 
Q 1631 397 2203 397 
Q 2534 397 2845 478 
Q 3156 559 3463 722 
L 3463 178 
Q 3153 47 2828 -22 
Q 2503 -91 2169 -91 
Q 1331 -91 842 396 
Q 353 884 353 1716 
Q 353 2575 817 3079 
Q 1281 3584 2069 3584 
Q 2775 3584 3186 3129 
Q 3597 2675 3597 1894 
z
M 3022 2063 
Q 3016 2534 2758 2815 
Q 2500 3097 2075 3097 
Q 1594 3097 1305 2825 
Q 1016 2553 972 2059 
L 3022 2063 
z
" transform="scale(0.015625)"/>
      </defs>
      <use xlink:href="#DejaVuSans-73"/>
      <use xlink:href="#DejaVuSans-74" x="52.099609"/>
      <use xlink:href="#DejaVuSans-61" x="91.308594"/>
      <use xlink:href="#DejaVuSans-74" x="152.587891"/>
      <use xlink:href="#DejaVuSans-65" x="191.796875"/>
     </g>
    </g>
   </g>
   <g id="matplotlib.axis_2">
    <g id="ytick_1">
     <g id="line2d_5">
      <defs>
       <path id="m08291db062" d="M 0 0 
L -3.5 0 
" style="stroke: #000000; stroke-width: 0.8"/>
      </defs>
      <g>
       <use xlink:href="#m08291db062" x="51.005" y="235.347273" style="stroke: #000000; stroke-width: 0.8"/>
      </g>
     </g>
     <g id="text_6">
      <!-- 0 -->
      <g transform="translate(37.6425 239.146491) scale(0.1 -0.1)">
       <use xlink:href="#DejaVuSans-30"/>
      </g>
     </g>
    </g>
    <g id="ytick_2">
     <g id="line2d_6">
      <g>
       <use xlink:href="#m08291db062" x="51.005" y="200.44753" style="stroke: #000000; stroke-width: 0.8"/>
      </g>
     </g>
     <g id="text_7">
      <!-- 20 -->
      <g transform="translate(31.28 204.246749) scale(0.1 -0.1)">
       <defs>
        <path id="DejaVuSans-32" d="M 1228 531 
L 3431 531 
L 3431 0 
L 469 0 
L 469 531 
Q 828 903 1448 1529 
Q 2069 2156 2228 2338 
Q 2531 2678 2651 2914 
Q 2772 3150 2772 3378 
Q 2772 3750 2511 3984 
Q 2250 4219 1831 4219 
Q 1534 4219 1204 4116 
Q 875 4013 500 3803 
L 500 4441 
Q 881 4594 1212 4672 
Q 1544 4750 1819 4750 
Q 2544 4750 2975 4387 
Q 3406 4025 3406 3419 
Q 3406 3131 3298 2873 
Q 3191 2616 2906 2266 
Q 2828 2175 2409 1742 
Q 1991 1309 1228 531 
z
" transform="scale(0.015625)"/>
       </defs>
       <use xlink:href="#DejaVuSans-32"/>
       <use xlink:href="#DejaVuSans-30" x="63.623047"/>
      </g>
     </g>
    </g>
    <g id="ytick_3">
     <g id="line2d_7">
      <g>
       <use xlink:href="#m08291db062" x="51.005" y="165.547788" style="stroke: #000000; stroke-width: 0.8"/>
      </g>
     </g>
     <g id="text_8">
      <!-- 40 -->
      <g transform="translate(31.28 169.347007) scale(0.1 -0.1)">
       <defs>
        <path id="DejaVuSans-34" d="M 2419 4116 
L 825 1625 
L 2419 1625 
L 2419 4116 
z
M 2253 4666 
L 3047 4666 
L 3047 1625 
L 3713 1625 
L 3713 1100 
L 3047 1100 
L 3047 0 
L 2419 0 
L 2419 1100 
L 313 1100 
L 313 1709 
L 2253 4666 
z
" transform="scale(0.015625)"/>
       </defs>
       <use xlink:href="#DejaVuSans-34"/>
       <use xlink:href="#DejaVuSans-30" x="63.623047"/>
      </g>
     </g>
    </g>
    <g id="ytick_4">
     <g id="line2d_8">
      <g>
       <use xlink:href="#m08291db062" x="51.005" y="130.648045" style="stroke: #000000; stroke-width: 0.8"/>
      </g>
     </g>
     <g id="text_9">
      <!-- 60 -->
      <g transform="translate(31.28 134.447264) scale(0.1 -0.1)">
       <defs>
        <path id="DejaVuSans-36" d="M 2113 2584 
Q 1688 2584 1439 2293 
Q 1191 2003 1191 1497 
Q 1191 994 1439 701 
Q 1688 409 2113 409 
Q 2538 409 2786 701 
Q 3034 994 3034 1497 
Q 3034 2003 2786 2293 
Q 2538 2584 2113 2584 
z
M 3366 4563 
L 3366 3988 
Q 3128 4100 2886 4159 
Q 2644 4219 2406 4219 
Q 1781 4219 1451 3797 
Q 1122 3375 1075 2522 
Q 1259 2794 1537 2939 
Q 1816 3084 2150 3084 
Q 2853 3084 3261 2657 
Q 3669 2231 3669 1497 
Q 3669 778 3244 343 
Q 2819 -91 2113 -91 
Q 1303 -91 875 529 
Q 447 1150 447 2328 
Q 447 3434 972 4092 
Q 1497 4750 2381 4750 
Q 2619 4750 2861 4703 
Q 3103 4656 3366 4563 
z
" transform="scale(0.015625)"/>
       </defs>
       <use xlink:href="#DejaVuSans-36"/>
       <use xlink:href="#DejaVuSans-30" x="63.623047"/>
      </g>
     </g>
    </g>
    <g id="ytick_5">
     <g id="line2d_9">
      <g>
       <use xlink:href="#m08291db062" x="51.005" y="95.748303" style="stroke: #000000; stroke-width: 0.8"/>
      </g>
     </g>
     <g id="text_10">
      <!-- 80 -->
      <g transform="translate(31.28 99.547522) scale(0.1 -0.1)">
       <defs>
        <path id="DejaVuSans-38" d="M 2034 2216 
Q 1584 2216 1326 1975 
Q 1069 1734 1069 1313 
Q 1069 891 1326 650 
Q 1584 409 2034 409 
Q 2484 409 2743 651 
Q 3003 894 3003 1313 
Q 3003 1734 2745 1975 
Q 2488 2216 2034 2216 
z
M 1403 2484 
Q 997 2584 770 2862 
Q 544 3141 544 3541 
Q 544 4100 942 4425 
Q 1341 4750 2034 4750 
Q 2731 4750 3128 4425 
Q 3525 4100 3525 3541 
Q 3525 3141 3298 2862 
Q 3072 2584 2669 2484 
Q 3125 2378 3379 2068 
Q 3634 1759 3634 1313 
Q 3634 634 3220 271 
Q 2806 -91 2034 -91 
Q 1263 -91 848 271 
Q 434 634 434 1313 
Q 434 1759 690 2068 
Q 947 2378 1403 2484 
z
M 1172 3481 
Q 1172 3119 1398 2916 
Q 1625 2713 2034 2713 
Q 2441 2713 2670 2916 
Q 2900 3119 2900 3481 
Q 2900 3844 2670 4047 
Q 2441 4250 2034 4250 
Q 1625 4250 1398 4047 
Q 1172 3844 1172 3481 
z
" transform="scale(0.015625)"/>
       </defs>
       <use xlink:href="#DejaVuSans-38"/>
       <use xlink:href="#DejaVuSans-30" x="63.623047"/>
      </g>
     </g>
    </g>
    <g id="ytick_6">
     <g id="line2d_10">
      <g>
       <use xlink:href="#m08291db062" x="51.005" y="60.848561" style="stroke: #000000; stroke-width: 0.8"/>
      </g>
     </g>
     <g id="text_11">
      <!-- 100 -->
      <g transform="translate(24.9175 64.647779) scale(0.1 -0.1)">
       <use xlink:href="#DejaVuSans-31"/>
       <use xlink:href="#DejaVuSans-30" x="63.623047"/>
       <use xlink:href="#DejaVuSans-30" x="127.246094"/>
      </g>
     </g>
    </g>
    <g id="ytick_7">
     <g id="line2d_11">
      <g>
       <use xlink:href="#m08291db062" x="51.005" y="25.948818" style="stroke: #000000; stroke-width: 0.8"/>
      </g>
     </g>
     <g id="text_12">
      <!-- 120 -->
      <g transform="translate(24.9175 29.748037) scale(0.1 -0.1)">
       <use xlink:href="#DejaVuSans-31"/>
       <use xlink:href="#DejaVuSans-32" x="63.623047"/>
       <use xlink:href="#DejaVuSans-30" x="127.246094"/>
      </g>
     </g>
    </g>
    <g id="text_13">
     <!-- energy -->
     <g transform="translate(18.837812 145.843438) rotate(-90) scale(0.1 -0.1)">
      <defs>
       <path id="DejaVuSans-6e" d="M 3513 2113 
L 3513 0 
L 2938 0 
L 2938 2094 
Q 2938 2591 2744 2837 
Q 2550 3084 2163 3084 
Q 1697 3084 1428 2787 
Q 1159 2491 1159 1978 
L 1159 0 
L 581 0 
L 581 3500 
L 1159 3500 
L 1159 2956 
Q 1366 3272 1645 3428 
Q 1925 3584 2291 3584 
Q 2894 3584 3203 3211 
Q 3513 2838 3513 2113 
z
" transform="scale(0.015625)"/>
       <path id="DejaVuSans-72" d="M 2631 2963 
Q 2534 3019 2420 3045 
Q 2306 3072 2169 3072 
Q 1681 3072 1420 2755 
Q 1159 2438 1159 1844 
L 1159 0 
L 581 0 
L 581 3500 
L 1159 3500 
L 1159 2956 
Q 1341 3275 1631 3429 
Q 1922 3584 2338 3584 
Q 2397 3584 2469 3576 
Q 2541 3569 2628 3553 
L 2631 2963 
z
" transform="scale(0.015625)"/>
       <path id="DejaVuSans-67" d="M 2906 1791 
Q 2906 2416 2648 2759 
Q 2391 3103 1925 3103 
Q 1463 3103 1205 2759 
Q 947 2416 947 1791 
Q 947 1169 1205 825 
Q 1463 481 1925 481 
Q 2391 481 2648 825 
Q 2906 1169 2906 1791 
z
M 3481 434 
Q 3481 -459 3084 -895 
Q 2688 -1331 1869 -1331 
Q 1566 -1331 1297 -1286 
Q 1028 -1241 775 -1147 
L 775 -588 
Q 1028 -725 1275 -790 
Q 1522 -856 1778 -856 
Q 2344 -856 2625 -561 
Q 2906 -266 2906 331 
L 2906 616 
Q 2728 306 2450 153 
Q 2172 0 1784 0 
Q 1141 0 747 490 
Q 353 981 353 1791 
Q 353 2603 747 3093 
Q 1141 3584 1784 3584 
Q 2172 3584 2450 3431 
Q 2728 3278 2906 2969 
L 2906 3500 
L 3481 3500 
L 3481 434 
z
" transform="scale(0.015625)"/>
       <path id="DejaVuSans-79" d="M 2059 -325 
Q 1816 -950 1584 -1140 
Q 1353 -1331 966 -1331 
L 506 -1331 
L 506 -850 
L 844 -850 
Q 1081 -850 1212 -737 
Q 1344 -625 1503 -206 
L 1606 56 
L 191 3500 
L 800 3500 
L 1894 763 
L 2988 3500 
L 3597 3500 
L 2059 -325 
z
" transform="scale(0.015625)"/>
      </defs>
      <use xlink:href="#DejaVuSans-65"/>
      <use xlink:href="#DejaVuSans-6e" x="61.523438"/>
      <use xlink:href="#DejaVuSans-65" x="124.902344"/>
      <use xlink:href="#DejaVuSans-72" x="186.425781"/>
      <use xlink:href="#DejaVuSans-67" x="225.789062"/>
      <use xlink:href="#DejaVuSans-79" x="289.265625"/>
     </g>
    </g>
   </g>
   <g id="line2d_12">
    <defs>
     <path id="m35496c8a63" d="M 0 3 
C 0.795609 3 1.55874 2.683901 2.12132 2.12132 
C 2.683901 1.55874 3 0.795609 3 0 
C 3 -0.795609 2.683901 -1.55874 2.12132 -2.12132 
C 1.55874 -2.683901 0.795609 -3 0 -3 
C -0.795609 -3 -1.55874 -2.683901 -2.12132 -2.12132 
C -2.683901 -1.55874 -3 -0.795609 -3 0 
C -3 0.795609 -2.683901 1.55874 -2.12132 2.12132 
C -1.55874 2.683901 -0.795609 3 0 3 
z
" style="stroke: #1f77b4"/>
    </defs>
    <g clip-path="url(#p8b8d818e7f)">
     <use xlink:href="#m35496c8a63" x="61.821477" y="234.81159" style="fill: #1f77b4; stroke: #1f77b4"/>
     <use xlink:href="#m35496c8a63" x="73.207243" y="233.204573" style="fill: #1f77b4; stroke: #1f77b4"/>
     <use xlink:href="#m35496c8a63" x="84.593008" y="230.526316" style="fill: #1f77b4; stroke: #1f77b4"/>
     <use xlink:href="#m35496c8a63" x="95.978774" y="226.776978" style="fill: #1f77b4; stroke: #1f77b4"/>
     <use xlink:href="#m35496c8a63" x="107.364539" y="221.956777" style="fill: #1f77b4; stroke: #1f77b4"/>
     <use xlink:href="#m35496c8a63" x="118.750305" y="216.065998" style="fill: #1f77b4; stroke: #1f77b4"/>
     <use xlink:href="#m35496c8a63" x="130.136071" y="209.104987" style="fill: #1f77b4; stroke: #1f77b4"/>
     <use xlink:href="#m35496c8a63" x="141.521836" y="201.074154" style="fill: #1f77b4; stroke: #1f77b4"/>
     <use xlink:href="#m35496c8a63" x="152.907602" y="191.97397" style="fill: #1f77b4; stroke: #1f77b4"/>
     <use xlink:href="#m35496c8a63" x="164.293367" y="181.80497" style="fill: #1f77b4; stroke: #1f77b4"/>
     <use xlink:href="#m35496c8a63" x="175.679133" y="170.567754" style="fill: #1f77b4; stroke: #1f77b4"/>
     <use xlink:href="#m35496c8a63" x="187.064898" y="158.26298" style="fill: #1f77b4; stroke: #1f77b4"/>
     <use xlink:href="#m35496c8a63" x="198.450664" y="144.891373" style="fill: #1f77b4; stroke: #1f77b4"/>
     <use xlink:href="#m35496c8a63" x="209.836429" y="130.453719" style="fill: #1f77b4; stroke: #1f77b4"/>
     <use xlink:href="#m35496c8a63" x="221.222195" y="114.950867" style="fill: #1f77b4; stroke: #1f77b4"/>
     <use xlink:href="#m35496c8a63" x="232.607961" y="98.383728" style="fill: #1f77b4; stroke: #1f77b4"/>
     <use xlink:href="#m35496c8a63" x="243.993726" y="80.753277" style="fill: #1f77b4; stroke: #1f77b4"/>
     <use xlink:href="#m35496c8a63" x="255.379492" y="62.06055" style="fill: #1f77b4; stroke: #1f77b4"/>
     <use xlink:href="#m35496c8a63" x="266.765257" y="42.306646" style="fill: #1f77b4; stroke: #1f77b4"/>
     <use xlink:href="#m35496c8a63" x="278.151023" y="21.492727" style="fill: #1f77b4; stroke: #1f77b4"/>
    </g>
   </g>
   <g id="line2d_13">
    <path d="M 61.821477 235.347273 
L 73.207243 234.809075 
L 84.593008 233.194481 
L 95.978774 230.503492 
L 107.364539 226.736106 
L 118.750305 221.892325 
L 130.136071 215.972149 
L 141.521836 208.975576 
L 152.907602 200.902608 
L 164.293367 191.753243 
L 175.679133 181.527483 
L 187.064898 170.225328 
L 198.450664 157.846776 
L 209.836429 144.391829 
L 221.222195 129.860486 
L 232.607961 114.252747 
L 243.993726 97.568612 
L 255.379492 79.808082 
L 266.765257 60.971155 
L 278.151023 41.057833 
" clip-path="url(#p8b8d818e7f)" style="fill: none; stroke: #ff7f0e; stroke-width: 1.5; stroke-linecap: square"/>
   </g>
   <g id="patch_3">
    <path d="M 51.005 246.04 
L 51.005 10.8 
" style="fill: none; stroke: #000000; stroke-width: 0.8; stroke-linejoin: miter; stroke-linecap: square"/>
   </g>
   <g id="patch_4">
    <path d="M 288.9675 246.04 
L 288.9675 10.8 
" style="fill: none; stroke: #000000; stroke-width: 0.8; stroke-linejoin: miter; stroke-linecap: square"/>
   </g>
   <g id="patch_5">
    <path d="M 51.005 246.04 
L 288.9675 246.04 
" style="fill: none; stroke: #000000; stroke-width: 0.8; stroke-linejoin: miter; stroke-linecap: square"/>
   </g>
   <g id="patch_6">
    <path d="M 51.005 10.8 
L 288.9675 10.8 
" style="fill: none; stroke: #000000; stroke-width: 0.8; stroke-linejoin: miter; stroke-linecap: square"/>
   </g>
   <g id="legend_1">
    <g id="patch_7">
     <path d="M 58.005 48.15625 
L 213.884687 48.15625 
Q 215.884687 48.15625 215.884687 46.15625 
L 215.884687 17.8 
Q 215.884687 15.8 213.884687 15.8 
L 58.005 15.8 
Q 56.005 15.8 56.005 17.8 
L 56.005 46.15625 
Q 56.005 48.15625 58.005 48.15625 
z
" style="fill: #ffffff; opacity: 0.8; stroke: #cccccc; stroke-linejoin: miter"/>
    </g>
    <g id="line2d_14">
     <g>
      <use xlink:href="#m35496c8a63" x="70.005" y="23.898438" style="fill: #1f77b4; stroke: #1f77b4"/>
     </g>
    </g>
    <g id="text_14">
     <!-- numerical eigenenergies -->
     <g transform="translate(88.005 27.398438) scale(0.1 -0.1)">
      <defs>
       <path id="DejaVuSans-75" d="M 544 1381 
L 544 3500 
L 1119 3500 
L 1119 1403 
Q 1119 906 1312 657 
Q 1506 409 1894 409 
Q 2359 409 2629 706 
Q 2900 1003 2900 1516 
L 2900 3500 
L 3475 3500 
L 3475 0 
L 2900 0 
L 2900 538 
Q 2691 219 2414 64 
Q 2138 -91 1772 -91 
Q 1169 -91 856 284 
Q 544 659 544 1381 
z
M 1991 3584 
L 1991 3584 
z
" transform="scale(0.015625)"/>
       <path id="DejaVuSans-6d" d="M 3328 2828 
Q 3544 3216 3844 3400 
Q 4144 3584 4550 3584 
Q 5097 3584 5394 3201 
Q 5691 2819 5691 2113 
L 5691 0 
L 5113 0 
L 5113 2094 
Q 5113 2597 4934 2840 
Q 4756 3084 4391 3084 
Q 3944 3084 3684 2787 
Q 3425 2491 3425 1978 
L 3425 0 
L 2847 0 
L 2847 2094 
Q 2847 2600 2669 2842 
Q 2491 3084 2119 3084 
Q 1678 3084 1418 2786 
Q 1159 2488 1159 1978 
L 1159 0 
L 581 0 
L 581 3500 
L 1159 3500 
L 1159 2956 
Q 1356 3278 1631 3431 
Q 1906 3584 2284 3584 
Q 2666 3584 2933 3390 
Q 3200 3197 3328 2828 
z
" transform="scale(0.015625)"/>
       <path id="DejaVuSans-69" d="M 603 3500 
L 1178 3500 
L 1178 0 
L 603 0 
L 603 3500 
z
M 603 4863 
L 1178 4863 
L 1178 4134 
L 603 4134 
L 603 4863 
z
" transform="scale(0.015625)"/>
       <path id="DejaVuSans-63" d="M 3122 3366 
L 3122 2828 
Q 2878 2963 2633 3030 
Q 2388 3097 2138 3097 
Q 1578 3097 1268 2742 
Q 959 2388 959 1747 
Q 959 1106 1268 751 
Q 1578 397 2138 397 
Q 2388 397 2633 464 
Q 2878 531 3122 666 
L 3122 134 
Q 2881 22 2623 -34 
Q 2366 -91 2075 -91 
Q 1284 -91 818 406 
Q 353 903 353 1747 
Q 353 2603 823 3093 
Q 1294 3584 2113 3584 
Q 2378 3584 2631 3529 
Q 2884 3475 3122 3366 
z
" transform="scale(0.015625)"/>
       <path id="DejaVuSans-6c" d="M 603 4863 
L 1178 4863 
L 1178 0 
L 603 0 
L 603 4863 
z
" transform="scale(0.015625)"/>
       <path id="DejaVuSans-20" transform="scale(0.015625)"/>
      </defs>
      <use xlink:href="#DejaVuSans-6e"/>
      <use xlink:href="#DejaVuSans-75" x="63.378906"/>
      <use xlink:href="#DejaVuSans-6d" x="126.757812"/>
      <use xlink:href="#DejaVuSans-65" x="224.169922"/>
      <use xlink:href="#DejaVuSans-72" x="285.693359"/>
      <use xlink:href="#DejaVuSans-69" x="326.806641"/>
      <use xlink:href="#DejaVuSans-63" x="354.589844"/>
      <use xlink:href="#DejaVuSans-61" x="409.570312"/>
      <use xlink:href="#DejaVuSans-6c" x="470.849609"/>
      <use xlink:href="#DejaVuSans-20" x="498.632812"/>
      <use xlink:href="#DejaVuSans-65" x="530.419922"/>
      <use xlink:href="#DejaVuSans-69" x="591.943359"/>
      <use xlink:href="#DejaVuSans-67" x="619.726562"/>
      <use xlink:href="#DejaVuSans-65" x="683.203125"/>
      <use xlink:href="#DejaVuSans-6e" x="744.726562"/>
      <use xlink:href="#DejaVuSans-65" x="808.105469"/>
      <use xlink:href="#DejaVuSans-6e" x="869.628906"/>
      <use xlink:href="#DejaVuSans-65" x="933.007812"/>
      <use xlink:href="#DejaVuSans-72" x="994.53125"/>
      <use xlink:href="#DejaVuSans-67" x="1033.894531"/>
      <use xlink:href="#DejaVuSans-69" x="1097.371094"/>
      <use xlink:href="#DejaVuSans-65" x="1125.154297"/>
      <use xlink:href="#DejaVuSans-73" x="1186.677734"/>
     </g>
    </g>
    <g id="line2d_15">
     <path d="M 60.005 38.576562 
L 70.005 38.576562 
L 80.005 38.576562 
" style="fill: none; stroke: #ff7f0e; stroke-width: 1.5; stroke-linecap: square"/>
    </g>
    <g id="text_15">
     <!-- analytical eigenenergies -->
     <g transform="translate(88.005 42.076562) scale(0.1 -0.1)">
      <use xlink:href="#DejaVuSans-61"/>
      <use xlink:href="#DejaVuSans-6e" x="61.279297"/>
      <use xlink:href="#DejaVuSans-61" x="124.658203"/>
      <use xlink:href="#DejaVuSans-6c" x="185.9375"/>
      <use xlink:href="#DejaVuSans-79" x="213.720703"/>
      <use xlink:href="#DejaVuSans-74" x="272.900391"/>
      <use xlink:href="#DejaVuSans-69" x="312.109375"/>
      <use xlink:href="#DejaVuSans-63" x="339.892578"/>
      <use xlink:href="#DejaVuSans-61" x="394.873047"/>
      <use xlink:href="#DejaVuSans-6c" x="456.152344"/>
      <use xlink:href="#DejaVuSans-20" x="483.935547"/>
      <use xlink:href="#DejaVuSans-65" x="515.722656"/>
      <use xlink:href="#DejaVuSans-69" x="577.246094"/>
      <use xlink:href="#DejaVuSans-67" x="605.029297"/>
      <use xlink:href="#DejaVuSans-65" x="668.505859"/>
      <use xlink:href="#DejaVuSans-6e" x="730.029297"/>
      <use xlink:href="#DejaVuSans-65" x="793.408203"/>
      <use xlink:href="#DejaVuSans-6e" x="854.931641"/>
      <use xlink:href="#DejaVuSans-65" x="918.310547"/>
      <use xlink:href="#DejaVuSans-72" x="979.833984"/>
      <use xlink:href="#DejaVuSans-67" x="1019.197266"/>
      <use xlink:href="#DejaVuSans-69" x="1082.673828"/>
      <use xlink:href="#DejaVuSans-65" x="1110.457031"/>
      <use xlink:href="#DejaVuSans-73" x="1171.980469"/>
     </g>
    </g>
   </g>
  </g>
  <g id="axes_2">
   <g id="patch_8">
    <path d="M 327.2375 246.04 
L 565.2 246.04 
L 565.2 10.8 
L 327.2375 10.8 
z
" style="fill: #ffffff"/>
   </g>
   <g id="matplotlib.axis_3">
    <g id="xtick_5">
     <g id="line2d_16">
      <g>
       <use xlink:href="#m67083d6048" x="351.03375" y="246.04" style="stroke: #000000; stroke-width: 0.8"/>
      </g>
     </g>
     <g id="text_16">
      <!-- 0 -->
      <g transform="translate(347.8525 260.638438) scale(0.1 -0.1)">
       <use xlink:href="#DejaVuSans-30"/>
      </g>
     </g>
    </g>
    <g id="xtick_6">
     <g id="line2d_17">
      <g>
       <use xlink:href="#m67083d6048" x="398.62625" y="246.04" style="stroke: #000000; stroke-width: 0.8"/>
      </g>
     </g>
     <g id="text_17">
      <!-- 1 -->
      <g transform="translate(395.445 260.638438) scale(0.1 -0.1)">
       <use xlink:href="#DejaVuSans-31"/>
      </g>
     </g>
    </g>
    <g id="xtick_7">
     <g id="line2d_18">
      <g>
       <use xlink:href="#m67083d6048" x="446.21875" y="246.04" style="stroke: #000000; stroke-width: 0.8"/>
      </g>
     </g>
     <g id="text_18">
      <!-- 2 -->
      <g transform="translate(443.0375 260.638438) scale(0.1 -0.1)">
       <use xlink:href="#DejaVuSans-32"/>
      </g>
     </g>
    </g>
    <g id="xtick_8">
     <g id="line2d_19">
      <g>
       <use xlink:href="#m67083d6048" x="493.81125" y="246.04" style="stroke: #000000; stroke-width: 0.8"/>
      </g>
     </g>
     <g id="text_19">
      <!-- 3 -->
      <g transform="translate(490.63 260.638438) scale(0.1 -0.1)">
       <defs>
        <path id="DejaVuSans-33" d="M 2597 2516 
Q 3050 2419 3304 2112 
Q 3559 1806 3559 1356 
Q 3559 666 3084 287 
Q 2609 -91 1734 -91 
Q 1441 -91 1130 -33 
Q 819 25 488 141 
L 488 750 
Q 750 597 1062 519 
Q 1375 441 1716 441 
Q 2309 441 2620 675 
Q 2931 909 2931 1356 
Q 2931 1769 2642 2001 
Q 2353 2234 1838 2234 
L 1294 2234 
L 1294 2753 
L 1863 2753 
Q 2328 2753 2575 2939 
Q 2822 3125 2822 3475 
Q 2822 3834 2567 4026 
Q 2313 4219 1838 4219 
Q 1578 4219 1281 4162 
Q 984 4106 628 3988 
L 628 4550 
Q 988 4650 1302 4700 
Q 1616 4750 1894 4750 
Q 2613 4750 3031 4423 
Q 3450 4097 3450 3541 
Q 3450 3153 3228 2886 
Q 3006 2619 2597 2516 
z
" transform="scale(0.015625)"/>
       </defs>
       <use xlink:href="#DejaVuSans-33"/>
      </g>
     </g>
    </g>
    <g id="xtick_9">
     <g id="line2d_20">
      <g>
       <use xlink:href="#m67083d6048" x="541.40375" y="246.04" style="stroke: #000000; stroke-width: 0.8"/>
      </g>
     </g>
     <g id="text_20">
      <!-- 4 -->
      <g transform="translate(538.2225 260.638438) scale(0.1 -0.1)">
       <use xlink:href="#DejaVuSans-34"/>
      </g>
     </g>
    </g>
    <g id="text_21">
     <!-- x -->
     <g transform="translate(443.259375 274.316562) scale(0.1 -0.1)">
      <defs>
       <path id="DejaVuSans-78" d="M 3513 3500 
L 2247 1797 
L 3578 0 
L 2900 0 
L 1881 1375 
L 863 0 
L 184 0 
L 1544 1831 
L 300 3500 
L 978 3500 
L 1906 2253 
L 2834 3500 
L 3513 3500 
z
" transform="scale(0.015625)"/>
      </defs>
      <use xlink:href="#DejaVuSans-78"/>
     </g>
    </g>
   </g>
   <g id="matplotlib.axis_4">
    <g id="ytick_8">
     <g id="line2d_21">
      <g>
       <use xlink:href="#m08291db062" x="327.2375" y="234.278" style="stroke: #000000; stroke-width: 0.8"/>
      </g>
     </g>
     <g id="text_22">
      <!-- 0 -->
      <g transform="translate(313.875 238.077219) scale(0.1 -0.1)">
       <use xlink:href="#DejaVuSans-30"/>
      </g>
     </g>
    </g>
    <g id="ytick_9">
     <g id="line2d_22">
      <g>
       <use xlink:href="#m08291db062" x="327.2375" y="187.23" style="stroke: #000000; stroke-width: 0.8"/>
      </g>
     </g>
     <g id="text_23">
      <!-- 2 -->
      <g transform="translate(313.875 191.029219) scale(0.1 -0.1)">
       <use xlink:href="#DejaVuSans-32"/>
      </g>
     </g>
    </g>
    <g id="ytick_10">
     <g id="line2d_23">
      <g>
       <use xlink:href="#m08291db062" x="327.2375" y="140.182" style="stroke: #000000; stroke-width: 0.8"/>
      </g>
     </g>
     <g id="text_24">
      <!-- 4 -->
      <g transform="translate(313.875 143.981219) scale(0.1 -0.1)">
       <use xlink:href="#DejaVuSans-34"/>
      </g>
     </g>
    </g>
    <g id="ytick_11">
     <g id="line2d_24">
      <g>
       <use xlink:href="#m08291db062" x="327.2375" y="93.134" style="stroke: #000000; stroke-width: 0.8"/>
      </g>
     </g>
     <g id="text_25">
      <!-- 6 -->
      <g transform="translate(313.875 96.933219) scale(0.1 -0.1)">
       <use xlink:href="#DejaVuSans-36"/>
      </g>
     </g>
    </g>
    <g id="ytick_12">
     <g id="line2d_25">
      <g>
       <use xlink:href="#m08291db062" x="327.2375" y="46.086" style="stroke: #000000; stroke-width: 0.8"/>
      </g>
     </g>
     <g id="text_26">
      <!-- 8 -->
      <g transform="translate(313.875 49.885219) scale(0.1 -0.1)">
       <use xlink:href="#DejaVuSans-38"/>
      </g>
     </g>
    </g>
    <g id="text_27">
     <!-- energy -->
     <g transform="translate(307.795313 145.843438) rotate(-90) scale(0.1 -0.1)">
      <use xlink:href="#DejaVuSans-65"/>
      <use xlink:href="#DejaVuSans-6e" x="61.523438"/>
      <use xlink:href="#DejaVuSans-65" x="124.902344"/>
      <use xlink:href="#DejaVuSans-72" x="186.425781"/>
      <use xlink:href="#DejaVuSans-67" x="225.789062"/>
      <use xlink:href="#DejaVuSans-79" x="289.265625"/>
     </g>
    </g>
   </g>
   <g id="line2d_26">
    <path d="M 351.452396 -1 
L 351.452862 234.278 
L 540.984638 234.278 
L 540.985104 -1 
L 540.985104 -1 
" clip-path="url(#p9a6b3a00ea)" style="fill: none; stroke: #000000; stroke-width: 2; stroke-linecap: square"/>
   </g>
   <g id="line2d_27">
    <path d="M 327.2375 227.056513 
L 350.987182 227.104762 
L 371.477104 232.601161 
L 382.653425 235.373248 
L 392.432705 237.571463 
L 401.280626 239.327378 
L 409.197187 240.679121 
L 417.113748 241.799769 
L 424.564628 242.626313 
L 432.015509 243.218853 
L 439.000709 243.553865 
L 445.98591 243.670923 
L 452.971111 243.568482 
L 459.956311 243.247894 
L 466.941512 242.713395 
L 474.392392 241.915493 
L 481.843273 240.894269 
L 489.759834 239.581749 
L 498.142074 237.960963 
L 506.989995 236.025865 
L 517.234956 233.550774 
L 529.808317 230.268973 
L 541.915998 227.069768 
L 547.504159 227.056513 
L 565.2 227.056513 
L 565.2 227.056513 
" clip-path="url(#p9a6b3a00ea)" style="fill: none; stroke: #1f77b4; stroke-width: 1.5; stroke-linecap: square"/>
   </g>
   <g id="line2d_28">
    <path d="M 327.2375 205.392475 
L 350.987182 205.488973 
L 361.697823 211.221829 
L 367.285983 213.970131 
L 372.408464 216.237097 
L 376.599584 217.865576 
L 380.790705 219.256877 
L 384.516145 220.272978 
L 388.241585 221.065435 
L 391.967025 221.622336 
L 395.692466 221.935313 
L 399.417906 221.999661 
L 403.143346 221.814414 
L 406.868787 221.382354 
L 410.594227 220.709977 
L 414.319667 219.807387 
L 418.045108 218.68815 
L 422.236228 217.191111 
L 426.893028 215.265987 
L 432.015509 212.882645 
L 438.069349 209.797561 
L 447.38295 204.755716 
L 457.162231 199.534209 
L 462.750391 196.788383 
L 467.872872 194.524473 
L 472.063992 192.898992 
L 476.255113 191.511077 
L 479.980553 190.498259 
L 483.705993 189.709292 
L 487.431433 189.156034 
L 491.156874 188.846799 
L 494.882314 188.786235 
L 498.607754 188.975253 
L 502.333195 189.411011 
L 506.058635 190.086961 
L 509.784075 190.992944 
L 513.509516 192.115342 
L 517.700636 193.615603 
L 522.357436 195.543818 
L 527.479917 197.929885 
L 533.533757 201.017175 
L 541.915998 205.365963 
L 545.175758 205.392471 
L 565.2 205.392475 
L 565.2 205.392475 
" clip-path="url(#p9a6b3a00ea)" style="fill: none; stroke: #ff7f0e; stroke-width: 1.5; stroke-linecap: square"/>
   </g>
   <g id="line2d_29">
    <path d="M 327.2375 169.28716 
L 350.521502 169.24739 
L 350.987182 169.142414 
L 357.972383 163.531974 
L 362.163503 160.451435 
L 365.423263 158.310087 
L 368.683023 156.452684 
L 371.477104 155.123264 
L 374.271184 154.063175 
L 376.599584 153.40021 
L 378.927984 152.947136 
L 381.256385 152.709936 
L 383.584785 152.691745 
L 385.913185 152.892803 
L 388.241585 153.310453 
L 390.569985 153.939179 
L 392.898386 154.770674 
L 395.692466 156.020474 
L 398.486546 157.522544 
L 401.746306 159.555451 
L 405.471747 162.183639 
L 410.128547 165.794929 
L 424.564628 177.2709 
L 428.290068 179.802111 
L 431.549829 181.728336 
L 434.343909 183.124917 
L 437.137989 184.25837 
L 439.466389 184.986204 
L 441.79479 185.506631 
L 444.12319 185.812776 
L 446.45159 185.900594 
L 448.77999 185.768925 
L 451.10839 185.419509 
L 453.436791 184.856961 
L 455.765191 184.088713 
L 458.559271 182.909768 
L 461.353351 181.471786 
L 464.613112 179.503476 
L 467.872872 177.2709 
L 472.063992 174.105716 
L 478.117833 169.208027 
L 485.568713 163.2361 
L 489.759834 160.184993 
L 493.019594 158.074485 
L 495.813674 156.494451 
L 498.607754 155.157673 
L 501.401835 154.08957 
L 503.730235 153.419539 
L 506.058635 152.959141 
L 508.387035 152.71446 
L 510.715435 152.688727 
L 513.043836 152.882284 
L 515.372236 153.292572 
L 517.700636 153.914172 
L 520.029036 154.738871 
L 522.823116 155.981078 
L 525.617197 157.476304 
L 528.876957 159.502347 
L 532.602397 162.12438 
L 536.793518 165.35849 
L 541.450318 169.142414 
L 542.381678 169.276233 
L 549.366879 169.28716 
L 565.2 169.28716 
L 565.2 169.28716 
" clip-path="url(#p9a6b3a00ea)" style="fill: none; stroke: #2ca02c; stroke-width: 1.5; stroke-linecap: square"/>
   </g>
   <g id="line2d_30">
    <path d="M 327.2375 118.742692 
L 350.521502 118.689658 
L 350.987182 118.549698 
L 356.575342 112.58573 
L 359.835103 109.439669 
L 362.629183 107.077991 
L 364.957583 105.407772 
L 367.285983 104.050482 
L 369.148704 103.21163 
L 371.011424 102.606199 
L 372.874144 102.24329 
L 374.736864 102.128357 
L 376.599584 102.263127 
L 378.462304 102.645575 
L 380.325024 103.269952 
L 382.187745 104.126875 
L 384.050465 105.203465 
L 386.378865 106.833163 
L 388.707265 108.742341 
L 391.501345 111.338783 
L 394.761106 114.677259 
L 406.868787 127.429189 
L 409.662867 129.873936 
L 411.991267 131.627275 
L 414.319667 133.078254 
L 416.182387 133.998196 
L 418.045108 134.688857 
L 419.907828 135.139858 
L 421.770548 135.344419 
L 423.633268 135.299467 
L 425.495988 135.005676 
L 427.358708 134.467463 
L 429.221429 133.692916 
L 431.084149 132.693677 
L 433.412549 131.151836 
L 435.740949 129.318792 
L 438.535029 126.795739 
L 441.79479 123.515052 
L 446.91727 117.978664 
L 452.03975 112.528403 
L 455.299511 109.388556 
L 458.093591 107.034087 
L 460.421991 105.37102 
L 462.750391 104.021743 
L 464.613112 103.189797 
L 466.475832 102.5916 
L 468.338552 102.236145 
L 470.201272 102.128773 
L 472.063992 102.271098 
L 473.926712 102.660981 
L 475.789432 103.292562 
L 477.652153 104.156348 
L 479.514873 105.239359 
L 481.843273 106.876314 
L 484.171673 108.791735 
L 486.965753 111.39413 
L 490.225514 114.737177 
L 502.333195 127.481782 
L 505.127275 129.919714 
L 507.455675 131.666183 
L 509.784075 133.109378 
L 511.646795 134.022558 
L 513.509516 134.70609 
L 515.372236 135.149703 
L 517.234956 135.346729 
L 519.097676 135.294206 
L 520.960396 134.992924 
L 522.823116 134.447412 
L 524.685837 133.665867 
L 526.548557 132.660036 
L 528.876957 131.110678 
L 531.205357 129.271082 
L 533.999437 126.741657 
L 537.259198 123.455854 
L 541.450318 118.935685 
L 542.381678 118.757265 
L 547.504159 118.742692 
L 565.2 118.742692 
L 565.2 118.742692 
" clip-path="url(#p9a6b3a00ea)" style="fill: none; stroke: #d62728; stroke-width: 1.5; stroke-linecap: square"/>
   </g>
   <g id="line2d_31">
    <path d="M 327.2375 53.762042 
L 350.521502 53.828343 
L 350.987182 54.003281 
L 355.643982 60.199406 
L 358.438063 63.521879 
L 360.766463 65.904592 
L 362.629183 67.494215 
L 364.491903 68.761587 
L 365.888943 69.482443 
L 367.285983 69.99561 
L 368.683023 70.294308 
L 370.080064 70.374591 
L 371.477104 70.2354 
L 372.874144 69.878571 
L 374.271184 69.30882 
L 375.668224 68.533674 
L 377.530944 67.198718 
L 379.393664 65.548445 
L 381.256385 63.621582 
L 383.584785 60.893469 
L 386.844545 56.659589 
L 394.761106 46.142952 
L 397.089506 43.469799 
L 398.952226 41.598433 
L 400.814946 40.012507 
L 402.677666 38.74924 
L 404.074706 38.031673 
L 405.471747 37.521926 
L 406.868787 37.226735 
L 408.265827 37.149998 
L 409.662867 37.29273 
L 411.059907 37.653045 
L 412.456947 38.226183 
L 413.853987 39.004572 
L 415.716707 40.343554 
L 417.579428 41.997426 
L 419.442148 43.927376 
L 421.770548 46.658521 
L 425.030308 50.89491 
L 432.946869 61.408563 
L 435.275269 64.078511 
L 437.137989 65.946668 
L 439.000709 67.52889 
L 440.86343 68.788048 
L 442.26047 69.502324 
L 443.65751 70.008649 
L 445.05455 70.300333 
L 446.45159 70.373522 
L 447.84863 70.227251 
L 449.24567 69.86345 
L 450.64271 69.286927 
L 452.03975 68.505298 
L 453.902471 67.162295 
L 455.765191 65.50483 
L 457.627911 63.571798 
L 459.956311 60.837632 
L 463.216071 56.598748 
L 470.666952 46.658521 
L 472.995352 43.927376 
L 475.323752 41.556441 
L 477.186473 39.977928 
L 479.049193 38.722884 
L 480.446233 38.011901 
L 481.843273 37.508999 
L 483.240313 37.220824 
L 484.637353 37.151182 
L 486.034393 37.300993 
L 487.431433 37.668277 
L 488.828474 38.248184 
L 490.225514 39.03305 
L 492.088234 40.38007 
L 493.950954 42.041122 
L 495.813674 43.977228 
L 498.142074 46.714407 
L 501.401835 50.95577 
L 508.852715 60.893469 
L 511.181115 63.621582 
L 513.509516 65.988575 
L 515.372236 67.563374 
L 517.234956 68.8143 
L 518.631996 69.521988 
L 520.029036 70.021463 
L 521.426076 70.306129 
L 522.823116 70.372224 
L 524.220157 70.218874 
L 525.617197 69.848107 
L 527.014237 69.264819 
L 528.411277 68.476718 
L 530.273997 67.125687 
L 532.136717 65.461052 
L 533.999437 63.521879 
L 536.327838 60.781697 
L 539.587598 56.537869 
L 541.450318 54.003281 
L 541.915998 53.828343 
L 543.313038 53.763418 
L 565.2 53.762042 
L 565.2 53.762042 
" clip-path="url(#p9a6b3a00ea)" style="fill: none; stroke: #9467bd; stroke-width: 1.5; stroke-linecap: square"/>
   </g>
   <g id="patch_9">
    <path d="M 327.2375 246.04 
L 327.2375 10.8 
" style="fill: none; stroke: #000000; stroke-width: 0.8; stroke-linejoin: miter; stroke-linecap: square"/>
   </g>
   <g id="patch_10">
    <path d="M 565.2 246.04 
L 565.2 10.8 
" style="fill: none; stroke: #000000; stroke-width: 0.8; stroke-linejoin: miter; stroke-linecap: square"/>
   </g>
   <g id="patch_11">
    <path d="M 327.2375 246.04 
L 565.2 246.04 
" style="fill: none; stroke: #000000; stroke-width: 0.8; stroke-linejoin: miter; stroke-linecap: square"/>
   </g>
   <g id="patch_12">
    <path d="M 327.2375 10.8 
L 565.2 10.8 
" style="fill: none; stroke: #000000; stroke-width: 0.8; stroke-linejoin: miter; stroke-linecap: square"/>
   </g>
   <g id="legend_2">
    <g id="patch_13">
     <path d="M 481.717187 106.86875 
L 558.2 106.86875 
Q 560.2 106.86875 560.2 104.86875 
L 560.2 17.8 
Q 560.2 15.8 558.2 15.8 
L 481.717187 15.8 
Q 479.717187 15.8 479.717187 17.8 
L 479.717187 104.86875 
Q 479.717187 106.86875 481.717187 106.86875 
z
" style="fill: #ffffff; opacity: 0.8; stroke: #cccccc; stroke-linejoin: miter"/>
    </g>
    <g id="line2d_32">
     <path d="M 483.717187 23.898438 
L 493.717187 23.898438 
L 503.717187 23.898438 
" style="fill: none; stroke: #000000; stroke-width: 2; stroke-linecap: square"/>
    </g>
    <g id="text_28">
     <!-- potential -->
     <g transform="translate(511.717187 27.398438) scale(0.1 -0.1)">
      <defs>
       <path id="DejaVuSans-70" d="M 1159 525 
L 1159 -1331 
L 581 -1331 
L 581 3500 
L 1159 3500 
L 1159 2969 
Q 1341 3281 1617 3432 
Q 1894 3584 2278 3584 
Q 2916 3584 3314 3078 
Q 3713 2572 3713 1747 
Q 3713 922 3314 415 
Q 2916 -91 2278 -91 
Q 1894 -91 1617 61 
Q 1341 213 1159 525 
z
M 3116 1747 
Q 3116 2381 2855 2742 
Q 2594 3103 2138 3103 
Q 1681 3103 1420 2742 
Q 1159 2381 1159 1747 
Q 1159 1113 1420 752 
Q 1681 391 2138 391 
Q 2594 391 2855 752 
Q 3116 1113 3116 1747 
z
" transform="scale(0.015625)"/>
       <path id="DejaVuSans-6f" d="M 1959 3097 
Q 1497 3097 1228 2736 
Q 959 2375 959 1747 
Q 959 1119 1226 758 
Q 1494 397 1959 397 
Q 2419 397 2687 759 
Q 2956 1122 2956 1747 
Q 2956 2369 2687 2733 
Q 2419 3097 1959 3097 
z
M 1959 3584 
Q 2709 3584 3137 3096 
Q 3566 2609 3566 1747 
Q 3566 888 3137 398 
Q 2709 -91 1959 -91 
Q 1206 -91 779 398 
Q 353 888 353 1747 
Q 353 2609 779 3096 
Q 1206 3584 1959 3584 
z
" transform="scale(0.015625)"/>
      </defs>
      <use xlink:href="#DejaVuSans-70"/>
      <use xlink:href="#DejaVuSans-6f" x="63.476562"/>
      <use xlink:href="#DejaVuSans-74" x="124.658203"/>
      <use xlink:href="#DejaVuSans-65" x="163.867188"/>
      <use xlink:href="#DejaVuSans-6e" x="225.390625"/>
      <use xlink:href="#DejaVuSans-74" x="288.769531"/>
      <use xlink:href="#DejaVuSans-69" x="327.978516"/>
      <use xlink:href="#DejaVuSans-61" x="355.761719"/>
      <use xlink:href="#DejaVuSans-6c" x="417.041016"/>
     </g>
    </g>
    <g id="line2d_33">
     <path d="M 483.717187 38.576562 
L 493.717187 38.576562 
L 503.717187 38.576562 
" style="fill: none; stroke: #1f77b4; stroke-width: 1.5; stroke-linecap: square"/>
    </g>
    <g id="text_29">
     <!-- state 0 -->
     <g transform="translate(511.717187 42.076562) scale(0.1 -0.1)">
      <use xlink:href="#DejaVuSans-73"/>
      <use xlink:href="#DejaVuSans-74" x="52.099609"/>
      <use xlink:href="#DejaVuSans-61" x="91.308594"/>
      <use xlink:href="#DejaVuSans-74" x="152.587891"/>
      <use xlink:href="#DejaVuSans-65" x="191.796875"/>
      <use xlink:href="#DejaVuSans-20" x="253.320312"/>
      <use xlink:href="#DejaVuSans-30" x="285.107422"/>
     </g>
    </g>
    <g id="line2d_34">
     <path d="M 483.717187 53.254687 
L 493.717187 53.254687 
L 503.717187 53.254687 
" style="fill: none; stroke: #ff7f0e; stroke-width: 1.5; stroke-linecap: square"/>
    </g>
    <g id="text_30">
     <!-- state 1 -->
     <g transform="translate(511.717187 56.754687) scale(0.1 -0.1)">
      <use xlink:href="#DejaVuSans-73"/>
      <use xlink:href="#DejaVuSans-74" x="52.099609"/>
      <use xlink:href="#DejaVuSans-61" x="91.308594"/>
      <use xlink:href="#DejaVuSans-74" x="152.587891"/>
      <use xlink:href="#DejaVuSans-65" x="191.796875"/>
      <use xlink:href="#DejaVuSans-20" x="253.320312"/>
      <use xlink:href="#DejaVuSans-31" x="285.107422"/>
     </g>
    </g>
    <g id="line2d_35">
     <path d="M 483.717187 67.932813 
L 493.717187 67.932813 
L 503.717187 67.932813 
" style="fill: none; stroke: #2ca02c; stroke-width: 1.5; stroke-linecap: square"/>
    </g>
    <g id="text_31">
     <!-- state 2 -->
     <g transform="translate(511.717187 71.432813) scale(0.1 -0.1)">
      <use xlink:href="#DejaVuSans-73"/>
      <use xlink:href="#DejaVuSans-74" x="52.099609"/>
      <use xlink:href="#DejaVuSans-61" x="91.308594"/>
      <use xlink:href="#DejaVuSans-74" x="152.587891"/>
      <use xlink:href="#DejaVuSans-65" x="191.796875"/>
      <use xlink:href="#DejaVuSans-20" x="253.320312"/>
      <use xlink:href="#DejaVuSans-32" x="285.107422"/>
     </g>
    </g>
    <g id="line2d_36">
     <path d="M 483.717187 82.610938 
L 493.717187 82.610938 
L 503.717187 82.610938 
" style="fill: none; stroke: #d62728; stroke-width: 1.5; stroke-linecap: square"/>
    </g>
    <g id="text_32">
     <!-- state 3 -->
     <g transform="translate(511.717187 86.110938) scale(0.1 -0.1)">
      <use xlink:href="#DejaVuSans-73"/>
      <use xlink:href="#DejaVuSans-74" x="52.099609"/>
      <use xlink:href="#DejaVuSans-61" x="91.308594"/>
      <use xlink:href="#DejaVuSans-74" x="152.587891"/>
      <use xlink:href="#DejaVuSans-65" x="191.796875"/>
      <use xlink:href="#DejaVuSans-20" x="253.320312"/>
      <use xlink:href="#DejaVuSans-33" x="285.107422"/>
     </g>
    </g>
    <g id="line2d_37">
     <path d="M 483.717187 97.289062 
L 493.717187 97.289062 
L 503.717187 97.289062 
" style="fill: none; stroke: #9467bd; stroke-width: 1.5; stroke-linecap: square"/>
    </g>
    <g id="text_33">
     <!-- state 4 -->
     <g transform="translate(511.717187 100.789062) scale(0.1 -0.1)">
      <use xlink:href="#DejaVuSans-73"/>
      <use xlink:href="#DejaVuSans-74" x="52.099609"/>
      <use xlink:href="#DejaVuSans-61" x="91.308594"/>
      <use xlink:href="#DejaVuSans-74" x="152.587891"/>
      <use xlink:href="#DejaVuSans-65" x="191.796875"/>
      <use xlink:href="#DejaVuSans-20" x="253.320312"/>
      <use xlink:href="#DejaVuSans-34" x="285.107422"/>
     </g>
    </g>
   </g>
  </g>
 </g>
 <defs>
  <clipPath id="p8b8d818e7f">
   <rect x="51.005" y="10.8" width="237.9625" height="235.24"/>
  </clipPath>
  <clipPath id="p9a6b3a00ea">
   <rect x="327.2375" y="10.8" width="237.9625" height="235.24"/>
  </clipPath>
 </defs>
</svg>
