<?xml version="1.0" encoding="utf-8" standalone="no"?>
<!DOCTYPE svg PUBLIC "-//W3C//DTD SVG 1.1//EN"
  "http://www.w3.org/Graphics/SVG/1.1/DTD/svg11.dtd">
<svg xmlns:xlink="http://www.w3.org/1999/xlink" width="576pt" height="288pt" viewBox="0 0 576 288" xmlns="http://www.w3.org/2000/svg" version="1.1">
 <metadata>
  <rdf:RDF xmlns:dc="http://purl.org/dc/elements/1.1/" xmlns:cc="http://creativecommons.org/ns#" xmlns:rdf="http://www.w3.org/1999/02/22-rdf-syntax-ns#">
   <cc:Work>
    <dc:type rdf:resource="http://purl.org/dc/dcmitype/StillImage"/>
    <dc:date>2024-03-25T19:40:32.483422</dc:date>
    <dc:format>image/svg+xml</dc:format>
    <dc:creator>
     <cc:Agent>
      <dc:title>Matplotlib v3.8.0, https://matplotlib.org/</dc:title>
     </cc:Agent>
    </dc:creator>
   </cc:Work>
  </rdf:RDF>
 </metadata>
 <defs>
  <style type="text/css">*{stroke-linejoin: round; stroke-linecap: butt}</style>
 </defs>
 <g id="figure_1">
  <g id="patch_1">
   <path d="M 0 288 
L 576 288 
L 576 0 
L 0 0 
z
" style="fill: #ffffff"/>
  </g>
  <g id="axes_1">
   <g id="patch_2">
    <path d="M 73.37 246.04 
L 555.615 246.04 
L 555.615 14.76 
L 73.37 14.76 
z
" style="fill: #ffffff"/>
   </g>
   <g id="matplotlib.axis_1">
    <g id="xtick_1">
     <g id="line2d_1">
      <defs>
       <path id="m8759c55ea9" d="M 0 0 
L 0 3.5 
" style="stroke: #000000; stroke-width: 0.8"/>
      </defs>
      <g>
       <use xlink:href="#m8759c55ea9" x="73.37" y="246.04" style="stroke: #000000; stroke-width: 0.8"/>
      </g>
     </g>
     <g id="text_1">
      <!-- 0 -->
      <g transform="translate(70.18875 260.638438) scale(0.1 -0.1)">
       <defs>
        <path id="DejaVuSans-30" d="M 2034 4250 
Q 1547 4250 1301 3770 
Q 1056 3291 1056 2328 
Q 1056 1369 1301 889 
Q 1547 409 2034 409 
Q 2525 409 2770 889 
Q 3016 1369 3016 2328 
Q 3016 3291 2770 3770 
Q 2525 4250 2034 4250 
z
M 2034 4750 
Q 2819 4750 3233 4129 
Q 3647 3509 3647 2328 
Q 3647 1150 3233 529 
Q 2819 -91 2034 -91 
Q 1250 -91 836 529 
Q 422 1150 422 2328 
Q 422 3509 836 4129 
Q 1250 4750 2034 4750 
z
" transform="scale(0.015625)"/>
       </defs>
       <use xlink:href="#DejaVuSans-30"/>
      </g>
     </g>
    </g>
    <g id="xtick_2">
     <g id="line2d_2">
      <g>
       <use xlink:href="#m8759c55ea9" x="133.650625" y="246.04" style="stroke: #000000; stroke-width: 0.8"/>
      </g>
     </g>
     <g id="text_2">
      <!-- 25 -->
      <g transform="translate(127.288125 260.638438) scale(0.1 -0.1)">
       <defs>
        <path id="DejaVuSans-32" d="M 1228 531 
L 3431 531 
L 3431 0 
L 469 0 
L 469 531 
Q 828 903 1448 1529 
Q 2069 2156 2228 2338 
Q 2531 2678 2651 2914 
Q 2772 3150 2772 3378 
Q 2772 3750 2511 3984 
Q 2250 4219 1831 4219 
Q 1534 4219 1204 4116 
Q 875 4013 500 3803 
L 500 4441 
Q 881 4594 1212 4672 
Q 1544 4750 1819 4750 
Q 2544 4750 2975 4387 
Q 3406 4025 3406 3419 
Q 3406 3131 3298 2873 
Q 3191 2616 2906 2266 
Q 2828 2175 2409 1742 
Q 1991 1309 1228 531 
z
" transform="scale(0.015625)"/>
        <path id="DejaVuSans-35" d="M 691 4666 
L 3169 4666 
L 3169 4134 
L 1269 4134 
L 1269 2991 
Q 1406 3038 1543 3061 
Q 1681 3084 1819 3084 
Q 2600 3084 3056 2656 
Q 3513 2228 3513 1497 
Q 3513 744 3044 326 
Q 2575 -91 1722 -91 
Q 1428 -91 1123 -41 
Q 819 9 494 109 
L 494 744 
Q 775 591 1075 516 
Q 1375 441 1709 441 
Q 2250 441 2565 725 
Q 2881 1009 2881 1497 
Q 2881 1984 2565 2268 
Q 2250 2553 1709 2553 
Q 1456 2553 1204 2497 
Q 953 2441 691 2322 
L 691 4666 
z
" transform="scale(0.015625)"/>
       </defs>
       <use xlink:href="#DejaVuSans-32"/>
       <use xlink:href="#DejaVuSans-35" x="63.623047"/>
      </g>
     </g>
    </g>
    <g id="xtick_3">
     <g id="line2d_3">
      <g>
       <use xlink:href="#m8759c55ea9" x="193.93125" y="246.04" style="stroke: #000000; stroke-width: 0.8"/>
      </g>
     </g>
     <g id="text_3">
      <!-- 50 -->
      <g transform="translate(187.56875 260.638438) scale(0.1 -0.1)">
       <use xlink:href="#DejaVuSans-35"/>
       <use xlink:href="#DejaVuSans-30" x="63.623047"/>
      </g>
     </g>
    </g>
    <g id="xtick_4">
     <g id="line2d_4">
      <g>
       <use xlink:href="#m8759c55ea9" x="254.211875" y="246.04" style="stroke: #000000; stroke-width: 0.8"/>
      </g>
     </g>
     <g id="text_4">
      <!-- 75 -->
      <g transform="translate(247.849375 260.638438) scale(0.1 -0.1)">
       <defs>
        <path id="DejaVuSans-37" d="M 525 4666 
L 3525 4666 
L 3525 4397 
L 1831 0 
L 1172 0 
L 2766 4134 
L 525 4134 
L 525 4666 
z
" transform="scale(0.015625)"/>
       </defs>
       <use xlink:href="#DejaVuSans-37"/>
       <use xlink:href="#DejaVuSans-35" x="63.623047"/>
      </g>
     </g>
    </g>
    <g id="xtick_5">
     <g id="line2d_5">
      <g>
       <use xlink:href="#m8759c55ea9" x="314.4925" y="246.04" style="stroke: #000000; stroke-width: 0.8"/>
      </g>
     </g>
     <g id="text_5">
      <!-- 100 -->
      <g transform="translate(304.94875 260.638438) scale(0.1 -0.1)">
       <defs>
        <path id="DejaVuSans-31" d="M 794 531 
L 1825 531 
L 1825 4091 
L 703 3866 
L 703 4441 
L 1819 4666 
L 2450 4666 
L 2450 531 
L 3481 531 
L 3481 0 
L 794 0 
L 794 531 
z
" transform="scale(0.015625)"/>
       </defs>
       <use xlink:href="#DejaVuSans-31"/>
       <use xlink:href="#DejaVuSans-30" x="63.623047"/>
       <use xlink:href="#DejaVuSans-30" x="127.246094"/>
      </g>
     </g>
    </g>
    <g id="xtick_6">
     <g id="line2d_6">
      <g>
       <use xlink:href="#m8759c55ea9" x="374.773125" y="246.04" style="stroke: #000000; stroke-width: 0.8"/>
      </g>
     </g>
     <g id="text_6">
      <!-- 125 -->
      <g transform="translate(365.229375 260.638438) scale(0.1 -0.1)">
       <use xlink:href="#DejaVuSans-31"/>
       <use xlink:href="#DejaVuSans-32" x="63.623047"/>
       <use xlink:href="#DejaVuSans-35" x="127.246094"/>
      </g>
     </g>
    </g>
    <g id="xtick_7">
     <g id="line2d_7">
      <g>
       <use xlink:href="#m8759c55ea9" x="435.05375" y="246.04" style="stroke: #000000; stroke-width: 0.8"/>
      </g>
     </g>
     <g id="text_7">
      <!-- 150 -->
      <g transform="translate(425.51 260.638438) scale(0.1 -0.1)">
       <use xlink:href="#DejaVuSans-31"/>
       <use xlink:href="#DejaVuSans-35" x="63.623047"/>
       <use xlink:href="#DejaVuSans-30" x="127.246094"/>
      </g>
     </g>
    </g>
    <g id="xtick_8">
     <g id="line2d_8">
      <g>
       <use xlink:href="#m8759c55ea9" x="495.334375" y="246.04" style="stroke: #000000; stroke-width: 0.8"/>
      </g>
     </g>
     <g id="text_8">
      <!-- 175 -->
      <g transform="translate(485.790625 260.638438) scale(0.1 -0.1)">
       <use xlink:href="#DejaVuSans-31"/>
       <use xlink:href="#DejaVuSans-37" x="63.623047"/>
       <use xlink:href="#DejaVuSans-35" x="127.246094"/>
      </g>
     </g>
    </g>
    <g id="xtick_9">
     <g id="line2d_9">
      <g>
       <use xlink:href="#m8759c55ea9" x="555.615" y="246.04" style="stroke: #000000; stroke-width: 0.8"/>
      </g>
     </g>
     <g id="text_9">
      <!-- 200 -->
      <g transform="translate(546.07125 260.638438) scale(0.1 -0.1)">
       <use xlink:href="#DejaVuSans-32"/>
       <use xlink:href="#DejaVuSans-30" x="63.623047"/>
       <use xlink:href="#DejaVuSans-30" x="127.246094"/>
      </g>
     </g>
    </g>
    <g id="text_10">
     <!-- time / s -->
     <g transform="translate(295.729219 274.316562) scale(0.1 -0.1)">
      <defs>
       <path id="DejaVuSans-74" d="M 1172 4494 
L 1172 3500 
L 2356 3500 
L 2356 3053 
L 1172 3053 
L 1172 1153 
Q 1172 725 1289 603 
Q 1406 481 1766 481 
L 2356 481 
L 2356 0 
L 1766 0 
Q 1100 0 847 248 
Q 594 497 594 1153 
L 594 3053 
L 172 3053 
L 172 3500 
L 594 3500 
L 594 4494 
L 1172 4494 
z
" transform="scale(0.015625)"/>
       <path id="DejaVuSans-69" d="M 603 3500 
L 1178 3500 
L 1178 0 
L 603 0 
L 603 3500 
z
M 603 4863 
L 1178 4863 
L 1178 4134 
L 603 4134 
L 603 4863 
z
" transform="scale(0.015625)"/>
       <path id="DejaVuSans-6d" d="M 3328 2828 
Q 3544 3216 3844 3400 
Q 4144 3584 4550 3584 
Q 5097 3584 5394 3201 
Q 5691 2819 5691 2113 
L 5691 0 
L 5113 0 
L 5113 2094 
Q 5113 2597 4934 2840 
Q 4756 3084 4391 3084 
Q 3944 3084 3684 2787 
Q 3425 2491 3425 1978 
L 3425 0 
L 2847 0 
L 2847 2094 
Q 2847 2600 2669 2842 
Q 2491 3084 2119 3084 
Q 1678 3084 1418 2786 
Q 1159 2488 1159 1978 
L 1159 0 
L 581 0 
L 581 3500 
L 1159 3500 
L 1159 2956 
Q 1356 3278 1631 3431 
Q 1906 3584 2284 3584 
Q 2666 3584 2933 3390 
Q 3200 3197 3328 2828 
z
" transform="scale(0.015625)"/>
       <path id="DejaVuSans-65" d="M 3597 1894 
L 3597 1613 
L 953 1613 
Q 991 1019 1311 708 
Q 1631 397 2203 397 
Q 2534 397 2845 478 
Q 3156 559 3463 722 
L 3463 178 
Q 3153 47 2828 -22 
Q 2503 -91 2169 -91 
Q 1331 -91 842 396 
Q 353 884 353 1716 
Q 353 2575 817 3079 
Q 1281 3584 2069 3584 
Q 2775 3584 3186 3129 
Q 3597 2675 3597 1894 
z
M 3022 2063 
Q 3016 2534 2758 2815 
Q 2500 3097 2075 3097 
Q 1594 3097 1305 2825 
Q 1016 2553 972 2059 
L 3022 2063 
z
" transform="scale(0.015625)"/>
       <path id="DejaVuSans-20" transform="scale(0.015625)"/>
       <path id="DejaVuSans-2f" d="M 1625 4666 
L 2156 4666 
L 531 -594 
L 0 -594 
L 1625 4666 
z
" transform="scale(0.015625)"/>
       <path id="DejaVuSans-73" d="M 2834 3397 
L 2834 2853 
Q 2591 2978 2328 3040 
Q 2066 3103 1784 3103 
Q 1356 3103 1142 2972 
Q 928 2841 928 2578 
Q 928 2378 1081 2264 
Q 1234 2150 1697 2047 
L 1894 2003 
Q 2506 1872 2764 1633 
Q 3022 1394 3022 966 
Q 3022 478 2636 193 
Q 2250 -91 1575 -91 
Q 1294 -91 989 -36 
Q 684 19 347 128 
L 347 722 
Q 666 556 975 473 
Q 1284 391 1588 391 
Q 1994 391 2212 530 
Q 2431 669 2431 922 
Q 2431 1156 2273 1281 
Q 2116 1406 1581 1522 
L 1381 1569 
Q 847 1681 609 1914 
Q 372 2147 372 2553 
Q 372 3047 722 3315 
Q 1072 3584 1716 3584 
Q 2034 3584 2315 3537 
Q 2597 3491 2834 3397 
z
" transform="scale(0.015625)"/>
      </defs>
      <use xlink:href="#DejaVuSans-74"/>
      <use xlink:href="#DejaVuSans-69" x="39.208984"/>
      <use xlink:href="#DejaVuSans-6d" x="66.992188"/>
      <use xlink:href="#DejaVuSans-65" x="164.404297"/>
      <use xlink:href="#DejaVuSans-20" x="225.927734"/>
      <use xlink:href="#DejaVuSans-2f" x="257.714844"/>
      <use xlink:href="#DejaVuSans-20" x="291.40625"/>
      <use xlink:href="#DejaVuSans-73" x="323.193359"/>
     </g>
    </g>
   </g>
   <g id="matplotlib.axis_2">
    <g id="ytick_1">
     <g id="line2d_10">
      <defs>
       <path id="m46262991f4" d="M 0 0 
L -3.5 0 
" style="stroke: #000000; stroke-width: 0.8"/>
      </defs>
      <g>
       <use xlink:href="#m46262991f4" x="73.37" y="235.026667" style="stroke: #000000; stroke-width: 0.8"/>
      </g>
     </g>
     <g id="text_11">
      <!-- 0.00000 -->
      <g transform="translate(25.016875 238.825885) scale(0.1 -0.1)">
       <defs>
        <path id="DejaVuSans-2e" d="M 684 794 
L 1344 794 
L 1344 0 
L 684 0 
L 684 794 
z
" transform="scale(0.015625)"/>
       </defs>
       <use xlink:href="#DejaVuSans-30"/>
       <use xlink:href="#DejaVuSans-2e" x="63.623047"/>
       <use xlink:href="#DejaVuSans-30" x="95.410156"/>
       <use xlink:href="#DejaVuSans-30" x="159.033203"/>
       <use xlink:href="#DejaVuSans-30" x="222.65625"/>
       <use xlink:href="#DejaVuSans-30" x="286.279297"/>
       <use xlink:href="#DejaVuSans-30" x="349.902344"/>
      </g>
     </g>
    </g>
    <g id="ytick_2">
     <g id="line2d_11">
      <g>
       <use xlink:href="#m46262991f4" x="73.37" y="207.493333" style="stroke: #000000; stroke-width: 0.8"/>
      </g>
     </g>
     <g id="text_12">
      <!-- 0.00025 -->
      <g transform="translate(25.016875 211.292552) scale(0.1 -0.1)">
       <use xlink:href="#DejaVuSans-30"/>
       <use xlink:href="#DejaVuSans-2e" x="63.623047"/>
       <use xlink:href="#DejaVuSans-30" x="95.410156"/>
       <use xlink:href="#DejaVuSans-30" x="159.033203"/>
       <use xlink:href="#DejaVuSans-30" x="222.65625"/>
       <use xlink:href="#DejaVuSans-32" x="286.279297"/>
       <use xlink:href="#DejaVuSans-35" x="349.902344"/>
      </g>
     </g>
    </g>
    <g id="ytick_3">
     <g id="line2d_12">
      <g>
       <use xlink:href="#m46262991f4" x="73.37" y="179.96" style="stroke: #000000; stroke-width: 0.8"/>
      </g>
     </g>
     <g id="text_13">
      <!-- 0.00050 -->
      <g transform="translate(25.016875 183.759219) scale(0.1 -0.1)">
       <use xlink:href="#DejaVuSans-30"/>
       <use xlink:href="#DejaVuSans-2e" x="63.623047"/>
       <use xlink:href="#DejaVuSans-30" x="95.410156"/>
       <use xlink:href="#DejaVuSans-30" x="159.033203"/>
       <use xlink:href="#DejaVuSans-30" x="222.65625"/>
       <use xlink:href="#DejaVuSans-35" x="286.279297"/>
       <use xlink:href="#DejaVuSans-30" x="349.902344"/>
      </g>
     </g>
    </g>
    <g id="ytick_4">
     <g id="line2d_13">
      <g>
       <use xlink:href="#m46262991f4" x="73.37" y="152.426667" style="stroke: #000000; stroke-width: 0.8"/>
      </g>
     </g>
     <g id="text_14">
      <!-- 0.00075 -->
      <g transform="translate(25.016875 156.225885) scale(0.1 -0.1)">
       <use xlink:href="#DejaVuSans-30"/>
       <use xlink:href="#DejaVuSans-2e" x="63.623047"/>
       <use xlink:href="#DejaVuSans-30" x="95.410156"/>
       <use xlink:href="#DejaVuSans-30" x="159.033203"/>
       <use xlink:href="#DejaVuSans-30" x="222.65625"/>
       <use xlink:href="#DejaVuSans-37" x="286.279297"/>
       <use xlink:href="#DejaVuSans-35" x="349.902344"/>
      </g>
     </g>
    </g>
    <g id="ytick_5">
     <g id="line2d_14">
      <g>
       <use xlink:href="#m46262991f4" x="73.37" y="124.893333" style="stroke: #000000; stroke-width: 0.8"/>
      </g>
     </g>
     <g id="text_15">
      <!-- 0.00100 -->
      <g transform="translate(25.016875 128.692552) scale(0.1 -0.1)">
       <use xlink:href="#DejaVuSans-30"/>
       <use xlink:href="#DejaVuSans-2e" x="63.623047"/>
       <use xlink:href="#DejaVuSans-30" x="95.410156"/>
       <use xlink:href="#DejaVuSans-30" x="159.033203"/>
       <use xlink:href="#DejaVuSans-31" x="222.65625"/>
       <use xlink:href="#DejaVuSans-30" x="286.279297"/>
       <use xlink:href="#DejaVuSans-30" x="349.902344"/>
      </g>
     </g>
    </g>
    <g id="ytick_6">
     <g id="line2d_15">
      <g>
       <use xlink:href="#m46262991f4" x="73.37" y="97.36" style="stroke: #000000; stroke-width: 0.8"/>
      </g>
     </g>
     <g id="text_16">
      <!-- 0.00125 -->
      <g transform="translate(25.016875 101.159219) scale(0.1 -0.1)">
       <use xlink:href="#DejaVuSans-30"/>
       <use xlink:href="#DejaVuSans-2e" x="63.623047"/>
       <use xlink:href="#DejaVuSans-30" x="95.410156"/>
       <use xlink:href="#DejaVuSans-30" x="159.033203"/>
       <use xlink:href="#DejaVuSans-31" x="222.65625"/>
       <use xlink:href="#DejaVuSans-32" x="286.279297"/>
       <use xlink:href="#DejaVuSans-35" x="349.902344"/>
      </g>
     </g>
    </g>
    <g id="ytick_7">
     <g id="line2d_16">
      <g>
       <use xlink:href="#m46262991f4" x="73.37" y="69.826667" style="stroke: #000000; stroke-width: 0.8"/>
      </g>
     </g>
     <g id="text_17">
      <!-- 0.00150 -->
      <g transform="translate(25.016875 73.625885) scale(0.1 -0.1)">
       <use xlink:href="#DejaVuSans-30"/>
       <use xlink:href="#DejaVuSans-2e" x="63.623047"/>
       <use xlink:href="#DejaVuSans-30" x="95.410156"/>
       <use xlink:href="#DejaVuSans-30" x="159.033203"/>
       <use xlink:href="#DejaVuSans-31" x="222.65625"/>
       <use xlink:href="#DejaVuSans-35" x="286.279297"/>
       <use xlink:href="#DejaVuSans-30" x="349.902344"/>
      </g>
     </g>
    </g>
    <g id="ytick_8">
     <g id="line2d_17">
      <g>
       <use xlink:href="#m46262991f4" x="73.37" y="42.293333" style="stroke: #000000; stroke-width: 0.8"/>
      </g>
     </g>
     <g id="text_18">
      <!-- 0.00175 -->
      <g transform="translate(25.016875 46.092552) scale(0.1 -0.1)">
       <use xlink:href="#DejaVuSans-30"/>
       <use xlink:href="#DejaVuSans-2e" x="63.623047"/>
       <use xlink:href="#DejaVuSans-30" x="95.410156"/>
       <use xlink:href="#DejaVuSans-30" x="159.033203"/>
       <use xlink:href="#DejaVuSans-31" x="222.65625"/>
       <use xlink:href="#DejaVuSans-37" x="286.279297"/>
       <use xlink:href="#DejaVuSans-35" x="349.902344"/>
      </g>
     </g>
    </g>
    <g id="ytick_9">
     <g id="line2d_18">
      <g>
       <use xlink:href="#m46262991f4" x="73.37" y="14.76" style="stroke: #000000; stroke-width: 0.8"/>
      </g>
     </g>
     <g id="text_19">
      <!-- 0.00200 -->
      <g transform="translate(25.016875 18.559219) scale(0.1 -0.1)">
       <use xlink:href="#DejaVuSans-30"/>
       <use xlink:href="#DejaVuSans-2e" x="63.623047"/>
       <use xlink:href="#DejaVuSans-30" x="95.410156"/>
       <use xlink:href="#DejaVuSans-30" x="159.033203"/>
       <use xlink:href="#DejaVuSans-32" x="222.65625"/>
       <use xlink:href="#DejaVuSans-30" x="286.279297"/>
       <use xlink:href="#DejaVuSans-30" x="349.902344"/>
      </g>
     </g>
    </g>
    <g id="text_20">
     <!-- concentration / M -->
     <g transform="translate(18.937188 174.205469) rotate(-90) scale(0.1 -0.1)">
      <defs>
       <path id="DejaVuSans-63" d="M 3122 3366 
L 3122 2828 
Q 2878 2963 2633 3030 
Q 2388 3097 2138 3097 
Q 1578 3097 1268 2742 
Q 959 2388 959 1747 
Q 959 1106 1268 751 
Q 1578 397 2138 397 
Q 2388 397 2633 464 
Q 2878 531 3122 666 
L 3122 134 
Q 2881 22 2623 -34 
Q 2366 -91 2075 -91 
Q 1284 -91 818 406 
Q 353 903 353 1747 
Q 353 2603 823 3093 
Q 1294 3584 2113 3584 
Q 2378 3584 2631 3529 
Q 2884 3475 3122 3366 
z
" transform="scale(0.015625)"/>
       <path id="DejaVuSans-6f" d="M 1959 3097 
Q 1497 3097 1228 2736 
Q 959 2375 959 1747 
Q 959 1119 1226 758 
Q 1494 397 1959 397 
Q 2419 397 2687 759 
Q 2956 1122 2956 1747 
Q 2956 2369 2687 2733 
Q 2419 3097 1959 3097 
z
M 1959 3584 
Q 2709 3584 3137 3096 
Q 3566 2609 3566 1747 
Q 3566 888 3137 398 
Q 2709 -91 1959 -91 
Q 1206 -91 779 398 
Q 353 888 353 1747 
Q 353 2609 779 3096 
Q 1206 3584 1959 3584 
z
" transform="scale(0.015625)"/>
       <path id="DejaVuSans-6e" d="M 3513 2113 
L 3513 0 
L 2938 0 
L 2938 2094 
Q 2938 2591 2744 2837 
Q 2550 3084 2163 3084 
Q 1697 3084 1428 2787 
Q 1159 2491 1159 1978 
L 1159 0 
L 581 0 
L 581 3500 
L 1159 3500 
L 1159 2956 
Q 1366 3272 1645 3428 
Q 1925 3584 2291 3584 
Q 2894 3584 3203 3211 
Q 3513 2838 3513 2113 
z
" transform="scale(0.015625)"/>
       <path id="DejaVuSans-72" d="M 2631 2963 
Q 2534 3019 2420 3045 
Q 2306 3072 2169 3072 
Q 1681 3072 1420 2755 
Q 1159 2438 1159 1844 
L 1159 0 
L 581 0 
L 581 3500 
L 1159 3500 
L 1159 2956 
Q 1341 3275 1631 3429 
Q 1922 3584 2338 3584 
Q 2397 3584 2469 3576 
Q 2541 3569 2628 3553 
L 2631 2963 
z
" transform="scale(0.015625)"/>
       <path id="DejaVuSans-61" d="M 2194 1759 
Q 1497 1759 1228 1600 
Q 959 1441 959 1056 
Q 959 750 1161 570 
Q 1363 391 1709 391 
Q 2188 391 2477 730 
Q 2766 1069 2766 1631 
L 2766 1759 
L 2194 1759 
z
M 3341 1997 
L 3341 0 
L 2766 0 
L 2766 531 
Q 2569 213 2275 61 
Q 1981 -91 1556 -91 
Q 1019 -91 701 211 
Q 384 513 384 1019 
Q 384 1609 779 1909 
Q 1175 2209 1959 2209 
L 2766 2209 
L 2766 2266 
Q 2766 2663 2505 2880 
Q 2244 3097 1772 3097 
Q 1472 3097 1187 3025 
Q 903 2953 641 2809 
L 641 3341 
Q 956 3463 1253 3523 
Q 1550 3584 1831 3584 
Q 2591 3584 2966 3190 
Q 3341 2797 3341 1997 
z
" transform="scale(0.015625)"/>
       <path id="DejaVuSans-4d" d="M 628 4666 
L 1569 4666 
L 2759 1491 
L 3956 4666 
L 4897 4666 
L 4897 0 
L 4281 0 
L 4281 4097 
L 3078 897 
L 2444 897 
L 1241 4097 
L 1241 0 
L 628 0 
L 628 4666 
z
" transform="scale(0.015625)"/>
      </defs>
      <use xlink:href="#DejaVuSans-63"/>
      <use xlink:href="#DejaVuSans-6f" x="54.980469"/>
      <use xlink:href="#DejaVuSans-6e" x="116.162109"/>
      <use xlink:href="#DejaVuSans-63" x="179.541016"/>
      <use xlink:href="#DejaVuSans-65" x="234.521484"/>
      <use xlink:href="#DejaVuSans-6e" x="296.044922"/>
      <use xlink:href="#DejaVuSans-74" x="359.423828"/>
      <use xlink:href="#DejaVuSans-72" x="398.632812"/>
      <use xlink:href="#DejaVuSans-61" x="439.746094"/>
      <use xlink:href="#DejaVuSans-74" x="501.025391"/>
      <use xlink:href="#DejaVuSans-69" x="540.234375"/>
      <use xlink:href="#DejaVuSans-6f" x="568.017578"/>
      <use xlink:href="#DejaVuSans-6e" x="629.199219"/>
      <use xlink:href="#DejaVuSans-20" x="692.578125"/>
      <use xlink:href="#DejaVuSans-2f" x="724.365234"/>
      <use xlink:href="#DejaVuSans-20" x="758.056641"/>
      <use xlink:href="#DejaVuSans-4d" x="789.84375"/>
     </g>
    </g>
   </g>
   <g id="line2d_19">
    <path d="M 73.37 235.026667 
L 73.514674 235.020701 
L 167.050914 234.909884 
L 168.140787 234.696006 
L 168.767706 234.351596 
L 169.254773 233.825064 
L 169.693616 233.004337 
L 170.117992 231.70464 
L 170.552012 229.593379 
L 171.010145 226.157517 
L 171.53097 220.40687 
L 172.326674 208.668689 
L 173.141668 197.812032 
L 173.619091 194.092072 
L 173.985597 192.710488 
L 174.246009 192.40596 
L 174.429262 192.47887 
L 174.66074 192.861087 
L 175.003134 193.91962 
L 175.504669 196.286611 
L 176.208746 200.791002 
L 177.052675 207.682633 
L 177.814622 215.721576 
L 178.417428 224.461521 
L 179.131151 235.01994 
L 182.627427 235.020687 
L 254.785747 234.909784 
L 255.87562 234.696075 
L 256.502539 234.351983 
L 256.989606 233.825918 
L 257.428449 233.00589 
L 257.852825 231.707252 
L 258.286845 229.597588 
L 258.744978 226.163999 
L 259.265803 220.416218 
L 260.061507 208.680013 
L 260.876501 197.819651 
L 261.353923 194.096288 
L 261.72043 192.712316 
L 261.980842 192.406342 
L 262.164095 192.478371 
L 262.395573 192.859626 
L 262.737967 193.917008 
L 263.239501 196.28275 
L 263.943579 200.78587 
L 264.787508 207.676023 
L 265.549455 215.712739 
L 266.152261 224.448966 
L 266.870806 235.020074 
L 271.239946 235.020688 
L 342.520579 234.909851 
L 343.610453 234.69633 
L 344.237372 234.352545 
L 344.724439 233.826932 
L 345.163282 233.007584 
L 345.587658 231.709975 
L 346.021678 229.601858 
L 346.479811 226.170455 
L 347.000635 220.425401 
L 347.79634 208.690961 
L 348.611334 197.826863 
L 349.088756 194.100165 
L 349.455263 192.71387 
L 349.715675 192.406498 
L 349.898928 192.477678 
L 350.130406 192.858009 
L 350.472799 193.914288 
L 350.974334 196.278839 
L 351.678412 200.780749 
L 352.522341 207.669484 
L 353.284288 215.704039 
L 353.887094 224.436639 
L 354.605639 235.020053 
L 358.805993 235.020688 
L 430.255412 234.909917 
L 431.345286 234.696586 
L 431.972204 234.353106 
L 432.459272 233.827944 
L 432.898115 233.009276 
L 433.32249 231.712695 
L 433.756511 229.606125 
L 434.214644 226.176907 
L 434.735468 220.43458 
L 435.531173 208.701909 
L 436.346167 197.83408 
L 436.823589 194.104046 
L 437.190095 192.715428 
L 437.450508 192.406658 
L 437.633761 192.476988 
L 437.865238 192.856394 
L 438.207632 193.91157 
L 438.709167 196.274929 
L 439.413245 200.775629 
L 440.257174 207.662946 
L 441.019121 215.695342 
L 441.626749 224.508086 
L 442.340472 235.020031 
L 446.381685 235.020687 
L 517.990245 234.909984 
L 519.084941 234.695104 
L 519.71186 234.349849 
L 520.198927 233.82207 
L 520.63777 232.999459 
L 521.062146 231.696915 
L 521.496166 229.581382 
L 521.954299 226.139503 
L 522.475124 220.381393 
L 523.27565 208.564261 
L 524.085822 197.792367 
L 524.563244 194.081643 
L 524.929751 192.706464 
L 525.190163 192.405782 
L 525.373416 192.481026 
L 525.609716 192.876893 
L 525.956933 193.964566 
L 526.46329 196.377664 
L 527.17219 200.944886 
L 528.020941 207.923819 
L 528.778066 215.983413 
L 529.380872 224.833417 
L 530.06566 235.019596 
L 532.394903 235.020683 
L 555.615 235.020662 
L 555.615 235.020662 
" clip-path="url(#p88a2a40ff0)" style="fill: none; stroke: #1f77b4; stroke-width: 1.5; stroke-linecap: square"/>
   </g>
   <g id="line2d_20">
    <path d="M 97.843062 -1 
L 99.314781 33.635418 
L 100.790451 63.261488 
L 102.26612 88.529346 
L 103.74179 110.080119 
L 105.21746 128.460619 
L 106.69313 144.137217 
L 108.168799 157.507678 
L 109.649291 168.945623 
L 111.129784 178.695897 
L 112.615098 187.03248 
L 114.100413 194.135306 
L 115.595372 200.223178 
L 117.095154 205.420096 
L 118.604581 209.867186 
L 120.128475 213.679629 
L 121.666837 216.942611 
L 123.229311 219.746622 
L 124.825542 222.162783 
L 126.465175 224.247469 
L 128.162677 226.050525 
L 129.937339 227.613941 
L 131.813272 228.971574 
L 133.824233 230.152108 
L 136.013626 231.177341 
L 138.434495 232.062004 
L 141.164002 232.8183 
L 144.317884 233.455616 
L 148.069751 233.979546 
L 152.718592 234.394867 
L 158.886506 234.709185 
L 169.987786 235.006662 
L 177.052675 234.901714 
L 178.388494 234.727814 
L 178.673018 234.489361 
L 178.822514 234.039396 
L 178.947898 232.791299 
L 179.179375 227.088208 
L 180.100463 205.693552 
L 180.987794 189.974659 
L 181.841368 178.592115 
L 182.651539 170.596913 
L 183.408664 165.183355 
L 184.112742 161.644336 
L 184.749305 159.493248 
L 185.313532 158.298115 
L 185.805422 157.728781 
L 186.229797 157.548447 
L 186.634883 157.614931 
L 187.083371 157.930264 
L 187.623485 158.605493 
L 188.298628 159.835 
L 189.157025 161.896877 
L 190.280655 165.221095 
L 191.872064 170.69198 
L 199.322749 197.223496 
L 201.338533 203.131979 
L 203.233756 208.016874 
L 205.066287 212.140372 
L 206.865061 215.651997 
L 208.649367 218.656998 
L 210.438496 221.241406 
L 212.246915 223.468155 
L 214.093913 225.393217 
L 215.998781 227.059815 
L 217.990453 228.50757 
L 220.097864 229.763937 
L 222.359593 230.852019 
L 224.828687 231.790845 
L 227.577484 232.594749 
L 230.712076 233.274652 
L 234.381961 233.836466 
L 238.842727 234.28593 
L 244.586265 234.629469 
L 253.76821 234.922842 
L 259.863786 235.002463 
L 265.438539 234.859726 
L 266.224598 234.676379 
L 266.451253 234.408191 
L 266.591104 233.836069 
L 266.72131 232.078419 
L 267.367519 215.865609 
L 268.274139 197.38931 
L 269.147003 183.909921 
L 269.976464 174.338829 
L 270.762523 167.68625 
L 271.495536 163.252906 
L 272.165856 160.457007 
L 272.768663 158.814958 
L 273.299132 157.957598 
L 273.752442 157.605249 
L 274.162351 157.553403 
L 274.581904 157.733878 
L 275.068971 158.20551 
L 275.671778 159.126404 
L 276.428902 160.721757 
L 277.403037 163.333352 
L 278.714743 167.540756 
L 280.77393 174.992699 
L 285.335967 191.612838 
L 287.52536 198.657532 
L 289.507387 204.305938 
L 291.388142 209.010159 
L 293.211028 212.984286 
L 295.00498 216.373024 
L 296.789286 219.276878 
L 298.578415 221.771197 
L 300.391656 223.923339 
L 302.248299 225.785721 
L 304.167635 227.398737 
L 306.178596 228.799566 
L 308.314942 230.016404 
L 310.620073 231.071489 
L 313.147036 231.980468 
L 315.972992 232.756558 
L 319.208856 233.409294 
L 323.028237 233.945853 
L 327.72048 234.371277 
L 333.873927 234.692949 
L 345.062011 235.006075 
L 352.319798 234.910658 
L 353.834047 234.738091 
L 354.133039 234.506921 
L 354.287357 234.071418 
L 354.412741 232.891747 
L 354.624929 227.765259 
L 355.546017 206.212702 
L 356.43817 190.293787 
L 357.291744 178.830362 
L 358.101915 170.771456 
L 358.863862 165.279055 
L 359.56794 161.710216 
L 360.204504 159.536228 
L 360.773553 158.315879 
L 361.265443 157.737295 
L 361.694641 157.549292 
L 362.099726 157.612375 
L 362.543392 157.919762 
L 363.083506 158.588809 
L 363.753827 159.801804 
L 364.6074 161.841659 
L 365.726209 165.139489 
L 367.30315 170.547493 
L 374.884041 197.50347 
L 376.890181 203.35283 
L 378.785403 208.210316 
L 380.617934 212.30868 
L 382.416708 215.79758 
L 384.201015 218.782225 
L 385.990144 221.348482 
L 387.798562 223.559123 
L 389.645561 225.469912 
L 391.555251 227.127712 
L 393.551745 228.566794 
L 395.663978 229.814713 
L 397.935352 230.896704 
L 400.418914 231.830522 
L 403.187 232.629598 
L 406.340883 233.303422 
L 410.039702 233.859734 
L 414.548693 234.304314 
L 420.374212 234.643217 
L 430.583339 234.96801 
L 434.884964 235.004573 
L 440.768353 234.871524 
L 441.670151 234.691438 
L 441.911274 234.431584 
L 442.055947 233.879446 
L 442.186154 232.208104 
L 442.663576 220.035598 
L 443.575019 200.483968 
L 444.452705 186.175763 
L 445.291811 175.921811 
L 446.087516 168.763824 
L 446.830173 163.962231 
L 447.514961 160.88522 
L 448.132234 159.052954 
L 448.672349 158.077934 
L 449.140126 157.645787 
L 449.554857 157.545066 
L 449.964765 157.677624 
L 450.432543 158.078981 
L 451.006415 158.888294 
L 451.729782 160.325666 
L 452.655693 162.702041 
L 453.880595 166.508174 
L 455.708303 172.996551 
L 461.355392 193.452232 
L 463.47727 200.093135 
L 465.430363 205.493978 
L 467.291828 210.004074 
L 469.105069 213.828221 
L 470.894198 217.093441 
L 472.678505 219.895399 
L 474.472456 222.305204 
L 476.295342 224.386323 
L 478.166453 226.188002 
L 480.105078 227.748156 
L 482.144974 229.104722 
L 484.315077 230.280302 
L 486.66361 231.29806 
L 489.253266 232.174786 
L 492.166025 232.921506 
L 495.522451 233.546495 
L 499.515439 234.0563 
L 504.47774 234.456057 
L 511.152011 234.756159 
L 522.315983 235.005536 
L 528.406737 234.878528 
L 529.385694 234.702183 
L 529.636462 234.451888 
L 529.781135 233.946022 
L 529.906519 232.503777 
L 530.219978 224.524227 
L 531.136244 203.825414 
L 532.023575 188.560414 
L 532.872326 177.592056 
L 533.677675 169.905421 
L 534.429977 164.718569 
L 535.12441 161.364256 
L 535.756151 159.324452 
L 536.310733 158.213845 
L 536.792978 157.696518 
L 537.212531 157.545159 
L 537.617617 157.633542 
L 538.070927 157.975266 
L 538.620686 158.690727 
L 539.310297 159.98291 
L 540.187982 162.136748 
L 541.340548 165.600762 
L 542.994648 171.346998 
L 549.86664 195.970423 
L 551.911358 202.104387 
L 553.825871 207.163056 
L 555.615 211.302995 
L 555.615 211.302995 
" clip-path="url(#p88a2a40ff0)" style="fill: none; stroke: #ff7f0e; stroke-width: 1.5; stroke-linecap: square"/>
   </g>
   <g id="line2d_21">
    <path d="M 73.37 235.026667 
L 92.491014 234.978074 
L 166.226275 234.840959 
L 167.803216 234.632958 
L 168.550696 234.323743 
L 169.076343 233.86605 
L 169.524831 233.164233 
L 169.944384 232.060978 
L 170.354292 230.309376 
L 170.769023 227.487346 
L 171.198221 222.91801 
L 171.656353 215.460176 
L 172.167533 203.18161 
L 172.794452 182.210804 
L 173.884325 136.567414 
L 175.089938 89.547687 
L 175.871175 67.191074 
L 176.502916 54.868747 
L 176.999628 48.985805 
L 177.361312 46.89583 
L 177.578322 46.570943 
L 177.698883 46.705165 
L 177.877314 47.334815 
L 178.132904 49.189023 
L 178.46083 53.400153 
L 178.851449 61.610362 
L 180.828653 109.94154 
L 182.024621 132.442566 
L 183.220589 150.894338 
L 184.416556 166.025553 
L 185.612524 178.433772 
L 186.813314 188.646101 
L 188.014104 197.013934 
L 189.219716 203.895287 
L 190.425329 209.529257 
L 191.635764 214.158618 
L 192.855844 217.973008 
L 194.090391 221.121766 
L 195.339405 223.714463 
L 196.617355 225.865783 
L 197.929061 227.647275 
L 199.293814 229.132038 
L 200.735727 230.375246 
L 202.283733 231.417149 
L 203.981236 232.290499 
L 205.890926 233.019573 
L 208.099608 233.619616 
L 210.751956 234.102237 
L 214.089091 234.473372 
L 218.607727 234.737886 
L 225.547232 234.89924 
L 239.590207 234.960345 
L 253.74892 234.851745 
L 255.46089 234.651152 
L 256.242126 234.349138 
L 256.777418 233.904448 
L 257.225906 233.231278 
L 257.645459 232.172324 
L 258.055368 230.489101 
L 258.470098 227.77226 
L 258.899296 223.360756 
L 259.352607 216.221892 
L 259.858964 204.417202 
L 260.471415 184.413633 
L 261.46484 143.255194 
L 262.786191 90.866907 
L 263.577073 67.89948 
L 264.213636 55.252268 
L 264.715171 49.156577 
L 265.081677 46.945445 
L 265.308332 46.570536 
L 265.428894 46.694198 
L 265.602502 47.28401 
L 265.853269 49.046017 
L 266.176373 53.07847 
L 266.562169 60.97598 
L 268.780496 114.348421 
L 269.976464 136.056391 
L 271.172432 153.857824 
L 272.368399 168.455733 
L 273.564367 180.42662 
L 274.765157 190.279012 
L 275.965947 198.351917 
L 277.171559 204.990734 
L 278.377172 210.426132 
L 279.592429 214.908389 
L 280.817332 218.598504 
L 282.051879 221.631426 
L 283.305716 224.137416 
L 284.588488 226.214948 
L 285.909839 227.939427 
L 287.28906 229.378448 
L 288.750262 230.583311 
L 290.322381 231.591653 
L 292.058463 232.438464 
L 294.016377 233.142086 
L 296.297396 233.7197 
L 299.055838 234.180794 
L 302.566581 234.531476 
L 307.408321 234.776216 
L 315.119419 234.918581 
L 331.858142 234.957337 
L 341.840614 234.830371 
L 343.325929 234.617731 
L 344.054119 234.301848 
L 344.574943 233.831718 
L 345.018609 233.116254 
L 345.438162 231.982895 
L 345.84807 230.184936 
L 346.262801 227.291834 
L 346.696821 222.551706 
L 347.159776 214.812808 
L 347.675778 202.113503 
L 348.317164 180.233869 
L 349.532422 129.017855 
L 350.63194 87.21268 
L 351.39871 65.875276 
L 352.015983 54.24039 
L 352.503051 48.722667 
L 352.85509 46.828831 
L 353.062455 46.574696 
L 353.187839 46.744979 
L 353.375914 47.479414 
L 353.641149 49.558001 
L 353.978721 54.188495 
L 354.378984 63.10196 
L 355.936635 102.178425 
L 357.132603 126.076489 
L 358.328571 145.673892 
L 359.524538 161.744572 
L 360.720506 174.923191 
L 361.921296 185.769583 
L 363.122086 194.656957 
L 364.322876 201.93914 
L 365.528488 207.927701 
L 366.738923 212.848425 
L 367.959003 216.902886 
L 369.188728 220.238035 
L 370.43292 222.986529 
L 371.701224 225.261381 
L 373.003286 227.148554 
L 374.353572 228.719363 
L 375.771372 230.030625 
L 377.285621 231.129098 
L 378.934899 232.049833 
L 380.777075 232.820253 
L 382.889308 233.457352 
L 385.39216 233.973196 
L 388.492995 234.376187 
L 392.587255 234.671394 
L 398.596028 234.862511 
L 409.538167 234.9534 
L 428.239628 234.889755 
L 430.646031 234.710403 
L 431.547829 234.437754 
L 432.1217 234.037214 
L 432.584656 233.435537 
L 433.009031 232.495849 
L 433.418939 231.010277 
L 433.83367 228.599673 
L 434.258046 224.707622 
L 434.706534 218.35246 
L 435.198423 207.906512 
L 435.777118 190.385852 
L 436.601756 157.682075 
L 438.323371 88.658642 
L 439.099786 66.674057 
L 439.726704 54.60928 
L 440.218594 48.883898 
L 440.575455 46.873002 
L 440.792466 46.572895 
L 440.913027 46.721422 
L 441.09628 47.398165 
L 441.356692 49.356222 
L 441.689441 53.764188 
L 442.08006 62.183478 
L 443.874011 106.551171 
L 445.069979 129.662323 
L 446.265946 148.614424 
L 447.461914 164.155929 
L 448.657881 176.900604 
L 449.858672 187.389845 
L 451.059462 195.984576 
L 452.260252 203.026972 
L 453.465864 208.818342 
L 454.676299 213.577035 
L 455.896379 217.497991 
L 457.126104 220.723321 
L 458.375118 223.390584 
L 459.648245 225.596276 
L 460.955129 227.424433 
L 462.31506 228.949526 
L 463.747327 230.223966 
L 465.280867 231.291299 
L 466.959079 232.186627 
L 468.839835 232.934132 
L 471.005115 233.550163 
L 473.589948 234.047174 
L 476.820989 234.432257 
L 481.146727 234.710152 
L 487.652212 234.88438 
L 500.195405 234.958664 
L 516.644782 234.866447 
L 518.568939 234.673625 
L 519.388756 234.383328 
L 519.938515 233.954492 
L 520.391825 233.308513 
L 520.811378 232.299682 
L 521.221287 230.694009 
L 521.636017 228.09693 
L 522.065215 223.866217 
L 522.518526 216.986371 
L 523.02006 205.658141 
L 523.618044 186.624032 
L 524.539132 148.983647 
L 525.99069 90.938928 
L 526.781571 67.950805 
L 527.418135 55.285545 
L 527.91967 49.175066 
L 528.286176 46.952641 
L 528.512831 46.570403 
L 528.633392 46.690011 
L 528.807 47.273738 
L 529.057768 49.026265 
L 529.380872 53.044719 
L 529.766668 60.922201 
L 532.009107 114.787489 
L 533.205075 136.416445 
L 534.401042 154.153084 
L 535.59701 168.697858 
L 536.792978 180.625172 
L 537.993768 190.441702 
L 539.194558 198.485223 
L 540.40017 205.099876 
L 541.610605 210.535051 
L 542.825863 214.997421 
L 544.050765 218.671164 
L 545.285312 221.69063 
L 546.539149 224.185502 
L 547.821921 226.253817 
L 549.143272 227.970644 
L 550.522493 229.403282 
L 551.983695 230.602799 
L 553.560636 231.609361 
L 555.296718 232.451741 
L 555.615 232.581545 
L 555.615 232.581545 
" clip-path="url(#p88a2a40ff0)" style="fill: none; stroke: #2ca02c; stroke-width: 1.5; stroke-linecap: square"/>
   </g>
   <g id="patch_3">
    <path d="M 73.37 246.04 
L 73.37 14.76 
" style="fill: none; stroke: #000000; stroke-width: 0.8; stroke-linejoin: miter; stroke-linecap: square"/>
   </g>
   <g id="patch_4">
    <path d="M 555.615 246.04 
L 555.615 14.76 
" style="fill: none; stroke: #000000; stroke-width: 0.8; stroke-linejoin: miter; stroke-linecap: square"/>
   </g>
   <g id="patch_5">
    <path d="M 73.37 246.04 
L 555.615 246.04 
" style="fill: none; stroke: #000000; stroke-width: 0.8; stroke-linejoin: miter; stroke-linecap: square"/>
   </g>
   <g id="patch_6">
    <path d="M 73.37 14.76 
L 555.615 14.76 
" style="fill: none; stroke: #000000; stroke-width: 0.8; stroke-linejoin: miter; stroke-linecap: square"/>
   </g>
   <g id="legend_1">
    <g id="patch_7">
     <path d="M 471.393125 66.794375 
L 548.615 66.794375 
Q 550.615 66.794375 550.615 64.794375 
L 550.615 21.76 
Q 550.615 19.76 548.615 19.76 
L 471.393125 19.76 
Q 469.393125 19.76 469.393125 21.76 
L 469.393125 64.794375 
Q 469.393125 66.794375 471.393125 66.794375 
z
" style="fill: #ffffff; opacity: 0.8; stroke: #cccccc; stroke-linejoin: miter"/>
    </g>
    <g id="line2d_22">
     <path d="M 473.393125 27.858437 
L 483.393125 27.858437 
L 493.393125 27.858437 
" style="fill: none; stroke: #1f77b4; stroke-width: 1.5; stroke-linecap: square"/>
    </g>
    <g id="text_21">
     <!-- [HBrO2] -->
     <g transform="translate(501.393125 31.358437) scale(0.1 -0.1)">
      <defs>
       <path id="DejaVuSans-5b" d="M 550 4863 
L 1875 4863 
L 1875 4416 
L 1125 4416 
L 1125 -397 
L 1875 -397 
L 1875 -844 
L 550 -844 
L 550 4863 
z
" transform="scale(0.015625)"/>
       <path id="DejaVuSans-48" d="M 628 4666 
L 1259 4666 
L 1259 2753 
L 3553 2753 
L 3553 4666 
L 4184 4666 
L 4184 0 
L 3553 0 
L 3553 2222 
L 1259 2222 
L 1259 0 
L 628 0 
L 628 4666 
z
" transform="scale(0.015625)"/>
       <path id="DejaVuSans-42" d="M 1259 2228 
L 1259 519 
L 2272 519 
Q 2781 519 3026 730 
Q 3272 941 3272 1375 
Q 3272 1813 3026 2020 
Q 2781 2228 2272 2228 
L 1259 2228 
z
M 1259 4147 
L 1259 2741 
L 2194 2741 
Q 2656 2741 2882 2914 
Q 3109 3088 3109 3444 
Q 3109 3797 2882 3972 
Q 2656 4147 2194 4147 
L 1259 4147 
z
M 628 4666 
L 2241 4666 
Q 2963 4666 3353 4366 
Q 3744 4066 3744 3513 
Q 3744 3084 3544 2831 
Q 3344 2578 2956 2516 
Q 3422 2416 3680 2098 
Q 3938 1781 3938 1306 
Q 3938 681 3513 340 
Q 3088 0 2303 0 
L 628 0 
L 628 4666 
z
" transform="scale(0.015625)"/>
       <path id="DejaVuSans-4f" d="M 2522 4238 
Q 1834 4238 1429 3725 
Q 1025 3213 1025 2328 
Q 1025 1447 1429 934 
Q 1834 422 2522 422 
Q 3209 422 3611 934 
Q 4013 1447 4013 2328 
Q 4013 3213 3611 3725 
Q 3209 4238 2522 4238 
z
M 2522 4750 
Q 3503 4750 4090 4092 
Q 4678 3434 4678 2328 
Q 4678 1225 4090 567 
Q 3503 -91 2522 -91 
Q 1538 -91 948 565 
Q 359 1222 359 2328 
Q 359 3434 948 4092 
Q 1538 4750 2522 4750 
z
" transform="scale(0.015625)"/>
       <path id="DejaVuSans-5d" d="M 1947 4863 
L 1947 -844 
L 622 -844 
L 622 -397 
L 1369 -397 
L 1369 4416 
L 622 4416 
L 622 4863 
L 1947 4863 
z
" transform="scale(0.015625)"/>
      </defs>
      <use xlink:href="#DejaVuSans-5b"/>
      <use xlink:href="#DejaVuSans-48" x="39.013672"/>
      <use xlink:href="#DejaVuSans-42" x="114.208984"/>
      <use xlink:href="#DejaVuSans-72" x="182.8125"/>
      <use xlink:href="#DejaVuSans-4f" x="223.925781"/>
      <use xlink:href="#DejaVuSans-32" x="302.636719"/>
      <use xlink:href="#DejaVuSans-5d" x="366.259766"/>
     </g>
    </g>
    <g id="line2d_23">
     <path d="M 473.393125 42.536562 
L 483.393125 42.536562 
L 493.393125 42.536562 
" style="fill: none; stroke: #ff7f0e; stroke-width: 1.5; stroke-linecap: square"/>
    </g>
    <g id="text_22">
     <!-- [Br-] -->
     <g transform="translate(501.393125 46.036562) scale(0.1 -0.1)">
      <defs>
       <path id="DejaVuSans-2d" d="M 313 2009 
L 1997 2009 
L 1997 1497 
L 313 1497 
L 313 2009 
z
" transform="scale(0.015625)"/>
      </defs>
      <use xlink:href="#DejaVuSans-5b"/>
      <use xlink:href="#DejaVuSans-42" x="39.013672"/>
      <use xlink:href="#DejaVuSans-72" x="107.617188"/>
      <use xlink:href="#DejaVuSans-2d" x="142.355469"/>
      <use xlink:href="#DejaVuSans-5d" x="178.439453"/>
     </g>
    </g>
    <g id="line2d_24">
     <path d="M 473.393125 57.214687 
L 483.393125 57.214687 
L 493.393125 57.214687 
" style="fill: none; stroke: #2ca02c; stroke-width: 1.5; stroke-linecap: square"/>
    </g>
    <g id="text_23">
     <!-- 2 [Ce4+] -->
     <g transform="translate(501.393125 60.714687) scale(0.1 -0.1)">
      <defs>
       <path id="DejaVuSans-43" d="M 4122 4306 
L 4122 3641 
Q 3803 3938 3442 4084 
Q 3081 4231 2675 4231 
Q 1875 4231 1450 3742 
Q 1025 3253 1025 2328 
Q 1025 1406 1450 917 
Q 1875 428 2675 428 
Q 3081 428 3442 575 
Q 3803 722 4122 1019 
L 4122 359 
Q 3791 134 3420 21 
Q 3050 -91 2638 -91 
Q 1578 -91 968 557 
Q 359 1206 359 2328 
Q 359 3453 968 4101 
Q 1578 4750 2638 4750 
Q 3056 4750 3426 4639 
Q 3797 4528 4122 4306 
z
" transform="scale(0.015625)"/>
       <path id="DejaVuSans-34" d="M 2419 4116 
L 825 1625 
L 2419 1625 
L 2419 4116 
z
M 2253 4666 
L 3047 4666 
L 3047 1625 
L 3713 1625 
L 3713 1100 
L 3047 1100 
L 3047 0 
L 2419 0 
L 2419 1100 
L 313 1100 
L 313 1709 
L 2253 4666 
z
" transform="scale(0.015625)"/>
       <path id="DejaVuSans-2b" d="M 2944 4013 
L 2944 2272 
L 4684 2272 
L 4684 1741 
L 2944 1741 
L 2944 0 
L 2419 0 
L 2419 1741 
L 678 1741 
L 678 2272 
L 2419 2272 
L 2419 4013 
L 2944 4013 
z
" transform="scale(0.015625)"/>
      </defs>
      <use xlink:href="#DejaVuSans-32"/>
      <use xlink:href="#DejaVuSans-20" x="63.623047"/>
      <use xlink:href="#DejaVuSans-5b" x="95.410156"/>
      <use xlink:href="#DejaVuSans-43" x="134.423828"/>
      <use xlink:href="#DejaVuSans-65" x="204.248047"/>
      <use xlink:href="#DejaVuSans-34" x="265.771484"/>
      <use xlink:href="#DejaVuSans-2b" x="329.394531"/>
      <use xlink:href="#DejaVuSans-5d" x="413.183594"/>
     </g>
    </g>
   </g>
  </g>
 </g>
 <defs>
  <clipPath id="p88a2a40ff0">
   <rect x="73.37" y="14.76" width="482.245" height="231.28"/>
  </clipPath>
 </defs>
</svg>
