<?xml version="1.0" encoding="utf-8" standalone="no"?>
<!DOCTYPE svg PUBLIC "-//W3C//DTD SVG 1.1//EN"
  "http://www.w3.org/Graphics/SVG/1.1/DTD/svg11.dtd">
<svg xmlns:xlink="http://www.w3.org/1999/xlink" width="1152pt" height="432pt" viewBox="0 0 1152 432" xmlns="http://www.w3.org/2000/svg" version="1.1">
 <metadata>
  <rdf:RDF xmlns:dc="http://purl.org/dc/elements/1.1/" xmlns:cc="http://creativecommons.org/ns#" xmlns:rdf="http://www.w3.org/1999/02/22-rdf-syntax-ns#">
   <cc:Work>
    <dc:type rdf:resource="http://purl.org/dc/dcmitype/StillImage"/>
    <dc:date>2024-04-28T18:17:14.077484</dc:date>
    <dc:format>image/svg+xml</dc:format>
    <dc:creator>
     <cc:Agent>
      <dc:title>Matplotlib v3.7.1, https://matplotlib.org/</dc:title>
     </cc:Agent>
    </dc:creator>
   </cc:Work>
  </rdf:RDF>
 </metadata>
 <defs>
  <style type="text/css">*{stroke-linejoin: round; stroke-linecap: butt}</style>
 </defs>
 <g id="figure_1">
  <g id="patch_1">
   <path d="M 0 432 
L 1152 432 
L 1152 0 
L 0 0 
z
" style="fill: #ffffff"/>
  </g>
  <g id="axes_1">
   <g id="patch_2">
    <path d="M 144 384.48 
L 549.818182 384.48 
L 549.818182 51.84 
L 144 51.84 
z
" style="fill: #ffffff"/>
   </g>
   <g id="matplotlib.axis_1">
    <g id="xtick_1">
     <g id="line2d_1">
      <defs>
       <path id="m097a1c0216" d="M 0 0 
L 0 3.5 
" style="stroke: #000000; stroke-width: 0.8"/>
      </defs>
      <g>
       <use xlink:href="#m097a1c0216" x="162.446281" y="384.48" style="stroke: #000000; stroke-width: 0.8"/>
      </g>
     </g>
     <g id="text_1">
      <!-- 0 -->
      <g transform="translate(159.265031 399.078438) scale(0.1 -0.1)">
       <defs>
        <path id="DejaVuSans-30" d="M 2034 4250 
Q 1547 4250 1301 3770 
Q 1056 3291 1056 2328 
Q 1056 1369 1301 889 
Q 1547 409 2034 409 
Q 2525 409 2770 889 
Q 3016 1369 3016 2328 
Q 3016 3291 2770 3770 
Q 2525 4250 2034 4250 
z
M 2034 4750 
Q 2819 4750 3233 4129 
Q 3647 3509 3647 2328 
Q 3647 1150 3233 529 
Q 2819 -91 2034 -91 
Q 1250 -91 836 529 
Q 422 1150 422 2328 
Q 422 3509 836 4129 
Q 1250 4750 2034 4750 
z
" transform="scale(0.015625)"/>
       </defs>
       <use xlink:href="#DejaVuSans-30"/>
      </g>
     </g>
    </g>
    <g id="xtick_2">
     <g id="line2d_2">
      <g>
       <use xlink:href="#m097a1c0216" x="236.231405" y="384.48" style="stroke: #000000; stroke-width: 0.8"/>
      </g>
     </g>
     <g id="text_2">
      <!-- 2 -->
      <g transform="translate(233.050155 399.078438) scale(0.1 -0.1)">
       <defs>
        <path id="DejaVuSans-32" d="M 1228 531 
L 3431 531 
L 3431 0 
L 469 0 
L 469 531 
Q 828 903 1448 1529 
Q 2069 2156 2228 2338 
Q 2531 2678 2651 2914 
Q 2772 3150 2772 3378 
Q 2772 3750 2511 3984 
Q 2250 4219 1831 4219 
Q 1534 4219 1204 4116 
Q 875 4013 500 3803 
L 500 4441 
Q 881 4594 1212 4672 
Q 1544 4750 1819 4750 
Q 2544 4750 2975 4387 
Q 3406 4025 3406 3419 
Q 3406 3131 3298 2873 
Q 3191 2616 2906 2266 
Q 2828 2175 2409 1742 
Q 1991 1309 1228 531 
z
" transform="scale(0.015625)"/>
       </defs>
       <use xlink:href="#DejaVuSans-32"/>
      </g>
     </g>
    </g>
    <g id="xtick_3">
     <g id="line2d_3">
      <g>
       <use xlink:href="#m097a1c0216" x="310.016529" y="384.48" style="stroke: #000000; stroke-width: 0.8"/>
      </g>
     </g>
     <g id="text_3">
      <!-- 4 -->
      <g transform="translate(306.835279 399.078438) scale(0.1 -0.1)">
       <defs>
        <path id="DejaVuSans-34" d="M 2419 4116 
L 825 1625 
L 2419 1625 
L 2419 4116 
z
M 2253 4666 
L 3047 4666 
L 3047 1625 
L 3713 1625 
L 3713 1100 
L 3047 1100 
L 3047 0 
L 2419 0 
L 2419 1100 
L 313 1100 
L 313 1709 
L 2253 4666 
z
" transform="scale(0.015625)"/>
       </defs>
       <use xlink:href="#DejaVuSans-34"/>
      </g>
     </g>
    </g>
    <g id="xtick_4">
     <g id="line2d_4">
      <g>
       <use xlink:href="#m097a1c0216" x="383.801653" y="384.48" style="stroke: #000000; stroke-width: 0.8"/>
      </g>
     </g>
     <g id="text_4">
      <!-- 6 -->
      <g transform="translate(380.620403 399.078438) scale(0.1 -0.1)">
       <defs>
        <path id="DejaVuSans-36" d="M 2113 2584 
Q 1688 2584 1439 2293 
Q 1191 2003 1191 1497 
Q 1191 994 1439 701 
Q 1688 409 2113 409 
Q 2538 409 2786 701 
Q 3034 994 3034 1497 
Q 3034 2003 2786 2293 
Q 2538 2584 2113 2584 
z
M 3366 4563 
L 3366 3988 
Q 3128 4100 2886 4159 
Q 2644 4219 2406 4219 
Q 1781 4219 1451 3797 
Q 1122 3375 1075 2522 
Q 1259 2794 1537 2939 
Q 1816 3084 2150 3084 
Q 2853 3084 3261 2657 
Q 3669 2231 3669 1497 
Q 3669 778 3244 343 
Q 2819 -91 2113 -91 
Q 1303 -91 875 529 
Q 447 1150 447 2328 
Q 447 3434 972 4092 
Q 1497 4750 2381 4750 
Q 2619 4750 2861 4703 
Q 3103 4656 3366 4563 
z
" transform="scale(0.015625)"/>
       </defs>
       <use xlink:href="#DejaVuSans-36"/>
      </g>
     </g>
    </g>
    <g id="xtick_5">
     <g id="line2d_5">
      <g>
       <use xlink:href="#m097a1c0216" x="457.586777" y="384.48" style="stroke: #000000; stroke-width: 0.8"/>
      </g>
     </g>
     <g id="text_5">
      <!-- 8 -->
      <g transform="translate(454.405527 399.078438) scale(0.1 -0.1)">
       <defs>
        <path id="DejaVuSans-38" d="M 2034 2216 
Q 1584 2216 1326 1975 
Q 1069 1734 1069 1313 
Q 1069 891 1326 650 
Q 1584 409 2034 409 
Q 2484 409 2743 651 
Q 3003 894 3003 1313 
Q 3003 1734 2745 1975 
Q 2488 2216 2034 2216 
z
M 1403 2484 
Q 997 2584 770 2862 
Q 544 3141 544 3541 
Q 544 4100 942 4425 
Q 1341 4750 2034 4750 
Q 2731 4750 3128 4425 
Q 3525 4100 3525 3541 
Q 3525 3141 3298 2862 
Q 3072 2584 2669 2484 
Q 3125 2378 3379 2068 
Q 3634 1759 3634 1313 
Q 3634 634 3220 271 
Q 2806 -91 2034 -91 
Q 1263 -91 848 271 
Q 434 634 434 1313 
Q 434 1759 690 2068 
Q 947 2378 1403 2484 
z
M 1172 3481 
Q 1172 3119 1398 2916 
Q 1625 2713 2034 2713 
Q 2441 2713 2670 2916 
Q 2900 3119 2900 3481 
Q 2900 3844 2670 4047 
Q 2441 4250 2034 4250 
Q 1625 4250 1398 4047 
Q 1172 3844 1172 3481 
z
" transform="scale(0.015625)"/>
       </defs>
       <use xlink:href="#DejaVuSans-38"/>
      </g>
     </g>
    </g>
    <g id="xtick_6">
     <g id="line2d_6">
      <g>
       <use xlink:href="#m097a1c0216" x="531.371901" y="384.48" style="stroke: #000000; stroke-width: 0.8"/>
      </g>
     </g>
     <g id="text_6">
      <!-- 10 -->
      <g transform="translate(525.009401 399.078438) scale(0.1 -0.1)">
       <defs>
        <path id="DejaVuSans-31" d="M 794 531 
L 1825 531 
L 1825 4091 
L 703 3866 
L 703 4441 
L 1819 4666 
L 2450 4666 
L 2450 531 
L 3481 531 
L 3481 0 
L 794 0 
L 794 531 
z
" transform="scale(0.015625)"/>
       </defs>
       <use xlink:href="#DejaVuSans-31"/>
       <use xlink:href="#DejaVuSans-30" x="63.623047"/>
      </g>
     </g>
    </g>
    <g id="text_7">
     <!-- time -->
     <g transform="translate(335.612997 412.756563) scale(0.1 -0.1)">
      <defs>
       <path id="DejaVuSans-74" d="M 1172 4494 
L 1172 3500 
L 2356 3500 
L 2356 3053 
L 1172 3053 
L 1172 1153 
Q 1172 725 1289 603 
Q 1406 481 1766 481 
L 2356 481 
L 2356 0 
L 1766 0 
Q 1100 0 847 248 
Q 594 497 594 1153 
L 594 3053 
L 172 3053 
L 172 3500 
L 594 3500 
L 594 4494 
L 1172 4494 
z
" transform="scale(0.015625)"/>
       <path id="DejaVuSans-69" d="M 603 3500 
L 1178 3500 
L 1178 0 
L 603 0 
L 603 3500 
z
M 603 4863 
L 1178 4863 
L 1178 4134 
L 603 4134 
L 603 4863 
z
" transform="scale(0.015625)"/>
       <path id="DejaVuSans-6d" d="M 3328 2828 
Q 3544 3216 3844 3400 
Q 4144 3584 4550 3584 
Q 5097 3584 5394 3201 
Q 5691 2819 5691 2113 
L 5691 0 
L 5113 0 
L 5113 2094 
Q 5113 2597 4934 2840 
Q 4756 3084 4391 3084 
Q 3944 3084 3684 2787 
Q 3425 2491 3425 1978 
L 3425 0 
L 2847 0 
L 2847 2094 
Q 2847 2600 2669 2842 
Q 2491 3084 2119 3084 
Q 1678 3084 1418 2786 
Q 1159 2488 1159 1978 
L 1159 0 
L 581 0 
L 581 3500 
L 1159 3500 
L 1159 2956 
Q 1356 3278 1631 3431 
Q 1906 3584 2284 3584 
Q 2666 3584 2933 3390 
Q 3200 3197 3328 2828 
z
" transform="scale(0.015625)"/>
       <path id="DejaVuSans-65" d="M 3597 1894 
L 3597 1613 
L 953 1613 
Q 991 1019 1311 708 
Q 1631 397 2203 397 
Q 2534 397 2845 478 
Q 3156 559 3463 722 
L 3463 178 
Q 3153 47 2828 -22 
Q 2503 -91 2169 -91 
Q 1331 -91 842 396 
Q 353 884 353 1716 
Q 353 2575 817 3079 
Q 1281 3584 2069 3584 
Q 2775 3584 3186 3129 
Q 3597 2675 3597 1894 
z
M 3022 2063 
Q 3016 2534 2758 2815 
Q 2500 3097 2075 3097 
Q 1594 3097 1305 2825 
Q 1016 2553 972 2059 
L 3022 2063 
z
" transform="scale(0.015625)"/>
      </defs>
      <use xlink:href="#DejaVuSans-74"/>
      <use xlink:href="#DejaVuSans-69" x="39.208984"/>
      <use xlink:href="#DejaVuSans-6d" x="66.992188"/>
      <use xlink:href="#DejaVuSans-65" x="164.404297"/>
     </g>
    </g>
   </g>
   <g id="matplotlib.axis_2">
    <g id="ytick_1">
     <g id="line2d_7">
      <defs>
       <path id="m7cff8dd93f" d="M 0 0 
L -3.5 0 
" style="stroke: #000000; stroke-width: 0.8"/>
      </defs>
      <g>
       <use xlink:href="#m7cff8dd93f" x="144" y="358.909019" style="stroke: #000000; stroke-width: 0.8"/>
      </g>
     </g>
     <g id="text_8">
      <!-- −1.5 -->
      <g transform="translate(112.717187 362.708238) scale(0.1 -0.1)">
       <defs>
        <path id="DejaVuSans-2212" d="M 678 2272 
L 4684 2272 
L 4684 1741 
L 678 1741 
L 678 2272 
z
" transform="scale(0.015625)"/>
        <path id="DejaVuSans-2e" d="M 684 794 
L 1344 794 
L 1344 0 
L 684 0 
L 684 794 
z
" transform="scale(0.015625)"/>
        <path id="DejaVuSans-35" d="M 691 4666 
L 3169 4666 
L 3169 4134 
L 1269 4134 
L 1269 2991 
Q 1406 3038 1543 3061 
Q 1681 3084 1819 3084 
Q 2600 3084 3056 2656 
Q 3513 2228 3513 1497 
Q 3513 744 3044 326 
Q 2575 -91 1722 -91 
Q 1428 -91 1123 -41 
Q 819 9 494 109 
L 494 744 
Q 775 591 1075 516 
Q 1375 441 1709 441 
Q 2250 441 2565 725 
Q 2881 1009 2881 1497 
Q 2881 1984 2565 2268 
Q 2250 2553 1709 2553 
Q 1456 2553 1204 2497 
Q 953 2441 691 2322 
L 691 4666 
z
" transform="scale(0.015625)"/>
       </defs>
       <use xlink:href="#DejaVuSans-2212"/>
       <use xlink:href="#DejaVuSans-31" x="83.789062"/>
       <use xlink:href="#DejaVuSans-2e" x="147.412109"/>
       <use xlink:href="#DejaVuSans-35" x="179.199219"/>
      </g>
     </g>
    </g>
    <g id="ytick_2">
     <g id="line2d_8">
      <g>
       <use xlink:href="#m7cff8dd93f" x="144" y="308.023085" style="stroke: #000000; stroke-width: 0.8"/>
      </g>
     </g>
     <g id="text_9">
      <!-- −1.0 -->
      <g transform="translate(112.717187 311.822304) scale(0.1 -0.1)">
       <use xlink:href="#DejaVuSans-2212"/>
       <use xlink:href="#DejaVuSans-31" x="83.789062"/>
       <use xlink:href="#DejaVuSans-2e" x="147.412109"/>
       <use xlink:href="#DejaVuSans-30" x="179.199219"/>
      </g>
     </g>
    </g>
    <g id="ytick_3">
     <g id="line2d_9">
      <g>
       <use xlink:href="#m7cff8dd93f" x="144" y="257.137151" style="stroke: #000000; stroke-width: 0.8"/>
      </g>
     </g>
     <g id="text_10">
      <!-- −0.5 -->
      <g transform="translate(112.717187 260.93637) scale(0.1 -0.1)">
       <use xlink:href="#DejaVuSans-2212"/>
       <use xlink:href="#DejaVuSans-30" x="83.789062"/>
       <use xlink:href="#DejaVuSans-2e" x="147.412109"/>
       <use xlink:href="#DejaVuSans-35" x="179.199219"/>
      </g>
     </g>
    </g>
    <g id="ytick_4">
     <g id="line2d_10">
      <g>
       <use xlink:href="#m7cff8dd93f" x="144" y="206.251218" style="stroke: #000000; stroke-width: 0.8"/>
      </g>
     </g>
     <g id="text_11">
      <!-- 0.0 -->
      <g transform="translate(121.096875 210.050436) scale(0.1 -0.1)">
       <use xlink:href="#DejaVuSans-30"/>
       <use xlink:href="#DejaVuSans-2e" x="63.623047"/>
       <use xlink:href="#DejaVuSans-30" x="95.410156"/>
      </g>
     </g>
    </g>
    <g id="ytick_5">
     <g id="line2d_11">
      <g>
       <use xlink:href="#m7cff8dd93f" x="144" y="155.365284" style="stroke: #000000; stroke-width: 0.8"/>
      </g>
     </g>
     <g id="text_12">
      <!-- 0.5 -->
      <g transform="translate(121.096875 159.164503) scale(0.1 -0.1)">
       <use xlink:href="#DejaVuSans-30"/>
       <use xlink:href="#DejaVuSans-2e" x="63.623047"/>
       <use xlink:href="#DejaVuSans-35" x="95.410156"/>
      </g>
     </g>
    </g>
    <g id="ytick_6">
     <g id="line2d_12">
      <g>
       <use xlink:href="#m7cff8dd93f" x="144" y="104.47935" style="stroke: #000000; stroke-width: 0.8"/>
      </g>
     </g>
     <g id="text_13">
      <!-- 1.0 -->
      <g transform="translate(121.096875 108.278569) scale(0.1 -0.1)">
       <use xlink:href="#DejaVuSans-31"/>
       <use xlink:href="#DejaVuSans-2e" x="63.623047"/>
       <use xlink:href="#DejaVuSans-30" x="95.410156"/>
      </g>
     </g>
    </g>
    <g id="ytick_7">
     <g id="line2d_13">
      <g>
       <use xlink:href="#m7cff8dd93f" x="144" y="53.593417" style="stroke: #000000; stroke-width: 0.8"/>
      </g>
     </g>
     <g id="text_14">
      <!-- 1.5 -->
      <g transform="translate(121.096875 57.392635) scale(0.1 -0.1)">
       <use xlink:href="#DejaVuSans-31"/>
       <use xlink:href="#DejaVuSans-2e" x="63.623047"/>
       <use xlink:href="#DejaVuSans-35" x="95.410156"/>
      </g>
     </g>
    </g>
    <g id="text_15">
     <!-- position -->
     <g transform="translate(106.6375 237.964687) rotate(-90) scale(0.1 -0.1)">
      <defs>
       <path id="DejaVuSans-70" d="M 1159 525 
L 1159 -1331 
L 581 -1331 
L 581 3500 
L 1159 3500 
L 1159 2969 
Q 1341 3281 1617 3432 
Q 1894 3584 2278 3584 
Q 2916 3584 3314 3078 
Q 3713 2572 3713 1747 
Q 3713 922 3314 415 
Q 2916 -91 2278 -91 
Q 1894 -91 1617 61 
Q 1341 213 1159 525 
z
M 3116 1747 
Q 3116 2381 2855 2742 
Q 2594 3103 2138 3103 
Q 1681 3103 1420 2742 
Q 1159 2381 1159 1747 
Q 1159 1113 1420 752 
Q 1681 391 2138 391 
Q 2594 391 2855 752 
Q 3116 1113 3116 1747 
z
" transform="scale(0.015625)"/>
       <path id="DejaVuSans-6f" d="M 1959 3097 
Q 1497 3097 1228 2736 
Q 959 2375 959 1747 
Q 959 1119 1226 758 
Q 1494 397 1959 397 
Q 2419 397 2687 759 
Q 2956 1122 2956 1747 
Q 2956 2369 2687 2733 
Q 2419 3097 1959 3097 
z
M 1959 3584 
Q 2709 3584 3137 3096 
Q 3566 2609 3566 1747 
Q 3566 888 3137 398 
Q 2709 -91 1959 -91 
Q 1206 -91 779 398 
Q 353 888 353 1747 
Q 353 2609 779 3096 
Q 1206 3584 1959 3584 
z
" transform="scale(0.015625)"/>
       <path id="DejaVuSans-73" d="M 2834 3397 
L 2834 2853 
Q 2591 2978 2328 3040 
Q 2066 3103 1784 3103 
Q 1356 3103 1142 2972 
Q 928 2841 928 2578 
Q 928 2378 1081 2264 
Q 1234 2150 1697 2047 
L 1894 2003 
Q 2506 1872 2764 1633 
Q 3022 1394 3022 966 
Q 3022 478 2636 193 
Q 2250 -91 1575 -91 
Q 1294 -91 989 -36 
Q 684 19 347 128 
L 347 722 
Q 666 556 975 473 
Q 1284 391 1588 391 
Q 1994 391 2212 530 
Q 2431 669 2431 922 
Q 2431 1156 2273 1281 
Q 2116 1406 1581 1522 
L 1381 1569 
Q 847 1681 609 1914 
Q 372 2147 372 2553 
Q 372 3047 722 3315 
Q 1072 3584 1716 3584 
Q 2034 3584 2315 3537 
Q 2597 3491 2834 3397 
z
" transform="scale(0.015625)"/>
       <path id="DejaVuSans-6e" d="M 3513 2113 
L 3513 0 
L 2938 0 
L 2938 2094 
Q 2938 2591 2744 2837 
Q 2550 3084 2163 3084 
Q 1697 3084 1428 2787 
Q 1159 2491 1159 1978 
L 1159 0 
L 581 0 
L 581 3500 
L 1159 3500 
L 1159 2956 
Q 1366 3272 1645 3428 
Q 1925 3584 2291 3584 
Q 2894 3584 3203 3211 
Q 3513 2838 3513 2113 
z
" transform="scale(0.015625)"/>
      </defs>
      <use xlink:href="#DejaVuSans-70"/>
      <use xlink:href="#DejaVuSans-6f" x="63.476562"/>
      <use xlink:href="#DejaVuSans-73" x="124.658203"/>
      <use xlink:href="#DejaVuSans-69" x="176.757812"/>
      <use xlink:href="#DejaVuSans-74" x="204.541016"/>
      <use xlink:href="#DejaVuSans-69" x="243.75"/>
      <use xlink:href="#DejaVuSans-6f" x="271.533203"/>
      <use xlink:href="#DejaVuSans-6e" x="332.714844"/>
     </g>
    </g>
   </g>
   <g id="line2d_14">
    <path d="M 162.446281 104.47935 
L 166.135537 104.47935 
L 169.824793 105.497069 
L 173.51405 107.532506 
L 177.203306 110.575485 
L 180.892562 114.605651 
L 184.581818 119.592574 
L 188.271074 125.495953 
L 191.960331 132.265919 
L 195.649587 139.843437 
L 199.338843 148.160808 
L 203.028099 157.142257 
L 206.717355 166.704609 
L 210.406612 176.758052 
L 214.095868 187.206961 
L 217.785124 197.950801 
L 221.47438 208.885084 
L 225.163636 219.902371 
L 228.852893 230.893319 
L 232.542149 241.747756 
L 236.231405 252.355772 
L 239.920661 262.608822 
L 243.609917 272.400827 
L 247.299174 281.629256 
L 250.98843 290.196189 
L 254.677686 298.009341 
L 258.366942 304.983044 
L 262.056198 311.039165 
L 265.745455 316.107968 
L 269.434711 320.128892 
L 273.123967 323.051248 
L 276.813223 324.834827 
L 280.502479 325.450407 
L 284.191736 324.88015 
L 287.880992 323.117901 
L 291.570248 320.169363 
L 295.259504 316.052158 
L 298.94876 310.795771 
L 302.638017 304.441375 
L 306.327273 297.041534 
L 310.016529 288.659791 
L 313.705785 279.370145 
L 317.395041 269.256413 
L 321.084298 258.411492 
L 324.773554 246.936519 
L 328.46281 234.939943 
L 332.152066 222.536514 
L 335.841322 209.846198 
L 339.530579 196.993029 
L 343.219835 184.10391 
L 346.909091 171.307373 
L 350.598347 158.732309 
L 354.287603 146.506684 
L 357.97686 134.756248 
L 361.666116 123.603257 
L 365.355372 113.165215 
L 369.044628 103.553653 
L 372.733884 94.872952 
L 376.42314 87.219226 
L 380.112397 80.679282 
L 383.801653 75.329659 
L 387.490909 71.235755 
L 391.180165 68.451066 
L 394.869421 67.016532 
L 398.558678 66.96 
L 402.247934 68.295814 
L 405.93719 71.024541 
L 409.626446 75.132822 
L 413.315702 80.593369 
L 417.004959 87.365101 
L 420.694215 95.393411 
L 424.383471 104.610582 
L 428.072727 114.936331 
L 431.761983 126.278486 
L 435.45124 138.533791 
L 439.140496 151.588822 
L 442.829752 165.321028 
L 446.519008 179.599858 
L 450.208264 194.28799 
L 453.897521 209.242635 
L 457.586777 224.316913 
L 461.276033 239.361277 
L 464.965289 254.224983 
L 468.654545 268.757589 
L 472.343802 282.810457 
L 476.033058 296.238262 
L 479.722314 308.900474 
L 483.41157 320.662816 
L 487.100826 331.398665 
L 490.790083 340.990398 
L 494.479339 349.330657 
L 498.168595 356.323524 
L 501.857851 361.885596 
L 505.547107 365.946946 
L 509.236364 368.451952 
L 512.92562 369.36 
L 516.614876 368.646041 
L 520.304132 366.300994 
L 523.993388 362.331999 
L 527.682645 356.762507 
L 531.371901 349.632206 
" clip-path="url(#p6aeba4001a)" style="fill: none; stroke: #1f77b4; stroke-width: 1.5; stroke-linecap: square"/>
   </g>
   <g id="line2d_15">
    <path d="M 162.446281 104.47935 
L 166.135537 104.987786 
L 169.824793 106.508012 
L 173.51405 109.024839 
L 177.203306 112.51312 
L 180.892562 116.938002 
L 184.581818 122.255271 
L 188.271074 128.4118 
L 191.960331 135.346075 
L 195.649587 142.98881 
L 199.338843 151.263643 
L 203.028099 160.087893 
L 206.717355 169.373392 
L 210.406612 179.027362 
L 214.095868 188.953344 
L 217.785124 199.052161 
L 221.47438 209.222908 
L 225.163636 219.363962 
L 228.852893 229.373999 
L 232.542149 239.153001 
L 236.231405 248.603258 
L 239.920661 257.630349 
L 243.609917 266.144075 
L 247.299174 274.059373 
L 250.98843 281.297153 
L 254.677686 287.785099 
L 258.366942 293.458386 
L 262.056198 298.260328 
L 265.745455 302.142945 
L 269.434711 305.067443 
L 273.123967 307.004603 
L 276.813223 307.935068 
L 280.502479 307.849541 
L 284.191736 306.748878 
L 287.880992 304.644075 
L 291.570248 301.556163 
L 295.259504 297.515996 
L 298.94876 292.563942 
L 302.638017 286.749479 
L 306.327273 280.130704 
L 310.016529 272.77375 
L 313.705785 264.752124 
L 317.395041 256.145977 
L 321.084298 247.041298 
L 324.773554 237.529058 
L 328.46281 227.7043 
L 332.152066 217.66519 
L 335.841322 207.512035 
L 339.530579 197.346283 
L 343.219835 187.269506 
L 346.909091 177.382387 
L 350.598347 167.783717 
L 354.287603 158.569401 
L 357.97686 149.831506 
L 361.666116 141.657339 
L 365.355372 134.128571 
L 369.044628 127.32043 
L 372.733884 121.300939 
L 376.42314 116.130243 
L 380.112397 111.860006 
L 383.801653 108.532895 
L 387.490909 106.182153 
L 391.180165 104.831268 
L 394.869421 104.493737 
L 398.558678 105.172934 
L 402.247934 106.862071 
L 405.93719 109.544272 
L 409.626446 113.192737 
L 413.315702 117.771012 
L 417.004959 123.233351 
L 420.694215 129.525177 
L 424.383471 136.583625 
L 428.072727 144.338168 
L 431.761983 152.711326 
L 435.45124 161.619437 
L 439.140496 170.973494 
L 442.829752 180.680034 
L 446.519008 190.642073 
L 450.208264 200.760074 
L 453.897521 210.93294 
L 457.586777 221.059028 
L 461.276033 231.037161 
L 464.965289 240.767641 
L 468.654545 250.153245 
L 472.343802 259.100194 
L 476.033058 267.519093 
L 479.722314 275.325824 
L 483.41157 282.442385 
L 487.100826 288.797668 
L 490.790083 294.328175 
L 494.479339 298.978646 
L 498.168595 302.702615 
L 501.857851 305.462873 
L 505.547107 307.231842 
L 509.236364 307.991845 
L 512.92562 307.73529 
L 516.614876 306.46474 
L 520.304132 304.192889 
L 523.993388 300.942437 
L 527.682645 296.745862 
L 531.371901 291.645094 
" clip-path="url(#p6aeba4001a)" style="fill: none; stroke: #ff7f0e; stroke-width: 1.5; stroke-linecap: square"/>
   </g>
   <g id="patch_3">
    <path d="M 144 384.48 
L 144 51.84 
" style="fill: none; stroke: #000000; stroke-width: 0.8; stroke-linejoin: miter; stroke-linecap: square"/>
   </g>
   <g id="patch_4">
    <path d="M 549.818182 384.48 
L 549.818182 51.84 
" style="fill: none; stroke: #000000; stroke-width: 0.8; stroke-linejoin: miter; stroke-linecap: square"/>
   </g>
   <g id="patch_5">
    <path d="M 144 384.48 
L 549.818182 384.48 
" style="fill: none; stroke: #000000; stroke-width: 0.8; stroke-linejoin: miter; stroke-linecap: square"/>
   </g>
   <g id="patch_6">
    <path d="M 144 51.84 
L 549.818182 51.84 
" style="fill: none; stroke: #000000; stroke-width: 0.8; stroke-linejoin: miter; stroke-linecap: square"/>
   </g>
   <g id="legend_1">
    <g id="patch_7">
     <path d="M 483.033807 89.19625 
L 542.818182 89.19625 
Q 544.818182 89.19625 544.818182 87.19625 
L 544.818182 58.84 
Q 544.818182 56.84 542.818182 56.84 
L 483.033807 56.84 
Q 481.033807 56.84 481.033807 58.84 
L 481.033807 87.19625 
Q 481.033807 89.19625 483.033807 89.19625 
z
" style="fill: #ffffff; opacity: 0.8; stroke: #cccccc; stroke-linejoin: miter"/>
    </g>
    <g id="line2d_16">
     <path d="M 485.033807 64.938437 
L 495.033807 64.938437 
L 505.033807 64.938437 
" style="fill: none; stroke: #1f77b4; stroke-width: 1.5; stroke-linecap: square"/>
    </g>
    <g id="text_16">
     <!-- Euler -->
     <g transform="translate(513.033807 68.438437) scale(0.1 -0.1)">
      <defs>
       <path id="DejaVuSans-45" d="M 628 4666 
L 3578 4666 
L 3578 4134 
L 1259 4134 
L 1259 2753 
L 3481 2753 
L 3481 2222 
L 1259 2222 
L 1259 531 
L 3634 531 
L 3634 0 
L 628 0 
L 628 4666 
z
" transform="scale(0.015625)"/>
       <path id="DejaVuSans-75" d="M 544 1381 
L 544 3500 
L 1119 3500 
L 1119 1403 
Q 1119 906 1312 657 
Q 1506 409 1894 409 
Q 2359 409 2629 706 
Q 2900 1003 2900 1516 
L 2900 3500 
L 3475 3500 
L 3475 0 
L 2900 0 
L 2900 538 
Q 2691 219 2414 64 
Q 2138 -91 1772 -91 
Q 1169 -91 856 284 
Q 544 659 544 1381 
z
M 1991 3584 
L 1991 3584 
z
" transform="scale(0.015625)"/>
       <path id="DejaVuSans-6c" d="M 603 4863 
L 1178 4863 
L 1178 0 
L 603 0 
L 603 4863 
z
" transform="scale(0.015625)"/>
       <path id="DejaVuSans-72" d="M 2631 2963 
Q 2534 3019 2420 3045 
Q 2306 3072 2169 3072 
Q 1681 3072 1420 2755 
Q 1159 2438 1159 1844 
L 1159 0 
L 581 0 
L 581 3500 
L 1159 3500 
L 1159 2956 
Q 1341 3275 1631 3429 
Q 1922 3584 2338 3584 
Q 2397 3584 2469 3576 
Q 2541 3569 2628 3553 
L 2631 2963 
z
" transform="scale(0.015625)"/>
      </defs>
      <use xlink:href="#DejaVuSans-45"/>
      <use xlink:href="#DejaVuSans-75" x="63.183594"/>
      <use xlink:href="#DejaVuSans-6c" x="126.5625"/>
      <use xlink:href="#DejaVuSans-65" x="154.345703"/>
      <use xlink:href="#DejaVuSans-72" x="215.869141"/>
     </g>
    </g>
    <g id="line2d_17">
     <path d="M 485.033807 79.616562 
L 495.033807 79.616562 
L 505.033807 79.616562 
" style="fill: none; stroke: #ff7f0e; stroke-width: 1.5; stroke-linecap: square"/>
    </g>
    <g id="text_17">
     <!-- Exact -->
     <g transform="translate(513.033807 83.116562) scale(0.1 -0.1)">
      <defs>
       <path id="DejaVuSans-78" d="M 3513 3500 
L 2247 1797 
L 3578 0 
L 2900 0 
L 1881 1375 
L 863 0 
L 184 0 
L 1544 1831 
L 300 3500 
L 978 3500 
L 1906 2253 
L 2834 3500 
L 3513 3500 
z
" transform="scale(0.015625)"/>
       <path id="DejaVuSans-61" d="M 2194 1759 
Q 1497 1759 1228 1600 
Q 959 1441 959 1056 
Q 959 750 1161 570 
Q 1363 391 1709 391 
Q 2188 391 2477 730 
Q 2766 1069 2766 1631 
L 2766 1759 
L 2194 1759 
z
M 3341 1997 
L 3341 0 
L 2766 0 
L 2766 531 
Q 2569 213 2275 61 
Q 1981 -91 1556 -91 
Q 1019 -91 701 211 
Q 384 513 384 1019 
Q 384 1609 779 1909 
Q 1175 2209 1959 2209 
L 2766 2209 
L 2766 2266 
Q 2766 2663 2505 2880 
Q 2244 3097 1772 3097 
Q 1472 3097 1187 3025 
Q 903 2953 641 2809 
L 641 3341 
Q 956 3463 1253 3523 
Q 1550 3584 1831 3584 
Q 2591 3584 2966 3190 
Q 3341 2797 3341 1997 
z
" transform="scale(0.015625)"/>
       <path id="DejaVuSans-63" d="M 3122 3366 
L 3122 2828 
Q 2878 2963 2633 3030 
Q 2388 3097 2138 3097 
Q 1578 3097 1268 2742 
Q 959 2388 959 1747 
Q 959 1106 1268 751 
Q 1578 397 2138 397 
Q 2388 397 2633 464 
Q 2878 531 3122 666 
L 3122 134 
Q 2881 22 2623 -34 
Q 2366 -91 2075 -91 
Q 1284 -91 818 406 
Q 353 903 353 1747 
Q 353 2603 823 3093 
Q 1294 3584 2113 3584 
Q 2378 3584 2631 3529 
Q 2884 3475 3122 3366 
z
" transform="scale(0.015625)"/>
      </defs>
      <use xlink:href="#DejaVuSans-45"/>
      <use xlink:href="#DejaVuSans-78" x="63.183594"/>
      <use xlink:href="#DejaVuSans-61" x="122.363281"/>
      <use xlink:href="#DejaVuSans-63" x="183.642578"/>
      <use xlink:href="#DejaVuSans-74" x="238.623047"/>
     </g>
    </g>
   </g>
  </g>
  <g id="axes_2">
   <g id="patch_8">
    <path d="M 630.981818 384.48 
L 1036.8 384.48 
L 1036.8 51.84 
L 630.981818 51.84 
z
" style="fill: #ffffff"/>
   </g>
   <g id="matplotlib.axis_3">
    <g id="xtick_7">
     <g id="line2d_18">
      <g>
       <use xlink:href="#m097a1c0216" x="649.428099" y="384.48" style="stroke: #000000; stroke-width: 0.8"/>
      </g>
     </g>
     <g id="text_18">
      <!-- 0 -->
      <g transform="translate(646.246849 399.078438) scale(0.1 -0.1)">
       <use xlink:href="#DejaVuSans-30"/>
      </g>
     </g>
    </g>
    <g id="xtick_8">
     <g id="line2d_19">
      <g>
       <use xlink:href="#m097a1c0216" x="723.213223" y="384.48" style="stroke: #000000; stroke-width: 0.8"/>
      </g>
     </g>
     <g id="text_19">
      <!-- 2 -->
      <g transform="translate(720.031973 399.078438) scale(0.1 -0.1)">
       <use xlink:href="#DejaVuSans-32"/>
      </g>
     </g>
    </g>
    <g id="xtick_9">
     <g id="line2d_20">
      <g>
       <use xlink:href="#m097a1c0216" x="796.998347" y="384.48" style="stroke: #000000; stroke-width: 0.8"/>
      </g>
     </g>
     <g id="text_20">
      <!-- 4 -->
      <g transform="translate(793.817097 399.078438) scale(0.1 -0.1)">
       <use xlink:href="#DejaVuSans-34"/>
      </g>
     </g>
    </g>
    <g id="xtick_10">
     <g id="line2d_21">
      <g>
       <use xlink:href="#m097a1c0216" x="870.783471" y="384.48" style="stroke: #000000; stroke-width: 0.8"/>
      </g>
     </g>
     <g id="text_21">
      <!-- 6 -->
      <g transform="translate(867.602221 399.078438) scale(0.1 -0.1)">
       <use xlink:href="#DejaVuSans-36"/>
      </g>
     </g>
    </g>
    <g id="xtick_11">
     <g id="line2d_22">
      <g>
       <use xlink:href="#m097a1c0216" x="944.568595" y="384.48" style="stroke: #000000; stroke-width: 0.8"/>
      </g>
     </g>
     <g id="text_22">
      <!-- 8 -->
      <g transform="translate(941.387345 399.078438) scale(0.1 -0.1)">
       <use xlink:href="#DejaVuSans-38"/>
      </g>
     </g>
    </g>
    <g id="xtick_12">
     <g id="line2d_23">
      <g>
       <use xlink:href="#m097a1c0216" x="1018.353719" y="384.48" style="stroke: #000000; stroke-width: 0.8"/>
      </g>
     </g>
     <g id="text_23">
      <!-- 10 -->
      <g transform="translate(1011.991219 399.078438) scale(0.1 -0.1)">
       <use xlink:href="#DejaVuSans-31"/>
       <use xlink:href="#DejaVuSans-30" x="63.623047"/>
      </g>
     </g>
    </g>
    <g id="text_24">
     <!-- time -->
     <g transform="translate(822.594815 412.756563) scale(0.1 -0.1)">
      <use xlink:href="#DejaVuSans-74"/>
      <use xlink:href="#DejaVuSans-69" x="39.208984"/>
      <use xlink:href="#DejaVuSans-6d" x="66.992188"/>
      <use xlink:href="#DejaVuSans-65" x="164.404297"/>
     </g>
    </g>
   </g>
   <g id="matplotlib.axis_4">
    <g id="ytick_8">
     <g id="line2d_24">
      <g>
       <use xlink:href="#m7cff8dd93f" x="630.981818" y="371.430934" style="stroke: #000000; stroke-width: 0.8"/>
      </g>
     </g>
     <g id="text_25">
      <!-- −1.5 -->
      <g transform="translate(599.699006 375.230152) scale(0.1 -0.1)">
       <use xlink:href="#DejaVuSans-2212"/>
       <use xlink:href="#DejaVuSans-31" x="83.789062"/>
       <use xlink:href="#DejaVuSans-2e" x="147.412109"/>
       <use xlink:href="#DejaVuSans-35" x="179.199219"/>
      </g>
     </g>
    </g>
    <g id="ytick_9">
     <g id="line2d_25">
      <g>
       <use xlink:href="#m7cff8dd93f" x="630.981818" y="316.402188" style="stroke: #000000; stroke-width: 0.8"/>
      </g>
     </g>
     <g id="text_26">
      <!-- −1.0 -->
      <g transform="translate(599.699006 320.201407) scale(0.1 -0.1)">
       <use xlink:href="#DejaVuSans-2212"/>
       <use xlink:href="#DejaVuSans-31" x="83.789062"/>
       <use xlink:href="#DejaVuSans-2e" x="147.412109"/>
       <use xlink:href="#DejaVuSans-30" x="179.199219"/>
      </g>
     </g>
    </g>
    <g id="ytick_10">
     <g id="line2d_26">
      <g>
       <use xlink:href="#m7cff8dd93f" x="630.981818" y="261.373442" style="stroke: #000000; stroke-width: 0.8"/>
      </g>
     </g>
     <g id="text_27">
      <!-- −0.5 -->
      <g transform="translate(599.699006 265.172661) scale(0.1 -0.1)">
       <use xlink:href="#DejaVuSans-2212"/>
       <use xlink:href="#DejaVuSans-30" x="83.789062"/>
       <use xlink:href="#DejaVuSans-2e" x="147.412109"/>
       <use xlink:href="#DejaVuSans-35" x="179.199219"/>
      </g>
     </g>
    </g>
    <g id="ytick_11">
     <g id="line2d_27">
      <g>
       <use xlink:href="#m7cff8dd93f" x="630.981818" y="206.344697" style="stroke: #000000; stroke-width: 0.8"/>
      </g>
     </g>
     <g id="text_28">
      <!-- 0.0 -->
      <g transform="translate(608.078693 210.143915) scale(0.1 -0.1)">
       <use xlink:href="#DejaVuSans-30"/>
       <use xlink:href="#DejaVuSans-2e" x="63.623047"/>
       <use xlink:href="#DejaVuSans-30" x="95.410156"/>
      </g>
     </g>
    </g>
    <g id="ytick_12">
     <g id="line2d_28">
      <g>
       <use xlink:href="#m7cff8dd93f" x="630.981818" y="151.315951" style="stroke: #000000; stroke-width: 0.8"/>
      </g>
     </g>
     <g id="text_29">
      <!-- 0.5 -->
      <g transform="translate(608.078693 155.11517) scale(0.1 -0.1)">
       <use xlink:href="#DejaVuSans-30"/>
       <use xlink:href="#DejaVuSans-2e" x="63.623047"/>
       <use xlink:href="#DejaVuSans-35" x="95.410156"/>
      </g>
     </g>
    </g>
    <g id="ytick_13">
     <g id="line2d_29">
      <g>
       <use xlink:href="#m7cff8dd93f" x="630.981818" y="96.287205" style="stroke: #000000; stroke-width: 0.8"/>
      </g>
     </g>
     <g id="text_30">
      <!-- 1.0 -->
      <g transform="translate(608.078693 100.086424) scale(0.1 -0.1)">
       <use xlink:href="#DejaVuSans-31"/>
       <use xlink:href="#DejaVuSans-2e" x="63.623047"/>
       <use xlink:href="#DejaVuSans-30" x="95.410156"/>
      </g>
     </g>
    </g>
    <g id="text_31">
     <!-- velocity -->
     <g transform="translate(593.619318 237.702187) rotate(-90) scale(0.1 -0.1)">
      <defs>
       <path id="DejaVuSans-76" d="M 191 3500 
L 800 3500 
L 1894 563 
L 2988 3500 
L 3597 3500 
L 2284 0 
L 1503 0 
L 191 3500 
z
" transform="scale(0.015625)"/>
       <path id="DejaVuSans-79" d="M 2059 -325 
Q 1816 -950 1584 -1140 
Q 1353 -1331 966 -1331 
L 506 -1331 
L 506 -850 
L 844 -850 
Q 1081 -850 1212 -737 
Q 1344 -625 1503 -206 
L 1606 56 
L 191 3500 
L 800 3500 
L 1894 763 
L 2988 3500 
L 3597 3500 
L 2059 -325 
z
" transform="scale(0.015625)"/>
      </defs>
      <use xlink:href="#DejaVuSans-76"/>
      <use xlink:href="#DejaVuSans-65" x="59.179688"/>
      <use xlink:href="#DejaVuSans-6c" x="120.703125"/>
      <use xlink:href="#DejaVuSans-6f" x="148.486328"/>
      <use xlink:href="#DejaVuSans-63" x="209.667969"/>
      <use xlink:href="#DejaVuSans-69" x="264.648438"/>
      <use xlink:href="#DejaVuSans-74" x="292.431641"/>
      <use xlink:href="#DejaVuSans-79" x="331.640625"/>
     </g>
    </g>
   </g>
   <g id="line2d_30">
    <path d="M 649.428099 206.344697 
L 653.117355 217.350446 
L 656.806612 228.356195 
L 660.495868 239.251887 
L 664.185124 249.927463 
L 667.87438 260.273968 
L 671.563636 270.184645 
L 675.252893 279.556029 
L 678.942149 288.289014 
L 682.631405 296.289886 
L 686.320661 303.471314 
L 690.009917 309.753291 
L 693.699174 315.064001 
L 697.38843 319.340625 
L 701.077686 322.530057 
L 704.766942 324.589529 
L 708.456198 325.487147 
L 712.145455 325.202317 
L 715.834711 323.726063 
L 719.523967 321.061232 
L 723.213223 317.222588 
L 726.902479 312.236779 
L 730.591736 306.14219 
L 734.280992 298.988681 
L 737.970248 290.837196 
L 741.659504 281.759272 
L 745.34876 271.836423 
L 749.038017 261.159428 
L 752.727273 249.827516 
L 756.416529 237.947457 
L 760.105785 225.632569 
L 763.795041 213.001654 
L 767.484298 200.17786 
L 771.173554 187.287496 
L 774.86281 174.458801 
L 778.552066 161.820678 
L 782.241322 149.501414 
L 785.930579 137.62739 
L 789.619835 126.321798 
L 793.309091 115.70338 
L 796.998347 105.885191 
L 800.687603 96.973415 
L 804.37686 89.066234 
L 808.066116 82.252766 
L 811.755372 76.612083 
L 815.444628 72.212318 
L 819.133884 69.10988 
L 822.82314 67.348766 
L 826.512397 66.96 
L 830.201653 67.961193 
L 833.890909 70.356233 
L 837.580165 74.135109 
L 841.269421 79.273868 
L 844.958678 85.734724 
L 848.647934 93.466288 
L 852.33719 102.403952 
L 856.026446 112.4704 
L 859.715702 123.576255 
L 863.404959 135.620853 
L 867.094215 148.493136 
L 870.783471 162.072657 
L 874.472727 176.230694 
L 878.161983 190.831451 
L 881.85124 205.733348 
L 885.540496 220.790377 
L 889.229752 235.85352 
L 892.919008 250.772207 
L 896.608264 265.395805 
L 900.297521 279.575128 
L 903.986777 293.163939 
L 907.676033 306.020447 
L 911.365289 318.008762 
L 915.054545 329.00032 
L 918.743802 338.875237 
L 922.433058 347.523597 
L 926.122314 354.846653 
L 929.81157 360.757919 
L 933.500826 365.184166 
L 937.190083 368.06628 
L 940.879339 369.36 
L 944.568595 369.036504 
L 948.257851 367.082855 
L 951.947107 363.502288 
L 955.636364 358.314339 
L 959.32562 351.554815 
L 963.014876 343.275594 
L 966.704132 333.544271 
L 970.393388 322.44364 
L 974.082645 310.071013 
L 977.771901 296.537397 
L 981.461157 281.966517 
L 985.150413 266.493711 
L 988.839669 250.264686 
L 992.528926 233.434171 
L 996.218182 216.164456 
L 999.907438 198.623847 
L 1003.596694 180.98504 
L 1007.28595 163.423441 
L 1010.975207 146.115439 
L 1014.664463 129.23665 
L 1018.353719 112.960153 
" clip-path="url(#p3e5a50e3cf)" style="fill: none; stroke: #1f77b4; stroke-width: 1.5; stroke-linecap: square"/>
   </g>
   <g id="line2d_31">
    <path d="M 649.428099 206.344697 
L 653.117355 217.332112 
L 656.806612 228.209745 
L 660.495868 238.868909 
L 664.185124 249.203102 
L 667.87438 259.109069 
L 671.563636 268.487831 
L 675.252893 277.245679 
L 678.942149 285.295108 
L 682.631405 292.555691 
L 686.320661 298.954882 
L 690.009917 304.428743 
L 693.699174 308.92258 
L 697.38843 312.391493 
L 701.077686 314.800822 
L 704.766942 316.126492 
L 708.456198 316.35526 
L 712.145455 315.484838 
L 715.834711 313.523924 
L 719.523967 310.49211 
L 723.213223 306.41969 
L 726.902479 301.347354 
L 730.591736 295.325783 
L 734.280992 288.415141 
L 737.970248 280.68448 
L 741.659504 272.211039 
L 745.34876 263.079484 
L 749.038017 253.381054 
L 752.727273 243.212652 
L 756.416529 232.675878 
L 760.105785 221.876011 
L 763.795041 210.92096 
L 767.484298 199.920185 
L 771.173554 188.983601 
L 774.86281 178.220484 
L 778.552066 167.738375 
L 782.241322 157.642007 
L 785.930579 148.03226 
L 789.619835 139.005152 
L 793.309091 130.650879 
L 796.998347 123.052913 
L 800.687603 116.287171 
L 804.37686 110.421254 
L 808.066116 105.513772 
L 811.755372 101.61376 
L 815.444628 98.760184 
L 819.133884 96.981558 
L 822.82314 96.295651 
L 826.512397 96.709319 
L 830.201653 98.218427 
L 833.890909 100.807897 
L 837.580165 104.451855 
L 841.269421 109.113894 
L 844.958678 114.74743 
L 848.647934 121.296176 
L 852.33719 128.694698 
L 856.026446 136.869074 
L 859.715702 145.737627 
L 863.404959 155.211746 
L 867.094215 165.196769 
L 870.783471 175.592928 
L 874.472727 186.296348 
L 878.161983 197.200085 
L 881.85124 208.195192 
L 885.540496 219.17181 
L 889.229752 230.020263 
L 892.919008 240.632158 
L 896.608264 250.901463 
L 900.297521 260.725572 
L 903.986777 270.006326 
L 907.676033 278.650993 
L 911.365289 286.5732 
L 915.054545 293.693791 
L 918.743802 299.941618 
L 922.433058 305.254255 
L 926.122314 309.578621 
L 929.81157 312.871507 
L 933.500826 315.100013 
L 937.190083 316.241872 
L 940.879339 316.285675 
L 944.568595 315.230983 
L 948.257851 313.088336 
L 951.947107 309.879142 
L 955.636364 305.635465 
L 959.32562 300.399708 
L 963.014876 294.224185 
L 966.704132 287.170599 
L 970.393388 279.309427 
L 974.082645 270.719215 
L 977.771901 261.485795 
L 981.461157 251.701423 
L 985.150413 241.463862 
L 988.839669 230.875401 
L 992.528926 220.041838 
L 996.218182 209.071418 
L 999.907438 198.073753 
L 1003.596694 187.158728 
L 1007.28595 176.435404 
L 1010.975207 166.010923 
L 1014.664463 155.989444 
L 1018.353719 146.471098 
" clip-path="url(#p3e5a50e3cf)" style="fill: none; stroke: #ff7f0e; stroke-width: 1.5; stroke-linecap: square"/>
   </g>
   <g id="patch_9">
    <path d="M 630.981818 384.48 
L 630.981818 51.84 
" style="fill: none; stroke: #000000; stroke-width: 0.8; stroke-linejoin: miter; stroke-linecap: square"/>
   </g>
   <g id="patch_10">
    <path d="M 1036.8 384.48 
L 1036.8 51.84 
" style="fill: none; stroke: #000000; stroke-width: 0.8; stroke-linejoin: miter; stroke-linecap: square"/>
   </g>
   <g id="patch_11">
    <path d="M 630.981818 384.48 
L 1036.8 384.48 
" style="fill: none; stroke: #000000; stroke-width: 0.8; stroke-linejoin: miter; stroke-linecap: square"/>
   </g>
   <g id="patch_12">
    <path d="M 630.981818 51.84 
L 1036.8 51.84 
" style="fill: none; stroke: #000000; stroke-width: 0.8; stroke-linejoin: miter; stroke-linecap: square"/>
   </g>
   <g id="legend_2">
    <g id="patch_13">
     <path d="M 970.015625 89.19625 
L 1029.8 89.19625 
Q 1031.8 89.19625 1031.8 87.19625 
L 1031.8 58.84 
Q 1031.8 56.84 1029.8 56.84 
L 970.015625 56.84 
Q 968.015625 56.84 968.015625 58.84 
L 968.015625 87.19625 
Q 968.015625 89.19625 970.015625 89.19625 
z
" style="fill: #ffffff; opacity: 0.8; stroke: #cccccc; stroke-linejoin: miter"/>
    </g>
    <g id="line2d_32">
     <path d="M 972.015625 64.938437 
L 982.015625 64.938437 
L 992.015625 64.938437 
" style="fill: none; stroke: #1f77b4; stroke-width: 1.5; stroke-linecap: square"/>
    </g>
    <g id="text_32">
     <!-- Euler -->
     <g transform="translate(1000.015625 68.438437) scale(0.1 -0.1)">
      <use xlink:href="#DejaVuSans-45"/>
      <use xlink:href="#DejaVuSans-75" x="63.183594"/>
      <use xlink:href="#DejaVuSans-6c" x="126.5625"/>
      <use xlink:href="#DejaVuSans-65" x="154.345703"/>
      <use xlink:href="#DejaVuSans-72" x="215.869141"/>
     </g>
    </g>
    <g id="line2d_33">
     <path d="M 972.015625 79.616562 
L 982.015625 79.616562 
L 992.015625 79.616562 
" style="fill: none; stroke: #ff7f0e; stroke-width: 1.5; stroke-linecap: square"/>
    </g>
    <g id="text_33">
     <!-- Exact -->
     <g transform="translate(1000.015625 83.116562) scale(0.1 -0.1)">
      <use xlink:href="#DejaVuSans-45"/>
      <use xlink:href="#DejaVuSans-78" x="63.183594"/>
      <use xlink:href="#DejaVuSans-61" x="122.363281"/>
      <use xlink:href="#DejaVuSans-63" x="183.642578"/>
      <use xlink:href="#DejaVuSans-74" x="238.623047"/>
     </g>
    </g>
   </g>
  </g>
 </g>
 <defs>
  <clipPath id="p6aeba4001a">
   <rect x="144" y="51.84" width="405.818182" height="332.64"/>
  </clipPath>
  <clipPath id="p3e5a50e3cf">
   <rect x="630.981818" y="51.84" width="405.818182" height="332.64"/>
  </clipPath>
 </defs>
</svg>
