<?xml version="1.0" encoding="utf-8" standalone="no"?>
<!DOCTYPE svg PUBLIC "-//W3C//DTD SVG 1.1//EN"
  "http://www.w3.org/Graphics/SVG/1.1/DTD/svg11.dtd">
<svg xmlns:xlink="http://www.w3.org/1999/xlink" width="576pt" height="288pt" viewBox="0 0 576 288" xmlns="http://www.w3.org/2000/svg" version="1.1">
 <metadata>
  <rdf:RDF xmlns:dc="http://purl.org/dc/elements/1.1/" xmlns:cc="http://creativecommons.org/ns#" xmlns:rdf="http://www.w3.org/1999/02/22-rdf-syntax-ns#">
   <cc:Work>
    <dc:type rdf:resource="http://purl.org/dc/dcmitype/StillImage"/>
    <dc:date>2024-05-07T12:18:59.625195</dc:date>
    <dc:format>image/svg+xml</dc:format>
    <dc:creator>
     <cc:Agent>
      <dc:title>Matplotlib v3.8.4, https://matplotlib.org/</dc:title>
     </cc:Agent>
    </dc:creator>
   </cc:Work>
  </rdf:RDF>
 </metadata>
 <defs>
  <style type="text/css">*{stroke-linejoin: round; stroke-linecap: butt}</style>
 </defs>
 <g id="figure_1">
  <g id="patch_1">
   <path d="M 0 288 
L 576 288 
L 576 0 
L 0 0 
z
" style="fill: #ffffff"/>
  </g>
  <g id="axes_1">
   <g id="patch_2">
    <path d="M 54.2 246.04 
L 555.615 246.04 
L 555.615 14.76 
L 54.2 14.76 
z
" style="fill: #ffffff"/>
   </g>
   <g id="matplotlib.axis_1">
    <g id="xtick_1">
     <g id="line2d_1">
      <defs>
       <path id="m1e668ceda9" d="M 0 0 
L 0 3.5 
" style="stroke: #000000; stroke-width: 0.8"/>
      </defs>
      <g>
       <use xlink:href="#m1e668ceda9" x="54.2" y="246.04" style="stroke: #000000; stroke-width: 0.8"/>
      </g>
     </g>
     <g id="text_1">
      <!-- 0 -->
      <g transform="translate(51.01875 260.638438) scale(0.1 -0.1)">
       <defs>
        <path id="DejaVuSans-30" d="M 2034 4250 
Q 1547 4250 1301 3770 
Q 1056 3291 1056 2328 
Q 1056 1369 1301 889 
Q 1547 409 2034 409 
Q 2525 409 2770 889 
Q 3016 1369 3016 2328 
Q 3016 3291 2770 3770 
Q 2525 4250 2034 4250 
z
M 2034 4750 
Q 2819 4750 3233 4129 
Q 3647 3509 3647 2328 
Q 3647 1150 3233 529 
Q 2819 -91 2034 -91 
Q 1250 -91 836 529 
Q 422 1150 422 2328 
Q 422 3509 836 4129 
Q 1250 4750 2034 4750 
z
" transform="scale(0.015625)"/>
       </defs>
       <use xlink:href="#DejaVuSans-30"/>
      </g>
     </g>
    </g>
    <g id="xtick_2">
     <g id="line2d_2">
      <g>
       <use xlink:href="#m1e668ceda9" x="116.876875" y="246.04" style="stroke: #000000; stroke-width: 0.8"/>
      </g>
     </g>
     <g id="text_2">
      <!-- 25 -->
      <g transform="translate(110.514375 260.638438) scale(0.1 -0.1)">
       <defs>
        <path id="DejaVuSans-32" d="M 1228 531 
L 3431 531 
L 3431 0 
L 469 0 
L 469 531 
Q 828 903 1448 1529 
Q 2069 2156 2228 2338 
Q 2531 2678 2651 2914 
Q 2772 3150 2772 3378 
Q 2772 3750 2511 3984 
Q 2250 4219 1831 4219 
Q 1534 4219 1204 4116 
Q 875 4013 500 3803 
L 500 4441 
Q 881 4594 1212 4672 
Q 1544 4750 1819 4750 
Q 2544 4750 2975 4387 
Q 3406 4025 3406 3419 
Q 3406 3131 3298 2873 
Q 3191 2616 2906 2266 
Q 2828 2175 2409 1742 
Q 1991 1309 1228 531 
z
" transform="scale(0.015625)"/>
        <path id="DejaVuSans-35" d="M 691 4666 
L 3169 4666 
L 3169 4134 
L 1269 4134 
L 1269 2991 
Q 1406 3038 1543 3061 
Q 1681 3084 1819 3084 
Q 2600 3084 3056 2656 
Q 3513 2228 3513 1497 
Q 3513 744 3044 326 
Q 2575 -91 1722 -91 
Q 1428 -91 1123 -41 
Q 819 9 494 109 
L 494 744 
Q 775 591 1075 516 
Q 1375 441 1709 441 
Q 2250 441 2565 725 
Q 2881 1009 2881 1497 
Q 2881 1984 2565 2268 
Q 2250 2553 1709 2553 
Q 1456 2553 1204 2497 
Q 953 2441 691 2322 
L 691 4666 
z
" transform="scale(0.015625)"/>
       </defs>
       <use xlink:href="#DejaVuSans-32"/>
       <use xlink:href="#DejaVuSans-35" x="63.623047"/>
      </g>
     </g>
    </g>
    <g id="xtick_3">
     <g id="line2d_3">
      <g>
       <use xlink:href="#m1e668ceda9" x="179.55375" y="246.04" style="stroke: #000000; stroke-width: 0.8"/>
      </g>
     </g>
     <g id="text_3">
      <!-- 50 -->
      <g transform="translate(173.19125 260.638438) scale(0.1 -0.1)">
       <use xlink:href="#DejaVuSans-35"/>
       <use xlink:href="#DejaVuSans-30" x="63.623047"/>
      </g>
     </g>
    </g>
    <g id="xtick_4">
     <g id="line2d_4">
      <g>
       <use xlink:href="#m1e668ceda9" x="242.230625" y="246.04" style="stroke: #000000; stroke-width: 0.8"/>
      </g>
     </g>
     <g id="text_4">
      <!-- 75 -->
      <g transform="translate(235.868125 260.638438) scale(0.1 -0.1)">
       <defs>
        <path id="DejaVuSans-37" d="M 525 4666 
L 3525 4666 
L 3525 4397 
L 1831 0 
L 1172 0 
L 2766 4134 
L 525 4134 
L 525 4666 
z
" transform="scale(0.015625)"/>
       </defs>
       <use xlink:href="#DejaVuSans-37"/>
       <use xlink:href="#DejaVuSans-35" x="63.623047"/>
      </g>
     </g>
    </g>
    <g id="xtick_5">
     <g id="line2d_5">
      <g>
       <use xlink:href="#m1e668ceda9" x="304.9075" y="246.04" style="stroke: #000000; stroke-width: 0.8"/>
      </g>
     </g>
     <g id="text_5">
      <!-- 100 -->
      <g transform="translate(295.36375 260.638438) scale(0.1 -0.1)">
       <defs>
        <path id="DejaVuSans-31" d="M 794 531 
L 1825 531 
L 1825 4091 
L 703 3866 
L 703 4441 
L 1819 4666 
L 2450 4666 
L 2450 531 
L 3481 531 
L 3481 0 
L 794 0 
L 794 531 
z
" transform="scale(0.015625)"/>
       </defs>
       <use xlink:href="#DejaVuSans-31"/>
       <use xlink:href="#DejaVuSans-30" x="63.623047"/>
       <use xlink:href="#DejaVuSans-30" x="127.246094"/>
      </g>
     </g>
    </g>
    <g id="xtick_6">
     <g id="line2d_6">
      <g>
       <use xlink:href="#m1e668ceda9" x="367.584375" y="246.04" style="stroke: #000000; stroke-width: 0.8"/>
      </g>
     </g>
     <g id="text_6">
      <!-- 125 -->
      <g transform="translate(358.040625 260.638438) scale(0.1 -0.1)">
       <use xlink:href="#DejaVuSans-31"/>
       <use xlink:href="#DejaVuSans-32" x="63.623047"/>
       <use xlink:href="#DejaVuSans-35" x="127.246094"/>
      </g>
     </g>
    </g>
    <g id="xtick_7">
     <g id="line2d_7">
      <g>
       <use xlink:href="#m1e668ceda9" x="430.26125" y="246.04" style="stroke: #000000; stroke-width: 0.8"/>
      </g>
     </g>
     <g id="text_7">
      <!-- 150 -->
      <g transform="translate(420.7175 260.638438) scale(0.1 -0.1)">
       <use xlink:href="#DejaVuSans-31"/>
       <use xlink:href="#DejaVuSans-35" x="63.623047"/>
       <use xlink:href="#DejaVuSans-30" x="127.246094"/>
      </g>
     </g>
    </g>
    <g id="xtick_8">
     <g id="line2d_8">
      <g>
       <use xlink:href="#m1e668ceda9" x="492.938125" y="246.04" style="stroke: #000000; stroke-width: 0.8"/>
      </g>
     </g>
     <g id="text_8">
      <!-- 175 -->
      <g transform="translate(483.394375 260.638438) scale(0.1 -0.1)">
       <use xlink:href="#DejaVuSans-31"/>
       <use xlink:href="#DejaVuSans-37" x="63.623047"/>
       <use xlink:href="#DejaVuSans-35" x="127.246094"/>
      </g>
     </g>
    </g>
    <g id="xtick_9">
     <g id="line2d_9">
      <g>
       <use xlink:href="#m1e668ceda9" x="555.615" y="246.04" style="stroke: #000000; stroke-width: 0.8"/>
      </g>
     </g>
     <g id="text_9">
      <!-- 200 -->
      <g transform="translate(546.07125 260.638438) scale(0.1 -0.1)">
       <use xlink:href="#DejaVuSans-32"/>
       <use xlink:href="#DejaVuSans-30" x="63.623047"/>
       <use xlink:href="#DejaVuSans-30" x="127.246094"/>
      </g>
     </g>
    </g>
    <g id="text_10">
     <!-- time / s -->
     <g transform="translate(286.144219 274.316562) scale(0.1 -0.1)">
      <defs>
       <path id="DejaVuSans-74" d="M 1172 4494 
L 1172 3500 
L 2356 3500 
L 2356 3053 
L 1172 3053 
L 1172 1153 
Q 1172 725 1289 603 
Q 1406 481 1766 481 
L 2356 481 
L 2356 0 
L 1766 0 
Q 1100 0 847 248 
Q 594 497 594 1153 
L 594 3053 
L 172 3053 
L 172 3500 
L 594 3500 
L 594 4494 
L 1172 4494 
z
" transform="scale(0.015625)"/>
       <path id="DejaVuSans-69" d="M 603 3500 
L 1178 3500 
L 1178 0 
L 603 0 
L 603 3500 
z
M 603 4863 
L 1178 4863 
L 1178 4134 
L 603 4134 
L 603 4863 
z
" transform="scale(0.015625)"/>
       <path id="DejaVuSans-6d" d="M 3328 2828 
Q 3544 3216 3844 3400 
Q 4144 3584 4550 3584 
Q 5097 3584 5394 3201 
Q 5691 2819 5691 2113 
L 5691 0 
L 5113 0 
L 5113 2094 
Q 5113 2597 4934 2840 
Q 4756 3084 4391 3084 
Q 3944 3084 3684 2787 
Q 3425 2491 3425 1978 
L 3425 0 
L 2847 0 
L 2847 2094 
Q 2847 2600 2669 2842 
Q 2491 3084 2119 3084 
Q 1678 3084 1418 2786 
Q 1159 2488 1159 1978 
L 1159 0 
L 581 0 
L 581 3500 
L 1159 3500 
L 1159 2956 
Q 1356 3278 1631 3431 
Q 1906 3584 2284 3584 
Q 2666 3584 2933 3390 
Q 3200 3197 3328 2828 
z
" transform="scale(0.015625)"/>
       <path id="DejaVuSans-65" d="M 3597 1894 
L 3597 1613 
L 953 1613 
Q 991 1019 1311 708 
Q 1631 397 2203 397 
Q 2534 397 2845 478 
Q 3156 559 3463 722 
L 3463 178 
Q 3153 47 2828 -22 
Q 2503 -91 2169 -91 
Q 1331 -91 842 396 
Q 353 884 353 1716 
Q 353 2575 817 3079 
Q 1281 3584 2069 3584 
Q 2775 3584 3186 3129 
Q 3597 2675 3597 1894 
z
M 3022 2063 
Q 3016 2534 2758 2815 
Q 2500 3097 2075 3097 
Q 1594 3097 1305 2825 
Q 1016 2553 972 2059 
L 3022 2063 
z
" transform="scale(0.015625)"/>
       <path id="DejaVuSans-20" transform="scale(0.015625)"/>
       <path id="DejaVuSans-2f" d="M 1625 4666 
L 2156 4666 
L 531 -594 
L 0 -594 
L 1625 4666 
z
" transform="scale(0.015625)"/>
       <path id="DejaVuSans-73" d="M 2834 3397 
L 2834 2853 
Q 2591 2978 2328 3040 
Q 2066 3103 1784 3103 
Q 1356 3103 1142 2972 
Q 928 2841 928 2578 
Q 928 2378 1081 2264 
Q 1234 2150 1697 2047 
L 1894 2003 
Q 2506 1872 2764 1633 
Q 3022 1394 3022 966 
Q 3022 478 2636 193 
Q 2250 -91 1575 -91 
Q 1294 -91 989 -36 
Q 684 19 347 128 
L 347 722 
Q 666 556 975 473 
Q 1284 391 1588 391 
Q 1994 391 2212 530 
Q 2431 669 2431 922 
Q 2431 1156 2273 1281 
Q 2116 1406 1581 1522 
L 1381 1569 
Q 847 1681 609 1914 
Q 372 2147 372 2553 
Q 372 3047 722 3315 
Q 1072 3584 1716 3584 
Q 2034 3584 2315 3537 
Q 2597 3491 2834 3397 
z
" transform="scale(0.015625)"/>
      </defs>
      <use xlink:href="#DejaVuSans-74"/>
      <use xlink:href="#DejaVuSans-69" x="39.208984"/>
      <use xlink:href="#DejaVuSans-6d" x="66.992188"/>
      <use xlink:href="#DejaVuSans-65" x="164.404297"/>
      <use xlink:href="#DejaVuSans-20" x="225.927734"/>
      <use xlink:href="#DejaVuSans-2f" x="257.714844"/>
      <use xlink:href="#DejaVuSans-20" x="291.40625"/>
      <use xlink:href="#DejaVuSans-73" x="323.193359"/>
     </g>
    </g>
   </g>
   <g id="matplotlib.axis_2">
    <g id="ytick_1">
     <g id="line2d_10">
      <defs>
       <path id="m5cae7f97d2" d="M 0 0 
L -3.5 0 
" style="stroke: #000000; stroke-width: 0.8"/>
      </defs>
      <g>
       <use xlink:href="#m5cae7f97d2" x="54.2" y="235.026667" style="stroke: #000000; stroke-width: 0.8"/>
      </g>
     </g>
     <g id="text_11">
      <!-- 0.00 -->
      <g transform="translate(24.934375 238.825885) scale(0.1 -0.1)">
       <defs>
        <path id="DejaVuSans-2e" d="M 684 794 
L 1344 794 
L 1344 0 
L 684 0 
L 684 794 
z
" transform="scale(0.015625)"/>
       </defs>
       <use xlink:href="#DejaVuSans-30"/>
       <use xlink:href="#DejaVuSans-2e" x="63.623047"/>
       <use xlink:href="#DejaVuSans-30" x="95.410156"/>
       <use xlink:href="#DejaVuSans-30" x="159.033203"/>
      </g>
     </g>
    </g>
    <g id="ytick_2">
     <g id="line2d_11">
      <g>
       <use xlink:href="#m5cae7f97d2" x="54.2" y="207.493333" style="stroke: #000000; stroke-width: 0.8"/>
      </g>
     </g>
     <g id="text_12">
      <!-- 0.25 -->
      <g transform="translate(24.934375 211.292552) scale(0.1 -0.1)">
       <use xlink:href="#DejaVuSans-30"/>
       <use xlink:href="#DejaVuSans-2e" x="63.623047"/>
       <use xlink:href="#DejaVuSans-32" x="95.410156"/>
       <use xlink:href="#DejaVuSans-35" x="159.033203"/>
      </g>
     </g>
    </g>
    <g id="ytick_3">
     <g id="line2d_12">
      <g>
       <use xlink:href="#m5cae7f97d2" x="54.2" y="179.96" style="stroke: #000000; stroke-width: 0.8"/>
      </g>
     </g>
     <g id="text_13">
      <!-- 0.50 -->
      <g transform="translate(24.934375 183.759219) scale(0.1 -0.1)">
       <use xlink:href="#DejaVuSans-30"/>
       <use xlink:href="#DejaVuSans-2e" x="63.623047"/>
       <use xlink:href="#DejaVuSans-35" x="95.410156"/>
       <use xlink:href="#DejaVuSans-30" x="159.033203"/>
      </g>
     </g>
    </g>
    <g id="ytick_4">
     <g id="line2d_13">
      <g>
       <use xlink:href="#m5cae7f97d2" x="54.2" y="152.426667" style="stroke: #000000; stroke-width: 0.8"/>
      </g>
     </g>
     <g id="text_14">
      <!-- 0.75 -->
      <g transform="translate(24.934375 156.225885) scale(0.1 -0.1)">
       <use xlink:href="#DejaVuSans-30"/>
       <use xlink:href="#DejaVuSans-2e" x="63.623047"/>
       <use xlink:href="#DejaVuSans-37" x="95.410156"/>
       <use xlink:href="#DejaVuSans-35" x="159.033203"/>
      </g>
     </g>
    </g>
    <g id="ytick_5">
     <g id="line2d_14">
      <g>
       <use xlink:href="#m5cae7f97d2" x="54.2" y="124.893333" style="stroke: #000000; stroke-width: 0.8"/>
      </g>
     </g>
     <g id="text_15">
      <!-- 1.00 -->
      <g transform="translate(24.934375 128.692552) scale(0.1 -0.1)">
       <use xlink:href="#DejaVuSans-31"/>
       <use xlink:href="#DejaVuSans-2e" x="63.623047"/>
       <use xlink:href="#DejaVuSans-30" x="95.410156"/>
       <use xlink:href="#DejaVuSans-30" x="159.033203"/>
      </g>
     </g>
    </g>
    <g id="ytick_6">
     <g id="line2d_15">
      <g>
       <use xlink:href="#m5cae7f97d2" x="54.2" y="97.36" style="stroke: #000000; stroke-width: 0.8"/>
      </g>
     </g>
     <g id="text_16">
      <!-- 1.25 -->
      <g transform="translate(24.934375 101.159219) scale(0.1 -0.1)">
       <use xlink:href="#DejaVuSans-31"/>
       <use xlink:href="#DejaVuSans-2e" x="63.623047"/>
       <use xlink:href="#DejaVuSans-32" x="95.410156"/>
       <use xlink:href="#DejaVuSans-35" x="159.033203"/>
      </g>
     </g>
    </g>
    <g id="ytick_7">
     <g id="line2d_16">
      <g>
       <use xlink:href="#m5cae7f97d2" x="54.2" y="69.826667" style="stroke: #000000; stroke-width: 0.8"/>
      </g>
     </g>
     <g id="text_17">
      <!-- 1.50 -->
      <g transform="translate(24.934375 73.625885) scale(0.1 -0.1)">
       <use xlink:href="#DejaVuSans-31"/>
       <use xlink:href="#DejaVuSans-2e" x="63.623047"/>
       <use xlink:href="#DejaVuSans-35" x="95.410156"/>
       <use xlink:href="#DejaVuSans-30" x="159.033203"/>
      </g>
     </g>
    </g>
    <g id="ytick_8">
     <g id="line2d_17">
      <g>
       <use xlink:href="#m5cae7f97d2" x="54.2" y="42.293333" style="stroke: #000000; stroke-width: 0.8"/>
      </g>
     </g>
     <g id="text_18">
      <!-- 1.75 -->
      <g transform="translate(24.934375 46.092552) scale(0.1 -0.1)">
       <use xlink:href="#DejaVuSans-31"/>
       <use xlink:href="#DejaVuSans-2e" x="63.623047"/>
       <use xlink:href="#DejaVuSans-37" x="95.410156"/>
       <use xlink:href="#DejaVuSans-35" x="159.033203"/>
      </g>
     </g>
    </g>
    <g id="ytick_9">
     <g id="line2d_18">
      <g>
       <use xlink:href="#m5cae7f97d2" x="54.2" y="14.76" style="stroke: #000000; stroke-width: 0.8"/>
      </g>
     </g>
     <g id="text_19">
      <!-- 2.00 -->
      <g transform="translate(24.934375 18.559219) scale(0.1 -0.1)">
       <use xlink:href="#DejaVuSans-32"/>
       <use xlink:href="#DejaVuSans-2e" x="63.623047"/>
       <use xlink:href="#DejaVuSans-30" x="95.410156"/>
       <use xlink:href="#DejaVuSans-30" x="159.033203"/>
      </g>
     </g>
    </g>
    <g id="text_20">
     <!-- concentration / mM -->
     <g transform="translate(18.854688 179.075781) rotate(-90) scale(0.1 -0.1)">
      <defs>
       <path id="DejaVuSans-63" d="M 3122 3366 
L 3122 2828 
Q 2878 2963 2633 3030 
Q 2388 3097 2138 3097 
Q 1578 3097 1268 2742 
Q 959 2388 959 1747 
Q 959 1106 1268 751 
Q 1578 397 2138 397 
Q 2388 397 2633 464 
Q 2878 531 3122 666 
L 3122 134 
Q 2881 22 2623 -34 
Q 2366 -91 2075 -91 
Q 1284 -91 818 406 
Q 353 903 353 1747 
Q 353 2603 823 3093 
Q 1294 3584 2113 3584 
Q 2378 3584 2631 3529 
Q 2884 3475 3122 3366 
z
" transform="scale(0.015625)"/>
       <path id="DejaVuSans-6f" d="M 1959 3097 
Q 1497 3097 1228 2736 
Q 959 2375 959 1747 
Q 959 1119 1226 758 
Q 1494 397 1959 397 
Q 2419 397 2687 759 
Q 2956 1122 2956 1747 
Q 2956 2369 2687 2733 
Q 2419 3097 1959 3097 
z
M 1959 3584 
Q 2709 3584 3137 3096 
Q 3566 2609 3566 1747 
Q 3566 888 3137 398 
Q 2709 -91 1959 -91 
Q 1206 -91 779 398 
Q 353 888 353 1747 
Q 353 2609 779 3096 
Q 1206 3584 1959 3584 
z
" transform="scale(0.015625)"/>
       <path id="DejaVuSans-6e" d="M 3513 2113 
L 3513 0 
L 2938 0 
L 2938 2094 
Q 2938 2591 2744 2837 
Q 2550 3084 2163 3084 
Q 1697 3084 1428 2787 
Q 1159 2491 1159 1978 
L 1159 0 
L 581 0 
L 581 3500 
L 1159 3500 
L 1159 2956 
Q 1366 3272 1645 3428 
Q 1925 3584 2291 3584 
Q 2894 3584 3203 3211 
Q 3513 2838 3513 2113 
z
" transform="scale(0.015625)"/>
       <path id="DejaVuSans-72" d="M 2631 2963 
Q 2534 3019 2420 3045 
Q 2306 3072 2169 3072 
Q 1681 3072 1420 2755 
Q 1159 2438 1159 1844 
L 1159 0 
L 581 0 
L 581 3500 
L 1159 3500 
L 1159 2956 
Q 1341 3275 1631 3429 
Q 1922 3584 2338 3584 
Q 2397 3584 2469 3576 
Q 2541 3569 2628 3553 
L 2631 2963 
z
" transform="scale(0.015625)"/>
       <path id="DejaVuSans-61" d="M 2194 1759 
Q 1497 1759 1228 1600 
Q 959 1441 959 1056 
Q 959 750 1161 570 
Q 1363 391 1709 391 
Q 2188 391 2477 730 
Q 2766 1069 2766 1631 
L 2766 1759 
L 2194 1759 
z
M 3341 1997 
L 3341 0 
L 2766 0 
L 2766 531 
Q 2569 213 2275 61 
Q 1981 -91 1556 -91 
Q 1019 -91 701 211 
Q 384 513 384 1019 
Q 384 1609 779 1909 
Q 1175 2209 1959 2209 
L 2766 2209 
L 2766 2266 
Q 2766 2663 2505 2880 
Q 2244 3097 1772 3097 
Q 1472 3097 1187 3025 
Q 903 2953 641 2809 
L 641 3341 
Q 956 3463 1253 3523 
Q 1550 3584 1831 3584 
Q 2591 3584 2966 3190 
Q 3341 2797 3341 1997 
z
" transform="scale(0.015625)"/>
       <path id="DejaVuSans-4d" d="M 628 4666 
L 1569 4666 
L 2759 1491 
L 3956 4666 
L 4897 4666 
L 4897 0 
L 4281 0 
L 4281 4097 
L 3078 897 
L 2444 897 
L 1241 4097 
L 1241 0 
L 628 0 
L 628 4666 
z
" transform="scale(0.015625)"/>
      </defs>
      <use xlink:href="#DejaVuSans-63"/>
      <use xlink:href="#DejaVuSans-6f" x="54.980469"/>
      <use xlink:href="#DejaVuSans-6e" x="116.162109"/>
      <use xlink:href="#DejaVuSans-63" x="179.541016"/>
      <use xlink:href="#DejaVuSans-65" x="234.521484"/>
      <use xlink:href="#DejaVuSans-6e" x="296.044922"/>
      <use xlink:href="#DejaVuSans-74" x="359.423828"/>
      <use xlink:href="#DejaVuSans-72" x="398.632812"/>
      <use xlink:href="#DejaVuSans-61" x="439.746094"/>
      <use xlink:href="#DejaVuSans-74" x="501.025391"/>
      <use xlink:href="#DejaVuSans-69" x="540.234375"/>
      <use xlink:href="#DejaVuSans-6f" x="568.017578"/>
      <use xlink:href="#DejaVuSans-6e" x="629.199219"/>
      <use xlink:href="#DejaVuSans-20" x="692.578125"/>
      <use xlink:href="#DejaVuSans-2f" x="724.365234"/>
      <use xlink:href="#DejaVuSans-20" x="758.056641"/>
      <use xlink:href="#DejaVuSans-6d" x="789.84375"/>
      <use xlink:href="#DejaVuSans-4d" x="887.255859"/>
     </g>
    </g>
   </g>
   <g id="line2d_19">
    <path d="M 54.2 235.026667 
L 54.312818 235.020693 
L 118.798548 234.909554 
L 119.931746 234.694967 
L 120.581078 234.351548 
L 121.086254 233.827168 
L 121.537527 233.020005 
L 121.973758 231.749179 
L 122.415004 229.721847 
L 122.880066 226.450683 
L 123.405298 221.026531 
L 124.1499 210.653925 
L 125.103842 198.071862 
L 125.598989 194.235579 
L 125.980064 192.764559 
L 126.257096 192.404192 
L 126.451394 192.455189 
L 126.683299 192.7968 
L 127.021754 193.753396 
L 127.511887 195.888247 
L 128.201333 199.981979 
L 129.056245 206.460359 
L 129.86227 214.267596 
L 130.506588 222.700068 
L 131.407882 235.020554 
L 189.904209 235.019691 
L 210.057332 234.906228 
L 211.17298 234.689005 
L 211.817298 234.342606 
L 212.319967 233.814704 
L 212.769987 233.002302 
L 213.204964 231.725588 
L 213.646209 229.685295 
L 214.112525 226.385135 
L 214.639011 220.918218 
L 215.393641 210.371199 
L 216.32878 198.070718 
L 216.823927 194.235073 
L 217.205002 192.764481 
L 217.482034 192.404372 
L 217.676332 192.455521 
L 217.908237 192.797287 
L 218.246692 193.754062 
L 218.736825 195.889102 
L 219.426271 199.983023 
L 220.281183 206.461625 
L 221.087208 214.269214 
L 221.731526 222.702294 
L 222.63282 235.020554 
L 281.539054 235.019641 
L 301.283523 234.906094 
L 302.397918 234.688949 
L 303.042236 234.342485 
L 303.544905 233.814488 
L 303.994925 233.001944 
L 304.429902 231.725016 
L 304.871147 229.684406 
L 305.337463 226.383799 
L 305.863949 220.916319 
L 306.618579 210.36887 
L 307.553718 198.069159 
L 308.048865 194.234217 
L 308.428687 192.76702 
L 308.705719 192.404753 
L 308.900017 192.454597 
L 309.131921 192.795018 
L 309.469123 193.745785 
L 309.958003 195.870735 
L 310.646195 199.950504 
L 311.501107 206.420326 
L 312.308385 214.229021 
L 312.953957 222.665717 
L 313.859011 235.020556 
L 376.855538 235.018944 
L 392.527264 234.904279 
L 393.631631 234.685765 
L 394.273442 234.337508 
L 394.77611 233.805559 
L 395.22613 232.987133 
L 395.661108 231.701378 
L 396.102353 229.647693 
L 396.568669 226.328627 
L 397.096408 220.822665 
L 397.858559 210.141996 
L 398.778656 198.0676 
L 399.273803 194.233361 
L 399.653625 192.766659 
L 399.930657 192.404698 
L 400.124955 192.454728 
L 400.356859 192.79534 
L 400.694061 193.746334 
L 401.182941 195.871529 
L 401.871133 199.951548 
L 402.726045 206.421651 
L 403.533323 214.230759 
L 404.178895 222.668142 
L 405.083949 235.020557 
L 468.530496 235.018837 
L 483.754709 234.904021 
L 484.857822 234.685259 
L 485.49838 234.337387 
L 486.001048 233.805341 
L 486.451068 232.986772 
L 486.886046 231.700802 
L 487.327291 229.646798 
L 487.793607 226.327284 
L 488.321346 220.820758 
L 489.083497 210.139668 
L 490.003594 198.066041 
L 490.498741 194.232505 
L 490.878563 192.766298 
L 491.155595 192.404644 
L 491.349893 192.454859 
L 491.581797 192.795663 
L 491.918999 193.746883 
L 492.407879 195.872323 
L 493.096071 199.952591 
L 493.950983 206.422977 
L 494.758261 214.232497 
L 495.403833 222.670568 
L 496.308887 235.020557 
L 555.615 235.019589 
L 555.615 235.019589 
" clip-path="url(#p16298d93f2)" style="fill: none; stroke: #1f77b4; stroke-width: 1.5; stroke-linecap: square"/>
   </g>
   <g id="line2d_20">
    <path d="M 54.2 124.893333 
L 54.314072 126.183616 
L 55.818317 141.915761 
L 57.323815 155.383673 
L 58.830568 166.911866 
L 60.339827 176.786107 
L 61.851593 185.241557 
L 63.36712 192.485778 
L 64.887661 198.694597 
L 66.415723 204.021289 
L 67.95256 208.590982 
L 69.503186 212.519301 
L 71.071361 215.898659 
L 72.6621 218.808578 
L 74.285431 221.322189 
L 75.950129 223.495781 
L 77.671236 225.381225 
L 79.465048 227.018995 
L 81.355383 228.444918 
L 83.372325 229.687538 
L 85.554733 230.769312 
L 87.952751 231.707076 
L 90.636575 232.514045 
L 93.706488 233.199783 
L 97.310408 233.770483 
L 101.694029 234.231193 
L 107.312384 234.586849 
L 115.530576 234.862494 
L 124.927093 234.99597 
L 130.119245 234.83351 
L 130.742253 234.64153 
L 130.952848 234.345793 
L 131.09199 233.681728 
L 131.228626 231.613926 
L 132.976057 194.802281 
L 133.857294 182.282682 
L 134.698418 173.322835 
L 135.49316 167.09447 
L 136.234001 162.930378 
L 136.913418 160.288152 
L 137.523891 158.733116 
L 138.060405 157.919002 
L 138.526721 157.578762 
L 138.949163 157.531784 
L 139.382887 157.713766 
L 139.886809 158.18449 
L 140.504803 159.091155 
L 141.278236 160.651348 
L 142.267277 163.185343 
L 143.587252 167.22934 
L 145.607955 174.224975 
L 150.686035 192.011155 
L 152.90605 198.850037 
L 154.925499 204.370443 
L 156.844665 208.985533 
L 158.708675 212.902032 
L 160.543854 216.251327 
L 162.370258 219.130515 
L 164.205437 221.615056 
L 166.06694 223.765715 
L 167.972317 225.630701 
L 169.945385 227.252684 
L 172.011215 228.663825 
L 174.204905 229.892474 
L 176.567824 230.959371 
L 179.156379 231.881392 
L 182.047036 232.671025 
L 185.348854 233.337302 
L 189.229806 233.886961 
L 193.970685 234.325207 
L 200.1243 234.658628 
L 211.490125 234.997943 
L 217.364202 234.98005 
L 221.547256 234.801403 
L 222.01984 234.596554 
L 222.206617 234.262924 
L 222.340745 233.46008 
L 222.488663 230.778379 
L 223.692059 203.737537 
L 224.594606 188.77394 
L 225.459547 177.932581 
L 226.280614 170.276112 
L 227.051539 165.039808 
L 227.766056 161.607214 
L 228.415388 159.493312 
L 228.993269 158.302396 
L 229.498445 157.723765 
L 229.940943 157.528813 
L 230.360878 157.583253 
L 230.819673 157.879923 
L 231.368723 158.520884 
L 232.049393 159.684312 
L 232.90932 161.628389 
L 234.023715 164.739912 
L 235.569327 169.774656 
L 238.577817 180.514293 
L 241.712914 191.365049 
L 243.959253 198.349605 
L 245.989984 203.957296 
L 247.915418 208.637417 
L 249.783188 212.606107 
L 251.620874 215.999216 
L 253.447279 218.913302 
L 255.281204 221.427445 
L 257.138946 223.602077 
L 259.040563 225.489173 
L 261.007363 227.129618 
L 263.065672 228.557436 
L 265.248081 229.800122 
L 267.595956 230.879477 
L 270.164455 231.812745 
L 273.027534 232.612587 
L 276.291746 233.288513 
L 280.118796 233.84734 
L 284.776941 234.294312 
L 290.783893 234.635619 
L 300.691853 234.93858 
L 306.208672 235.003997 
L 312.223145 234.867923 
L 313.121931 234.686682 
L 313.368878 234.422082 
L 313.514288 233.881756 
L 313.644656 232.312417 
L 314.026985 222.881659 
L 314.960871 202.910154 
L 315.860911 188.180411 
L 316.723344 177.514447 
L 317.541904 169.988171 
L 318.311576 164.840342 
L 319.023586 161.479008 
L 319.670411 159.415745 
L 320.245785 158.259995 
L 320.7472 157.706075 
L 321.187192 157.526169 
L 321.607127 157.591828 
L 322.069682 157.902851 
L 322.624999 158.566214 
L 323.314445 159.764414 
L 324.185653 161.759111 
L 325.317598 164.950032 
L 326.897055 170.12944 
L 330.22269 182.019318 
L 333.143432 192.03663 
L 335.363447 198.87278 
L 337.382896 204.390531 
L 339.302062 209.003141 
L 341.166072 212.91737 
L 343.001251 216.264613 
L 344.827655 219.141959 
L 346.662834 221.624854 
L 348.524337 223.774047 
L 350.429714 225.637732 
L 352.402782 227.25856 
L 354.469866 228.669454 
L 356.663556 229.897053 
L 359.027728 230.963531 
L 361.617536 231.885024 
L 364.509448 232.67406 
L 367.813772 233.33992 
L 371.698485 233.889177 
L 376.444378 234.326949 
L 382.605515 234.659881 
L 393.993903 234.998772 
L 400.035954 234.976339 
L 404.019696 234.796842 
L 404.475984 234.590078 
L 404.660254 234.249716 
L 404.793129 233.430711 
L 404.9423 230.677321 
L 406.110597 204.326963 
L 407.014397 189.204346 
L 407.880591 178.241868 
L 408.702912 170.493903 
L 409.476345 165.181863 
L 410.193368 161.695707 
L 410.845208 159.544909 
L 411.425596 158.329399 
L 411.932025 157.736031 
L 412.375777 157.530979 
L 412.795712 157.577682 
L 413.252 157.864637 
L 413.797288 158.491152 
L 414.472945 159.633195 
L 415.325351 161.54414 
L 416.429717 164.608344 
L 417.955272 169.556326 
L 420.819606 179.766839 
L 424.082564 191.102572 
L 426.340185 198.148066 
L 428.37593 203.792127 
L 430.30387 208.498237 
L 432.172895 212.487282 
L 434.010581 215.896236 
L 435.836985 218.824547 
L 437.67091 221.351406 
L 439.527399 223.536002 
L 441.426509 225.431082 
L 443.390802 227.079105 
L 445.44535 228.513291 
L 447.622744 229.761568 
L 449.964352 230.846059 
L 452.524076 231.783827 
L 455.375874 232.587958 
L 458.623789 233.267767 
L 462.428276 233.830414 
L 467.052576 234.281088 
L 473.000611 234.625777 
L 482.373311 234.91511 
L 489.146174 235.001462 
L 494.82846 234.854539 
L 495.600639 234.669472 
L 495.83129 234.394982 
L 495.974193 233.811713 
L 496.105814 232.084176 
L 496.666146 218.395669 
L 497.593763 199.577592 
L 498.487536 185.73601 
L 499.342448 175.763227 
L 500.152233 168.769534 
L 500.910623 164.030717 
L 501.610097 160.968664 
L 502.243134 159.117838 
L 502.803465 158.106863 
L 503.289838 157.64535 
L 503.721055 157.521598 
L 504.14475 157.632631 
L 504.622348 158.003346 
L 505.201482 158.75768 
L 505.922266 160.090357 
L 506.837349 162.285313 
L 508.036984 165.786343 
L 509.759345 171.568238 
L 516.668843 195.446345 
L 518.774786 201.586034 
L 520.73908 206.645266 
L 522.628161 210.911073 
L 524.475875 214.546286 
L 526.304786 217.663466 
L 528.133697 220.348733 
L 529.978905 222.668632 
L 531.857957 224.678159 
L 533.792166 226.423853 
L 535.805347 227.942632 
L 537.927586 229.265127 
L 540.195235 230.415093 
L 542.657183 231.411995 
L 545.377359 232.270197 
L 548.446019 233.000646 
L 551.996037 233.611216 
L 555.615 234.047216 
L 555.615 234.047216 
" clip-path="url(#p16298d93f2)" style="fill: none; stroke: #ff7f0e; stroke-width: 1.5; stroke-linecap: square"/>
   </g>
   <g id="line2d_21">
    <path d="M 54.2 235.026667 
L 115.51804 234.915569 
L 118.941451 234.750757 
L 120.004451 234.496568 
L 120.638741 234.122804 
L 121.131381 233.568515 
L 121.571373 232.719928 
L 121.995069 231.382708 
L 122.416257 229.258398 
L 122.846221 225.85315 
L 123.294987 220.377508 
L 123.780106 211.49896 
L 124.33417 196.908634 
L 125.054954 171.380264 
L 127.546986 77.833178 
L 128.269024 60.870073 
L 128.853172 51.825327 
L 129.303192 47.827629 
L 129.616577 46.635186 
L 129.774522 46.551889 
L 129.789565 46.56263 
L 129.929961 46.823417 
L 130.140555 47.777421 
L 130.428869 50.262477 
L 130.786127 55.494463 
L 131.21609 65.451153 
L 132.497206 96.785863 
L 133.715644 121.202292 
L 134.935336 141.323387 
L 136.155028 157.886026 
L 137.375974 171.53222 
L 138.596919 182.762809 
L 139.820372 192.022582 
L 141.045078 199.647238 
L 142.273545 205.935868 
L 143.505772 211.119417 
L 144.745521 215.401222 
L 145.995298 218.940198 
L 147.258863 221.868216 
L 148.543739 224.297963 
L 149.8587 226.318963 
L 151.217535 228.006405 
L 152.637793 229.419639 
L 154.144545 230.607007 
L 155.77289 231.606626 
L 157.570463 232.446726 
L 159.603701 233.147383 
L 161.97414 233.723123 
L 164.843487 234.183153 
L 168.498803 234.533171 
L 173.539277 234.777186 
L 181.575706 234.919014 
L 199.046258 234.957159 
L 209.320251 234.829764 
L 210.860849 234.616463 
L 211.617986 234.299172 
L 212.155753 233.831514 
L 212.612041 233.12652 
L 213.039497 232.029304 
L 213.460686 230.286787 
L 213.885635 227.505574 
L 214.325627 223.028454 
L 214.793196 215.795887 
L 215.312161 204.008194 
L 215.941437 184.136412 
L 216.951788 143.866465 
L 218.321904 91.45111 
L 219.132943 68.568236 
L 219.78729 55.791189 
L 220.308761 49.445585 
L 220.694851 47.025965 
L 220.941798 46.541265 
L 221.067151 46.626743 
L 221.235125 47.106294 
L 221.479565 48.59218 
L 221.799217 52.084693 
L 222.180293 58.937542 
L 222.92364 78.011626 
L 224.142079 105.745208 
L 225.361771 128.599916 
L 226.581463 147.412727 
L 227.801155 162.898454 
L 229.0221 175.657364 
L 230.244299 186.167497 
L 231.467752 194.823462 
L 232.693712 201.957538 
L 233.923432 207.840354 
L 235.158166 212.692872 
L 236.400422 216.699582 
L 237.65396 220.012803 
L 238.923793 222.757195 
L 240.217444 225.036078 
L 241.546194 226.935084 
L 242.923831 228.521819 
L 244.370414 229.852104 
L 245.914772 230.971151 
L 247.594512 231.912668 
L 249.463536 232.702514 
L 251.599564 233.359027 
L 254.119175 233.89415 
L 257.216666 234.315783 
L 261.25431 234.628916 
L 267.0444 234.837302 
L 277.068939 234.944952 
L 297.695899 234.918101 
L 301.337425 234.756445 
L 302.428003 234.505493 
L 303.069814 234.136662 
L 303.566215 233.588743 
L 304.00746 232.751434 
L 304.431156 231.434423 
L 304.852344 229.341107 
L 305.282308 225.982768 
L 305.731074 220.575773 
L 306.21494 211.819458 
L 306.766496 197.434562 
L 307.478505 172.399157 
L 310.040736 76.618306 
L 310.755252 60.177578 
L 311.33188 51.487378 
L 311.774378 47.702918 
L 312.080242 46.613651 
L 312.230666 46.556445 
L 312.245709 46.568622 
L 312.388612 46.850664 
L 312.602967 47.85851 
L 312.895041 50.450275 
L 313.254806 55.84995 
L 313.693544 66.198498 
L 314.939561 96.626694 
L 316.157999 121.071246 
L 317.377691 141.215517 
L 318.597383 157.797233 
L 319.818329 171.459145 
L 321.039274 182.702669 
L 322.262727 191.973108 
L 323.487433 199.606546 
L 324.7159 205.90242 
L 325.948127 211.091938 
L 327.187876 215.378676 
L 328.437652 218.921728 
L 329.701218 221.853119 
L 330.986094 224.285664 
L 332.301055 226.308992 
L 333.65989 227.998377 
L 335.080148 229.413239 
L 336.5869 230.601975 
L 338.213991 231.602071 
L 340.010311 232.442801 
L 342.042295 233.144178 
L 344.410227 233.720426 
L 347.275814 234.18097 
L 350.924862 234.531511 
L 355.955308 234.776128 
L 363.966666 234.91851 
L 381.351977 234.957383 
L 391.758846 234.830488 
L 393.305711 234.617717 
L 394.065355 234.300543 
L 394.603122 233.834081 
L 395.060663 233.128392 
L 395.48812 232.032354 
L 395.909308 230.291654 
L 396.334258 227.513205 
L 396.774249 223.040204 
L 397.241819 215.813488 
L 397.760783 204.033447 
L 398.388806 184.215198 
L 399.39665 144.062225 
L 400.770527 91.481901 
L 401.581566 68.590383 
L 402.235912 55.805767 
L 402.757384 49.453893 
L 403.143473 47.029431 
L 403.39042 46.541483 
L 403.515774 46.625246 
L 403.682494 47.097259 
L 403.925681 48.564405 
L 404.244079 52.019447 
L 404.625155 58.832902 
L 405.340924 77.20106 
L 406.559363 105.077858 
L 407.779055 128.050588 
L 408.998747 146.960549 
L 410.218439 162.526245 
L 411.439384 175.351042 
L 412.661583 185.91545 
L 413.885036 194.616114 
L 415.110996 201.78703 
L 416.340716 207.700225 
L 417.57545 212.577803 
L 418.817706 216.605203 
L 420.071244 219.935533 
L 421.341077 222.694098 
L 422.634728 224.984749 
L 423.962224 226.891945 
L 425.338608 228.485895 
L 426.783937 229.822554 
L 428.325788 230.946444 
L 430.001768 231.89192 
L 431.865778 232.685285 
L 433.994285 233.344819 
L 436.502613 233.88268 
L 439.582555 234.306919 
L 443.591368 234.622648 
L 449.322541 234.833509 
L 459.179107 234.943522 
L 479.834898 234.922164 
L 483.733399 234.763112 
L 484.851555 234.515473 
L 485.502141 234.150563 
L 486.001048 233.609978 
L 486.443547 232.783803 
L 486.867243 231.486697 
L 487.288431 229.423928 
L 487.718395 226.111891 
L 488.165908 220.791011 
L 488.64852 212.164387 
L 489.197569 197.994374 
L 489.902057 173.412644 
L 492.535739 75.391963 
L 493.241481 59.501209 
L 493.810587 51.159898 
L 494.245565 47.584118 
L 494.542653 46.596196 
L 494.68681 46.561367 
L 494.700599 46.573724 
L 494.846009 46.874955 
L 495.064125 47.933823 
L 495.359959 50.628333 
L 495.722232 56.189581 
L 496.172252 66.979273 
L 497.400718 96.882398 
L 498.619157 121.28177 
L 499.838849 141.388809 
L 501.058541 157.939879 
L 502.279486 171.57654 
L 503.500432 182.799283 
L 504.723885 192.052588 
L 505.948591 199.671918 
L 507.177057 205.956155 
L 508.409285 211.136082 
L 509.649033 215.414896 
L 510.89881 218.9514 
L 512.162376 221.877373 
L 513.447252 224.305422 
L 514.762213 226.32501 
L 516.121048 228.011273 
L 517.541306 229.42352 
L 519.048058 230.610059 
L 520.676403 231.608979 
L 522.473976 232.448493 
L 524.508467 233.149025 
L 526.88016 233.724498 
L 529.750761 234.184181 
L 533.408583 234.533921 
L 538.454072 234.777679 
L 546.503036 234.919254 
L 555.615 234.957669 
L 555.615 234.957669 
" clip-path="url(#p16298d93f2)" style="fill: none; stroke: #2ca02c; stroke-width: 1.5; stroke-linecap: square"/>
   </g>
   <g id="patch_3">
    <path d="M 54.2 246.04 
L 54.2 14.76 
" style="fill: none; stroke: #000000; stroke-width: 0.8; stroke-linejoin: miter; stroke-linecap: square"/>
   </g>
   <g id="patch_4">
    <path d="M 555.615 246.04 
L 555.615 14.76 
" style="fill: none; stroke: #000000; stroke-width: 0.8; stroke-linejoin: miter; stroke-linecap: square"/>
   </g>
   <g id="patch_5">
    <path d="M 54.2 246.04 
L 555.615 246.04 
" style="fill: none; stroke: #000000; stroke-width: 0.8; stroke-linejoin: miter; stroke-linecap: square"/>
   </g>
   <g id="patch_6">
    <path d="M 54.2 14.76 
L 555.615 14.76 
" style="fill: none; stroke: #000000; stroke-width: 0.8; stroke-linejoin: miter; stroke-linecap: square"/>
   </g>
   <g id="legend_1">
    <g id="patch_7">
     <path d="M 471.393125 66.794375 
L 548.615 66.794375 
Q 550.615 66.794375 550.615 64.794375 
L 550.615 21.76 
Q 550.615 19.76 548.615 19.76 
L 471.393125 19.76 
Q 469.393125 19.76 469.393125 21.76 
L 469.393125 64.794375 
Q 469.393125 66.794375 471.393125 66.794375 
z
" style="fill: #ffffff; opacity: 0.8; stroke: #cccccc; stroke-linejoin: miter"/>
    </g>
    <g id="line2d_22">
     <path d="M 473.393125 27.858437 
L 483.393125 27.858437 
L 493.393125 27.858437 
" style="fill: none; stroke: #1f77b4; stroke-width: 1.5; stroke-linecap: square"/>
    </g>
    <g id="text_21">
     <!-- [HBrO2] -->
     <g transform="translate(501.393125 31.358437) scale(0.1 -0.1)">
      <defs>
       <path id="DejaVuSans-5b" d="M 550 4863 
L 1875 4863 
L 1875 4416 
L 1125 4416 
L 1125 -397 
L 1875 -397 
L 1875 -844 
L 550 -844 
L 550 4863 
z
" transform="scale(0.015625)"/>
       <path id="DejaVuSans-48" d="M 628 4666 
L 1259 4666 
L 1259 2753 
L 3553 2753 
L 3553 4666 
L 4184 4666 
L 4184 0 
L 3553 0 
L 3553 2222 
L 1259 2222 
L 1259 0 
L 628 0 
L 628 4666 
z
" transform="scale(0.015625)"/>
       <path id="DejaVuSans-42" d="M 1259 2228 
L 1259 519 
L 2272 519 
Q 2781 519 3026 730 
Q 3272 941 3272 1375 
Q 3272 1813 3026 2020 
Q 2781 2228 2272 2228 
L 1259 2228 
z
M 1259 4147 
L 1259 2741 
L 2194 2741 
Q 2656 2741 2882 2914 
Q 3109 3088 3109 3444 
Q 3109 3797 2882 3972 
Q 2656 4147 2194 4147 
L 1259 4147 
z
M 628 4666 
L 2241 4666 
Q 2963 4666 3353 4366 
Q 3744 4066 3744 3513 
Q 3744 3084 3544 2831 
Q 3344 2578 2956 2516 
Q 3422 2416 3680 2098 
Q 3938 1781 3938 1306 
Q 3938 681 3513 340 
Q 3088 0 2303 0 
L 628 0 
L 628 4666 
z
" transform="scale(0.015625)"/>
       <path id="DejaVuSans-4f" d="M 2522 4238 
Q 1834 4238 1429 3725 
Q 1025 3213 1025 2328 
Q 1025 1447 1429 934 
Q 1834 422 2522 422 
Q 3209 422 3611 934 
Q 4013 1447 4013 2328 
Q 4013 3213 3611 3725 
Q 3209 4238 2522 4238 
z
M 2522 4750 
Q 3503 4750 4090 4092 
Q 4678 3434 4678 2328 
Q 4678 1225 4090 567 
Q 3503 -91 2522 -91 
Q 1538 -91 948 565 
Q 359 1222 359 2328 
Q 359 3434 948 4092 
Q 1538 4750 2522 4750 
z
" transform="scale(0.015625)"/>
       <path id="DejaVuSans-5d" d="M 1947 4863 
L 1947 -844 
L 622 -844 
L 622 -397 
L 1369 -397 
L 1369 4416 
L 622 4416 
L 622 4863 
L 1947 4863 
z
" transform="scale(0.015625)"/>
      </defs>
      <use xlink:href="#DejaVuSans-5b"/>
      <use xlink:href="#DejaVuSans-48" x="39.013672"/>
      <use xlink:href="#DejaVuSans-42" x="114.208984"/>
      <use xlink:href="#DejaVuSans-72" x="182.8125"/>
      <use xlink:href="#DejaVuSans-4f" x="223.925781"/>
      <use xlink:href="#DejaVuSans-32" x="302.636719"/>
      <use xlink:href="#DejaVuSans-5d" x="366.259766"/>
     </g>
    </g>
    <g id="line2d_23">
     <path d="M 473.393125 42.536562 
L 483.393125 42.536562 
L 493.393125 42.536562 
" style="fill: none; stroke: #ff7f0e; stroke-width: 1.5; stroke-linecap: square"/>
    </g>
    <g id="text_22">
     <!-- [Br-] -->
     <g transform="translate(501.393125 46.036562) scale(0.1 -0.1)">
      <defs>
       <path id="DejaVuSans-2d" d="M 313 2009 
L 1997 2009 
L 1997 1497 
L 313 1497 
L 313 2009 
z
" transform="scale(0.015625)"/>
      </defs>
      <use xlink:href="#DejaVuSans-5b"/>
      <use xlink:href="#DejaVuSans-42" x="39.013672"/>
      <use xlink:href="#DejaVuSans-72" x="107.617188"/>
      <use xlink:href="#DejaVuSans-2d" x="142.355469"/>
      <use xlink:href="#DejaVuSans-5d" x="178.439453"/>
     </g>
    </g>
    <g id="line2d_24">
     <path d="M 473.393125 57.214687 
L 483.393125 57.214687 
L 493.393125 57.214687 
" style="fill: none; stroke: #2ca02c; stroke-width: 1.5; stroke-linecap: square"/>
    </g>
    <g id="text_23">
     <!-- 2 [Ce4+] -->
     <g transform="translate(501.393125 60.714687) scale(0.1 -0.1)">
      <defs>
       <path id="DejaVuSans-43" d="M 4122 4306 
L 4122 3641 
Q 3803 3938 3442 4084 
Q 3081 4231 2675 4231 
Q 1875 4231 1450 3742 
Q 1025 3253 1025 2328 
Q 1025 1406 1450 917 
Q 1875 428 2675 428 
Q 3081 428 3442 575 
Q 3803 722 4122 1019 
L 4122 359 
Q 3791 134 3420 21 
Q 3050 -91 2638 -91 
Q 1578 -91 968 557 
Q 359 1206 359 2328 
Q 359 3453 968 4101 
Q 1578 4750 2638 4750 
Q 3056 4750 3426 4639 
Q 3797 4528 4122 4306 
z
" transform="scale(0.015625)"/>
       <path id="DejaVuSans-34" d="M 2419 4116 
L 825 1625 
L 2419 1625 
L 2419 4116 
z
M 2253 4666 
L 3047 4666 
L 3047 1625 
L 3713 1625 
L 3713 1100 
L 3047 1100 
L 3047 0 
L 2419 0 
L 2419 1100 
L 313 1100 
L 313 1709 
L 2253 4666 
z
" transform="scale(0.015625)"/>
       <path id="DejaVuSans-2b" d="M 2944 4013 
L 2944 2272 
L 4684 2272 
L 4684 1741 
L 2944 1741 
L 2944 0 
L 2419 0 
L 2419 1741 
L 678 1741 
L 678 2272 
L 2419 2272 
L 2419 4013 
L 2944 4013 
z
" transform="scale(0.015625)"/>
      </defs>
      <use xlink:href="#DejaVuSans-32"/>
      <use xlink:href="#DejaVuSans-20" x="63.623047"/>
      <use xlink:href="#DejaVuSans-5b" x="95.410156"/>
      <use xlink:href="#DejaVuSans-43" x="134.423828"/>
      <use xlink:href="#DejaVuSans-65" x="204.248047"/>
      <use xlink:href="#DejaVuSans-34" x="265.771484"/>
      <use xlink:href="#DejaVuSans-2b" x="329.394531"/>
      <use xlink:href="#DejaVuSans-5d" x="413.183594"/>
     </g>
    </g>
   </g>
  </g>
 </g>
 <defs>
  <clipPath id="p16298d93f2">
   <rect x="54.2" y="14.76" width="501.415" height="231.28"/>
  </clipPath>
 </defs>
</svg>
