<?xml version="1.0" encoding="utf-8" standalone="no"?>
<!DOCTYPE svg PUBLIC "-//W3C//DTD SVG 1.1//EN"
  "http://www.w3.org/Graphics/SVG/1.1/DTD/svg11.dtd">
<svg xmlns:xlink="http://www.w3.org/1999/xlink" width="864pt" height="432pt" viewBox="0 0 864 432" xmlns="http://www.w3.org/2000/svg" version="1.1">
 <metadata>
  <rdf:RDF xmlns:dc="http://purl.org/dc/elements/1.1/" xmlns:cc="http://creativecommons.org/ns#" xmlns:rdf="http://www.w3.org/1999/02/22-rdf-syntax-ns#">
   <cc:Work>
    <dc:type rdf:resource="http://purl.org/dc/dcmitype/StillImage"/>
    <dc:date>2024-05-01T22:31:03.889410</dc:date>
    <dc:format>image/svg+xml</dc:format>
    <dc:creator>
     <cc:Agent>
      <dc:title>Matplotlib v3.7.2, https://matplotlib.org/</dc:title>
     </cc:Agent>
    </dc:creator>
   </cc:Work>
  </rdf:RDF>
 </metadata>
 <defs>
  <style type="text/css">*{stroke-linejoin: round; stroke-linecap: butt}</style>
 </defs>
 <g id="figure_1">
  <g id="patch_1">
   <path d="M 0 432 
L 864 432 
L 864 0 
L 0 0 
z
" style="fill: #ffffff"/>
  </g>
  <g id="axes_1">
   <g id="patch_2">
    <path d="M 108 218.16 
L 777.6 218.16 
L 777.6 51.84 
L 108 51.84 
z
" style="fill: #ffffff"/>
   </g>
   <g id="matplotlib.axis_1"/>
   <g id="matplotlib.axis_2">
    <g id="ytick_1">
     <g id="line2d_1">
      <defs>
       <path id="m55bbb05ba6" d="M 0 0 
L -3.5 0 
" style="stroke: #000000; stroke-width: 0.8"/>
      </defs>
      <g>
       <use xlink:href="#m55bbb05ba6" x="108" y="205.374509" style="stroke: #000000; stroke-width: 0.8"/>
      </g>
     </g>
     <g id="text_1">
      <!-- −1.5 -->
      <g transform="translate(76.717187 209.173728) scale(0.1 -0.1)">
       <defs>
        <path id="DejaVuSans-2212" d="M 678 2272 
L 4684 2272 
L 4684 1741 
L 678 1741 
L 678 2272 
z
" transform="scale(0.015625)"/>
        <path id="DejaVuSans-31" d="M 794 531 
L 1825 531 
L 1825 4091 
L 703 3866 
L 703 4441 
L 1819 4666 
L 2450 4666 
L 2450 531 
L 3481 531 
L 3481 0 
L 794 0 
L 794 531 
z
" transform="scale(0.015625)"/>
        <path id="DejaVuSans-2e" d="M 684 794 
L 1344 794 
L 1344 0 
L 684 0 
L 684 794 
z
" transform="scale(0.015625)"/>
        <path id="DejaVuSans-35" d="M 691 4666 
L 3169 4666 
L 3169 4134 
L 1269 4134 
L 1269 2991 
Q 1406 3038 1543 3061 
Q 1681 3084 1819 3084 
Q 2600 3084 3056 2656 
Q 3513 2228 3513 1497 
Q 3513 744 3044 326 
Q 2575 -91 1722 -91 
Q 1428 -91 1123 -41 
Q 819 9 494 109 
L 494 744 
Q 775 591 1075 516 
Q 1375 441 1709 441 
Q 2250 441 2565 725 
Q 2881 1009 2881 1497 
Q 2881 1984 2565 2268 
Q 2250 2553 1709 2553 
Q 1456 2553 1204 2497 
Q 953 2441 691 2322 
L 691 4666 
z
" transform="scale(0.015625)"/>
       </defs>
       <use xlink:href="#DejaVuSans-2212"/>
       <use xlink:href="#DejaVuSans-31" x="83.789062"/>
       <use xlink:href="#DejaVuSans-2e" x="147.412109"/>
       <use xlink:href="#DejaVuSans-35" x="179.199219"/>
      </g>
     </g>
    </g>
    <g id="ytick_2">
     <g id="line2d_2">
      <g>
       <use xlink:href="#m55bbb05ba6" x="108" y="179.931543" style="stroke: #000000; stroke-width: 0.8"/>
      </g>
     </g>
     <g id="text_2">
      <!-- −1.0 -->
      <g transform="translate(76.717187 183.730761) scale(0.1 -0.1)">
       <defs>
        <path id="DejaVuSans-30" d="M 2034 4250 
Q 1547 4250 1301 3770 
Q 1056 3291 1056 2328 
Q 1056 1369 1301 889 
Q 1547 409 2034 409 
Q 2525 409 2770 889 
Q 3016 1369 3016 2328 
Q 3016 3291 2770 3770 
Q 2525 4250 2034 4250 
z
M 2034 4750 
Q 2819 4750 3233 4129 
Q 3647 3509 3647 2328 
Q 3647 1150 3233 529 
Q 2819 -91 2034 -91 
Q 1250 -91 836 529 
Q 422 1150 422 2328 
Q 422 3509 836 4129 
Q 1250 4750 2034 4750 
z
" transform="scale(0.015625)"/>
       </defs>
       <use xlink:href="#DejaVuSans-2212"/>
       <use xlink:href="#DejaVuSans-31" x="83.789062"/>
       <use xlink:href="#DejaVuSans-2e" x="147.412109"/>
       <use xlink:href="#DejaVuSans-30" x="179.199219"/>
      </g>
     </g>
    </g>
    <g id="ytick_3">
     <g id="line2d_3">
      <g>
       <use xlink:href="#m55bbb05ba6" x="108" y="154.488576" style="stroke: #000000; stroke-width: 0.8"/>
      </g>
     </g>
     <g id="text_3">
      <!-- −0.5 -->
      <g transform="translate(76.717187 158.287794) scale(0.1 -0.1)">
       <use xlink:href="#DejaVuSans-2212"/>
       <use xlink:href="#DejaVuSans-30" x="83.789062"/>
       <use xlink:href="#DejaVuSans-2e" x="147.412109"/>
       <use xlink:href="#DejaVuSans-35" x="179.199219"/>
      </g>
     </g>
    </g>
    <g id="ytick_4">
     <g id="line2d_4">
      <g>
       <use xlink:href="#m55bbb05ba6" x="108" y="129.045609" style="stroke: #000000; stroke-width: 0.8"/>
      </g>
     </g>
     <g id="text_4">
      <!-- 0.0 -->
      <g transform="translate(85.096875 132.844828) scale(0.1 -0.1)">
       <use xlink:href="#DejaVuSans-30"/>
       <use xlink:href="#DejaVuSans-2e" x="63.623047"/>
       <use xlink:href="#DejaVuSans-30" x="95.410156"/>
      </g>
     </g>
    </g>
    <g id="ytick_5">
     <g id="line2d_5">
      <g>
       <use xlink:href="#m55bbb05ba6" x="108" y="103.602642" style="stroke: #000000; stroke-width: 0.8"/>
      </g>
     </g>
     <g id="text_5">
      <!-- 0.5 -->
      <g transform="translate(85.096875 107.401861) scale(0.1 -0.1)">
       <use xlink:href="#DejaVuSans-30"/>
       <use xlink:href="#DejaVuSans-2e" x="63.623047"/>
       <use xlink:href="#DejaVuSans-35" x="95.410156"/>
      </g>
     </g>
    </g>
    <g id="ytick_6">
     <g id="line2d_6">
      <g>
       <use xlink:href="#m55bbb05ba6" x="108" y="78.159675" style="stroke: #000000; stroke-width: 0.8"/>
      </g>
     </g>
     <g id="text_6">
      <!-- 1.0 -->
      <g transform="translate(85.096875 81.958894) scale(0.1 -0.1)">
       <use xlink:href="#DejaVuSans-31"/>
       <use xlink:href="#DejaVuSans-2e" x="63.623047"/>
       <use xlink:href="#DejaVuSans-30" x="95.410156"/>
      </g>
     </g>
    </g>
    <g id="ytick_7">
     <g id="line2d_7">
      <g>
       <use xlink:href="#m55bbb05ba6" x="108" y="52.716708" style="stroke: #000000; stroke-width: 0.8"/>
      </g>
     </g>
     <g id="text_7">
      <!-- 1.5 -->
      <g transform="translate(85.096875 56.515927) scale(0.1 -0.1)">
       <use xlink:href="#DejaVuSans-31"/>
       <use xlink:href="#DejaVuSans-2e" x="63.623047"/>
       <use xlink:href="#DejaVuSans-35" x="95.410156"/>
      </g>
     </g>
    </g>
    <g id="text_8">
     <!-- position -->
     <g transform="translate(70.6375 154.804688) rotate(-90) scale(0.1 -0.1)">
      <defs>
       <path id="DejaVuSans-70" d="M 1159 525 
L 1159 -1331 
L 581 -1331 
L 581 3500 
L 1159 3500 
L 1159 2969 
Q 1341 3281 1617 3432 
Q 1894 3584 2278 3584 
Q 2916 3584 3314 3078 
Q 3713 2572 3713 1747 
Q 3713 922 3314 415 
Q 2916 -91 2278 -91 
Q 1894 -91 1617 61 
Q 1341 213 1159 525 
z
M 3116 1747 
Q 3116 2381 2855 2742 
Q 2594 3103 2138 3103 
Q 1681 3103 1420 2742 
Q 1159 2381 1159 1747 
Q 1159 1113 1420 752 
Q 1681 391 2138 391 
Q 2594 391 2855 752 
Q 3116 1113 3116 1747 
z
" transform="scale(0.015625)"/>
       <path id="DejaVuSans-6f" d="M 1959 3097 
Q 1497 3097 1228 2736 
Q 959 2375 959 1747 
Q 959 1119 1226 758 
Q 1494 397 1959 397 
Q 2419 397 2687 759 
Q 2956 1122 2956 1747 
Q 2956 2369 2687 2733 
Q 2419 3097 1959 3097 
z
M 1959 3584 
Q 2709 3584 3137 3096 
Q 3566 2609 3566 1747 
Q 3566 888 3137 398 
Q 2709 -91 1959 -91 
Q 1206 -91 779 398 
Q 353 888 353 1747 
Q 353 2609 779 3096 
Q 1206 3584 1959 3584 
z
" transform="scale(0.015625)"/>
       <path id="DejaVuSans-73" d="M 2834 3397 
L 2834 2853 
Q 2591 2978 2328 3040 
Q 2066 3103 1784 3103 
Q 1356 3103 1142 2972 
Q 928 2841 928 2578 
Q 928 2378 1081 2264 
Q 1234 2150 1697 2047 
L 1894 2003 
Q 2506 1872 2764 1633 
Q 3022 1394 3022 966 
Q 3022 478 2636 193 
Q 2250 -91 1575 -91 
Q 1294 -91 989 -36 
Q 684 19 347 128 
L 347 722 
Q 666 556 975 473 
Q 1284 391 1588 391 
Q 1994 391 2212 530 
Q 2431 669 2431 922 
Q 2431 1156 2273 1281 
Q 2116 1406 1581 1522 
L 1381 1569 
Q 847 1681 609 1914 
Q 372 2147 372 2553 
Q 372 3047 722 3315 
Q 1072 3584 1716 3584 
Q 2034 3584 2315 3537 
Q 2597 3491 2834 3397 
z
" transform="scale(0.015625)"/>
       <path id="DejaVuSans-69" d="M 603 3500 
L 1178 3500 
L 1178 0 
L 603 0 
L 603 3500 
z
M 603 4863 
L 1178 4863 
L 1178 4134 
L 603 4134 
L 603 4863 
z
" transform="scale(0.015625)"/>
       <path id="DejaVuSans-74" d="M 1172 4494 
L 1172 3500 
L 2356 3500 
L 2356 3053 
L 1172 3053 
L 1172 1153 
Q 1172 725 1289 603 
Q 1406 481 1766 481 
L 2356 481 
L 2356 0 
L 1766 0 
Q 1100 0 847 248 
Q 594 497 594 1153 
L 594 3053 
L 172 3053 
L 172 3500 
L 594 3500 
L 594 4494 
L 1172 4494 
z
" transform="scale(0.015625)"/>
       <path id="DejaVuSans-6e" d="M 3513 2113 
L 3513 0 
L 2938 0 
L 2938 2094 
Q 2938 2591 2744 2837 
Q 2550 3084 2163 3084 
Q 1697 3084 1428 2787 
Q 1159 2491 1159 1978 
L 1159 0 
L 581 0 
L 581 3500 
L 1159 3500 
L 1159 2956 
Q 1366 3272 1645 3428 
Q 1925 3584 2291 3584 
Q 2894 3584 3203 3211 
Q 3513 2838 3513 2113 
z
" transform="scale(0.015625)"/>
      </defs>
      <use xlink:href="#DejaVuSans-70"/>
      <use xlink:href="#DejaVuSans-6f" x="63.476562"/>
      <use xlink:href="#DejaVuSans-73" x="124.658203"/>
      <use xlink:href="#DejaVuSans-69" x="176.757812"/>
      <use xlink:href="#DejaVuSans-74" x="204.541016"/>
      <use xlink:href="#DejaVuSans-69" x="243.75"/>
      <use xlink:href="#DejaVuSans-6f" x="271.533203"/>
      <use xlink:href="#DejaVuSans-6e" x="332.714844"/>
     </g>
    </g>
   </g>
   <g id="line2d_8">
    <path d="M 138.436364 78.159675 
L 144.523636 78.413893 
L 150.610909 79.174006 
L 156.698182 80.43242 
L 162.785455 82.17656 
L 168.872727 84.389001 
L 174.96 87.047635 
L 181.047273 90.1259 
L 187.134545 93.593037 
L 193.221818 97.414405 
L 199.309091 101.551822 
L 205.396364 105.963947 
L 211.483636 110.606696 
L 217.570909 115.433681 
L 223.658182 120.396672 
L 229.745455 125.44608 
L 235.832727 130.531454 
L 241.92 135.601981 
L 248.007273 140.607 
L 254.094545 145.4965 
L 260.181818 150.221629 
L 266.269091 154.735174 
L 272.356364 158.992038 
L 278.443636 162.949686 
L 284.530909 166.568577 
L 290.618182 169.81255 
L 296.705455 172.649193 
L 302.792727 175.050164 
L 308.88 176.991472 
L 314.967273 178.453722 
L 321.054545 179.422301 
L 327.141818 179.887534 
L 333.229091 179.844771 
L 339.316364 179.294439 
L 345.403636 178.242038 
L 351.490909 176.698082 
L 357.578182 174.677998 
L 363.665455 172.201971 
L 369.752727 169.294739 
L 375.84 165.985352 
L 381.927273 162.306875 
L 388.014545 158.296062 
L 394.101818 153.992988 
L 400.189091 149.440649 
L 406.276364 144.684529 
L 412.363636 139.77215 
L 418.450909 134.752595 
L 424.538182 129.676018 
L 430.625455 124.593141 
L 436.712727 119.554753 
L 442.8 114.611194 
L 448.887273 109.811859 
L 454.974545 105.204701 
L 461.061818 100.835753 
L 467.149091 96.748669 
L 473.236364 92.984286 
L 479.323636 89.580215 
L 485.410909 86.570469 
L 491.498182 83.985121 
L 497.585455 81.850003 
L 503.672727 80.186447 
L 509.76 79.011076 
L 515.847273 78.335634 
L 521.934545 78.166869 
L 528.021818 78.506467 
L 534.109091 79.351036 
L 540.196364 80.692136 
L 546.283636 82.516369 
L 552.370909 84.805506 
L 558.458182 87.536676 
L 564.545455 90.682589 
L 570.632727 94.211813 
L 576.72 98.089084 
L 582.807273 102.275663 
L 588.894545 106.729719 
L 594.981818 111.406747 
L 601.069091 116.260017 
L 607.156364 121.241037 
L 613.243636 126.300037 
L 619.330909 131.38647 
L 625.418182 136.449514 
L 631.505455 141.438581 
L 637.592727 146.303821 
L 643.68 150.996622 
L 649.767273 155.470097 
L 655.854545 159.679547 
L 661.941818 163.582912 
L 668.029091 167.141192 
L 674.116364 170.318834 
L 680.203636 173.084088 
L 686.290909 175.409323 
L 692.378182 177.271307 
L 698.465455 178.651437 
L 704.552727 179.535921 
L 710.64 179.915923 
L 716.727273 179.787645 
L 722.814545 179.15237 
L 728.901818 178.016444 
L 734.989091 176.391218 
L 741.076364 174.292931 
L 747.163636 171.742547 
" clip-path="url(#p75047b0103)" style="fill: none; stroke: #1f77b4; stroke-width: 1.5; stroke-linecap: square"/>
   </g>
   <g id="line2d_9">
    <path d="M 138.436364 78.159675 
L 144.523636 78.159675 
L 150.610909 78.668535 
L 156.698182 79.686253 
L 162.785455 81.207743 
L 168.872727 83.222826 
L 174.96 85.716287 
L 181.047273 88.667977 
L 187.134545 92.052959 
L 193.221818 95.841718 
L 199.309091 100.000404 
L 205.396364 104.491128 
L 211.483636 109.272305 
L 217.570909 114.299026 
L 223.658182 119.52348 
L 229.745455 124.8954 
L 235.832727 130.362542 
L 241.92 135.871185 
L 248.007273 141.36666 
L 254.094545 146.793878 
L 260.181818 152.097886 
L 266.269091 157.224411 
L 272.356364 162.120413 
L 278.443636 166.734628 
L 284.530909 171.018094 
L 290.618182 174.92467 
L 296.705455 178.411522 
L 302.792727 181.439582 
L 308.88 183.973984 
L 314.967273 185.984446 
L 321.054545 187.445624 
L 327.141818 188.337414 
L 333.229091 188.645203 
L 339.316364 188.360075 
L 345.403636 187.47895 
L 351.490909 186.004681 
L 357.578182 183.946079 
L 363.665455 181.317886 
L 369.752727 178.140688 
L 375.84 174.440767 
L 381.927273 170.249896 
L 388.014545 165.605072 
L 394.101818 160.548207 
L 400.189091 155.125746 
L 406.276364 149.388259 
L 412.363636 143.389972 
L 418.450909 137.188257 
L 424.538182 130.843099 
L 430.625455 124.416515 
L 436.712727 117.971955 
L 442.8 111.573687 
L 448.887273 105.286155 
L 454.974545 99.173342 
L 461.061818 93.298124 
L 467.149091 87.721628 
L 473.236364 82.502608 
L 479.323636 77.696827 
L 485.410909 73.356476 
L 491.498182 69.529613 
L 497.585455 66.259641 
L 503.672727 63.584829 
L 509.76 61.537877 
L 515.847273 60.145533 
L 521.934545 59.428266 
L 528.021818 59.4 
L 534.109091 60.067907 
L 540.196364 61.432271 
L 546.283636 63.486411 
L 552.370909 66.216685 
L 558.458182 69.60255 
L 564.545455 73.616705 
L 570.632727 78.225291 
L 576.72 83.388165 
L 582.807273 89.059243 
L 588.894545 95.186895 
L 594.981818 101.714411 
L 601.069091 108.580514 
L 607.156364 115.719929 
L 613.243636 123.063995 
L 619.330909 130.541318 
L 625.418182 138.078457 
L 631.505455 145.600638 
L 637.592727 153.032492 
L 643.68 160.298795 
L 649.767273 167.325229 
L 655.854545 174.039131 
L 661.941818 180.370237 
L 668.029091 186.251408 
L 674.116364 191.619333 
L 680.203636 196.415199 
L 686.290909 200.585328 
L 692.378182 204.081762 
L 698.465455 206.862798 
L 704.552727 208.893473 
L 710.64 210.145976 
L 716.727273 210.6 
L 722.814545 210.243021 
L 728.901818 209.070497 
L 734.989091 207.086 
L 741.076364 204.301253 
L 747.163636 200.736103 
" clip-path="url(#p75047b0103)" style="fill: none; stroke: #ff7f0e; stroke-width: 1.5; stroke-linecap: square"/>
   </g>
   <g id="line2d_10">
    <path d="M 138.436364 78.159675 
L 144.523636 78.413893 
L 150.610909 79.174005 
L 156.698182 80.432417 
L 162.785455 82.176555 
L 168.872727 84.388992 
L 174.96 87.047623 
L 181.047273 90.125883 
L 187.134545 93.593015 
L 193.221818 97.414377 
L 199.309091 101.551788 
L 205.396364 105.963907 
L 211.483636 110.60665 
L 217.570909 115.43363 
L 223.658182 120.396615 
L 229.745455 125.446017 
L 235.832727 130.531386 
L 241.92 135.601909 
L 248.007273 140.606924 
L 254.094545 145.496422 
L 260.181818 150.221549 
L 266.269091 154.735094 
L 272.356364 158.991958 
L 278.443636 162.949608 
L 284.530909 166.568502 
L 290.618182 169.812479 
L 296.705455 172.649129 
L 302.792727 175.050107 
L 308.88 176.991423 
L 314.967273 178.453682 
L 321.054545 179.422273 
L 327.141818 179.887517 
L 333.229091 179.844767 
L 339.316364 179.294449 
L 345.403636 178.242063 
L 351.490909 176.698122 
L 357.578182 174.678054 
L 363.665455 172.202043 
L 369.752727 169.294827 
L 375.84 165.985455 
L 381.927273 162.306993 
L 388.014545 158.296196 
L 394.101818 153.993136 
L 400.189091 149.440809 
L 406.276364 144.684701 
L 412.363636 139.772332 
L 418.450909 134.752786 
L 424.538182 129.676216 
L 430.625455 124.593345 
L 436.712727 119.554959 
L 442.8 114.611401 
L 448.887273 109.812065 
L 454.974545 105.204903 
L 461.061818 100.83595 
L 467.149091 96.748858 
L 473.236364 92.984463 
L 479.323636 89.58038 
L 485.410909 86.570619 
L 491.498182 83.985253 
L 497.585455 81.850115 
L 503.672727 80.186538 
L 509.76 79.011144 
L 515.847273 78.335677 
L 521.934545 78.166886 
L 528.021818 78.506458 
L 534.109091 79.350999 
L 540.196364 80.692071 
L 546.283636 82.516276 
L 552.370909 84.805385 
L 558.458182 87.536527 
L 564.545455 90.682413 
L 570.632727 94.211611 
L 576.72 98.088858 
L 582.807273 102.275414 
L 588.894545 106.729449 
L 594.981818 111.406459 
L 601.069091 116.259713 
L 607.156364 121.240719 
L 613.243636 126.299709 
L 619.330909 131.386135 
L 625.418182 136.449175 
L 631.505455 141.438242 
L 637.592727 146.303485 
L 643.68 150.996293 
L 649.767273 155.469778 
L 655.854545 159.679242 
L 661.941818 163.582625 
L 668.029091 167.140926 
L 674.116364 170.318591 
L 680.203636 173.083872 
L 686.290909 175.409137 
L 692.378182 177.271154 
L 698.465455 178.651318 
L 704.552727 179.535839 
L 710.64 179.91588 
L 716.727273 179.787642 
L 722.814545 179.152407 
L 728.901818 178.016523 
L 734.989091 176.391338 
L 741.076364 174.293091 
L 747.163636 171.742747 
" clip-path="url(#p75047b0103)" style="fill: none; stroke: #2ca02c; stroke-width: 1.5; stroke-linecap: square"/>
   </g>
   <g id="patch_3">
    <path d="M 108 218.16 
L 108 51.84 
" style="fill: none; stroke: #000000; stroke-width: 0.8; stroke-linejoin: miter; stroke-linecap: square"/>
   </g>
   <g id="patch_4">
    <path d="M 777.6 218.16 
L 777.6 51.84 
" style="fill: none; stroke: #000000; stroke-width: 0.8; stroke-linejoin: miter; stroke-linecap: square"/>
   </g>
   <g id="patch_5">
    <path d="M 108 218.16 
L 777.6 218.16 
" style="fill: none; stroke: #000000; stroke-width: 0.8; stroke-linejoin: miter; stroke-linecap: square"/>
   </g>
   <g id="patch_6">
    <path d="M 108 51.84 
L 777.6 51.84 
" style="fill: none; stroke: #000000; stroke-width: 0.8; stroke-linejoin: miter; stroke-linecap: square"/>
   </g>
   <g id="legend_1">
    <g id="patch_7">
     <path d="M 710.815625 103.874375 
L 770.6 103.874375 
Q 772.6 103.874375 772.6 101.874375 
L 772.6 58.84 
Q 772.6 56.84 770.6 56.84 
L 710.815625 56.84 
Q 708.815625 56.84 708.815625 58.84 
L 708.815625 101.874375 
Q 708.815625 103.874375 710.815625 103.874375 
z
" style="fill: #ffffff; opacity: 0.8; stroke: #cccccc; stroke-linejoin: miter"/>
    </g>
    <g id="line2d_11">
     <path d="M 712.815625 64.938437 
L 722.815625 64.938437 
L 732.815625 64.938437 
" style="fill: none; stroke: #1f77b4; stroke-width: 1.5; stroke-linecap: square"/>
    </g>
    <g id="text_9">
     <!-- Exact -->
     <g transform="translate(740.815625 68.438437) scale(0.1 -0.1)">
      <defs>
       <path id="DejaVuSans-45" d="M 628 4666 
L 3578 4666 
L 3578 4134 
L 1259 4134 
L 1259 2753 
L 3481 2753 
L 3481 2222 
L 1259 2222 
L 1259 531 
L 3634 531 
L 3634 0 
L 628 0 
L 628 4666 
z
" transform="scale(0.015625)"/>
       <path id="DejaVuSans-78" d="M 3513 3500 
L 2247 1797 
L 3578 0 
L 2900 0 
L 1881 1375 
L 863 0 
L 184 0 
L 1544 1831 
L 300 3500 
L 978 3500 
L 1906 2253 
L 2834 3500 
L 3513 3500 
z
" transform="scale(0.015625)"/>
       <path id="DejaVuSans-61" d="M 2194 1759 
Q 1497 1759 1228 1600 
Q 959 1441 959 1056 
Q 959 750 1161 570 
Q 1363 391 1709 391 
Q 2188 391 2477 730 
Q 2766 1069 2766 1631 
L 2766 1759 
L 2194 1759 
z
M 3341 1997 
L 3341 0 
L 2766 0 
L 2766 531 
Q 2569 213 2275 61 
Q 1981 -91 1556 -91 
Q 1019 -91 701 211 
Q 384 513 384 1019 
Q 384 1609 779 1909 
Q 1175 2209 1959 2209 
L 2766 2209 
L 2766 2266 
Q 2766 2663 2505 2880 
Q 2244 3097 1772 3097 
Q 1472 3097 1187 3025 
Q 903 2953 641 2809 
L 641 3341 
Q 956 3463 1253 3523 
Q 1550 3584 1831 3584 
Q 2591 3584 2966 3190 
Q 3341 2797 3341 1997 
z
" transform="scale(0.015625)"/>
       <path id="DejaVuSans-63" d="M 3122 3366 
L 3122 2828 
Q 2878 2963 2633 3030 
Q 2388 3097 2138 3097 
Q 1578 3097 1268 2742 
Q 959 2388 959 1747 
Q 959 1106 1268 751 
Q 1578 397 2138 397 
Q 2388 397 2633 464 
Q 2878 531 3122 666 
L 3122 134 
Q 2881 22 2623 -34 
Q 2366 -91 2075 -91 
Q 1284 -91 818 406 
Q 353 903 353 1747 
Q 353 2603 823 3093 
Q 1294 3584 2113 3584 
Q 2378 3584 2631 3529 
Q 2884 3475 3122 3366 
z
" transform="scale(0.015625)"/>
      </defs>
      <use xlink:href="#DejaVuSans-45"/>
      <use xlink:href="#DejaVuSans-78" x="63.183594"/>
      <use xlink:href="#DejaVuSans-61" x="122.363281"/>
      <use xlink:href="#DejaVuSans-63" x="183.642578"/>
      <use xlink:href="#DejaVuSans-74" x="238.623047"/>
     </g>
    </g>
    <g id="line2d_12">
     <path d="M 712.815625 79.616562 
L 722.815625 79.616562 
L 732.815625 79.616562 
" style="fill: none; stroke: #ff7f0e; stroke-width: 1.5; stroke-linecap: square"/>
    </g>
    <g id="text_10">
     <!-- Euler -->
     <g transform="translate(740.815625 83.116562) scale(0.1 -0.1)">
      <defs>
       <path id="DejaVuSans-75" d="M 544 1381 
L 544 3500 
L 1119 3500 
L 1119 1403 
Q 1119 906 1312 657 
Q 1506 409 1894 409 
Q 2359 409 2629 706 
Q 2900 1003 2900 1516 
L 2900 3500 
L 3475 3500 
L 3475 0 
L 2900 0 
L 2900 538 
Q 2691 219 2414 64 
Q 2138 -91 1772 -91 
Q 1169 -91 856 284 
Q 544 659 544 1381 
z
M 1991 3584 
L 1991 3584 
z
" transform="scale(0.015625)"/>
       <path id="DejaVuSans-6c" d="M 603 4863 
L 1178 4863 
L 1178 0 
L 603 0 
L 603 4863 
z
" transform="scale(0.015625)"/>
       <path id="DejaVuSans-65" d="M 3597 1894 
L 3597 1613 
L 953 1613 
Q 991 1019 1311 708 
Q 1631 397 2203 397 
Q 2534 397 2845 478 
Q 3156 559 3463 722 
L 3463 178 
Q 3153 47 2828 -22 
Q 2503 -91 2169 -91 
Q 1331 -91 842 396 
Q 353 884 353 1716 
Q 353 2575 817 3079 
Q 1281 3584 2069 3584 
Q 2775 3584 3186 3129 
Q 3597 2675 3597 1894 
z
M 3022 2063 
Q 3016 2534 2758 2815 
Q 2500 3097 2075 3097 
Q 1594 3097 1305 2825 
Q 1016 2553 972 2059 
L 3022 2063 
z
" transform="scale(0.015625)"/>
       <path id="DejaVuSans-72" d="M 2631 2963 
Q 2534 3019 2420 3045 
Q 2306 3072 2169 3072 
Q 1681 3072 1420 2755 
Q 1159 2438 1159 1844 
L 1159 0 
L 581 0 
L 581 3500 
L 1159 3500 
L 1159 2956 
Q 1341 3275 1631 3429 
Q 1922 3584 2338 3584 
Q 2397 3584 2469 3576 
Q 2541 3569 2628 3553 
L 2631 2963 
z
" transform="scale(0.015625)"/>
      </defs>
      <use xlink:href="#DejaVuSans-45"/>
      <use xlink:href="#DejaVuSans-75" x="63.183594"/>
      <use xlink:href="#DejaVuSans-6c" x="126.5625"/>
      <use xlink:href="#DejaVuSans-65" x="154.345703"/>
      <use xlink:href="#DejaVuSans-72" x="215.869141"/>
     </g>
    </g>
    <g id="line2d_13">
     <path d="M 712.815625 94.294687 
L 722.815625 94.294687 
L 732.815625 94.294687 
" style="fill: none; stroke: #2ca02c; stroke-width: 1.5; stroke-linecap: square"/>
    </g>
    <g id="text_11">
     <!-- RK4 -->
     <g transform="translate(740.815625 97.794687) scale(0.1 -0.1)">
      <defs>
       <path id="DejaVuSans-52" d="M 2841 2188 
Q 3044 2119 3236 1894 
Q 3428 1669 3622 1275 
L 4263 0 
L 3584 0 
L 2988 1197 
Q 2756 1666 2539 1819 
Q 2322 1972 1947 1972 
L 1259 1972 
L 1259 0 
L 628 0 
L 628 4666 
L 2053 4666 
Q 2853 4666 3247 4331 
Q 3641 3997 3641 3322 
Q 3641 2881 3436 2590 
Q 3231 2300 2841 2188 
z
M 1259 4147 
L 1259 2491 
L 2053 2491 
Q 2509 2491 2742 2702 
Q 2975 2913 2975 3322 
Q 2975 3731 2742 3939 
Q 2509 4147 2053 4147 
L 1259 4147 
z
" transform="scale(0.015625)"/>
       <path id="DejaVuSans-4b" d="M 628 4666 
L 1259 4666 
L 1259 2694 
L 3353 4666 
L 4166 4666 
L 1850 2491 
L 4331 0 
L 3500 0 
L 1259 2247 
L 1259 0 
L 628 0 
L 628 4666 
z
" transform="scale(0.015625)"/>
       <path id="DejaVuSans-34" d="M 2419 4116 
L 825 1625 
L 2419 1625 
L 2419 4116 
z
M 2253 4666 
L 3047 4666 
L 3047 1625 
L 3713 1625 
L 3713 1100 
L 3047 1100 
L 3047 0 
L 2419 0 
L 2419 1100 
L 313 1100 
L 313 1709 
L 2253 4666 
z
" transform="scale(0.015625)"/>
      </defs>
      <use xlink:href="#DejaVuSans-52"/>
      <use xlink:href="#DejaVuSans-4b" x="69.482422"/>
      <use xlink:href="#DejaVuSans-34" x="135.058594"/>
     </g>
    </g>
   </g>
  </g>
  <g id="axes_2">
   <g id="patch_8">
    <path d="M 108 384.48 
L 777.6 384.48 
L 777.6 218.16 
L 108 218.16 
z
" style="fill: #ffffff"/>
   </g>
   <g id="matplotlib.axis_3">
    <g id="xtick_1">
     <g id="line2d_14">
      <defs>
       <path id="m8a03f1224a" d="M 0 0 
L 0 3.5 
" style="stroke: #000000; stroke-width: 0.8"/>
      </defs>
      <g>
       <use xlink:href="#m8a03f1224a" x="138.436364" y="384.48" style="stroke: #000000; stroke-width: 0.8"/>
      </g>
     </g>
     <g id="text_12">
      <!-- 0 -->
      <g transform="translate(135.255114 399.078438) scale(0.1 -0.1)">
       <use xlink:href="#DejaVuSans-30"/>
      </g>
     </g>
    </g>
    <g id="xtick_2">
     <g id="line2d_15">
      <g>
       <use xlink:href="#m8a03f1224a" x="260.181818" y="384.48" style="stroke: #000000; stroke-width: 0.8"/>
      </g>
     </g>
     <g id="text_13">
      <!-- 2 -->
      <g transform="translate(257.000568 399.078438) scale(0.1 -0.1)">
       <defs>
        <path id="DejaVuSans-32" d="M 1228 531 
L 3431 531 
L 3431 0 
L 469 0 
L 469 531 
Q 828 903 1448 1529 
Q 2069 2156 2228 2338 
Q 2531 2678 2651 2914 
Q 2772 3150 2772 3378 
Q 2772 3750 2511 3984 
Q 2250 4219 1831 4219 
Q 1534 4219 1204 4116 
Q 875 4013 500 3803 
L 500 4441 
Q 881 4594 1212 4672 
Q 1544 4750 1819 4750 
Q 2544 4750 2975 4387 
Q 3406 4025 3406 3419 
Q 3406 3131 3298 2873 
Q 3191 2616 2906 2266 
Q 2828 2175 2409 1742 
Q 1991 1309 1228 531 
z
" transform="scale(0.015625)"/>
       </defs>
       <use xlink:href="#DejaVuSans-32"/>
      </g>
     </g>
    </g>
    <g id="xtick_3">
     <g id="line2d_16">
      <g>
       <use xlink:href="#m8a03f1224a" x="381.927273" y="384.48" style="stroke: #000000; stroke-width: 0.8"/>
      </g>
     </g>
     <g id="text_14">
      <!-- 4 -->
      <g transform="translate(378.746023 399.078438) scale(0.1 -0.1)">
       <use xlink:href="#DejaVuSans-34"/>
      </g>
     </g>
    </g>
    <g id="xtick_4">
     <g id="line2d_17">
      <g>
       <use xlink:href="#m8a03f1224a" x="503.672727" y="384.48" style="stroke: #000000; stroke-width: 0.8"/>
      </g>
     </g>
     <g id="text_15">
      <!-- 6 -->
      <g transform="translate(500.491477 399.078438) scale(0.1 -0.1)">
       <defs>
        <path id="DejaVuSans-36" d="M 2113 2584 
Q 1688 2584 1439 2293 
Q 1191 2003 1191 1497 
Q 1191 994 1439 701 
Q 1688 409 2113 409 
Q 2538 409 2786 701 
Q 3034 994 3034 1497 
Q 3034 2003 2786 2293 
Q 2538 2584 2113 2584 
z
M 3366 4563 
L 3366 3988 
Q 3128 4100 2886 4159 
Q 2644 4219 2406 4219 
Q 1781 4219 1451 3797 
Q 1122 3375 1075 2522 
Q 1259 2794 1537 2939 
Q 1816 3084 2150 3084 
Q 2853 3084 3261 2657 
Q 3669 2231 3669 1497 
Q 3669 778 3244 343 
Q 2819 -91 2113 -91 
Q 1303 -91 875 529 
Q 447 1150 447 2328 
Q 447 3434 972 4092 
Q 1497 4750 2381 4750 
Q 2619 4750 2861 4703 
Q 3103 4656 3366 4563 
z
" transform="scale(0.015625)"/>
       </defs>
       <use xlink:href="#DejaVuSans-36"/>
      </g>
     </g>
    </g>
    <g id="xtick_5">
     <g id="line2d_18">
      <g>
       <use xlink:href="#m8a03f1224a" x="625.418182" y="384.48" style="stroke: #000000; stroke-width: 0.8"/>
      </g>
     </g>
     <g id="text_16">
      <!-- 8 -->
      <g transform="translate(622.236932 399.078438) scale(0.1 -0.1)">
       <defs>
        <path id="DejaVuSans-38" d="M 2034 2216 
Q 1584 2216 1326 1975 
Q 1069 1734 1069 1313 
Q 1069 891 1326 650 
Q 1584 409 2034 409 
Q 2484 409 2743 651 
Q 3003 894 3003 1313 
Q 3003 1734 2745 1975 
Q 2488 2216 2034 2216 
z
M 1403 2484 
Q 997 2584 770 2862 
Q 544 3141 544 3541 
Q 544 4100 942 4425 
Q 1341 4750 2034 4750 
Q 2731 4750 3128 4425 
Q 3525 4100 3525 3541 
Q 3525 3141 3298 2862 
Q 3072 2584 2669 2484 
Q 3125 2378 3379 2068 
Q 3634 1759 3634 1313 
Q 3634 634 3220 271 
Q 2806 -91 2034 -91 
Q 1263 -91 848 271 
Q 434 634 434 1313 
Q 434 1759 690 2068 
Q 947 2378 1403 2484 
z
M 1172 3481 
Q 1172 3119 1398 2916 
Q 1625 2713 2034 2713 
Q 2441 2713 2670 2916 
Q 2900 3119 2900 3481 
Q 2900 3844 2670 4047 
Q 2441 4250 2034 4250 
Q 1625 4250 1398 4047 
Q 1172 3844 1172 3481 
z
" transform="scale(0.015625)"/>
       </defs>
       <use xlink:href="#DejaVuSans-38"/>
      </g>
     </g>
    </g>
    <g id="xtick_6">
     <g id="line2d_19">
      <g>
       <use xlink:href="#m8a03f1224a" x="747.163636" y="384.48" style="stroke: #000000; stroke-width: 0.8"/>
      </g>
     </g>
     <g id="text_17">
      <!-- 10 -->
      <g transform="translate(740.801136 399.078438) scale(0.1 -0.1)">
       <use xlink:href="#DejaVuSans-31"/>
       <use xlink:href="#DejaVuSans-30" x="63.623047"/>
      </g>
     </g>
    </g>
    <g id="text_18">
     <!-- time / s -->
     <g transform="translate(424.036719 412.756563) scale(0.1 -0.1)">
      <defs>
       <path id="DejaVuSans-6d" d="M 3328 2828 
Q 3544 3216 3844 3400 
Q 4144 3584 4550 3584 
Q 5097 3584 5394 3201 
Q 5691 2819 5691 2113 
L 5691 0 
L 5113 0 
L 5113 2094 
Q 5113 2597 4934 2840 
Q 4756 3084 4391 3084 
Q 3944 3084 3684 2787 
Q 3425 2491 3425 1978 
L 3425 0 
L 2847 0 
L 2847 2094 
Q 2847 2600 2669 2842 
Q 2491 3084 2119 3084 
Q 1678 3084 1418 2786 
Q 1159 2488 1159 1978 
L 1159 0 
L 581 0 
L 581 3500 
L 1159 3500 
L 1159 2956 
Q 1356 3278 1631 3431 
Q 1906 3584 2284 3584 
Q 2666 3584 2933 3390 
Q 3200 3197 3328 2828 
z
" transform="scale(0.015625)"/>
       <path id="DejaVuSans-20" transform="scale(0.015625)"/>
       <path id="DejaVuSans-2f" d="M 1625 4666 
L 2156 4666 
L 531 -594 
L 0 -594 
L 1625 4666 
z
" transform="scale(0.015625)"/>
      </defs>
      <use xlink:href="#DejaVuSans-74"/>
      <use xlink:href="#DejaVuSans-69" x="39.208984"/>
      <use xlink:href="#DejaVuSans-6d" x="66.992188"/>
      <use xlink:href="#DejaVuSans-65" x="164.404297"/>
      <use xlink:href="#DejaVuSans-20" x="225.927734"/>
      <use xlink:href="#DejaVuSans-2f" x="257.714844"/>
      <use xlink:href="#DejaVuSans-20" x="291.40625"/>
      <use xlink:href="#DejaVuSans-73" x="323.193359"/>
     </g>
    </g>
   </g>
   <g id="matplotlib.axis_4">
    <g id="ytick_8">
     <g id="line2d_20">
      <g>
       <use xlink:href="#m55bbb05ba6" x="108" y="377.955467" style="stroke: #000000; stroke-width: 0.8"/>
      </g>
     </g>
     <g id="text_19">
      <!-- −1.5 -->
      <g transform="translate(76.717187 381.754686) scale(0.1 -0.1)">
       <use xlink:href="#DejaVuSans-2212"/>
       <use xlink:href="#DejaVuSans-31" x="83.789062"/>
       <use xlink:href="#DejaVuSans-2e" x="147.412109"/>
       <use xlink:href="#DejaVuSans-35" x="179.199219"/>
      </g>
     </g>
    </g>
    <g id="ytick_9">
     <g id="line2d_21">
      <g>
       <use xlink:href="#m55bbb05ba6" x="108" y="350.441094" style="stroke: #000000; stroke-width: 0.8"/>
      </g>
     </g>
     <g id="text_20">
      <!-- −1.0 -->
      <g transform="translate(76.717187 354.240313) scale(0.1 -0.1)">
       <use xlink:href="#DejaVuSans-2212"/>
       <use xlink:href="#DejaVuSans-31" x="83.789062"/>
       <use xlink:href="#DejaVuSans-2e" x="147.412109"/>
       <use xlink:href="#DejaVuSans-30" x="179.199219"/>
      </g>
     </g>
    </g>
    <g id="ytick_10">
     <g id="line2d_22">
      <g>
       <use xlink:href="#m55bbb05ba6" x="108" y="322.926721" style="stroke: #000000; stroke-width: 0.8"/>
      </g>
     </g>
     <g id="text_21">
      <!-- −0.5 -->
      <g transform="translate(76.717187 326.72594) scale(0.1 -0.1)">
       <use xlink:href="#DejaVuSans-2212"/>
       <use xlink:href="#DejaVuSans-30" x="83.789062"/>
       <use xlink:href="#DejaVuSans-2e" x="147.412109"/>
       <use xlink:href="#DejaVuSans-35" x="179.199219"/>
      </g>
     </g>
    </g>
    <g id="ytick_11">
     <g id="line2d_23">
      <g>
       <use xlink:href="#m55bbb05ba6" x="108" y="295.412348" style="stroke: #000000; stroke-width: 0.8"/>
      </g>
     </g>
     <g id="text_22">
      <!-- 0.0 -->
      <g transform="translate(85.096875 299.211567) scale(0.1 -0.1)">
       <use xlink:href="#DejaVuSans-30"/>
       <use xlink:href="#DejaVuSans-2e" x="63.623047"/>
       <use xlink:href="#DejaVuSans-30" x="95.410156"/>
      </g>
     </g>
    </g>
    <g id="ytick_12">
     <g id="line2d_24">
      <g>
       <use xlink:href="#m55bbb05ba6" x="108" y="267.897975" style="stroke: #000000; stroke-width: 0.8"/>
      </g>
     </g>
     <g id="text_23">
      <!-- 0.5 -->
      <g transform="translate(85.096875 271.697194) scale(0.1 -0.1)">
       <use xlink:href="#DejaVuSans-30"/>
       <use xlink:href="#DejaVuSans-2e" x="63.623047"/>
       <use xlink:href="#DejaVuSans-35" x="95.410156"/>
      </g>
     </g>
    </g>
    <g id="ytick_13">
     <g id="line2d_25">
      <g>
       <use xlink:href="#m55bbb05ba6" x="108" y="240.383603" style="stroke: #000000; stroke-width: 0.8"/>
      </g>
     </g>
     <g id="text_24">
      <!-- 1.0 -->
      <g transform="translate(85.096875 244.182821) scale(0.1 -0.1)">
       <use xlink:href="#DejaVuSans-31"/>
       <use xlink:href="#DejaVuSans-2e" x="63.623047"/>
       <use xlink:href="#DejaVuSans-30" x="95.410156"/>
      </g>
     </g>
    </g>
    <g id="text_25">
     <!-- velocity -->
     <g transform="translate(70.6375 320.862188) rotate(-90) scale(0.1 -0.1)">
      <defs>
       <path id="DejaVuSans-76" d="M 191 3500 
L 800 3500 
L 1894 563 
L 2988 3500 
L 3597 3500 
L 2284 0 
L 1503 0 
L 191 3500 
z
" transform="scale(0.015625)"/>
       <path id="DejaVuSans-79" d="M 2059 -325 
Q 1816 -950 1584 -1140 
Q 1353 -1331 966 -1331 
L 506 -1331 
L 506 -850 
L 844 -850 
Q 1081 -850 1212 -737 
Q 1344 -625 1503 -206 
L 1606 56 
L 191 3500 
L 800 3500 
L 1894 763 
L 2988 3500 
L 3597 3500 
L 2059 -325 
z
" transform="scale(0.015625)"/>
      </defs>
      <use xlink:href="#DejaVuSans-76"/>
      <use xlink:href="#DejaVuSans-65" x="59.179688"/>
      <use xlink:href="#DejaVuSans-6c" x="120.703125"/>
      <use xlink:href="#DejaVuSans-6f" x="148.486328"/>
      <use xlink:href="#DejaVuSans-63" x="209.667969"/>
      <use xlink:href="#DejaVuSans-69" x="264.648438"/>
      <use xlink:href="#DejaVuSans-74" x="292.431641"/>
      <use xlink:href="#DejaVuSans-79" x="331.640625"/>
     </g>
    </g>
   </g>
   <g id="line2d_26">
    <path d="M 138.436364 295.412348 
L 144.523636 300.906056 
L 150.610909 306.344872 
L 156.698182 311.674455 
L 162.785455 316.841551 
L 168.872727 321.794534 
L 174.96 326.483915 
L 181.047273 330.86284 
L 187.134545 334.887554 
L 193.221818 338.517846 
L 199.309091 341.717441 
L 205.396364 344.454371 
L 211.483636 346.70129 
L 217.570909 348.435747 
L 223.658182 349.640411 
L 229.745455 350.303246 
L 235.832727 350.41763 
L 241.92 349.982419 
L 248.007273 349.001962 
L 254.094545 347.486055 
L 260.181818 345.449845 
L 266.269091 342.913677 
L 272.356364 339.902891 
L 278.443636 336.447571 
L 284.530909 332.58224 
L 290.618182 328.34552 
L 296.705455 323.779742 
L 302.792727 318.930527 
L 308.88 313.846326 
L 314.967273 308.577939 
L 321.054545 303.178005 
L 327.141818 297.70048 
L 333.229091 292.200092 
L 339.316364 286.731801 
L 345.403636 281.350242 
L 351.490909 276.109187 
L 357.578182 271.061003 
L 363.665455 266.25613 
L 369.752727 261.742576 
L 375.84 257.565439 
L 381.927273 253.766456 
L 388.014545 250.383585 
L 394.101818 247.450627 
L 400.189091 244.996886 
L 406.276364 243.04688 
L 412.363636 241.620092 
L 418.450909 240.730779 
L 424.538182 240.387826 
L 430.625455 240.594659 
L 436.712727 241.349213 
L 442.8 242.643948 
L 448.887273 244.465928 
L 454.974545 246.796947 
L 461.061818 249.613715 
L 467.149091 252.888088 
L 473.236364 256.587349 
L 479.323636 260.674537 
L 485.410909 265.108814 
L 491.498182 269.845873 
L 497.585455 274.838384 
L 503.672727 280.036464 
L 509.76 285.388174 
L 515.847273 290.840043 
L 521.934545 296.337596 
L 528.021818 301.825905 
L 534.109091 307.250131 
L 540.196364 312.556079 
L 546.283636 317.690732 
L 552.370909 322.602786 
L 558.458182 327.243163 
L 564.545455 331.565497 
L 570.632727 335.5266 
L 576.72 339.086895 
L 582.807273 342.210809 
L 588.894545 344.867128 
L 594.981818 347.02931 
L 601.069091 348.675754 
L 607.156364 349.790007 
L 613.243636 350.360936 
L 619.330909 350.382837 
L 625.418182 349.855492 
L 631.505455 348.784168 
L 637.592727 347.179571 
L 643.68 345.057733 
L 649.767273 342.439854 
L 655.854545 339.352093 
L 661.941818 335.825299 
L 668.029091 331.894713 
L 674.116364 327.599608 
L 680.203636 322.982898 
L 686.290909 318.090712 
L 692.378182 312.971931 
L 698.465455 307.677701 
L 704.552727 302.260919 
L 710.64 296.775709 
L 716.727273 291.276876 
L 722.814545 285.819364 
L 728.901818 280.457702 
L 734.989091 275.245462 
L 741.076364 270.234722 
L 747.163636 265.475549 
" clip-path="url(#p98cf34ae7b)" style="fill: none; stroke: #1f77b4; stroke-width: 1.5; stroke-linecap: square"/>
   </g>
   <g id="line2d_27">
    <path d="M 138.436364 295.412348 
L 144.523636 300.915223 
L 150.610909 306.418097 
L 156.698182 311.865943 
L 162.785455 317.203732 
L 168.872727 322.376984 
L 174.96 327.332323 
L 181.047273 332.018015 
L 187.134545 336.384507 
L 193.221818 340.384943 
L 199.309091 343.975657 
L 205.396364 347.116645 
L 211.483636 349.772001 
L 217.570909 351.910313 
L 223.658182 353.505028 
L 229.745455 354.534764 
L 235.832727 354.983574 
L 241.92 354.841159 
L 248.007273 354.103031 
L 254.094545 352.770616 
L 260.181818 350.851294 
L 266.269091 348.358389 
L 272.356364 345.311095 
L 278.443636 341.73434 
L 284.530909 337.658598 
L 290.618182 333.119636 
L 296.705455 328.158212 
L 302.792727 322.819714 
L 308.88 317.153758 
L 314.967273 311.213728 
L 321.054545 305.056285 
L 327.141818 298.740827 
L 333.229091 292.32893 
L 339.316364 285.883748 
L 345.403636 279.469401 
L 351.490909 273.150339 
L 357.578182 266.990707 
L 363.665455 261.053695 
L 369.752727 255.400899 
L 375.84 250.09169 
L 381.927273 245.182596 
L 388.014545 240.726708 
L 394.101818 236.773117 
L 400.189091 233.366383 
L 406.276364 230.546041 
L 412.363636 228.346159 
L 418.450909 226.79494 
L 424.538182 225.914383 
L 430.625455 225.72 
L 436.712727 226.220597 
L 442.8 227.418117 
L 448.887273 229.307554 
L 454.974545 231.876934 
L 461.061818 235.107362 
L 467.149091 238.973144 
L 473.236364 243.441976 
L 479.323636 248.4752 
L 485.410909 254.028127 
L 491.498182 260.050427 
L 497.585455 266.486568 
L 503.672727 273.276328 
L 509.76 280.355347 
L 515.847273 287.655725 
L 521.934545 295.106674 
L 528.021818 302.635189 
L 534.109091 310.16676 
L 540.196364 317.626103 
L 546.283636 324.937902 
L 552.370909 332.027564 
L 558.458182 338.82197 
L 564.545455 345.250223 
L 570.632727 351.244381 
L 576.72 356.74016 
L 582.807273 361.677618 
L 588.894545 366.001799 
L 594.981818 369.663326 
L 601.069091 372.618959 
L 607.156364 374.832083 
L 613.243636 376.27314 
L 619.330909 376.92 
L 625.418182 376.758252 
L 631.505455 375.781427 
L 637.592727 373.991144 
L 643.68 371.39717 
L 649.767273 368.017407 
L 655.854545 363.877797 
L 661.941818 359.012136 
L 668.029091 353.46182 
L 674.116364 347.275507 
L 680.203636 340.508698 
L 686.290909 333.223259 
L 692.378182 325.486855 
L 698.465455 317.372343 
L 704.552727 308.957086 
L 710.64 300.322228 
L 716.727273 291.551923 
L 722.814545 282.73252 
L 728.901818 273.951721 
L 734.989091 265.29772 
L 741.076364 256.858325 
L 747.163636 248.720076 
" clip-path="url(#p98cf34ae7b)" style="fill: none; stroke: #ff7f0e; stroke-width: 1.5; stroke-linecap: square"/>
   </g>
   <g id="line2d_28">
    <path d="M 138.436364 295.412348 
L 144.523636 300.906051 
L 150.610909 306.344863 
L 156.698182 311.674441 
L 162.785455 316.841534 
L 168.872727 321.794513 
L 174.96 326.483891 
L 181.047273 330.862813 
L 187.134545 334.887527 
L 193.221818 338.517817 
L 199.309091 341.717413 
L 205.396364 344.454345 
L 211.483636 346.701266 
L 217.570909 348.435726 
L 223.658182 349.640395 
L 229.745455 350.303236 
L 235.832727 350.417626 
L 241.92 349.982422 
L 248.007273 349.001974 
L 254.094545 347.486076 
L 260.181818 345.449876 
L 266.269091 342.913718 
L 272.356364 339.902944 
L 278.443636 336.447634 
L 284.530909 332.582315 
L 290.618182 328.345606 
L 296.705455 323.779839 
L 302.792727 318.930634 
L 308.88 313.846443 
L 314.967273 308.578065 
L 321.054545 303.178139 
L 327.141818 297.700621 
L 333.229091 292.200239 
L 339.316364 286.731952 
L 345.403636 281.350396 
L 351.490909 276.109342 
L 357.578182 271.061157 
L 363.665455 266.256281 
L 369.752727 261.742722 
L 375.84 257.565579 
L 381.927273 253.766587 
L 388.014545 250.383706 
L 394.101818 247.450735 
L 400.189091 244.99698 
L 406.276364 243.046958 
L 412.363636 241.620152 
L 418.450909 240.73082 
L 424.538182 240.387846 
L 430.625455 240.594658 
L 436.712727 241.34919 
L 442.8 242.643902 
L 448.887273 244.465858 
L 454.974545 246.796853 
L 461.061818 249.613598 
L 467.149091 252.887947 
L 473.236364 256.587186 
L 479.323636 260.674352 
L 485.410909 265.108608 
L 491.498182 269.845649 
L 497.585455 274.838143 
L 503.672727 280.036207 
L 509.76 285.387904 
L 515.847273 290.839762 
L 521.934545 296.337308 
L 528.021818 301.825612 
L 534.109091 307.249836 
L 540.196364 312.555784 
L 546.283636 317.690441 
L 552.370909 322.602503 
L 558.458182 327.242891 
L 564.545455 331.565238 
L 570.632727 335.526358 
L 576.72 339.086673 
L 582.807273 342.21061 
L 588.894545 344.866954 
L 594.981818 347.029165 
L 601.069091 348.675638 
L 607.156364 349.789924 
L 613.243636 350.360887 
L 619.330909 350.382824 
L 625.418182 349.855515 
L 631.505455 348.784228 
L 637.592727 347.179668 
L 643.68 345.057868 
L 649.767273 342.440026 
L 655.854545 339.3523 
L 661.941818 335.825542 
L 668.029091 331.894989 
L 674.116364 327.599914 
L 680.203636 322.983233 
L 686.290909 318.091072 
L 692.378182 312.972314 
L 698.465455 307.678103 
L 704.552727 302.261336 
L 710.64 296.776137 
L 716.727273 291.277312 
L 722.814545 285.819803 
L 728.901818 280.458139 
L 734.989091 275.245892 
L 741.076364 270.235142 
L 747.163636 265.475953 
" clip-path="url(#p98cf34ae7b)" style="fill: none; stroke: #2ca02c; stroke-width: 1.5; stroke-linecap: square"/>
   </g>
   <g id="patch_9">
    <path d="M 108 384.48 
L 108 218.16 
" style="fill: none; stroke: #000000; stroke-width: 0.8; stroke-linejoin: miter; stroke-linecap: square"/>
   </g>
   <g id="patch_10">
    <path d="M 777.6 384.48 
L 777.6 218.16 
" style="fill: none; stroke: #000000; stroke-width: 0.8; stroke-linejoin: miter; stroke-linecap: square"/>
   </g>
   <g id="patch_11">
    <path d="M 108 384.48 
L 777.6 384.48 
" style="fill: none; stroke: #000000; stroke-width: 0.8; stroke-linejoin: miter; stroke-linecap: square"/>
   </g>
   <g id="patch_12">
    <path d="M 108 218.16 
L 777.6 218.16 
" style="fill: none; stroke: #000000; stroke-width: 0.8; stroke-linejoin: miter; stroke-linecap: square"/>
   </g>
  </g>
 </g>
 <defs>
  <clipPath id="p75047b0103">
   <rect x="108" y="51.84" width="669.6" height="166.32"/>
  </clipPath>
  <clipPath id="p98cf34ae7b">
   <rect x="108" y="218.16" width="669.6" height="166.32"/>
  </clipPath>
 </defs>
</svg>
