<?xml version="1.0" encoding="utf-8" standalone="no"?>
<!DOCTYPE svg PUBLIC "-//W3C//DTD SVG 1.1//EN"
  "http://www.w3.org/Graphics/SVG/1.1/DTD/svg11.dtd">
<svg xmlns:xlink="http://www.w3.org/1999/xlink" width="288pt" height="288pt" viewBox="0 0 288 288" xmlns="http://www.w3.org/2000/svg" version="1.1">
 <metadata>
  <rdf:RDF xmlns:dc="http://purl.org/dc/elements/1.1/" xmlns:cc="http://creativecommons.org/ns#" xmlns:rdf="http://www.w3.org/1999/02/22-rdf-syntax-ns#">
   <cc:Work>
    <dc:type rdf:resource="http://purl.org/dc/dcmitype/StillImage"/>
    <dc:date>2025-06-04T13:09:15.735844</dc:date>
    <dc:format>image/svg+xml</dc:format>
    <dc:creator>
     <cc:Agent>
      <dc:title>Matplotlib v3.9.4, https://matplotlib.org/</dc:title>
     </cc:Agent>
    </dc:creator>
   </cc:Work>
  </rdf:RDF>
 </metadata>
 <defs>
  <style type="text/css">*{stroke-linejoin: round; stroke-linecap: butt}</style>
 </defs>
 <g id="figure_1">
  <g id="patch_1">
   <path d="M 0 288 
L 288 288 
L 288 0 
L 0 0 
z
" style="fill: #ffffff"/>
  </g>
  <g id="axes_1">
   <g id="patch_2">
    <path d="M 44.615 246.04 
L 277.2 246.04 
L 277.2 10.8 
L 44.615 10.8 
z
" style="fill: #ffffff"/>
   </g>
   <g id="matplotlib.axis_1">
    <g id="xtick_1">
     <g id="line2d_1">
      <defs>
       <path id="md6163415cf" d="M 0 0 
L 0 3.5 
" style="stroke: #000000; stroke-width: 0.8"/>
      </defs>
      <g>
       <use xlink:href="#md6163415cf" x="67.8735" y="246.04" style="stroke: #000000; stroke-width: 0.8"/>
      </g>
     </g>
     <g id="text_1">
      <!-- 0 -->
      <g transform="translate(64.69225 260.638438) scale(0.1 -0.1)">
       <defs>
        <path id="DejaVuSans-30" d="M 2034 4250 
Q 1547 4250 1301 3770 
Q 1056 3291 1056 2328 
Q 1056 1369 1301 889 
Q 1547 409 2034 409 
Q 2525 409 2770 889 
Q 3016 1369 3016 2328 
Q 3016 3291 2770 3770 
Q 2525 4250 2034 4250 
z
M 2034 4750 
Q 2819 4750 3233 4129 
Q 3647 3509 3647 2328 
Q 3647 1150 3233 529 
Q 2819 -91 2034 -91 
Q 1250 -91 836 529 
Q 422 1150 422 2328 
Q 422 3509 836 4129 
Q 1250 4750 2034 4750 
z
" transform="scale(0.015625)"/>
       </defs>
       <use xlink:href="#DejaVuSans-30"/>
      </g>
     </g>
    </g>
    <g id="xtick_2">
     <g id="line2d_2">
      <g>
       <use xlink:href="#md6163415cf" x="114.3905" y="246.04" style="stroke: #000000; stroke-width: 0.8"/>
      </g>
     </g>
     <g id="text_2">
      <!-- 1 -->
      <g transform="translate(111.20925 260.638438) scale(0.1 -0.1)">
       <defs>
        <path id="DejaVuSans-31" d="M 794 531 
L 1825 531 
L 1825 4091 
L 703 3866 
L 703 4441 
L 1819 4666 
L 2450 4666 
L 2450 531 
L 3481 531 
L 3481 0 
L 794 0 
L 794 531 
z
" transform="scale(0.015625)"/>
       </defs>
       <use xlink:href="#DejaVuSans-31"/>
      </g>
     </g>
    </g>
    <g id="xtick_3">
     <g id="line2d_3">
      <g>
       <use xlink:href="#md6163415cf" x="160.9075" y="246.04" style="stroke: #000000; stroke-width: 0.8"/>
      </g>
     </g>
     <g id="text_3">
      <!-- 2 -->
      <g transform="translate(157.72625 260.638438) scale(0.1 -0.1)">
       <defs>
        <path id="DejaVuSans-32" d="M 1228 531 
L 3431 531 
L 3431 0 
L 469 0 
L 469 531 
Q 828 903 1448 1529 
Q 2069 2156 2228 2338 
Q 2531 2678 2651 2914 
Q 2772 3150 2772 3378 
Q 2772 3750 2511 3984 
Q 2250 4219 1831 4219 
Q 1534 4219 1204 4116 
Q 875 4013 500 3803 
L 500 4441 
Q 881 4594 1212 4672 
Q 1544 4750 1819 4750 
Q 2544 4750 2975 4387 
Q 3406 4025 3406 3419 
Q 3406 3131 3298 2873 
Q 3191 2616 2906 2266 
Q 2828 2175 2409 1742 
Q 1991 1309 1228 531 
z
" transform="scale(0.015625)"/>
       </defs>
       <use xlink:href="#DejaVuSans-32"/>
      </g>
     </g>
    </g>
    <g id="xtick_4">
     <g id="line2d_4">
      <g>
       <use xlink:href="#md6163415cf" x="207.4245" y="246.04" style="stroke: #000000; stroke-width: 0.8"/>
      </g>
     </g>
     <g id="text_4">
      <!-- 3 -->
      <g transform="translate(204.24325 260.638438) scale(0.1 -0.1)">
       <defs>
        <path id="DejaVuSans-33" d="M 2597 2516 
Q 3050 2419 3304 2112 
Q 3559 1806 3559 1356 
Q 3559 666 3084 287 
Q 2609 -91 1734 -91 
Q 1441 -91 1130 -33 
Q 819 25 488 141 
L 488 750 
Q 750 597 1062 519 
Q 1375 441 1716 441 
Q 2309 441 2620 675 
Q 2931 909 2931 1356 
Q 2931 1769 2642 2001 
Q 2353 2234 1838 2234 
L 1294 2234 
L 1294 2753 
L 1863 2753 
Q 2328 2753 2575 2939 
Q 2822 3125 2822 3475 
Q 2822 3834 2567 4026 
Q 2313 4219 1838 4219 
Q 1578 4219 1281 4162 
Q 984 4106 628 3988 
L 628 4550 
Q 988 4650 1302 4700 
Q 1616 4750 1894 4750 
Q 2613 4750 3031 4423 
Q 3450 4097 3450 3541 
Q 3450 3153 3228 2886 
Q 3006 2619 2597 2516 
z
" transform="scale(0.015625)"/>
       </defs>
       <use xlink:href="#DejaVuSans-33"/>
      </g>
     </g>
    </g>
    <g id="xtick_5">
     <g id="line2d_5">
      <g>
       <use xlink:href="#md6163415cf" x="253.9415" y="246.04" style="stroke: #000000; stroke-width: 0.8"/>
      </g>
     </g>
     <g id="text_5">
      <!-- 4 -->
      <g transform="translate(250.76025 260.638438) scale(0.1 -0.1)">
       <defs>
        <path id="DejaVuSans-34" d="M 2419 4116 
L 825 1625 
L 2419 1625 
L 2419 4116 
z
M 2253 4666 
L 3047 4666 
L 3047 1625 
L 3713 1625 
L 3713 1100 
L 3047 1100 
L 3047 0 
L 2419 0 
L 2419 1100 
L 313 1100 
L 313 1709 
L 2253 4666 
z
" transform="scale(0.015625)"/>
       </defs>
       <use xlink:href="#DejaVuSans-34"/>
      </g>
     </g>
    </g>
    <g id="text_6">
     <!-- x -->
     <g transform="translate(157.948125 274.316562) scale(0.1 -0.1)">
      <defs>
       <path id="DejaVuSans-78" d="M 3513 3500 
L 2247 1797 
L 3578 0 
L 2900 0 
L 1881 1375 
L 863 0 
L 184 0 
L 1544 1831 
L 300 3500 
L 978 3500 
L 1906 2253 
L 2834 3500 
L 3513 3500 
z
" transform="scale(0.015625)"/>
      </defs>
      <use xlink:href="#DejaVuSans-78"/>
     </g>
    </g>
   </g>
   <g id="matplotlib.axis_2">
    <g id="ytick_1">
     <g id="line2d_6">
      <defs>
       <path id="m9a43c9c289" d="M 0 0 
L -3.5 0 
" style="stroke: #000000; stroke-width: 0.8"/>
      </defs>
      <g>
       <use xlink:href="#m9a43c9c289" x="44.615" y="238.451613" style="stroke: #000000; stroke-width: 0.8"/>
      </g>
     </g>
     <g id="text_7">
      <!-- 0 -->
      <g transform="translate(31.2525 242.250832) scale(0.1 -0.1)">
       <use xlink:href="#DejaVuSans-30"/>
      </g>
     </g>
    </g>
    <g id="ytick_2">
     <g id="line2d_7">
      <g>
       <use xlink:href="#m9a43c9c289" x="44.615" y="208.098065" style="stroke: #000000; stroke-width: 0.8"/>
      </g>
     </g>
     <g id="text_8">
      <!-- 2 -->
      <g transform="translate(31.2525 211.897283) scale(0.1 -0.1)">
       <use xlink:href="#DejaVuSans-32"/>
      </g>
     </g>
    </g>
    <g id="ytick_3">
     <g id="line2d_8">
      <g>
       <use xlink:href="#m9a43c9c289" x="44.615" y="177.744516" style="stroke: #000000; stroke-width: 0.8"/>
      </g>
     </g>
     <g id="text_9">
      <!-- 4 -->
      <g transform="translate(31.2525 181.543735) scale(0.1 -0.1)">
       <use xlink:href="#DejaVuSans-34"/>
      </g>
     </g>
    </g>
    <g id="ytick_4">
     <g id="line2d_9">
      <g>
       <use xlink:href="#m9a43c9c289" x="44.615" y="147.390968" style="stroke: #000000; stroke-width: 0.8"/>
      </g>
     </g>
     <g id="text_10">
      <!-- 6 -->
      <g transform="translate(31.2525 151.190186) scale(0.1 -0.1)">
       <defs>
        <path id="DejaVuSans-36" d="M 2113 2584 
Q 1688 2584 1439 2293 
Q 1191 2003 1191 1497 
Q 1191 994 1439 701 
Q 1688 409 2113 409 
Q 2538 409 2786 701 
Q 3034 994 3034 1497 
Q 3034 2003 2786 2293 
Q 2538 2584 2113 2584 
z
M 3366 4563 
L 3366 3988 
Q 3128 4100 2886 4159 
Q 2644 4219 2406 4219 
Q 1781 4219 1451 3797 
Q 1122 3375 1075 2522 
Q 1259 2794 1537 2939 
Q 1816 3084 2150 3084 
Q 2853 3084 3261 2657 
Q 3669 2231 3669 1497 
Q 3669 778 3244 343 
Q 2819 -91 2113 -91 
Q 1303 -91 875 529 
Q 447 1150 447 2328 
Q 447 3434 972 4092 
Q 1497 4750 2381 4750 
Q 2619 4750 2861 4703 
Q 3103 4656 3366 4563 
z
" transform="scale(0.015625)"/>
       </defs>
       <use xlink:href="#DejaVuSans-36"/>
      </g>
     </g>
    </g>
    <g id="ytick_5">
     <g id="line2d_10">
      <g>
       <use xlink:href="#m9a43c9c289" x="44.615" y="117.037419" style="stroke: #000000; stroke-width: 0.8"/>
      </g>
     </g>
     <g id="text_11">
      <!-- 8 -->
      <g transform="translate(31.2525 120.836638) scale(0.1 -0.1)">
       <defs>
        <path id="DejaVuSans-38" d="M 2034 2216 
Q 1584 2216 1326 1975 
Q 1069 1734 1069 1313 
Q 1069 891 1326 650 
Q 1584 409 2034 409 
Q 2484 409 2743 651 
Q 3003 894 3003 1313 
Q 3003 1734 2745 1975 
Q 2488 2216 2034 2216 
z
M 1403 2484 
Q 997 2584 770 2862 
Q 544 3141 544 3541 
Q 544 4100 942 4425 
Q 1341 4750 2034 4750 
Q 2731 4750 3128 4425 
Q 3525 4100 3525 3541 
Q 3525 3141 3298 2862 
Q 3072 2584 2669 2484 
Q 3125 2378 3379 2068 
Q 3634 1759 3634 1313 
Q 3634 634 3220 271 
Q 2806 -91 2034 -91 
Q 1263 -91 848 271 
Q 434 634 434 1313 
Q 434 1759 690 2068 
Q 947 2378 1403 2484 
z
M 1172 3481 
Q 1172 3119 1398 2916 
Q 1625 2713 2034 2713 
Q 2441 2713 2670 2916 
Q 2900 3119 2900 3481 
Q 2900 3844 2670 4047 
Q 2441 4250 2034 4250 
Q 1625 4250 1398 4047 
Q 1172 3844 1172 3481 
z
" transform="scale(0.015625)"/>
       </defs>
       <use xlink:href="#DejaVuSans-38"/>
      </g>
     </g>
    </g>
    <g id="ytick_6">
     <g id="line2d_11">
      <g>
       <use xlink:href="#m9a43c9c289" x="44.615" y="86.683871" style="stroke: #000000; stroke-width: 0.8"/>
      </g>
     </g>
     <g id="text_12">
      <!-- 10 -->
      <g transform="translate(24.89 90.48309) scale(0.1 -0.1)">
       <use xlink:href="#DejaVuSans-31"/>
       <use xlink:href="#DejaVuSans-30" x="63.623047"/>
      </g>
     </g>
    </g>
    <g id="ytick_7">
     <g id="line2d_12">
      <g>
       <use xlink:href="#m9a43c9c289" x="44.615" y="56.330323" style="stroke: #000000; stroke-width: 0.8"/>
      </g>
     </g>
     <g id="text_13">
      <!-- 12 -->
      <g transform="translate(24.89 60.129541) scale(0.1 -0.1)">
       <use xlink:href="#DejaVuSans-31"/>
       <use xlink:href="#DejaVuSans-32" x="63.623047"/>
      </g>
     </g>
    </g>
    <g id="ytick_8">
     <g id="line2d_13">
      <g>
       <use xlink:href="#m9a43c9c289" x="44.615" y="25.976774" style="stroke: #000000; stroke-width: 0.8"/>
      </g>
     </g>
     <g id="text_14">
      <!-- 14 -->
      <g transform="translate(24.89 29.775993) scale(0.1 -0.1)">
       <use xlink:href="#DejaVuSans-31"/>
       <use xlink:href="#DejaVuSans-34" x="63.623047"/>
      </g>
     </g>
    </g>
    <g id="text_15">
     <!-- energy -->
     <g transform="translate(18.810312 145.843438) rotate(-90) scale(0.1 -0.1)">
      <defs>
       <path id="DejaVuSans-65" d="M 3597 1894 
L 3597 1613 
L 953 1613 
Q 991 1019 1311 708 
Q 1631 397 2203 397 
Q 2534 397 2845 478 
Q 3156 559 3463 722 
L 3463 178 
Q 3153 47 2828 -22 
Q 2503 -91 2169 -91 
Q 1331 -91 842 396 
Q 353 884 353 1716 
Q 353 2575 817 3079 
Q 1281 3584 2069 3584 
Q 2775 3584 3186 3129 
Q 3597 2675 3597 1894 
z
M 3022 2063 
Q 3016 2534 2758 2815 
Q 2500 3097 2075 3097 
Q 1594 3097 1305 2825 
Q 1016 2553 972 2059 
L 3022 2063 
z
" transform="scale(0.015625)"/>
       <path id="DejaVuSans-6e" d="M 3513 2113 
L 3513 0 
L 2938 0 
L 2938 2094 
Q 2938 2591 2744 2837 
Q 2550 3084 2163 3084 
Q 1697 3084 1428 2787 
Q 1159 2491 1159 1978 
L 1159 0 
L 581 0 
L 581 3500 
L 1159 3500 
L 1159 2956 
Q 1366 3272 1645 3428 
Q 1925 3584 2291 3584 
Q 2894 3584 3203 3211 
Q 3513 2838 3513 2113 
z
" transform="scale(0.015625)"/>
       <path id="DejaVuSans-72" d="M 2631 2963 
Q 2534 3019 2420 3045 
Q 2306 3072 2169 3072 
Q 1681 3072 1420 2755 
Q 1159 2438 1159 1844 
L 1159 0 
L 581 0 
L 581 3500 
L 1159 3500 
L 1159 2956 
Q 1341 3275 1631 3429 
Q 1922 3584 2338 3584 
Q 2397 3584 2469 3576 
Q 2541 3569 2628 3553 
L 2631 2963 
z
" transform="scale(0.015625)"/>
       <path id="DejaVuSans-67" d="M 2906 1791 
Q 2906 2416 2648 2759 
Q 2391 3103 1925 3103 
Q 1463 3103 1205 2759 
Q 947 2416 947 1791 
Q 947 1169 1205 825 
Q 1463 481 1925 481 
Q 2391 481 2648 825 
Q 2906 1169 2906 1791 
z
M 3481 434 
Q 3481 -459 3084 -895 
Q 2688 -1331 1869 -1331 
Q 1566 -1331 1297 -1286 
Q 1028 -1241 775 -1147 
L 775 -588 
Q 1028 -725 1275 -790 
Q 1522 -856 1778 -856 
Q 2344 -856 2625 -561 
Q 2906 -266 2906 331 
L 2906 616 
Q 2728 306 2450 153 
Q 2172 0 1784 0 
Q 1141 0 747 490 
Q 353 981 353 1791 
Q 353 2603 747 3093 
Q 1141 3584 1784 3584 
Q 2172 3584 2450 3431 
Q 2728 3278 2906 2969 
L 2906 3500 
L 3481 3500 
L 3481 434 
z
" transform="scale(0.015625)"/>
       <path id="DejaVuSans-79" d="M 2059 -325 
Q 1816 -950 1584 -1140 
Q 1353 -1331 966 -1331 
L 506 -1331 
L 506 -850 
L 844 -850 
Q 1081 -850 1212 -737 
Q 1344 -625 1503 -206 
L 1606 56 
L 191 3500 
L 800 3500 
L 1894 763 
L 2988 3500 
L 3597 3500 
L 2059 -325 
z
" transform="scale(0.015625)"/>
      </defs>
      <use xlink:href="#DejaVuSans-65"/>
      <use xlink:href="#DejaVuSans-6e" x="61.523438"/>
      <use xlink:href="#DejaVuSans-65" x="124.902344"/>
      <use xlink:href="#DejaVuSans-72" x="186.425781"/>
      <use xlink:href="#DejaVuSans-67" x="225.789062"/>
      <use xlink:href="#DejaVuSans-79" x="289.265625"/>
     </g>
    </g>
   </g>
   <g id="line2d_14">
    <path d="M 68.282423 -1 
L 68.283141 238.451613 
L 137.466937 238.451613 
L 137.922094 86.683871 
L 183.892906 86.683871 
L 184.348063 208.098065 
L 253.531859 208.098065 
L 253.532486 -1 
L 253.532486 -1 
" clip-path="url(#p1c8619de57)" style="fill: none; stroke: #000000; stroke-width: 2; stroke-linecap: square"/>
   </g>
   <g id="line2d_15">
    <path d="M 44.615 213.600589 
L 67.827984 213.709393 
L 76.931115 219.328286 
L 81.937838 222.157625 
L 86.034247 224.236291 
L 89.675499 225.859198 
L 93.316751 227.236521 
L 96.502847 228.218401 
L 99.688943 228.975981 
L 102.875039 229.497639 
L 106.061135 229.775369 
L 109.247231 229.804909 
L 112.433327 229.585808 
L 115.619423 229.121426 
L 118.805519 228.418889 
L 121.991614 227.488977 
L 125.17771 226.345959 
L 128.818963 224.801345 
L 132.915372 222.797157 
L 137.466937 220.299337 
L 139.74272 219.085144 
L 142.473659 217.915209 
L 145.204599 216.995159 
L 148.390695 216.167162 
L 152.031947 215.466005 
L 156.128356 214.904848 
L 161.135078 214.445694 
L 167.50727 214.09379 
L 176.155245 213.857373 
L 188.899628 213.761427 
L 265.821086 213.600589 
L 277.2 213.600589 
L 277.2 213.600589 
" clip-path="url(#p1c8619de57)" style="fill: none; stroke: #1f77b4; stroke-width: 1.5; stroke-linecap: square"/>
   </g>
   <g id="line2d_16">
    <path d="M 44.615 184.053912 
L 73.74502 184.164183 
L 91.951282 184.370297 
L 106.516292 184.306426 
L 128.363806 183.942967 
L 152.031947 183.4335 
L 158.859295 183.022314 
L 164.321174 182.491299 
L 168.87274 181.839918 
L 172.969149 181.02171 
L 176.155245 180.180213 
L 179.341341 179.104384 
L 182.07228 177.946868 
L 184.803219 176.52944 
L 189.354785 174.184082 
L 193.451194 172.326772 
L 197.092446 170.915991 
L 200.733699 169.759878 
L 203.919795 168.974932 
L 207.10589 168.413858 
L 210.291986 168.084986 
L 213.478082 167.993198 
L 216.664178 168.139858 
L 219.850274 168.522787 
L 223.03637 169.1363 
L 226.222466 169.97129 
L 229.863718 171.180712 
L 233.504971 172.63967 
L 237.60138 174.543888 
L 242.152945 176.930973 
L 247.614824 180.073148 
L 254.442172 184.02479 
L 257.173112 184.053899 
L 277.2 184.053912 
L 277.2 184.053912 
" clip-path="url(#p1c8619de57)" style="fill: none; stroke: #ff7f0e; stroke-width: 1.5; stroke-linecap: square"/>
   </g>
   <g id="line2d_17">
    <path d="M 44.615 142.289959 
L 67.372828 142.23335 
L 67.827984 142.083971 
L 72.834706 136.262475 
L 75.565646 133.405439 
L 77.841429 131.315148 
L 80.117211 129.556931 
L 81.937838 128.42558 
L 83.758464 127.562957 
L 85.57909 126.985781 
L 87.399716 126.70524 
L 88.765186 126.692992 
L 90.130656 126.850913 
L 91.951282 127.322939 
L 93.771908 128.085065 
L 95.592534 129.122519 
L 97.41316 130.415192 
L 99.688943 132.351332 
L 101.964726 134.588192 
L 104.695665 137.573557 
L 109.247231 142.936934 
L 113.798796 148.222599 
L 116.529736 151.089859 
L 118.805519 153.191506 
L 121.081301 154.963298 
L 122.901928 156.106829 
L 124.722554 156.982555 
L 126.54318 157.573499 
L 128.363806 157.868209 
L 129.729276 157.891182 
L 131.094746 157.743938 
L 132.915372 157.285875 
L 134.735998 156.537153 
L 136.556624 155.512282 
L 142.473659 151.731721 
L 145.204599 150.356794 
L 148.390695 149.008596 
L 151.576791 147.892013 
L 155.218043 146.850465 
L 159.314452 145.922423 
L 163.866018 145.132615 
L 168.87274 144.4938 
L 174.789775 143.978504 
L 181.161967 143.648459 
L 194.361507 143.084091 
L 204.830108 142.265389 
L 217.119335 141.344492 
L 224.40184 141.031908 
L 230.774031 140.972988 
L 237.146223 141.125511 
L 244.428728 141.525885 
L 256.717955 142.289953 
L 277.2 142.289959 
L 277.2 142.289959 
" clip-path="url(#p1c8619de57)" style="fill: none; stroke: #2ca02c; stroke-width: 1.5; stroke-linecap: square"/>
   </g>
   <g id="line2d_18">
    <path d="M 44.615 115.946477 
L 67.827984 115.914433 
L 75.565646 114.587969 
L 80.117211 114.052306 
L 83.758464 113.829384 
L 87.399716 113.81419 
L 91.040969 114.008215 
L 95.137378 114.452123 
L 100.1441 115.238632 
L 113.798796 117.554962 
L 117.895205 117.950587 
L 121.536458 118.094631 
L 125.17771 118.027899 
L 129.274119 117.709829 
L 133.825685 117.102825 
L 140.653033 115.911005 
L 152.94226 113.598439 
L 159.769609 112.080173 
L 165.231487 110.639625 
L 169.783053 109.226385 
L 173.879462 107.743363 
L 177.975871 106.014421 
L 181.617123 104.229423 
L 186.623845 101.62404 
L 188.444472 101.052255 
L 190.265098 100.757137 
L 192.085724 100.744168 
L 193.90635 101.01359 
L 195.726977 101.560397 
L 197.547603 102.374433 
L 199.368229 103.440576 
L 201.188855 104.739022 
L 203.464638 106.651637 
L 206.195577 109.297116 
L 209.381673 112.725637 
L 218.939961 123.2892 
L 221.6709 125.847345 
L 223.946683 127.667682 
L 225.767309 128.881436 
L 227.587935 129.854917 
L 229.408562 130.570042 
L 231.229188 131.013527 
L 233.049814 131.177135 
L 234.87044 131.057825 
L 236.691067 130.657815 
L 238.511693 129.984534 
L 240.332319 129.05049 
L 242.152945 127.873032 
L 244.428728 126.092629 
L 246.704511 124.017998 
L 249.43545 121.225269 
L 253.531859 116.662361 
L 253.987016 116.143233 
L 254.897329 115.96134 
L 259.904051 115.946477 
L 277.2 115.946477 
L 277.2 115.946477 
" clip-path="url(#p1c8619de57)" style="fill: none; stroke: #d62728; stroke-width: 1.5; stroke-linecap: square"/>
   </g>
   <g id="line2d_19">
    <path d="M 44.615 53.000198 
L 67.372828 53.051689 
L 67.827984 53.1875 
L 71.924393 57.48068 
L 74.200176 59.551073 
L 76.020802 60.937867 
L 77.841429 62.028369 
L 79.206898 62.626855 
L 80.572368 63.022937 
L 81.937838 63.208287 
L 83.303307 63.179008 
L 84.668777 62.935716 
L 86.034247 62.483526 
L 87.399716 61.831946 
L 89.220342 60.677256 
L 91.040969 59.236002 
L 93.316751 57.11427 
L 96.502847 53.771944 
L 101.509569 48.493451 
L 103.785352 46.426902 
L 105.605978 45.044135 
L 107.426605 43.958348 
L 108.792074 43.363744 
L 110.157544 42.97175 
L 111.523014 42.790607 
L 112.888483 42.824125 
L 114.253953 43.071599 
L 115.619423 43.527825 
L 116.984892 44.183212 
L 118.805519 45.34248 
L 120.626145 46.787591 
L 122.901928 48.912912 
L 126.088023 52.257614 
L 131.094746 57.533174 
L 133.370528 59.595862 
L 135.191155 60.974589 
L 137.011781 62.055652 
L 139.287564 63.038173 
L 142.473659 64.207743 
L 145.659755 65.144323 
L 148.845851 65.828443 
L 151.576791 66.202966 
L 154.30773 66.375746 
L 157.038669 66.344143 
L 159.769609 66.108641 
L 162.500548 65.672838 
L 165.686644 64.920292 
L 168.87274 63.919944 
L 172.058836 62.692589 
L 175.700088 61.044858 
L 179.796497 58.932671 
L 184.803219 56.077325 
L 188.444472 53.723329 
L 194.361507 49.842182 
L 197.092446 48.32597 
L 199.368229 47.308698 
L 201.644012 46.568772 
L 203.464638 46.201252 
L 205.285264 46.046082 
L 207.10589 46.10811 
L 208.926517 46.385397 
L 210.747143 46.869283 
L 213.022926 47.741069 
L 215.298708 48.869131 
L 218.029648 50.482966 
L 222.581213 53.502837 
L 226.677622 56.154678 
L 229.408562 57.671486 
L 231.684344 58.689414 
L 233.960127 59.430107 
L 235.780753 59.798297 
L 237.60138 59.954162 
L 239.422006 59.892835 
L 241.242632 59.616231 
L 243.063258 59.132989 
L 245.339041 58.261925 
L 247.614824 57.134458 
L 250.345763 55.521129 
L 254.442172 53.03226 
L 257.173112 53.000212 
L 277.2 53.000198 
L 277.2 53.000198 
" clip-path="url(#p1c8619de57)" style="fill: none; stroke: #9467bd; stroke-width: 1.5; stroke-linecap: square"/>
   </g>
   <g id="patch_3">
    <path d="M 44.615 246.04 
L 44.615 10.8 
" style="fill: none; stroke: #000000; stroke-width: 0.8; stroke-linejoin: miter; stroke-linecap: square"/>
   </g>
   <g id="patch_4">
    <path d="M 277.2 246.04 
L 277.2 10.8 
" style="fill: none; stroke: #000000; stroke-width: 0.8; stroke-linejoin: miter; stroke-linecap: square"/>
   </g>
   <g id="patch_5">
    <path d="M 44.615 246.04 
L 277.2 246.04 
" style="fill: none; stroke: #000000; stroke-width: 0.8; stroke-linejoin: miter; stroke-linecap: square"/>
   </g>
   <g id="patch_6">
    <path d="M 44.615 10.8 
L 277.2 10.8 
" style="fill: none; stroke: #000000; stroke-width: 0.8; stroke-linejoin: miter; stroke-linecap: square"/>
   </g>
   <g id="legend_1">
    <g id="patch_7">
     <path d="M 51.615 106.86875 
L 128.097813 106.86875 
Q 130.097813 106.86875 130.097813 104.86875 
L 130.097813 17.8 
Q 130.097813 15.8 128.097813 15.8 
L 51.615 15.8 
Q 49.615 15.8 49.615 17.8 
L 49.615 104.86875 
Q 49.615 106.86875 51.615 106.86875 
z
" style="fill: #ffffff; opacity: 0.8; stroke: #cccccc; stroke-linejoin: miter"/>
    </g>
    <g id="line2d_20">
     <path d="M 53.615 23.898438 
L 63.615 23.898438 
L 73.615 23.898438 
" style="fill: none; stroke: #000000; stroke-width: 2; stroke-linecap: square"/>
    </g>
    <g id="text_16">
     <!-- potential -->
     <g transform="translate(81.615 27.398438) scale(0.1 -0.1)">
      <defs>
       <path id="DejaVuSans-70" d="M 1159 525 
L 1159 -1331 
L 581 -1331 
L 581 3500 
L 1159 3500 
L 1159 2969 
Q 1341 3281 1617 3432 
Q 1894 3584 2278 3584 
Q 2916 3584 3314 3078 
Q 3713 2572 3713 1747 
Q 3713 922 3314 415 
Q 2916 -91 2278 -91 
Q 1894 -91 1617 61 
Q 1341 213 1159 525 
z
M 3116 1747 
Q 3116 2381 2855 2742 
Q 2594 3103 2138 3103 
Q 1681 3103 1420 2742 
Q 1159 2381 1159 1747 
Q 1159 1113 1420 752 
Q 1681 391 2138 391 
Q 2594 391 2855 752 
Q 3116 1113 3116 1747 
z
" transform="scale(0.015625)"/>
       <path id="DejaVuSans-6f" d="M 1959 3097 
Q 1497 3097 1228 2736 
Q 959 2375 959 1747 
Q 959 1119 1226 758 
Q 1494 397 1959 397 
Q 2419 397 2687 759 
Q 2956 1122 2956 1747 
Q 2956 2369 2687 2733 
Q 2419 3097 1959 3097 
z
M 1959 3584 
Q 2709 3584 3137 3096 
Q 3566 2609 3566 1747 
Q 3566 888 3137 398 
Q 2709 -91 1959 -91 
Q 1206 -91 779 398 
Q 353 888 353 1747 
Q 353 2609 779 3096 
Q 1206 3584 1959 3584 
z
" transform="scale(0.015625)"/>
       <path id="DejaVuSans-74" d="M 1172 4494 
L 1172 3500 
L 2356 3500 
L 2356 3053 
L 1172 3053 
L 1172 1153 
Q 1172 725 1289 603 
Q 1406 481 1766 481 
L 2356 481 
L 2356 0 
L 1766 0 
Q 1100 0 847 248 
Q 594 497 594 1153 
L 594 3053 
L 172 3053 
L 172 3500 
L 594 3500 
L 594 4494 
L 1172 4494 
z
" transform="scale(0.015625)"/>
       <path id="DejaVuSans-69" d="M 603 3500 
L 1178 3500 
L 1178 0 
L 603 0 
L 603 3500 
z
M 603 4863 
L 1178 4863 
L 1178 4134 
L 603 4134 
L 603 4863 
z
" transform="scale(0.015625)"/>
       <path id="DejaVuSans-61" d="M 2194 1759 
Q 1497 1759 1228 1600 
Q 959 1441 959 1056 
Q 959 750 1161 570 
Q 1363 391 1709 391 
Q 2188 391 2477 730 
Q 2766 1069 2766 1631 
L 2766 1759 
L 2194 1759 
z
M 3341 1997 
L 3341 0 
L 2766 0 
L 2766 531 
Q 2569 213 2275 61 
Q 1981 -91 1556 -91 
Q 1019 -91 701 211 
Q 384 513 384 1019 
Q 384 1609 779 1909 
Q 1175 2209 1959 2209 
L 2766 2209 
L 2766 2266 
Q 2766 2663 2505 2880 
Q 2244 3097 1772 3097 
Q 1472 3097 1187 3025 
Q 903 2953 641 2809 
L 641 3341 
Q 956 3463 1253 3523 
Q 1550 3584 1831 3584 
Q 2591 3584 2966 3190 
Q 3341 2797 3341 1997 
z
" transform="scale(0.015625)"/>
       <path id="DejaVuSans-6c" d="M 603 4863 
L 1178 4863 
L 1178 0 
L 603 0 
L 603 4863 
z
" transform="scale(0.015625)"/>
      </defs>
      <use xlink:href="#DejaVuSans-70"/>
      <use xlink:href="#DejaVuSans-6f" x="63.476562"/>
      <use xlink:href="#DejaVuSans-74" x="124.658203"/>
      <use xlink:href="#DejaVuSans-65" x="163.867188"/>
      <use xlink:href="#DejaVuSans-6e" x="225.390625"/>
      <use xlink:href="#DejaVuSans-74" x="288.769531"/>
      <use xlink:href="#DejaVuSans-69" x="327.978516"/>
      <use xlink:href="#DejaVuSans-61" x="355.761719"/>
      <use xlink:href="#DejaVuSans-6c" x="417.041016"/>
     </g>
    </g>
    <g id="line2d_21">
     <path d="M 53.615 38.576562 
L 63.615 38.576562 
L 73.615 38.576562 
" style="fill: none; stroke: #1f77b4; stroke-width: 1.5; stroke-linecap: square"/>
    </g>
    <g id="text_17">
     <!-- state 0 -->
     <g transform="translate(81.615 42.076562) scale(0.1 -0.1)">
      <defs>
       <path id="DejaVuSans-73" d="M 2834 3397 
L 2834 2853 
Q 2591 2978 2328 3040 
Q 2066 3103 1784 3103 
Q 1356 3103 1142 2972 
Q 928 2841 928 2578 
Q 928 2378 1081 2264 
Q 1234 2150 1697 2047 
L 1894 2003 
Q 2506 1872 2764 1633 
Q 3022 1394 3022 966 
Q 3022 478 2636 193 
Q 2250 -91 1575 -91 
Q 1294 -91 989 -36 
Q 684 19 347 128 
L 347 722 
Q 666 556 975 473 
Q 1284 391 1588 391 
Q 1994 391 2212 530 
Q 2431 669 2431 922 
Q 2431 1156 2273 1281 
Q 2116 1406 1581 1522 
L 1381 1569 
Q 847 1681 609 1914 
Q 372 2147 372 2553 
Q 372 3047 722 3315 
Q 1072 3584 1716 3584 
Q 2034 3584 2315 3537 
Q 2597 3491 2834 3397 
z
" transform="scale(0.015625)"/>
       <path id="DejaVuSans-20" transform="scale(0.015625)"/>
      </defs>
      <use xlink:href="#DejaVuSans-73"/>
      <use xlink:href="#DejaVuSans-74" x="52.099609"/>
      <use xlink:href="#DejaVuSans-61" x="91.308594"/>
      <use xlink:href="#DejaVuSans-74" x="152.587891"/>
      <use xlink:href="#DejaVuSans-65" x="191.796875"/>
      <use xlink:href="#DejaVuSans-20" x="253.320312"/>
      <use xlink:href="#DejaVuSans-30" x="285.107422"/>
     </g>
    </g>
    <g id="line2d_22">
     <path d="M 53.615 53.254687 
L 63.615 53.254687 
L 73.615 53.254687 
" style="fill: none; stroke: #ff7f0e; stroke-width: 1.5; stroke-linecap: square"/>
    </g>
    <g id="text_18">
     <!-- state 1 -->
     <g transform="translate(81.615 56.754687) scale(0.1 -0.1)">
      <use xlink:href="#DejaVuSans-73"/>
      <use xlink:href="#DejaVuSans-74" x="52.099609"/>
      <use xlink:href="#DejaVuSans-61" x="91.308594"/>
      <use xlink:href="#DejaVuSans-74" x="152.587891"/>
      <use xlink:href="#DejaVuSans-65" x="191.796875"/>
      <use xlink:href="#DejaVuSans-20" x="253.320312"/>
      <use xlink:href="#DejaVuSans-31" x="285.107422"/>
     </g>
    </g>
    <g id="line2d_23">
     <path d="M 53.615 67.932813 
L 63.615 67.932813 
L 73.615 67.932813 
" style="fill: none; stroke: #2ca02c; stroke-width: 1.5; stroke-linecap: square"/>
    </g>
    <g id="text_19">
     <!-- state 2 -->
     <g transform="translate(81.615 71.432813) scale(0.1 -0.1)">
      <use xlink:href="#DejaVuSans-73"/>
      <use xlink:href="#DejaVuSans-74" x="52.099609"/>
      <use xlink:href="#DejaVuSans-61" x="91.308594"/>
      <use xlink:href="#DejaVuSans-74" x="152.587891"/>
      <use xlink:href="#DejaVuSans-65" x="191.796875"/>
      <use xlink:href="#DejaVuSans-20" x="253.320312"/>
      <use xlink:href="#DejaVuSans-32" x="285.107422"/>
     </g>
    </g>
    <g id="line2d_24">
     <path d="M 53.615 82.610938 
L 63.615 82.610938 
L 73.615 82.610938 
" style="fill: none; stroke: #d62728; stroke-width: 1.5; stroke-linecap: square"/>
    </g>
    <g id="text_20">
     <!-- state 3 -->
     <g transform="translate(81.615 86.110938) scale(0.1 -0.1)">
      <use xlink:href="#DejaVuSans-73"/>
      <use xlink:href="#DejaVuSans-74" x="52.099609"/>
      <use xlink:href="#DejaVuSans-61" x="91.308594"/>
      <use xlink:href="#DejaVuSans-74" x="152.587891"/>
      <use xlink:href="#DejaVuSans-65" x="191.796875"/>
      <use xlink:href="#DejaVuSans-20" x="253.320312"/>
      <use xlink:href="#DejaVuSans-33" x="285.107422"/>
     </g>
    </g>
    <g id="line2d_25">
     <path d="M 53.615 97.289062 
L 63.615 97.289062 
L 73.615 97.289062 
" style="fill: none; stroke: #9467bd; stroke-width: 1.5; stroke-linecap: square"/>
    </g>
    <g id="text_21">
     <!-- state 4 -->
     <g transform="translate(81.615 100.789062) scale(0.1 -0.1)">
      <use xlink:href="#DejaVuSans-73"/>
      <use xlink:href="#DejaVuSans-74" x="52.099609"/>
      <use xlink:href="#DejaVuSans-61" x="91.308594"/>
      <use xlink:href="#DejaVuSans-74" x="152.587891"/>
      <use xlink:href="#DejaVuSans-65" x="191.796875"/>
      <use xlink:href="#DejaVuSans-20" x="253.320312"/>
      <use xlink:href="#DejaVuSans-34" x="285.107422"/>
     </g>
    </g>
   </g>
  </g>
 </g>
 <defs>
  <clipPath id="p1c8619de57">
   <rect x="44.615" y="10.8" width="232.585" height="235.24"/>
  </clipPath>
 </defs>
</svg>
