<?xml version="1.0" encoding="utf-8" standalone="no"?>
<!DOCTYPE svg PUBLIC "-//W3C//DTD SVG 1.1//EN"
  "http://www.w3.org/Graphics/SVG/1.1/DTD/svg11.dtd">
<svg xmlns:xlink="http://www.w3.org/1999/xlink" width="576pt" height="288pt" viewBox="0 0 576 288" xmlns="http://www.w3.org/2000/svg" version="1.1">
 <metadata>
  <rdf:RDF xmlns:dc="http://purl.org/dc/elements/1.1/" xmlns:cc="http://creativecommons.org/ns#" xmlns:rdf="http://www.w3.org/1999/02/22-rdf-syntax-ns#">
   <cc:Work>
    <dc:type rdf:resource="http://purl.org/dc/dcmitype/StillImage"/>
    <dc:date>2025-05-25T15:45:28.277059</dc:date>
    <dc:format>image/svg+xml</dc:format>
    <dc:creator>
     <cc:Agent>
      <dc:title>Matplotlib v3.9.4, https://matplotlib.org/</dc:title>
     </cc:Agent>
    </dc:creator>
   </cc:Work>
  </rdf:RDF>
 </metadata>
 <defs>
  <style type="text/css">*{stroke-linejoin: round; stroke-linecap: butt}</style>
 </defs>
 <g id="figure_1">
  <g id="patch_1">
   <path d="M 0 288 
L 576 288 
L 576 0 
L 0 0 
z
" style="fill: #ffffff"/>
  </g>
  <g id="axes_1">
   <g id="patch_2">
    <path d="M 44.615 246.04 
L 285.7725 246.04 
L 285.7725 13.785532 
L 44.615 13.785532 
z
" style="fill: #ffffff"/>
   </g>
   <g id="matplotlib.axis_1">
    <g id="xtick_1">
     <g id="line2d_1">
      <defs>
       <path id="mdfea203e47" d="M 0 0 
L 0 3.5 
" style="stroke: #000000; stroke-width: 0.8"/>
      </defs>
      <g>
       <use xlink:href="#mdfea203e47" x="55.576705" y="246.04" style="stroke: #000000; stroke-width: 0.8"/>
      </g>
     </g>
     <g id="text_1">
      <!-- 0 -->
      <g transform="translate(52.395455 260.638438) scale(0.1 -0.1)">
       <defs>
        <path id="DejaVuSans-30" d="M 2034 4250 
Q 1547 4250 1301 3770 
Q 1056 3291 1056 2328 
Q 1056 1369 1301 889 
Q 1547 409 2034 409 
Q 2525 409 2770 889 
Q 3016 1369 3016 2328 
Q 3016 3291 2770 3770 
Q 2525 4250 2034 4250 
z
M 2034 4750 
Q 2819 4750 3233 4129 
Q 3647 3509 3647 2328 
Q 3647 1150 3233 529 
Q 2819 -91 2034 -91 
Q 1250 -91 836 529 
Q 422 1150 422 2328 
Q 422 3509 836 4129 
Q 1250 4750 2034 4750 
z
" transform="scale(0.015625)"/>
       </defs>
       <use xlink:href="#DejaVuSans-30"/>
      </g>
     </g>
    </g>
    <g id="xtick_2">
     <g id="line2d_2">
      <g>
       <use xlink:href="#mdfea203e47" x="113.269886" y="246.04" style="stroke: #000000; stroke-width: 0.8"/>
      </g>
     </g>
     <g id="text_2">
      <!-- 5 -->
      <g transform="translate(110.088636 260.638438) scale(0.1 -0.1)">
       <defs>
        <path id="DejaVuSans-35" d="M 691 4666 
L 3169 4666 
L 3169 4134 
L 1269 4134 
L 1269 2991 
Q 1406 3038 1543 3061 
Q 1681 3084 1819 3084 
Q 2600 3084 3056 2656 
Q 3513 2228 3513 1497 
Q 3513 744 3044 326 
Q 2575 -91 1722 -91 
Q 1428 -91 1123 -41 
Q 819 9 494 109 
L 494 744 
Q 775 591 1075 516 
Q 1375 441 1709 441 
Q 2250 441 2565 725 
Q 2881 1009 2881 1497 
Q 2881 1984 2565 2268 
Q 2250 2553 1709 2553 
Q 1456 2553 1204 2497 
Q 953 2441 691 2322 
L 691 4666 
z
" transform="scale(0.015625)"/>
       </defs>
       <use xlink:href="#DejaVuSans-35"/>
      </g>
     </g>
    </g>
    <g id="xtick_3">
     <g id="line2d_3">
      <g>
       <use xlink:href="#mdfea203e47" x="170.963068" y="246.04" style="stroke: #000000; stroke-width: 0.8"/>
      </g>
     </g>
     <g id="text_3">
      <!-- 10 -->
      <g transform="translate(164.600568 260.638438) scale(0.1 -0.1)">
       <defs>
        <path id="DejaVuSans-31" d="M 794 531 
L 1825 531 
L 1825 4091 
L 703 3866 
L 703 4441 
L 1819 4666 
L 2450 4666 
L 2450 531 
L 3481 531 
L 3481 0 
L 794 0 
L 794 531 
z
" transform="scale(0.015625)"/>
       </defs>
       <use xlink:href="#DejaVuSans-31"/>
       <use xlink:href="#DejaVuSans-30" x="63.623047"/>
      </g>
     </g>
    </g>
    <g id="xtick_4">
     <g id="line2d_4">
      <g>
       <use xlink:href="#mdfea203e47" x="228.65625" y="246.04" style="stroke: #000000; stroke-width: 0.8"/>
      </g>
     </g>
     <g id="text_4">
      <!-- 15 -->
      <g transform="translate(222.29375 260.638438) scale(0.1 -0.1)">
       <use xlink:href="#DejaVuSans-31"/>
       <use xlink:href="#DejaVuSans-35" x="63.623047"/>
      </g>
     </g>
    </g>
    <g id="text_5">
     <!-- state -->
     <g transform="translate(152.528125 274.316562) scale(0.1 -0.1)">
      <defs>
       <path id="DejaVuSans-73" d="M 2834 3397 
L 2834 2853 
Q 2591 2978 2328 3040 
Q 2066 3103 1784 3103 
Q 1356 3103 1142 2972 
Q 928 2841 928 2578 
Q 928 2378 1081 2264 
Q 1234 2150 1697 2047 
L 1894 2003 
Q 2506 1872 2764 1633 
Q 3022 1394 3022 966 
Q 3022 478 2636 193 
Q 2250 -91 1575 -91 
Q 1294 -91 989 -36 
Q 684 19 347 128 
L 347 722 
Q 666 556 975 473 
Q 1284 391 1588 391 
Q 1994 391 2212 530 
Q 2431 669 2431 922 
Q 2431 1156 2273 1281 
Q 2116 1406 1581 1522 
L 1381 1569 
Q 847 1681 609 1914 
Q 372 2147 372 2553 
Q 372 3047 722 3315 
Q 1072 3584 1716 3584 
Q 2034 3584 2315 3537 
Q 2597 3491 2834 3397 
z
" transform="scale(0.015625)"/>
       <path id="DejaVuSans-74" d="M 1172 4494 
L 1172 3500 
L 2356 3500 
L 2356 3053 
L 1172 3053 
L 1172 1153 
Q 1172 725 1289 603 
Q 1406 481 1766 481 
L 2356 481 
L 2356 0 
L 1766 0 
Q 1100 0 847 248 
Q 594 497 594 1153 
L 594 3053 
L 172 3053 
L 172 3500 
L 594 3500 
L 594 4494 
L 1172 4494 
z
" transform="scale(0.015625)"/>
       <path id="DejaVuSans-61" d="M 2194 1759 
Q 1497 1759 1228 1600 
Q 959 1441 959 1056 
Q 959 750 1161 570 
Q 1363 391 1709 391 
Q 2188 391 2477 730 
Q 2766 1069 2766 1631 
L 2766 1759 
L 2194 1759 
z
M 3341 1997 
L 3341 0 
L 2766 0 
L 2766 531 
Q 2569 213 2275 61 
Q 1981 -91 1556 -91 
Q 1019 -91 701 211 
Q 384 513 384 1019 
Q 384 1609 779 1909 
Q 1175 2209 1959 2209 
L 2766 2209 
L 2766 2266 
Q 2766 2663 2505 2880 
Q 2244 3097 1772 3097 
Q 1472 3097 1187 3025 
Q 903 2953 641 2809 
L 641 3341 
Q 956 3463 1253 3523 
Q 1550 3584 1831 3584 
Q 2591 3584 2966 3190 
Q 3341 2797 3341 1997 
z
" transform="scale(0.015625)"/>
       <path id="DejaVuSans-65" d="M 3597 1894 
L 3597 1613 
L 953 1613 
Q 991 1019 1311 708 
Q 1631 397 2203 397 
Q 2534 397 2845 478 
Q 3156 559 3463 722 
L 3463 178 
Q 3153 47 2828 -22 
Q 2503 -91 2169 -91 
Q 1331 -91 842 396 
Q 353 884 353 1716 
Q 353 2575 817 3079 
Q 1281 3584 2069 3584 
Q 2775 3584 3186 3129 
Q 3597 2675 3597 1894 
z
M 3022 2063 
Q 3016 2534 2758 2815 
Q 2500 3097 2075 3097 
Q 1594 3097 1305 2825 
Q 1016 2553 972 2059 
L 3022 2063 
z
" transform="scale(0.015625)"/>
      </defs>
      <use xlink:href="#DejaVuSans-73"/>
      <use xlink:href="#DejaVuSans-74" x="52.099609"/>
      <use xlink:href="#DejaVuSans-61" x="91.308594"/>
      <use xlink:href="#DejaVuSans-74" x="152.587891"/>
      <use xlink:href="#DejaVuSans-65" x="191.796875"/>
     </g>
    </g>
   </g>
   <g id="matplotlib.axis_2">
    <g id="ytick_1">
     <g id="line2d_5">
      <defs>
       <path id="mbcd1166768" d="M 0 0 
L -3.5 0 
" style="stroke: #000000; stroke-width: 0.8"/>
      </defs>
      <g>
       <use xlink:href="#mbcd1166768" x="44.615" y="239.986478" style="stroke: #000000; stroke-width: 0.8"/>
      </g>
     </g>
     <g id="text_6">
      <!-- 0 -->
      <g transform="translate(31.2525 243.785697) scale(0.1 -0.1)">
       <use xlink:href="#DejaVuSans-30"/>
      </g>
     </g>
    </g>
    <g id="ytick_2">
     <g id="line2d_6">
      <g>
       <use xlink:href="#mbcd1166768" x="44.615" y="194.950406" style="stroke: #000000; stroke-width: 0.8"/>
      </g>
     </g>
     <g id="text_7">
      <!-- 5 -->
      <g transform="translate(31.2525 198.749624) scale(0.1 -0.1)">
       <use xlink:href="#DejaVuSans-35"/>
      </g>
     </g>
    </g>
    <g id="ytick_3">
     <g id="line2d_7">
      <g>
       <use xlink:href="#mbcd1166768" x="44.615" y="149.914333" style="stroke: #000000; stroke-width: 0.8"/>
      </g>
     </g>
     <g id="text_8">
      <!-- 10 -->
      <g transform="translate(24.89 153.713552) scale(0.1 -0.1)">
       <use xlink:href="#DejaVuSans-31"/>
       <use xlink:href="#DejaVuSans-30" x="63.623047"/>
      </g>
     </g>
    </g>
    <g id="ytick_4">
     <g id="line2d_8">
      <g>
       <use xlink:href="#mbcd1166768" x="44.615" y="104.87826" style="stroke: #000000; stroke-width: 0.8"/>
      </g>
     </g>
     <g id="text_9">
      <!-- 15 -->
      <g transform="translate(24.89 108.677479) scale(0.1 -0.1)">
       <use xlink:href="#DejaVuSans-31"/>
       <use xlink:href="#DejaVuSans-35" x="63.623047"/>
      </g>
     </g>
    </g>
    <g id="ytick_5">
     <g id="line2d_9">
      <g>
       <use xlink:href="#mbcd1166768" x="44.615" y="59.842188" style="stroke: #000000; stroke-width: 0.8"/>
      </g>
     </g>
     <g id="text_10">
      <!-- 20 -->
      <g transform="translate(24.89 63.641407) scale(0.1 -0.1)">
       <defs>
        <path id="DejaVuSans-32" d="M 1228 531 
L 3431 531 
L 3431 0 
L 469 0 
L 469 531 
Q 828 903 1448 1529 
Q 2069 2156 2228 2338 
Q 2531 2678 2651 2914 
Q 2772 3150 2772 3378 
Q 2772 3750 2511 3984 
Q 2250 4219 1831 4219 
Q 1534 4219 1204 4116 
Q 875 4013 500 3803 
L 500 4441 
Q 881 4594 1212 4672 
Q 1544 4750 1819 4750 
Q 2544 4750 2975 4387 
Q 3406 4025 3406 3419 
Q 3406 3131 3298 2873 
Q 3191 2616 2906 2266 
Q 2828 2175 2409 1742 
Q 1991 1309 1228 531 
z
" transform="scale(0.015625)"/>
       </defs>
       <use xlink:href="#DejaVuSans-32"/>
       <use xlink:href="#DejaVuSans-30" x="63.623047"/>
      </g>
     </g>
    </g>
    <g id="ytick_6">
     <g id="line2d_10">
      <g>
       <use xlink:href="#mbcd1166768" x="44.615" y="14.806115" style="stroke: #000000; stroke-width: 0.8"/>
      </g>
     </g>
     <g id="text_11">
      <!-- 25 -->
      <g transform="translate(24.89 18.605334) scale(0.1 -0.1)">
       <use xlink:href="#DejaVuSans-32"/>
       <use xlink:href="#DejaVuSans-35" x="63.623047"/>
      </g>
     </g>
    </g>
    <g id="text_12">
     <!-- energy -->
     <g transform="translate(18.810312 147.336204) rotate(-90) scale(0.1 -0.1)">
      <defs>
       <path id="DejaVuSans-6e" d="M 3513 2113 
L 3513 0 
L 2938 0 
L 2938 2094 
Q 2938 2591 2744 2837 
Q 2550 3084 2163 3084 
Q 1697 3084 1428 2787 
Q 1159 2491 1159 1978 
L 1159 0 
L 581 0 
L 581 3500 
L 1159 3500 
L 1159 2956 
Q 1366 3272 1645 3428 
Q 1925 3584 2291 3584 
Q 2894 3584 3203 3211 
Q 3513 2838 3513 2113 
z
" transform="scale(0.015625)"/>
       <path id="DejaVuSans-72" d="M 2631 2963 
Q 2534 3019 2420 3045 
Q 2306 3072 2169 3072 
Q 1681 3072 1420 2755 
Q 1159 2438 1159 1844 
L 1159 0 
L 581 0 
L 581 3500 
L 1159 3500 
L 1159 2956 
Q 1341 3275 1631 3429 
Q 1922 3584 2338 3584 
Q 2397 3584 2469 3576 
Q 2541 3569 2628 3553 
L 2631 2963 
z
" transform="scale(0.015625)"/>
       <path id="DejaVuSans-67" d="M 2906 1791 
Q 2906 2416 2648 2759 
Q 2391 3103 1925 3103 
Q 1463 3103 1205 2759 
Q 947 2416 947 1791 
Q 947 1169 1205 825 
Q 1463 481 1925 481 
Q 2391 481 2648 825 
Q 2906 1169 2906 1791 
z
M 3481 434 
Q 3481 -459 3084 -895 
Q 2688 -1331 1869 -1331 
Q 1566 -1331 1297 -1286 
Q 1028 -1241 775 -1147 
L 775 -588 
Q 1028 -725 1275 -790 
Q 1522 -856 1778 -856 
Q 2344 -856 2625 -561 
Q 2906 -266 2906 331 
L 2906 616 
Q 2728 306 2450 153 
Q 2172 0 1784 0 
Q 1141 0 747 490 
Q 353 981 353 1791 
Q 353 2603 747 3093 
Q 1141 3584 1784 3584 
Q 2172 3584 2450 3431 
Q 2728 3278 2906 2969 
L 2906 3500 
L 3481 3500 
L 3481 434 
z
" transform="scale(0.015625)"/>
       <path id="DejaVuSans-79" d="M 2059 -325 
Q 1816 -950 1584 -1140 
Q 1353 -1331 966 -1331 
L 506 -1331 
L 506 -850 
L 844 -850 
Q 1081 -850 1212 -737 
Q 1344 -625 1503 -206 
L 1606 56 
L 191 3500 
L 800 3500 
L 1894 763 
L 2988 3500 
L 3597 3500 
L 2059 -325 
z
" transform="scale(0.015625)"/>
      </defs>
      <use xlink:href="#DejaVuSans-65"/>
      <use xlink:href="#DejaVuSans-6e" x="61.523438"/>
      <use xlink:href="#DejaVuSans-65" x="124.902344"/>
      <use xlink:href="#DejaVuSans-72" x="186.425781"/>
      <use xlink:href="#DejaVuSans-67" x="225.789062"/>
      <use xlink:href="#DejaVuSans-79" x="289.265625"/>
     </g>
    </g>
   </g>
   <g id="line2d_11">
    <defs>
     <path id="me92a50e771" d="M 0 3 
C 0.795609 3 1.55874 2.683901 2.12132 2.12132 
C 2.683901 1.55874 3 0.795609 3 0 
C 3 -0.795609 2.683901 -1.55874 2.12132 -2.12132 
C 1.55874 -2.683901 0.795609 -3 0 -3 
C -0.795609 -3 -1.55874 -2.683901 -2.12132 -2.12132 
C -2.683901 -1.55874 -3 -0.795609 -3 0 
C -3 0.795609 -2.683901 1.55874 -2.12132 2.12132 
C -1.55874 2.683901 -0.795609 3 0 3 
z
" style="stroke: #1f77b4"/>
    </defs>
    <g clip-path="url(#p0088f1c0e5)">
     <use xlink:href="#me92a50e771" x="55.576705" y="235.482979" style="fill: #1f77b4; stroke: #1f77b4"/>
     <use xlink:href="#me92a50e771" x="67.115341" y="226.476195" style="fill: #1f77b4; stroke: #1f77b4"/>
     <use xlink:href="#me92a50e771" x="78.653977" y="217.469843" style="fill: #1f77b4; stroke: #1f77b4"/>
     <use xlink:href="#me92a50e771" x="90.192614" y="208.463913" style="fill: #1f77b4; stroke: #1f77b4"/>
     <use xlink:href="#me92a50e771" x="101.73125" y="199.458336" style="fill: #1f77b4; stroke: #1f77b4"/>
     <use xlink:href="#me92a50e771" x="113.269886" y="190.452607" style="fill: #1f77b4; stroke: #1f77b4"/>
     <use xlink:href="#me92a50e771" x="124.808523" y="181.444014" style="fill: #1f77b4; stroke: #1f77b4"/>
     <use xlink:href="#me92a50e771" x="136.347159" y="172.421273" style="fill: #1f77b4; stroke: #1f77b4"/>
     <use xlink:href="#me92a50e771" x="147.885795" y="163.348407" style="fill: #1f77b4; stroke: #1f77b4"/>
     <use xlink:href="#me92a50e771" x="159.424432" y="154.138889" style="fill: #1f77b4; stroke: #1f77b4"/>
     <use xlink:href="#me92a50e771" x="170.963068" y="144.638585" style="fill: #1f77b4; stroke: #1f77b4"/>
     <use xlink:href="#me92a50e771" x="182.501705" y="134.646454" style="fill: #1f77b4; stroke: #1f77b4"/>
     <use xlink:href="#me92a50e771" x="194.040341" y="123.970393" style="fill: #1f77b4; stroke: #1f77b4"/>
     <use xlink:href="#me92a50e771" x="205.578977" y="112.474311" style="fill: #1f77b4; stroke: #1f77b4"/>
     <use xlink:href="#me92a50e771" x="217.117614" y="100.085859" style="fill: #1f77b4; stroke: #1f77b4"/>
     <use xlink:href="#me92a50e771" x="228.65625" y="86.777198" style="fill: #1f77b4; stroke: #1f77b4"/>
     <use xlink:href="#me92a50e771" x="240.194886" y="72.543329" style="fill: #1f77b4; stroke: #1f77b4"/>
     <use xlink:href="#me92a50e771" x="251.733523" y="57.388404" style="fill: #1f77b4; stroke: #1f77b4"/>
     <use xlink:href="#me92a50e771" x="263.272159" y="41.3192" style="fill: #1f77b4; stroke: #1f77b4"/>
     <use xlink:href="#me92a50e771" x="274.810795" y="24.342553" style="fill: #1f77b4; stroke: #1f77b4"/>
    </g>
   </g>
   <g id="line2d_12">
    <path d="M 55.576705 235.482871 
L 67.115341 226.475656 
L 78.653977 217.468442 
L 90.192614 208.461227 
L 101.73125 199.454013 
L 113.269886 190.446798 
L 124.808523 181.439584 
L 136.347159 172.432369 
L 147.885795 163.425155 
L 159.424432 154.41794 
L 170.963068 145.410726 
L 182.501705 136.403511 
L 194.040341 127.396297 
L 205.578977 118.389082 
L 217.117614 109.381868 
L 228.65625 100.374653 
L 240.194886 91.367439 
L 251.733523 82.360224 
L 263.272159 73.35301 
L 274.810795 64.345795 
" clip-path="url(#p0088f1c0e5)" style="fill: none; stroke: #ff7f0e; stroke-width: 1.5; stroke-linecap: square"/>
   </g>
   <g id="patch_3">
    <path d="M 44.615 246.04 
L 44.615 13.785532 
" style="fill: none; stroke: #000000; stroke-width: 0.8; stroke-linejoin: miter; stroke-linecap: square"/>
   </g>
   <g id="patch_4">
    <path d="M 285.7725 246.04 
L 285.7725 13.785532 
" style="fill: none; stroke: #000000; stroke-width: 0.8; stroke-linejoin: miter; stroke-linecap: square"/>
   </g>
   <g id="patch_5">
    <path d="M 44.615 246.04 
L 285.7725 246.04 
" style="fill: none; stroke: #000000; stroke-width: 0.8; stroke-linejoin: miter; stroke-linecap: square"/>
   </g>
   <g id="patch_6">
    <path d="M 44.615 13.785532 
L 285.7725 13.785532 
" style="fill: none; stroke: #000000; stroke-width: 0.8; stroke-linejoin: miter; stroke-linecap: square"/>
   </g>
   <g id="legend_1">
    <g id="patch_7">
     <path d="M 51.615 51.141782 
L 207.494687 51.141782 
Q 209.494687 51.141782 209.494687 49.141782 
L 209.494687 20.785532 
Q 209.494687 18.785532 207.494687 18.785532 
L 51.615 18.785532 
Q 49.615 18.785532 49.615 20.785532 
L 49.615 49.141782 
Q 49.615 51.141782 51.615 51.141782 
z
" style="fill: #ffffff; opacity: 0.8; stroke: #cccccc; stroke-linejoin: miter"/>
    </g>
    <g id="line2d_13">
     <g>
      <use xlink:href="#me92a50e771" x="63.615" y="26.88397" style="fill: #1f77b4; stroke: #1f77b4"/>
     </g>
    </g>
    <g id="text_13">
     <!-- numerical eigenenergies -->
     <g transform="translate(81.615 30.38397) scale(0.1 -0.1)">
      <defs>
       <path id="DejaVuSans-75" d="M 544 1381 
L 544 3500 
L 1119 3500 
L 1119 1403 
Q 1119 906 1312 657 
Q 1506 409 1894 409 
Q 2359 409 2629 706 
Q 2900 1003 2900 1516 
L 2900 3500 
L 3475 3500 
L 3475 0 
L 2900 0 
L 2900 538 
Q 2691 219 2414 64 
Q 2138 -91 1772 -91 
Q 1169 -91 856 284 
Q 544 659 544 1381 
z
M 1991 3584 
L 1991 3584 
z
" transform="scale(0.015625)"/>
       <path id="DejaVuSans-6d" d="M 3328 2828 
Q 3544 3216 3844 3400 
Q 4144 3584 4550 3584 
Q 5097 3584 5394 3201 
Q 5691 2819 5691 2113 
L 5691 0 
L 5113 0 
L 5113 2094 
Q 5113 2597 4934 2840 
Q 4756 3084 4391 3084 
Q 3944 3084 3684 2787 
Q 3425 2491 3425 1978 
L 3425 0 
L 2847 0 
L 2847 2094 
Q 2847 2600 2669 2842 
Q 2491 3084 2119 3084 
Q 1678 3084 1418 2786 
Q 1159 2488 1159 1978 
L 1159 0 
L 581 0 
L 581 3500 
L 1159 3500 
L 1159 2956 
Q 1356 3278 1631 3431 
Q 1906 3584 2284 3584 
Q 2666 3584 2933 3390 
Q 3200 3197 3328 2828 
z
" transform="scale(0.015625)"/>
       <path id="DejaVuSans-69" d="M 603 3500 
L 1178 3500 
L 1178 0 
L 603 0 
L 603 3500 
z
M 603 4863 
L 1178 4863 
L 1178 4134 
L 603 4134 
L 603 4863 
z
" transform="scale(0.015625)"/>
       <path id="DejaVuSans-63" d="M 3122 3366 
L 3122 2828 
Q 2878 2963 2633 3030 
Q 2388 3097 2138 3097 
Q 1578 3097 1268 2742 
Q 959 2388 959 1747 
Q 959 1106 1268 751 
Q 1578 397 2138 397 
Q 2388 397 2633 464 
Q 2878 531 3122 666 
L 3122 134 
Q 2881 22 2623 -34 
Q 2366 -91 2075 -91 
Q 1284 -91 818 406 
Q 353 903 353 1747 
Q 353 2603 823 3093 
Q 1294 3584 2113 3584 
Q 2378 3584 2631 3529 
Q 2884 3475 3122 3366 
z
" transform="scale(0.015625)"/>
       <path id="DejaVuSans-6c" d="M 603 4863 
L 1178 4863 
L 1178 0 
L 603 0 
L 603 4863 
z
" transform="scale(0.015625)"/>
       <path id="DejaVuSans-20" transform="scale(0.015625)"/>
      </defs>
      <use xlink:href="#DejaVuSans-6e"/>
      <use xlink:href="#DejaVuSans-75" x="63.378906"/>
      <use xlink:href="#DejaVuSans-6d" x="126.757812"/>
      <use xlink:href="#DejaVuSans-65" x="224.169922"/>
      <use xlink:href="#DejaVuSans-72" x="285.693359"/>
      <use xlink:href="#DejaVuSans-69" x="326.806641"/>
      <use xlink:href="#DejaVuSans-63" x="354.589844"/>
      <use xlink:href="#DejaVuSans-61" x="409.570312"/>
      <use xlink:href="#DejaVuSans-6c" x="470.849609"/>
      <use xlink:href="#DejaVuSans-20" x="498.632812"/>
      <use xlink:href="#DejaVuSans-65" x="530.419922"/>
      <use xlink:href="#DejaVuSans-69" x="591.943359"/>
      <use xlink:href="#DejaVuSans-67" x="619.726562"/>
      <use xlink:href="#DejaVuSans-65" x="683.203125"/>
      <use xlink:href="#DejaVuSans-6e" x="744.726562"/>
      <use xlink:href="#DejaVuSans-65" x="808.105469"/>
      <use xlink:href="#DejaVuSans-6e" x="869.628906"/>
      <use xlink:href="#DejaVuSans-65" x="933.007812"/>
      <use xlink:href="#DejaVuSans-72" x="994.53125"/>
      <use xlink:href="#DejaVuSans-67" x="1033.894531"/>
      <use xlink:href="#DejaVuSans-69" x="1097.371094"/>
      <use xlink:href="#DejaVuSans-65" x="1125.154297"/>
      <use xlink:href="#DejaVuSans-73" x="1186.677734"/>
     </g>
    </g>
    <g id="line2d_14">
     <path d="M 53.615 41.562095 
L 63.615 41.562095 
L 73.615 41.562095 
" style="fill: none; stroke: #ff7f0e; stroke-width: 1.5; stroke-linecap: square"/>
    </g>
    <g id="text_14">
     <!-- analytical eigenenergies -->
     <g transform="translate(81.615 45.062095) scale(0.1 -0.1)">
      <use xlink:href="#DejaVuSans-61"/>
      <use xlink:href="#DejaVuSans-6e" x="61.279297"/>
      <use xlink:href="#DejaVuSans-61" x="124.658203"/>
      <use xlink:href="#DejaVuSans-6c" x="185.9375"/>
      <use xlink:href="#DejaVuSans-79" x="213.720703"/>
      <use xlink:href="#DejaVuSans-74" x="272.900391"/>
      <use xlink:href="#DejaVuSans-69" x="312.109375"/>
      <use xlink:href="#DejaVuSans-63" x="339.892578"/>
      <use xlink:href="#DejaVuSans-61" x="394.873047"/>
      <use xlink:href="#DejaVuSans-6c" x="456.152344"/>
      <use xlink:href="#DejaVuSans-20" x="483.935547"/>
      <use xlink:href="#DejaVuSans-65" x="515.722656"/>
      <use xlink:href="#DejaVuSans-69" x="577.246094"/>
      <use xlink:href="#DejaVuSans-67" x="605.029297"/>
      <use xlink:href="#DejaVuSans-65" x="668.505859"/>
      <use xlink:href="#DejaVuSans-6e" x="730.029297"/>
      <use xlink:href="#DejaVuSans-65" x="793.408203"/>
      <use xlink:href="#DejaVuSans-6e" x="854.931641"/>
      <use xlink:href="#DejaVuSans-65" x="918.310547"/>
      <use xlink:href="#DejaVuSans-72" x="979.833984"/>
      <use xlink:href="#DejaVuSans-67" x="1019.197266"/>
      <use xlink:href="#DejaVuSans-69" x="1082.673828"/>
      <use xlink:href="#DejaVuSans-65" x="1110.457031"/>
      <use xlink:href="#DejaVuSans-73" x="1171.980469"/>
     </g>
    </g>
   </g>
  </g>
  <g id="axes_2">
   <g id="patch_8">
    <path d="M 324.0425 246.04 
L 565.2 246.04 
L 565.2 13.785532 
L 324.0425 13.785532 
z
" style="fill: #ffffff"/>
   </g>
   <g id="matplotlib.axis_3">
    <g id="xtick_5">
     <g id="line2d_15">
      <g>
       <use xlink:href="#mdfea203e47" x="348.15825" y="246.04" style="stroke: #000000; stroke-width: 0.8"/>
      </g>
     </g>
     <g id="text_15">
      <!-- −4 -->
      <g transform="translate(340.787156 260.638438) scale(0.1 -0.1)">
       <defs>
        <path id="DejaVuSans-2212" d="M 678 2272 
L 4684 2272 
L 4684 1741 
L 678 1741 
L 678 2272 
z
" transform="scale(0.015625)"/>
        <path id="DejaVuSans-34" d="M 2419 4116 
L 825 1625 
L 2419 1625 
L 2419 4116 
z
M 2253 4666 
L 3047 4666 
L 3047 1625 
L 3713 1625 
L 3713 1100 
L 3047 1100 
L 3047 0 
L 2419 0 
L 2419 1100 
L 313 1100 
L 313 1709 
L 2253 4666 
z
" transform="scale(0.015625)"/>
       </defs>
       <use xlink:href="#DejaVuSans-2212"/>
       <use xlink:href="#DejaVuSans-34" x="83.789062"/>
      </g>
     </g>
    </g>
    <g id="xtick_6">
     <g id="line2d_16">
      <g>
       <use xlink:href="#mdfea203e47" x="396.38975" y="246.04" style="stroke: #000000; stroke-width: 0.8"/>
      </g>
     </g>
     <g id="text_16">
      <!-- −2 -->
      <g transform="translate(389.018656 260.638438) scale(0.1 -0.1)">
       <use xlink:href="#DejaVuSans-2212"/>
       <use xlink:href="#DejaVuSans-32" x="83.789062"/>
      </g>
     </g>
    </g>
    <g id="xtick_7">
     <g id="line2d_17">
      <g>
       <use xlink:href="#mdfea203e47" x="444.62125" y="246.04" style="stroke: #000000; stroke-width: 0.8"/>
      </g>
     </g>
     <g id="text_17">
      <!-- 0 -->
      <g transform="translate(441.44 260.638438) scale(0.1 -0.1)">
       <use xlink:href="#DejaVuSans-30"/>
      </g>
     </g>
    </g>
    <g id="xtick_8">
     <g id="line2d_18">
      <g>
       <use xlink:href="#mdfea203e47" x="492.85275" y="246.04" style="stroke: #000000; stroke-width: 0.8"/>
      </g>
     </g>
     <g id="text_18">
      <!-- 2 -->
      <g transform="translate(489.6715 260.638438) scale(0.1 -0.1)">
       <use xlink:href="#DejaVuSans-32"/>
      </g>
     </g>
    </g>
    <g id="xtick_9">
     <g id="line2d_19">
      <g>
       <use xlink:href="#mdfea203e47" x="541.08425" y="246.04" style="stroke: #000000; stroke-width: 0.8"/>
      </g>
     </g>
     <g id="text_19">
      <!-- 4 -->
      <g transform="translate(537.903 260.638438) scale(0.1 -0.1)">
       <use xlink:href="#DejaVuSans-34"/>
      </g>
     </g>
    </g>
    <g id="text_20">
     <!-- x -->
     <g transform="translate(441.661875 274.316562) scale(0.1 -0.1)">
      <defs>
       <path id="DejaVuSans-78" d="M 3513 3500 
L 2247 1797 
L 3578 0 
L 2900 0 
L 1881 1375 
L 863 0 
L 184 0 
L 1544 1831 
L 300 3500 
L 978 3500 
L 1906 2253 
L 2834 3500 
L 3513 3500 
z
" transform="scale(0.015625)"/>
      </defs>
      <use xlink:href="#DejaVuSans-78"/>
     </g>
    </g>
   </g>
   <g id="matplotlib.axis_4">
    <g id="ytick_7">
     <g id="line2d_20">
      <g>
       <use xlink:href="#mbcd1166768" x="324.0425" y="234.427277" style="stroke: #000000; stroke-width: 0.8"/>
      </g>
     </g>
     <g id="text_21">
      <!-- 0 -->
      <g transform="translate(310.68 238.226495) scale(0.1 -0.1)">
       <use xlink:href="#DejaVuSans-30"/>
      </g>
     </g>
    </g>
    <g id="ytick_8">
     <g id="line2d_21">
      <g>
       <use xlink:href="#mbcd1166768" x="324.0425" y="187.976383" style="stroke: #000000; stroke-width: 0.8"/>
      </g>
     </g>
     <g id="text_22">
      <!-- 2 -->
      <g transform="translate(310.68 191.775602) scale(0.1 -0.1)">
       <use xlink:href="#DejaVuSans-32"/>
      </g>
     </g>
    </g>
    <g id="ytick_9">
     <g id="line2d_22">
      <g>
       <use xlink:href="#mbcd1166768" x="324.0425" y="141.525489" style="stroke: #000000; stroke-width: 0.8"/>
      </g>
     </g>
     <g id="text_23">
      <!-- 4 -->
      <g transform="translate(310.68 145.324708) scale(0.1 -0.1)">
       <use xlink:href="#DejaVuSans-34"/>
      </g>
     </g>
    </g>
    <g id="ytick_10">
     <g id="line2d_23">
      <g>
       <use xlink:href="#mbcd1166768" x="324.0425" y="95.074596" style="stroke: #000000; stroke-width: 0.8"/>
      </g>
     </g>
     <g id="text_24">
      <!-- 6 -->
      <g transform="translate(310.68 98.873815) scale(0.1 -0.1)">
       <defs>
        <path id="DejaVuSans-36" d="M 2113 2584 
Q 1688 2584 1439 2293 
Q 1191 2003 1191 1497 
Q 1191 994 1439 701 
Q 1688 409 2113 409 
Q 2538 409 2786 701 
Q 3034 994 3034 1497 
Q 3034 2003 2786 2293 
Q 2538 2584 2113 2584 
z
M 3366 4563 
L 3366 3988 
Q 3128 4100 2886 4159 
Q 2644 4219 2406 4219 
Q 1781 4219 1451 3797 
Q 1122 3375 1075 2522 
Q 1259 2794 1537 2939 
Q 1816 3084 2150 3084 
Q 2853 3084 3261 2657 
Q 3669 2231 3669 1497 
Q 3669 778 3244 343 
Q 2819 -91 2113 -91 
Q 1303 -91 875 529 
Q 447 1150 447 2328 
Q 447 3434 972 4092 
Q 1497 4750 2381 4750 
Q 2619 4750 2861 4703 
Q 3103 4656 3366 4563 
z
" transform="scale(0.015625)"/>
       </defs>
       <use xlink:href="#DejaVuSans-36"/>
      </g>
     </g>
    </g>
    <g id="ytick_11">
     <g id="line2d_24">
      <g>
       <use xlink:href="#mbcd1166768" x="324.0425" y="48.623702" style="stroke: #000000; stroke-width: 0.8"/>
      </g>
     </g>
     <g id="text_25">
      <!-- 8 -->
      <g transform="translate(310.68 52.422921) scale(0.1 -0.1)">
       <defs>
        <path id="DejaVuSans-38" d="M 2034 2216 
Q 1584 2216 1326 1975 
Q 1069 1734 1069 1313 
Q 1069 891 1326 650 
Q 1584 409 2034 409 
Q 2484 409 2743 651 
Q 3003 894 3003 1313 
Q 3003 1734 2745 1975 
Q 2488 2216 2034 2216 
z
M 1403 2484 
Q 997 2584 770 2862 
Q 544 3141 544 3541 
Q 544 4100 942 4425 
Q 1341 4750 2034 4750 
Q 2731 4750 3128 4425 
Q 3525 4100 3525 3541 
Q 3525 3141 3298 2862 
Q 3072 2584 2669 2484 
Q 3125 2378 3379 2068 
Q 3634 1759 3634 1313 
Q 3634 634 3220 271 
Q 2806 -91 2034 -91 
Q 1263 -91 848 271 
Q 434 634 434 1313 
Q 434 1759 690 2068 
Q 947 2378 1403 2484 
z
M 1172 3481 
Q 1172 3119 1398 2916 
Q 1625 2713 2034 2713 
Q 2441 2713 2670 2916 
Q 2900 3119 2900 3481 
Q 2900 3844 2670 4047 
Q 2441 4250 2034 4250 
Q 1625 4250 1398 4047 
Q 1172 3844 1172 3481 
z
" transform="scale(0.015625)"/>
       </defs>
       <use xlink:href="#DejaVuSans-38"/>
      </g>
     </g>
    </g>
    <g id="text_26">
     <!-- energy -->
     <g transform="translate(304.600312 147.336204) rotate(-90) scale(0.1 -0.1)">
      <use xlink:href="#DejaVuSans-65"/>
      <use xlink:href="#DejaVuSans-6e" x="61.523438"/>
      <use xlink:href="#DejaVuSans-65" x="124.902344"/>
      <use xlink:href="#DejaVuSans-72" x="186.425781"/>
      <use xlink:href="#DejaVuSans-67" x="225.789062"/>
      <use xlink:href="#DejaVuSans-79" x="289.265625"/>
     </g>
    </g>
   </g>
   <g id="line2d_25">
    <path d="M 336.038428 -1 
L 341.032069 20.157296 
L 345.751394 39.236031 
L 350.470719 57.425314 
L 355.190044 74.725146 
L 359.909369 91.135526 
L 364.156761 105.144388 
L 368.404154 118.432793 
L 372.651546 131.000743 
L 376.898938 142.848237 
L 380.674398 152.774516 
L 384.449858 162.131546 
L 388.225318 170.919327 
L 392.000778 179.137859 
L 395.776238 186.787142 
L 399.079765 193.013302 
L 402.383293 198.803632 
L 405.68682 204.15813 
L 408.990347 209.076797 
L 412.293875 213.559632 
L 415.12547 217.055177 
L 417.957065 220.230519 
L 420.788659 223.085658 
L 423.620254 225.620595 
L 426.451849 227.835329 
L 429.283444 229.729861 
L 431.643107 231.064038 
L 434.002769 232.175852 
L 436.362432 233.065304 
L 438.722094 233.732393 
L 441.081756 234.177118 
L 443.441419 234.399481 
L 445.801081 234.399481 
L 448.160744 234.177118 
L 450.520406 233.732393 
L 452.880068 233.065304 
L 455.239731 232.175852 
L 457.599393 231.064038 
L 459.959056 229.729861 
L 462.318718 228.173321 
L 465.150313 226.011954 
L 467.981908 223.530384 
L 470.813503 220.728612 
L 473.645098 217.606637 
L 476.476693 214.164459 
L 479.308288 210.40208 
L 482.611815 205.607936 
L 485.915342 200.377961 
L 489.21887 194.712155 
L 492.522397 188.610518 
L 495.825925 182.073049 
L 499.601385 174.067985 
L 503.376844 165.493673 
L 507.152304 156.350111 
L 510.927764 146.637301 
L 514.703224 136.355241 
L 518.950616 124.107494 
L 523.198009 111.139291 
L 527.445401 97.450632 
L 531.692794 83.041518 
L 536.412118 66.186412 
L 541.131443 48.441854 
L 545.850768 29.807845 
L 550.570093 10.284384 
L 553.204072 -1 
L 553.204072 -1 
" clip-path="url(#p84e891cf12)" style="fill: none; stroke: #000000; stroke-width: 2; stroke-linecap: square"/>
   </g>
   <g id="line2d_26">
    <path d="M 324.0425 222.81482 
L 367.932221 222.703717 
L 377.370871 222.457553 
L 383.977926 222.076075 
L 389.169183 221.574532 
L 393.888508 220.906584 
L 398.1359 220.093298 
L 402.383293 219.051935 
L 406.630685 217.771007 
L 410.878077 216.260529 
L 416.069335 214.159581 
L 430.227309 208.215985 
L 434.002769 206.981198 
L 437.306296 206.153773 
L 440.137891 205.668255 
L 442.969486 205.41022 
L 445.801081 205.390211 
L 448.632676 205.60905 
L 451.464271 206.057782 
L 454.295866 206.718281 
L 457.599393 207.721355 
L 461.374853 209.109988 
L 466.566111 211.28403 
L 477.420558 215.896865 
L 482.139883 217.614082 
L 486.387275 218.921468 
L 490.634667 219.989215 
L 494.88206 220.826765 
L 499.601385 221.517695 
L 504.792642 222.03896 
L 510.927764 222.416658 
L 518.950616 222.663888 
L 531.220861 222.787188 
L 565.2 222.81482 
L 565.2 222.81482 
" clip-path="url(#p84e891cf12)" style="fill: none; stroke: #1f77b4; stroke-width: 1.5; stroke-linecap: square"/>
   </g>
   <g id="line2d_27">
    <path d="M 324.0425 199.590573 
L 356.605841 199.70583 
L 365.572559 199.96598 
L 371.707681 200.362461 
L 376.427006 200.870408 
L 380.674398 201.535023 
L 384.449858 202.328002 
L 388.225318 203.336261 
L 392.000778 204.569384 
L 396.24817 206.208922 
L 401.439428 208.480984 
L 409.46228 212.017183 
L 412.765807 213.2103 
L 415.597402 213.982253 
L 417.957065 214.393715 
L 420.316727 214.553738 
L 422.204457 214.478852 
L 424.092187 214.209431 
L 425.979917 213.736559 
L 427.867647 213.055841 
L 429.755377 212.167842 
L 432.115039 210.775686 
L 434.474702 209.092092 
L 436.834364 207.152628 
L 439.665959 204.554397 
L 443.913351 200.314444 
L 450.048474 194.1767 
L 452.880068 191.622106 
L 455.711663 189.382494 
L 458.071326 187.811895 
L 460.430988 186.543478 
L 462.318718 185.758727 
L 464.206448 185.18218 
L 466.094178 184.811877 
L 467.981908 184.6411 
L 469.869638 184.658876 
L 472.2293 184.92371 
L 474.588963 185.425368 
L 477.420558 186.283989 
L 480.724085 187.547233 
L 485.44341 189.624104 
L 493.466262 193.165995 
L 497.713655 194.777877 
L 501.489114 195.983043 
L 505.264574 196.963504 
L 509.040034 197.731033 
L 513.287427 198.37134 
L 518.006751 198.858311 
L 523.669941 199.215013 
L 531.220861 199.450145 
L 543.019173 199.566081 
L 565.2 199.590419 
L 565.2 199.590419 
" clip-path="url(#p84e891cf12)" style="fill: none; stroke: #ff7f0e; stroke-width: 1.5; stroke-linecap: square"/>
   </g>
   <g id="line2d_28">
    <path d="M 324.0425 176.367634 
L 348.111057 176.494618 
L 356.133909 176.748527 
L 361.797099 177.132231 
L 366.516424 177.667007 
L 370.763816 178.379643 
L 374.539276 179.240257 
L 378.314736 180.341873 
L 382.090196 181.690318 
L 386.337588 183.469141 
L 399.079765 189.083851 
L 401.439428 189.804597 
L 403.79909 190.294805 
L 405.68682 190.484815 
L 407.57455 190.468107 
L 409.46228 190.223718 
L 411.35001 189.735798 
L 413.23774 188.99483 
L 415.12547 187.9987 
L 417.0132 186.753548 
L 418.90093 185.274327 
L 421.260592 183.133516 
L 424.092187 180.226563 
L 429.283444 174.443416 
L 432.586972 170.900459 
L 434.946634 168.648887 
L 436.834364 167.099466 
L 438.722094 165.827408 
L 440.609824 164.873602 
L 442.025621 164.386179 
L 443.441419 164.104458 
L 444.857216 164.033663 
L 446.273014 164.175107 
L 447.688811 164.526166 
L 449.104609 165.080338 
L 450.520406 165.827408 
L 452.408136 167.099466 
L 454.295866 168.648887 
L 456.655528 170.900459 
L 459.959056 174.443416 
L 467.038043 182.199579 
L 469.397705 184.454083 
L 471.757368 186.404904 
L 473.645098 187.710327 
L 475.532828 188.769625 
L 477.420558 189.574496 
L 479.308288 190.125058 
L 481.196018 190.429071 
L 483.083748 190.500912 
L 484.971477 190.360385 
L 487.33114 189.922853 
L 489.690802 189.243764 
L 492.522397 188.188502 
L 496.297857 186.528678 
L 505.736507 182.255672 
L 509.511967 180.819179 
L 513.287427 179.624258 
L 517.062886 178.675454 
L 520.838346 177.953211 
L 525.085739 177.370162 
L 529.805064 176.944122 
L 535.940186 176.629987 
L 544.434971 176.445391 
L 560.480675 176.371865 
L 565.2 176.367634 
L 565.2 176.367634 
" clip-path="url(#p84e891cf12)" style="fill: none; stroke: #2ca02c; stroke-width: 1.5; stroke-linecap: square"/>
   </g>
   <g id="line2d_29">
    <path d="M 324.0425 153.143788 
L 341.504002 152.990906 
L 349.054922 152.704471 
L 354.246179 152.300943 
L 358.493571 151.769832 
L 362.269031 151.093705 
L 366.044491 150.184167 
L 369.348019 149.17505 
L 373.123478 147.774554 
L 377.370871 145.925981 
L 388.225318 141.006695 
L 390.58498 140.236304 
L 392.944643 139.710336 
L 394.832373 139.509223 
L 396.720103 139.536436 
L 398.607833 139.817816 
L 400.495563 140.372848 
L 402.383293 141.212882 
L 404.271023 142.339515 
L 406.158752 143.743282 
L 408.046482 145.402768 
L 410.406145 147.78418 
L 413.709672 151.518817 
L 419.844795 158.570143 
L 422.204457 160.87489 
L 424.092187 162.399295 
L 425.507984 163.312854 
L 426.923782 164.003476 
L 428.339579 164.452691 
L 429.755377 164.647313 
L 431.171174 164.579974 
L 432.586972 164.24951 
L 434.002769 163.661166 
L 435.418567 162.826618 
L 436.834364 161.763805 
L 438.722094 160.033628 
L 441.081756 157.4702 
L 444.385284 153.440813 
L 448.632676 148.278655 
L 450.992339 145.793711 
L 452.880068 144.148193 
L 454.295866 143.159102 
L 455.711663 142.404932 
L 457.127461 141.901566 
L 458.543258 141.658547 
L 459.959056 141.67897 
L 461.374853 141.959572 
L 462.790651 142.490995 
L 464.206448 143.258224 
L 465.622246 144.241171 
L 467.509976 145.844541 
L 469.869638 148.222896 
L 472.701233 151.429889 
L 478.836355 158.506096 
L 481.196018 160.887509 
L 483.55568 162.922956 
L 485.44341 164.25897 
L 487.33114 165.314389 
L 489.21887 166.082617 
L 491.1066 166.567825 
L 492.99433 166.783557 
L 494.88206 166.751058 
L 496.76979 166.497469 
L 499.129452 165.917319 
L 501.489114 165.106032 
L 504.792642 163.707225 
L 517.534819 157.96068 
L 521.310279 156.657681 
L 525.085739 155.620043 
L 528.861199 154.831642 
L 533.108591 154.199007 
L 537.827916 153.741603 
L 543.491106 153.427818 
L 551.513958 153.231981 
L 565.2 153.146489 
L 565.2 153.146489 
" clip-path="url(#p84e891cf12)" style="fill: none; stroke: #d62728; stroke-width: 1.5; stroke-linecap: square"/>
   </g>
   <g id="line2d_30">
    <path d="M 324.0425 129.928147 
L 337.25661 130.156348 
L 343.391732 130.470886 
L 348.111057 130.914067 
L 352.358449 131.538279 
L 356.133909 132.327533 
L 359.437436 133.231629 
L 362.740964 134.349949 
L 366.516424 135.880602 
L 371.235749 138.079315 
L 377.842803 141.177376 
L 380.674398 142.242494 
L 383.034061 142.880211 
L 384.921791 143.172906 
L 386.809521 143.232878 
L 388.69725 143.028151 
L 390.58498 142.533346 
L 392.47271 141.732041 
L 394.36044 140.618982 
L 396.24817 139.201979 
L 398.1359 137.50331 
L 400.495563 135.042435 
L 403.327158 131.739155 
L 409.46228 124.470413 
L 411.35001 122.571879 
L 413.23774 120.992229 
L 414.653537 120.065254 
L 416.069335 119.391152 
L 417.485132 118.99234 
L 418.90093 118.884307 
L 420.316727 119.074783 
L 421.732524 119.563135 
L 423.148322 120.340025 
L 424.564119 121.387354 
L 425.979917 122.678515 
L 427.867647 124.718598 
L 430.227309 127.635204 
L 436.362432 135.456878 
L 438.250161 137.427855 
L 439.665959 138.642976 
L 441.081756 139.589545 
L 442.497554 140.23773 
L 443.913351 140.567038 
L 445.329149 140.567038 
L 446.744946 140.23773 
L 448.160744 139.589545 
L 449.576541 138.642976 
L 450.992339 137.427855 
L 452.880068 135.456878 
L 455.239731 132.585722 
L 461.846786 124.178957 
L 463.734516 122.223013 
L 465.150313 121.009668 
L 466.566111 120.04994 
L 467.981908 119.367649 
L 469.397705 118.977985 
L 470.813503 118.887364 
L 472.2293 119.093581 
L 473.645098 119.586239 
L 475.060895 120.347437 
L 476.476693 121.352667 
L 478.364423 123.019989 
L 480.252153 124.984517 
L 483.083748 128.288173 
L 488.746937 135.042435 
L 491.1066 137.50331 
L 492.99433 139.201979 
L 494.88206 140.618982 
L 496.76979 141.732041 
L 498.65752 142.533346 
L 500.54525 143.028151 
L 502.432979 143.232878 
L 504.320709 143.172906 
L 506.208439 142.880211 
L 508.568102 142.242494 
L 510.927764 141.372629 
L 514.231292 139.904656 
L 524.613806 135.083747 
L 528.389266 133.684493 
L 531.692794 132.689295 
L 535.468253 131.805808 
L 539.243713 131.16089 
L 543.491106 130.664745 
L 548.682363 130.297149 
L 555.289418 130.063116 
L 565.2 129.928147 
L 565.2 129.928147 
" clip-path="url(#p84e891cf12)" style="fill: none; stroke: #9467bd; stroke-width: 1.5; stroke-linecap: square"/>
   </g>
   <g id="patch_9">
    <path d="M 324.0425 246.04 
L 324.0425 13.785532 
" style="fill: none; stroke: #000000; stroke-width: 0.8; stroke-linejoin: miter; stroke-linecap: square"/>
   </g>
   <g id="patch_10">
    <path d="M 565.2 246.04 
L 565.2 13.785532 
" style="fill: none; stroke: #000000; stroke-width: 0.8; stroke-linejoin: miter; stroke-linecap: square"/>
   </g>
   <g id="patch_11">
    <path d="M 324.0425 246.04 
L 565.2 246.04 
" style="fill: none; stroke: #000000; stroke-width: 0.8; stroke-linejoin: miter; stroke-linecap: square"/>
   </g>
   <g id="patch_12">
    <path d="M 324.0425 13.785532 
L 565.2 13.785532 
" style="fill: none; stroke: #000000; stroke-width: 0.8; stroke-linejoin: miter; stroke-linecap: square"/>
   </g>
   <g id="legend_2">
    <g id="patch_13">
     <path d="M 406.379844 109.854282 
L 482.862656 109.854282 
Q 484.862656 109.854282 484.862656 107.854282 
L 484.862656 20.785532 
Q 484.862656 18.785532 482.862656 18.785532 
L 406.379844 18.785532 
Q 404.379844 18.785532 404.379844 20.785532 
L 404.379844 107.854282 
Q 404.379844 109.854282 406.379844 109.854282 
z
" style="fill: #ffffff; opacity: 0.8; stroke: #cccccc; stroke-linejoin: miter"/>
    </g>
    <g id="line2d_31">
     <path d="M 408.379844 26.88397 
L 418.379844 26.88397 
L 428.379844 26.88397 
" style="fill: none; stroke: #000000; stroke-width: 2; stroke-linecap: square"/>
    </g>
    <g id="text_27">
     <!-- potential -->
     <g transform="translate(436.379844 30.38397) scale(0.1 -0.1)">
      <defs>
       <path id="DejaVuSans-70" d="M 1159 525 
L 1159 -1331 
L 581 -1331 
L 581 3500 
L 1159 3500 
L 1159 2969 
Q 1341 3281 1617 3432 
Q 1894 3584 2278 3584 
Q 2916 3584 3314 3078 
Q 3713 2572 3713 1747 
Q 3713 922 3314 415 
Q 2916 -91 2278 -91 
Q 1894 -91 1617 61 
Q 1341 213 1159 525 
z
M 3116 1747 
Q 3116 2381 2855 2742 
Q 2594 3103 2138 3103 
Q 1681 3103 1420 2742 
Q 1159 2381 1159 1747 
Q 1159 1113 1420 752 
Q 1681 391 2138 391 
Q 2594 391 2855 752 
Q 3116 1113 3116 1747 
z
" transform="scale(0.015625)"/>
       <path id="DejaVuSans-6f" d="M 1959 3097 
Q 1497 3097 1228 2736 
Q 959 2375 959 1747 
Q 959 1119 1226 758 
Q 1494 397 1959 397 
Q 2419 397 2687 759 
Q 2956 1122 2956 1747 
Q 2956 2369 2687 2733 
Q 2419 3097 1959 3097 
z
M 1959 3584 
Q 2709 3584 3137 3096 
Q 3566 2609 3566 1747 
Q 3566 888 3137 398 
Q 2709 -91 1959 -91 
Q 1206 -91 779 398 
Q 353 888 353 1747 
Q 353 2609 779 3096 
Q 1206 3584 1959 3584 
z
" transform="scale(0.015625)"/>
      </defs>
      <use xlink:href="#DejaVuSans-70"/>
      <use xlink:href="#DejaVuSans-6f" x="63.476562"/>
      <use xlink:href="#DejaVuSans-74" x="124.658203"/>
      <use xlink:href="#DejaVuSans-65" x="163.867188"/>
      <use xlink:href="#DejaVuSans-6e" x="225.390625"/>
      <use xlink:href="#DejaVuSans-74" x="288.769531"/>
      <use xlink:href="#DejaVuSans-69" x="327.978516"/>
      <use xlink:href="#DejaVuSans-61" x="355.761719"/>
      <use xlink:href="#DejaVuSans-6c" x="417.041016"/>
     </g>
    </g>
    <g id="line2d_32">
     <path d="M 408.379844 41.562095 
L 418.379844 41.562095 
L 428.379844 41.562095 
" style="fill: none; stroke: #1f77b4; stroke-width: 1.5; stroke-linecap: square"/>
    </g>
    <g id="text_28">
     <!-- state 0 -->
     <g transform="translate(436.379844 45.062095) scale(0.1 -0.1)">
      <use xlink:href="#DejaVuSans-73"/>
      <use xlink:href="#DejaVuSans-74" x="52.099609"/>
      <use xlink:href="#DejaVuSans-61" x="91.308594"/>
      <use xlink:href="#DejaVuSans-74" x="152.587891"/>
      <use xlink:href="#DejaVuSans-65" x="191.796875"/>
      <use xlink:href="#DejaVuSans-20" x="253.320312"/>
      <use xlink:href="#DejaVuSans-30" x="285.107422"/>
     </g>
    </g>
    <g id="line2d_33">
     <path d="M 408.379844 56.24022 
L 418.379844 56.24022 
L 428.379844 56.24022 
" style="fill: none; stroke: #ff7f0e; stroke-width: 1.5; stroke-linecap: square"/>
    </g>
    <g id="text_29">
     <!-- state 1 -->
     <g transform="translate(436.379844 59.74022) scale(0.1 -0.1)">
      <use xlink:href="#DejaVuSans-73"/>
      <use xlink:href="#DejaVuSans-74" x="52.099609"/>
      <use xlink:href="#DejaVuSans-61" x="91.308594"/>
      <use xlink:href="#DejaVuSans-74" x="152.587891"/>
      <use xlink:href="#DejaVuSans-65" x="191.796875"/>
      <use xlink:href="#DejaVuSans-20" x="253.320312"/>
      <use xlink:href="#DejaVuSans-31" x="285.107422"/>
     </g>
    </g>
    <g id="line2d_34">
     <path d="M 408.379844 70.918345 
L 418.379844 70.918345 
L 428.379844 70.918345 
" style="fill: none; stroke: #2ca02c; stroke-width: 1.5; stroke-linecap: square"/>
    </g>
    <g id="text_30">
     <!-- state 2 -->
     <g transform="translate(436.379844 74.418345) scale(0.1 -0.1)">
      <use xlink:href="#DejaVuSans-73"/>
      <use xlink:href="#DejaVuSans-74" x="52.099609"/>
      <use xlink:href="#DejaVuSans-61" x="91.308594"/>
      <use xlink:href="#DejaVuSans-74" x="152.587891"/>
      <use xlink:href="#DejaVuSans-65" x="191.796875"/>
      <use xlink:href="#DejaVuSans-20" x="253.320312"/>
      <use xlink:href="#DejaVuSans-32" x="285.107422"/>
     </g>
    </g>
    <g id="line2d_35">
     <path d="M 408.379844 85.59647 
L 418.379844 85.59647 
L 428.379844 85.59647 
" style="fill: none; stroke: #d62728; stroke-width: 1.5; stroke-linecap: square"/>
    </g>
    <g id="text_31">
     <!-- state 3 -->
     <g transform="translate(436.379844 89.09647) scale(0.1 -0.1)">
      <defs>
       <path id="DejaVuSans-33" d="M 2597 2516 
Q 3050 2419 3304 2112 
Q 3559 1806 3559 1356 
Q 3559 666 3084 287 
Q 2609 -91 1734 -91 
Q 1441 -91 1130 -33 
Q 819 25 488 141 
L 488 750 
Q 750 597 1062 519 
Q 1375 441 1716 441 
Q 2309 441 2620 675 
Q 2931 909 2931 1356 
Q 2931 1769 2642 2001 
Q 2353 2234 1838 2234 
L 1294 2234 
L 1294 2753 
L 1863 2753 
Q 2328 2753 2575 2939 
Q 2822 3125 2822 3475 
Q 2822 3834 2567 4026 
Q 2313 4219 1838 4219 
Q 1578 4219 1281 4162 
Q 984 4106 628 3988 
L 628 4550 
Q 988 4650 1302 4700 
Q 1616 4750 1894 4750 
Q 2613 4750 3031 4423 
Q 3450 4097 3450 3541 
Q 3450 3153 3228 2886 
Q 3006 2619 2597 2516 
z
" transform="scale(0.015625)"/>
      </defs>
      <use xlink:href="#DejaVuSans-73"/>
      <use xlink:href="#DejaVuSans-74" x="52.099609"/>
      <use xlink:href="#DejaVuSans-61" x="91.308594"/>
      <use xlink:href="#DejaVuSans-74" x="152.587891"/>
      <use xlink:href="#DejaVuSans-65" x="191.796875"/>
      <use xlink:href="#DejaVuSans-20" x="253.320312"/>
      <use xlink:href="#DejaVuSans-33" x="285.107422"/>
     </g>
    </g>
    <g id="line2d_36">
     <path d="M 408.379844 100.274595 
L 418.379844 100.274595 
L 428.379844 100.274595 
" style="fill: none; stroke: #9467bd; stroke-width: 1.5; stroke-linecap: square"/>
    </g>
    <g id="text_32">
     <!-- state 4 -->
     <g transform="translate(436.379844 103.774595) scale(0.1 -0.1)">
      <use xlink:href="#DejaVuSans-73"/>
      <use xlink:href="#DejaVuSans-74" x="52.099609"/>
      <use xlink:href="#DejaVuSans-61" x="91.308594"/>
      <use xlink:href="#DejaVuSans-74" x="152.587891"/>
      <use xlink:href="#DejaVuSans-65" x="191.796875"/>
      <use xlink:href="#DejaVuSans-20" x="253.320312"/>
      <use xlink:href="#DejaVuSans-34" x="285.107422"/>
     </g>
    </g>
   </g>
  </g>
 </g>
 <defs>
  <clipPath id="p0088f1c0e5">
   <rect x="44.615" y="13.785532" width="241.1575" height="232.254468"/>
  </clipPath>
  <clipPath id="p84e891cf12">
   <rect x="324.0425" y="13.785532" width="241.1575" height="232.254468"/>
  </clipPath>
 </defs>
</svg>
