<?xml version="1.0" encoding="utf-8" standalone="no"?>
<!DOCTYPE svg PUBLIC "-//W3C//DTD SVG 1.1//EN"
  "http://www.w3.org/Graphics/SVG/1.1/DTD/svg11.dtd">
<svg xmlns:xlink="http://www.w3.org/1999/xlink" width="576pt" height="288pt" viewBox="0 0 576 288" xmlns="http://www.w3.org/2000/svg" version="1.1">
 <metadata>
  <rdf:RDF xmlns:dc="http://purl.org/dc/elements/1.1/" xmlns:cc="http://creativecommons.org/ns#" xmlns:rdf="http://www.w3.org/1999/02/22-rdf-syntax-ns#">
   <cc:Work>
    <dc:type rdf:resource="http://purl.org/dc/dcmitype/StillImage"/>
    <dc:date>2024-03-27T09:14:19.195735</dc:date>
    <dc:format>image/svg+xml</dc:format>
    <dc:creator>
     <cc:Agent>
      <dc:title>Matplotlib v3.8.0, https://matplotlib.org/</dc:title>
     </cc:Agent>
    </dc:creator>
   </cc:Work>
  </rdf:RDF>
 </metadata>
 <defs>
  <style type="text/css">*{stroke-linejoin: round; stroke-linecap: butt}</style>
 </defs>
 <g id="figure_1">
  <g id="patch_1">
   <path d="M 0 288 
L 576 288 
L 576 0 
L 0 0 
z
" style="fill: #ffffff"/>
  </g>
  <g id="axes_1">
   <g id="patch_2">
    <path d="M 54.2 246.04 
L 555.615 246.04 
L 555.615 14.76 
L 54.2 14.76 
z
" style="fill: #ffffff"/>
   </g>
   <g id="matplotlib.axis_1">
    <g id="xtick_1">
     <g id="line2d_1">
      <defs>
       <path id="m1e95949eb5" d="M 0 0 
L 0 3.5 
" style="stroke: #000000; stroke-width: 0.8"/>
      </defs>
      <g>
       <use xlink:href="#m1e95949eb5" x="54.2" y="246.04" style="stroke: #000000; stroke-width: 0.8"/>
      </g>
     </g>
     <g id="text_1">
      <!-- 0 -->
      <g transform="translate(51.01875 260.638438) scale(0.1 -0.1)">
       <defs>
        <path id="DejaVuSans-30" d="M 2034 4250 
Q 1547 4250 1301 3770 
Q 1056 3291 1056 2328 
Q 1056 1369 1301 889 
Q 1547 409 2034 409 
Q 2525 409 2770 889 
Q 3016 1369 3016 2328 
Q 3016 3291 2770 3770 
Q 2525 4250 2034 4250 
z
M 2034 4750 
Q 2819 4750 3233 4129 
Q 3647 3509 3647 2328 
Q 3647 1150 3233 529 
Q 2819 -91 2034 -91 
Q 1250 -91 836 529 
Q 422 1150 422 2328 
Q 422 3509 836 4129 
Q 1250 4750 2034 4750 
z
" transform="scale(0.015625)"/>
       </defs>
       <use xlink:href="#DejaVuSans-30"/>
      </g>
     </g>
    </g>
    <g id="xtick_2">
     <g id="line2d_2">
      <g>
       <use xlink:href="#m1e95949eb5" x="116.876875" y="246.04" style="stroke: #000000; stroke-width: 0.8"/>
      </g>
     </g>
     <g id="text_2">
      <!-- 25 -->
      <g transform="translate(110.514375 260.638438) scale(0.1 -0.1)">
       <defs>
        <path id="DejaVuSans-32" d="M 1228 531 
L 3431 531 
L 3431 0 
L 469 0 
L 469 531 
Q 828 903 1448 1529 
Q 2069 2156 2228 2338 
Q 2531 2678 2651 2914 
Q 2772 3150 2772 3378 
Q 2772 3750 2511 3984 
Q 2250 4219 1831 4219 
Q 1534 4219 1204 4116 
Q 875 4013 500 3803 
L 500 4441 
Q 881 4594 1212 4672 
Q 1544 4750 1819 4750 
Q 2544 4750 2975 4387 
Q 3406 4025 3406 3419 
Q 3406 3131 3298 2873 
Q 3191 2616 2906 2266 
Q 2828 2175 2409 1742 
Q 1991 1309 1228 531 
z
" transform="scale(0.015625)"/>
        <path id="DejaVuSans-35" d="M 691 4666 
L 3169 4666 
L 3169 4134 
L 1269 4134 
L 1269 2991 
Q 1406 3038 1543 3061 
Q 1681 3084 1819 3084 
Q 2600 3084 3056 2656 
Q 3513 2228 3513 1497 
Q 3513 744 3044 326 
Q 2575 -91 1722 -91 
Q 1428 -91 1123 -41 
Q 819 9 494 109 
L 494 744 
Q 775 591 1075 516 
Q 1375 441 1709 441 
Q 2250 441 2565 725 
Q 2881 1009 2881 1497 
Q 2881 1984 2565 2268 
Q 2250 2553 1709 2553 
Q 1456 2553 1204 2497 
Q 953 2441 691 2322 
L 691 4666 
z
" transform="scale(0.015625)"/>
       </defs>
       <use xlink:href="#DejaVuSans-32"/>
       <use xlink:href="#DejaVuSans-35" x="63.623047"/>
      </g>
     </g>
    </g>
    <g id="xtick_3">
     <g id="line2d_3">
      <g>
       <use xlink:href="#m1e95949eb5" x="179.55375" y="246.04" style="stroke: #000000; stroke-width: 0.8"/>
      </g>
     </g>
     <g id="text_3">
      <!-- 50 -->
      <g transform="translate(173.19125 260.638438) scale(0.1 -0.1)">
       <use xlink:href="#DejaVuSans-35"/>
       <use xlink:href="#DejaVuSans-30" x="63.623047"/>
      </g>
     </g>
    </g>
    <g id="xtick_4">
     <g id="line2d_4">
      <g>
       <use xlink:href="#m1e95949eb5" x="242.230625" y="246.04" style="stroke: #000000; stroke-width: 0.8"/>
      </g>
     </g>
     <g id="text_4">
      <!-- 75 -->
      <g transform="translate(235.868125 260.638438) scale(0.1 -0.1)">
       <defs>
        <path id="DejaVuSans-37" d="M 525 4666 
L 3525 4666 
L 3525 4397 
L 1831 0 
L 1172 0 
L 2766 4134 
L 525 4134 
L 525 4666 
z
" transform="scale(0.015625)"/>
       </defs>
       <use xlink:href="#DejaVuSans-37"/>
       <use xlink:href="#DejaVuSans-35" x="63.623047"/>
      </g>
     </g>
    </g>
    <g id="xtick_5">
     <g id="line2d_5">
      <g>
       <use xlink:href="#m1e95949eb5" x="304.9075" y="246.04" style="stroke: #000000; stroke-width: 0.8"/>
      </g>
     </g>
     <g id="text_5">
      <!-- 100 -->
      <g transform="translate(295.36375 260.638438) scale(0.1 -0.1)">
       <defs>
        <path id="DejaVuSans-31" d="M 794 531 
L 1825 531 
L 1825 4091 
L 703 3866 
L 703 4441 
L 1819 4666 
L 2450 4666 
L 2450 531 
L 3481 531 
L 3481 0 
L 794 0 
L 794 531 
z
" transform="scale(0.015625)"/>
       </defs>
       <use xlink:href="#DejaVuSans-31"/>
       <use xlink:href="#DejaVuSans-30" x="63.623047"/>
       <use xlink:href="#DejaVuSans-30" x="127.246094"/>
      </g>
     </g>
    </g>
    <g id="xtick_6">
     <g id="line2d_6">
      <g>
       <use xlink:href="#m1e95949eb5" x="367.584375" y="246.04" style="stroke: #000000; stroke-width: 0.8"/>
      </g>
     </g>
     <g id="text_6">
      <!-- 125 -->
      <g transform="translate(358.040625 260.638438) scale(0.1 -0.1)">
       <use xlink:href="#DejaVuSans-31"/>
       <use xlink:href="#DejaVuSans-32" x="63.623047"/>
       <use xlink:href="#DejaVuSans-35" x="127.246094"/>
      </g>
     </g>
    </g>
    <g id="xtick_7">
     <g id="line2d_7">
      <g>
       <use xlink:href="#m1e95949eb5" x="430.26125" y="246.04" style="stroke: #000000; stroke-width: 0.8"/>
      </g>
     </g>
     <g id="text_7">
      <!-- 150 -->
      <g transform="translate(420.7175 260.638438) scale(0.1 -0.1)">
       <use xlink:href="#DejaVuSans-31"/>
       <use xlink:href="#DejaVuSans-35" x="63.623047"/>
       <use xlink:href="#DejaVuSans-30" x="127.246094"/>
      </g>
     </g>
    </g>
    <g id="xtick_8">
     <g id="line2d_8">
      <g>
       <use xlink:href="#m1e95949eb5" x="492.938125" y="246.04" style="stroke: #000000; stroke-width: 0.8"/>
      </g>
     </g>
     <g id="text_8">
      <!-- 175 -->
      <g transform="translate(483.394375 260.638438) scale(0.1 -0.1)">
       <use xlink:href="#DejaVuSans-31"/>
       <use xlink:href="#DejaVuSans-37" x="63.623047"/>
       <use xlink:href="#DejaVuSans-35" x="127.246094"/>
      </g>
     </g>
    </g>
    <g id="xtick_9">
     <g id="line2d_9">
      <g>
       <use xlink:href="#m1e95949eb5" x="555.615" y="246.04" style="stroke: #000000; stroke-width: 0.8"/>
      </g>
     </g>
     <g id="text_9">
      <!-- 200 -->
      <g transform="translate(546.07125 260.638438) scale(0.1 -0.1)">
       <use xlink:href="#DejaVuSans-32"/>
       <use xlink:href="#DejaVuSans-30" x="63.623047"/>
       <use xlink:href="#DejaVuSans-30" x="127.246094"/>
      </g>
     </g>
    </g>
    <g id="text_10">
     <!-- time / s -->
     <g transform="translate(286.144219 274.316562) scale(0.1 -0.1)">
      <defs>
       <path id="DejaVuSans-74" d="M 1172 4494 
L 1172 3500 
L 2356 3500 
L 2356 3053 
L 1172 3053 
L 1172 1153 
Q 1172 725 1289 603 
Q 1406 481 1766 481 
L 2356 481 
L 2356 0 
L 1766 0 
Q 1100 0 847 248 
Q 594 497 594 1153 
L 594 3053 
L 172 3053 
L 172 3500 
L 594 3500 
L 594 4494 
L 1172 4494 
z
" transform="scale(0.015625)"/>
       <path id="DejaVuSans-69" d="M 603 3500 
L 1178 3500 
L 1178 0 
L 603 0 
L 603 3500 
z
M 603 4863 
L 1178 4863 
L 1178 4134 
L 603 4134 
L 603 4863 
z
" transform="scale(0.015625)"/>
       <path id="DejaVuSans-6d" d="M 3328 2828 
Q 3544 3216 3844 3400 
Q 4144 3584 4550 3584 
Q 5097 3584 5394 3201 
Q 5691 2819 5691 2113 
L 5691 0 
L 5113 0 
L 5113 2094 
Q 5113 2597 4934 2840 
Q 4756 3084 4391 3084 
Q 3944 3084 3684 2787 
Q 3425 2491 3425 1978 
L 3425 0 
L 2847 0 
L 2847 2094 
Q 2847 2600 2669 2842 
Q 2491 3084 2119 3084 
Q 1678 3084 1418 2786 
Q 1159 2488 1159 1978 
L 1159 0 
L 581 0 
L 581 3500 
L 1159 3500 
L 1159 2956 
Q 1356 3278 1631 3431 
Q 1906 3584 2284 3584 
Q 2666 3584 2933 3390 
Q 3200 3197 3328 2828 
z
" transform="scale(0.015625)"/>
       <path id="DejaVuSans-65" d="M 3597 1894 
L 3597 1613 
L 953 1613 
Q 991 1019 1311 708 
Q 1631 397 2203 397 
Q 2534 397 2845 478 
Q 3156 559 3463 722 
L 3463 178 
Q 3153 47 2828 -22 
Q 2503 -91 2169 -91 
Q 1331 -91 842 396 
Q 353 884 353 1716 
Q 353 2575 817 3079 
Q 1281 3584 2069 3584 
Q 2775 3584 3186 3129 
Q 3597 2675 3597 1894 
z
M 3022 2063 
Q 3016 2534 2758 2815 
Q 2500 3097 2075 3097 
Q 1594 3097 1305 2825 
Q 1016 2553 972 2059 
L 3022 2063 
z
" transform="scale(0.015625)"/>
       <path id="DejaVuSans-20" transform="scale(0.015625)"/>
       <path id="DejaVuSans-2f" d="M 1625 4666 
L 2156 4666 
L 531 -594 
L 0 -594 
L 1625 4666 
z
" transform="scale(0.015625)"/>
       <path id="DejaVuSans-73" d="M 2834 3397 
L 2834 2853 
Q 2591 2978 2328 3040 
Q 2066 3103 1784 3103 
Q 1356 3103 1142 2972 
Q 928 2841 928 2578 
Q 928 2378 1081 2264 
Q 1234 2150 1697 2047 
L 1894 2003 
Q 2506 1872 2764 1633 
Q 3022 1394 3022 966 
Q 3022 478 2636 193 
Q 2250 -91 1575 -91 
Q 1294 -91 989 -36 
Q 684 19 347 128 
L 347 722 
Q 666 556 975 473 
Q 1284 391 1588 391 
Q 1994 391 2212 530 
Q 2431 669 2431 922 
Q 2431 1156 2273 1281 
Q 2116 1406 1581 1522 
L 1381 1569 
Q 847 1681 609 1914 
Q 372 2147 372 2553 
Q 372 3047 722 3315 
Q 1072 3584 1716 3584 
Q 2034 3584 2315 3537 
Q 2597 3491 2834 3397 
z
" transform="scale(0.015625)"/>
      </defs>
      <use xlink:href="#DejaVuSans-74"/>
      <use xlink:href="#DejaVuSans-69" x="39.208984"/>
      <use xlink:href="#DejaVuSans-6d" x="66.992188"/>
      <use xlink:href="#DejaVuSans-65" x="164.404297"/>
      <use xlink:href="#DejaVuSans-20" x="225.927734"/>
      <use xlink:href="#DejaVuSans-2f" x="257.714844"/>
      <use xlink:href="#DejaVuSans-20" x="291.40625"/>
      <use xlink:href="#DejaVuSans-73" x="323.193359"/>
     </g>
    </g>
   </g>
   <g id="matplotlib.axis_2">
    <g id="ytick_1">
     <g id="line2d_10">
      <defs>
       <path id="m729e6f973b" d="M 0 0 
L -3.5 0 
" style="stroke: #000000; stroke-width: 0.8"/>
      </defs>
      <g>
       <use xlink:href="#m729e6f973b" x="54.2" y="235.026667" style="stroke: #000000; stroke-width: 0.8"/>
      </g>
     </g>
     <g id="text_11">
      <!-- 0.00 -->
      <g transform="translate(24.934375 238.825885) scale(0.1 -0.1)">
       <defs>
        <path id="DejaVuSans-2e" d="M 684 794 
L 1344 794 
L 1344 0 
L 684 0 
L 684 794 
z
" transform="scale(0.015625)"/>
       </defs>
       <use xlink:href="#DejaVuSans-30"/>
       <use xlink:href="#DejaVuSans-2e" x="63.623047"/>
       <use xlink:href="#DejaVuSans-30" x="95.410156"/>
       <use xlink:href="#DejaVuSans-30" x="159.033203"/>
      </g>
     </g>
    </g>
    <g id="ytick_2">
     <g id="line2d_11">
      <g>
       <use xlink:href="#m729e6f973b" x="54.2" y="207.493333" style="stroke: #000000; stroke-width: 0.8"/>
      </g>
     </g>
     <g id="text_12">
      <!-- 0.25 -->
      <g transform="translate(24.934375 211.292552) scale(0.1 -0.1)">
       <use xlink:href="#DejaVuSans-30"/>
       <use xlink:href="#DejaVuSans-2e" x="63.623047"/>
       <use xlink:href="#DejaVuSans-32" x="95.410156"/>
       <use xlink:href="#DejaVuSans-35" x="159.033203"/>
      </g>
     </g>
    </g>
    <g id="ytick_3">
     <g id="line2d_12">
      <g>
       <use xlink:href="#m729e6f973b" x="54.2" y="179.96" style="stroke: #000000; stroke-width: 0.8"/>
      </g>
     </g>
     <g id="text_13">
      <!-- 0.50 -->
      <g transform="translate(24.934375 183.759219) scale(0.1 -0.1)">
       <use xlink:href="#DejaVuSans-30"/>
       <use xlink:href="#DejaVuSans-2e" x="63.623047"/>
       <use xlink:href="#DejaVuSans-35" x="95.410156"/>
       <use xlink:href="#DejaVuSans-30" x="159.033203"/>
      </g>
     </g>
    </g>
    <g id="ytick_4">
     <g id="line2d_13">
      <g>
       <use xlink:href="#m729e6f973b" x="54.2" y="152.426667" style="stroke: #000000; stroke-width: 0.8"/>
      </g>
     </g>
     <g id="text_14">
      <!-- 0.75 -->
      <g transform="translate(24.934375 156.225885) scale(0.1 -0.1)">
       <use xlink:href="#DejaVuSans-30"/>
       <use xlink:href="#DejaVuSans-2e" x="63.623047"/>
       <use xlink:href="#DejaVuSans-37" x="95.410156"/>
       <use xlink:href="#DejaVuSans-35" x="159.033203"/>
      </g>
     </g>
    </g>
    <g id="ytick_5">
     <g id="line2d_14">
      <g>
       <use xlink:href="#m729e6f973b" x="54.2" y="124.893333" style="stroke: #000000; stroke-width: 0.8"/>
      </g>
     </g>
     <g id="text_15">
      <!-- 1.00 -->
      <g transform="translate(24.934375 128.692552) scale(0.1 -0.1)">
       <use xlink:href="#DejaVuSans-31"/>
       <use xlink:href="#DejaVuSans-2e" x="63.623047"/>
       <use xlink:href="#DejaVuSans-30" x="95.410156"/>
       <use xlink:href="#DejaVuSans-30" x="159.033203"/>
      </g>
     </g>
    </g>
    <g id="ytick_6">
     <g id="line2d_15">
      <g>
       <use xlink:href="#m729e6f973b" x="54.2" y="97.36" style="stroke: #000000; stroke-width: 0.8"/>
      </g>
     </g>
     <g id="text_16">
      <!-- 1.25 -->
      <g transform="translate(24.934375 101.159219) scale(0.1 -0.1)">
       <use xlink:href="#DejaVuSans-31"/>
       <use xlink:href="#DejaVuSans-2e" x="63.623047"/>
       <use xlink:href="#DejaVuSans-32" x="95.410156"/>
       <use xlink:href="#DejaVuSans-35" x="159.033203"/>
      </g>
     </g>
    </g>
    <g id="ytick_7">
     <g id="line2d_16">
      <g>
       <use xlink:href="#m729e6f973b" x="54.2" y="69.826667" style="stroke: #000000; stroke-width: 0.8"/>
      </g>
     </g>
     <g id="text_17">
      <!-- 1.50 -->
      <g transform="translate(24.934375 73.625885) scale(0.1 -0.1)">
       <use xlink:href="#DejaVuSans-31"/>
       <use xlink:href="#DejaVuSans-2e" x="63.623047"/>
       <use xlink:href="#DejaVuSans-35" x="95.410156"/>
       <use xlink:href="#DejaVuSans-30" x="159.033203"/>
      </g>
     </g>
    </g>
    <g id="ytick_8">
     <g id="line2d_17">
      <g>
       <use xlink:href="#m729e6f973b" x="54.2" y="42.293333" style="stroke: #000000; stroke-width: 0.8"/>
      </g>
     </g>
     <g id="text_18">
      <!-- 1.75 -->
      <g transform="translate(24.934375 46.092552) scale(0.1 -0.1)">
       <use xlink:href="#DejaVuSans-31"/>
       <use xlink:href="#DejaVuSans-2e" x="63.623047"/>
       <use xlink:href="#DejaVuSans-37" x="95.410156"/>
       <use xlink:href="#DejaVuSans-35" x="159.033203"/>
      </g>
     </g>
    </g>
    <g id="ytick_9">
     <g id="line2d_18">
      <g>
       <use xlink:href="#m729e6f973b" x="54.2" y="14.76" style="stroke: #000000; stroke-width: 0.8"/>
      </g>
     </g>
     <g id="text_19">
      <!-- 2.00 -->
      <g transform="translate(24.934375 18.559219) scale(0.1 -0.1)">
       <use xlink:href="#DejaVuSans-32"/>
       <use xlink:href="#DejaVuSans-2e" x="63.623047"/>
       <use xlink:href="#DejaVuSans-30" x="95.410156"/>
       <use xlink:href="#DejaVuSans-30" x="159.033203"/>
      </g>
     </g>
    </g>
    <g id="text_20">
     <!-- concentration / mM -->
     <g transform="translate(18.854688 179.075781) rotate(-90) scale(0.1 -0.1)">
      <defs>
       <path id="DejaVuSans-63" d="M 3122 3366 
L 3122 2828 
Q 2878 2963 2633 3030 
Q 2388 3097 2138 3097 
Q 1578 3097 1268 2742 
Q 959 2388 959 1747 
Q 959 1106 1268 751 
Q 1578 397 2138 397 
Q 2388 397 2633 464 
Q 2878 531 3122 666 
L 3122 134 
Q 2881 22 2623 -34 
Q 2366 -91 2075 -91 
Q 1284 -91 818 406 
Q 353 903 353 1747 
Q 353 2603 823 3093 
Q 1294 3584 2113 3584 
Q 2378 3584 2631 3529 
Q 2884 3475 3122 3366 
z
" transform="scale(0.015625)"/>
       <path id="DejaVuSans-6f" d="M 1959 3097 
Q 1497 3097 1228 2736 
Q 959 2375 959 1747 
Q 959 1119 1226 758 
Q 1494 397 1959 397 
Q 2419 397 2687 759 
Q 2956 1122 2956 1747 
Q 2956 2369 2687 2733 
Q 2419 3097 1959 3097 
z
M 1959 3584 
Q 2709 3584 3137 3096 
Q 3566 2609 3566 1747 
Q 3566 888 3137 398 
Q 2709 -91 1959 -91 
Q 1206 -91 779 398 
Q 353 888 353 1747 
Q 353 2609 779 3096 
Q 1206 3584 1959 3584 
z
" transform="scale(0.015625)"/>
       <path id="DejaVuSans-6e" d="M 3513 2113 
L 3513 0 
L 2938 0 
L 2938 2094 
Q 2938 2591 2744 2837 
Q 2550 3084 2163 3084 
Q 1697 3084 1428 2787 
Q 1159 2491 1159 1978 
L 1159 0 
L 581 0 
L 581 3500 
L 1159 3500 
L 1159 2956 
Q 1366 3272 1645 3428 
Q 1925 3584 2291 3584 
Q 2894 3584 3203 3211 
Q 3513 2838 3513 2113 
z
" transform="scale(0.015625)"/>
       <path id="DejaVuSans-72" d="M 2631 2963 
Q 2534 3019 2420 3045 
Q 2306 3072 2169 3072 
Q 1681 3072 1420 2755 
Q 1159 2438 1159 1844 
L 1159 0 
L 581 0 
L 581 3500 
L 1159 3500 
L 1159 2956 
Q 1341 3275 1631 3429 
Q 1922 3584 2338 3584 
Q 2397 3584 2469 3576 
Q 2541 3569 2628 3553 
L 2631 2963 
z
" transform="scale(0.015625)"/>
       <path id="DejaVuSans-61" d="M 2194 1759 
Q 1497 1759 1228 1600 
Q 959 1441 959 1056 
Q 959 750 1161 570 
Q 1363 391 1709 391 
Q 2188 391 2477 730 
Q 2766 1069 2766 1631 
L 2766 1759 
L 2194 1759 
z
M 3341 1997 
L 3341 0 
L 2766 0 
L 2766 531 
Q 2569 213 2275 61 
Q 1981 -91 1556 -91 
Q 1019 -91 701 211 
Q 384 513 384 1019 
Q 384 1609 779 1909 
Q 1175 2209 1959 2209 
L 2766 2209 
L 2766 2266 
Q 2766 2663 2505 2880 
Q 2244 3097 1772 3097 
Q 1472 3097 1187 3025 
Q 903 2953 641 2809 
L 641 3341 
Q 956 3463 1253 3523 
Q 1550 3584 1831 3584 
Q 2591 3584 2966 3190 
Q 3341 2797 3341 1997 
z
" transform="scale(0.015625)"/>
       <path id="DejaVuSans-4d" d="M 628 4666 
L 1569 4666 
L 2759 1491 
L 3956 4666 
L 4897 4666 
L 4897 0 
L 4281 0 
L 4281 4097 
L 3078 897 
L 2444 897 
L 1241 4097 
L 1241 0 
L 628 0 
L 628 4666 
z
" transform="scale(0.015625)"/>
      </defs>
      <use xlink:href="#DejaVuSans-63"/>
      <use xlink:href="#DejaVuSans-6f" x="54.980469"/>
      <use xlink:href="#DejaVuSans-6e" x="116.162109"/>
      <use xlink:href="#DejaVuSans-63" x="179.541016"/>
      <use xlink:href="#DejaVuSans-65" x="234.521484"/>
      <use xlink:href="#DejaVuSans-6e" x="296.044922"/>
      <use xlink:href="#DejaVuSans-74" x="359.423828"/>
      <use xlink:href="#DejaVuSans-72" x="398.632812"/>
      <use xlink:href="#DejaVuSans-61" x="439.746094"/>
      <use xlink:href="#DejaVuSans-74" x="501.025391"/>
      <use xlink:href="#DejaVuSans-69" x="540.234375"/>
      <use xlink:href="#DejaVuSans-6f" x="568.017578"/>
      <use xlink:href="#DejaVuSans-6e" x="629.199219"/>
      <use xlink:href="#DejaVuSans-20" x="692.578125"/>
      <use xlink:href="#DejaVuSans-2f" x="724.365234"/>
      <use xlink:href="#DejaVuSans-20" x="758.056641"/>
      <use xlink:href="#DejaVuSans-6d" x="789.84375"/>
      <use xlink:href="#DejaVuSans-4d" x="887.255859"/>
     </g>
    </g>
   </g>
   <g id="line2d_19">
    <path d="M 54.2 235.026667 
L 54.357946 235.020693 
L 118.799802 234.90966 
L 119.932999 234.695138 
L 120.582332 234.351586 
L 121.086254 233.828467 
L 121.537527 233.021447 
L 121.973758 231.750421 
L 122.415004 229.722227 
L 122.88132 226.438427 
L 123.407805 220.991306 
L 124.157421 210.534202 
L 125.102588 198.083751 
L 125.598989 194.239729 
L 125.980064 192.771289 
L 126.255843 192.412505 
L 126.448887 192.461445 
L 126.679538 192.79769 
L 127.015486 193.739991 
L 127.504366 195.857946 
L 128.191304 199.92147 
L 129.046217 206.379845 
L 129.853495 214.173256 
L 130.500321 222.606614 
L 131.410389 235.020553 
L 189.925519 235.019689 
L 210.057332 234.906296 
L 211.17298 234.689023 
L 211.817298 234.342308 
L 212.32122 233.81194 
L 212.772494 232.994104 
L 213.208725 231.706812 
L 213.64997 229.654565 
L 214.116286 226.336791 
L 214.645279 220.81635 
L 215.409937 210.095498 
L 216.325019 198.090881 
L 216.82142 194.243762 
L 217.202495 192.773121 
L 217.478274 192.412975 
L 217.671318 192.461089 
L 217.901969 192.796479 
L 218.237917 193.737759 
L 218.72429 195.841882 
L 219.411228 199.900263 
L 220.266141 206.352843 
L 221.073419 214.137824 
L 221.720244 222.557165 
L 222.635327 235.020557 
L 286.317539 235.018778 
L 301.304833 234.903956 
L 302.405439 234.685684 
L 303.04725 234.336995 
L 303.548665 233.805894 
L 303.997432 232.989864 
L 304.433663 231.700033 
L 304.874908 229.644038 
L 305.341224 226.320977 
L 305.870217 220.793887 
L 306.637382 210.030699 
L 307.549957 198.07253 
L 308.046358 194.233701 
L 308.427433 192.768893 
L 308.703212 192.412335 
L 308.896256 192.462617 
L 309.126907 192.800246 
L 309.465362 193.752983 
L 309.954242 195.876668 
L 310.643688 199.962753 
L 311.4986 206.432226 
L 312.305878 214.241907 
L 312.950197 222.663422 
L 313.855251 235.02055 
L 368.582191 235.020044 
L 392.492165 234.907365 
L 393.612828 234.69127 
L 394.257146 234.347201 
L 394.761068 233.820736 
L 395.212341 233.008722 
L 395.648573 231.730183 
L 396.089818 229.690878 
L 396.556134 226.391375 
L 397.082619 220.924509 
L 397.837249 210.377476 
L 398.772388 198.079237 
L 399.268789 194.237377 
L 399.649864 192.770436 
L 399.925642 192.412566 
L 400.118687 192.462056 
L 400.349338 192.798867 
L 400.685286 193.741834 
L 401.174166 195.860511 
L 401.861104 199.924762 
L 402.716017 206.383967 
L 403.523295 214.178616 
L 404.17012 222.614061 
L 405.080189 235.020554 
L 464.954154 235.019511 
L 483.732146 234.905773 
L 484.84278 234.688848 
L 485.487098 234.341927 
L 485.988513 233.814734 
L 486.439787 232.998747 
L 486.876018 231.714233 
L 487.317263 229.666093 
L 487.783579 226.354114 
L 488.312572 220.840969 
L 489.074722 210.162966 
L 489.994819 198.085949 
L 490.49122 194.241057 
L 490.872295 192.771983 
L 491.148073 192.412801 
L 491.341118 192.461497 
L 491.571769 192.797489 
L 491.907717 193.739484 
L 492.396597 195.857102 
L 493.083535 199.92028 
L 493.938448 206.378273 
L 494.745726 214.171153 
L 495.392551 222.603648 
L 496.30262 235.020553 
L 554.273715 235.019751 
L 555.615 235.019589 
L 555.615 235.019589 
" clip-path="url(#p276c5300c7)" style="fill: none; stroke: #1f77b4; stroke-width: 1.5; stroke-linecap: square"/>
   </g>
   <g id="line2d_20">
    <path d="M 54.2 124.893333 
L 56.940233 152.147881 
L 58.446985 164.143865 
L 59.956244 174.418859 
L 61.46801 183.217545 
L 62.982284 190.750134 
L 64.501571 197.207015 
L 66.02838 202.747314 
L 67.56271 207.497357 
L 69.109575 211.578821 
L 70.671483 215.086234 
L 72.255954 218.108582 
L 73.87051 220.717519 
L 75.522673 222.971221 
L 77.227484 224.925262 
L 78.999986 226.621793 
L 80.862743 228.098563 
L 82.843332 229.385256 
L 84.97936 230.506498 
L 87.315954 231.479536 
L 89.918298 232.318925 
L 92.876646 233.034853 
L 96.326381 233.634742 
L 100.478097 234.123213 
L 105.715377 234.505186 
L 112.935753 234.792597 
L 124.129843 235.002162 
L 129.893608 234.85786 
L 130.693365 234.674371 
L 130.92903 234.401049 
L 131.071934 233.830287 
L 131.204809 232.112207 
L 131.74383 218.92862 
L 132.671447 199.994924 
L 133.566473 186.043398 
L 134.421386 176.000342 
L 135.231171 168.950573 
L 135.990815 164.160624 
L 136.692796 161.056491 
L 137.327086 159.180145 
L 137.888671 158.151192 
L 138.37755 157.676545 
L 138.811274 157.544957 
L 139.23497 157.650334 
L 139.711314 158.014015 
L 140.287941 158.757596 
L 141.004965 160.07368 
L 141.915033 162.244436 
L 143.105894 165.704989 
L 144.810705 171.410938 
L 151.870628 195.764857 
L 153.966543 201.840419 
L 155.927075 206.859362 
L 157.814903 211.095005 
L 159.662617 214.70566 
L 161.492782 217.802788 
L 163.322946 220.469826 
L 165.170661 222.774665 
L 167.053474 224.771509 
L 168.991443 226.505215 
L 171.009638 228.013557 
L 173.138145 229.326703 
L 175.414569 230.468628 
L 177.886545 231.457751 
L 180.621764 232.309364 
L 183.71048 233.033609 
L 187.288076 233.638257 
L 191.572668 234.129249 
L 196.950343 234.51157 
L 204.356243 234.798825 
L 215.542812 235.000981 
L 221.176209 234.852235 
L 221.928332 234.667001 
L 222.156475 234.391537 
L 222.299379 233.799677 
L 222.432254 232.024006 
L 223.114178 215.583016 
L 224.036782 197.515558 
L 224.924286 184.263599 
L 225.774185 174.721694 
L 226.576449 168.069466 
L 227.326064 163.585278 
L 228.018017 160.698765 
L 228.642279 158.973221 
L 229.191328 158.048796 
L 229.670179 157.638121 
L 230.096382 157.546676 
L 230.525092 157.686611 
L 231.013971 158.097969 
L 231.608148 158.912187 
L 232.350242 160.335513 
L 233.29541 162.666273 
L 234.541426 166.377528 
L 236.374098 172.611205 
L 242.476318 193.839752 
L 244.632403 200.296177 
L 246.62302 205.57299 
L 248.52589 210.002275 
L 250.381126 213.769811 
L 252.213798 216.997956 
L 254.041455 219.774697 
L 255.881648 222.172119 
L 257.751926 224.248021 
L 259.672346 226.050299 
L 261.66547 227.617473 
L 263.758878 228.981185 
L 265.990175 230.168501 
L 268.401981 231.198159 
L 271.056973 232.086807 
L 274.037886 232.845692 
L 277.465057 233.483045 
L 281.526519 234.004974 
L 286.54819 234.41671 
L 293.214502 234.726609 
L 304.892458 235.006747 
L 311.834548 234.892378 
L 313.055494 234.717789 
L 313.336286 234.475158 
L 313.489218 234.006883 
L 313.617079 232.731263 
L 313.860265 226.929835 
L 314.800418 205.914463 
L 315.707979 190.365784 
L 316.577934 179.08005 
L 317.405269 171.078579 
L 318.182462 165.588014 
L 318.9045 161.965258 
L 319.561353 159.717654 
L 320.148009 158.433048 
L 320.661959 157.793509 
L 321.110726 157.561114 
L 321.529407 157.587744 
L 321.980681 157.850759 
L 322.517195 158.441935 
L 323.179063 159.528237 
L 324.013919 161.358669 
L 325.091961 164.3001 
L 326.568628 169.033207 
L 329.155929 178.209809 
L 332.753582 190.779549 
L 335.024992 197.898515 
L 337.065751 203.583655 
L 338.996199 208.320438 
L 340.866477 212.334304 
L 342.70667 215.767603 
L 344.534327 218.715239 
L 346.366999 221.255896 
L 348.222235 223.453128 
L 350.120091 225.359756 
L 352.080623 227.016383 
L 354.131411 228.458896 
L 356.302537 229.713866 
L 358.636624 230.80467 
L 361.18632 231.748152 
L 364.024328 232.557478 
L 367.253441 233.242205 
L 371.031603 233.809609 
L 375.614536 234.264716 
L 381.49112 234.613513 
L 390.443885 234.895333 
L 398.311086 234.998562 
L 403.71634 234.842271 
L 404.395757 234.652832 
L 404.613873 234.365543 
L 404.754269 233.73449 
L 404.889651 231.787104 
L 406.825113 191.968857 
L 407.700082 180.228612 
L 408.532431 171.885105 
L 409.317145 166.124392 
L 410.046704 162.307686 
L 410.713586 159.91684 
L 411.31027 158.537493 
L 411.831742 157.840536 
L 412.285522 157.572636 
L 412.706711 157.574185 
L 413.150463 157.807924 
L 413.674442 158.354437 
L 414.321267 159.376521 
L 415.133559 161.107791 
L 416.17901 163.899802 
L 417.595507 168.371056 
L 419.932101 176.596457 
L 423.993562 190.835277 
L 426.262465 197.940972 
L 428.303224 203.621213 
L 430.233672 208.353399 
L 432.10395 212.363045 
L 433.941636 215.788173 
L 435.769294 218.732971 
L 437.601966 221.271094 
L 439.457201 223.466069 
L 441.355057 225.370689 
L 443.31559 227.025536 
L 445.366377 228.46647 
L 447.540011 229.721348 
L 449.874098 230.810662 
L 452.4263 231.753655 
L 455.266816 232.562271 
L 458.498436 233.246143 
L 462.279105 233.812625 
L 466.869559 234.267212 
L 472.758678 234.615461 
L 481.769106 234.898126 
L 489.483376 234.99898 
L 494.923728 234.844042 
L 495.613174 234.656757 
L 495.833797 234.373138 
L 495.974193 233.758945 
L 496.107068 231.908988 
L 498.20549 189.608494 
L 499.072938 178.539054 
L 499.897765 170.700097 
L 500.672451 165.330285 
L 501.391982 161.796349 
L 502.046328 159.612878 
L 502.62797 158.377828 
L 503.136906 157.769931 
L 503.583165 157.556166 
L 504.001847 157.596644 
L 504.455628 157.875101 
L 504.997156 158.488318 
L 505.669052 159.612399 
L 506.516443 161.497828 
L 507.612035 164.520478 
L 509.121294 169.395708 
L 511.884091 179.226932 
L 515.2536 190.95709 
L 517.517488 198.035156 
L 519.55574 203.697975 
L 521.486188 208.420756 
L 523.356466 212.421771 
L 525.194152 215.839085 
L 527.02181 218.776858 
L 528.854481 221.308705 
L 530.712224 223.500819 
L 532.61008 225.400049 
L 534.57312 227.052039 
L 536.626414 228.489995 
L 538.802555 229.741833 
L 541.141656 230.829147 
L 543.696365 231.768922 
L 546.541896 232.575078 
L 549.783544 233.25725 
L 553.576748 233.821791 
L 555.615 234.04777 
L 555.615 234.04777 
" clip-path="url(#p276c5300c7)" style="fill: none; stroke: #ff7f0e; stroke-width: 1.5; stroke-linecap: square"/>
   </g>
   <g id="line2d_21">
    <path d="M 54.2 235.026667 
L 78.651502 234.976429 
L 117.64404 234.856735 
L 119.476712 234.657473 
L 120.296525 234.358554 
L 120.855603 233.918527 
L 121.319412 233.259109 
L 121.750629 232.232427 
L 122.171817 230.609106 
L 122.595513 228.01867 
L 123.031744 223.861264 
L 123.493046 217.155324 
L 124.001982 206.22399 
L 124.606187 188.001115 
L 125.498706 153.336984 
L 127.118276 90.758775 
L 127.925555 68.171863 
L 128.577394 55.582115 
L 129.093851 49.384959 
L 129.477434 47.028806 
L 129.72062 46.572279 
L 129.845974 46.665428 
L 130.016455 47.166182 
L 130.262148 48.688777 
L 130.583054 52.245466 
L 130.966637 59.232896 
L 131.814028 80.911955 
L 133.032466 108.130624 
L 134.250905 130.54055 
L 135.469343 148.991288 
L 136.690289 164.21062 
L 137.911234 176.73612 
L 139.13218 187.044598 
L 140.355632 195.544243 
L 141.581592 202.549619 
L 142.812566 208.331751 
L 144.048554 213.10034 
L 145.292063 217.037015 
L 146.548108 220.294644 
L 147.819195 222.989497 
L 149.115352 225.228752 
L 150.446609 227.093933 
L 151.830515 228.655505 
L 153.284618 229.964135 
L 154.839005 231.06488 
L 156.533787 231.991449 
L 158.424122 232.76843 
L 160.590235 233.413366 
L 163.152465 233.937536 
L 166.316394 234.348887 
L 170.470617 234.652318 
L 176.500133 234.851317 
L 187.217878 234.949889 
L 207.392311 234.902414 
L 210.298011 234.730748 
L 211.295827 234.467461 
L 211.91006 234.081198 
L 212.396433 233.504889 
L 212.835171 232.617598 
L 213.256359 231.227734 
L 213.677548 229.012392 
L 214.108765 225.456251 
L 214.560038 219.733225 
L 215.048918 210.464153 
L 215.61301 195.150815 
L 216.360118 168.101448 
L 218.644063 81.425659 
L 219.391172 62.879041 
L 219.995377 52.844529 
L 220.466707 48.232543 
L 220.800148 46.742269 
L 220.988179 46.579476 
L 220.993193 46.582047 
L 221.126068 46.78431 
L 221.324127 47.580662 
L 221.599905 49.744658 
L 221.945881 54.416195 
L 222.354534 63.256754 
L 223.923963 101.238804 
L 225.142402 124.866316 
L 226.36084 144.319527 
L 227.581786 160.365764 
L 228.802731 173.571807 
L 230.023677 184.44037 
L 231.247129 193.401823 
L 232.473089 200.787819 
L 233.701556 206.87287 
L 234.935037 211.893329 
L 236.176039 216.039644 
L 237.427069 219.465989 
L 238.693142 222.302816 
L 239.981779 224.657981 
L 241.303007 226.619025 
L 242.669363 228.255899 
L 244.100903 229.628054 
L 245.625205 230.782538 
L 247.277367 231.754172 
L 249.107532 232.569951 
L 251.188404 233.249575 
L 253.627788 233.806017 
L 256.601179 234.247731 
L 260.429482 234.580217 
L 265.802144 234.807266 
L 274.682204 234.93279 
L 294.475561 234.944842 
L 300.898687 234.802765 
L 302.227437 234.574989 
L 302.931925 234.239012 
L 303.450889 233.742614 
L 303.899656 232.99111 
L 304.325859 231.812253 
L 304.747047 229.939411 
L 305.17325 226.948883 
L 305.617002 222.120961 
L 306.090839 214.31533 
L 306.622339 201.543631 
L 307.2817 179.759152 
L 308.535238 128.90694 
L 309.658407 87.756966 
L 310.445629 66.4846 
L 311.082426 54.705556 
L 311.586348 48.997547 
L 311.954888 46.924413 
L 312.183032 46.571783 
L 312.305878 46.689789 
L 312.483881 47.259801 
L 312.739602 48.954059 
L 313.068029 52.80749 
L 313.456626 60.244262 
L 316.099083 120.084979 
L 317.317521 140.382916 
L 318.538467 157.125935 
L 319.759412 170.90543 
L 320.980358 182.245944 
L 322.20381 191.596534 
L 323.42977 199.303256 
L 324.658237 205.652542 
L 325.891718 210.891007 
L 327.130213 215.209464 
L 328.378736 218.779546 
L 329.642302 221.736633 
L 330.925924 224.188392 
L 332.239632 226.228198 
L 333.595959 227.930362 
L 335.012457 229.355518 
L 336.514195 230.552946 
L 338.136272 231.561434 
L 339.923817 232.408627 
L 341.944519 233.116064 
L 344.296155 233.697793 
L 347.136671 234.163367 
L 350.744352 234.518652 
L 355.695825 234.767772 
L 363.512885 234.914445 
L 380.232568 234.958816 
L 391.674859 234.835687 
L 393.271865 234.625757 
L 394.041537 234.312988 
L 394.583066 233.852658 
L 395.04186 233.156936 
L 395.47057 232.073938 
L 395.891759 230.35661 
L 396.317962 227.602972 
L 396.7567 223.190996 
L 397.223016 216.058919 
L 397.739473 204.448602 
L 398.363735 184.903636 
L 399.349015 145.809217 
L 400.760498 91.642239 
L 401.572791 68.689356 
L 402.227137 55.883851 
L 402.748609 49.513 
L 403.134699 47.073048 
L 403.382899 46.574059 
L 403.508253 46.654385 
L 403.67372 47.116501 
L 403.916906 48.571167 
L 404.235304 52.007836 
L 404.61638 58.795448 
L 405.320868 76.866089 
L 406.539306 104.79954 
L 407.757745 127.797972 
L 408.976183 146.733245 
L 410.197129 162.352252 
L 411.418074 175.206685 
L 412.63902 185.785874 
L 413.862472 194.508728 
L 415.088432 201.698073 
L 416.316899 207.62111 
L 417.55038 212.5079 
L 418.791382 216.543818 
L 420.044919 219.884975 
L 421.313499 222.650098 
L 422.60715 224.948748 
L 423.933393 226.861022 
L 425.309777 228.460927 
L 426.753852 229.801574 
L 428.293196 230.928322 
L 429.967922 231.877348 
L 431.828172 232.673013 
L 433.951664 233.334713 
L 436.453725 233.874764 
L 439.522385 234.300831 
L 443.511141 234.618277 
L 449.202202 234.830836 
L 458.947202 234.942498 
L 479.597979 234.924909 
L 483.689525 234.767822 
L 484.827737 234.522504 
L 485.482084 234.162118 
L 485.983499 233.62665 
L 486.427251 232.807939 
L 486.850947 231.524597 
L 487.272135 229.482368 
L 487.700845 226.212485 
L 488.147105 220.959255 
L 488.628463 212.43586 
L 489.175005 198.447391 
L 489.874479 174.191441 
L 492.559557 74.588516 
L 493.259031 59.080345 
L 493.823122 50.973985 
L 494.251832 47.54455 
L 494.54516 46.61651 
L 494.685556 46.598562 
L 494.698092 46.610789 
L 494.846009 46.930541 
L 495.066632 48.031272 
L 495.364974 50.806222 
L 495.728499 56.484611 
L 496.189801 67.674914 
L 497.413254 97.34201 
L 498.631692 121.657972 
L 499.850131 141.678006 
L 501.071076 158.191794 
L 502.292022 171.78263 
L 503.512967 182.967879 
L 504.73642 192.190448 
L 505.96238 199.791656 
L 507.190846 206.054013 
L 508.424327 211.220757 
L 509.665329 215.487886 
L 510.91636 219.014067 
L 512.179926 221.928335 
L 513.466055 224.348845 
L 514.782269 226.361756 
L 516.141104 228.040706 
L 517.562616 229.447965 
L 519.071875 230.630913 
L 520.703981 231.626985 
L 522.506568 232.463946 
L 524.547327 233.16195 
L 526.926541 233.734793 
L 529.809677 234.192223 
L 533.487556 234.539775 
L 538.571904 234.781475 
L 546.717391 234.921072 
L 555.615 234.95767 
L 555.615 234.95767 
" clip-path="url(#p276c5300c7)" style="fill: none; stroke: #2ca02c; stroke-width: 1.5; stroke-linecap: square"/>
   </g>
   <g id="patch_3">
    <path d="M 54.2 246.04 
L 54.2 14.76 
" style="fill: none; stroke: #000000; stroke-width: 0.8; stroke-linejoin: miter; stroke-linecap: square"/>
   </g>
   <g id="patch_4">
    <path d="M 555.615 246.04 
L 555.615 14.76 
" style="fill: none; stroke: #000000; stroke-width: 0.8; stroke-linejoin: miter; stroke-linecap: square"/>
   </g>
   <g id="patch_5">
    <path d="M 54.2 246.04 
L 555.615 246.04 
" style="fill: none; stroke: #000000; stroke-width: 0.8; stroke-linejoin: miter; stroke-linecap: square"/>
   </g>
   <g id="patch_6">
    <path d="M 54.2 14.76 
L 555.615 14.76 
" style="fill: none; stroke: #000000; stroke-width: 0.8; stroke-linejoin: miter; stroke-linecap: square"/>
   </g>
   <g id="legend_1">
    <g id="patch_7">
     <path d="M 471.393125 66.794375 
L 548.615 66.794375 
Q 550.615 66.794375 550.615 64.794375 
L 550.615 21.76 
Q 550.615 19.76 548.615 19.76 
L 471.393125 19.76 
Q 469.393125 19.76 469.393125 21.76 
L 469.393125 64.794375 
Q 469.393125 66.794375 471.393125 66.794375 
z
" style="fill: #ffffff; opacity: 0.8; stroke: #cccccc; stroke-linejoin: miter"/>
    </g>
    <g id="line2d_22">
     <path d="M 473.393125 27.858437 
L 483.393125 27.858437 
L 493.393125 27.858437 
" style="fill: none; stroke: #1f77b4; stroke-width: 1.5; stroke-linecap: square"/>
    </g>
    <g id="text_21">
     <!-- [HBrO2] -->
     <g transform="translate(501.393125 31.358437) scale(0.1 -0.1)">
      <defs>
       <path id="DejaVuSans-5b" d="M 550 4863 
L 1875 4863 
L 1875 4416 
L 1125 4416 
L 1125 -397 
L 1875 -397 
L 1875 -844 
L 550 -844 
L 550 4863 
z
" transform="scale(0.015625)"/>
       <path id="DejaVuSans-48" d="M 628 4666 
L 1259 4666 
L 1259 2753 
L 3553 2753 
L 3553 4666 
L 4184 4666 
L 4184 0 
L 3553 0 
L 3553 2222 
L 1259 2222 
L 1259 0 
L 628 0 
L 628 4666 
z
" transform="scale(0.015625)"/>
       <path id="DejaVuSans-42" d="M 1259 2228 
L 1259 519 
L 2272 519 
Q 2781 519 3026 730 
Q 3272 941 3272 1375 
Q 3272 1813 3026 2020 
Q 2781 2228 2272 2228 
L 1259 2228 
z
M 1259 4147 
L 1259 2741 
L 2194 2741 
Q 2656 2741 2882 2914 
Q 3109 3088 3109 3444 
Q 3109 3797 2882 3972 
Q 2656 4147 2194 4147 
L 1259 4147 
z
M 628 4666 
L 2241 4666 
Q 2963 4666 3353 4366 
Q 3744 4066 3744 3513 
Q 3744 3084 3544 2831 
Q 3344 2578 2956 2516 
Q 3422 2416 3680 2098 
Q 3938 1781 3938 1306 
Q 3938 681 3513 340 
Q 3088 0 2303 0 
L 628 0 
L 628 4666 
z
" transform="scale(0.015625)"/>
       <path id="DejaVuSans-4f" d="M 2522 4238 
Q 1834 4238 1429 3725 
Q 1025 3213 1025 2328 
Q 1025 1447 1429 934 
Q 1834 422 2522 422 
Q 3209 422 3611 934 
Q 4013 1447 4013 2328 
Q 4013 3213 3611 3725 
Q 3209 4238 2522 4238 
z
M 2522 4750 
Q 3503 4750 4090 4092 
Q 4678 3434 4678 2328 
Q 4678 1225 4090 567 
Q 3503 -91 2522 -91 
Q 1538 -91 948 565 
Q 359 1222 359 2328 
Q 359 3434 948 4092 
Q 1538 4750 2522 4750 
z
" transform="scale(0.015625)"/>
       <path id="DejaVuSans-5d" d="M 1947 4863 
L 1947 -844 
L 622 -844 
L 622 -397 
L 1369 -397 
L 1369 4416 
L 622 4416 
L 622 4863 
L 1947 4863 
z
" transform="scale(0.015625)"/>
      </defs>
      <use xlink:href="#DejaVuSans-5b"/>
      <use xlink:href="#DejaVuSans-48" x="39.013672"/>
      <use xlink:href="#DejaVuSans-42" x="114.208984"/>
      <use xlink:href="#DejaVuSans-72" x="182.8125"/>
      <use xlink:href="#DejaVuSans-4f" x="223.925781"/>
      <use xlink:href="#DejaVuSans-32" x="302.636719"/>
      <use xlink:href="#DejaVuSans-5d" x="366.259766"/>
     </g>
    </g>
    <g id="line2d_23">
     <path d="M 473.393125 42.536562 
L 483.393125 42.536562 
L 493.393125 42.536562 
" style="fill: none; stroke: #ff7f0e; stroke-width: 1.5; stroke-linecap: square"/>
    </g>
    <g id="text_22">
     <!-- [Br-] -->
     <g transform="translate(501.393125 46.036562) scale(0.1 -0.1)">
      <defs>
       <path id="DejaVuSans-2d" d="M 313 2009 
L 1997 2009 
L 1997 1497 
L 313 1497 
L 313 2009 
z
" transform="scale(0.015625)"/>
      </defs>
      <use xlink:href="#DejaVuSans-5b"/>
      <use xlink:href="#DejaVuSans-42" x="39.013672"/>
      <use xlink:href="#DejaVuSans-72" x="107.617188"/>
      <use xlink:href="#DejaVuSans-2d" x="142.355469"/>
      <use xlink:href="#DejaVuSans-5d" x="178.439453"/>
     </g>
    </g>
    <g id="line2d_24">
     <path d="M 473.393125 57.214687 
L 483.393125 57.214687 
L 493.393125 57.214687 
" style="fill: none; stroke: #2ca02c; stroke-width: 1.5; stroke-linecap: square"/>
    </g>
    <g id="text_23">
     <!-- 2 [Ce4+] -->
     <g transform="translate(501.393125 60.714687) scale(0.1 -0.1)">
      <defs>
       <path id="DejaVuSans-43" d="M 4122 4306 
L 4122 3641 
Q 3803 3938 3442 4084 
Q 3081 4231 2675 4231 
Q 1875 4231 1450 3742 
Q 1025 3253 1025 2328 
Q 1025 1406 1450 917 
Q 1875 428 2675 428 
Q 3081 428 3442 575 
Q 3803 722 4122 1019 
L 4122 359 
Q 3791 134 3420 21 
Q 3050 -91 2638 -91 
Q 1578 -91 968 557 
Q 359 1206 359 2328 
Q 359 3453 968 4101 
Q 1578 4750 2638 4750 
Q 3056 4750 3426 4639 
Q 3797 4528 4122 4306 
z
" transform="scale(0.015625)"/>
       <path id="DejaVuSans-34" d="M 2419 4116 
L 825 1625 
L 2419 1625 
L 2419 4116 
z
M 2253 4666 
L 3047 4666 
L 3047 1625 
L 3713 1625 
L 3713 1100 
L 3047 1100 
L 3047 0 
L 2419 0 
L 2419 1100 
L 313 1100 
L 313 1709 
L 2253 4666 
z
" transform="scale(0.015625)"/>
       <path id="DejaVuSans-2b" d="M 2944 4013 
L 2944 2272 
L 4684 2272 
L 4684 1741 
L 2944 1741 
L 2944 0 
L 2419 0 
L 2419 1741 
L 678 1741 
L 678 2272 
L 2419 2272 
L 2419 4013 
L 2944 4013 
z
" transform="scale(0.015625)"/>
      </defs>
      <use xlink:href="#DejaVuSans-32"/>
      <use xlink:href="#DejaVuSans-20" x="63.623047"/>
      <use xlink:href="#DejaVuSans-5b" x="95.410156"/>
      <use xlink:href="#DejaVuSans-43" x="134.423828"/>
      <use xlink:href="#DejaVuSans-65" x="204.248047"/>
      <use xlink:href="#DejaVuSans-34" x="265.771484"/>
      <use xlink:href="#DejaVuSans-2b" x="329.394531"/>
      <use xlink:href="#DejaVuSans-5d" x="413.183594"/>
     </g>
    </g>
   </g>
  </g>
 </g>
 <defs>
  <clipPath id="p276c5300c7">
   <rect x="54.2" y="14.76" width="501.415" height="231.28"/>
  </clipPath>
 </defs>
</svg>
