<?xml version="1.0" encoding="utf-8" standalone="no"?>
<!DOCTYPE svg PUBLIC "-//W3C//DTD SVG 1.1//EN"
  "http://www.w3.org/Graphics/SVG/1.1/DTD/svg11.dtd">
<svg xmlns:xlink="http://www.w3.org/1999/xlink" width="576pt" height="288pt" viewBox="0 0 576 288" xmlns="http://www.w3.org/2000/svg" version="1.1">
 <metadata>
  <rdf:RDF xmlns:dc="http://purl.org/dc/elements/1.1/" xmlns:cc="http://creativecommons.org/ns#" xmlns:rdf="http://www.w3.org/1999/02/22-rdf-syntax-ns#">
   <cc:Work>
    <dc:type rdf:resource="http://purl.org/dc/dcmitype/StillImage"/>
    <dc:date>2024-05-01T22:32:02.017183</dc:date>
    <dc:format>image/svg+xml</dc:format>
    <dc:creator>
     <cc:Agent>
      <dc:title>Matplotlib v3.7.2, https://matplotlib.org/</dc:title>
     </cc:Agent>
    </dc:creator>
   </cc:Work>
  </rdf:RDF>
 </metadata>
 <defs>
  <style type="text/css">*{stroke-linejoin: round; stroke-linecap: butt}</style>
 </defs>
 <g id="figure_1">
  <g id="patch_1">
   <path d="M 0 288 
L 576 288 
L 576 0 
L 0 0 
z
" style="fill: #ffffff"/>
  </g>
  <g id="axes_1">
   <g id="patch_2">
    <path d="M 44.57 246.04 
L 282.6 246.04 
L 282.6 10.8 
L 44.57 10.8 
z
" style="fill: #ffffff"/>
   </g>
   <g id="matplotlib.axis_1">
    <g id="xtick_1">
     <g id="line2d_1">
      <defs>
       <path id="m7a6f56bf7c" d="M 0 0 
L 0 3.5 
" style="stroke: #000000; stroke-width: 0.8"/>
      </defs>
      <g>
       <use xlink:href="#m7a6f56bf7c" x="55.389545" y="246.04" style="stroke: #000000; stroke-width: 0.8"/>
      </g>
     </g>
     <g id="text_1">
      <!-- 0 -->
      <g transform="translate(52.208295 260.638438) scale(0.1 -0.1)">
       <defs>
        <path id="DejaVuSans-30" d="M 2034 4250 
Q 1547 4250 1301 3770 
Q 1056 3291 1056 2328 
Q 1056 1369 1301 889 
Q 1547 409 2034 409 
Q 2525 409 2770 889 
Q 3016 1369 3016 2328 
Q 3016 3291 2770 3770 
Q 2525 4250 2034 4250 
z
M 2034 4750 
Q 2819 4750 3233 4129 
Q 3647 3509 3647 2328 
Q 3647 1150 3233 529 
Q 2819 -91 2034 -91 
Q 1250 -91 836 529 
Q 422 1150 422 2328 
Q 422 3509 836 4129 
Q 1250 4750 2034 4750 
z
" transform="scale(0.015625)"/>
       </defs>
       <use xlink:href="#DejaVuSans-30"/>
      </g>
     </g>
    </g>
    <g id="xtick_2">
     <g id="line2d_2">
      <g>
       <use xlink:href="#m7a6f56bf7c" x="109.487273" y="246.04" style="stroke: #000000; stroke-width: 0.8"/>
      </g>
     </g>
     <g id="text_2">
      <!-- 1 -->
      <g transform="translate(106.306023 260.638438) scale(0.1 -0.1)">
       <defs>
        <path id="DejaVuSans-31" d="M 794 531 
L 1825 531 
L 1825 4091 
L 703 3866 
L 703 4441 
L 1819 4666 
L 2450 4666 
L 2450 531 
L 3481 531 
L 3481 0 
L 794 0 
L 794 531 
z
" transform="scale(0.015625)"/>
       </defs>
       <use xlink:href="#DejaVuSans-31"/>
      </g>
     </g>
    </g>
    <g id="xtick_3">
     <g id="line2d_3">
      <g>
       <use xlink:href="#m7a6f56bf7c" x="163.585" y="246.04" style="stroke: #000000; stroke-width: 0.8"/>
      </g>
     </g>
     <g id="text_3">
      <!-- 2 -->
      <g transform="translate(160.40375 260.638438) scale(0.1 -0.1)">
       <defs>
        <path id="DejaVuSans-32" d="M 1228 531 
L 3431 531 
L 3431 0 
L 469 0 
L 469 531 
Q 828 903 1448 1529 
Q 2069 2156 2228 2338 
Q 2531 2678 2651 2914 
Q 2772 3150 2772 3378 
Q 2772 3750 2511 3984 
Q 2250 4219 1831 4219 
Q 1534 4219 1204 4116 
Q 875 4013 500 3803 
L 500 4441 
Q 881 4594 1212 4672 
Q 1544 4750 1819 4750 
Q 2544 4750 2975 4387 
Q 3406 4025 3406 3419 
Q 3406 3131 3298 2873 
Q 3191 2616 2906 2266 
Q 2828 2175 2409 1742 
Q 1991 1309 1228 531 
z
" transform="scale(0.015625)"/>
       </defs>
       <use xlink:href="#DejaVuSans-32"/>
      </g>
     </g>
    </g>
    <g id="xtick_4">
     <g id="line2d_4">
      <g>
       <use xlink:href="#m7a6f56bf7c" x="217.682727" y="246.04" style="stroke: #000000; stroke-width: 0.8"/>
      </g>
     </g>
     <g id="text_4">
      <!-- 3 -->
      <g transform="translate(214.501477 260.638438) scale(0.1 -0.1)">
       <defs>
        <path id="DejaVuSans-33" d="M 2597 2516 
Q 3050 2419 3304 2112 
Q 3559 1806 3559 1356 
Q 3559 666 3084 287 
Q 2609 -91 1734 -91 
Q 1441 -91 1130 -33 
Q 819 25 488 141 
L 488 750 
Q 750 597 1062 519 
Q 1375 441 1716 441 
Q 2309 441 2620 675 
Q 2931 909 2931 1356 
Q 2931 1769 2642 2001 
Q 2353 2234 1838 2234 
L 1294 2234 
L 1294 2753 
L 1863 2753 
Q 2328 2753 2575 2939 
Q 2822 3125 2822 3475 
Q 2822 3834 2567 4026 
Q 2313 4219 1838 4219 
Q 1578 4219 1281 4162 
Q 984 4106 628 3988 
L 628 4550 
Q 988 4650 1302 4700 
Q 1616 4750 1894 4750 
Q 2613 4750 3031 4423 
Q 3450 4097 3450 3541 
Q 3450 3153 3228 2886 
Q 3006 2619 2597 2516 
z
" transform="scale(0.015625)"/>
       </defs>
       <use xlink:href="#DejaVuSans-33"/>
      </g>
     </g>
    </g>
    <g id="xtick_5">
     <g id="line2d_5">
      <g>
       <use xlink:href="#m7a6f56bf7c" x="271.780455" y="246.04" style="stroke: #000000; stroke-width: 0.8"/>
      </g>
     </g>
     <g id="text_5">
      <!-- 4 -->
      <g transform="translate(268.599205 260.638438) scale(0.1 -0.1)">
       <defs>
        <path id="DejaVuSans-34" d="M 2419 4116 
L 825 1625 
L 2419 1625 
L 2419 4116 
z
M 2253 4666 
L 3047 4666 
L 3047 1625 
L 3713 1625 
L 3713 1100 
L 3047 1100 
L 3047 0 
L 2419 0 
L 2419 1100 
L 313 1100 
L 313 1709 
L 2253 4666 
z
" transform="scale(0.015625)"/>
       </defs>
       <use xlink:href="#DejaVuSans-34"/>
      </g>
     </g>
    </g>
    <g id="text_6">
     <!-- state -->
     <g transform="translate(150.919375 274.316562) scale(0.1 -0.1)">
      <defs>
       <path id="DejaVuSans-73" d="M 2834 3397 
L 2834 2853 
Q 2591 2978 2328 3040 
Q 2066 3103 1784 3103 
Q 1356 3103 1142 2972 
Q 928 2841 928 2578 
Q 928 2378 1081 2264 
Q 1234 2150 1697 2047 
L 1894 2003 
Q 2506 1872 2764 1633 
Q 3022 1394 3022 966 
Q 3022 478 2636 193 
Q 2250 -91 1575 -91 
Q 1294 -91 989 -36 
Q 684 19 347 128 
L 347 722 
Q 666 556 975 473 
Q 1284 391 1588 391 
Q 1994 391 2212 530 
Q 2431 669 2431 922 
Q 2431 1156 2273 1281 
Q 2116 1406 1581 1522 
L 1381 1569 
Q 847 1681 609 1914 
Q 372 2147 372 2553 
Q 372 3047 722 3315 
Q 1072 3584 1716 3584 
Q 2034 3584 2315 3537 
Q 2597 3491 2834 3397 
z
" transform="scale(0.015625)"/>
       <path id="DejaVuSans-74" d="M 1172 4494 
L 1172 3500 
L 2356 3500 
L 2356 3053 
L 1172 3053 
L 1172 1153 
Q 1172 725 1289 603 
Q 1406 481 1766 481 
L 2356 481 
L 2356 0 
L 1766 0 
Q 1100 0 847 248 
Q 594 497 594 1153 
L 594 3053 
L 172 3053 
L 172 3500 
L 594 3500 
L 594 4494 
L 1172 4494 
z
" transform="scale(0.015625)"/>
       <path id="DejaVuSans-61" d="M 2194 1759 
Q 1497 1759 1228 1600 
Q 959 1441 959 1056 
Q 959 750 1161 570 
Q 1363 391 1709 391 
Q 2188 391 2477 730 
Q 2766 1069 2766 1631 
L 2766 1759 
L 2194 1759 
z
M 3341 1997 
L 3341 0 
L 2766 0 
L 2766 531 
Q 2569 213 2275 61 
Q 1981 -91 1556 -91 
Q 1019 -91 701 211 
Q 384 513 384 1019 
Q 384 1609 779 1909 
Q 1175 2209 1959 2209 
L 2766 2209 
L 2766 2266 
Q 2766 2663 2505 2880 
Q 2244 3097 1772 3097 
Q 1472 3097 1187 3025 
Q 903 2953 641 2809 
L 641 3341 
Q 956 3463 1253 3523 
Q 1550 3584 1831 3584 
Q 2591 3584 2966 3190 
Q 3341 2797 3341 1997 
z
" transform="scale(0.015625)"/>
       <path id="DejaVuSans-65" d="M 3597 1894 
L 3597 1613 
L 953 1613 
Q 991 1019 1311 708 
Q 1631 397 2203 397 
Q 2534 397 2845 478 
Q 3156 559 3463 722 
L 3463 178 
Q 3153 47 2828 -22 
Q 2503 -91 2169 -91 
Q 1331 -91 842 396 
Q 353 884 353 1716 
Q 353 2575 817 3079 
Q 1281 3584 2069 3584 
Q 2775 3584 3186 3129 
Q 3597 2675 3597 1894 
z
M 3022 2063 
Q 3016 2534 2758 2815 
Q 2500 3097 2075 3097 
Q 1594 3097 1305 2825 
Q 1016 2553 972 2059 
L 3022 2063 
z
" transform="scale(0.015625)"/>
      </defs>
      <use xlink:href="#DejaVuSans-73"/>
      <use xlink:href="#DejaVuSans-74" x="52.099609"/>
      <use xlink:href="#DejaVuSans-61" x="91.308594"/>
      <use xlink:href="#DejaVuSans-74" x="152.587891"/>
      <use xlink:href="#DejaVuSans-65" x="191.796875"/>
     </g>
    </g>
   </g>
   <g id="matplotlib.axis_2">
    <g id="ytick_1">
     <g id="line2d_6">
      <defs>
       <path id="ma951453ec4" d="M 0 0 
L -3.5 0 
" style="stroke: #000000; stroke-width: 0.8"/>
      </defs>
      <g>
       <use xlink:href="#ma951453ec4" x="44.57" y="223.043014" style="stroke: #000000; stroke-width: 0.8"/>
      </g>
     </g>
     <g id="text_7">
      <!-- 12 -->
      <g transform="translate(24.845 226.842233) scale(0.1 -0.1)">
       <use xlink:href="#DejaVuSans-31"/>
       <use xlink:href="#DejaVuSans-32" x="63.623047"/>
      </g>
     </g>
    </g>
    <g id="ytick_2">
     <g id="line2d_7">
      <g>
       <use xlink:href="#ma951453ec4" x="44.57" y="191.932373" style="stroke: #000000; stroke-width: 0.8"/>
      </g>
     </g>
     <g id="text_8">
      <!-- 14 -->
      <g transform="translate(24.845 195.731592) scale(0.1 -0.1)">
       <use xlink:href="#DejaVuSans-31"/>
       <use xlink:href="#DejaVuSans-34" x="63.623047"/>
      </g>
     </g>
    </g>
    <g id="ytick_3">
     <g id="line2d_8">
      <g>
       <use xlink:href="#ma951453ec4" x="44.57" y="160.821732" style="stroke: #000000; stroke-width: 0.8"/>
      </g>
     </g>
     <g id="text_9">
      <!-- 16 -->
      <g transform="translate(24.845 164.620951) scale(0.1 -0.1)">
       <defs>
        <path id="DejaVuSans-36" d="M 2113 2584 
Q 1688 2584 1439 2293 
Q 1191 2003 1191 1497 
Q 1191 994 1439 701 
Q 1688 409 2113 409 
Q 2538 409 2786 701 
Q 3034 994 3034 1497 
Q 3034 2003 2786 2293 
Q 2538 2584 2113 2584 
z
M 3366 4563 
L 3366 3988 
Q 3128 4100 2886 4159 
Q 2644 4219 2406 4219 
Q 1781 4219 1451 3797 
Q 1122 3375 1075 2522 
Q 1259 2794 1537 2939 
Q 1816 3084 2150 3084 
Q 2853 3084 3261 2657 
Q 3669 2231 3669 1497 
Q 3669 778 3244 343 
Q 2819 -91 2113 -91 
Q 1303 -91 875 529 
Q 447 1150 447 2328 
Q 447 3434 972 4092 
Q 1497 4750 2381 4750 
Q 2619 4750 2861 4703 
Q 3103 4656 3366 4563 
z
" transform="scale(0.015625)"/>
       </defs>
       <use xlink:href="#DejaVuSans-31"/>
       <use xlink:href="#DejaVuSans-36" x="63.623047"/>
      </g>
     </g>
    </g>
    <g id="ytick_4">
     <g id="line2d_9">
      <g>
       <use xlink:href="#ma951453ec4" x="44.57" y="129.711092" style="stroke: #000000; stroke-width: 0.8"/>
      </g>
     </g>
     <g id="text_10">
      <!-- 18 -->
      <g transform="translate(24.845 133.51031) scale(0.1 -0.1)">
       <defs>
        <path id="DejaVuSans-38" d="M 2034 2216 
Q 1584 2216 1326 1975 
Q 1069 1734 1069 1313 
Q 1069 891 1326 650 
Q 1584 409 2034 409 
Q 2484 409 2743 651 
Q 3003 894 3003 1313 
Q 3003 1734 2745 1975 
Q 2488 2216 2034 2216 
z
M 1403 2484 
Q 997 2584 770 2862 
Q 544 3141 544 3541 
Q 544 4100 942 4425 
Q 1341 4750 2034 4750 
Q 2731 4750 3128 4425 
Q 3525 4100 3525 3541 
Q 3525 3141 3298 2862 
Q 3072 2584 2669 2484 
Q 3125 2378 3379 2068 
Q 3634 1759 3634 1313 
Q 3634 634 3220 271 
Q 2806 -91 2034 -91 
Q 1263 -91 848 271 
Q 434 634 434 1313 
Q 434 1759 690 2068 
Q 947 2378 1403 2484 
z
M 1172 3481 
Q 1172 3119 1398 2916 
Q 1625 2713 2034 2713 
Q 2441 2713 2670 2916 
Q 2900 3119 2900 3481 
Q 2900 3844 2670 4047 
Q 2441 4250 2034 4250 
Q 1625 4250 1398 4047 
Q 1172 3844 1172 3481 
z
" transform="scale(0.015625)"/>
       </defs>
       <use xlink:href="#DejaVuSans-31"/>
       <use xlink:href="#DejaVuSans-38" x="63.623047"/>
      </g>
     </g>
    </g>
    <g id="ytick_5">
     <g id="line2d_10">
      <g>
       <use xlink:href="#ma951453ec4" x="44.57" y="98.600451" style="stroke: #000000; stroke-width: 0.8"/>
      </g>
     </g>
     <g id="text_11">
      <!-- 20 -->
      <g transform="translate(24.845 102.399669) scale(0.1 -0.1)">
       <use xlink:href="#DejaVuSans-32"/>
       <use xlink:href="#DejaVuSans-30" x="63.623047"/>
      </g>
     </g>
    </g>
    <g id="ytick_6">
     <g id="line2d_11">
      <g>
       <use xlink:href="#ma951453ec4" x="44.57" y="67.48981" style="stroke: #000000; stroke-width: 0.8"/>
      </g>
     </g>
     <g id="text_12">
      <!-- 22 -->
      <g transform="translate(24.845 71.289029) scale(0.1 -0.1)">
       <use xlink:href="#DejaVuSans-32"/>
       <use xlink:href="#DejaVuSans-32" x="63.623047"/>
      </g>
     </g>
    </g>
    <g id="ytick_7">
     <g id="line2d_12">
      <g>
       <use xlink:href="#ma951453ec4" x="44.57" y="36.379169" style="stroke: #000000; stroke-width: 0.8"/>
      </g>
     </g>
     <g id="text_13">
      <!-- 24 -->
      <g transform="translate(24.845 40.178388) scale(0.1 -0.1)">
       <use xlink:href="#DejaVuSans-32"/>
       <use xlink:href="#DejaVuSans-34" x="63.623047"/>
      </g>
     </g>
    </g>
    <g id="text_14">
     <!-- energy -->
     <g transform="translate(18.765313 145.843438) rotate(-90) scale(0.1 -0.1)">
      <defs>
       <path id="DejaVuSans-6e" d="M 3513 2113 
L 3513 0 
L 2938 0 
L 2938 2094 
Q 2938 2591 2744 2837 
Q 2550 3084 2163 3084 
Q 1697 3084 1428 2787 
Q 1159 2491 1159 1978 
L 1159 0 
L 581 0 
L 581 3500 
L 1159 3500 
L 1159 2956 
Q 1366 3272 1645 3428 
Q 1925 3584 2291 3584 
Q 2894 3584 3203 3211 
Q 3513 2838 3513 2113 
z
" transform="scale(0.015625)"/>
       <path id="DejaVuSans-72" d="M 2631 2963 
Q 2534 3019 2420 3045 
Q 2306 3072 2169 3072 
Q 1681 3072 1420 2755 
Q 1159 2438 1159 1844 
L 1159 0 
L 581 0 
L 581 3500 
L 1159 3500 
L 1159 2956 
Q 1341 3275 1631 3429 
Q 1922 3584 2338 3584 
Q 2397 3584 2469 3576 
Q 2541 3569 2628 3553 
L 2631 2963 
z
" transform="scale(0.015625)"/>
       <path id="DejaVuSans-67" d="M 2906 1791 
Q 2906 2416 2648 2759 
Q 2391 3103 1925 3103 
Q 1463 3103 1205 2759 
Q 947 2416 947 1791 
Q 947 1169 1205 825 
Q 1463 481 1925 481 
Q 2391 481 2648 825 
Q 2906 1169 2906 1791 
z
M 3481 434 
Q 3481 -459 3084 -895 
Q 2688 -1331 1869 -1331 
Q 1566 -1331 1297 -1286 
Q 1028 -1241 775 -1147 
L 775 -588 
Q 1028 -725 1275 -790 
Q 1522 -856 1778 -856 
Q 2344 -856 2625 -561 
Q 2906 -266 2906 331 
L 2906 616 
Q 2728 306 2450 153 
Q 2172 0 1784 0 
Q 1141 0 747 490 
Q 353 981 353 1791 
Q 353 2603 747 3093 
Q 1141 3584 1784 3584 
Q 2172 3584 2450 3431 
Q 2728 3278 2906 2969 
L 2906 3500 
L 3481 3500 
L 3481 434 
z
" transform="scale(0.015625)"/>
       <path id="DejaVuSans-79" d="M 2059 -325 
Q 1816 -950 1584 -1140 
Q 1353 -1331 966 -1331 
L 506 -1331 
L 506 -850 
L 844 -850 
Q 1081 -850 1212 -737 
Q 1344 -625 1503 -206 
L 1606 56 
L 191 3500 
L 800 3500 
L 1894 763 
L 2988 3500 
L 3597 3500 
L 2059 -325 
z
" transform="scale(0.015625)"/>
      </defs>
      <use xlink:href="#DejaVuSans-65"/>
      <use xlink:href="#DejaVuSans-6e" x="61.523438"/>
      <use xlink:href="#DejaVuSans-65" x="124.902344"/>
      <use xlink:href="#DejaVuSans-72" x="186.425781"/>
      <use xlink:href="#DejaVuSans-67" x="225.789062"/>
      <use xlink:href="#DejaVuSans-79" x="289.265625"/>
     </g>
    </g>
   </g>
   <g id="line2d_13">
    <defs>
     <path id="mf09fa2a8ce" d="M 0 3 
C 0.795609 3 1.55874 2.683901 2.12132 2.12132 
C 2.683901 1.55874 3 0.795609 3 0 
C 3 -0.795609 2.683901 -1.55874 2.12132 -2.12132 
C 1.55874 -2.683901 0.795609 -3 0 -3 
C -0.795609 -3 -1.55874 -2.683901 -2.12132 -2.12132 
C -2.683901 -1.55874 -3 -0.795609 -3 0 
C -3 0.795609 -2.683901 1.55874 -2.12132 2.12132 
C -1.55874 2.683901 -0.795609 3 0 3 
z
" style="stroke: #1f77b4"/>
    </defs>
    <g clip-path="url(#p140a679af0)">
     <use xlink:href="#mf09fa2a8ce" x="55.389545" y="235.347273" style="fill: #1f77b4; stroke: #1f77b4"/>
     <use xlink:href="#mf09fa2a8ce" x="109.487273" y="195.914535" style="fill: #1f77b4; stroke: #1f77b4"/>
     <use xlink:href="#mf09fa2a8ce" x="163.585" y="154.272943" style="fill: #1f77b4; stroke: #1f77b4"/>
     <use xlink:href="#mf09fa2a8ce" x="217.682727" y="90.045024" style="fill: #1f77b4; stroke: #1f77b4"/>
     <use xlink:href="#mf09fa2a8ce" x="271.780455" y="21.492727" style="fill: #1f77b4; stroke: #1f77b4"/>
    </g>
   </g>
   <g id="patch_3">
    <path d="M 44.57 246.04 
L 44.57 10.8 
" style="fill: none; stroke: #000000; stroke-width: 0.8; stroke-linejoin: miter; stroke-linecap: square"/>
   </g>
   <g id="patch_4">
    <path d="M 282.6 246.04 
L 282.6 10.8 
" style="fill: none; stroke: #000000; stroke-width: 0.8; stroke-linejoin: miter; stroke-linecap: square"/>
   </g>
   <g id="patch_5">
    <path d="M 44.57 246.04 
L 282.6 246.04 
" style="fill: none; stroke: #000000; stroke-width: 0.8; stroke-linejoin: miter; stroke-linecap: square"/>
   </g>
   <g id="patch_6">
    <path d="M 44.57 10.8 
L 282.6 10.8 
" style="fill: none; stroke: #000000; stroke-width: 0.8; stroke-linejoin: miter; stroke-linecap: square"/>
   </g>
   <g id="legend_1">
    <g id="patch_7">
     <path d="M 51.57 33.478125 
L 207.449687 33.478125 
Q 209.449687 33.478125 209.449687 31.478125 
L 209.449687 17.8 
Q 209.449687 15.8 207.449687 15.8 
L 51.57 15.8 
Q 49.57 15.8 49.57 17.8 
L 49.57 31.478125 
Q 49.57 33.478125 51.57 33.478125 
z
" style="fill: #ffffff; opacity: 0.8; stroke: #cccccc; stroke-linejoin: miter"/>
    </g>
    <g id="line2d_14">
     <g>
      <use xlink:href="#mf09fa2a8ce" x="63.57" y="23.898438" style="fill: #1f77b4; stroke: #1f77b4"/>
     </g>
    </g>
    <g id="text_15">
     <!-- numerical eigenenergies -->
     <g transform="translate(81.57 27.398438) scale(0.1 -0.1)">
      <defs>
       <path id="DejaVuSans-75" d="M 544 1381 
L 544 3500 
L 1119 3500 
L 1119 1403 
Q 1119 906 1312 657 
Q 1506 409 1894 409 
Q 2359 409 2629 706 
Q 2900 1003 2900 1516 
L 2900 3500 
L 3475 3500 
L 3475 0 
L 2900 0 
L 2900 538 
Q 2691 219 2414 64 
Q 2138 -91 1772 -91 
Q 1169 -91 856 284 
Q 544 659 544 1381 
z
M 1991 3584 
L 1991 3584 
z
" transform="scale(0.015625)"/>
       <path id="DejaVuSans-6d" d="M 3328 2828 
Q 3544 3216 3844 3400 
Q 4144 3584 4550 3584 
Q 5097 3584 5394 3201 
Q 5691 2819 5691 2113 
L 5691 0 
L 5113 0 
L 5113 2094 
Q 5113 2597 4934 2840 
Q 4756 3084 4391 3084 
Q 3944 3084 3684 2787 
Q 3425 2491 3425 1978 
L 3425 0 
L 2847 0 
L 2847 2094 
Q 2847 2600 2669 2842 
Q 2491 3084 2119 3084 
Q 1678 3084 1418 2786 
Q 1159 2488 1159 1978 
L 1159 0 
L 581 0 
L 581 3500 
L 1159 3500 
L 1159 2956 
Q 1356 3278 1631 3431 
Q 1906 3584 2284 3584 
Q 2666 3584 2933 3390 
Q 3200 3197 3328 2828 
z
" transform="scale(0.015625)"/>
       <path id="DejaVuSans-69" d="M 603 3500 
L 1178 3500 
L 1178 0 
L 603 0 
L 603 3500 
z
M 603 4863 
L 1178 4863 
L 1178 4134 
L 603 4134 
L 603 4863 
z
" transform="scale(0.015625)"/>
       <path id="DejaVuSans-63" d="M 3122 3366 
L 3122 2828 
Q 2878 2963 2633 3030 
Q 2388 3097 2138 3097 
Q 1578 3097 1268 2742 
Q 959 2388 959 1747 
Q 959 1106 1268 751 
Q 1578 397 2138 397 
Q 2388 397 2633 464 
Q 2878 531 3122 666 
L 3122 134 
Q 2881 22 2623 -34 
Q 2366 -91 2075 -91 
Q 1284 -91 818 406 
Q 353 903 353 1747 
Q 353 2603 823 3093 
Q 1294 3584 2113 3584 
Q 2378 3584 2631 3529 
Q 2884 3475 3122 3366 
z
" transform="scale(0.015625)"/>
       <path id="DejaVuSans-6c" d="M 603 4863 
L 1178 4863 
L 1178 0 
L 603 0 
L 603 4863 
z
" transform="scale(0.015625)"/>
       <path id="DejaVuSans-20" transform="scale(0.015625)"/>
      </defs>
      <use xlink:href="#DejaVuSans-6e"/>
      <use xlink:href="#DejaVuSans-75" x="63.378906"/>
      <use xlink:href="#DejaVuSans-6d" x="126.757812"/>
      <use xlink:href="#DejaVuSans-65" x="224.169922"/>
      <use xlink:href="#DejaVuSans-72" x="285.693359"/>
      <use xlink:href="#DejaVuSans-69" x="326.806641"/>
      <use xlink:href="#DejaVuSans-63" x="354.589844"/>
      <use xlink:href="#DejaVuSans-61" x="409.570312"/>
      <use xlink:href="#DejaVuSans-6c" x="470.849609"/>
      <use xlink:href="#DejaVuSans-20" x="498.632812"/>
      <use xlink:href="#DejaVuSans-65" x="530.419922"/>
      <use xlink:href="#DejaVuSans-69" x="591.943359"/>
      <use xlink:href="#DejaVuSans-67" x="619.726562"/>
      <use xlink:href="#DejaVuSans-65" x="683.203125"/>
      <use xlink:href="#DejaVuSans-6e" x="744.726562"/>
      <use xlink:href="#DejaVuSans-65" x="808.105469"/>
      <use xlink:href="#DejaVuSans-6e" x="869.628906"/>
      <use xlink:href="#DejaVuSans-65" x="933.007812"/>
      <use xlink:href="#DejaVuSans-72" x="994.53125"/>
      <use xlink:href="#DejaVuSans-67" x="1033.894531"/>
      <use xlink:href="#DejaVuSans-69" x="1097.371094"/>
      <use xlink:href="#DejaVuSans-65" x="1125.154297"/>
      <use xlink:href="#DejaVuSans-73" x="1186.677734"/>
     </g>
    </g>
   </g>
  </g>
  <g id="axes_2">
   <g id="patch_8">
    <path d="M 327.17 246.04 
L 565.2 246.04 
L 565.2 10.8 
L 327.17 10.8 
z
" style="fill: #ffffff"/>
   </g>
   <g id="matplotlib.axis_3">
    <g id="xtick_6">
     <g id="line2d_15">
      <g>
       <use xlink:href="#m7a6f56bf7c" x="337.989545" y="246.04" style="stroke: #000000; stroke-width: 0.8"/>
      </g>
     </g>
     <g id="text_16">
      <!-- 0 -->
      <g transform="translate(334.808295 260.638438) scale(0.1 -0.1)">
       <use xlink:href="#DejaVuSans-30"/>
      </g>
     </g>
    </g>
    <g id="xtick_7">
     <g id="line2d_16">
      <g>
       <use xlink:href="#m7a6f56bf7c" x="392.087273" y="246.04" style="stroke: #000000; stroke-width: 0.8"/>
      </g>
     </g>
     <g id="text_17">
      <!-- 1 -->
      <g transform="translate(388.906023 260.638438) scale(0.1 -0.1)">
       <use xlink:href="#DejaVuSans-31"/>
      </g>
     </g>
    </g>
    <g id="xtick_8">
     <g id="line2d_17">
      <g>
       <use xlink:href="#m7a6f56bf7c" x="446.185" y="246.04" style="stroke: #000000; stroke-width: 0.8"/>
      </g>
     </g>
     <g id="text_18">
      <!-- 2 -->
      <g transform="translate(443.00375 260.638438) scale(0.1 -0.1)">
       <use xlink:href="#DejaVuSans-32"/>
      </g>
     </g>
    </g>
    <g id="xtick_9">
     <g id="line2d_18">
      <g>
       <use xlink:href="#m7a6f56bf7c" x="500.282727" y="246.04" style="stroke: #000000; stroke-width: 0.8"/>
      </g>
     </g>
     <g id="text_19">
      <!-- 3 -->
      <g transform="translate(497.101477 260.638438) scale(0.1 -0.1)">
       <use xlink:href="#DejaVuSans-33"/>
      </g>
     </g>
    </g>
    <g id="xtick_10">
     <g id="line2d_19">
      <g>
       <use xlink:href="#m7a6f56bf7c" x="554.380455" y="246.04" style="stroke: #000000; stroke-width: 0.8"/>
      </g>
     </g>
     <g id="text_20">
      <!-- 4 -->
      <g transform="translate(551.199205 260.638438) scale(0.1 -0.1)">
       <use xlink:href="#DejaVuSans-34"/>
      </g>
     </g>
    </g>
    <g id="text_21">
     <!-- x -->
     <g transform="translate(443.225625 274.316562) scale(0.1 -0.1)">
      <defs>
       <path id="DejaVuSans-78" d="M 3513 3500 
L 2247 1797 
L 3578 0 
L 2900 0 
L 1881 1375 
L 863 0 
L 184 0 
L 1544 1831 
L 300 3500 
L 978 3500 
L 1906 2253 
L 2834 3500 
L 3513 3500 
z
" transform="scale(0.015625)"/>
      </defs>
      <use xlink:href="#DejaVuSans-78"/>
     </g>
    </g>
   </g>
   <g id="matplotlib.axis_4">
    <g id="ytick_8">
     <g id="line2d_20">
      <g>
       <use xlink:href="#ma951453ec4" x="327.17" y="235.347273" style="stroke: #000000; stroke-width: 0.8"/>
      </g>
     </g>
     <g id="text_22">
      <!-- 0 -->
      <g transform="translate(313.8075 239.146491) scale(0.1 -0.1)">
       <use xlink:href="#DejaVuSans-30"/>
      </g>
     </g>
    </g>
    <g id="ytick_9">
     <g id="line2d_21">
      <g>
       <use xlink:href="#ma951453ec4" x="327.17" y="193.682254" style="stroke: #000000; stroke-width: 0.8"/>
      </g>
     </g>
     <g id="text_23">
      <!-- 5 -->
      <g transform="translate(313.8075 197.481473) scale(0.1 -0.1)">
       <defs>
        <path id="DejaVuSans-35" d="M 691 4666 
L 3169 4666 
L 3169 4134 
L 1269 4134 
L 1269 2991 
Q 1406 3038 1543 3061 
Q 1681 3084 1819 3084 
Q 2600 3084 3056 2656 
Q 3513 2228 3513 1497 
Q 3513 744 3044 326 
Q 2575 -91 1722 -91 
Q 1428 -91 1123 -41 
Q 819 9 494 109 
L 494 744 
Q 775 591 1075 516 
Q 1375 441 1709 441 
Q 2250 441 2565 725 
Q 2881 1009 2881 1497 
Q 2881 1984 2565 2268 
Q 2250 2553 1709 2553 
Q 1456 2553 1204 2497 
Q 953 2441 691 2322 
L 691 4666 
z
" transform="scale(0.015625)"/>
       </defs>
       <use xlink:href="#DejaVuSans-35"/>
      </g>
     </g>
    </g>
    <g id="ytick_10">
     <g id="line2d_22">
      <g>
       <use xlink:href="#ma951453ec4" x="327.17" y="152.017236" style="stroke: #000000; stroke-width: 0.8"/>
      </g>
     </g>
     <g id="text_24">
      <!-- 10 -->
      <g transform="translate(307.445 155.816454) scale(0.1 -0.1)">
       <use xlink:href="#DejaVuSans-31"/>
       <use xlink:href="#DejaVuSans-30" x="63.623047"/>
      </g>
     </g>
    </g>
    <g id="ytick_11">
     <g id="line2d_23">
      <g>
       <use xlink:href="#ma951453ec4" x="327.17" y="110.352217" style="stroke: #000000; stroke-width: 0.8"/>
      </g>
     </g>
     <g id="text_25">
      <!-- 15 -->
      <g transform="translate(307.445 114.151436) scale(0.1 -0.1)">
       <use xlink:href="#DejaVuSans-31"/>
       <use xlink:href="#DejaVuSans-35" x="63.623047"/>
      </g>
     </g>
    </g>
    <g id="ytick_12">
     <g id="line2d_24">
      <g>
       <use xlink:href="#ma951453ec4" x="327.17" y="68.687198" style="stroke: #000000; stroke-width: 0.8"/>
      </g>
     </g>
     <g id="text_26">
      <!-- 20 -->
      <g transform="translate(307.445 72.486417) scale(0.1 -0.1)">
       <use xlink:href="#DejaVuSans-32"/>
       <use xlink:href="#DejaVuSans-30" x="63.623047"/>
      </g>
     </g>
    </g>
    <g id="ytick_13">
     <g id="line2d_25">
      <g>
       <use xlink:href="#ma951453ec4" x="327.17" y="27.02218" style="stroke: #000000; stroke-width: 0.8"/>
      </g>
     </g>
     <g id="text_27">
      <!-- 25 -->
      <g transform="translate(307.445 30.821399) scale(0.1 -0.1)">
       <use xlink:href="#DejaVuSans-32"/>
       <use xlink:href="#DejaVuSans-35" x="63.623047"/>
      </g>
     </g>
    </g>
    <g id="text_28">
     <!-- energy -->
     <g transform="translate(301.365312 145.843438) rotate(-90) scale(0.1 -0.1)">
      <use xlink:href="#DejaVuSans-65"/>
      <use xlink:href="#DejaVuSans-6e" x="61.523438"/>
      <use xlink:href="#DejaVuSans-65" x="124.902344"/>
      <use xlink:href="#DejaVuSans-72" x="186.425781"/>
      <use xlink:href="#DejaVuSans-67" x="225.789062"/>
      <use xlink:href="#DejaVuSans-79" x="289.265625"/>
     </g>
    </g>
   </g>
   <g id="line2d_26">
    <path d="M 337.989545 141.942634 
L 345.354201 140.382429 
L 349.469744 139.750672 
L 352.935464 139.435271 
L 356.401184 139.348023 
L 359.866905 139.497428 
L 363.332625 139.871749 
L 367.23156 140.516103 
L 372.646748 141.663363 
L 381.311049 143.516351 
L 385.426592 144.14312 
L 388.892312 144.454343 
L 392.358032 144.537081 
L 395.607145 144.39814 
L 399.072865 144.032364 
L 402.9718 143.396504 
L 408.170381 142.302756 
L 417.267897 140.356066 
L 421.383439 139.733466 
L 424.84916 139.426117 
L 428.098272 139.347078 
L 431.563993 139.493516 
L 435.029713 139.862587 
L 438.928648 140.502339 
L 444.127229 141.599001 
L 462.105652 145.537532 
L 470.336738 147.082462 
L 477.268179 148.165472 
L 483.766404 148.956936 
L 489.831415 149.474937 
L 495.679818 149.758111 
L 501.52822 149.821861 
L 507.376623 149.664865 
L 513.225026 149.289894 
L 519.290037 148.680888 
L 525.788262 147.800359 
L 532.93631 146.597816 
L 541.167396 144.976606 
L 552.214379 142.55288 
L 554.380455 142.062594 
L 554.380455 142.062594 
" clip-path="url(#p391d00c1f5)" style="fill: none; stroke: #1f77b4; stroke-width: 1.5; stroke-linecap: square"/>
   </g>
   <g id="line2d_27">
    <path d="M 337.989545 120.81847 
L 343.404733 118.275539 
L 346.437239 117.111352 
L 349.036529 116.36383 
L 351.419211 115.925742 
L 353.585287 115.752291 
L 355.751362 115.799831 
L 357.917437 116.067854 
L 360.30012 116.604715 
L 362.89941 117.445694 
L 365.931915 118.689177 
L 370.264065 120.751971 
L 375.679253 123.305541 
L 378.711759 124.481295 
L 381.311049 125.24107 
L 383.693731 125.693235 
L 385.859807 125.881406 
L 388.025882 125.847367 
L 390.191957 125.591003 
L 392.57464 125.066144 
L 395.17393 124.239015 
L 397.989828 123.102348 
L 401.888763 121.268213 
L 408.170381 118.294622 
L 411.202886 117.12743 
L 413.802176 116.375724 
L 416.184859 115.931219 
L 418.350934 115.751719 
L 420.517009 115.796125 
L 422.683084 116.062245 
L 425.065767 116.594528 
L 427.665057 117.428492 
L 430.480955 118.572097 
L 434.596498 120.517346 
L 440.661508 123.377767 
L 443.694014 124.537965 
L 446.076696 125.225133 
L 449.759024 126.003402 
L 453.874567 126.661097 
L 457.773502 127.052972 
L 461.45583 127.200707 
L 465.138158 127.12631 
L 468.820485 126.832878 
L 472.719421 126.296745 
L 476.834964 125.501947 
L 481.383721 124.38955 
L 486.798909 122.82365 
L 496.762855 119.646261 
L 503.694296 117.562308 
L 508.676269 116.295611 
L 513.008419 115.423582 
L 516.907354 114.858247 
L 520.589682 114.53748 
L 524.27201 114.435004 
L 527.954338 114.553159 
L 531.636665 114.886581 
L 535.535601 115.462448 
L 539.651143 116.296199 
L 544.199901 117.445259 
L 549.831697 119.1055 
L 554.380455 120.552911 
L 554.380455 120.552911 
" clip-path="url(#p391d00c1f5)" style="fill: none; stroke: #ff7f0e; stroke-width: 1.5; stroke-linecap: square"/>
   </g>
   <g id="line2d_28">
    <path d="M 337.989545 98.511019 
L 342.754911 95.785995 
L 345.354201 94.547284 
L 347.520276 93.739321 
L 349.469744 93.226174 
L 351.419211 92.938216 
L 353.368679 92.886363 
L 355.318147 93.072126 
L 357.267614 93.489605 
L 359.43369 94.204793 
L 361.816372 95.251475 
L 364.63227 96.746203 
L 374.596216 102.299911 
L 376.978898 103.221445 
L 378.928366 103.75488 
L 380.877834 104.065946 
L 382.827301 104.142457 
L 384.776769 103.979172 
L 386.726237 103.581699 
L 388.892312 102.887002 
L 391.274995 101.861612 
L 394.090892 100.382844 
L 399.50608 97.19724 
L 402.9718 95.316773 
L 405.354483 94.259011 
L 407.520558 93.529805 
L 409.470026 93.095273 
L 411.419494 92.889982 
L 413.368961 92.924774 
L 415.318429 93.198649 
L 417.267897 93.698527 
L 419.433972 94.490775 
L 421.816654 95.603466 
L 424.84916 97.277263 
L 432.64703 101.718314 
L 435.029713 102.773746 
L 437.195788 103.500621 
L 439.145256 103.932676 
L 441.094723 104.133086 
L 443.044191 104.093205 
L 444.993659 103.816214 
L 447.592949 103.172971 
L 451.275277 102.034391 
L 455.607427 100.432511 
L 471.203168 94.394353 
L 474.668888 93.433831 
L 477.701394 92.811652 
L 480.733899 92.419562 
L 483.549797 92.274447 
L 486.365694 92.344242 
L 489.181592 92.627553 
L 492.214097 93.161821 
L 495.46321 93.974366 
L 499.145538 95.145661 
L 503.477688 96.770653 
L 517.990392 102.431197 
L 521.456112 103.433635 
L 524.705225 104.138716 
L 527.73773 104.563109 
L 530.553628 104.740766 
L 533.369525 104.702817 
L 536.185423 104.448855 
L 539.217928 103.943511 
L 542.467041 103.159825 
L 545.932761 102.090574 
L 550.048304 100.58228 
L 554.380455 98.831174 
L 554.380455 98.831174 
" clip-path="url(#p391d00c1f5)" style="fill: none; stroke: #2ca02c; stroke-width: 1.5; stroke-linecap: square"/>
   </g>
   <g id="line2d_29">
    <path d="M 337.989545 64.104046 
L 342.538303 61.582044 
L 344.920986 60.50683 
L 347.087061 59.773949 
L 349.036529 59.357201 
L 350.769389 59.198761 
L 352.502249 59.245771 
L 354.235109 59.495748 
L 356.184577 60.008189 
L 358.350652 60.833458 
L 360.733335 61.986319 
L 364.415662 64.058501 
L 368.96442 66.587992 
L 371.347103 67.671756 
L 373.513178 68.412566 
L 375.462646 68.838283 
L 377.195506 69.006562 
L 378.928366 68.970034 
L 380.661226 68.728384 
L 382.610694 68.22315 
L 384.776769 67.405879 
L 387.159452 66.261628 
L 390.625172 64.319849 
L 395.390537 61.657511 
L 397.77322 60.566925 
L 399.939295 59.817477 
L 401.888763 59.381763 
L 403.621623 59.203433 
L 405.354483 59.23152 
L 407.087343 59.465893 
L 409.036811 59.962799 
L 411.202886 60.769712 
L 413.585569 61.906575 
L 417.051289 63.845131 
L 422.033262 66.621315 
L 424.415945 67.697041 
L 426.58202 68.430081 
L 428.531487 68.849577 
L 430.264348 69.010608 
L 431.997208 68.964051 
L 433.730068 68.712594 
L 435.679535 68.200431 
L 437.845611 67.378354 
L 440.228293 66.227529 
L 443.910621 64.157594 
L 449.109201 61.274904 
L 452.358314 59.73418 
L 454.957604 58.731611 
L 457.340287 58.041582 
L 459.506362 57.628813 
L 461.672437 57.433972 
L 463.838513 57.46259 
L 466.004588 57.715357 
L 468.170663 58.185151 
L 470.553346 58.933616 
L 473.152636 59.988886 
L 476.185141 61.466162 
L 480.517291 63.851738 
L 486.582302 67.177325 
L 489.614807 68.589008 
L 492.214097 69.565414 
L 494.59678 70.22847 
L 496.762855 70.615589 
L 498.92893 70.784422 
L 501.095005 70.727359 
L 503.261081 70.445223 
L 505.427156 69.947793 
L 507.809838 69.174529 
L 510.409129 68.098061 
L 513.441634 66.601543 
L 517.990392 64.079396 
L 523.622187 61.004029 
L 526.654692 59.597953 
L 529.253983 58.626118 
L 531.636665 57.967405 
L 533.80274 57.58416 
L 535.968816 57.42164 
L 538.134891 57.486095 
L 540.300966 57.774792 
L 542.467041 58.276104 
L 544.849724 59.05247 
L 547.449014 60.133169 
L 550.481519 61.634901 
L 554.380455 63.789447 
L 554.380455 63.789447 
" clip-path="url(#p391d00c1f5)" style="fill: none; stroke: #d62728; stroke-width: 1.5; stroke-linecap: square"/>
   </g>
   <g id="line2d_30">
    <path d="M 337.989545 27.380499 
L 341.888481 24.510745 
L 344.054556 23.190172 
L 345.787416 22.367955 
L 347.520276 21.802128 
L 349.036529 21.541016 
L 350.552781 21.508409 
L 352.069034 21.704016 
L 353.585287 22.120586 
L 355.318147 22.848144 
L 357.267614 23.943114 
L 359.650297 25.573049 
L 367.664775 31.328174 
L 369.614243 32.301739 
L 371.347103 32.900937 
L 372.863356 33.194739 
L 374.379608 33.262402 
L 375.895861 33.101267 
L 377.412113 32.71561 
L 379.144974 32.018562 
L 381.094441 30.953315 
L 383.260516 29.505517 
L 387.159452 26.559155 
L 390.191957 24.372451 
L 392.358032 23.078752 
L 394.090892 22.287072 
L 395.607145 21.806357 
L 397.123397 21.542461 
L 398.63965 21.505859 
L 400.155903 21.700028 
L 401.672155 22.117991 
L 403.405015 22.846739 
L 405.354483 23.938309 
L 407.737166 25.565278 
L 415.751644 31.322705 
L 417.701112 32.296487 
L 419.433972 32.898038 
L 420.950224 33.19542 
L 422.466477 33.264611 
L 423.98273 33.102185 
L 425.498982 32.715384 
L 427.231842 32.020943 
L 429.18131 30.959874 
L 431.347385 29.512538 
L 435.24632 26.565384 
L 438.278826 24.379385 
L 440.444901 23.084793 
L 442.177761 22.291328 
L 443.694014 21.808994 
L 445.210266 21.544396 
L 446.726519 21.501869 
L 448.675986 21.673552 
L 450.625454 22.066153 
L 452.791529 22.7425 
L 455.174212 23.74133 
L 457.99011 25.188012 
L 462.32226 27.712018 
L 466.871018 30.287087 
L 469.470308 31.517912 
L 471.852991 32.3983 
L 474.019066 32.946888 
L 475.968534 33.213404 
L 477.918001 33.255054 
L 479.867469 33.070464 
L 481.816936 32.66482 
L 483.983012 31.972987 
L 486.365694 30.959063 
L 489.181592 29.502309 
L 493.73035 26.844825 
L 497.845893 24.519705 
L 500.445183 23.2804 
L 502.827866 22.391318 
L 504.993941 21.832429 
L 506.943408 21.55477 
L 508.892876 21.501374 
L 510.842344 21.676362 
L 512.791811 22.073996 
L 514.957887 22.757109 
L 517.340569 23.760091 
L 520.156467 25.208747 
L 524.488617 27.735581 
L 528.820768 30.195529 
L 531.636665 31.534156 
L 534.019348 32.408936 
L 536.185423 32.953724 
L 538.134891 33.218124 
L 540.084358 33.25568 
L 542.033826 33.064075 
L 543.983294 32.651471 
L 546.149369 31.956117 
L 548.532052 30.941344 
L 551.347949 29.481385 
L 554.380455 27.722479 
L 554.380455 27.722479 
" clip-path="url(#p391d00c1f5)" style="fill: none; stroke: #9467bd; stroke-width: 1.5; stroke-linecap: square"/>
   </g>
   <g id="line2d_31">
    <path d="M 337.989545 235.347273 
L 446.185 235.347273 
L 446.185 152.017236 
L 554.380455 152.017236 
" clip-path="url(#p391d00c1f5)" style="fill: none; stroke: #000000; stroke-width: 1.5; stroke-linecap: square"/>
   </g>
   <g id="patch_9">
    <path d="M 327.17 246.04 
L 327.17 10.8 
" style="fill: none; stroke: #000000; stroke-width: 0.8; stroke-linejoin: miter; stroke-linecap: square"/>
   </g>
   <g id="patch_10">
    <path d="M 565.2 246.04 
L 565.2 10.8 
" style="fill: none; stroke: #000000; stroke-width: 0.8; stroke-linejoin: miter; stroke-linecap: square"/>
   </g>
   <g id="patch_11">
    <path d="M 327.17 246.04 
L 565.2 246.04 
" style="fill: none; stroke: #000000; stroke-width: 0.8; stroke-linejoin: miter; stroke-linecap: square"/>
   </g>
   <g id="patch_12">
    <path d="M 327.17 10.8 
L 565.2 10.8 
" style="fill: none; stroke: #000000; stroke-width: 0.8; stroke-linejoin: miter; stroke-linecap: square"/>
   </g>
   <g id="legend_2">
    <g id="patch_13">
     <path d="M 334.17 241.04 
L 410.652812 241.04 
Q 412.652812 241.04 412.652812 239.04 
L 412.652812 151.97125 
Q 412.652812 149.97125 410.652812 149.97125 
L 334.17 149.97125 
Q 332.17 149.97125 332.17 151.97125 
L 332.17 239.04 
Q 332.17 241.04 334.17 241.04 
z
" style="fill: #ffffff; opacity: 0.8; stroke: #cccccc; stroke-linejoin: miter"/>
    </g>
    <g id="line2d_32">
     <path d="M 336.17 158.069687 
L 346.17 158.069687 
L 356.17 158.069687 
" style="fill: none; stroke: #1f77b4; stroke-width: 1.5; stroke-linecap: square"/>
    </g>
    <g id="text_29">
     <!-- state 0 -->
     <g transform="translate(364.17 161.569687) scale(0.1 -0.1)">
      <use xlink:href="#DejaVuSans-73"/>
      <use xlink:href="#DejaVuSans-74" x="52.099609"/>
      <use xlink:href="#DejaVuSans-61" x="91.308594"/>
      <use xlink:href="#DejaVuSans-74" x="152.587891"/>
      <use xlink:href="#DejaVuSans-65" x="191.796875"/>
      <use xlink:href="#DejaVuSans-20" x="253.320312"/>
      <use xlink:href="#DejaVuSans-30" x="285.107422"/>
     </g>
    </g>
    <g id="line2d_33">
     <path d="M 336.17 172.747813 
L 346.17 172.747813 
L 356.17 172.747813 
" style="fill: none; stroke: #ff7f0e; stroke-width: 1.5; stroke-linecap: square"/>
    </g>
    <g id="text_30">
     <!-- state 1 -->
     <g transform="translate(364.17 176.247813) scale(0.1 -0.1)">
      <use xlink:href="#DejaVuSans-73"/>
      <use xlink:href="#DejaVuSans-74" x="52.099609"/>
      <use xlink:href="#DejaVuSans-61" x="91.308594"/>
      <use xlink:href="#DejaVuSans-74" x="152.587891"/>
      <use xlink:href="#DejaVuSans-65" x="191.796875"/>
      <use xlink:href="#DejaVuSans-20" x="253.320312"/>
      <use xlink:href="#DejaVuSans-31" x="285.107422"/>
     </g>
    </g>
    <g id="line2d_34">
     <path d="M 336.17 187.425938 
L 346.17 187.425938 
L 356.17 187.425938 
" style="fill: none; stroke: #2ca02c; stroke-width: 1.5; stroke-linecap: square"/>
    </g>
    <g id="text_31">
     <!-- state 2 -->
     <g transform="translate(364.17 190.925938) scale(0.1 -0.1)">
      <use xlink:href="#DejaVuSans-73"/>
      <use xlink:href="#DejaVuSans-74" x="52.099609"/>
      <use xlink:href="#DejaVuSans-61" x="91.308594"/>
      <use xlink:href="#DejaVuSans-74" x="152.587891"/>
      <use xlink:href="#DejaVuSans-65" x="191.796875"/>
      <use xlink:href="#DejaVuSans-20" x="253.320312"/>
      <use xlink:href="#DejaVuSans-32" x="285.107422"/>
     </g>
    </g>
    <g id="line2d_35">
     <path d="M 336.17 202.104062 
L 346.17 202.104062 
L 356.17 202.104062 
" style="fill: none; stroke: #d62728; stroke-width: 1.5; stroke-linecap: square"/>
    </g>
    <g id="text_32">
     <!-- state 3 -->
     <g transform="translate(364.17 205.604062) scale(0.1 -0.1)">
      <use xlink:href="#DejaVuSans-73"/>
      <use xlink:href="#DejaVuSans-74" x="52.099609"/>
      <use xlink:href="#DejaVuSans-61" x="91.308594"/>
      <use xlink:href="#DejaVuSans-74" x="152.587891"/>
      <use xlink:href="#DejaVuSans-65" x="191.796875"/>
      <use xlink:href="#DejaVuSans-20" x="253.320312"/>
      <use xlink:href="#DejaVuSans-33" x="285.107422"/>
     </g>
    </g>
    <g id="line2d_36">
     <path d="M 336.17 216.782188 
L 346.17 216.782188 
L 356.17 216.782188 
" style="fill: none; stroke: #9467bd; stroke-width: 1.5; stroke-linecap: square"/>
    </g>
    <g id="text_33">
     <!-- state 4 -->
     <g transform="translate(364.17 220.282188) scale(0.1 -0.1)">
      <use xlink:href="#DejaVuSans-73"/>
      <use xlink:href="#DejaVuSans-74" x="52.099609"/>
      <use xlink:href="#DejaVuSans-61" x="91.308594"/>
      <use xlink:href="#DejaVuSans-74" x="152.587891"/>
      <use xlink:href="#DejaVuSans-65" x="191.796875"/>
      <use xlink:href="#DejaVuSans-20" x="253.320312"/>
      <use xlink:href="#DejaVuSans-34" x="285.107422"/>
     </g>
    </g>
    <g id="line2d_37">
     <path d="M 336.17 231.460312 
L 346.17 231.460312 
L 356.17 231.460312 
" style="fill: none; stroke: #000000; stroke-width: 1.5; stroke-linecap: square"/>
    </g>
    <g id="text_34">
     <!-- potential -->
     <g transform="translate(364.17 234.960312) scale(0.1 -0.1)">
      <defs>
       <path id="DejaVuSans-70" d="M 1159 525 
L 1159 -1331 
L 581 -1331 
L 581 3500 
L 1159 3500 
L 1159 2969 
Q 1341 3281 1617 3432 
Q 1894 3584 2278 3584 
Q 2916 3584 3314 3078 
Q 3713 2572 3713 1747 
Q 3713 922 3314 415 
Q 2916 -91 2278 -91 
Q 1894 -91 1617 61 
Q 1341 213 1159 525 
z
M 3116 1747 
Q 3116 2381 2855 2742 
Q 2594 3103 2138 3103 
Q 1681 3103 1420 2742 
Q 1159 2381 1159 1747 
Q 1159 1113 1420 752 
Q 1681 391 2138 391 
Q 2594 391 2855 752 
Q 3116 1113 3116 1747 
z
" transform="scale(0.015625)"/>
       <path id="DejaVuSans-6f" d="M 1959 3097 
Q 1497 3097 1228 2736 
Q 959 2375 959 1747 
Q 959 1119 1226 758 
Q 1494 397 1959 397 
Q 2419 397 2687 759 
Q 2956 1122 2956 1747 
Q 2956 2369 2687 2733 
Q 2419 3097 1959 3097 
z
M 1959 3584 
Q 2709 3584 3137 3096 
Q 3566 2609 3566 1747 
Q 3566 888 3137 398 
Q 2709 -91 1959 -91 
Q 1206 -91 779 398 
Q 353 888 353 1747 
Q 353 2609 779 3096 
Q 1206 3584 1959 3584 
z
" transform="scale(0.015625)"/>
      </defs>
      <use xlink:href="#DejaVuSans-70"/>
      <use xlink:href="#DejaVuSans-6f" x="63.476562"/>
      <use xlink:href="#DejaVuSans-74" x="124.658203"/>
      <use xlink:href="#DejaVuSans-65" x="163.867188"/>
      <use xlink:href="#DejaVuSans-6e" x="225.390625"/>
      <use xlink:href="#DejaVuSans-74" x="288.769531"/>
      <use xlink:href="#DejaVuSans-69" x="327.978516"/>
      <use xlink:href="#DejaVuSans-61" x="355.761719"/>
      <use xlink:href="#DejaVuSans-6c" x="417.041016"/>
     </g>
    </g>
   </g>
  </g>
 </g>
 <defs>
  <clipPath id="p140a679af0">
   <rect x="44.57" y="10.8" width="238.03" height="235.24"/>
  </clipPath>
  <clipPath id="p391d00c1f5">
   <rect x="327.17" y="10.8" width="238.03" height="235.24"/>
  </clipPath>
 </defs>
</svg>
