<?xml version="1.0" encoding="utf-8" standalone="no"?>
<!DOCTYPE svg PUBLIC "-//W3C//DTD SVG 1.1//EN"
  "http://www.w3.org/Graphics/SVG/1.1/DTD/svg11.dtd">
<svg xmlns:xlink="http://www.w3.org/1999/xlink" width="576pt" height="288pt" viewBox="0 0 576 288" xmlns="http://www.w3.org/2000/svg" version="1.1">
 <metadata>
  <rdf:RDF xmlns:dc="http://purl.org/dc/elements/1.1/" xmlns:cc="http://creativecommons.org/ns#" xmlns:rdf="http://www.w3.org/1999/02/22-rdf-syntax-ns#">
   <cc:Work>
    <dc:type rdf:resource="http://purl.org/dc/dcmitype/StillImage"/>
    <dc:date>2024-05-01T11:16:16.996658</dc:date>
    <dc:format>image/svg+xml</dc:format>
    <dc:creator>
     <cc:Agent>
      <dc:title>Matplotlib v3.7.2, https://matplotlib.org/</dc:title>
     </cc:Agent>
    </dc:creator>
   </cc:Work>
  </rdf:RDF>
 </metadata>
 <defs>
  <style type="text/css">*{stroke-linejoin: round; stroke-linecap: butt}</style>
 </defs>
 <g id="figure_1">
  <g id="patch_1">
   <path d="M 0 288 
L 576 288 
L 576 0 
L 0 0 
z
" style="fill: #ffffff"/>
  </g>
  <g id="axes_1">
   <g id="patch_2">
    <path d="M 44.57 246.04 
L 282.6 246.04 
L 282.6 10.8 
L 44.57 10.8 
z
" style="fill: #ffffff"/>
   </g>
   <g id="matplotlib.axis_1">
    <g id="xtick_1">
     <g id="line2d_1">
      <defs>
       <path id="m6095e673c1" d="M 0 0 
L 0 3.5 
" style="stroke: #000000; stroke-width: 0.8"/>
      </defs>
      <g>
       <use xlink:href="#m6095e673c1" x="55.389545" y="246.04" style="stroke: #000000; stroke-width: 0.8"/>
      </g>
     </g>
     <g id="text_1">
      <!-- 0 -->
      <g transform="translate(52.208295 260.638438) scale(0.1 -0.1)">
       <defs>
        <path id="DejaVuSans-30" d="M 2034 4250 
Q 1547 4250 1301 3770 
Q 1056 3291 1056 2328 
Q 1056 1369 1301 889 
Q 1547 409 2034 409 
Q 2525 409 2770 889 
Q 3016 1369 3016 2328 
Q 3016 3291 2770 3770 
Q 2525 4250 2034 4250 
z
M 2034 4750 
Q 2819 4750 3233 4129 
Q 3647 3509 3647 2328 
Q 3647 1150 3233 529 
Q 2819 -91 2034 -91 
Q 1250 -91 836 529 
Q 422 1150 422 2328 
Q 422 3509 836 4129 
Q 1250 4750 2034 4750 
z
" transform="scale(0.015625)"/>
       </defs>
       <use xlink:href="#DejaVuSans-30"/>
      </g>
     </g>
    </g>
    <g id="xtick_2">
     <g id="line2d_2">
      <g>
       <use xlink:href="#m6095e673c1" x="98.667727" y="246.04" style="stroke: #000000; stroke-width: 0.8"/>
      </g>
     </g>
     <g id="text_2">
      <!-- 1 -->
      <g transform="translate(95.486477 260.638438) scale(0.1 -0.1)">
       <defs>
        <path id="DejaVuSans-31" d="M 794 531 
L 1825 531 
L 1825 4091 
L 703 3866 
L 703 4441 
L 1819 4666 
L 2450 4666 
L 2450 531 
L 3481 531 
L 3481 0 
L 794 0 
L 794 531 
z
" transform="scale(0.015625)"/>
       </defs>
       <use xlink:href="#DejaVuSans-31"/>
      </g>
     </g>
    </g>
    <g id="xtick_3">
     <g id="line2d_3">
      <g>
       <use xlink:href="#m6095e673c1" x="141.945909" y="246.04" style="stroke: #000000; stroke-width: 0.8"/>
      </g>
     </g>
     <g id="text_3">
      <!-- 2 -->
      <g transform="translate(138.764659 260.638438) scale(0.1 -0.1)">
       <defs>
        <path id="DejaVuSans-32" d="M 1228 531 
L 3431 531 
L 3431 0 
L 469 0 
L 469 531 
Q 828 903 1448 1529 
Q 2069 2156 2228 2338 
Q 2531 2678 2651 2914 
Q 2772 3150 2772 3378 
Q 2772 3750 2511 3984 
Q 2250 4219 1831 4219 
Q 1534 4219 1204 4116 
Q 875 4013 500 3803 
L 500 4441 
Q 881 4594 1212 4672 
Q 1544 4750 1819 4750 
Q 2544 4750 2975 4387 
Q 3406 4025 3406 3419 
Q 3406 3131 3298 2873 
Q 3191 2616 2906 2266 
Q 2828 2175 2409 1742 
Q 1991 1309 1228 531 
z
" transform="scale(0.015625)"/>
       </defs>
       <use xlink:href="#DejaVuSans-32"/>
      </g>
     </g>
    </g>
    <g id="xtick_4">
     <g id="line2d_4">
      <g>
       <use xlink:href="#m6095e673c1" x="185.224091" y="246.04" style="stroke: #000000; stroke-width: 0.8"/>
      </g>
     </g>
     <g id="text_4">
      <!-- 3 -->
      <g transform="translate(182.042841 260.638438) scale(0.1 -0.1)">
       <defs>
        <path id="DejaVuSans-33" d="M 2597 2516 
Q 3050 2419 3304 2112 
Q 3559 1806 3559 1356 
Q 3559 666 3084 287 
Q 2609 -91 1734 -91 
Q 1441 -91 1130 -33 
Q 819 25 488 141 
L 488 750 
Q 750 597 1062 519 
Q 1375 441 1716 441 
Q 2309 441 2620 675 
Q 2931 909 2931 1356 
Q 2931 1769 2642 2001 
Q 2353 2234 1838 2234 
L 1294 2234 
L 1294 2753 
L 1863 2753 
Q 2328 2753 2575 2939 
Q 2822 3125 2822 3475 
Q 2822 3834 2567 4026 
Q 2313 4219 1838 4219 
Q 1578 4219 1281 4162 
Q 984 4106 628 3988 
L 628 4550 
Q 988 4650 1302 4700 
Q 1616 4750 1894 4750 
Q 2613 4750 3031 4423 
Q 3450 4097 3450 3541 
Q 3450 3153 3228 2886 
Q 3006 2619 2597 2516 
z
" transform="scale(0.015625)"/>
       </defs>
       <use xlink:href="#DejaVuSans-33"/>
      </g>
     </g>
    </g>
    <g id="xtick_5">
     <g id="line2d_5">
      <g>
       <use xlink:href="#m6095e673c1" x="228.502273" y="246.04" style="stroke: #000000; stroke-width: 0.8"/>
      </g>
     </g>
     <g id="text_5">
      <!-- 4 -->
      <g transform="translate(225.321023 260.638438) scale(0.1 -0.1)">
       <defs>
        <path id="DejaVuSans-34" d="M 2419 4116 
L 825 1625 
L 2419 1625 
L 2419 4116 
z
M 2253 4666 
L 3047 4666 
L 3047 1625 
L 3713 1625 
L 3713 1100 
L 3047 1100 
L 3047 0 
L 2419 0 
L 2419 1100 
L 313 1100 
L 313 1709 
L 2253 4666 
z
" transform="scale(0.015625)"/>
       </defs>
       <use xlink:href="#DejaVuSans-34"/>
      </g>
     </g>
    </g>
    <g id="xtick_6">
     <g id="line2d_6">
      <g>
       <use xlink:href="#m6095e673c1" x="271.780455" y="246.04" style="stroke: #000000; stroke-width: 0.8"/>
      </g>
     </g>
     <g id="text_6">
      <!-- 5 -->
      <g transform="translate(268.599205 260.638438) scale(0.1 -0.1)">
       <defs>
        <path id="DejaVuSans-35" d="M 691 4666 
L 3169 4666 
L 3169 4134 
L 1269 4134 
L 1269 2991 
Q 1406 3038 1543 3061 
Q 1681 3084 1819 3084 
Q 2600 3084 3056 2656 
Q 3513 2228 3513 1497 
Q 3513 744 3044 326 
Q 2575 -91 1722 -91 
Q 1428 -91 1123 -41 
Q 819 9 494 109 
L 494 744 
Q 775 591 1075 516 
Q 1375 441 1709 441 
Q 2250 441 2565 725 
Q 2881 1009 2881 1497 
Q 2881 1984 2565 2268 
Q 2250 2553 1709 2553 
Q 1456 2553 1204 2497 
Q 953 2441 691 2322 
L 691 4666 
z
" transform="scale(0.015625)"/>
       </defs>
       <use xlink:href="#DejaVuSans-35"/>
      </g>
     </g>
    </g>
    <g id="text_7">
     <!-- state -->
     <g transform="translate(150.919375 274.316562) scale(0.1 -0.1)">
      <defs>
       <path id="DejaVuSans-73" d="M 2834 3397 
L 2834 2853 
Q 2591 2978 2328 3040 
Q 2066 3103 1784 3103 
Q 1356 3103 1142 2972 
Q 928 2841 928 2578 
Q 928 2378 1081 2264 
Q 1234 2150 1697 2047 
L 1894 2003 
Q 2506 1872 2764 1633 
Q 3022 1394 3022 966 
Q 3022 478 2636 193 
Q 2250 -91 1575 -91 
Q 1294 -91 989 -36 
Q 684 19 347 128 
L 347 722 
Q 666 556 975 473 
Q 1284 391 1588 391 
Q 1994 391 2212 530 
Q 2431 669 2431 922 
Q 2431 1156 2273 1281 
Q 2116 1406 1581 1522 
L 1381 1569 
Q 847 1681 609 1914 
Q 372 2147 372 2553 
Q 372 3047 722 3315 
Q 1072 3584 1716 3584 
Q 2034 3584 2315 3537 
Q 2597 3491 2834 3397 
z
" transform="scale(0.015625)"/>
       <path id="DejaVuSans-74" d="M 1172 4494 
L 1172 3500 
L 2356 3500 
L 2356 3053 
L 1172 3053 
L 1172 1153 
Q 1172 725 1289 603 
Q 1406 481 1766 481 
L 2356 481 
L 2356 0 
L 1766 0 
Q 1100 0 847 248 
Q 594 497 594 1153 
L 594 3053 
L 172 3053 
L 172 3500 
L 594 3500 
L 594 4494 
L 1172 4494 
z
" transform="scale(0.015625)"/>
       <path id="DejaVuSans-61" d="M 2194 1759 
Q 1497 1759 1228 1600 
Q 959 1441 959 1056 
Q 959 750 1161 570 
Q 1363 391 1709 391 
Q 2188 391 2477 730 
Q 2766 1069 2766 1631 
L 2766 1759 
L 2194 1759 
z
M 3341 1997 
L 3341 0 
L 2766 0 
L 2766 531 
Q 2569 213 2275 61 
Q 1981 -91 1556 -91 
Q 1019 -91 701 211 
Q 384 513 384 1019 
Q 384 1609 779 1909 
Q 1175 2209 1959 2209 
L 2766 2209 
L 2766 2266 
Q 2766 2663 2505 2880 
Q 2244 3097 1772 3097 
Q 1472 3097 1187 3025 
Q 903 2953 641 2809 
L 641 3341 
Q 956 3463 1253 3523 
Q 1550 3584 1831 3584 
Q 2591 3584 2966 3190 
Q 3341 2797 3341 1997 
z
" transform="scale(0.015625)"/>
       <path id="DejaVuSans-65" d="M 3597 1894 
L 3597 1613 
L 953 1613 
Q 991 1019 1311 708 
Q 1631 397 2203 397 
Q 2534 397 2845 478 
Q 3156 559 3463 722 
L 3463 178 
Q 3153 47 2828 -22 
Q 2503 -91 2169 -91 
Q 1331 -91 842 396 
Q 353 884 353 1716 
Q 353 2575 817 3079 
Q 1281 3584 2069 3584 
Q 2775 3584 3186 3129 
Q 3597 2675 3597 1894 
z
M 3022 2063 
Q 3016 2534 2758 2815 
Q 2500 3097 2075 3097 
Q 1594 3097 1305 2825 
Q 1016 2553 972 2059 
L 3022 2063 
z
" transform="scale(0.015625)"/>
      </defs>
      <use xlink:href="#DejaVuSans-73"/>
      <use xlink:href="#DejaVuSans-74" x="52.099609"/>
      <use xlink:href="#DejaVuSans-61" x="91.308594"/>
      <use xlink:href="#DejaVuSans-74" x="152.587891"/>
      <use xlink:href="#DejaVuSans-65" x="191.796875"/>
     </g>
    </g>
   </g>
   <g id="matplotlib.axis_2">
    <g id="ytick_1">
     <g id="line2d_7">
      <defs>
       <path id="med645e26a9" d="M 0 0 
L -3.5 0 
" style="stroke: #000000; stroke-width: 0.8"/>
      </defs>
      <g>
       <use xlink:href="#med645e26a9" x="44.57" y="235.347273" style="stroke: #000000; stroke-width: 0.8"/>
      </g>
     </g>
     <g id="text_8">
      <!-- 0 -->
      <g transform="translate(31.2075 239.146491) scale(0.1 -0.1)">
       <use xlink:href="#DejaVuSans-30"/>
      </g>
     </g>
    </g>
    <g id="ytick_2">
     <g id="line2d_8">
      <g>
       <use xlink:href="#med645e26a9" x="44.57" y="206.888354" style="stroke: #000000; stroke-width: 0.8"/>
      </g>
     </g>
     <g id="text_9">
      <!-- 2 -->
      <g transform="translate(31.2075 210.687573) scale(0.1 -0.1)">
       <use xlink:href="#DejaVuSans-32"/>
      </g>
     </g>
    </g>
    <g id="ytick_3">
     <g id="line2d_9">
      <g>
       <use xlink:href="#med645e26a9" x="44.57" y="178.429435" style="stroke: #000000; stroke-width: 0.8"/>
      </g>
     </g>
     <g id="text_10">
      <!-- 4 -->
      <g transform="translate(31.2075 182.228654) scale(0.1 -0.1)">
       <use xlink:href="#DejaVuSans-34"/>
      </g>
     </g>
    </g>
    <g id="ytick_4">
     <g id="line2d_10">
      <g>
       <use xlink:href="#med645e26a9" x="44.57" y="149.970516" style="stroke: #000000; stroke-width: 0.8"/>
      </g>
     </g>
     <g id="text_11">
      <!-- 6 -->
      <g transform="translate(31.2075 153.769735) scale(0.1 -0.1)">
       <defs>
        <path id="DejaVuSans-36" d="M 2113 2584 
Q 1688 2584 1439 2293 
Q 1191 2003 1191 1497 
Q 1191 994 1439 701 
Q 1688 409 2113 409 
Q 2538 409 2786 701 
Q 3034 994 3034 1497 
Q 3034 2003 2786 2293 
Q 2538 2584 2113 2584 
z
M 3366 4563 
L 3366 3988 
Q 3128 4100 2886 4159 
Q 2644 4219 2406 4219 
Q 1781 4219 1451 3797 
Q 1122 3375 1075 2522 
Q 1259 2794 1537 2939 
Q 1816 3084 2150 3084 
Q 2853 3084 3261 2657 
Q 3669 2231 3669 1497 
Q 3669 778 3244 343 
Q 2819 -91 2113 -91 
Q 1303 -91 875 529 
Q 447 1150 447 2328 
Q 447 3434 972 4092 
Q 1497 4750 2381 4750 
Q 2619 4750 2861 4703 
Q 3103 4656 3366 4563 
z
" transform="scale(0.015625)"/>
       </defs>
       <use xlink:href="#DejaVuSans-36"/>
      </g>
     </g>
    </g>
    <g id="ytick_5">
     <g id="line2d_11">
      <g>
       <use xlink:href="#med645e26a9" x="44.57" y="121.511597" style="stroke: #000000; stroke-width: 0.8"/>
      </g>
     </g>
     <g id="text_12">
      <!-- 8 -->
      <g transform="translate(31.2075 125.310816) scale(0.1 -0.1)">
       <defs>
        <path id="DejaVuSans-38" d="M 2034 2216 
Q 1584 2216 1326 1975 
Q 1069 1734 1069 1313 
Q 1069 891 1326 650 
Q 1584 409 2034 409 
Q 2484 409 2743 651 
Q 3003 894 3003 1313 
Q 3003 1734 2745 1975 
Q 2488 2216 2034 2216 
z
M 1403 2484 
Q 997 2584 770 2862 
Q 544 3141 544 3541 
Q 544 4100 942 4425 
Q 1341 4750 2034 4750 
Q 2731 4750 3128 4425 
Q 3525 4100 3525 3541 
Q 3525 3141 3298 2862 
Q 3072 2584 2669 2484 
Q 3125 2378 3379 2068 
Q 3634 1759 3634 1313 
Q 3634 634 3220 271 
Q 2806 -91 2034 -91 
Q 1263 -91 848 271 
Q 434 634 434 1313 
Q 434 1759 690 2068 
Q 947 2378 1403 2484 
z
M 1172 3481 
Q 1172 3119 1398 2916 
Q 1625 2713 2034 2713 
Q 2441 2713 2670 2916 
Q 2900 3119 2900 3481 
Q 2900 3844 2670 4047 
Q 2441 4250 2034 4250 
Q 1625 4250 1398 4047 
Q 1172 3844 1172 3481 
z
" transform="scale(0.015625)"/>
       </defs>
       <use xlink:href="#DejaVuSans-38"/>
      </g>
     </g>
    </g>
    <g id="ytick_6">
     <g id="line2d_12">
      <g>
       <use xlink:href="#med645e26a9" x="44.57" y="93.052679" style="stroke: #000000; stroke-width: 0.8"/>
      </g>
     </g>
     <g id="text_13">
      <!-- 10 -->
      <g transform="translate(24.845 96.851897) scale(0.1 -0.1)">
       <use xlink:href="#DejaVuSans-31"/>
       <use xlink:href="#DejaVuSans-30" x="63.623047"/>
      </g>
     </g>
    </g>
    <g id="ytick_7">
     <g id="line2d_13">
      <g>
       <use xlink:href="#med645e26a9" x="44.57" y="64.59376" style="stroke: #000000; stroke-width: 0.8"/>
      </g>
     </g>
     <g id="text_14">
      <!-- 12 -->
      <g transform="translate(24.845 68.392979) scale(0.1 -0.1)">
       <use xlink:href="#DejaVuSans-31"/>
       <use xlink:href="#DejaVuSans-32" x="63.623047"/>
      </g>
     </g>
    </g>
    <g id="ytick_8">
     <g id="line2d_14">
      <g>
       <use xlink:href="#med645e26a9" x="44.57" y="36.134841" style="stroke: #000000; stroke-width: 0.8"/>
      </g>
     </g>
     <g id="text_15">
      <!-- 14 -->
      <g transform="translate(24.845 39.93406) scale(0.1 -0.1)">
       <use xlink:href="#DejaVuSans-31"/>
       <use xlink:href="#DejaVuSans-34" x="63.623047"/>
      </g>
     </g>
    </g>
    <g id="text_16">
     <!-- energy -->
     <g transform="translate(18.765313 145.843438) rotate(-90) scale(0.1 -0.1)">
      <defs>
       <path id="DejaVuSans-6e" d="M 3513 2113 
L 3513 0 
L 2938 0 
L 2938 2094 
Q 2938 2591 2744 2837 
Q 2550 3084 2163 3084 
Q 1697 3084 1428 2787 
Q 1159 2491 1159 1978 
L 1159 0 
L 581 0 
L 581 3500 
L 1159 3500 
L 1159 2956 
Q 1366 3272 1645 3428 
Q 1925 3584 2291 3584 
Q 2894 3584 3203 3211 
Q 3513 2838 3513 2113 
z
" transform="scale(0.015625)"/>
       <path id="DejaVuSans-72" d="M 2631 2963 
Q 2534 3019 2420 3045 
Q 2306 3072 2169 3072 
Q 1681 3072 1420 2755 
Q 1159 2438 1159 1844 
L 1159 0 
L 581 0 
L 581 3500 
L 1159 3500 
L 1159 2956 
Q 1341 3275 1631 3429 
Q 1922 3584 2338 3584 
Q 2397 3584 2469 3576 
Q 2541 3569 2628 3553 
L 2631 2963 
z
" transform="scale(0.015625)"/>
       <path id="DejaVuSans-67" d="M 2906 1791 
Q 2906 2416 2648 2759 
Q 2391 3103 1925 3103 
Q 1463 3103 1205 2759 
Q 947 2416 947 1791 
Q 947 1169 1205 825 
Q 1463 481 1925 481 
Q 2391 481 2648 825 
Q 2906 1169 2906 1791 
z
M 3481 434 
Q 3481 -459 3084 -895 
Q 2688 -1331 1869 -1331 
Q 1566 -1331 1297 -1286 
Q 1028 -1241 775 -1147 
L 775 -588 
Q 1028 -725 1275 -790 
Q 1522 -856 1778 -856 
Q 2344 -856 2625 -561 
Q 2906 -266 2906 331 
L 2906 616 
Q 2728 306 2450 153 
Q 2172 0 1784 0 
Q 1141 0 747 490 
Q 353 981 353 1791 
Q 353 2603 747 3093 
Q 1141 3584 1784 3584 
Q 2172 3584 2450 3431 
Q 2728 3278 2906 2969 
L 2906 3500 
L 3481 3500 
L 3481 434 
z
" transform="scale(0.015625)"/>
       <path id="DejaVuSans-79" d="M 2059 -325 
Q 1816 -950 1584 -1140 
Q 1353 -1331 966 -1331 
L 506 -1331 
L 506 -850 
L 844 -850 
Q 1081 -850 1212 -737 
Q 1344 -625 1503 -206 
L 1606 56 
L 191 3500 
L 800 3500 
L 1894 763 
L 2988 3500 
L 3597 3500 
L 2059 -325 
z
" transform="scale(0.015625)"/>
      </defs>
      <use xlink:href="#DejaVuSans-65"/>
      <use xlink:href="#DejaVuSans-6e" x="61.523438"/>
      <use xlink:href="#DejaVuSans-65" x="124.902344"/>
      <use xlink:href="#DejaVuSans-72" x="186.425781"/>
      <use xlink:href="#DejaVuSans-67" x="225.789062"/>
      <use xlink:href="#DejaVuSans-79" x="289.265625"/>
     </g>
    </g>
   </g>
   <g id="line2d_15">
    <defs>
     <path id="md271a7b4ab" d="M 0 3 
C 0.795609 3 1.55874 2.683901 2.12132 2.12132 
C 2.683901 1.55874 3 0.795609 3 0 
C 3 -0.795609 2.683901 -1.55874 2.12132 -2.12132 
C 1.55874 -2.683901 0.795609 -3 0 -3 
C -0.795609 -3 -1.55874 -2.683901 -2.12132 -2.12132 
C -2.683901 -1.55874 -3 -0.795609 -3 0 
C -3 0.795609 -2.683901 1.55874 -2.12132 2.12132 
C -1.55874 2.683901 -0.795609 3 0 3 
z
" style="stroke: #1f77b4"/>
    </defs>
    <g clip-path="url(#pbbc3cf3bf3)">
     <use xlink:href="#md271a7b4ab" x="55.389545" y="230.978829" style="fill: #1f77b4; stroke: #1f77b4"/>
     <use xlink:href="#md271a7b4ab" x="98.667727" y="196.059735" style="fill: #1f77b4; stroke: #1f77b4"/>
     <use xlink:href="#md271a7b4ab" x="141.945909" y="165.509086" style="fill: #1f77b4; stroke: #1f77b4"/>
     <use xlink:href="#md271a7b4ab" x="185.224091" y="126.235778" style="fill: #1f77b4; stroke: #1f77b4"/>
     <use xlink:href="#md271a7b4ab" x="228.502273" y="78.225582" style="fill: #1f77b4; stroke: #1f77b4"/>
     <use xlink:href="#md271a7b4ab" x="271.780455" y="21.492727" style="fill: #1f77b4; stroke: #1f77b4"/>
    </g>
   </g>
   <g id="line2d_16">
    <path d="M 55.389545 235.347273 
L 98.667727 230.95855 
L 141.945909 217.792381 
L 185.224091 195.848766 
L 228.502273 165.127705 
L 271.780455 125.629198 
" clip-path="url(#pbbc3cf3bf3)" style="fill: none; stroke: #ff7f0e; stroke-width: 1.5; stroke-linecap: square"/>
   </g>
   <g id="patch_3">
    <path d="M 44.57 246.04 
L 44.57 10.8 
" style="fill: none; stroke: #000000; stroke-width: 0.8; stroke-linejoin: miter; stroke-linecap: square"/>
   </g>
   <g id="patch_4">
    <path d="M 282.6 246.04 
L 282.6 10.8 
" style="fill: none; stroke: #000000; stroke-width: 0.8; stroke-linejoin: miter; stroke-linecap: square"/>
   </g>
   <g id="patch_5">
    <path d="M 44.57 246.04 
L 282.6 246.04 
" style="fill: none; stroke: #000000; stroke-width: 0.8; stroke-linejoin: miter; stroke-linecap: square"/>
   </g>
   <g id="patch_6">
    <path d="M 44.57 10.8 
L 282.6 10.8 
" style="fill: none; stroke: #000000; stroke-width: 0.8; stroke-linejoin: miter; stroke-linecap: square"/>
   </g>
   <g id="legend_1">
    <g id="patch_7">
     <path d="M 51.57 48.15625 
L 207.449687 48.15625 
Q 209.449687 48.15625 209.449687 46.15625 
L 209.449687 17.8 
Q 209.449687 15.8 207.449687 15.8 
L 51.57 15.8 
Q 49.57 15.8 49.57 17.8 
L 49.57 46.15625 
Q 49.57 48.15625 51.57 48.15625 
z
" style="fill: #ffffff; opacity: 0.8; stroke: #cccccc; stroke-linejoin: miter"/>
    </g>
    <g id="line2d_17">
     <g>
      <use xlink:href="#md271a7b4ab" x="63.57" y="23.898438" style="fill: #1f77b4; stroke: #1f77b4"/>
     </g>
    </g>
    <g id="text_17">
     <!-- numerical eigenenergies -->
     <g transform="translate(81.57 27.398438) scale(0.1 -0.1)">
      <defs>
       <path id="DejaVuSans-75" d="M 544 1381 
L 544 3500 
L 1119 3500 
L 1119 1403 
Q 1119 906 1312 657 
Q 1506 409 1894 409 
Q 2359 409 2629 706 
Q 2900 1003 2900 1516 
L 2900 3500 
L 3475 3500 
L 3475 0 
L 2900 0 
L 2900 538 
Q 2691 219 2414 64 
Q 2138 -91 1772 -91 
Q 1169 -91 856 284 
Q 544 659 544 1381 
z
M 1991 3584 
L 1991 3584 
z
" transform="scale(0.015625)"/>
       <path id="DejaVuSans-6d" d="M 3328 2828 
Q 3544 3216 3844 3400 
Q 4144 3584 4550 3584 
Q 5097 3584 5394 3201 
Q 5691 2819 5691 2113 
L 5691 0 
L 5113 0 
L 5113 2094 
Q 5113 2597 4934 2840 
Q 4756 3084 4391 3084 
Q 3944 3084 3684 2787 
Q 3425 2491 3425 1978 
L 3425 0 
L 2847 0 
L 2847 2094 
Q 2847 2600 2669 2842 
Q 2491 3084 2119 3084 
Q 1678 3084 1418 2786 
Q 1159 2488 1159 1978 
L 1159 0 
L 581 0 
L 581 3500 
L 1159 3500 
L 1159 2956 
Q 1356 3278 1631 3431 
Q 1906 3584 2284 3584 
Q 2666 3584 2933 3390 
Q 3200 3197 3328 2828 
z
" transform="scale(0.015625)"/>
       <path id="DejaVuSans-69" d="M 603 3500 
L 1178 3500 
L 1178 0 
L 603 0 
L 603 3500 
z
M 603 4863 
L 1178 4863 
L 1178 4134 
L 603 4134 
L 603 4863 
z
" transform="scale(0.015625)"/>
       <path id="DejaVuSans-63" d="M 3122 3366 
L 3122 2828 
Q 2878 2963 2633 3030 
Q 2388 3097 2138 3097 
Q 1578 3097 1268 2742 
Q 959 2388 959 1747 
Q 959 1106 1268 751 
Q 1578 397 2138 397 
Q 2388 397 2633 464 
Q 2878 531 3122 666 
L 3122 134 
Q 2881 22 2623 -34 
Q 2366 -91 2075 -91 
Q 1284 -91 818 406 
Q 353 903 353 1747 
Q 353 2603 823 3093 
Q 1294 3584 2113 3584 
Q 2378 3584 2631 3529 
Q 2884 3475 3122 3366 
z
" transform="scale(0.015625)"/>
       <path id="DejaVuSans-6c" d="M 603 4863 
L 1178 4863 
L 1178 0 
L 603 0 
L 603 4863 
z
" transform="scale(0.015625)"/>
       <path id="DejaVuSans-20" transform="scale(0.015625)"/>
      </defs>
      <use xlink:href="#DejaVuSans-6e"/>
      <use xlink:href="#DejaVuSans-75" x="63.378906"/>
      <use xlink:href="#DejaVuSans-6d" x="126.757812"/>
      <use xlink:href="#DejaVuSans-65" x="224.169922"/>
      <use xlink:href="#DejaVuSans-72" x="285.693359"/>
      <use xlink:href="#DejaVuSans-69" x="326.806641"/>
      <use xlink:href="#DejaVuSans-63" x="354.589844"/>
      <use xlink:href="#DejaVuSans-61" x="409.570312"/>
      <use xlink:href="#DejaVuSans-6c" x="470.849609"/>
      <use xlink:href="#DejaVuSans-20" x="498.632812"/>
      <use xlink:href="#DejaVuSans-65" x="530.419922"/>
      <use xlink:href="#DejaVuSans-69" x="591.943359"/>
      <use xlink:href="#DejaVuSans-67" x="619.726562"/>
      <use xlink:href="#DejaVuSans-65" x="683.203125"/>
      <use xlink:href="#DejaVuSans-6e" x="744.726562"/>
      <use xlink:href="#DejaVuSans-65" x="808.105469"/>
      <use xlink:href="#DejaVuSans-6e" x="869.628906"/>
      <use xlink:href="#DejaVuSans-65" x="933.007812"/>
      <use xlink:href="#DejaVuSans-72" x="994.53125"/>
      <use xlink:href="#DejaVuSans-67" x="1033.894531"/>
      <use xlink:href="#DejaVuSans-69" x="1097.371094"/>
      <use xlink:href="#DejaVuSans-65" x="1125.154297"/>
      <use xlink:href="#DejaVuSans-73" x="1186.677734"/>
     </g>
    </g>
    <g id="line2d_18">
     <path d="M 53.57 38.576562 
L 63.57 38.576562 
L 73.57 38.576562 
" style="fill: none; stroke: #ff7f0e; stroke-width: 1.5; stroke-linecap: square"/>
    </g>
    <g id="text_18">
     <!-- analytical eigenenergies -->
     <g transform="translate(81.57 42.076562) scale(0.1 -0.1)">
      <use xlink:href="#DejaVuSans-61"/>
      <use xlink:href="#DejaVuSans-6e" x="61.279297"/>
      <use xlink:href="#DejaVuSans-61" x="124.658203"/>
      <use xlink:href="#DejaVuSans-6c" x="185.9375"/>
      <use xlink:href="#DejaVuSans-79" x="213.720703"/>
      <use xlink:href="#DejaVuSans-74" x="272.900391"/>
      <use xlink:href="#DejaVuSans-69" x="312.109375"/>
      <use xlink:href="#DejaVuSans-63" x="339.892578"/>
      <use xlink:href="#DejaVuSans-61" x="394.873047"/>
      <use xlink:href="#DejaVuSans-6c" x="456.152344"/>
      <use xlink:href="#DejaVuSans-20" x="483.935547"/>
      <use xlink:href="#DejaVuSans-65" x="515.722656"/>
      <use xlink:href="#DejaVuSans-69" x="577.246094"/>
      <use xlink:href="#DejaVuSans-67" x="605.029297"/>
      <use xlink:href="#DejaVuSans-65" x="668.505859"/>
      <use xlink:href="#DejaVuSans-6e" x="730.029297"/>
      <use xlink:href="#DejaVuSans-65" x="793.408203"/>
      <use xlink:href="#DejaVuSans-6e" x="854.931641"/>
      <use xlink:href="#DejaVuSans-65" x="918.310547"/>
      <use xlink:href="#DejaVuSans-72" x="979.833984"/>
      <use xlink:href="#DejaVuSans-67" x="1019.197266"/>
      <use xlink:href="#DejaVuSans-69" x="1082.673828"/>
      <use xlink:href="#DejaVuSans-65" x="1110.457031"/>
      <use xlink:href="#DejaVuSans-73" x="1171.980469"/>
     </g>
    </g>
   </g>
  </g>
  <g id="axes_2">
   <g id="patch_8">
    <path d="M 327.17 246.04 
L 565.2 246.04 
L 565.2 10.8 
L 327.17 10.8 
z
" style="fill: #ffffff"/>
   </g>
   <g id="matplotlib.axis_3">
    <g id="xtick_7">
     <g id="line2d_19">
      <g>
       <use xlink:href="#m6095e673c1" x="337.989545" y="246.04" style="stroke: #000000; stroke-width: 0.8"/>
      </g>
     </g>
     <g id="text_19">
      <!-- 0 -->
      <g transform="translate(334.808295 260.638438) scale(0.1 -0.1)">
       <use xlink:href="#DejaVuSans-30"/>
      </g>
     </g>
    </g>
    <g id="xtick_8">
     <g id="line2d_20">
      <g>
       <use xlink:href="#m6095e673c1" x="392.087273" y="246.04" style="stroke: #000000; stroke-width: 0.8"/>
      </g>
     </g>
     <g id="text_20">
      <!-- 1 -->
      <g transform="translate(388.906023 260.638438) scale(0.1 -0.1)">
       <use xlink:href="#DejaVuSans-31"/>
      </g>
     </g>
    </g>
    <g id="xtick_9">
     <g id="line2d_21">
      <g>
       <use xlink:href="#m6095e673c1" x="446.185" y="246.04" style="stroke: #000000; stroke-width: 0.8"/>
      </g>
     </g>
     <g id="text_21">
      <!-- 2 -->
      <g transform="translate(443.00375 260.638438) scale(0.1 -0.1)">
       <use xlink:href="#DejaVuSans-32"/>
      </g>
     </g>
    </g>
    <g id="xtick_10">
     <g id="line2d_22">
      <g>
       <use xlink:href="#m6095e673c1" x="500.282727" y="246.04" style="stroke: #000000; stroke-width: 0.8"/>
      </g>
     </g>
     <g id="text_22">
      <!-- 3 -->
      <g transform="translate(497.101477 260.638438) scale(0.1 -0.1)">
       <use xlink:href="#DejaVuSans-33"/>
      </g>
     </g>
    </g>
    <g id="xtick_11">
     <g id="line2d_23">
      <g>
       <use xlink:href="#m6095e673c1" x="554.380455" y="246.04" style="stroke: #000000; stroke-width: 0.8"/>
      </g>
     </g>
     <g id="text_23">
      <!-- 4 -->
      <g transform="translate(551.199205 260.638438) scale(0.1 -0.1)">
       <use xlink:href="#DejaVuSans-34"/>
      </g>
     </g>
    </g>
    <g id="text_24">
     <!-- x -->
     <g transform="translate(443.225625 274.316562) scale(0.1 -0.1)">
      <defs>
       <path id="DejaVuSans-78" d="M 3513 3500 
L 2247 1797 
L 3578 0 
L 2900 0 
L 1881 1375 
L 863 0 
L 184 0 
L 1544 1831 
L 300 3500 
L 978 3500 
L 1906 2253 
L 2834 3500 
L 3513 3500 
z
" transform="scale(0.015625)"/>
      </defs>
      <use xlink:href="#DejaVuSans-78"/>
     </g>
    </g>
   </g>
   <g id="matplotlib.axis_4">
    <g id="ytick_9">
     <g id="line2d_24">
      <g>
       <use xlink:href="#med645e26a9" x="327.17" y="239.602531" style="stroke: #000000; stroke-width: 0.8"/>
      </g>
     </g>
     <g id="text_25">
      <!-- 0 -->
      <g transform="translate(313.8075 243.40175) scale(0.1 -0.1)">
       <use xlink:href="#DejaVuSans-30"/>
      </g>
     </g>
    </g>
    <g id="ytick_10">
     <g id="line2d_25">
      <g>
       <use xlink:href="#med645e26a9" x="327.17" y="211.880979" style="stroke: #000000; stroke-width: 0.8"/>
      </g>
     </g>
     <g id="text_26">
      <!-- 2 -->
      <g transform="translate(313.8075 215.680197) scale(0.1 -0.1)">
       <use xlink:href="#DejaVuSans-32"/>
      </g>
     </g>
    </g>
    <g id="ytick_11">
     <g id="line2d_26">
      <g>
       <use xlink:href="#med645e26a9" x="327.17" y="184.159426" style="stroke: #000000; stroke-width: 0.8"/>
      </g>
     </g>
     <g id="text_27">
      <!-- 4 -->
      <g transform="translate(313.8075 187.958645) scale(0.1 -0.1)">
       <use xlink:href="#DejaVuSans-34"/>
      </g>
     </g>
    </g>
    <g id="ytick_12">
     <g id="line2d_27">
      <g>
       <use xlink:href="#med645e26a9" x="327.17" y="156.437874" style="stroke: #000000; stroke-width: 0.8"/>
      </g>
     </g>
     <g id="text_28">
      <!-- 6 -->
      <g transform="translate(313.8075 160.237092) scale(0.1 -0.1)">
       <use xlink:href="#DejaVuSans-36"/>
      </g>
     </g>
    </g>
    <g id="ytick_13">
     <g id="line2d_28">
      <g>
       <use xlink:href="#med645e26a9" x="327.17" y="128.716321" style="stroke: #000000; stroke-width: 0.8"/>
      </g>
     </g>
     <g id="text_29">
      <!-- 8 -->
      <g transform="translate(313.8075 132.51554) scale(0.1 -0.1)">
       <use xlink:href="#DejaVuSans-38"/>
      </g>
     </g>
    </g>
    <g id="ytick_14">
     <g id="line2d_29">
      <g>
       <use xlink:href="#med645e26a9" x="327.17" y="100.994769" style="stroke: #000000; stroke-width: 0.8"/>
      </g>
     </g>
     <g id="text_30">
      <!-- 10 -->
      <g transform="translate(307.445 104.793987) scale(0.1 -0.1)">
       <use xlink:href="#DejaVuSans-31"/>
       <use xlink:href="#DejaVuSans-30" x="63.623047"/>
      </g>
     </g>
    </g>
    <g id="ytick_15">
     <g id="line2d_30">
      <g>
       <use xlink:href="#med645e26a9" x="327.17" y="73.273216" style="stroke: #000000; stroke-width: 0.8"/>
      </g>
     </g>
     <g id="text_31">
      <!-- 12 -->
      <g transform="translate(307.445 77.072435) scale(0.1 -0.1)">
       <use xlink:href="#DejaVuSans-31"/>
       <use xlink:href="#DejaVuSans-32" x="63.623047"/>
      </g>
     </g>
    </g>
    <g id="ytick_16">
     <g id="line2d_31">
      <g>
       <use xlink:href="#med645e26a9" x="327.17" y="45.551664" style="stroke: #000000; stroke-width: 0.8"/>
      </g>
     </g>
     <g id="text_32">
      <!-- 14 -->
      <g transform="translate(307.445 49.350882) scale(0.1 -0.1)">
       <use xlink:href="#DejaVuSans-31"/>
       <use xlink:href="#DejaVuSans-34" x="63.623047"/>
      </g>
     </g>
    </g>
    <g id="ytick_17">
     <g id="line2d_32">
      <g>
       <use xlink:href="#med645e26a9" x="327.17" y="17.830111" style="stroke: #000000; stroke-width: 0.8"/>
      </g>
     </g>
     <g id="text_33">
      <!-- 16 -->
      <g transform="translate(307.445 21.62933) scale(0.1 -0.1)">
       <use xlink:href="#DejaVuSans-31"/>
       <use xlink:href="#DejaVuSans-36" x="63.623047"/>
      </g>
     </g>
    </g>
    <g id="text_34">
     <!-- energy -->
     <g transform="translate(301.365312 145.843438) rotate(-90) scale(0.1 -0.1)">
      <use xlink:href="#DejaVuSans-65"/>
      <use xlink:href="#DejaVuSans-6e" x="61.523438"/>
      <use xlink:href="#DejaVuSans-65" x="124.902344"/>
      <use xlink:href="#DejaVuSans-72" x="186.425781"/>
      <use xlink:href="#DejaVuSans-67" x="225.789062"/>
      <use xlink:href="#DejaVuSans-79" x="289.265625"/>
     </g>
    </g>
   </g>
   <g id="line2d_33">
    <path d="M 337.989545 235.347273 
L 366.36513 231.433904 
L 381.744264 229.547224 
L 394.740715 228.172196 
L 406.654128 227.132308 
L 417.701112 226.386385 
L 428.531487 225.87845 
L 439.145256 225.606917 
L 449.542417 225.563392 
L 459.939577 225.739885 
L 470.553346 226.14333 
L 481.383721 226.779207 
L 492.647312 227.665128 
L 504.560726 228.825623 
L 517.990392 230.364204 
L 533.80274 232.408703 
L 554.380455 235.281857 
L 554.380455 235.281857 
" clip-path="url(#p4466dbd608)" style="fill: none; stroke: #1f77b4; stroke-width: 1.5; stroke-linecap: square"/>
   </g>
   <g id="line2d_34">
    <path d="M 337.989545 201.332928 
L 347.520276 197.393029 
L 352.718857 195.485212 
L 357.051007 194.119216 
L 361.16655 193.056719 
L 364.848878 192.327679 
L 368.531205 191.827461 
L 371.996926 191.579021 
L 375.462646 191.552714 
L 378.928366 191.748946 
L 382.394086 192.162235 
L 386.076414 192.826761 
L 389.975349 193.765549 
L 394.090892 194.990822 
L 398.63965 196.57986 
L 404.271446 198.797863 
L 424.199337 206.894706 
L 428.748095 208.369428 
L 432.863638 209.469731 
L 436.545966 210.235622 
L 440.228293 210.773015 
L 443.694014 211.057512 
L 447.159734 211.121368 
L 450.625454 210.964299 
L 454.091174 210.590944 
L 457.773502 209.965853 
L 461.45583 209.11977 
L 465.571373 207.938178 
L 470.120131 206.386902 
L 475.535319 204.291114 
L 484.199619 200.652701 
L 492.430705 197.275715 
L 497.629285 195.3822 
L 501.961436 194.030689 
L 505.860371 193.034223 
L 509.542699 192.311981 
L 513.225026 191.820795 
L 516.690747 191.580052 
L 520.156467 191.558658 
L 523.622187 191.757068 
L 527.087907 192.172387 
L 530.770235 192.841967 
L 534.669171 193.788894 
L 538.784713 195.022964 
L 543.550079 196.697396 
L 549.181874 198.924439 
L 554.380455 201.110735 
L 554.380455 201.110735 
" clip-path="url(#p4466dbd608)" style="fill: none; stroke: #ff7f0e; stroke-width: 1.5; stroke-linecap: square"/>
   </g>
   <g id="line2d_35">
    <path d="M 337.989545 171.573841 
L 345.354201 167.522259 
L 349.253136 165.627994 
L 352.502249 164.277349 
L 355.534754 163.248769 
L 358.350652 162.522177 
L 361.16655 162.034051 
L 363.76584 161.807463 
L 366.36513 161.802831 
L 368.96442 162.02085 
L 371.563711 162.456291 
L 374.379608 163.160296 
L 377.412113 164.165274 
L 380.661226 165.493283 
L 384.343554 167.25554 
L 388.892312 169.69554 
L 401.23894 176.459745 
L 404.921268 178.145367 
L 408.170381 179.387907 
L 411.202886 180.3001 
L 414.018784 180.908076 
L 416.618074 181.248694 
L 419.217364 181.369028 
L 421.816654 181.266724 
L 424.415945 180.945233 
L 427.231842 180.359826 
L 430.04774 179.542222 
L 433.080245 178.425705 
L 436.329358 176.994893 
L 440.228293 175.028216 
L 445.860089 171.908649 
L 453.657959 167.603617 
L 457.556895 165.699152 
L 461.022615 164.25427 
L 464.05512 163.228324 
L 466.871018 162.505931 
L 469.470308 162.053624 
L 472.069598 161.817465 
L 474.668888 161.801864 
L 477.268179 162.005916 
L 479.867469 162.425174 
L 482.683367 163.112698 
L 485.499264 164.026275 
L 488.531769 165.23545 
L 491.99749 166.854322 
L 496.32964 169.132781 
L 511.058951 177.114083 
L 514.524671 178.614353 
L 517.557177 179.696052 
L 520.373074 180.476198 
L 523.188972 181.01966 
L 525.788262 181.299471 
L 528.387553 181.360907 
L 530.986843 181.201736 
L 533.586133 180.824002 
L 536.402031 180.177185 
L 539.217928 179.300175 
L 542.250434 178.127077 
L 545.716154 176.544718 
L 549.831697 174.412484 
L 554.380455 171.87408 
L 554.380455 171.87408 
" clip-path="url(#p4466dbd608)" style="fill: none; stroke: #2ca02c; stroke-width: 1.5; stroke-linecap: square"/>
   </g>
   <g id="line2d_36">
    <path d="M 337.989545 133.318099 
L 343.837948 129.294994 
L 347.087061 127.323924 
L 349.902959 125.879768 
L 352.285642 124.897263 
L 354.668324 124.16478 
L 356.834399 123.733375 
L 359.000475 123.535444 
L 361.16655 123.577735 
L 363.332625 123.860551 
L 365.4987 124.377299 
L 367.664775 125.114487 
L 370.047458 126.155576 
L 372.646748 127.530776 
L 375.679253 129.389264 
L 379.794796 132.196901 
L 387.809274 137.716925 
L 390.84178 139.516769 
L 393.44107 140.825219 
L 395.823752 141.79305 
L 398.206435 142.510158 
L 400.37251 142.926967 
L 402.538585 143.107192 
L 404.704661 143.045558 
L 406.870736 142.743755 
L 409.036811 142.210438 
L 411.419494 141.374404 
L 413.802176 140.300178 
L 416.618074 138.766116 
L 419.867187 136.718264 
L 424.632552 133.410295 
L 430.697563 129.238241 
L 433.946675 127.275667 
L 436.762573 125.840315 
L 439.145256 124.864674 
L 441.311331 124.194544 
L 443.477406 123.749492 
L 445.643481 123.540656 
L 447.809556 123.572496 
L 449.975632 123.842796 
L 452.141707 124.343902 
L 454.307782 125.064612 
L 456.690465 126.09123 
L 459.289755 127.456657 
L 462.32226 129.309162 
L 466.437803 132.109364 
L 474.668888 137.772103 
L 477.701394 139.565138 
L 480.300684 140.86708 
L 482.683367 141.82696 
L 484.849442 142.47979 
L 487.015517 142.9069 
L 489.181592 143.098686 
L 491.347667 143.051717 
L 493.513742 142.767447 
L 495.679818 142.251186 
L 497.845893 141.51431 
L 500.228575 140.470132 
L 502.827866 139.089026 
L 505.860371 137.227033 
L 509.975914 134.419713 
L 517.990392 128.903548 
L 521.022897 127.104385 
L 523.622187 125.797457 
L 526.00487 124.83295 
L 528.170945 124.174469 
L 530.33702 123.740021 
L 532.503095 123.539048 
L 534.669171 123.577022 
L 536.835246 123.854864 
L 539.001321 124.366719 
L 541.167396 125.099959 
L 543.550079 126.138856 
L 546.149369 127.511379 
L 549.181874 129.36743 
L 553.297417 132.171579 
L 554.380455 132.936782 
L 554.380455 132.936782 
" clip-path="url(#p4466dbd608)" style="fill: none; stroke: #d62728; stroke-width: 1.5; stroke-linecap: square"/>
   </g>
   <g id="line2d_37">
    <path d="M 337.989545 86.55184 
L 342.971518 82.444863 
L 345.787416 80.413241 
L 348.170099 78.974959 
L 350.119566 78.037593 
L 352.069034 77.344481 
L 353.801894 76.948889 
L 355.534754 76.769184 
L 357.267614 76.809517 
L 359.000475 77.070698 
L 360.733335 77.547864 
L 362.682802 78.329456 
L 364.63227 79.34716 
L 367.014953 80.864767 
L 369.614243 82.793493 
L 373.296571 85.828027 
L 379.361581 90.840582 
L 381.960871 92.704002 
L 384.343554 94.138272 
L 386.293022 95.072991 
L 388.242489 95.764225 
L 389.975349 96.159301 
L 391.70821 96.337712 
L 393.44107 96.293837 
L 395.17393 96.02797 
L 396.90679 95.546312 
L 398.856258 94.76182 
L 400.805725 93.744613 
L 402.9718 92.375308 
L 405.571091 90.465193 
L 409.253418 87.441227 
L 415.535036 82.248168 
L 418.134327 80.388209 
L 420.517009 78.955824 
L 422.466477 78.022641 
L 424.415945 77.331908 
L 426.148805 76.939038 
L 427.881665 76.764879 
L 429.614525 76.813559 
L 431.347385 77.083335 
L 433.080245 77.566596 
L 435.029713 78.350631 
L 436.979181 79.368819 
L 439.145256 80.740464 
L 441.744546 82.654738 
L 445.426874 85.679561 
L 451.708492 90.869036 
L 454.524389 92.870059 
L 456.690465 94.158667 
L 458.639932 95.091095 
L 460.5894 95.778333 
L 462.32226 96.166686 
L 464.05512 96.336633 
L 465.78798 96.285274 
L 467.52084 96.015116 
L 469.253701 95.532192 
L 471.203168 94.746781 
L 473.152636 93.72542 
L 475.318711 92.349004 
L 477.918001 90.431774 
L 481.600329 87.407272 
L 487.881947 82.219114 
L 490.481237 80.362118 
L 492.86392 78.933021 
L 494.813387 78.004433 
L 496.762855 77.321631 
L 498.495715 76.936362 
L 500.228575 76.768066 
L 501.961436 76.819394 
L 503.694296 77.09011 
L 505.427156 77.575594 
L 507.376623 78.365695 
L 509.326091 79.392023 
L 511.708774 80.920668 
L 514.524671 83.028353 
L 518.423607 86.263688 
L 523.838795 90.734019 
L 526.654692 92.755845 
L 529.037375 94.180805 
L 530.986843 95.105787 
L 532.93631 95.786027 
L 534.669171 96.170035 
L 536.402031 96.33816 
L 538.134891 96.284994 
L 539.867751 96.010424 
L 541.600611 95.520162 
L 543.550079 94.725395 
L 545.716154 93.570448 
L 548.098837 92.01767 
L 550.914734 89.887672 
L 554.380455 87.007128 
L 554.380455 87.007128 
" clip-path="url(#p4466dbd608)" style="fill: none; stroke: #9467bd; stroke-width: 1.5; stroke-linecap: square"/>
   </g>
   <g id="line2d_38">
    <path d="M 337.989545 31.288925 
L 342.321696 27.12626 
L 344.704378 25.127068 
L 346.653846 23.751232 
L 348.386706 22.773999 
L 350.119566 22.059976 
L 351.635819 21.667956 
L 353.152072 21.502101 
L 354.668324 21.565142 
L 356.184577 21.856783 
L 357.700829 22.371686 
L 359.43369 23.218749 
L 361.16655 24.316024 
L 363.116017 25.803654 
L 365.4987 27.902738 
L 369.181028 31.485853 
L 373.513178 35.631799 
L 375.895861 37.606773 
L 377.845329 38.952943 
L 379.578189 39.899667 
L 381.311049 40.581584 
L 382.827301 40.945205 
L 384.343554 41.082825 
L 385.859807 40.989351 
L 387.376059 40.665755 
L 388.892312 40.119347 
L 390.625172 39.239847 
L 392.57464 37.961853 
L 394.740715 36.241534 
L 397.340005 33.871216 
L 406.220913 25.489531 
L 408.386988 23.9107 
L 410.119848 22.899364 
L 411.852709 22.145626 
L 413.368961 21.714701 
L 414.885214 21.509706 
L 416.401466 21.536639 
L 417.917719 21.795062 
L 419.433972 22.278101 
L 421.166832 23.087919 
L 422.899692 24.148419 
L 424.84916 25.601941 
L 427.231842 27.674184 
L 430.697563 31.028668 
L 435.462928 35.605778 
L 437.845611 37.582606 
L 439.795078 38.933178 
L 441.527938 39.886225 
L 443.260799 40.575338 
L 444.777051 40.943238 
L 446.293304 41.082165 
L 447.809556 40.989451 
L 449.325809 40.668668 
L 450.842062 40.128504 
L 452.574922 39.257801 
L 454.307782 38.141235 
L 456.25725 36.632933 
L 458.85654 34.308347 
L 463.405298 29.848529 
L 466.871018 26.603411 
L 469.253701 24.68226 
L 471.203168 23.39022 
L 472.936028 22.498958 
L 474.452281 21.9415 
L 475.968534 21.605269 
L 477.484786 21.497311 
L 479.001039 21.618884 
L 480.517291 21.966861 
L 482.033544 22.534539 
L 483.766404 23.436508 
L 485.715872 24.741024 
L 487.881947 26.487365 
L 490.697845 29.084396 
L 498.712323 36.699491 
L 500.878398 38.348683 
L 502.827866 39.543805 
L 504.560726 40.336563 
L 506.076978 40.802455 
L 507.593231 41.045001 
L 509.109484 41.059344 
L 510.625736 40.843464 
L 512.141989 40.401071 
L 513.658241 39.742048 
L 515.391102 38.7445 
L 517.340569 37.351642 
L 519.506644 35.532019 
L 522.53915 32.66398 
L 528.820768 26.627011 
L 531.20345 24.702041 
L 533.152918 23.408388 
L 534.885778 22.514666 
L 536.402031 21.952958 
L 537.918283 21.609617 
L 539.434536 21.494054 
L 540.950789 21.610521 
L 542.467041 21.95686 
L 543.983294 22.524505 
L 545.716154 23.42472 
L 547.665622 24.72251 
L 549.831697 26.461273 
L 552.430987 28.84669 
L 554.380455 30.756349 
L 554.380455 30.756349 
" clip-path="url(#p4466dbd608)" style="fill: none; stroke: #8c564b; stroke-width: 1.5; stroke-linecap: square"/>
   </g>
   <g id="patch_9">
    <path d="M 327.17 246.04 
L 327.17 10.8 
" style="fill: none; stroke: #000000; stroke-width: 0.8; stroke-linejoin: miter; stroke-linecap: square"/>
   </g>
   <g id="patch_10">
    <path d="M 565.2 246.04 
L 565.2 10.8 
" style="fill: none; stroke: #000000; stroke-width: 0.8; stroke-linejoin: miter; stroke-linecap: square"/>
   </g>
   <g id="patch_11">
    <path d="M 327.17 246.04 
L 565.2 246.04 
" style="fill: none; stroke: #000000; stroke-width: 0.8; stroke-linejoin: miter; stroke-linecap: square"/>
   </g>
   <g id="patch_12">
    <path d="M 327.17 10.8 
L 565.2 10.8 
" style="fill: none; stroke: #000000; stroke-width: 0.8; stroke-linejoin: miter; stroke-linecap: square"/>
   </g>
   <g id="legend_2">
    <g id="patch_13">
     <path d="M 491.328125 173.954375 
L 558.2 173.954375 
Q 560.2 173.954375 560.2 171.954375 
L 560.2 84.885625 
Q 560.2 82.885625 558.2 82.885625 
L 491.328125 82.885625 
Q 489.328125 82.885625 489.328125 84.885625 
L 489.328125 171.954375 
Q 489.328125 173.954375 491.328125 173.954375 
z
" style="fill: #ffffff; opacity: 0.8; stroke: #cccccc; stroke-linejoin: miter"/>
    </g>
    <g id="line2d_39">
     <path d="M 493.328125 90.984062 
L 503.328125 90.984062 
L 513.328125 90.984062 
" style="fill: none; stroke: #1f77b4; stroke-width: 1.5; stroke-linecap: square"/>
    </g>
    <g id="text_35">
     <!-- state 0 -->
     <g transform="translate(521.328125 94.484062) scale(0.1 -0.1)">
      <use xlink:href="#DejaVuSans-73"/>
      <use xlink:href="#DejaVuSans-74" x="52.099609"/>
      <use xlink:href="#DejaVuSans-61" x="91.308594"/>
      <use xlink:href="#DejaVuSans-74" x="152.587891"/>
      <use xlink:href="#DejaVuSans-65" x="191.796875"/>
      <use xlink:href="#DejaVuSans-20" x="253.320312"/>
      <use xlink:href="#DejaVuSans-30" x="285.107422"/>
     </g>
    </g>
    <g id="line2d_40">
     <path d="M 493.328125 105.662187 
L 503.328125 105.662187 
L 513.328125 105.662187 
" style="fill: none; stroke: #ff7f0e; stroke-width: 1.5; stroke-linecap: square"/>
    </g>
    <g id="text_36">
     <!-- state 1 -->
     <g transform="translate(521.328125 109.162187) scale(0.1 -0.1)">
      <use xlink:href="#DejaVuSans-73"/>
      <use xlink:href="#DejaVuSans-74" x="52.099609"/>
      <use xlink:href="#DejaVuSans-61" x="91.308594"/>
      <use xlink:href="#DejaVuSans-74" x="152.587891"/>
      <use xlink:href="#DejaVuSans-65" x="191.796875"/>
      <use xlink:href="#DejaVuSans-20" x="253.320312"/>
      <use xlink:href="#DejaVuSans-31" x="285.107422"/>
     </g>
    </g>
    <g id="line2d_41">
     <path d="M 493.328125 120.340312 
L 503.328125 120.340312 
L 513.328125 120.340312 
" style="fill: none; stroke: #2ca02c; stroke-width: 1.5; stroke-linecap: square"/>
    </g>
    <g id="text_37">
     <!-- state 2 -->
     <g transform="translate(521.328125 123.840312) scale(0.1 -0.1)">
      <use xlink:href="#DejaVuSans-73"/>
      <use xlink:href="#DejaVuSans-74" x="52.099609"/>
      <use xlink:href="#DejaVuSans-61" x="91.308594"/>
      <use xlink:href="#DejaVuSans-74" x="152.587891"/>
      <use xlink:href="#DejaVuSans-65" x="191.796875"/>
      <use xlink:href="#DejaVuSans-20" x="253.320312"/>
      <use xlink:href="#DejaVuSans-32" x="285.107422"/>
     </g>
    </g>
    <g id="line2d_42">
     <path d="M 493.328125 135.018438 
L 503.328125 135.018438 
L 513.328125 135.018438 
" style="fill: none; stroke: #d62728; stroke-width: 1.5; stroke-linecap: square"/>
    </g>
    <g id="text_38">
     <!-- state 3 -->
     <g transform="translate(521.328125 138.518438) scale(0.1 -0.1)">
      <use xlink:href="#DejaVuSans-73"/>
      <use xlink:href="#DejaVuSans-74" x="52.099609"/>
      <use xlink:href="#DejaVuSans-61" x="91.308594"/>
      <use xlink:href="#DejaVuSans-74" x="152.587891"/>
      <use xlink:href="#DejaVuSans-65" x="191.796875"/>
      <use xlink:href="#DejaVuSans-20" x="253.320312"/>
      <use xlink:href="#DejaVuSans-33" x="285.107422"/>
     </g>
    </g>
    <g id="line2d_43">
     <path d="M 493.328125 149.696562 
L 503.328125 149.696562 
L 513.328125 149.696562 
" style="fill: none; stroke: #9467bd; stroke-width: 1.5; stroke-linecap: square"/>
    </g>
    <g id="text_39">
     <!-- state 4 -->
     <g transform="translate(521.328125 153.196562) scale(0.1 -0.1)">
      <use xlink:href="#DejaVuSans-73"/>
      <use xlink:href="#DejaVuSans-74" x="52.099609"/>
      <use xlink:href="#DejaVuSans-61" x="91.308594"/>
      <use xlink:href="#DejaVuSans-74" x="152.587891"/>
      <use xlink:href="#DejaVuSans-65" x="191.796875"/>
      <use xlink:href="#DejaVuSans-20" x="253.320312"/>
      <use xlink:href="#DejaVuSans-34" x="285.107422"/>
     </g>
    </g>
    <g id="line2d_44">
     <path d="M 493.328125 164.374687 
L 503.328125 164.374687 
L 513.328125 164.374687 
" style="fill: none; stroke: #8c564b; stroke-width: 1.5; stroke-linecap: square"/>
    </g>
    <g id="text_40">
     <!-- state 5 -->
     <g transform="translate(521.328125 167.874687) scale(0.1 -0.1)">
      <use xlink:href="#DejaVuSans-73"/>
      <use xlink:href="#DejaVuSans-74" x="52.099609"/>
      <use xlink:href="#DejaVuSans-61" x="91.308594"/>
      <use xlink:href="#DejaVuSans-74" x="152.587891"/>
      <use xlink:href="#DejaVuSans-65" x="191.796875"/>
      <use xlink:href="#DejaVuSans-20" x="253.320312"/>
      <use xlink:href="#DejaVuSans-35" x="285.107422"/>
     </g>
    </g>
   </g>
  </g>
 </g>
 <defs>
  <clipPath id="pbbc3cf3bf3">
   <rect x="44.57" y="10.8" width="238.03" height="235.24"/>
  </clipPath>
  <clipPath id="p4466dbd608">
   <rect x="327.17" y="10.8" width="238.03" height="235.24"/>
  </clipPath>
 </defs>
</svg>
