<?xml version="1.0" encoding="utf-8" standalone="no"?>
<!DOCTYPE svg PUBLIC "-//W3C//DTD SVG 1.1//EN"
  "http://www.w3.org/Graphics/SVG/1.1/DTD/svg11.dtd">
<svg xmlns:xlink="http://www.w3.org/1999/xlink" width="576pt" height="288pt" viewBox="0 0 576 288" xmlns="http://www.w3.org/2000/svg" version="1.1">
 <metadata>
  <rdf:RDF xmlns:dc="http://purl.org/dc/elements/1.1/" xmlns:cc="http://creativecommons.org/ns#" xmlns:rdf="http://www.w3.org/1999/02/22-rdf-syntax-ns#">
   <cc:Work>
    <dc:type rdf:resource="http://purl.org/dc/dcmitype/StillImage"/>
    <dc:date>2024-05-01T22:31:10.644893</dc:date>
    <dc:format>image/svg+xml</dc:format>
    <dc:creator>
     <cc:Agent>
      <dc:title>Matplotlib v3.7.2, https://matplotlib.org/</dc:title>
     </cc:Agent>
    </dc:creator>
   </cc:Work>
  </rdf:RDF>
 </metadata>
 <defs>
  <style type="text/css">*{stroke-linejoin: round; stroke-linecap: butt}</style>
 </defs>
 <g id="figure_1">
  <g id="patch_1">
   <path d="M 0 288 
L 576 288 
L 576 0 
L 0 0 
z
" style="fill: #ffffff"/>
  </g>
  <g id="axes_1">
   <g id="patch_2">
    <path d="M 44.57 246.04 
L 282.6 246.04 
L 282.6 10.8 
L 44.57 10.8 
z
" style="fill: #ffffff"/>
   </g>
   <g id="matplotlib.axis_1">
    <g id="xtick_1">
     <g id="line2d_1">
      <defs>
       <path id="mc8a85a029c" d="M 0 0 
L 0 3.5 
" style="stroke: #000000; stroke-width: 0.8"/>
      </defs>
      <g>
       <use xlink:href="#mc8a85a029c" x="55.389545" y="246.04" style="stroke: #000000; stroke-width: 0.8"/>
      </g>
     </g>
     <g id="text_1">
      <!-- 0 -->
      <g transform="translate(52.208295 260.638438) scale(0.1 -0.1)">
       <defs>
        <path id="DejaVuSans-30" d="M 2034 4250 
Q 1547 4250 1301 3770 
Q 1056 3291 1056 2328 
Q 1056 1369 1301 889 
Q 1547 409 2034 409 
Q 2525 409 2770 889 
Q 3016 1369 3016 2328 
Q 3016 3291 2770 3770 
Q 2525 4250 2034 4250 
z
M 2034 4750 
Q 2819 4750 3233 4129 
Q 3647 3509 3647 2328 
Q 3647 1150 3233 529 
Q 2819 -91 2034 -91 
Q 1250 -91 836 529 
Q 422 1150 422 2328 
Q 422 3509 836 4129 
Q 1250 4750 2034 4750 
z
" transform="scale(0.015625)"/>
       </defs>
       <use xlink:href="#DejaVuSans-30"/>
      </g>
     </g>
    </g>
    <g id="xtick_2">
     <g id="line2d_2">
      <g>
       <use xlink:href="#mc8a85a029c" x="109.487273" y="246.04" style="stroke: #000000; stroke-width: 0.8"/>
      </g>
     </g>
     <g id="text_2">
      <!-- 1 -->
      <g transform="translate(106.306023 260.638438) scale(0.1 -0.1)">
       <defs>
        <path id="DejaVuSans-31" d="M 794 531 
L 1825 531 
L 1825 4091 
L 703 3866 
L 703 4441 
L 1819 4666 
L 2450 4666 
L 2450 531 
L 3481 531 
L 3481 0 
L 794 0 
L 794 531 
z
" transform="scale(0.015625)"/>
       </defs>
       <use xlink:href="#DejaVuSans-31"/>
      </g>
     </g>
    </g>
    <g id="xtick_3">
     <g id="line2d_3">
      <g>
       <use xlink:href="#mc8a85a029c" x="163.585" y="246.04" style="stroke: #000000; stroke-width: 0.8"/>
      </g>
     </g>
     <g id="text_3">
      <!-- 2 -->
      <g transform="translate(160.40375 260.638438) scale(0.1 -0.1)">
       <defs>
        <path id="DejaVuSans-32" d="M 1228 531 
L 3431 531 
L 3431 0 
L 469 0 
L 469 531 
Q 828 903 1448 1529 
Q 2069 2156 2228 2338 
Q 2531 2678 2651 2914 
Q 2772 3150 2772 3378 
Q 2772 3750 2511 3984 
Q 2250 4219 1831 4219 
Q 1534 4219 1204 4116 
Q 875 4013 500 3803 
L 500 4441 
Q 881 4594 1212 4672 
Q 1544 4750 1819 4750 
Q 2544 4750 2975 4387 
Q 3406 4025 3406 3419 
Q 3406 3131 3298 2873 
Q 3191 2616 2906 2266 
Q 2828 2175 2409 1742 
Q 1991 1309 1228 531 
z
" transform="scale(0.015625)"/>
       </defs>
       <use xlink:href="#DejaVuSans-32"/>
      </g>
     </g>
    </g>
    <g id="xtick_4">
     <g id="line2d_4">
      <g>
       <use xlink:href="#mc8a85a029c" x="217.682727" y="246.04" style="stroke: #000000; stroke-width: 0.8"/>
      </g>
     </g>
     <g id="text_4">
      <!-- 3 -->
      <g transform="translate(214.501477 260.638438) scale(0.1 -0.1)">
       <defs>
        <path id="DejaVuSans-33" d="M 2597 2516 
Q 3050 2419 3304 2112 
Q 3559 1806 3559 1356 
Q 3559 666 3084 287 
Q 2609 -91 1734 -91 
Q 1441 -91 1130 -33 
Q 819 25 488 141 
L 488 750 
Q 750 597 1062 519 
Q 1375 441 1716 441 
Q 2309 441 2620 675 
Q 2931 909 2931 1356 
Q 2931 1769 2642 2001 
Q 2353 2234 1838 2234 
L 1294 2234 
L 1294 2753 
L 1863 2753 
Q 2328 2753 2575 2939 
Q 2822 3125 2822 3475 
Q 2822 3834 2567 4026 
Q 2313 4219 1838 4219 
Q 1578 4219 1281 4162 
Q 984 4106 628 3988 
L 628 4550 
Q 988 4650 1302 4700 
Q 1616 4750 1894 4750 
Q 2613 4750 3031 4423 
Q 3450 4097 3450 3541 
Q 3450 3153 3228 2886 
Q 3006 2619 2597 2516 
z
" transform="scale(0.015625)"/>
       </defs>
       <use xlink:href="#DejaVuSans-33"/>
      </g>
     </g>
    </g>
    <g id="xtick_5">
     <g id="line2d_5">
      <g>
       <use xlink:href="#mc8a85a029c" x="271.780455" y="246.04" style="stroke: #000000; stroke-width: 0.8"/>
      </g>
     </g>
     <g id="text_5">
      <!-- 4 -->
      <g transform="translate(268.599205 260.638438) scale(0.1 -0.1)">
       <defs>
        <path id="DejaVuSans-34" d="M 2419 4116 
L 825 1625 
L 2419 1625 
L 2419 4116 
z
M 2253 4666 
L 3047 4666 
L 3047 1625 
L 3713 1625 
L 3713 1100 
L 3047 1100 
L 3047 0 
L 2419 0 
L 2419 1100 
L 313 1100 
L 313 1709 
L 2253 4666 
z
" transform="scale(0.015625)"/>
       </defs>
       <use xlink:href="#DejaVuSans-34"/>
      </g>
     </g>
    </g>
    <g id="text_6">
     <!-- state -->
     <g transform="translate(150.919375 274.316562) scale(0.1 -0.1)">
      <defs>
       <path id="DejaVuSans-73" d="M 2834 3397 
L 2834 2853 
Q 2591 2978 2328 3040 
Q 2066 3103 1784 3103 
Q 1356 3103 1142 2972 
Q 928 2841 928 2578 
Q 928 2378 1081 2264 
Q 1234 2150 1697 2047 
L 1894 2003 
Q 2506 1872 2764 1633 
Q 3022 1394 3022 966 
Q 3022 478 2636 193 
Q 2250 -91 1575 -91 
Q 1294 -91 989 -36 
Q 684 19 347 128 
L 347 722 
Q 666 556 975 473 
Q 1284 391 1588 391 
Q 1994 391 2212 530 
Q 2431 669 2431 922 
Q 2431 1156 2273 1281 
Q 2116 1406 1581 1522 
L 1381 1569 
Q 847 1681 609 1914 
Q 372 2147 372 2553 
Q 372 3047 722 3315 
Q 1072 3584 1716 3584 
Q 2034 3584 2315 3537 
Q 2597 3491 2834 3397 
z
" transform="scale(0.015625)"/>
       <path id="DejaVuSans-74" d="M 1172 4494 
L 1172 3500 
L 2356 3500 
L 2356 3053 
L 1172 3053 
L 1172 1153 
Q 1172 725 1289 603 
Q 1406 481 1766 481 
L 2356 481 
L 2356 0 
L 1766 0 
Q 1100 0 847 248 
Q 594 497 594 1153 
L 594 3053 
L 172 3053 
L 172 3500 
L 594 3500 
L 594 4494 
L 1172 4494 
z
" transform="scale(0.015625)"/>
       <path id="DejaVuSans-61" d="M 2194 1759 
Q 1497 1759 1228 1600 
Q 959 1441 959 1056 
Q 959 750 1161 570 
Q 1363 391 1709 391 
Q 2188 391 2477 730 
Q 2766 1069 2766 1631 
L 2766 1759 
L 2194 1759 
z
M 3341 1997 
L 3341 0 
L 2766 0 
L 2766 531 
Q 2569 213 2275 61 
Q 1981 -91 1556 -91 
Q 1019 -91 701 211 
Q 384 513 384 1019 
Q 384 1609 779 1909 
Q 1175 2209 1959 2209 
L 2766 2209 
L 2766 2266 
Q 2766 2663 2505 2880 
Q 2244 3097 1772 3097 
Q 1472 3097 1187 3025 
Q 903 2953 641 2809 
L 641 3341 
Q 956 3463 1253 3523 
Q 1550 3584 1831 3584 
Q 2591 3584 2966 3190 
Q 3341 2797 3341 1997 
z
" transform="scale(0.015625)"/>
       <path id="DejaVuSans-65" d="M 3597 1894 
L 3597 1613 
L 953 1613 
Q 991 1019 1311 708 
Q 1631 397 2203 397 
Q 2534 397 2845 478 
Q 3156 559 3463 722 
L 3463 178 
Q 3153 47 2828 -22 
Q 2503 -91 2169 -91 
Q 1331 -91 842 396 
Q 353 884 353 1716 
Q 353 2575 817 3079 
Q 1281 3584 2069 3584 
Q 2775 3584 3186 3129 
Q 3597 2675 3597 1894 
z
M 3022 2063 
Q 3016 2534 2758 2815 
Q 2500 3097 2075 3097 
Q 1594 3097 1305 2825 
Q 1016 2553 972 2059 
L 3022 2063 
z
" transform="scale(0.015625)"/>
      </defs>
      <use xlink:href="#DejaVuSans-73"/>
      <use xlink:href="#DejaVuSans-74" x="52.099609"/>
      <use xlink:href="#DejaVuSans-61" x="91.308594"/>
      <use xlink:href="#DejaVuSans-74" x="152.587891"/>
      <use xlink:href="#DejaVuSans-65" x="191.796875"/>
     </g>
    </g>
   </g>
   <g id="matplotlib.axis_2">
    <g id="ytick_1">
     <g id="line2d_6">
      <defs>
       <path id="m760dc50579" d="M 0 0 
L -3.5 0 
" style="stroke: #000000; stroke-width: 0.8"/>
      </defs>
      <g>
       <use xlink:href="#m760dc50579" x="44.57" y="235.347273" style="stroke: #000000; stroke-width: 0.8"/>
      </g>
     </g>
     <g id="text_7">
      <!-- 0 -->
      <g transform="translate(31.2075 239.146491) scale(0.1 -0.1)">
       <use xlink:href="#DejaVuSans-30"/>
      </g>
     </g>
    </g>
    <g id="ytick_2">
     <g id="line2d_7">
      <g>
       <use xlink:href="#m760dc50579" x="44.57" y="196.612524" style="stroke: #000000; stroke-width: 0.8"/>
      </g>
     </g>
     <g id="text_8">
      <!-- 2 -->
      <g transform="translate(31.2075 200.411743) scale(0.1 -0.1)">
       <use xlink:href="#DejaVuSans-32"/>
      </g>
     </g>
    </g>
    <g id="ytick_3">
     <g id="line2d_8">
      <g>
       <use xlink:href="#m760dc50579" x="44.57" y="157.877776" style="stroke: #000000; stroke-width: 0.8"/>
      </g>
     </g>
     <g id="text_9">
      <!-- 4 -->
      <g transform="translate(31.2075 161.676995) scale(0.1 -0.1)">
       <use xlink:href="#DejaVuSans-34"/>
      </g>
     </g>
    </g>
    <g id="ytick_4">
     <g id="line2d_9">
      <g>
       <use xlink:href="#m760dc50579" x="44.57" y="119.143028" style="stroke: #000000; stroke-width: 0.8"/>
      </g>
     </g>
     <g id="text_10">
      <!-- 6 -->
      <g transform="translate(31.2075 122.942247) scale(0.1 -0.1)">
       <defs>
        <path id="DejaVuSans-36" d="M 2113 2584 
Q 1688 2584 1439 2293 
Q 1191 2003 1191 1497 
Q 1191 994 1439 701 
Q 1688 409 2113 409 
Q 2538 409 2786 701 
Q 3034 994 3034 1497 
Q 3034 2003 2786 2293 
Q 2538 2584 2113 2584 
z
M 3366 4563 
L 3366 3988 
Q 3128 4100 2886 4159 
Q 2644 4219 2406 4219 
Q 1781 4219 1451 3797 
Q 1122 3375 1075 2522 
Q 1259 2794 1537 2939 
Q 1816 3084 2150 3084 
Q 2853 3084 3261 2657 
Q 3669 2231 3669 1497 
Q 3669 778 3244 343 
Q 2819 -91 2113 -91 
Q 1303 -91 875 529 
Q 447 1150 447 2328 
Q 447 3434 972 4092 
Q 1497 4750 2381 4750 
Q 2619 4750 2861 4703 
Q 3103 4656 3366 4563 
z
" transform="scale(0.015625)"/>
       </defs>
       <use xlink:href="#DejaVuSans-36"/>
      </g>
     </g>
    </g>
    <g id="ytick_5">
     <g id="line2d_10">
      <g>
       <use xlink:href="#m760dc50579" x="44.57" y="80.408279" style="stroke: #000000; stroke-width: 0.8"/>
      </g>
     </g>
     <g id="text_11">
      <!-- 8 -->
      <g transform="translate(31.2075 84.207498) scale(0.1 -0.1)">
       <defs>
        <path id="DejaVuSans-38" d="M 2034 2216 
Q 1584 2216 1326 1975 
Q 1069 1734 1069 1313 
Q 1069 891 1326 650 
Q 1584 409 2034 409 
Q 2484 409 2743 651 
Q 3003 894 3003 1313 
Q 3003 1734 2745 1975 
Q 2488 2216 2034 2216 
z
M 1403 2484 
Q 997 2584 770 2862 
Q 544 3141 544 3541 
Q 544 4100 942 4425 
Q 1341 4750 2034 4750 
Q 2731 4750 3128 4425 
Q 3525 4100 3525 3541 
Q 3525 3141 3298 2862 
Q 3072 2584 2669 2484 
Q 3125 2378 3379 2068 
Q 3634 1759 3634 1313 
Q 3634 634 3220 271 
Q 2806 -91 2034 -91 
Q 1263 -91 848 271 
Q 434 634 434 1313 
Q 434 1759 690 2068 
Q 947 2378 1403 2484 
z
M 1172 3481 
Q 1172 3119 1398 2916 
Q 1625 2713 2034 2713 
Q 2441 2713 2670 2916 
Q 2900 3119 2900 3481 
Q 2900 3844 2670 4047 
Q 2441 4250 2034 4250 
Q 1625 4250 1398 4047 
Q 1172 3844 1172 3481 
z
" transform="scale(0.015625)"/>
       </defs>
       <use xlink:href="#DejaVuSans-38"/>
      </g>
     </g>
    </g>
    <g id="ytick_6">
     <g id="line2d_11">
      <g>
       <use xlink:href="#m760dc50579" x="44.57" y="41.673531" style="stroke: #000000; stroke-width: 0.8"/>
      </g>
     </g>
     <g id="text_12">
      <!-- 10 -->
      <g transform="translate(24.845 45.47275) scale(0.1 -0.1)">
       <use xlink:href="#DejaVuSans-31"/>
       <use xlink:href="#DejaVuSans-30" x="63.623047"/>
      </g>
     </g>
    </g>
    <g id="text_13">
     <!-- energy -->
     <g transform="translate(18.765313 145.843438) rotate(-90) scale(0.1 -0.1)">
      <defs>
       <path id="DejaVuSans-6e" d="M 3513 2113 
L 3513 0 
L 2938 0 
L 2938 2094 
Q 2938 2591 2744 2837 
Q 2550 3084 2163 3084 
Q 1697 3084 1428 2787 
Q 1159 2491 1159 1978 
L 1159 0 
L 581 0 
L 581 3500 
L 1159 3500 
L 1159 2956 
Q 1366 3272 1645 3428 
Q 1925 3584 2291 3584 
Q 2894 3584 3203 3211 
Q 3513 2838 3513 2113 
z
" transform="scale(0.015625)"/>
       <path id="DejaVuSans-72" d="M 2631 2963 
Q 2534 3019 2420 3045 
Q 2306 3072 2169 3072 
Q 1681 3072 1420 2755 
Q 1159 2438 1159 1844 
L 1159 0 
L 581 0 
L 581 3500 
L 1159 3500 
L 1159 2956 
Q 1341 3275 1631 3429 
Q 1922 3584 2338 3584 
Q 2397 3584 2469 3576 
Q 2541 3569 2628 3553 
L 2631 2963 
z
" transform="scale(0.015625)"/>
       <path id="DejaVuSans-67" d="M 2906 1791 
Q 2906 2416 2648 2759 
Q 2391 3103 1925 3103 
Q 1463 3103 1205 2759 
Q 947 2416 947 1791 
Q 947 1169 1205 825 
Q 1463 481 1925 481 
Q 2391 481 2648 825 
Q 2906 1169 2906 1791 
z
M 3481 434 
Q 3481 -459 3084 -895 
Q 2688 -1331 1869 -1331 
Q 1566 -1331 1297 -1286 
Q 1028 -1241 775 -1147 
L 775 -588 
Q 1028 -725 1275 -790 
Q 1522 -856 1778 -856 
Q 2344 -856 2625 -561 
Q 2906 -266 2906 331 
L 2906 616 
Q 2728 306 2450 153 
Q 2172 0 1784 0 
Q 1141 0 747 490 
Q 353 981 353 1791 
Q 353 2603 747 3093 
Q 1141 3584 1784 3584 
Q 2172 3584 2450 3431 
Q 2728 3278 2906 2969 
L 2906 3500 
L 3481 3500 
L 3481 434 
z
" transform="scale(0.015625)"/>
       <path id="DejaVuSans-79" d="M 2059 -325 
Q 1816 -950 1584 -1140 
Q 1353 -1331 966 -1331 
L 506 -1331 
L 506 -850 
L 844 -850 
Q 1081 -850 1212 -737 
Q 1344 -625 1503 -206 
L 1606 56 
L 191 3500 
L 800 3500 
L 1894 763 
L 2988 3500 
L 3597 3500 
L 2059 -325 
z
" transform="scale(0.015625)"/>
      </defs>
      <use xlink:href="#DejaVuSans-65"/>
      <use xlink:href="#DejaVuSans-6e" x="61.523438"/>
      <use xlink:href="#DejaVuSans-65" x="124.902344"/>
      <use xlink:href="#DejaVuSans-72" x="186.425781"/>
      <use xlink:href="#DejaVuSans-67" x="225.789062"/>
      <use xlink:href="#DejaVuSans-79" x="289.265625"/>
     </g>
    </g>
   </g>
   <g id="line2d_12">
    <defs>
     <path id="m12cfab8400" d="M 0 3 
C 0.795609 3 1.55874 2.683901 2.12132 2.12132 
C 2.683901 1.55874 3 0.795609 3 0 
C 3 -0.795609 2.683901 -1.55874 2.12132 -2.12132 
C 1.55874 -2.683901 0.795609 -3 0 -3 
C -0.795609 -3 -1.55874 -2.683901 -2.12132 -2.12132 
C -2.683901 -1.55874 -3 -0.795609 -3 0 
C -3 0.795609 -2.683901 1.55874 -2.12132 2.12132 
C -1.55874 2.683901 -0.795609 3 0 3 
z
" style="stroke: #1f77b4"/>
    </defs>
    <g clip-path="url(#pb5c7cb58d9)">
     <use xlink:href="#m12cfab8400" x="55.389545" y="229.401489" style="fill: #1f77b4; stroke: #1f77b4"/>
     <use xlink:href="#m12cfab8400" x="109.487273" y="181.873953" style="fill: #1f77b4; stroke: #1f77b4"/>
     <use xlink:href="#m12cfab8400" x="163.585" y="140.2922" style="fill: #1f77b4; stroke: #1f77b4"/>
     <use xlink:href="#m12cfab8400" x="217.682727" y="86.838248" style="fill: #1f77b4; stroke: #1f77b4"/>
     <use xlink:href="#m12cfab8400" x="271.780455" y="21.492727" style="fill: #1f77b4; stroke: #1f77b4"/>
    </g>
   </g>
   <g id="line2d_13">
    <path d="M 55.389545 235.347273 
L 109.487273 229.373888 
L 163.585 211.453733 
L 217.682727 181.586807 
L 271.780455 139.773112 
" clip-path="url(#pb5c7cb58d9)" style="fill: none; stroke: #ff7f0e; stroke-width: 1.5; stroke-linecap: square"/>
   </g>
   <g id="patch_3">
    <path d="M 44.57 246.04 
L 44.57 10.8 
" style="fill: none; stroke: #000000; stroke-width: 0.8; stroke-linejoin: miter; stroke-linecap: square"/>
   </g>
   <g id="patch_4">
    <path d="M 282.6 246.04 
L 282.6 10.8 
" style="fill: none; stroke: #000000; stroke-width: 0.8; stroke-linejoin: miter; stroke-linecap: square"/>
   </g>
   <g id="patch_5">
    <path d="M 44.57 246.04 
L 282.6 246.04 
" style="fill: none; stroke: #000000; stroke-width: 0.8; stroke-linejoin: miter; stroke-linecap: square"/>
   </g>
   <g id="patch_6">
    <path d="M 44.57 10.8 
L 282.6 10.8 
" style="fill: none; stroke: #000000; stroke-width: 0.8; stroke-linejoin: miter; stroke-linecap: square"/>
   </g>
   <g id="legend_1">
    <g id="patch_7">
     <path d="M 51.57 48.15625 
L 207.449687 48.15625 
Q 209.449687 48.15625 209.449687 46.15625 
L 209.449687 17.8 
Q 209.449687 15.8 207.449687 15.8 
L 51.57 15.8 
Q 49.57 15.8 49.57 17.8 
L 49.57 46.15625 
Q 49.57 48.15625 51.57 48.15625 
z
" style="fill: #ffffff; opacity: 0.8; stroke: #cccccc; stroke-linejoin: miter"/>
    </g>
    <g id="line2d_14">
     <g>
      <use xlink:href="#m12cfab8400" x="63.57" y="23.898438" style="fill: #1f77b4; stroke: #1f77b4"/>
     </g>
    </g>
    <g id="text_14">
     <!-- numerical eigenenergies -->
     <g transform="translate(81.57 27.398438) scale(0.1 -0.1)">
      <defs>
       <path id="DejaVuSans-75" d="M 544 1381 
L 544 3500 
L 1119 3500 
L 1119 1403 
Q 1119 906 1312 657 
Q 1506 409 1894 409 
Q 2359 409 2629 706 
Q 2900 1003 2900 1516 
L 2900 3500 
L 3475 3500 
L 3475 0 
L 2900 0 
L 2900 538 
Q 2691 219 2414 64 
Q 2138 -91 1772 -91 
Q 1169 -91 856 284 
Q 544 659 544 1381 
z
M 1991 3584 
L 1991 3584 
z
" transform="scale(0.015625)"/>
       <path id="DejaVuSans-6d" d="M 3328 2828 
Q 3544 3216 3844 3400 
Q 4144 3584 4550 3584 
Q 5097 3584 5394 3201 
Q 5691 2819 5691 2113 
L 5691 0 
L 5113 0 
L 5113 2094 
Q 5113 2597 4934 2840 
Q 4756 3084 4391 3084 
Q 3944 3084 3684 2787 
Q 3425 2491 3425 1978 
L 3425 0 
L 2847 0 
L 2847 2094 
Q 2847 2600 2669 2842 
Q 2491 3084 2119 3084 
Q 1678 3084 1418 2786 
Q 1159 2488 1159 1978 
L 1159 0 
L 581 0 
L 581 3500 
L 1159 3500 
L 1159 2956 
Q 1356 3278 1631 3431 
Q 1906 3584 2284 3584 
Q 2666 3584 2933 3390 
Q 3200 3197 3328 2828 
z
" transform="scale(0.015625)"/>
       <path id="DejaVuSans-69" d="M 603 3500 
L 1178 3500 
L 1178 0 
L 603 0 
L 603 3500 
z
M 603 4863 
L 1178 4863 
L 1178 4134 
L 603 4134 
L 603 4863 
z
" transform="scale(0.015625)"/>
       <path id="DejaVuSans-63" d="M 3122 3366 
L 3122 2828 
Q 2878 2963 2633 3030 
Q 2388 3097 2138 3097 
Q 1578 3097 1268 2742 
Q 959 2388 959 1747 
Q 959 1106 1268 751 
Q 1578 397 2138 397 
Q 2388 397 2633 464 
Q 2878 531 3122 666 
L 3122 134 
Q 2881 22 2623 -34 
Q 2366 -91 2075 -91 
Q 1284 -91 818 406 
Q 353 903 353 1747 
Q 353 2603 823 3093 
Q 1294 3584 2113 3584 
Q 2378 3584 2631 3529 
Q 2884 3475 3122 3366 
z
" transform="scale(0.015625)"/>
       <path id="DejaVuSans-6c" d="M 603 4863 
L 1178 4863 
L 1178 0 
L 603 0 
L 603 4863 
z
" transform="scale(0.015625)"/>
       <path id="DejaVuSans-20" transform="scale(0.015625)"/>
      </defs>
      <use xlink:href="#DejaVuSans-6e"/>
      <use xlink:href="#DejaVuSans-75" x="63.378906"/>
      <use xlink:href="#DejaVuSans-6d" x="126.757812"/>
      <use xlink:href="#DejaVuSans-65" x="224.169922"/>
      <use xlink:href="#DejaVuSans-72" x="285.693359"/>
      <use xlink:href="#DejaVuSans-69" x="326.806641"/>
      <use xlink:href="#DejaVuSans-63" x="354.589844"/>
      <use xlink:href="#DejaVuSans-61" x="409.570312"/>
      <use xlink:href="#DejaVuSans-6c" x="470.849609"/>
      <use xlink:href="#DejaVuSans-20" x="498.632812"/>
      <use xlink:href="#DejaVuSans-65" x="530.419922"/>
      <use xlink:href="#DejaVuSans-69" x="591.943359"/>
      <use xlink:href="#DejaVuSans-67" x="619.726562"/>
      <use xlink:href="#DejaVuSans-65" x="683.203125"/>
      <use xlink:href="#DejaVuSans-6e" x="744.726562"/>
      <use xlink:href="#DejaVuSans-65" x="808.105469"/>
      <use xlink:href="#DejaVuSans-6e" x="869.628906"/>
      <use xlink:href="#DejaVuSans-65" x="933.007812"/>
      <use xlink:href="#DejaVuSans-72" x="994.53125"/>
      <use xlink:href="#DejaVuSans-67" x="1033.894531"/>
      <use xlink:href="#DejaVuSans-69" x="1097.371094"/>
      <use xlink:href="#DejaVuSans-65" x="1125.154297"/>
      <use xlink:href="#DejaVuSans-73" x="1186.677734"/>
     </g>
    </g>
    <g id="line2d_15">
     <path d="M 53.57 38.576562 
L 63.57 38.576562 
L 73.57 38.576562 
" style="fill: none; stroke: #ff7f0e; stroke-width: 1.5; stroke-linecap: square"/>
    </g>
    <g id="text_15">
     <!-- analytical eigenenergies -->
     <g transform="translate(81.57 42.076562) scale(0.1 -0.1)">
      <use xlink:href="#DejaVuSans-61"/>
      <use xlink:href="#DejaVuSans-6e" x="61.279297"/>
      <use xlink:href="#DejaVuSans-61" x="124.658203"/>
      <use xlink:href="#DejaVuSans-6c" x="185.9375"/>
      <use xlink:href="#DejaVuSans-79" x="213.720703"/>
      <use xlink:href="#DejaVuSans-74" x="272.900391"/>
      <use xlink:href="#DejaVuSans-69" x="312.109375"/>
      <use xlink:href="#DejaVuSans-63" x="339.892578"/>
      <use xlink:href="#DejaVuSans-61" x="394.873047"/>
      <use xlink:href="#DejaVuSans-6c" x="456.152344"/>
      <use xlink:href="#DejaVuSans-20" x="483.935547"/>
      <use xlink:href="#DejaVuSans-65" x="515.722656"/>
      <use xlink:href="#DejaVuSans-69" x="577.246094"/>
      <use xlink:href="#DejaVuSans-67" x="605.029297"/>
      <use xlink:href="#DejaVuSans-65" x="668.505859"/>
      <use xlink:href="#DejaVuSans-6e" x="730.029297"/>
      <use xlink:href="#DejaVuSans-65" x="793.408203"/>
      <use xlink:href="#DejaVuSans-6e" x="854.931641"/>
      <use xlink:href="#DejaVuSans-65" x="918.310547"/>
      <use xlink:href="#DejaVuSans-72" x="979.833984"/>
      <use xlink:href="#DejaVuSans-67" x="1019.197266"/>
      <use xlink:href="#DejaVuSans-69" x="1082.673828"/>
      <use xlink:href="#DejaVuSans-65" x="1110.457031"/>
      <use xlink:href="#DejaVuSans-73" x="1171.980469"/>
     </g>
    </g>
   </g>
  </g>
  <g id="axes_2">
   <g id="patch_8">
    <path d="M 327.17 246.04 
L 565.2 246.04 
L 565.2 10.8 
L 327.17 10.8 
z
" style="fill: #ffffff"/>
   </g>
   <g id="matplotlib.axis_3">
    <g id="xtick_6">
     <g id="line2d_16">
      <g>
       <use xlink:href="#mc8a85a029c" x="337.989545" y="246.04" style="stroke: #000000; stroke-width: 0.8"/>
      </g>
     </g>
     <g id="text_16">
      <!-- 0 -->
      <g transform="translate(334.808295 260.638438) scale(0.1 -0.1)">
       <use xlink:href="#DejaVuSans-30"/>
      </g>
     </g>
    </g>
    <g id="xtick_7">
     <g id="line2d_17">
      <g>
       <use xlink:href="#mc8a85a029c" x="392.087273" y="246.04" style="stroke: #000000; stroke-width: 0.8"/>
      </g>
     </g>
     <g id="text_17">
      <!-- 1 -->
      <g transform="translate(388.906023 260.638438) scale(0.1 -0.1)">
       <use xlink:href="#DejaVuSans-31"/>
      </g>
     </g>
    </g>
    <g id="xtick_8">
     <g id="line2d_18">
      <g>
       <use xlink:href="#mc8a85a029c" x="446.185" y="246.04" style="stroke: #000000; stroke-width: 0.8"/>
      </g>
     </g>
     <g id="text_18">
      <!-- 2 -->
      <g transform="translate(443.00375 260.638438) scale(0.1 -0.1)">
       <use xlink:href="#DejaVuSans-32"/>
      </g>
     </g>
    </g>
    <g id="xtick_9">
     <g id="line2d_19">
      <g>
       <use xlink:href="#mc8a85a029c" x="500.282727" y="246.04" style="stroke: #000000; stroke-width: 0.8"/>
      </g>
     </g>
     <g id="text_19">
      <!-- 3 -->
      <g transform="translate(497.101477 260.638438) scale(0.1 -0.1)">
       <use xlink:href="#DejaVuSans-33"/>
      </g>
     </g>
    </g>
    <g id="xtick_10">
     <g id="line2d_20">
      <g>
       <use xlink:href="#mc8a85a029c" x="554.380455" y="246.04" style="stroke: #000000; stroke-width: 0.8"/>
      </g>
     </g>
     <g id="text_20">
      <!-- 4 -->
      <g transform="translate(551.199205 260.638438) scale(0.1 -0.1)">
       <use xlink:href="#DejaVuSans-34"/>
      </g>
     </g>
    </g>
    <g id="text_21">
     <!-- x -->
     <g transform="translate(443.225625 274.316562) scale(0.1 -0.1)">
      <defs>
       <path id="DejaVuSans-78" d="M 3513 3500 
L 2247 1797 
L 3578 0 
L 2900 0 
L 1881 1375 
L 863 0 
L 184 0 
L 1544 1831 
L 300 3500 
L 978 3500 
L 1906 2253 
L 2834 3500 
L 3513 3500 
z
" transform="scale(0.015625)"/>
      </defs>
      <use xlink:href="#DejaVuSans-78"/>
     </g>
    </g>
   </g>
   <g id="matplotlib.axis_4">
    <g id="ytick_7">
     <g id="line2d_21">
      <g>
       <use xlink:href="#m760dc50579" x="327.17" y="241.085338" style="stroke: #000000; stroke-width: 0.8"/>
      </g>
     </g>
     <g id="text_22">
      <!-- 0 -->
      <g transform="translate(313.8075 244.884557) scale(0.1 -0.1)">
       <use xlink:href="#DejaVuSans-30"/>
      </g>
     </g>
    </g>
    <g id="ytick_8">
     <g id="line2d_22">
      <g>
       <use xlink:href="#m760dc50579" x="327.17" y="203.703806" style="stroke: #000000; stroke-width: 0.8"/>
      </g>
     </g>
     <g id="text_23">
      <!-- 2 -->
      <g transform="translate(313.8075 207.503025) scale(0.1 -0.1)">
       <use xlink:href="#DejaVuSans-32"/>
      </g>
     </g>
    </g>
    <g id="ytick_9">
     <g id="line2d_23">
      <g>
       <use xlink:href="#m760dc50579" x="327.17" y="166.322274" style="stroke: #000000; stroke-width: 0.8"/>
      </g>
     </g>
     <g id="text_24">
      <!-- 4 -->
      <g transform="translate(313.8075 170.121493) scale(0.1 -0.1)">
       <use xlink:href="#DejaVuSans-34"/>
      </g>
     </g>
    </g>
    <g id="ytick_10">
     <g id="line2d_24">
      <g>
       <use xlink:href="#m760dc50579" x="327.17" y="128.940743" style="stroke: #000000; stroke-width: 0.8"/>
      </g>
     </g>
     <g id="text_25">
      <!-- 6 -->
      <g transform="translate(313.8075 132.739961) scale(0.1 -0.1)">
       <use xlink:href="#DejaVuSans-36"/>
      </g>
     </g>
    </g>
    <g id="ytick_11">
     <g id="line2d_25">
      <g>
       <use xlink:href="#m760dc50579" x="327.17" y="91.559211" style="stroke: #000000; stroke-width: 0.8"/>
      </g>
     </g>
     <g id="text_26">
      <!-- 8 -->
      <g transform="translate(313.8075 95.35843) scale(0.1 -0.1)">
       <use xlink:href="#DejaVuSans-38"/>
      </g>
     </g>
    </g>
    <g id="ytick_12">
     <g id="line2d_26">
      <g>
       <use xlink:href="#m760dc50579" x="327.17" y="54.177679" style="stroke: #000000; stroke-width: 0.8"/>
      </g>
     </g>
     <g id="text_27">
      <!-- 10 -->
      <g transform="translate(307.445 57.976898) scale(0.1 -0.1)">
       <use xlink:href="#DejaVuSans-31"/>
       <use xlink:href="#DejaVuSans-30" x="63.623047"/>
      </g>
     </g>
    </g>
    <g id="ytick_13">
     <g id="line2d_27">
      <g>
       <use xlink:href="#m760dc50579" x="327.17" y="16.796147" style="stroke: #000000; stroke-width: 0.8"/>
      </g>
     </g>
     <g id="text_28">
      <!-- 12 -->
      <g transform="translate(307.445 20.595366) scale(0.1 -0.1)">
       <use xlink:href="#DejaVuSans-31"/>
       <use xlink:href="#DejaVuSans-32" x="63.623047"/>
      </g>
     </g>
    </g>
    <g id="text_29">
     <!-- energy -->
     <g transform="translate(301.365312 145.843438) rotate(-90) scale(0.1 -0.1)">
      <use xlink:href="#DejaVuSans-65"/>
      <use xlink:href="#DejaVuSans-6e" x="61.523438"/>
      <use xlink:href="#DejaVuSans-65" x="124.902344"/>
      <use xlink:href="#DejaVuSans-72" x="186.425781"/>
      <use xlink:href="#DejaVuSans-67" x="225.789062"/>
      <use xlink:href="#DejaVuSans-79" x="289.265625"/>
     </g>
    </g>
   </g>
   <g id="line2d_28">
    <path d="M 337.989545 235.347273 
L 363.549232 230.568277 
L 377.412113 228.208812 
L 389.108919 226.437427 
L 399.722688 225.047943 
L 409.686633 223.963994 
L 419.217364 223.149521 
L 428.531487 222.5789 
L 437.629003 222.246198 
L 446.509911 222.140388 
L 455.607427 222.257066 
L 464.704943 222.59915 
L 473.802458 223.161978 
L 483.116582 223.957885 
L 492.86392 225.013984 
L 503.261081 226.368652 
L 514.524671 228.065155 
L 527.521122 230.256406 
L 543.766686 233.237784 
L 554.380455 235.259063 
L 554.380455 235.259063 
" clip-path="url(#pcd4cfe84db)" style="fill: none; stroke: #1f77b4; stroke-width: 1.5; stroke-linecap: square"/>
   </g>
   <g id="line2d_29">
    <path d="M 337.989545 189.480133 
L 346.870454 184.510811 
L 351.635819 182.101582 
L 355.751362 180.271944 
L 359.43369 178.882311 
L 362.89941 177.820538 
L 366.148523 177.062337 
L 369.181028 176.576998 
L 372.213533 176.316297 
L 375.246038 176.285253 
L 378.278544 176.484232 
L 381.311049 176.908948 
L 384.343554 177.550459 
L 387.592667 178.465049 
L 391.058387 179.68096 
L 394.740715 181.215422 
L 398.856258 183.179819 
L 403.838231 185.822071 
L 411.852709 190.372239 
L 419.433972 194.585375 
L 424.199337 196.979994 
L 428.098272 198.705594 
L 431.7806 200.093805 
L 435.24632 201.154519 
L 438.495433 201.908539 
L 441.527938 202.388149 
L 444.560444 202.642954 
L 447.592949 202.669241 
L 450.625454 202.467696 
L 453.657959 202.042821 
L 456.690465 201.40121 
L 459.939577 200.484696 
L 463.405298 199.264909 
L 467.087625 197.724751 
L 471.203168 195.754798 
L 476.185141 193.11216 
L 484.416227 188.438979 
L 491.780882 184.350792 
L 496.546248 181.958097 
L 500.66179 180.146293 
L 504.344118 178.775834 
L 507.593231 177.793838 
L 510.842344 177.045371 
L 513.874849 176.570129 
L 516.907354 176.318238 
L 519.939859 176.292992 
L 522.972365 176.494765 
L 526.00487 176.921564 
L 529.037375 177.567138 
L 532.286488 178.489501 
L 535.752208 179.715775 
L 539.434536 181.260203 
L 543.550079 183.229283 
L 548.532052 185.872458 
L 554.380455 189.180513 
L 554.380455 189.180513 
" clip-path="url(#pcd4cfe84db)" style="fill: none; stroke: #ff7f0e; stroke-width: 1.5; stroke-linecap: square"/>
   </g>
   <g id="line2d_30">
    <path d="M 337.989545 149.351059 
L 344.704378 144.344064 
L 348.386706 141.869919 
L 351.419211 140.083313 
L 354.235109 138.679392 
L 356.834399 137.634082 
L 359.217082 136.907499 
L 361.599765 136.415561 
L 363.76584 136.181443 
L 365.931915 136.155315 
L 368.09799 136.338103 
L 370.264065 136.726882 
L 372.646748 137.384255 
L 375.029431 138.268192 
L 377.628721 139.469935 
L 380.444619 141.022496 
L 383.693731 143.086045 
L 387.592667 145.849756 
L 394.740715 151.271094 
L 399.722688 154.910535 
L 403.188408 157.186875 
L 406.220913 158.923898 
L 409.036811 160.274045 
L 411.636101 161.265228 
L 414.018784 161.937944 
L 416.401466 162.370224 
L 418.567542 162.54711 
L 420.733617 162.515413 
L 422.899692 162.276315 
L 425.282375 161.779794 
L 427.665057 161.048813 
L 430.264348 159.999101 
L 432.863638 158.708178 
L 435.896143 156.935077 
L 439.361863 154.623919 
L 443.910621 151.28717 
L 454.307782 143.546806 
L 457.773502 141.297259 
L 460.806007 139.591861 
L 463.405298 138.36598 
L 466.004588 137.389302 
L 468.38727 136.732689 
L 470.769953 136.317181 
L 472.936028 136.154789 
L 475.102103 136.199314 
L 477.268179 136.449051 
L 479.650861 136.956431 
L 482.033544 137.699525 
L 484.632834 138.763659 
L 487.232124 140.069518 
L 490.26463 141.858048 
L 493.73035 144.178434 
L 498.279108 147.521068 
L 508.459661 155.103792 
L 511.925381 157.35914 
L 514.957887 159.072463 
L 517.557177 160.303573 
L 520.156467 161.28569 
L 522.53915 161.948717 
L 524.921832 162.372503 
L 527.087907 162.544209 
L 529.253983 162.510099 
L 531.420058 162.269322 
L 533.80274 161.769093 
L 536.185423 161.030837 
L 538.568106 160.068615 
L 541.167396 158.786452 
L 544.199901 157.025997 
L 547.665622 154.729824 
L 551.997772 151.567613 
L 554.380455 149.75592 
L 554.380455 149.75592 
" clip-path="url(#pcd4cfe84db)" style="fill: none; stroke: #2ca02c; stroke-width: 1.5; stroke-linecap: square"/>
   </g>
   <g id="line2d_31">
    <path d="M 337.989545 97.764545 
L 343.621341 92.528965 
L 346.653846 90.0133 
L 349.253136 88.14926 
L 351.419211 86.853911 
L 353.585287 85.826749 
L 355.534754 85.151883 
L 357.484222 84.726199 
L 359.217082 84.564028 
L 360.949942 84.609645 
L 362.682802 84.86326 
L 364.63227 85.392569 
L 366.581738 86.169573 
L 368.531205 87.17728 
L 370.69728 88.540213 
L 373.079963 90.298251 
L 375.895861 92.656944 
L 379.794796 96.252649 
L 387.376059 103.323165 
L 390.408564 105.798632 
L 392.791247 107.477767 
L 394.957322 108.755534 
L 396.90679 109.675825 
L 398.856258 110.361024 
L 400.805725 110.796253 
L 402.538585 110.96479 
L 404.271446 110.924418 
L 406.004306 110.675823 
L 407.953773 110.153056 
L 409.903241 109.384877 
L 411.852709 108.38761 
L 414.018784 107.033386 
L 416.401466 105.282169 
L 419.217364 102.927403 
L 423.116299 99.335231 
L 430.91417 92.075465 
L 433.730068 89.780551 
L 436.11275 88.093107 
L 438.278826 86.806762 
L 440.444901 85.787936 
L 442.394368 85.122598 
L 444.343836 84.710212 
L 446.076696 84.562599 
L 447.809556 84.622945 
L 449.542417 84.889258 
L 451.491884 85.428526 
L 453.441352 86.211993 
L 455.390819 87.225329 
L 457.556895 88.597503 
L 459.939577 90.367737 
L 462.755475 92.739449 
L 466.65441 96.340319 
L 474.019066 103.210579 
L 477.051571 105.700872 
L 479.650861 107.536567 
L 481.816936 108.805561 
L 483.766404 109.715517 
L 485.715872 110.386573 
L 487.665339 110.805982 
L 489.3982 110.961476 
L 491.13106 110.910772 
L 492.86392 110.654981 
L 494.813387 110.125707 
L 496.762855 109.349571 
L 498.712323 108.341123 
L 500.878398 106.972744 
L 503.261081 105.207638 
L 506.076978 102.845108 
L 509.975914 99.250033 
L 517.557177 92.184241 
L 520.589682 89.71008 
L 522.972365 88.032281 
L 525.13844 86.757962 
L 527.087907 85.842025 
L 529.037375 85.163169 
L 530.986843 84.73415 
L 532.719703 84.56837 
L 534.452563 84.609321 
L 536.185423 84.85764 
L 537.918283 85.310222 
L 539.867751 86.054863 
L 541.817219 87.033838 
L 543.983294 88.370183 
L 546.365976 90.102044 
L 549.181874 92.437207 
L 552.864202 95.808027 
L 554.380455 97.250353 
L 554.380455 97.250353 
" clip-path="url(#pcd4cfe84db)" style="fill: none; stroke: #d62728; stroke-width: 1.5; stroke-linecap: square"/>
   </g>
   <g id="line2d_32">
    <path d="M 337.989545 34.701901 
L 342.754911 29.390313 
L 345.354201 26.81762 
L 347.520276 24.973414 
L 349.469744 23.607029 
L 351.202604 22.65897 
L 352.935464 21.983467 
L 354.451717 21.627385 
L 355.967969 21.495945 
L 357.484222 21.592522 
L 359.000475 21.916917 
L 360.516727 22.464414 
L 362.249587 23.351263 
L 363.982447 24.496303 
L 365.931915 26.057111 
L 368.09799 28.076752 
L 370.913888 31.039604 
L 376.112468 36.947235 
L 379.578189 40.707702 
L 381.960871 42.997874 
L 384.126946 44.773083 
L 386.076414 46.067958 
L 387.809274 46.947233 
L 389.325527 47.49102 
L 390.84178 47.814694 
L 392.358032 47.910895 
L 393.874285 47.776885 
L 395.390537 47.414595 
L 396.90679 46.830628 
L 398.63965 45.906476 
L 400.37251 44.731281 
L 402.321978 43.140814 
L 404.488053 41.092829 
L 407.303951 38.102725 
L 417.267897 27.185486 
L 419.433972 25.287347 
L 421.383439 23.861144 
L 423.116299 22.852211 
L 424.84916 22.109659 
L 426.365412 21.693703 
L 427.881665 21.504531 
L 429.397917 21.54554 
L 430.91417 21.815487 
L 432.430423 22.308491 
L 434.163283 23.132052 
L 435.896143 24.216152 
L 437.845611 25.717838 
L 440.011686 27.687446 
L 442.610976 30.37387 
L 446.726519 35.015613 
L 451.275277 40.073376 
L 453.874567 42.638666 
L 456.040642 44.473326 
L 457.99011 45.832702 
L 459.72297 46.774482 
L 461.239222 47.373834 
L 462.755475 47.752363 
L 464.271728 47.904009 
L 465.78798 47.827092 
L 467.304233 47.524219 
L 468.820485 47.000685 
L 470.553346 46.142486 
L 472.286206 45.024383 
L 474.235673 43.486406 
L 476.401749 41.482528 
L 479.217646 38.534458 
L 483.983012 33.127841 
L 487.881947 28.859374 
L 490.26463 26.549478 
L 492.430705 24.748049 
L 494.380172 23.426743 
L 496.113033 22.523596 
L 497.629285 21.959463 
L 499.145538 21.616027 
L 500.66179 21.498334 
L 502.178043 21.607552 
L 503.694296 21.943093 
L 505.210548 22.500476 
L 506.943408 23.397625 
L 508.676269 24.552798 
L 510.625736 26.12631 
L 512.791811 28.156886 
L 515.607709 31.128713 
L 521.456112 37.766076 
L 524.705225 41.224129 
L 527.087907 43.446528 
L 529.037375 44.98929 
L 530.770235 46.11375 
L 532.503095 46.980003 
L 534.019348 47.511133 
L 535.535601 47.822036 
L 537.051853 47.906671 
L 538.568106 47.761976 
L 540.084358 47.389491 
L 541.600611 46.795366 
L 543.333471 45.858975 
L 545.066331 44.670714 
L 547.015799 43.068824 
L 549.398482 40.791482 
L 552.214379 37.772722 
L 554.380455 35.315841 
L 554.380455 35.315841 
" clip-path="url(#pcd4cfe84db)" style="fill: none; stroke: #9467bd; stroke-width: 1.5; stroke-linecap: square"/>
   </g>
   <g id="patch_9">
    <path d="M 327.17 246.04 
L 327.17 10.8 
" style="fill: none; stroke: #000000; stroke-width: 0.8; stroke-linejoin: miter; stroke-linecap: square"/>
   </g>
   <g id="patch_10">
    <path d="M 565.2 246.04 
L 565.2 10.8 
" style="fill: none; stroke: #000000; stroke-width: 0.8; stroke-linejoin: miter; stroke-linecap: square"/>
   </g>
   <g id="patch_11">
    <path d="M 327.17 246.04 
L 565.2 246.04 
" style="fill: none; stroke: #000000; stroke-width: 0.8; stroke-linejoin: miter; stroke-linecap: square"/>
   </g>
   <g id="patch_12">
    <path d="M 327.17 10.8 
L 565.2 10.8 
" style="fill: none; stroke: #000000; stroke-width: 0.8; stroke-linejoin: miter; stroke-linecap: square"/>
   </g>
   <g id="legend_2">
    <g id="patch_13">
     <path d="M 491.328125 92.190625 
L 558.2 92.190625 
Q 560.2 92.190625 560.2 90.190625 
L 560.2 17.8 
Q 560.2 15.8 558.2 15.8 
L 491.328125 15.8 
Q 489.328125 15.8 489.328125 17.8 
L 489.328125 90.190625 
Q 489.328125 92.190625 491.328125 92.190625 
z
" style="fill: #ffffff; opacity: 0.8; stroke: #cccccc; stroke-linejoin: miter"/>
    </g>
    <g id="line2d_33">
     <path d="M 493.328125 23.898438 
L 503.328125 23.898438 
L 513.328125 23.898438 
" style="fill: none; stroke: #1f77b4; stroke-width: 1.5; stroke-linecap: square"/>
    </g>
    <g id="text_30">
     <!-- state 0 -->
     <g transform="translate(521.328125 27.398438) scale(0.1 -0.1)">
      <use xlink:href="#DejaVuSans-73"/>
      <use xlink:href="#DejaVuSans-74" x="52.099609"/>
      <use xlink:href="#DejaVuSans-61" x="91.308594"/>
      <use xlink:href="#DejaVuSans-74" x="152.587891"/>
      <use xlink:href="#DejaVuSans-65" x="191.796875"/>
      <use xlink:href="#DejaVuSans-20" x="253.320312"/>
      <use xlink:href="#DejaVuSans-30" x="285.107422"/>
     </g>
    </g>
    <g id="line2d_34">
     <path d="M 493.328125 38.576562 
L 503.328125 38.576562 
L 513.328125 38.576562 
" style="fill: none; stroke: #ff7f0e; stroke-width: 1.5; stroke-linecap: square"/>
    </g>
    <g id="text_31">
     <!-- state 1 -->
     <g transform="translate(521.328125 42.076562) scale(0.1 -0.1)">
      <use xlink:href="#DejaVuSans-73"/>
      <use xlink:href="#DejaVuSans-74" x="52.099609"/>
      <use xlink:href="#DejaVuSans-61" x="91.308594"/>
      <use xlink:href="#DejaVuSans-74" x="152.587891"/>
      <use xlink:href="#DejaVuSans-65" x="191.796875"/>
      <use xlink:href="#DejaVuSans-20" x="253.320312"/>
      <use xlink:href="#DejaVuSans-31" x="285.107422"/>
     </g>
    </g>
    <g id="line2d_35">
     <path d="M 493.328125 53.254687 
L 503.328125 53.254687 
L 513.328125 53.254687 
" style="fill: none; stroke: #2ca02c; stroke-width: 1.5; stroke-linecap: square"/>
    </g>
    <g id="text_32">
     <!-- state 2 -->
     <g transform="translate(521.328125 56.754687) scale(0.1 -0.1)">
      <use xlink:href="#DejaVuSans-73"/>
      <use xlink:href="#DejaVuSans-74" x="52.099609"/>
      <use xlink:href="#DejaVuSans-61" x="91.308594"/>
      <use xlink:href="#DejaVuSans-74" x="152.587891"/>
      <use xlink:href="#DejaVuSans-65" x="191.796875"/>
      <use xlink:href="#DejaVuSans-20" x="253.320312"/>
      <use xlink:href="#DejaVuSans-32" x="285.107422"/>
     </g>
    </g>
    <g id="line2d_36">
     <path d="M 493.328125 67.932813 
L 503.328125 67.932813 
L 513.328125 67.932813 
" style="fill: none; stroke: #d62728; stroke-width: 1.5; stroke-linecap: square"/>
    </g>
    <g id="text_33">
     <!-- state 3 -->
     <g transform="translate(521.328125 71.432813) scale(0.1 -0.1)">
      <use xlink:href="#DejaVuSans-73"/>
      <use xlink:href="#DejaVuSans-74" x="52.099609"/>
      <use xlink:href="#DejaVuSans-61" x="91.308594"/>
      <use xlink:href="#DejaVuSans-74" x="152.587891"/>
      <use xlink:href="#DejaVuSans-65" x="191.796875"/>
      <use xlink:href="#DejaVuSans-20" x="253.320312"/>
      <use xlink:href="#DejaVuSans-33" x="285.107422"/>
     </g>
    </g>
    <g id="line2d_37">
     <path d="M 493.328125 82.610938 
L 503.328125 82.610938 
L 513.328125 82.610938 
" style="fill: none; stroke: #9467bd; stroke-width: 1.5; stroke-linecap: square"/>
    </g>
    <g id="text_34">
     <!-- state 4 -->
     <g transform="translate(521.328125 86.110938) scale(0.1 -0.1)">
      <use xlink:href="#DejaVuSans-73"/>
      <use xlink:href="#DejaVuSans-74" x="52.099609"/>
      <use xlink:href="#DejaVuSans-61" x="91.308594"/>
      <use xlink:href="#DejaVuSans-74" x="152.587891"/>
      <use xlink:href="#DejaVuSans-65" x="191.796875"/>
      <use xlink:href="#DejaVuSans-20" x="253.320312"/>
      <use xlink:href="#DejaVuSans-34" x="285.107422"/>
     </g>
    </g>
   </g>
  </g>
 </g>
 <defs>
  <clipPath id="pb5c7cb58d9">
   <rect x="44.57" y="10.8" width="238.03" height="235.24"/>
  </clipPath>
  <clipPath id="pcd4cfe84db">
   <rect x="327.17" y="10.8" width="238.03" height="235.24"/>
  </clipPath>
 </defs>
</svg>
