<?xml version="1.0" encoding="UTF-8" standalone="no"?>
<!DOCTYPE svg PUBLIC "-//W3C//DTD SVG 1.1//EN" "http://www.w3.org/Graphics/SVG/1.1/DTD/svg11.dtd">
<svg width="100%" height="100%" viewBox="0 0 349 195" version="1.1" xmlns="http://www.w3.org/2000/svg" xmlns:xlink="http://www.w3.org/1999/xlink" xml:space="preserve" xmlns:serif="http://www.serif.com/" style="fill-rule:evenodd;clip-rule:evenodd;stroke-miterlimit:2;">
    <rect x="0" y="0" width="348.9" height="194.5" style="fill:#fff;"/>
    <g>
        <g>
            <g>
                <g>
                    <path d="M63.892,60.252C63.892,57.943 65.989,56.07 68.576,56.07C71.162,56.07 73.259,57.943 73.259,60.252C73.259,62.562 71.162,64.433 68.576,64.433C65.989,64.433 63.892,62.562 63.892,60.252Z" style="fill:#93c855;"/>
                    <path d="M68.576,56.237C66.086,56.237 64.06,58.038 64.06,60.252C64.06,62.464 66.086,64.266 68.576,64.266C71.066,64.266 73.092,62.464 73.092,60.252C73.092,58.038 71.066,56.237 68.576,56.237ZM68.576,64.6C65.901,64.6 63.726,62.649 63.726,60.252C63.726,57.854 65.901,55.903 68.576,55.903C71.251,55.903 73.426,57.854 73.426,60.252C73.426,62.649 71.251,64.6 68.576,64.6Z" style="fill-rule:nonzero;"/>
                    <path d="M50.177,64.433C50.177,62.032 52.2,60.084 54.693,60.084C57.188,60.084 59.21,62.032 59.21,64.433C59.21,66.835 57.188,68.783 54.693,68.783C52.2,68.783 50.177,66.835 50.177,64.433Z" style="fill:#93c855;"/>
                    <path d="M54.693,60.251C52.295,60.251 50.344,62.127 50.344,64.432C50.344,66.739 52.295,68.614 54.693,68.614C57.092,68.614 59.042,66.739 59.042,64.432C59.042,62.127 57.092,60.251 54.693,60.251ZM54.693,68.948C52.111,68.948 50.01,66.922 50.01,64.432C50.01,61.942 52.111,59.917 54.693,59.917C57.275,59.917 59.377,61.942 59.377,64.432C59.377,66.922 57.275,68.948 54.693,68.948Z" style="fill-rule:nonzero;"/>
                    <path d="M75.601,94.205C75.601,91.803 77.698,89.856 80.285,89.856C82.871,89.856 84.968,91.803 84.968,94.205C84.968,96.607 82.871,98.554 80.285,98.554C77.698,98.554 75.601,96.607 75.601,94.205Z" style="fill:#93c855;"/>
                    <path d="M80.285,90.024C77.794,90.024 75.768,91.9 75.768,94.205C75.768,96.511 77.794,98.387 80.285,98.387C82.775,98.387 84.8,96.511 84.8,94.205C84.8,91.9 82.775,90.024 80.285,90.024ZM80.285,98.721C77.61,98.721 75.433,96.695 75.433,94.205C75.433,91.715 77.61,89.689 80.285,89.689C82.959,89.689 85.135,91.715 85.135,94.205C85.135,96.695 82.959,98.721 80.285,98.721Z" style="fill-rule:nonzero;"/>
                    <path d="M96.007,111.6C96.007,109.198 98.104,107.251 100.69,107.251C103.277,107.251 105.374,109.198 105.374,111.6C105.374,114.002 103.277,115.949 100.69,115.949C98.104,115.949 96.007,114.002 96.007,111.6Z" style="fill:#93c855;"/>
                    <path d="M100.69,107.418C98.2,107.418 96.175,109.294 96.175,111.6C96.175,113.905 98.2,115.783 100.69,115.783C103.181,115.783 105.206,113.905 105.206,111.6C105.206,109.294 103.181,107.418 100.69,107.418ZM100.69,116.117C98.016,116.117 95.841,114.091 95.841,111.6C95.841,109.11 98.016,107.084 100.69,107.084C103.365,107.084 105.54,109.11 105.54,111.6C105.54,114.091 103.365,116.117 100.69,116.117Z" style="fill-rule:nonzero;"/>
                    <path d="M61.886,120.131C61.886,117.822 63.983,115.949 66.57,115.949C69.156,115.949 71.253,117.822 71.253,120.131C71.253,122.441 69.156,124.312 66.57,124.312C63.983,124.312 61.886,122.441 61.886,120.131Z" style="fill:#93c855;"/>
                    <path d="M66.568,116.117C64.078,116.117 62.053,117.918 62.053,120.131C62.053,122.344 64.078,124.146 66.568,124.146C69.059,124.146 71.084,122.344 71.084,120.131C71.084,117.918 69.059,116.117 66.568,116.117ZM66.568,124.48C63.894,124.48 61.718,122.529 61.718,120.131C61.718,117.733 63.894,115.783 66.568,115.783C69.243,115.783 71.418,117.733 71.418,120.131C71.418,122.529 69.243,124.48 66.568,124.48Z" style="fill-rule:nonzero;"/>
                    <path d="M71.252,88.853C71.252,86.452 73.349,84.504 75.935,84.504C78.522,84.504 80.619,86.452 80.619,88.853C80.619,91.255 78.522,93.203 75.935,93.203C73.349,93.203 71.252,91.255 71.252,88.853Z" style="fill:#93c855;"/>
                    <path d="M75.935,84.672C73.445,84.672 71.42,86.548 71.42,88.853C71.42,91.159 73.445,93.035 75.935,93.035C78.425,93.035 80.451,91.159 80.451,88.853C80.451,86.548 78.425,84.672 75.935,84.672ZM75.935,93.369C73.26,93.369 71.085,91.343 71.085,88.853C71.085,86.363 73.26,84.338 75.935,84.338C78.61,84.338 80.785,86.363 80.785,88.853C80.785,91.343 78.61,93.369 75.935,93.369Z" style="fill-rule:nonzero;"/>
                    <path d="M49.843,84.504C49.843,82.102 51.94,80.155 54.527,80.155C57.113,80.155 59.21,82.102 59.21,84.504C59.21,86.906 57.113,88.853 54.527,88.853C51.94,88.853 49.843,86.906 49.843,84.504Z" style="fill:#93c855;"/>
                    <path d="M54.527,80.323C52.037,80.323 50.011,82.199 50.011,84.504C50.011,86.81 52.037,88.686 54.527,88.686C57.017,88.686 59.042,86.81 59.042,84.504C59.042,82.199 57.017,80.323 54.527,80.323ZM54.527,89.02C51.852,89.02 49.677,86.994 49.677,84.504C49.677,82.014 51.852,79.988 54.527,79.988C57.202,79.988 59.377,82.014 59.377,84.504C59.377,86.994 57.202,89.02 54.527,89.02Z" style="fill-rule:nonzero;"/>
                    <path d="M121.765,64.433C121.765,62.032 123.862,60.084 126.448,60.084C129.035,60.084 131.132,62.032 131.132,64.433C131.132,66.835 129.035,68.783 126.448,68.783C123.862,68.783 121.765,66.835 121.765,64.433Z" style="fill:#bf66a7;"/>
                    <path d="M126.448,60.251C123.958,60.251 121.931,62.127 121.931,64.432C121.931,66.739 123.958,68.614 126.448,68.614C128.938,68.614 130.964,66.739 130.964,64.432C130.964,62.127 128.938,60.251 126.448,60.251ZM126.448,68.948C123.774,68.948 121.597,66.922 121.597,64.432C121.597,61.942 123.774,59.917 126.448,59.917C129.123,59.917 131.298,61.942 131.298,64.432C131.298,66.922 129.123,68.948 126.448,68.948Z" style="fill-rule:nonzero;"/>
                    <path d="M125.445,52.223C125.445,49.913 127.542,48.041 130.128,48.041C132.714,48.041 134.811,49.913 134.811,52.223C134.811,54.533 132.714,56.405 130.128,56.405C127.542,56.405 125.445,54.533 125.445,52.223Z" style="fill:#bf66a7;"/>
                    <path d="M130.128,48.208C127.638,48.208 125.611,50.009 125.611,52.223C125.611,54.436 127.638,56.237 130.128,56.237C132.618,56.237 134.644,54.436 134.644,52.223C134.644,50.009 132.618,48.208 130.128,48.208ZM130.128,56.571C127.453,56.571 125.277,54.62 125.277,52.223C125.277,49.825 127.453,47.874 130.128,47.874C132.803,47.874 134.978,49.825 134.978,52.223C134.978,54.62 132.803,56.571 130.128,56.571Z" style="fill-rule:nonzero;"/>
                    <path d="M142.505,102.903C142.505,100.501 144.602,98.553 147.189,98.553C149.775,98.553 151.872,100.501 151.872,102.903C151.872,105.304 149.775,107.252 147.189,107.252C144.602,107.252 142.505,105.304 142.505,102.903Z" style="fill:#bf66a7;"/>
                    <path d="M147.189,98.721C144.698,98.721 142.673,100.597 142.673,102.903C142.673,105.209 144.698,107.084 147.189,107.084C149.679,107.084 151.704,105.209 151.704,102.903C151.704,100.597 149.679,98.721 147.189,98.721ZM147.189,107.418C144.514,107.418 142.339,105.393 142.339,102.903C142.339,100.412 144.514,98.387 147.189,98.387C149.862,98.387 152.038,100.412 152.038,102.903C152.038,105.393 149.862,107.418 147.189,107.418Z" style="fill-rule:nonzero;"/>
                    <path d="M136.818,83.334C136.818,81.025 138.915,79.152 141.501,79.152C144.088,79.152 146.185,81.025 146.185,83.334C146.185,85.643 144.088,87.515 141.501,87.515C138.915,87.515 136.818,85.643 136.818,83.334Z" style="fill:#bf66a7;"/>
                    <path d="M141.501,79.319C139.011,79.319 136.986,81.12 136.986,83.334C136.986,85.546 139.011,87.348 141.501,87.348C143.991,87.348 146.017,85.546 146.017,83.334C146.017,81.12 143.991,79.319 141.501,79.319ZM141.501,87.682C138.827,87.682 136.651,85.731 136.651,83.334C136.651,80.935 138.827,78.985 141.501,78.985C144.176,78.985 146.351,80.935 146.351,83.334C146.351,85.731 144.176,87.682 141.501,87.682Z" style="fill-rule:nonzero;"/>
                    <path d="M145.515,72.461C145.515,70.06 147.612,68.112 150.198,68.112C152.785,68.112 154.882,70.06 154.882,72.461C154.882,74.863 152.785,76.811 150.198,76.811C147.612,76.811 145.515,74.863 145.515,72.461Z" style="fill:#bf66a7;"/>
                    <path d="M150.199,68.28C147.71,68.28 145.683,70.156 145.683,72.461C145.683,74.767 147.71,76.643 150.199,76.643C152.689,76.643 154.716,74.767 154.716,72.461C154.716,70.156 152.689,68.28 150.199,68.28ZM150.199,76.977C147.525,76.977 145.349,74.951 145.349,72.461C145.349,69.971 147.525,67.945 150.199,67.945C152.873,67.945 155.05,69.971 155.05,72.461C155.05,74.951 152.873,76.977 150.199,76.977Z" style="fill-rule:nonzero;"/>
                    <path d="M154.882,89.857C154.882,87.455 156.979,85.508 159.566,85.508C162.152,85.508 164.249,87.455 164.249,89.857C164.249,92.259 162.152,94.206 159.566,94.206C156.979,94.206 154.882,92.259 154.882,89.857Z" style="fill:#bf66a7;"/>
                    <path d="M159.566,85.674C157.075,85.674 155.05,87.55 155.05,89.856C155.05,92.163 157.075,94.038 159.566,94.038C162.056,94.038 164.081,92.163 164.081,89.856C164.081,87.55 162.056,85.674 159.566,85.674ZM159.566,94.372C156.891,94.372 154.716,92.346 154.716,89.856C154.716,87.366 156.891,85.34 159.566,85.34C162.24,85.34 164.416,87.366 164.416,89.856C164.416,92.346 162.24,94.372 159.566,94.372Z" style="fill-rule:nonzero;"/>
                    <path d="M128.455,86.512C128.455,84.11 130.552,82.162 133.138,82.162C135.725,82.162 137.822,84.11 137.822,86.512C137.822,88.913 135.725,90.861 133.138,90.861C130.552,90.861 128.455,88.913 128.455,86.512Z" style="fill:#bf66a7;"/>
                    <path d="M133.138,82.33C130.648,82.33 128.622,84.206 128.622,86.512C128.622,88.817 130.648,90.693 133.138,90.693C135.628,90.693 137.654,88.817 137.654,86.512C137.654,84.206 135.628,82.33 133.138,82.33ZM133.138,91.027C130.463,91.027 128.288,89.002 128.288,86.512C128.288,84.021 130.463,81.996 133.138,81.996C135.813,81.996 137.988,84.021 137.988,86.512C137.988,89.002 135.813,91.027 133.138,91.027Z" style="fill-rule:nonzero;"/>
                    <path d="M151.202,115.949C151.202,113.547 153.299,111.6 155.886,111.6C158.472,111.6 160.569,113.547 160.569,115.949C160.569,118.351 158.472,120.298 155.886,120.298C153.299,120.298 151.202,118.351 151.202,115.949Z" style="fill:#bf66a7;"/>
                    <path d="M155.886,111.768C153.396,111.768 151.37,113.644 151.37,115.949C151.37,118.256 153.396,120.131 155.886,120.131C158.376,120.131 160.402,118.256 160.402,115.949C160.402,113.644 158.376,111.768 155.886,111.768ZM155.886,120.465C153.211,120.465 151.036,118.439 151.036,115.949C151.036,113.459 153.211,111.433 155.886,111.433C158.561,111.433 160.736,113.459 160.736,115.949C160.736,118.439 158.561,120.465 155.886,120.465Z" style="fill-rule:nonzero;"/>
                    <path d="M140.498,55.903C140.498,53.594 142.595,51.721 145.181,51.721C147.767,51.721 149.864,53.594 149.864,55.903C149.864,58.213 147.767,60.084 145.181,60.084C142.595,60.084 140.498,58.213 140.498,55.903Z" style="fill:#bf66a7;"/>
                    <path d="M145.181,51.888C142.691,51.888 140.665,53.689 140.665,55.903C140.665,58.115 142.691,59.917 145.181,59.917C147.671,59.917 149.697,58.115 149.697,55.903C149.697,53.689 147.671,51.888 145.181,51.888ZM145.181,60.251C142.506,60.251 140.331,58.3 140.331,55.903C140.331,53.504 142.506,51.553 145.181,51.553C147.856,51.553 150.031,53.504 150.031,55.903C150.031,58.3 147.856,60.251 145.181,60.251Z" style="fill-rule:nonzero;"/>
                    <path d="M244.2,64.266C244.2,61.957 246.297,60.084 248.883,60.084C251.469,60.084 253.565,61.957 253.565,64.266C253.565,66.576 251.469,68.447 248.883,68.447C246.297,68.447 244.2,66.576 244.2,64.266Z" style="fill:#93c855;"/>
                    <path d="M248.882,60.251C246.392,60.251 244.366,62.052 244.366,64.265C244.366,66.478 246.392,68.28 248.882,68.28C251.373,68.28 253.399,66.478 253.399,64.265C253.399,62.052 251.373,60.251 248.882,60.251ZM248.882,68.614C246.208,68.614 244.032,66.663 244.032,64.265C244.032,61.867 246.208,59.917 248.882,59.917C251.557,59.917 253.733,61.867 253.733,64.265C253.733,66.663 251.557,68.614 248.882,68.614Z" style="fill-rule:nonzero;"/>
                    <path d="M230.483,68.447C230.483,66.046 232.58,64.098 235.167,64.098C237.753,64.098 239.85,66.046 239.85,68.447C239.85,70.849 237.753,72.797 235.167,72.797C232.58,72.797 230.483,70.849 230.483,68.447Z" style="fill:#93c855;"/>
                    <path d="M235.168,64.266C232.678,64.266 230.651,66.142 230.651,68.447C230.651,70.753 232.678,72.629 235.168,72.629C237.658,72.629 239.684,70.753 239.684,68.447C239.684,66.142 237.658,64.266 235.168,64.266ZM235.168,72.963C232.492,72.963 230.317,70.938 230.317,68.447C230.317,65.957 232.492,63.932 235.168,63.932C237.842,63.932 240.018,65.957 240.018,68.447C240.018,70.938 237.842,72.963 235.168,72.963Z" style="fill-rule:nonzero;"/>
                    <path d="M255.907,98.219C255.907,95.817 258.004,93.87 260.59,93.87C263.177,93.87 265.274,95.817 265.274,98.219C265.274,100.621 263.177,102.568 260.59,102.568C258.004,102.568 255.907,100.621 255.907,98.219Z" style="fill:#93c855;"/>
                    <path d="M260.59,94.038C258.1,94.038 256.075,95.914 256.075,98.219C256.075,100.525 258.1,102.401 260.59,102.401C263.081,102.401 265.107,100.525 265.107,98.219C265.107,95.914 263.081,94.038 260.59,94.038ZM260.59,102.735C257.917,102.735 255.74,100.709 255.74,98.219C255.74,95.729 257.917,93.703 260.59,93.703C263.265,93.703 265.442,95.729 265.442,98.219C265.442,100.709 263.265,102.735 260.59,102.735Z" style="fill-rule:nonzero;"/>
                    <path d="M276.313,115.615C276.313,113.213 278.41,111.266 280.996,111.266C283.583,111.266 285.68,113.213 285.68,115.615C285.68,118.017 283.583,119.964 280.996,119.964C278.41,119.964 276.313,118.017 276.313,115.615Z" style="fill:#93c855;"/>
                    <path d="M280.996,111.433C278.506,111.433 276.481,113.308 276.481,115.614C276.481,117.92 278.506,119.797 280.996,119.797C283.487,119.797 285.512,117.92 285.512,115.614C285.512,113.308 283.487,111.433 280.996,111.433ZM280.996,120.131C278.323,120.131 276.146,118.105 276.146,115.614C276.146,113.125 278.323,111.099 280.996,111.099C283.67,111.099 285.846,113.125 285.846,115.614C285.846,118.105 283.67,120.131 280.996,120.131Z" style="fill-rule:nonzero;"/>
                    <path d="M242.192,124.145C242.192,121.836 244.289,119.963 246.875,119.963C249.462,119.963 251.559,121.836 251.559,124.145C251.559,126.455 249.462,128.326 246.875,128.326C244.289,128.326 242.192,126.455 242.192,124.145Z" style="fill:#93c855;"/>
                    <path d="M246.875,120.131C244.385,120.131 242.359,121.932 242.359,124.146C242.359,126.358 244.385,128.16 246.875,128.16C249.366,128.16 251.391,126.358 251.391,124.146C251.391,121.932 249.366,120.131 246.875,120.131ZM246.875,128.494C244.201,128.494 242.025,126.543 242.025,124.146C242.025,121.747 244.201,119.797 246.875,119.797C249.549,119.797 251.725,121.747 251.725,124.146C251.725,126.543 249.549,128.494 246.875,128.494Z" style="fill-rule:nonzero;"/>
                    <path d="M251.559,92.867C251.559,90.465 253.656,88.518 256.242,88.518C258.829,88.518 260.926,90.465 260.926,92.867C260.926,95.269 258.829,97.216 256.242,97.216C253.656,97.216 251.559,95.269 251.559,92.867Z" style="fill:#93c855;"/>
                    <path d="M256.241,88.686C253.751,88.686 251.725,90.562 251.725,92.867C251.725,95.173 253.751,97.049 256.241,97.049C258.733,97.049 260.758,95.173 260.758,92.867C260.758,90.562 258.733,88.686 256.241,88.686ZM256.241,97.383C253.568,97.383 251.391,95.357 251.391,92.867C251.391,90.377 253.568,88.351 256.241,88.351C258.916,88.351 261.092,90.377 261.092,92.867C261.092,95.357 258.916,97.383 256.241,97.383Z" style="fill-rule:nonzero;"/>
                    <path d="M230.149,88.518C230.149,86.116 232.246,84.169 234.833,84.169C237.419,84.169 239.516,86.116 239.516,88.518C239.516,90.92 237.419,92.867 234.833,92.867C232.246,92.867 230.149,90.92 230.149,88.518Z" style="fill:#93c855;"/>
                    <path d="M234.833,84.336C232.343,84.336 230.317,86.213 230.317,88.519C230.317,90.825 232.343,92.7 234.833,92.7C237.323,92.7 239.348,90.825 239.348,88.519C239.348,86.213 237.323,84.336 234.833,84.336ZM234.833,93.034C232.159,93.034 229.983,91.008 229.983,88.519C229.983,86.028 232.159,84.002 234.833,84.002C237.506,84.002 239.683,86.028 239.683,88.519C239.683,91.008 237.506,93.034 234.833,93.034Z" style="fill-rule:nonzero;"/>
                    <path d="M302.071,68.447C302.071,66.046 304.168,64.098 306.754,64.098C309.341,64.098 311.438,66.046 311.438,68.447C311.438,70.849 309.341,72.797 306.754,72.797C304.168,72.797 302.071,70.849 302.071,68.447Z" style="fill:#bf66a7;"/>
                    <path d="M306.754,64.266C304.264,64.266 302.239,66.142 302.239,68.447C302.239,70.753 304.264,72.629 306.754,72.629C309.246,72.629 311.271,70.753 311.271,68.447C311.271,66.142 309.246,64.266 306.754,64.266ZM306.754,72.963C304.081,72.963 301.904,70.938 301.904,68.447C301.904,65.957 304.081,63.932 306.754,63.932C309.429,63.932 311.605,65.957 311.605,68.447C311.605,70.938 309.429,72.963 306.754,72.963Z" style="fill-rule:nonzero;"/>
                    <path d="M305.751,56.237C305.751,53.928 307.848,52.055 310.434,52.055C313.02,52.055 315.117,53.928 315.117,56.237C315.117,58.547 313.02,60.418 310.434,60.418C307.848,60.418 305.751,58.547 305.751,56.237Z" style="fill:#bf66a7;"/>
                    <path d="M310.434,52.223C307.944,52.223 305.918,54.024 305.918,56.237C305.918,58.451 307.944,60.252 310.434,60.252C312.925,60.252 314.951,58.451 314.951,56.237C314.951,54.024 312.925,52.223 310.434,52.223ZM310.434,60.586C307.76,60.586 305.584,58.635 305.584,56.237C305.584,53.84 307.76,51.889 310.434,51.889C313.109,51.889 315.285,53.84 315.285,56.237C315.285,58.635 313.109,60.586 310.434,60.586Z" style="fill-rule:nonzero;"/>
                    <path d="M322.812,106.918C322.812,104.516 324.908,102.568 327.494,102.568C330.081,102.568 332.178,104.516 332.178,106.918C332.178,109.319 330.081,111.266 327.494,111.266C324.908,111.266 322.812,109.319 322.812,106.918Z" style="fill:#bf66a7;"/>
                    <path d="M327.494,102.735C325.004,102.735 322.979,104.611 322.979,106.916C322.979,109.223 325.004,111.099 327.494,111.099C329.985,111.099 332.011,109.223 332.011,106.916C332.011,104.611 329.985,102.735 327.494,102.735ZM327.494,111.433C324.821,111.433 322.644,109.408 322.644,106.916C322.644,104.426 324.821,102.401 327.494,102.401C330.169,102.401 332.346,104.426 332.346,106.916C332.346,109.408 330.169,111.433 327.494,111.433Z" style="fill-rule:nonzero;"/>
                    <path d="M317.125,87.348C317.125,85.039 319.222,83.166 321.808,83.166C324.395,83.166 326.492,85.039 326.492,87.348C326.492,89.658 324.395,91.529 321.808,91.529C319.222,91.529 317.125,89.658 317.125,87.348Z" style="fill:#bf66a7;"/>
                    <path d="M321.807,83.333C319.317,83.333 317.291,85.134 317.291,87.347C317.291,89.56 319.317,91.362 321.807,91.362C324.299,91.362 326.324,89.56 326.324,87.347C326.324,85.134 324.299,83.333 321.807,83.333ZM321.807,91.696C319.134,91.696 316.957,89.745 316.957,87.347C316.957,84.949 319.134,82.998 321.807,82.998C324.482,82.998 326.658,84.949 326.658,87.347C326.658,89.745 324.482,91.696 321.807,91.696Z" style="fill-rule:nonzero;"/>
                    <path d="M325.822,76.476C325.822,74.075 327.919,72.127 330.506,72.127C333.092,72.127 335.189,74.075 335.189,76.476C335.189,78.878 333.092,80.826 330.506,80.826C327.919,80.826 325.822,78.878 325.822,76.476Z" style="fill:#bf66a7;"/>
                    <path d="M330.506,72.294C328.016,72.294 325.99,74.17 325.99,76.475C325.99,78.782 328.016,80.657 330.506,80.657C332.996,80.657 335.022,78.782 335.022,76.475C335.022,74.17 332.996,72.294 330.506,72.294ZM330.506,80.991C327.832,80.991 325.656,78.965 325.656,76.475C325.656,73.985 327.832,71.959 330.506,71.959C333.179,71.959 335.356,73.985 335.356,76.475C335.356,78.965 333.179,80.991 330.506,80.991Z" style="fill-rule:nonzero;"/>
                    <path d="M335.189,93.871C335.189,91.469 337.286,89.522 339.873,89.522C342.459,89.522 344.555,91.469 344.555,93.871C344.555,96.273 342.459,98.22 339.873,98.22C337.286,98.22 335.189,96.273 335.189,93.871Z" style="fill:#bf66a7;"/>
                    <path d="M339.873,89.689C337.381,89.689 335.356,91.566 335.356,93.871C335.356,96.176 337.381,98.053 339.873,98.053C342.363,98.053 344.388,96.176 344.388,93.871C344.388,91.566 342.363,89.689 339.873,89.689ZM339.873,98.387C337.198,98.387 335.022,96.361 335.022,93.871C335.022,91.381 337.198,89.355 339.873,89.355C342.546,89.355 344.723,91.381 344.723,93.871C344.723,96.361 342.546,98.387 339.873,98.387Z" style="fill-rule:nonzero;"/>
                    <path d="M308.762,90.526C308.762,88.124 310.859,86.176 313.445,86.176C316.032,86.176 318.129,88.124 318.129,90.526C318.129,92.927 316.032,94.874 313.445,94.874C310.859,94.874 308.762,92.927 308.762,90.526Z" style="fill:#bf66a7;"/>
                    <path d="M313.445,86.344C310.954,86.344 308.928,88.22 308.928,90.526C308.928,92.831 310.954,94.707 313.445,94.707C315.935,94.707 317.961,92.831 317.961,90.526C317.961,88.22 315.935,86.344 313.445,86.344ZM313.445,95.041C310.77,95.041 308.594,93.016 308.594,90.526C308.594,88.035 310.77,86.01 313.445,86.01C316.119,86.01 318.295,88.035 318.295,90.526C318.295,93.016 316.119,95.041 313.445,95.041Z" style="fill-rule:nonzero;"/>
                    <path d="M331.509,119.963C331.509,117.561 333.605,115.614 336.193,115.614C338.779,115.614 340.875,117.561 340.875,119.963C340.875,122.365 338.779,124.312 336.193,124.312C333.605,124.312 331.509,122.365 331.509,119.963Z" style="fill:#bf66a7;"/>
                    <path d="M336.193,115.781C333.702,115.781 331.676,117.658 331.676,119.963C331.676,122.27 333.702,124.146 336.193,124.146C338.683,124.146 340.709,122.27 340.709,119.963C340.709,117.658 338.683,115.781 336.193,115.781ZM336.193,124.48C333.518,124.48 331.342,122.454 331.342,119.963C331.342,117.473 333.518,115.447 336.193,115.447C338.867,115.447 341.043,117.473 341.043,119.963C341.043,122.454 338.867,124.48 336.193,124.48Z" style="fill-rule:nonzero;"/>
                    <path d="M320.805,59.917C320.805,57.608 322.902,55.735 325.488,55.735C328.075,55.735 330.172,57.608 330.172,59.917C330.172,62.227 328.075,64.098 325.488,64.098C322.902,64.098 320.805,62.227 320.805,59.917Z" style="fill:#bf66a7;"/>
                    <path d="M325.487,55.903C322.997,55.903 320.971,57.704 320.971,59.918C320.971,62.13 322.997,63.932 325.487,63.932C327.978,63.932 330.004,62.13 330.004,59.918C330.004,57.704 327.978,55.903 325.487,55.903ZM325.487,64.266C322.813,64.266 320.637,62.315 320.637,59.918C320.637,57.519 322.813,55.568 325.487,55.568C328.162,55.568 330.338,57.519 330.338,59.918C330.338,62.315 328.162,64.266 325.487,64.266Z" style="fill-rule:nonzero;"/>
                    <path d="M61.384,39.749L87.024,23.5L166.184,148.414L140.545,164.663L61.384,39.749Z" style="fill:#f3f3f3;"/>
                    <path d="M282.583,20.5L299.193,19.729L306.052,167.455L289.441,168.226L282.583,20.5Z" style="fill:#f3f3f3;"/>
                    <path d="M71.42,27.134L155.756,160.197" style="fill:none;stroke:#000;stroke-width:0.67px;"/>
                    <path d="M290.865,17.098L298.826,173.082" style="fill:none;stroke:#000;stroke-width:0.67px;"/>
                    <path d="M57.369,159.605L123.075,159.605" style="fill:none;stroke:#000;stroke-width:0.67px;"/>
                    <path d="M57.369,160.087L57.783,101.732" style="fill:none;stroke:#000;stroke-width:0.67px;"/>
                    <path d="M57.705,159.674L59.431,158.65M60.007,158.308L61.734,157.284M62.31,156.943L64.037,155.919M64.613,155.578L66.339,154.554M66.915,154.212L68.642,153.188M69.218,152.847L70.945,151.823M71.521,151.481L73.247,150.457M73.823,150.116L75.55,149.092M76.126,148.751L77.853,147.727M78.429,147.385L80.155,146.361M80.731,146.02L82.458,144.996M83.034,144.654L84.761,143.631M85.337,143.289L87.064,142.265M87.639,141.924L89.366,140.9M89.942,140.558L91.669,139.534M92.245,139.193L93.972,138.169M94.548,137.827L96.274,136.804M96.85,136.462L98.577,135.438M99.153,135.097L100.88,134.073M101.456,133.731L103.182,132.707M103.758,132.366L105.485,131.342M106.061,131L107.788,129.977M108.364,129.635L110.09,128.611M110.666,128.27L112.393,127.246M112.969,126.904L114.696,125.88M115.272,125.539L116.999,124.515M117.574,124.173L119.301,123.15M119.877,122.808L121.604,121.784M122.18,121.443L123.907,120.419M124.482,120.077L126.209,119.053M126.785,118.712L128.33,117.796" style="fill:none;stroke:#000;stroke-width:0.67px;"/>
                    <path d="M58.373,159.309L85.82,143.217" style="fill:none;stroke:#000;stroke-width:1.34px;"/>
                    <path d="M84.526,146.303L86.974,142.541L82.496,142.84L84.526,146.303Z"/>
                    <path d="M236.338,160.273L302.044,160.273" style="fill:none;stroke:#000;stroke-width:0.67px;"/>
                    <path d="M236.338,160.757L236.752,102.402" style="fill:none;stroke:#000;stroke-width:0.67px;"/>
                    <path d="M236.338,160.188L238.338,160.008M239.004,159.947L241.004,159.767M241.671,159.706L243.67,159.526M244.337,159.466L246.336,159.285M247.003,159.225L249.002,159.044M249.669,158.984L251.669,158.803M252.335,158.743L254.335,158.563M255.002,158.502L257.001,158.322M257.668,158.261L259.667,158.081M260.334,158.021L262.333,157.84M263,157.78L265,157.599M265.667,157.539L267.666,157.358M268.333,157.298L270.332,157.118M270.999,157.057L272.998,156.877M273.665,156.816L275.665,156.636M276.331,156.576L278.331,156.395M278.998,156.335L280.997,156.154M281.664,156.094L283.663,155.913M284.33,155.853L286.329,155.672M286.996,155.612L288.996,155.432M289.662,155.371L291.662,155.191M292.329,155.131L294.328,154.95M294.995,154.89L296.994,154.709M297.661,154.649L298.371,154.585" style="fill:none;stroke:#000;stroke-width:0.67px;"/>
                    <path d="M236.672,160.181L267.076,157.697" style="fill:none;stroke:#000;stroke-width:1.34px;"/>
                    <path d="M264.573,159.915L268.41,157.588L264.246,155.915L264.573,159.915Z"/>
                    <path d="M157.391,163.687L169.443,156.294" style="fill:none;stroke:#000;stroke-width:1.34px;"/>
                    <path d="M156.342,161.976L155.681,164.736L158.441,165.397L159.102,162.637L156.342,161.976Z"/>
                    <path d="M168.211,159.405L170.584,155.595L166.113,155.983L168.211,159.405Z"/>
                    <path d="M298.225,175.849L305.983,175.403" style="fill:none;stroke:#000;stroke-width:1.34px;"/>
                    <path d="M298.109,173.845L296.22,175.964L298.339,177.854L300.229,175.734L298.109,173.845Z"/>
                    <path d="M303.427,177.56L307.32,175.326L303.196,173.553L303.427,177.56Z"/>
                    <path d="M152.997,175.311C152.997,175.992 152.692,176.012 152.286,176.022L152.286,176.174L154.541,176.174L154.541,176.022C154.186,176.012 153.85,175.992 153.85,175.494L153.85,172.629C153.85,172.578 154.318,172.03 155.019,172.03C155.547,172.03 155.719,172.426 155.719,173.096L155.719,175.301C155.719,175.961 155.486,175.992 155.029,176.022L155.029,176.174L157.304,176.174L157.304,176.022C156.888,176.012 156.573,175.981 156.573,175.209L156.573,172.65C156.796,172.304 157.142,172.03 157.7,172.03C158.432,172.03 158.442,172.629 158.442,173.147L158.442,175.291C158.442,175.941 158.279,175.961 157.771,176.022L157.771,176.174L159.996,176.174L159.996,176.022L159.732,176.002C159.285,175.931 159.295,175.626 159.295,175.402L159.295,173.31C159.295,172.558 159.153,171.502 158.096,171.502C157.294,171.502 156.674,172.111 156.461,172.355C156.349,171.928 156.034,171.502 155.374,171.502C154.826,171.502 154.409,171.827 153.81,172.284L153.81,171.522L153.739,171.502C153.271,171.674 152.794,171.827 152.317,171.959L152.317,172.131C152.398,172.111 152.499,172.091 152.642,172.091C152.804,172.091 152.997,172.101 152.997,172.741L152.997,175.311Z" style="fill-rule:nonzero;"/>
                    <path d="M162.941,174.925C162.941,175.23 162.91,175.352 162.596,175.504C162.504,175.555 162.189,175.687 161.966,175.687C161.59,175.687 161.295,175.372 161.295,174.894L161.295,174.874C161.295,174.529 161.407,173.96 162.941,173.452L162.941,174.925ZM164.515,175.504C164.404,175.595 164.272,175.697 164.058,175.697C163.764,175.697 163.764,175.402 163.764,175.108L163.764,173.127C163.764,172.517 163.764,171.502 162.25,171.502C161.072,171.502 160.594,172.223 160.594,172.629C160.594,172.792 160.716,173.076 161.031,173.076C161.295,173.076 161.488,172.853 161.488,172.639C161.488,172.548 161.437,172.396 161.437,172.243C161.437,171.928 161.824,171.745 162.159,171.745C162.463,171.745 162.941,171.857 162.941,172.589L162.941,173.208C161.285,173.858 160.401,174.204 160.401,175.22C160.401,175.9 160.93,176.276 161.478,176.276C162.037,176.276 162.575,175.87 162.951,175.534C163.002,176.266 163.428,176.276 163.611,176.276C163.774,176.276 164.089,176.266 164.515,175.768L164.515,175.504Z" style="fill-rule:nonzero;"/>
                    <path d="M165.307,175.321C165.307,175.89 165.144,175.92 164.585,176.022L164.585,176.174L167.023,176.174L167.023,176.022C166.505,176.002 166.16,175.961 166.16,175.26L166.16,172.975C166.16,172.65 166.607,172.142 166.851,172.142C167.095,172.142 167.196,172.497 167.552,172.497C167.795,172.497 167.938,172.304 167.938,172.05C167.938,171.715 167.735,171.502 167.389,171.502C167.003,171.502 166.658,171.705 166.18,172.426L166.16,172.426L166.16,171.522L166.109,171.502C165.611,171.705 165.104,171.888 164.606,172.05L164.606,172.213C164.697,172.192 164.809,172.172 164.951,172.172C165.114,172.172 165.307,172.182 165.307,172.782L165.307,175.321Z" style="fill-rule:nonzero;"/>
                    <path d="M168.729,177.089C168.729,176.784 168.912,176.571 169.227,176.195C169.704,176.296 169.928,176.296 170.883,176.327C171.634,176.347 172.132,176.367 172.132,176.825C172.132,177.363 171.441,177.81 170.253,177.81C169.095,177.81 168.729,177.404 168.729,177.089ZM169.278,172.7C169.278,172.02 169.674,171.786 170.039,171.786C170.913,171.786 171.076,173.147 171.076,173.432C171.076,173.655 171.025,174.407 170.334,174.407C169.542,174.407 169.278,173.503 169.278,172.7ZM172.508,172.233L172.508,171.837L171.726,171.837C171.563,171.837 171.38,171.817 171.167,171.735C170.761,171.583 170.537,171.502 170.182,171.502C169.41,171.502 168.434,171.989 168.434,173.198C168.434,173.787 168.78,174.255 169.379,174.519C168.475,175.321 168.475,175.453 168.475,175.626C168.475,175.91 168.739,176.032 169.013,176.164C168.495,176.53 168.018,176.946 168.018,177.404C168.018,177.942 168.78,178.389 169.816,178.389C170.73,178.389 172.416,177.82 172.416,176.672C172.416,176.388 172.274,175.636 171.187,175.585L169.877,175.524C169.572,175.514 169.085,175.484 169.085,175.25C169.085,175.047 169.491,174.63 169.694,174.61C169.755,174.61 170.121,174.661 170.243,174.661C170.811,174.661 171.858,174.265 171.858,173.168C171.858,172.66 171.766,172.467 171.665,172.233L172.508,172.233Z" style="fill-rule:nonzero;"/>
                    <path d="M172.974,176.174L175.382,176.174L175.382,176.022C174.681,175.981 174.63,175.809 174.63,175.138L174.63,171.532L174.589,171.502C174.061,171.695 173.543,171.888 173.015,172.06L173.015,172.213C173.147,172.192 173.279,172.172 173.421,172.172C173.584,172.172 173.777,172.182 173.777,172.782L173.777,175.138C173.777,175.931 173.604,175.992 172.974,176.022L172.974,176.174ZM173.604,169.754C173.604,169.947 173.746,170.273 174.112,170.273C174.416,170.273 174.64,170.049 174.64,169.754C174.64,169.47 174.416,169.236 174.112,169.236C173.756,169.236 173.604,169.561 173.604,169.754Z" style="fill-rule:nonzero;"/>
                    <path d="M176.447,175.26C176.447,175.86 176.295,175.992 175.817,176.022L175.817,176.174L177.971,176.174L177.971,176.022C177.443,175.992 177.3,175.829 177.3,175.494L177.3,172.639C177.686,172.264 178.001,172.06 178.306,172.06C178.905,172.06 179.088,172.426 179.088,173.046L179.088,175.169C179.088,175.941 178.824,175.992 178.448,176.022L178.448,176.174L180.561,176.174L180.561,176.022C180.063,175.981 179.941,175.829 179.941,175.352L179.941,173.025C179.941,171.776 179.22,171.502 178.753,171.502C178.154,171.502 177.768,171.857 177.27,172.324L177.27,171.522L177.199,171.502C176.732,171.674 176.254,171.827 175.797,171.959L175.797,172.131C175.838,172.111 175.949,172.091 176.092,172.091C176.254,172.091 176.447,172.101 176.447,172.741L176.447,175.26Z" style="fill-rule:nonzero;"/>
                    <path d="M301.001,188.181C301.001,188.862 300.696,188.882 300.29,188.892L300.29,189.045L302.545,189.045L302.545,188.892C302.189,188.882 301.854,188.862 301.854,188.364L301.854,185.5C301.854,185.449 302.322,184.9 303.022,184.9C303.551,184.9 303.723,185.296 303.723,185.967L303.723,188.171C303.723,188.831 303.49,188.862 303.033,188.892L303.033,189.045L305.308,189.045L305.308,188.892C304.892,188.882 304.577,188.852 304.577,188.08L304.577,185.52C304.8,185.174 305.145,184.9 305.704,184.9C306.436,184.9 306.446,185.5 306.446,186.018L306.446,188.161C306.446,188.811 306.283,188.831 305.775,188.892L305.775,189.045L308,189.045L308,188.892L307.736,188.872C307.289,188.801 307.299,188.496 307.299,188.273L307.299,186.18C307.299,185.428 307.157,184.372 306.1,184.372C305.298,184.372 304.678,184.981 304.465,185.225C304.353,184.799 304.038,184.372 303.378,184.372C302.829,184.372 302.413,184.697 301.814,185.154L301.814,184.392L301.743,184.372C301.275,184.545 300.798,184.697 300.32,184.829L300.32,185.002C300.402,184.981 300.503,184.961 300.645,184.961C300.808,184.961 301.001,184.971 301.001,185.611L301.001,188.181Z" style="fill-rule:nonzero;"/>
                    <path d="M310.945,187.795C310.945,188.1 310.914,188.222 310.599,188.374C310.508,188.425 310.193,188.557 309.97,188.557C309.594,188.557 309.299,188.242 309.299,187.765L309.299,187.744C309.299,187.399 309.411,186.83 310.945,186.322L310.945,187.795ZM312.519,188.374C312.408,188.466 312.275,188.567 312.062,188.567C311.768,188.567 311.768,188.273 311.768,187.978L311.768,185.997C311.768,185.388 311.768,184.372 310.254,184.372C309.076,184.372 308.598,185.093 308.598,185.5C308.598,185.662 308.72,185.946 309.035,185.946C309.299,185.946 309.492,185.723 309.492,185.51C309.492,185.418 309.441,185.266 309.441,185.114C309.441,184.799 309.827,184.616 310.163,184.616C310.467,184.616 310.945,184.728 310.945,185.459L310.945,186.079C309.289,186.729 308.405,187.074 308.405,188.09C308.405,188.77 308.933,189.146 309.482,189.146C310.041,189.146 310.579,188.74 310.955,188.405C311.006,189.136 311.432,189.146 311.615,189.146C311.778,189.146 312.093,189.136 312.519,188.638L312.519,188.374Z" style="fill-rule:nonzero;"/>
                    <path d="M313.311,188.191C313.311,188.76 313.148,188.791 312.589,188.892L312.589,189.045L315.027,189.045L315.027,188.892C314.509,188.872 314.164,188.831 314.164,188.13L314.164,185.845C314.164,185.52 314.611,185.012 314.855,185.012C315.098,185.012 315.2,185.367 315.556,185.367C315.799,185.367 315.942,185.174 315.942,184.921C315.942,184.585 315.738,184.372 315.393,184.372C315.007,184.372 314.662,184.575 314.184,185.296L314.164,185.296L314.164,184.392L314.113,184.372C313.615,184.575 313.107,184.758 312.61,184.921L312.61,185.083C312.701,185.063 312.813,185.042 312.955,185.042C313.118,185.042 313.311,185.053 313.311,185.652L313.311,188.191Z" style="fill-rule:nonzero;"/>
                    <path d="M316.733,189.959C316.733,189.654 316.916,189.441 317.231,189.065C317.708,189.167 317.932,189.167 318.886,189.197C319.638,189.217 320.136,189.238 320.136,189.695C320.136,190.233 319.445,190.68 318.257,190.68C317.099,190.68 316.733,190.274 316.733,189.959ZM317.281,185.571C317.281,184.89 317.678,184.656 318.043,184.656C318.917,184.656 319.079,186.018 319.079,186.302C319.079,186.526 319.029,187.277 318.338,187.277C317.546,187.277 317.281,186.373 317.281,185.571ZM320.512,185.103L320.512,184.707L319.73,184.707C319.567,184.707 319.384,184.687 319.171,184.606C318.764,184.453 318.541,184.372 318.185,184.372C317.413,184.372 316.438,184.86 316.438,186.068C316.438,186.658 316.784,187.125 317.383,187.389C316.479,188.191 316.479,188.323 316.479,188.496C316.479,188.781 316.743,188.903 317.017,189.035C316.499,189.4 316.022,189.817 316.022,190.274C316.022,190.812 316.784,191.259 317.82,191.259C318.734,191.259 320.42,190.69 320.42,189.542C320.42,189.258 320.278,188.506 319.191,188.456L317.881,188.395C317.576,188.384 317.088,188.354 317.088,188.12C317.088,187.917 317.495,187.501 317.698,187.48C317.759,187.48 318.125,187.531 318.246,187.531C318.815,187.531 319.862,187.135 319.862,186.038C319.862,185.53 319.77,185.337 319.669,185.103L320.512,185.103Z" style="fill-rule:nonzero;"/>
                    <path d="M320.978,189.045L323.385,189.045L323.385,188.892C322.684,188.852 322.634,188.679 322.634,188.009L322.634,184.402L322.593,184.372C322.065,184.565 321.547,184.758 321.019,184.931L321.019,185.083C321.151,185.063 321.283,185.042 321.425,185.042C321.587,185.042 321.78,185.053 321.78,185.652L321.78,188.009C321.78,188.801 321.608,188.862 320.978,188.892L320.978,189.045ZM321.608,182.625C321.608,182.818 321.75,183.143 322.116,183.143C322.42,183.143 322.644,182.919 322.644,182.625C322.644,182.34 322.42,182.107 322.116,182.107C321.76,182.107 321.608,182.432 321.608,182.625Z" style="fill-rule:nonzero;"/>
                    <path d="M324.451,188.13C324.451,188.73 324.299,188.862 323.821,188.892L323.821,189.045L325.975,189.045L325.975,188.892C325.447,188.862 325.304,188.699 325.304,188.364L325.304,185.51C325.69,185.134 326.005,184.931 326.31,184.931C326.909,184.931 327.092,185.296 327.092,185.916L327.092,188.039C327.092,188.811 326.828,188.862 326.452,188.892L326.452,189.045L328.565,189.045L328.565,188.892C328.067,188.852 327.945,188.699 327.945,188.222L327.945,185.896C327.945,184.646 327.224,184.372 326.757,184.372C326.158,184.372 325.772,184.728 325.274,185.195L325.274,184.392L325.203,184.372C324.735,184.545 324.258,184.697 323.801,184.829L323.801,185.002C323.842,184.981 323.953,184.961 324.095,184.961C324.258,184.961 324.451,184.971 324.451,185.611L324.451,188.13Z" style="fill-rule:nonzero;"/>
                    <path d="M56.343,13.838L54.971,13.838L54.971,14.081C55.256,14.112 55.459,14.132 55.459,14.457C55.459,14.681 54.941,15.889 54.667,16.661L54.646,16.661C54.463,15.869 54.037,14.549 54.037,14.335C54.037,14.122 54.26,14.102 54.524,14.081L54.524,13.838L52.147,13.838L52.147,14.081C52.391,14.112 52.503,14.112 52.594,14.325C52.645,14.447 52.706,14.65 52.808,14.996L52.117,16.733C51.609,15.371 51.264,14.599 51.264,14.386C51.264,14.122 51.507,14.102 51.65,14.081L51.65,13.838L49.394,13.838L49.394,14.081C49.659,14.132 49.709,14.203 49.973,14.863L51.477,18.663L51.721,18.663L52.96,15.585L53.011,15.585L54.027,18.663L54.26,18.663L55.835,14.589C56.007,14.142 56.15,14.122 56.343,14.081L56.343,13.838Z" style="fill-rule:nonzero;"/>
                    <path d="M60.721,16.123C60.721,15.818 60.477,15.564 60.172,15.564C59.867,15.564 59.613,15.818 59.613,16.123C59.613,16.428 59.867,16.672 60.172,16.672C60.477,16.672 60.721,16.428 60.721,16.123Z" style="fill-rule:nonzero;"/>
                    <path d="M68.756,18.277C68.624,18.236 68.542,18.206 68.451,18.073L66.948,15.757L67.974,14.477C68.156,14.244 68.4,14.122 68.685,14.081L68.685,13.838L66.978,13.838L66.978,14.081C67.374,14.112 67.496,14.122 67.496,14.335C67.496,14.477 67.496,14.477 66.744,15.442C66.592,15.249 66.023,14.457 66.023,14.284C66.023,14.122 66.257,14.081 66.501,14.081L66.501,13.838L63.961,13.838L63.961,14.081C64.235,14.122 64.317,14.213 64.489,14.477L65.79,16.479C64.459,18.216 64.428,18.226 63.981,18.277L63.981,18.52L65.698,18.52L65.698,18.277C65.525,18.266 65.19,18.266 65.19,18.012C65.19,17.809 65.81,17.017 66.003,16.783C66.318,17.281 66.491,17.494 66.582,17.647C66.704,17.84 66.765,18.002 66.765,18.063C66.765,18.226 66.531,18.266 66.308,18.277L66.308,18.52L68.756,18.52L68.756,18.277Z" style="fill-rule:nonzero;"/>
                    <path d="M78.538,16.235L78.538,15.727L75.399,15.727L75.399,12.598L74.891,12.598L74.891,15.727L71.752,15.727L71.752,16.235L74.891,16.235L74.891,19.364L75.399,19.364L75.399,16.235L78.538,16.235Z" style="fill-rule:nonzero;"/>
                    <path d="M85.303,15.402C85.303,16.255 84.338,18.399 82.947,18.399C82.469,18.399 82.469,18.134 82.469,18.063C82.469,16.997 83.445,14.538 84.562,14.538C85.202,14.538 85.303,15.087 85.303,15.402ZM82.479,11.989C83.069,11.999 83.14,12.05 83.14,12.283C83.14,12.426 83.048,12.679 82.977,12.964L81.596,18.053L81.596,18.094C81.596,18.317 82.378,18.632 82.916,18.632C84.47,18.632 86.167,16.875 86.167,15.27C86.167,14.528 85.669,14.041 84.958,14.041C84.044,14.041 83.404,14.985 83.069,15.514L83.048,15.503C83.394,14.356 83.861,12.466 84.084,11.633L84.034,11.582C83.505,11.684 82.987,11.755 82.479,11.816L82.479,11.989Z" style="fill-rule:nonzero;"/>
                    <path d="M96.62,15.402L96.62,14.833L89.834,14.833L89.834,15.402L96.62,15.402ZM96.62,17.454L96.62,16.885L89.834,16.885L89.834,17.454L96.62,17.454Z" style="fill-rule:nonzero;"/>
                    <path d="M102.552,11.918C103.852,11.918 103.872,14.467 103.872,15.158C103.872,15.961 103.852,18.399 102.552,18.399C101.252,18.399 101.231,15.981 101.231,15.158C101.231,14.467 101.252,11.918 102.552,11.918ZM102.552,11.654C100.683,11.654 100.256,13.959 100.256,15.158C100.256,16.387 100.683,18.663 102.552,18.663C104.421,18.663 104.848,16.387 104.848,15.158C104.848,13.959 104.421,11.654 102.552,11.654Z" style="fill-rule:nonzero;"/>
                    <path d="M268.708,7.407L267.337,7.407L267.337,7.651C267.621,7.682 267.825,7.702 267.825,8.027C267.825,8.25 267.306,9.459 267.032,10.231L267.012,10.231C266.829,9.439 266.402,8.118 266.402,7.905C266.402,7.692 266.626,7.671 266.89,7.651L266.89,7.407L264.513,7.407L264.513,7.651C264.757,7.682 264.869,7.682 264.96,7.895C265.011,8.017 265.072,8.22 265.173,8.565L264.483,10.302C263.975,8.941 263.629,8.169 263.629,7.956C263.629,7.692 263.873,7.671 264.015,7.651L264.015,7.407L261.76,7.407L261.76,7.651C262.024,7.702 262.075,7.773 262.339,8.433L263.843,12.232L264.086,12.232L265.326,9.154L265.376,9.154L266.392,12.232L266.626,12.232L268.2,8.159C268.373,7.712 268.515,7.692 268.708,7.651L268.708,7.407Z" style="fill-rule:nonzero;"/>
                    <path d="M273.076,9.693C273.076,9.388 272.833,9.134 272.528,9.134C272.223,9.134 271.969,9.388 271.969,9.693C271.969,9.998 272.223,10.241 272.528,10.241C272.833,10.241 273.076,9.998 273.076,9.693Z" style="fill-rule:nonzero;"/>
                    <path d="M281.111,11.846C280.979,11.806 280.898,11.775 280.807,11.643L279.303,9.327L280.329,8.047C280.512,7.814 280.756,7.692 281.04,7.651L281.04,7.407L279.334,7.407L279.334,7.651C279.73,7.682 279.852,7.692 279.852,7.905C279.852,8.047 279.852,8.047 279.1,9.012C278.948,8.819 278.379,8.027 278.379,7.854C278.379,7.692 278.612,7.651 278.856,7.651L278.856,7.407L276.317,7.407L276.317,7.651C276.591,7.692 276.672,7.783 276.845,8.047L278.145,10.048C276.815,11.785 276.784,11.796 276.337,11.846L276.337,12.09L278.054,12.09L278.054,11.846C277.881,11.836 277.546,11.836 277.546,11.582C277.546,11.379 278.166,10.587 278.359,10.353C278.673,10.851 278.846,11.064 278.938,11.217C279.059,11.41 279.12,11.572 279.12,11.633C279.12,11.796 278.887,11.836 278.663,11.846L278.663,12.09L281.111,12.09L281.111,11.846Z" style="fill-rule:nonzero;"/>
                    <path d="M290.884,9.805L290.884,9.297L287.745,9.297L287.745,6.168L287.237,6.168L287.237,9.297L284.098,9.297L284.098,9.805L287.237,9.805L287.237,12.933L287.745,12.933L287.745,9.805L290.884,9.805Z" style="fill-rule:nonzero;"/>
                    <path d="M297.659,8.972C297.659,9.825 296.694,11.968 295.302,11.968C294.825,11.968 294.825,11.704 294.825,11.633C294.825,10.566 295.8,8.108 296.917,8.108C297.557,8.108 297.659,8.657 297.659,8.972ZM294.835,5.558C295.424,5.569 295.495,5.619 295.495,5.853C295.495,5.995 295.404,6.249 295.333,6.534L293.951,11.623L293.951,11.664C293.951,11.887 294.733,12.202 295.272,12.202C296.826,12.202 298.522,10.445 298.522,8.84C298.522,8.098 298.025,7.61 297.314,7.61C296.399,7.61 295.759,8.555 295.424,9.083L295.404,9.073C295.749,7.925 296.216,6.036 296.44,5.203L296.389,5.152C295.861,5.254 295.343,5.325 294.835,5.386L294.835,5.558Z" style="fill-rule:nonzero;"/>
                    <path d="M308.975,8.972L308.975,8.403L302.189,8.403L302.189,8.972L308.975,8.972ZM308.975,11.024L308.975,10.455L302.189,10.455L302.189,11.024L308.975,11.024Z" style="fill-rule:nonzero;"/>
                    <path d="M314.908,5.487C316.208,5.487 316.228,8.037 316.228,8.728C316.228,9.53 316.208,11.968 314.908,11.968C313.607,11.968 313.587,9.551 313.587,8.728C313.587,8.037 313.607,5.487 314.908,5.487ZM314.908,5.223C313.038,5.223 312.612,7.529 312.612,8.728C312.612,9.957 313.038,12.232 314.908,12.232C316.777,12.232 317.203,9.957 317.203,8.728C317.203,7.529 316.777,5.223 314.908,5.223Z" style="fill-rule:nonzero;"/>
                    <path d="M162.536,46.018L161.164,46.018L161.164,46.262C161.449,46.293 161.652,46.313 161.652,46.638C161.652,46.861 161.134,48.07 160.86,48.842L160.839,48.842C160.656,48.05 160.23,46.729 160.23,46.516C160.23,46.303 160.453,46.282 160.717,46.262L160.717,46.018L158.34,46.018L158.34,46.262C158.584,46.293 158.696,46.293 158.787,46.506C158.838,46.628 158.899,46.831 159.001,47.176L158.31,48.913C157.802,47.552 157.457,46.78 157.457,46.567C157.457,46.303 157.7,46.282 157.843,46.262L157.843,46.018L155.587,46.018L155.587,46.262C155.852,46.313 155.902,46.384 156.166,47.044L157.67,50.843L157.914,50.843L159.153,47.766L159.204,47.766L160.22,50.843L160.453,50.843L162.028,46.77C162.2,46.323 162.343,46.303 162.536,46.262L162.536,46.018Z" style="fill-rule:nonzero;"/>
                    <path d="M166.893,48.304C166.893,47.999 166.65,47.745 166.345,47.745C166.04,47.745 165.786,47.999 165.786,48.304C165.786,48.609 166.04,48.852 166.345,48.852C166.65,48.852 166.893,48.609 166.893,48.304Z" style="fill-rule:nonzero;"/>
                    <path d="M174.939,50.457C174.807,50.417 174.725,50.386 174.634,50.254L173.131,47.938L174.156,46.658C174.339,46.425 174.583,46.303 174.868,46.262L174.868,46.018L173.161,46.018L173.161,46.262C173.557,46.293 173.679,46.303 173.679,46.516C173.679,46.658 173.679,46.658 172.927,47.623C172.775,47.43 172.206,46.638 172.206,46.465C172.206,46.303 172.44,46.262 172.684,46.262L172.684,46.018L170.144,46.018L170.144,46.262C170.418,46.303 170.5,46.394 170.672,46.658L171.973,48.659C170.642,50.396 170.611,50.407 170.164,50.457L170.164,50.701L171.881,50.701L171.881,50.457C171.708,50.447 171.373,50.447 171.373,50.193C171.373,49.99 171.993,49.198 172.186,48.964C172.501,49.462 172.673,49.675 172.765,49.828C172.887,50.021 172.948,50.183 172.948,50.244C172.948,50.407 172.714,50.447 172.491,50.457L172.491,50.701L174.939,50.701L174.939,50.457Z" style="fill-rule:nonzero;"/>
                    <path d="M184.711,48.416L184.711,47.908L181.572,47.908L181.572,44.779L181.064,44.779L181.064,47.908L177.925,47.908L177.925,48.416L181.064,48.416L181.064,51.544L181.572,51.544L181.572,48.416L184.711,48.416Z" style="fill-rule:nonzero;"/>
                    <path d="M191.486,47.583C191.486,48.436 190.521,50.579 189.13,50.579C188.652,50.579 188.652,50.315 188.652,50.244C188.652,49.177 189.627,46.719 190.745,46.719C191.385,46.719 191.486,47.268 191.486,47.583ZM188.662,44.17C189.251,44.18 189.323,44.23 189.323,44.464C189.323,44.606 189.231,44.86 189.16,45.145L187.779,50.234L187.779,50.275C187.779,50.498 188.561,50.813 189.099,50.813C190.653,50.813 192.35,49.056 192.35,47.451C192.35,46.709 191.852,46.221 191.141,46.221C190.227,46.221 189.587,47.166 189.251,47.694L189.231,47.684C189.577,46.536 190.044,44.647 190.267,43.814L190.216,43.763C189.688,43.865 189.17,43.936 188.662,43.997L188.662,44.17Z" style="fill-rule:nonzero;"/>
                    <path d="M201.197,48.375L196.433,50.214L196.433,50.681L202.376,48.405L202.376,48.345L196.433,46.079L196.433,46.567L201.197,48.375Z" style="fill-rule:nonzero;"/>
                    <path d="M208.725,44.098C210.025,44.098 210.045,46.648 210.045,47.339C210.045,48.141 210.025,50.579 208.725,50.579C207.424,50.579 207.404,48.162 207.404,47.339C207.404,46.648 207.424,44.098 208.725,44.098ZM208.725,43.834C206.856,43.834 206.429,46.14 206.429,47.339C206.429,48.568 206.856,50.843 208.725,50.843C210.594,50.843 211.02,48.568 211.02,47.339C211.02,46.14 210.594,43.834 208.725,43.834Z" style="fill-rule:nonzero;"/>
                    <path d="M11.312,94.28L9.94,94.28L9.94,94.523C10.225,94.554 10.428,94.574 10.428,94.899C10.428,95.123 9.91,96.332 9.636,97.104L9.615,97.104C9.432,96.311 9.006,94.991 9.006,94.777C9.006,94.564 9.229,94.544 9.493,94.523L9.493,94.28L7.116,94.28L7.116,94.523C7.36,94.554 7.472,94.554 7.563,94.767C7.614,94.889 7.675,95.092 7.777,95.438L7.086,97.175C6.578,95.814 6.233,95.041 6.233,94.828C6.233,94.564 6.476,94.544 6.619,94.523L6.619,94.28L4.363,94.28L4.363,94.523C4.628,94.574 4.678,94.645 4.942,95.306L6.446,99.105L6.69,99.105L7.929,96.027L7.98,96.027L8.996,99.105L9.229,99.105L10.804,95.031C10.976,94.584 11.119,94.564 11.312,94.523L11.312,94.28Z" style="fill-rule:nonzero;"/>
                    <path d="M15.69,96.565C15.69,96.26 15.446,96.007 15.141,96.007C14.837,96.007 14.583,96.26 14.583,96.565C14.583,96.87 14.837,97.114 15.141,97.114C15.446,97.114 15.69,96.87 15.69,96.565Z" style="fill-rule:nonzero;"/>
                    <path d="M23.735,98.719C23.603,98.678 23.522,98.648 23.43,98.516L21.927,96.2L22.953,94.92C23.136,94.686 23.379,94.564 23.664,94.523L23.664,94.28L21.957,94.28L21.957,94.523C22.353,94.554 22.475,94.564 22.475,94.777C22.475,94.92 22.475,94.92 21.724,95.885C21.571,95.692 21.002,94.899 21.002,94.727C21.002,94.564 21.236,94.523 21.48,94.523L21.48,94.28L18.94,94.28L18.94,94.523C19.215,94.564 19.296,94.655 19.469,94.92L20.769,96.921C19.438,98.658 19.408,98.668 18.961,98.719L18.961,98.963L20.677,98.963L20.677,98.719C20.505,98.709 20.169,98.709 20.169,98.455C20.169,98.251 20.789,97.459 20.982,97.225C21.297,97.723 21.47,97.937 21.561,98.089C21.683,98.282 21.744,98.444 21.744,98.505C21.744,98.668 21.51,98.709 21.287,98.719L21.287,98.963L23.735,98.963L23.735,98.719Z" style="fill-rule:nonzero;"/>
                    <path d="M33.507,96.677L33.507,96.169L30.368,96.169L30.368,93.04L29.86,93.04L29.86,96.169L26.722,96.169L26.722,96.677L29.86,96.677L29.86,99.806L30.368,99.806L30.368,96.677L33.507,96.677Z" style="fill-rule:nonzero;"/>
                    <path d="M40.283,95.844C40.283,96.697 39.318,98.841 37.926,98.841C37.448,98.841 37.448,98.577 37.448,98.505C37.448,97.439 38.424,94.981 39.541,94.981C40.181,94.981 40.283,95.529 40.283,95.844ZM37.459,92.431C38.048,92.441 38.119,92.492 38.119,92.725C38.119,92.868 38.028,93.122 37.956,93.406L36.575,98.495L36.575,98.536C36.575,98.759 37.357,99.074 37.895,99.074C39.45,99.074 41.146,97.317 41.146,95.712C41.146,94.97 40.648,94.483 39.937,94.483C39.023,94.483 38.383,95.428 38.048,95.956L38.028,95.946C38.373,94.798 38.84,92.908 39.064,92.075L39.013,92.025C38.485,92.126 37.967,92.197 37.459,92.258L37.459,92.431Z" style="fill-rule:nonzero;"/>
                    <path d="M46.398,96.636L51.162,94.828L51.162,94.341L45.219,96.606L45.219,96.667L51.162,98.942L51.162,98.475L46.398,96.636Z" style="fill-rule:nonzero;"/>
                    <path d="M57.521,92.36C58.821,92.36 58.841,94.909 58.841,95.6C58.841,96.403 58.821,98.841 57.521,98.841C56.221,98.841 56.2,96.423 56.2,95.6C56.2,94.909 56.221,92.36 57.521,92.36ZM57.521,92.096C55.652,92.096 55.225,94.402 55.225,95.6C55.225,96.829 55.652,99.105 57.521,99.105C59.39,99.105 59.817,96.829 59.817,95.6C59.817,94.402 59.39,92.096 57.521,92.096Z" style="fill-rule:nonzero;"/>
                    <path d="M72.463,142.541L71.092,142.541L71.092,142.785C71.377,142.815 71.58,142.835 71.58,143.161C71.58,143.384 71.062,144.593 70.787,145.365L70.767,145.365C70.584,144.573 70.158,143.252 70.158,143.039C70.158,142.825 70.381,142.805 70.645,142.785L70.645,142.541L68.268,142.541L68.268,142.785C68.512,142.815 68.624,142.815 68.715,143.028C68.766,143.15 68.827,143.354 68.928,143.699L68.238,145.436C67.73,144.075 67.384,143.303 67.384,143.089C67.384,142.825 67.628,142.805 67.77,142.785L67.77,142.541L65.515,142.541L65.515,142.785C65.779,142.835 65.83,142.907 66.094,143.567L67.598,147.366L67.842,147.366L69.081,144.288L69.132,144.288L70.147,147.366L70.381,147.366L71.956,143.293C72.128,142.846 72.27,142.825 72.463,142.785L72.463,142.541Z" style="fill-rule:nonzero;"/>
                    <path d="M259.078,148.971L257.707,148.971L257.707,149.215C257.992,149.245 258.195,149.266 258.195,149.591C258.195,149.814 257.677,151.023 257.402,151.795L257.382,151.795C257.199,151.003 256.773,149.682 256.773,149.469C256.773,149.255 256.996,149.235 257.26,149.215L257.26,148.971L254.883,148.971L254.883,149.215C255.127,149.245 255.239,149.245 255.33,149.459C255.381,149.58 255.442,149.784 255.543,150.129L254.853,151.866C254.345,150.505 253.999,149.733 253.999,149.519C253.999,149.255 254.243,149.235 254.385,149.215L254.385,148.971L252.13,148.971L252.13,149.215C252.394,149.266 252.445,149.337 252.709,149.997L254.213,153.796L254.457,153.796L255.696,150.718L255.747,150.718L256.762,153.796L256.996,153.796L258.571,149.723C258.743,149.276 258.885,149.255 259.078,149.215L259.078,148.971Z" style="fill-rule:nonzero;"/>
                    <path d="M45.758,43.834C44.183,44.769 43.249,46.293 43.249,48.04C43.249,49.442 43.584,50.173 44.082,50.904C44.468,51.473 45.138,52.184 45.727,52.499L45.849,52.337C44.122,51.229 44.122,49.005 44.122,47.969C44.122,45.389 45.097,44.596 45.849,43.997L45.758,43.834Z" style="fill-rule:nonzero;"/>
                    <path d="M49.058,49.452C49.058,49.757 49.028,49.878 48.713,50.031C48.621,50.082 48.306,50.214 48.083,50.214C47.707,50.214 47.413,49.899 47.413,49.421L47.413,49.401C47.413,49.056 47.524,48.487 49.058,47.979L49.058,49.452ZM50.633,50.031C50.521,50.122 50.389,50.224 50.176,50.224C49.881,50.224 49.881,49.929 49.881,49.635L49.881,47.654C49.881,47.044 49.881,46.029 48.367,46.029C47.189,46.029 46.712,46.75 46.712,47.156C46.712,47.319 46.833,47.603 47.148,47.603C47.413,47.603 47.606,47.38 47.606,47.166C47.606,47.075 47.555,46.922 47.555,46.77C47.555,46.455 47.941,46.272 48.276,46.272C48.581,46.272 49.058,46.384 49.058,47.115L49.058,47.735C47.402,48.385 46.519,48.731 46.519,49.746C46.519,50.427 47.047,50.803 47.595,50.803C48.154,50.803 48.692,50.397 49.068,50.061C49.119,50.793 49.546,50.803 49.729,50.803C49.891,50.803 50.206,50.793 50.633,50.295L50.633,50.031Z" style="fill-rule:nonzero;"/>
                    <path d="M51.038,52.499C52.612,51.565 53.547,50.041 53.547,48.294C53.547,46.892 53.212,46.161 52.714,45.429C52.328,44.86 51.658,44.149 51.068,43.834L50.947,43.997C52.673,45.104 52.673,47.329 52.673,48.365C52.673,50.945 51.698,51.737 50.947,52.337L51.038,52.499Z" style="fill-rule:nonzero;"/>
                    <path d="M229.16,43.835C227.585,44.769 226.651,46.293 226.651,48.04C226.651,49.442 226.986,50.173 227.484,50.905C227.87,51.473 228.54,52.184 229.129,52.499L229.251,52.337C227.524,51.23 227.524,49.005 227.524,47.969C227.524,45.389 228.499,44.596 229.251,43.997L229.16,43.835Z" style="fill-rule:nonzero;"/>
                    <path d="M231.099,47.431C231.139,46.852 231.79,46.669 232.115,46.669C233.039,46.669 233.405,47.715 233.405,48.66C233.405,49.33 233.242,50.478 232.074,50.478C231.82,50.478 231.099,50.346 231.099,49.99L231.099,47.431ZM230.246,50.153C230.246,50.529 231.312,50.803 231.82,50.803C233.699,50.803 234.299,49.198 234.299,48.284C234.299,47.197 233.72,46.029 232.49,46.029C231.718,46.029 231.18,46.618 231.119,46.852L231.099,46.852L231.099,43.784L231.048,43.763C230.56,43.936 230.063,44.078 229.575,44.21L229.575,44.373C229.636,44.363 229.738,44.363 229.799,44.363C230.246,44.363 230.246,44.576 230.246,44.881L230.246,50.153Z" style="fill-rule:nonzero;"/>
                    <path d="M235.009,52.5C236.583,51.565 237.518,50.041 237.518,48.294C237.518,46.892 237.183,46.161 236.685,45.429C236.299,44.861 235.628,44.15 235.039,43.835L234.917,43.997C236.644,45.104 236.644,47.329 236.644,48.365C236.644,50.945 235.669,51.738 234.917,52.337L235.009,52.5Z" style="fill-rule:nonzero;"/>
                </g>
            </g>
        </g>
    </g>
</svg>
