<?xml version="1.0" encoding="utf-8" standalone="no"?>
<!DOCTYPE svg PUBLIC "-//W3C//DTD SVG 1.1//EN"
  "http://www.w3.org/Graphics/SVG/1.1/DTD/svg11.dtd">
<svg xmlns:xlink="http://www.w3.org/1999/xlink" width="576pt" height="432pt" viewBox="0 0 576 432" xmlns="http://www.w3.org/2000/svg" version="1.1">
 <metadata>
  <rdf:RDF xmlns:dc="http://purl.org/dc/elements/1.1/" xmlns:cc="http://creativecommons.org/ns#" xmlns:rdf="http://www.w3.org/1999/02/22-rdf-syntax-ns#">
   <cc:Work>
    <dc:type rdf:resource="http://purl.org/dc/dcmitype/StillImage"/>
    <dc:date>2025-05-14T08:54:45.133292</dc:date>
    <dc:format>image/svg+xml</dc:format>
    <dc:creator>
     <cc:Agent>
      <dc:title>Matplotlib v3.10.0, https://matplotlib.org/</dc:title>
     </cc:Agent>
    </dc:creator>
   </cc:Work>
  </rdf:RDF>
 </metadata>
 <defs>
  <style type="text/css">*{stroke-linejoin: round; stroke-linecap: butt}</style>
 </defs>
 <g id="figure_1">
  <g id="patch_1">
   <path d="M 0 432 
L 576 432 
L 576 0 
L 0 0 
z
" style="fill: #ffffff"/>
  </g>
  <g id="axes_1">
   <g id="patch_2">
    <path d="M 44.66 390.04 
L 565.2 390.04 
L 565.2 10.8 
L 44.66 10.8 
z
" style="fill: #ffffff"/>
   </g>
   <g id="matplotlib.axis_1">
    <g id="xtick_1">
     <g id="line2d_1">
      <defs>
       <path id="mc66f92c82d" d="M 0 0 
L 0 3.5 
" style="stroke: #000000; stroke-width: 0.8"/>
      </defs>
      <g>
       <use xlink:href="#mc66f92c82d" x="68.320909" y="390.04" style="stroke: #000000; stroke-width: 0.8"/>
      </g>
     </g>
     <g id="text_1">
      <!-- 0 -->
      <g transform="translate(65.139659 404.638438) scale(0.1 -0.1)">
       <defs>
        <path id="DejaVuSans-30" d="M 2034 4250 
Q 1547 4250 1301 3770 
Q 1056 3291 1056 2328 
Q 1056 1369 1301 889 
Q 1547 409 2034 409 
Q 2525 409 2770 889 
Q 3016 1369 3016 2328 
Q 3016 3291 2770 3770 
Q 2525 4250 2034 4250 
z
M 2034 4750 
Q 2819 4750 3233 4129 
Q 3647 3509 3647 2328 
Q 3647 1150 3233 529 
Q 2819 -91 2034 -91 
Q 1250 -91 836 529 
Q 422 1150 422 2328 
Q 422 3509 836 4129 
Q 1250 4750 2034 4750 
z
" transform="scale(0.015625)"/>
       </defs>
       <use xlink:href="#DejaVuSans-30"/>
      </g>
     </g>
    </g>
    <g id="xtick_2">
     <g id="line2d_2">
      <g>
       <use xlink:href="#mc66f92c82d" x="162.964545" y="390.04" style="stroke: #000000; stroke-width: 0.8"/>
      </g>
     </g>
     <g id="text_2">
      <!-- 5 -->
      <g transform="translate(159.783295 404.638438) scale(0.1 -0.1)">
       <defs>
        <path id="DejaVuSans-35" d="M 691 4666 
L 3169 4666 
L 3169 4134 
L 1269 4134 
L 1269 2991 
Q 1406 3038 1543 3061 
Q 1681 3084 1819 3084 
Q 2600 3084 3056 2656 
Q 3513 2228 3513 1497 
Q 3513 744 3044 326 
Q 2575 -91 1722 -91 
Q 1428 -91 1123 -41 
Q 819 9 494 109 
L 494 744 
Q 775 591 1075 516 
Q 1375 441 1709 441 
Q 2250 441 2565 725 
Q 2881 1009 2881 1497 
Q 2881 1984 2565 2268 
Q 2250 2553 1709 2553 
Q 1456 2553 1204 2497 
Q 953 2441 691 2322 
L 691 4666 
z
" transform="scale(0.015625)"/>
       </defs>
       <use xlink:href="#DejaVuSans-35"/>
      </g>
     </g>
    </g>
    <g id="xtick_3">
     <g id="line2d_3">
      <g>
       <use xlink:href="#mc66f92c82d" x="257.608182" y="390.04" style="stroke: #000000; stroke-width: 0.8"/>
      </g>
     </g>
     <g id="text_3">
      <!-- 10 -->
      <g transform="translate(251.245682 404.638438) scale(0.1 -0.1)">
       <defs>
        <path id="DejaVuSans-31" d="M 794 531 
L 1825 531 
L 1825 4091 
L 703 3866 
L 703 4441 
L 1819 4666 
L 2450 4666 
L 2450 531 
L 3481 531 
L 3481 0 
L 794 0 
L 794 531 
z
" transform="scale(0.015625)"/>
       </defs>
       <use xlink:href="#DejaVuSans-31"/>
       <use xlink:href="#DejaVuSans-30" transform="translate(63.623047 0)"/>
      </g>
     </g>
    </g>
    <g id="xtick_4">
     <g id="line2d_4">
      <g>
       <use xlink:href="#mc66f92c82d" x="352.251818" y="390.04" style="stroke: #000000; stroke-width: 0.8"/>
      </g>
     </g>
     <g id="text_4">
      <!-- 15 -->
      <g transform="translate(345.889318 404.638438) scale(0.1 -0.1)">
       <use xlink:href="#DejaVuSans-31"/>
       <use xlink:href="#DejaVuSans-35" transform="translate(63.623047 0)"/>
      </g>
     </g>
    </g>
    <g id="xtick_5">
     <g id="line2d_5">
      <g>
       <use xlink:href="#mc66f92c82d" x="446.895455" y="390.04" style="stroke: #000000; stroke-width: 0.8"/>
      </g>
     </g>
     <g id="text_5">
      <!-- 20 -->
      <g transform="translate(440.532955 404.638438) scale(0.1 -0.1)">
       <defs>
        <path id="DejaVuSans-32" d="M 1228 531 
L 3431 531 
L 3431 0 
L 469 0 
L 469 531 
Q 828 903 1448 1529 
Q 2069 2156 2228 2338 
Q 2531 2678 2651 2914 
Q 2772 3150 2772 3378 
Q 2772 3750 2511 3984 
Q 2250 4219 1831 4219 
Q 1534 4219 1204 4116 
Q 875 4013 500 3803 
L 500 4441 
Q 881 4594 1212 4672 
Q 1544 4750 1819 4750 
Q 2544 4750 2975 4387 
Q 3406 4025 3406 3419 
Q 3406 3131 3298 2873 
Q 3191 2616 2906 2266 
Q 2828 2175 2409 1742 
Q 1991 1309 1228 531 
z
" transform="scale(0.015625)"/>
       </defs>
       <use xlink:href="#DejaVuSans-32"/>
       <use xlink:href="#DejaVuSans-30" transform="translate(63.623047 0)"/>
      </g>
     </g>
    </g>
    <g id="xtick_6">
     <g id="line2d_6">
      <g>
       <use xlink:href="#mc66f92c82d" x="541.539091" y="390.04" style="stroke: #000000; stroke-width: 0.8"/>
      </g>
     </g>
     <g id="text_6">
      <!-- 25 -->
      <g transform="translate(535.176591 404.638438) scale(0.1 -0.1)">
       <use xlink:href="#DejaVuSans-32"/>
       <use xlink:href="#DejaVuSans-35" transform="translate(63.623047 0)"/>
      </g>
     </g>
    </g>
    <g id="text_7">
     <!-- volume of base / ml -->
     <g transform="translate(255.3675 418.316562) scale(0.1 -0.1)">
      <defs>
       <path id="DejaVuSans-76" d="M 191 3500 
L 800 3500 
L 1894 563 
L 2988 3500 
L 3597 3500 
L 2284 0 
L 1503 0 
L 191 3500 
z
" transform="scale(0.015625)"/>
       <path id="DejaVuSans-6f" d="M 1959 3097 
Q 1497 3097 1228 2736 
Q 959 2375 959 1747 
Q 959 1119 1226 758 
Q 1494 397 1959 397 
Q 2419 397 2687 759 
Q 2956 1122 2956 1747 
Q 2956 2369 2687 2733 
Q 2419 3097 1959 3097 
z
M 1959 3584 
Q 2709 3584 3137 3096 
Q 3566 2609 3566 1747 
Q 3566 888 3137 398 
Q 2709 -91 1959 -91 
Q 1206 -91 779 398 
Q 353 888 353 1747 
Q 353 2609 779 3096 
Q 1206 3584 1959 3584 
z
" transform="scale(0.015625)"/>
       <path id="DejaVuSans-6c" d="M 603 4863 
L 1178 4863 
L 1178 0 
L 603 0 
L 603 4863 
z
" transform="scale(0.015625)"/>
       <path id="DejaVuSans-75" d="M 544 1381 
L 544 3500 
L 1119 3500 
L 1119 1403 
Q 1119 906 1312 657 
Q 1506 409 1894 409 
Q 2359 409 2629 706 
Q 2900 1003 2900 1516 
L 2900 3500 
L 3475 3500 
L 3475 0 
L 2900 0 
L 2900 538 
Q 2691 219 2414 64 
Q 2138 -91 1772 -91 
Q 1169 -91 856 284 
Q 544 659 544 1381 
z
M 1991 3584 
L 1991 3584 
z
" transform="scale(0.015625)"/>
       <path id="DejaVuSans-6d" d="M 3328 2828 
Q 3544 3216 3844 3400 
Q 4144 3584 4550 3584 
Q 5097 3584 5394 3201 
Q 5691 2819 5691 2113 
L 5691 0 
L 5113 0 
L 5113 2094 
Q 5113 2597 4934 2840 
Q 4756 3084 4391 3084 
Q 3944 3084 3684 2787 
Q 3425 2491 3425 1978 
L 3425 0 
L 2847 0 
L 2847 2094 
Q 2847 2600 2669 2842 
Q 2491 3084 2119 3084 
Q 1678 3084 1418 2786 
Q 1159 2488 1159 1978 
L 1159 0 
L 581 0 
L 581 3500 
L 1159 3500 
L 1159 2956 
Q 1356 3278 1631 3431 
Q 1906 3584 2284 3584 
Q 2666 3584 2933 3390 
Q 3200 3197 3328 2828 
z
" transform="scale(0.015625)"/>
       <path id="DejaVuSans-65" d="M 3597 1894 
L 3597 1613 
L 953 1613 
Q 991 1019 1311 708 
Q 1631 397 2203 397 
Q 2534 397 2845 478 
Q 3156 559 3463 722 
L 3463 178 
Q 3153 47 2828 -22 
Q 2503 -91 2169 -91 
Q 1331 -91 842 396 
Q 353 884 353 1716 
Q 353 2575 817 3079 
Q 1281 3584 2069 3584 
Q 2775 3584 3186 3129 
Q 3597 2675 3597 1894 
z
M 3022 2063 
Q 3016 2534 2758 2815 
Q 2500 3097 2075 3097 
Q 1594 3097 1305 2825 
Q 1016 2553 972 2059 
L 3022 2063 
z
" transform="scale(0.015625)"/>
       <path id="DejaVuSans-20" transform="scale(0.015625)"/>
       <path id="DejaVuSans-66" d="M 2375 4863 
L 2375 4384 
L 1825 4384 
Q 1516 4384 1395 4259 
Q 1275 4134 1275 3809 
L 1275 3500 
L 2222 3500 
L 2222 3053 
L 1275 3053 
L 1275 0 
L 697 0 
L 697 3053 
L 147 3053 
L 147 3500 
L 697 3500 
L 697 3744 
Q 697 4328 969 4595 
Q 1241 4863 1831 4863 
L 2375 4863 
z
" transform="scale(0.015625)"/>
       <path id="DejaVuSans-62" d="M 3116 1747 
Q 3116 2381 2855 2742 
Q 2594 3103 2138 3103 
Q 1681 3103 1420 2742 
Q 1159 2381 1159 1747 
Q 1159 1113 1420 752 
Q 1681 391 2138 391 
Q 2594 391 2855 752 
Q 3116 1113 3116 1747 
z
M 1159 2969 
Q 1341 3281 1617 3432 
Q 1894 3584 2278 3584 
Q 2916 3584 3314 3078 
Q 3713 2572 3713 1747 
Q 3713 922 3314 415 
Q 2916 -91 2278 -91 
Q 1894 -91 1617 61 
Q 1341 213 1159 525 
L 1159 0 
L 581 0 
L 581 4863 
L 1159 4863 
L 1159 2969 
z
" transform="scale(0.015625)"/>
       <path id="DejaVuSans-61" d="M 2194 1759 
Q 1497 1759 1228 1600 
Q 959 1441 959 1056 
Q 959 750 1161 570 
Q 1363 391 1709 391 
Q 2188 391 2477 730 
Q 2766 1069 2766 1631 
L 2766 1759 
L 2194 1759 
z
M 3341 1997 
L 3341 0 
L 2766 0 
L 2766 531 
Q 2569 213 2275 61 
Q 1981 -91 1556 -91 
Q 1019 -91 701 211 
Q 384 513 384 1019 
Q 384 1609 779 1909 
Q 1175 2209 1959 2209 
L 2766 2209 
L 2766 2266 
Q 2766 2663 2505 2880 
Q 2244 3097 1772 3097 
Q 1472 3097 1187 3025 
Q 903 2953 641 2809 
L 641 3341 
Q 956 3463 1253 3523 
Q 1550 3584 1831 3584 
Q 2591 3584 2966 3190 
Q 3341 2797 3341 1997 
z
" transform="scale(0.015625)"/>
       <path id="DejaVuSans-73" d="M 2834 3397 
L 2834 2853 
Q 2591 2978 2328 3040 
Q 2066 3103 1784 3103 
Q 1356 3103 1142 2972 
Q 928 2841 928 2578 
Q 928 2378 1081 2264 
Q 1234 2150 1697 2047 
L 1894 2003 
Q 2506 1872 2764 1633 
Q 3022 1394 3022 966 
Q 3022 478 2636 193 
Q 2250 -91 1575 -91 
Q 1294 -91 989 -36 
Q 684 19 347 128 
L 347 722 
Q 666 556 975 473 
Q 1284 391 1588 391 
Q 1994 391 2212 530 
Q 2431 669 2431 922 
Q 2431 1156 2273 1281 
Q 2116 1406 1581 1522 
L 1381 1569 
Q 847 1681 609 1914 
Q 372 2147 372 2553 
Q 372 3047 722 3315 
Q 1072 3584 1716 3584 
Q 2034 3584 2315 3537 
Q 2597 3491 2834 3397 
z
" transform="scale(0.015625)"/>
       <path id="DejaVuSans-2f" d="M 1625 4666 
L 2156 4666 
L 531 -594 
L 0 -594 
L 1625 4666 
z
" transform="scale(0.015625)"/>
      </defs>
      <use xlink:href="#DejaVuSans-76"/>
      <use xlink:href="#DejaVuSans-6f" transform="translate(59.179688 0)"/>
      <use xlink:href="#DejaVuSans-6c" transform="translate(120.361328 0)"/>
      <use xlink:href="#DejaVuSans-75" transform="translate(148.144531 0)"/>
      <use xlink:href="#DejaVuSans-6d" transform="translate(211.523438 0)"/>
      <use xlink:href="#DejaVuSans-65" transform="translate(308.935547 0)"/>
      <use xlink:href="#DejaVuSans-20" transform="translate(370.458984 0)"/>
      <use xlink:href="#DejaVuSans-6f" transform="translate(402.246094 0)"/>
      <use xlink:href="#DejaVuSans-66" transform="translate(463.427734 0)"/>
      <use xlink:href="#DejaVuSans-20" transform="translate(498.632812 0)"/>
      <use xlink:href="#DejaVuSans-62" transform="translate(530.419922 0)"/>
      <use xlink:href="#DejaVuSans-61" transform="translate(593.896484 0)"/>
      <use xlink:href="#DejaVuSans-73" transform="translate(655.175781 0)"/>
      <use xlink:href="#DejaVuSans-65" transform="translate(707.275391 0)"/>
      <use xlink:href="#DejaVuSans-20" transform="translate(768.798828 0)"/>
      <use xlink:href="#DejaVuSans-2f" transform="translate(800.585938 0)"/>
      <use xlink:href="#DejaVuSans-20" transform="translate(834.277344 0)"/>
      <use xlink:href="#DejaVuSans-6d" transform="translate(866.064453 0)"/>
      <use xlink:href="#DejaVuSans-6c" transform="translate(963.476562 0)"/>
     </g>
    </g>
   </g>
   <g id="matplotlib.axis_2">
    <g id="ytick_1">
     <g id="line2d_7">
      <defs>
       <path id="m13b20aa5ce" d="M 0 0 
L -3.5 0 
" style="stroke: #000000; stroke-width: 0.8"/>
      </defs>
      <g>
       <use xlink:href="#m13b20aa5ce" x="44.66" y="360.713141" style="stroke: #000000; stroke-width: 0.8"/>
      </g>
     </g>
     <g id="text_8">
      <!-- 2 -->
      <g transform="translate(31.2975 364.51236) scale(0.1 -0.1)">
       <use xlink:href="#DejaVuSans-32"/>
      </g>
     </g>
    </g>
    <g id="ytick_2">
     <g id="line2d_8">
      <g>
       <use xlink:href="#m13b20aa5ce" x="44.66" y="293.553823" style="stroke: #000000; stroke-width: 0.8"/>
      </g>
     </g>
     <g id="text_9">
      <!-- 4 -->
      <g transform="translate(31.2975 297.353042) scale(0.1 -0.1)">
       <defs>
        <path id="DejaVuSans-34" d="M 2419 4116 
L 825 1625 
L 2419 1625 
L 2419 4116 
z
M 2253 4666 
L 3047 4666 
L 3047 1625 
L 3713 1625 
L 3713 1100 
L 3047 1100 
L 3047 0 
L 2419 0 
L 2419 1100 
L 313 1100 
L 313 1709 
L 2253 4666 
z
" transform="scale(0.015625)"/>
       </defs>
       <use xlink:href="#DejaVuSans-34"/>
      </g>
     </g>
    </g>
    <g id="ytick_3">
     <g id="line2d_9">
      <g>
       <use xlink:href="#m13b20aa5ce" x="44.66" y="226.394505" style="stroke: #000000; stroke-width: 0.8"/>
      </g>
     </g>
     <g id="text_10">
      <!-- 6 -->
      <g transform="translate(31.2975 230.193724) scale(0.1 -0.1)">
       <defs>
        <path id="DejaVuSans-36" d="M 2113 2584 
Q 1688 2584 1439 2293 
Q 1191 2003 1191 1497 
Q 1191 994 1439 701 
Q 1688 409 2113 409 
Q 2538 409 2786 701 
Q 3034 994 3034 1497 
Q 3034 2003 2786 2293 
Q 2538 2584 2113 2584 
z
M 3366 4563 
L 3366 3988 
Q 3128 4100 2886 4159 
Q 2644 4219 2406 4219 
Q 1781 4219 1451 3797 
Q 1122 3375 1075 2522 
Q 1259 2794 1537 2939 
Q 1816 3084 2150 3084 
Q 2853 3084 3261 2657 
Q 3669 2231 3669 1497 
Q 3669 778 3244 343 
Q 2819 -91 2113 -91 
Q 1303 -91 875 529 
Q 447 1150 447 2328 
Q 447 3434 972 4092 
Q 1497 4750 2381 4750 
Q 2619 4750 2861 4703 
Q 3103 4656 3366 4563 
z
" transform="scale(0.015625)"/>
       </defs>
       <use xlink:href="#DejaVuSans-36"/>
      </g>
     </g>
    </g>
    <g id="ytick_4">
     <g id="line2d_10">
      <g>
       <use xlink:href="#m13b20aa5ce" x="44.66" y="159.235188" style="stroke: #000000; stroke-width: 0.8"/>
      </g>
     </g>
     <g id="text_11">
      <!-- 8 -->
      <g transform="translate(31.2975 163.034406) scale(0.1 -0.1)">
       <defs>
        <path id="DejaVuSans-38" d="M 2034 2216 
Q 1584 2216 1326 1975 
Q 1069 1734 1069 1313 
Q 1069 891 1326 650 
Q 1584 409 2034 409 
Q 2484 409 2743 651 
Q 3003 894 3003 1313 
Q 3003 1734 2745 1975 
Q 2488 2216 2034 2216 
z
M 1403 2484 
Q 997 2584 770 2862 
Q 544 3141 544 3541 
Q 544 4100 942 4425 
Q 1341 4750 2034 4750 
Q 2731 4750 3128 4425 
Q 3525 4100 3525 3541 
Q 3525 3141 3298 2862 
Q 3072 2584 2669 2484 
Q 3125 2378 3379 2068 
Q 3634 1759 3634 1313 
Q 3634 634 3220 271 
Q 2806 -91 2034 -91 
Q 1263 -91 848 271 
Q 434 634 434 1313 
Q 434 1759 690 2068 
Q 947 2378 1403 2484 
z
M 1172 3481 
Q 1172 3119 1398 2916 
Q 1625 2713 2034 2713 
Q 2441 2713 2670 2916 
Q 2900 3119 2900 3481 
Q 2900 3844 2670 4047 
Q 2441 4250 2034 4250 
Q 1625 4250 1398 4047 
Q 1172 3844 1172 3481 
z
" transform="scale(0.015625)"/>
       </defs>
       <use xlink:href="#DejaVuSans-38"/>
      </g>
     </g>
    </g>
    <g id="ytick_5">
     <g id="line2d_11">
      <g>
       <use xlink:href="#m13b20aa5ce" x="44.66" y="92.07587" style="stroke: #000000; stroke-width: 0.8"/>
      </g>
     </g>
     <g id="text_12">
      <!-- 10 -->
      <g transform="translate(24.935 95.875089) scale(0.1 -0.1)">
       <use xlink:href="#DejaVuSans-31"/>
       <use xlink:href="#DejaVuSans-30" transform="translate(63.623047 0)"/>
      </g>
     </g>
    </g>
    <g id="ytick_6">
     <g id="line2d_12">
      <g>
       <use xlink:href="#m13b20aa5ce" x="44.66" y="24.916552" style="stroke: #000000; stroke-width: 0.8"/>
      </g>
     </g>
     <g id="text_13">
      <!-- 12 -->
      <g transform="translate(24.935 28.715771) scale(0.1 -0.1)">
       <use xlink:href="#DejaVuSans-31"/>
       <use xlink:href="#DejaVuSans-32" transform="translate(63.623047 0)"/>
      </g>
     </g>
    </g>
    <g id="text_14">
     <!-- pH -->
     <g transform="translate(18.855313 207.354375) rotate(-90) scale(0.1 -0.1)">
      <defs>
       <path id="DejaVuSans-70" d="M 1159 525 
L 1159 -1331 
L 581 -1331 
L 581 3500 
L 1159 3500 
L 1159 2969 
Q 1341 3281 1617 3432 
Q 1894 3584 2278 3584 
Q 2916 3584 3314 3078 
Q 3713 2572 3713 1747 
Q 3713 922 3314 415 
Q 2916 -91 2278 -91 
Q 1894 -91 1617 61 
Q 1341 213 1159 525 
z
M 3116 1747 
Q 3116 2381 2855 2742 
Q 2594 3103 2138 3103 
Q 1681 3103 1420 2742 
Q 1159 2381 1159 1747 
Q 1159 1113 1420 752 
Q 1681 391 2138 391 
Q 2594 391 2855 752 
Q 3116 1113 3116 1747 
z
" transform="scale(0.015625)"/>
       <path id="DejaVuSans-48" d="M 628 4666 
L 1259 4666 
L 1259 2753 
L 3553 2753 
L 3553 4666 
L 4184 4666 
L 4184 0 
L 3553 0 
L 3553 2222 
L 1259 2222 
L 1259 0 
L 628 0 
L 628 4666 
z
" transform="scale(0.015625)"/>
      </defs>
      <use xlink:href="#DejaVuSans-70"/>
      <use xlink:href="#DejaVuSans-48" transform="translate(63.476562 0)"/>
     </g>
    </g>
   </g>
   <g id="line2d_13">
    <defs>
     <path id="m6be0d74156" d="M 0 3 
C 0.795609 3 1.55874 2.683901 2.12132 2.12132 
C 2.683901 1.55874 3 0.795609 3 0 
C 3 -0.795609 2.683901 -1.55874 2.12132 -2.12132 
C 1.55874 -2.683901 0.795609 -3 0 -3 
C -0.795609 -3 -1.55874 -2.683901 -2.12132 -2.12132 
C -2.683901 -1.55874 -3 -0.795609 -3 0 
C -3 0.795609 -2.683901 1.55874 -2.12132 2.12132 
C -1.55874 2.683901 -0.795609 3 0 3 
z
" style="stroke: #1f77b4"/>
    </defs>
    <g clip-path="url(#pa2ef734648)">
     <use xlink:href="#m6be0d74156" x="68.320909" y="372.801818" style="fill: #1f77b4; stroke: #1f77b4"/>
     <use xlink:href="#m6be0d74156" x="77.785273" y="372.466022" style="fill: #1f77b4; stroke: #1f77b4"/>
     <use xlink:href="#m6be0d74156" x="87.249636" y="371.794428" style="fill: #1f77b4; stroke: #1f77b4"/>
     <use xlink:href="#m6be0d74156" x="96.714" y="371.122835" style="fill: #1f77b4; stroke: #1f77b4"/>
     <use xlink:href="#m6be0d74156" x="106.178364" y="370.451242" style="fill: #1f77b4; stroke: #1f77b4"/>
     <use xlink:href="#m6be0d74156" x="115.642727" y="369.779649" style="fill: #1f77b4; stroke: #1f77b4"/>
     <use xlink:href="#m6be0d74156" x="125.107091" y="368.940157" style="fill: #1f77b4; stroke: #1f77b4"/>
     <use xlink:href="#m6be0d74156" x="134.571455" y="368.268564" style="fill: #1f77b4; stroke: #1f77b4"/>
     <use xlink:href="#m6be0d74156" x="144.035818" y="367.596971" style="fill: #1f77b4; stroke: #1f77b4"/>
     <use xlink:href="#m6be0d74156" x="153.500182" y="366.75748" style="fill: #1f77b4; stroke: #1f77b4"/>
     <use xlink:href="#m6be0d74156" x="162.964545" y="366.085886" style="fill: #1f77b4; stroke: #1f77b4"/>
     <use xlink:href="#m6be0d74156" x="172.902127" y="365.414293" style="fill: #1f77b4; stroke: #1f77b4"/>
     <use xlink:href="#m6be0d74156" x="181.893273" y="364.406903" style="fill: #1f77b4; stroke: #1f77b4"/>
     <use xlink:href="#m6be0d74156" x="191.357636" y="363.73531" style="fill: #1f77b4; stroke: #1f77b4"/>
     <use xlink:href="#m6be0d74156" x="200.822" y="362.727921" style="fill: #1f77b4; stroke: #1f77b4"/>
     <use xlink:href="#m6be0d74156" x="210.286364" y="361.888429" style="fill: #1f77b4; stroke: #1f77b4"/>
     <use xlink:href="#m6be0d74156" x="219.750727" y="361.048938" style="fill: #1f77b4; stroke: #1f77b4"/>
     <use xlink:href="#m6be0d74156" x="229.215091" y="360.041548" style="fill: #1f77b4; stroke: #1f77b4"/>
     <use xlink:href="#m6be0d74156" x="238.679455" y="359.034158" style="fill: #1f77b4; stroke: #1f77b4"/>
     <use xlink:href="#m6be0d74156" x="248.143818" y="358.026768" style="fill: #1f77b4; stroke: #1f77b4"/>
     <use xlink:href="#m6be0d74156" x="257.608182" y="357.019379" style="fill: #1f77b4; stroke: #1f77b4"/>
     <use xlink:href="#m6be0d74156" x="267.072545" y="355.676192" style="fill: #1f77b4; stroke: #1f77b4"/>
     <use xlink:href="#m6be0d74156" x="276.536909" y="354.333006" style="fill: #1f77b4; stroke: #1f77b4"/>
     <use xlink:href="#m6be0d74156" x="286.001273" y="352.989819" style="fill: #1f77b4; stroke: #1f77b4"/>
     <use xlink:href="#m6be0d74156" x="295.465636" y="351.646633" style="fill: #1f77b4; stroke: #1f77b4"/>
     <use xlink:href="#m6be0d74156" x="304.93" y="349.96765" style="fill: #1f77b4; stroke: #1f77b4"/>
     <use xlink:href="#m6be0d74156" x="314.394364" y="348.456565" style="fill: #1f77b4; stroke: #1f77b4"/>
     <use xlink:href="#m6be0d74156" x="323.858727" y="346.609684" style="fill: #1f77b4; stroke: #1f77b4"/>
     <use xlink:href="#m6be0d74156" x="333.323091" y="344.594905" style="fill: #1f77b4; stroke: #1f77b4"/>
     <use xlink:href="#m6be0d74156" x="342.787455" y="342.244329" style="fill: #1f77b4; stroke: #1f77b4"/>
     <use xlink:href="#m6be0d74156" x="352.251818" y="339.557956" style="fill: #1f77b4; stroke: #1f77b4"/>
     <use xlink:href="#m6be0d74156" x="361.716182" y="336.535787" style="fill: #1f77b4; stroke: #1f77b4"/>
     <use xlink:href="#m6be0d74156" x="371.180545" y="332.170431" style="fill: #1f77b4; stroke: #1f77b4"/>
     <use xlink:href="#m6be0d74156" x="374.966291" y="330.491448" style="fill: #1f77b4; stroke: #1f77b4"/>
     <use xlink:href="#m6be0d74156" x="377.8056" y="328.812465" style="fill: #1f77b4; stroke: #1f77b4"/>
     <use xlink:href="#m6be0d74156" x="381.591345" y="325.454499" style="fill: #1f77b4; stroke: #1f77b4"/>
     <use xlink:href="#m6be0d74156" x="386.323527" y="322.43233" style="fill: #1f77b4; stroke: #1f77b4"/>
     <use xlink:href="#m6be0d74156" x="390.109273" y="318.402771" style="fill: #1f77b4; stroke: #1f77b4"/>
     <use xlink:href="#m6be0d74156" x="394.841455" y="311.351042" style="fill: #1f77b4; stroke: #1f77b4"/>
     <use xlink:href="#m6be0d74156" x="399.592565" y="291.203247" style="fill: #1f77b4; stroke: #1f77b4"/>
     <use xlink:href="#m6be0d74156" x="401.466509" y="259.974164" style="fill: #1f77b4; stroke: #1f77b4"/>
     <use xlink:href="#m6be0d74156" x="403.359382" y="157.892001" style="fill: #1f77b4; stroke: #1f77b4"/>
     <use xlink:href="#m6be0d74156" x="405.252255" y="89.389497" style="fill: #1f77b4; stroke: #1f77b4"/>
     <use xlink:href="#m6be0d74156" x="407.145127" y="80.490888" style="fill: #1f77b4; stroke: #1f77b4"/>
     <use xlink:href="#m6be0d74156" x="409.038" y="73.774956" style="fill: #1f77b4; stroke: #1f77b4"/>
     <use xlink:href="#m6be0d74156" x="413.770182" y="65.547939" style="fill: #1f77b4; stroke: #1f77b4"/>
     <use xlink:href="#m6be0d74156" x="416.136273" y="63.197363" style="fill: #1f77b4; stroke: #1f77b4"/>
     <use xlink:href="#m6be0d74156" x="420.395236" y="60.846787" style="fill: #1f77b4; stroke: #1f77b4"/>
     <use xlink:href="#m6be0d74156" x="424.180982" y="57.488821" style="fill: #1f77b4; stroke: #1f77b4"/>
     <use xlink:href="#m6be0d74156" x="427.966727" y="55.809838" style="fill: #1f77b4; stroke: #1f77b4"/>
     <use xlink:href="#m6be0d74156" x="437.809665" y="51.444483" style="fill: #1f77b4; stroke: #1f77b4"/>
     <use xlink:href="#m6be0d74156" x="446.895455" y="48.422313" style="fill: #1f77b4; stroke: #1f77b4"/>
     <use xlink:href="#m6be0d74156" x="456.359818" y="46.407534" style="fill: #1f77b4; stroke: #1f77b4"/>
     <use xlink:href="#m6be0d74156" x="465.824182" y="44.392754" style="fill: #1f77b4; stroke: #1f77b4"/>
     <use xlink:href="#m6be0d74156" x="476.234982" y="43.049568" style="fill: #1f77b4; stroke: #1f77b4"/>
     <use xlink:href="#m6be0d74156" x="484.752909" y="42.545873" style="fill: #1f77b4; stroke: #1f77b4"/>
     <use xlink:href="#m6be0d74156" x="494.217273" y="42.042178" style="fill: #1f77b4; stroke: #1f77b4"/>
     <use xlink:href="#m6be0d74156" x="503.681636" y="41.706382" style="fill: #1f77b4; stroke: #1f77b4"/>
     <use xlink:href="#m6be0d74156" x="511.253127" y="40.698992" style="fill: #1f77b4; stroke: #1f77b4"/>
     <use xlink:href="#m6be0d74156" x="522.610364" y="39.691602" style="fill: #1f77b4; stroke: #1f77b4"/>
     <use xlink:href="#m6be0d74156" x="532.074727" y="38.684212" style="fill: #1f77b4; stroke: #1f77b4"/>
     <use xlink:href="#m6be0d74156" x="541.539091" y="38.012619" style="fill: #1f77b4; stroke: #1f77b4"/>
    </g>
   </g>
   <g id="line2d_14">
    <path d="M 68.320909 369.340715 
L 108.584718 367.160081 
L 143.637917 365.046243 
L 174.427889 362.974925 
L 201.902017 360.907305 
L 226.060303 358.867993 
L 246.902745 356.89362 
L 265.376729 354.928942 
L 281.955944 352.94437 
L 296.1667 351.028578 
L 308.956381 349.085902 
L 320.324986 347.135123 
L 330.272515 345.20487 
L 338.798969 343.336532 
L 346.378039 341.462707 
L 353.009725 339.612137 
L 359.16772 337.66671 
L 364.37833 335.800581 
L 369.115249 333.877762 
L 373.378476 331.908495 
L 377.168011 329.910498 
L 380.483854 327.912099 
L 383.326005 325.955968 
L 386.168156 323.702598 
L 388.536616 321.521552 
L 390.431383 319.510695 
L 392.326151 317.181937 
L 393.747226 315.156742 
L 395.168302 312.807572 
L 396.589378 310.009961 
L 398.010453 306.55024 
L 398.957837 303.686343 
L 399.905221 300.122606 
L 400.852604 295.401095 
L 401.326296 292.309459 
L 401.799988 288.383001 
L 402.27368 282.996195 
L 402.747372 274.366522 
L 403.221064 250.395726 
L 403.694756 118.393631 
L 404.168448 106.155973 
L 404.642139 99.59928 
L 405.115831 95.09409 
L 406.063215 88.880937 
L 407.010599 84.54103 
L 407.957983 81.203381 
L 408.905366 78.491275 
L 410.326442 75.187228 
L 411.747518 72.498395 
L 413.168593 70.231703 
L 415.063361 67.674692 
L 416.958128 65.50332 
L 419.326587 63.181429 
L 421.695047 61.182958 
L 424.537198 59.102806 
L 427.379349 57.287056 
L 430.695192 55.4249 
L 434.484727 53.55813 
L 438.747954 51.71548 
L 443.484873 49.915693 
L 448.695484 48.170257 
L 454.853478 46.353947 
L 461.485164 44.631177 
L 469.064234 42.893598 
L 477.590688 41.169898 
L 487.064525 39.479682 
L 497.959439 37.765521 
L 510.275427 36.059589 
L 524.012492 34.38418 
L 539.644323 32.706213 
L 541.539091 32.51677 
L 541.539091 32.51677 
" clip-path="url(#pa2ef734648)" style="fill: none; stroke: #ff7f0e; stroke-width: 1.5; stroke-linecap: square"/>
   </g>
   <g id="line2d_15">
    <path d="M 68.320909 372.446668 
L 107.163643 370.166029 
L 140.795766 367.975044 
L 170.638354 365.811362 
L 196.691407 363.70283 
L 219.428617 361.645572 
L 239.323675 359.630835 
L 256.850275 357.641843 
L 272.482107 355.649713 
L 286.219171 353.680069 
L 298.53516 351.689131 
L 308.956381 349.790221 
L 318.430218 347.844082 
L 326.956672 345.861421 
L 334.06205 343.993234 
L 340.693736 342.020373 
L 346.378039 340.101852 
L 351.58865 338.103352 
L 355.851876 336.24729 
L 359.641411 334.381706 
L 362.957255 332.535392 
L 366.273098 330.429709 
L 369.115249 328.353985 
L 371.483708 326.371846 
L 373.852168 324.084063 
L 375.746935 321.959875 
L 377.641703 319.478562 
L 379.062778 317.298648 
L 380.483854 314.739202 
L 381.904929 311.63853 
L 382.852313 309.135299 
L 383.799697 306.115143 
L 384.747081 302.306395 
L 385.694464 297.143887 
L 386.168156 293.665515 
L 386.641848 289.091589 
L 387.11554 282.395259 
L 387.589232 269.658996 
L 388.062924 129.54488 
L 388.536616 107.4997 
L 389.010308 99.098391 
L 389.483999 93.804254 
L 390.431383 86.873917 
L 391.378767 82.199644 
L 392.326151 78.668877 
L 393.273534 75.831282 
L 394.69461 72.404649 
L 396.115686 69.636024 
L 397.536761 67.313562 
L 399.431529 64.704313 
L 401.326296 62.496231 
L 403.694756 60.141817 
L 406.063215 58.120274 
L 408.905366 56.02042 
L 411.747518 54.190744 
L 415.063361 52.317223 
L 418.852896 50.441832 
L 423.116122 48.593252 
L 427.853041 46.790048 
L 433.063652 45.043485 
L 439.221646 43.228268 
L 445.853332 41.508683 
L 453.432402 39.776471 
L 461.958856 38.060309 
L 471.432694 36.37972 
L 482.327607 34.677712 
L 494.643595 32.986421 
L 508.38066 31.328052 
L 524.012492 29.670001 
L 541.539091 28.038182 
L 541.539091 28.038182 
" clip-path="url(#pa2ef734648)" style="fill: none; stroke: #2ca02c; stroke-width: 1.5; stroke-linecap: square"/>
   </g>
   <g id="patch_3">
    <path d="M 44.66 390.04 
L 44.66 10.8 
" style="fill: none; stroke: #000000; stroke-width: 0.8; stroke-linejoin: miter; stroke-linecap: square"/>
   </g>
   <g id="patch_4">
    <path d="M 565.2 390.04 
L 565.2 10.8 
" style="fill: none; stroke: #000000; stroke-width: 0.8; stroke-linejoin: miter; stroke-linecap: square"/>
   </g>
   <g id="patch_5">
    <path d="M 44.66 390.04 
L 565.2 390.04 
" style="fill: none; stroke: #000000; stroke-width: 0.8; stroke-linejoin: miter; stroke-linecap: square"/>
   </g>
   <g id="patch_6">
    <path d="M 44.66 10.8 
L 565.2 10.8 
" style="fill: none; stroke: #000000; stroke-width: 0.8; stroke-linejoin: miter; stroke-linecap: square"/>
   </g>
   <g id="legend_1">
    <g id="patch_7">
     <path d="M 51.66 62.834375 
L 120.76 62.834375 
Q 122.76 62.834375 122.76 60.834375 
L 122.76 17.8 
Q 122.76 15.8 120.76 15.8 
L 51.66 15.8 
Q 49.66 15.8 49.66 17.8 
L 49.66 60.834375 
Q 49.66 62.834375 51.66 62.834375 
z
" style="fill: #ffffff; opacity: 0.8; stroke: #cccccc; stroke-linejoin: miter"/>
    </g>
    <g id="line2d_16">
     <g>
      <use xlink:href="#m6be0d74156" x="63.66" y="23.898438" style="fill: #1f77b4; stroke: #1f77b4"/>
     </g>
    </g>
    <g id="text_15">
     <!-- data -->
     <g transform="translate(81.66 27.398438) scale(0.1 -0.1)">
      <defs>
       <path id="DejaVuSans-64" d="M 2906 2969 
L 2906 4863 
L 3481 4863 
L 3481 0 
L 2906 0 
L 2906 525 
Q 2725 213 2448 61 
Q 2172 -91 1784 -91 
Q 1150 -91 751 415 
Q 353 922 353 1747 
Q 353 2572 751 3078 
Q 1150 3584 1784 3584 
Q 2172 3584 2448 3432 
Q 2725 3281 2906 2969 
z
M 947 1747 
Q 947 1113 1208 752 
Q 1469 391 1925 391 
Q 2381 391 2643 752 
Q 2906 1113 2906 1747 
Q 2906 2381 2643 2742 
Q 2381 3103 1925 3103 
Q 1469 3103 1208 2742 
Q 947 2381 947 1747 
z
" transform="scale(0.015625)"/>
       <path id="DejaVuSans-74" d="M 1172 4494 
L 1172 3500 
L 2356 3500 
L 2356 3053 
L 1172 3053 
L 1172 1153 
Q 1172 725 1289 603 
Q 1406 481 1766 481 
L 2356 481 
L 2356 0 
L 1766 0 
Q 1100 0 847 248 
Q 594 497 594 1153 
L 594 3053 
L 172 3053 
L 172 3500 
L 594 3500 
L 594 4494 
L 1172 4494 
z
" transform="scale(0.015625)"/>
      </defs>
      <use xlink:href="#DejaVuSans-64"/>
      <use xlink:href="#DejaVuSans-61" transform="translate(63.476562 0)"/>
      <use xlink:href="#DejaVuSans-74" transform="translate(124.755859 0)"/>
      <use xlink:href="#DejaVuSans-61" transform="translate(163.964844 0)"/>
     </g>
    </g>
    <g id="line2d_17">
     <path d="M 53.66 38.576563 
L 63.66 38.576563 
L 73.66 38.576563 
" style="fill: none; stroke: #ff7f0e; stroke-width: 1.5; stroke-linecap: square"/>
    </g>
    <g id="text_16">
     <!-- pH fit -->
     <g transform="translate(81.66 42.076563) scale(0.1 -0.1)">
      <defs>
       <path id="DejaVuSans-69" d="M 603 3500 
L 1178 3500 
L 1178 0 
L 603 0 
L 603 3500 
z
M 603 4863 
L 1178 4863 
L 1178 4134 
L 603 4134 
L 603 4863 
z
" transform="scale(0.015625)"/>
      </defs>
      <use xlink:href="#DejaVuSans-70"/>
      <use xlink:href="#DejaVuSans-48" transform="translate(63.476562 0)"/>
      <use xlink:href="#DejaVuSans-20" transform="translate(138.671875 0)"/>
      <use xlink:href="#DejaVuSans-66" transform="translate(170.458984 0)"/>
      <use xlink:href="#DejaVuSans-69" transform="translate(205.664062 0)"/>
      <use xlink:href="#DejaVuSans-74" transform="translate(233.447266 0)"/>
     </g>
    </g>
    <g id="line2d_18">
     <path d="M 53.66 53.254687 
L 63.66 53.254687 
L 73.66 53.254687 
" style="fill: none; stroke: #2ca02c; stroke-width: 1.5; stroke-linecap: square"/>
    </g>
    <g id="text_17">
     <!-- [H+] fit -->
     <g transform="translate(81.66 56.754687) scale(0.1 -0.1)">
      <defs>
       <path id="DejaVuSans-5b" d="M 550 4863 
L 1875 4863 
L 1875 4416 
L 1125 4416 
L 1125 -397 
L 1875 -397 
L 1875 -844 
L 550 -844 
L 550 4863 
z
" transform="scale(0.015625)"/>
       <path id="DejaVuSans-2b" d="M 2944 4013 
L 2944 2272 
L 4684 2272 
L 4684 1741 
L 2944 1741 
L 2944 0 
L 2419 0 
L 2419 1741 
L 678 1741 
L 678 2272 
L 2419 2272 
L 2419 4013 
L 2944 4013 
z
" transform="scale(0.015625)"/>
       <path id="DejaVuSans-5d" d="M 1947 4863 
L 1947 -844 
L 622 -844 
L 622 -397 
L 1369 -397 
L 1369 4416 
L 622 4416 
L 622 4863 
L 1947 4863 
z
" transform="scale(0.015625)"/>
      </defs>
      <use xlink:href="#DejaVuSans-5b"/>
      <use xlink:href="#DejaVuSans-48" transform="translate(39.013672 0)"/>
      <use xlink:href="#DejaVuSans-2b" transform="translate(114.208984 0)"/>
      <use xlink:href="#DejaVuSans-5d" transform="translate(197.998047 0)"/>
      <use xlink:href="#DejaVuSans-20" transform="translate(237.011719 0)"/>
      <use xlink:href="#DejaVuSans-66" transform="translate(268.798828 0)"/>
      <use xlink:href="#DejaVuSans-69" transform="translate(304.003906 0)"/>
      <use xlink:href="#DejaVuSans-74" transform="translate(331.787109 0)"/>
     </g>
    </g>
   </g>
  </g>
 </g>
 <defs>
  <clipPath id="pa2ef734648">
   <rect x="44.66" y="10.8" width="520.54" height="379.24"/>
  </clipPath>
 </defs>
</svg>
