<?xml version="1.0" encoding="utf-8" standalone="no"?>
<!DOCTYPE svg PUBLIC "-//W3C//DTD SVG 1.1//EN"
  "http://www.w3.org/Graphics/SVG/1.1/DTD/svg11.dtd">
<svg xmlns:xlink="http://www.w3.org/1999/xlink" width="216pt" height="216pt" viewBox="0 0 216 216" xmlns="http://www.w3.org/2000/svg" version="1.1">
 <metadata>
  <rdf:RDF xmlns:dc="http://purl.org/dc/elements/1.1/" xmlns:cc="http://creativecommons.org/ns#" xmlns:rdf="http://www.w3.org/1999/02/22-rdf-syntax-ns#">
   <cc:Work>
    <dc:type rdf:resource="http://purl.org/dc/dcmitype/StillImage"/>
    <dc:date>2024-07-14T23:03:55.256259</dc:date>
    <dc:format>image/svg+xml</dc:format>
    <dc:creator>
     <cc:Agent>
      <dc:title>Matplotlib v3.7.2, https://matplotlib.org/</dc:title>
     </cc:Agent>
    </dc:creator>
   </cc:Work>
  </rdf:RDF>
 </metadata>
 <defs>
  <style type="text/css">*{stroke-linejoin: round; stroke-linecap: butt}</style>
 </defs>
 <g id="figure_1">
  <g id="patch_1">
   <path d="M 0 216 
L 216 216 
L 216 0 
L 0 0 
z
" style="fill: #ffffff"/>
  </g>
  <g id="axes_1">
   <g id="patch_2">
    <path d="M 10.8 205.2 
L 205.2 205.2 
L 205.2 10.8 
L 10.8 10.8 
z
" style="fill: #ffffff"/>
   </g>
   <g id="PathCollection_1">
    <defs>
     <path id="m8c37ef2db4" d="M 0 3 
C 0.795609 3 1.55874 2.683901 2.12132 2.12132 
C 2.683901 1.55874 3 0.795609 3 0 
C 3 -0.795609 2.683901 -1.55874 2.12132 -2.12132 
C 1.55874 -2.683901 0.795609 -3 0 -3 
C -0.795609 -3 -1.55874 -2.683901 -2.12132 -2.12132 
C -2.683901 -1.55874 -3 -0.795609 -3 0 
C -3 0.795609 -2.683901 1.55874 -2.12132 2.12132 
C -1.55874 2.683901 -0.795609 3 0 3 
z
" style="stroke: #ff0000"/>
    </defs>
    <g clip-path="url(#p09abac16c6)">
     <use xlink:href="#m8c37ef2db4" x="54.069411" y="72.499419" style="fill: #ff0000; stroke: #ff0000"/>
     <use xlink:href="#m8c37ef2db4" x="87.685059" y="44.403273" style="fill: #ff0000; stroke: #ff0000"/>
     <use xlink:href="#m8c37ef2db4" x="143.712572" y="124.729118" style="fill: #ff0000; stroke: #ff0000"/>
     <use xlink:href="#m8c37ef2db4" x="115.49331" y="45.836444" style="fill: #ff0000; stroke: #ff0000"/>
     <use xlink:href="#m8c37ef2db4" x="116.113662" y="153.079717" style="fill: #ff0000; stroke: #ff0000"/>
     <use xlink:href="#m8c37ef2db4" x="119.834818" y="115.531242" style="fill: #ff0000; stroke: #ff0000"/>
     <use xlink:href="#m8c37ef2db4" x="120.052148" y="89.146278" style="fill: #ff0000; stroke: #ff0000"/>
     <use xlink:href="#m8c37ef2db4" x="143.119316" y="45.146517" style="fill: #ff0000; stroke: #ff0000"/>
     <use xlink:href="#m8c37ef2db4" x="247.221808" y="243.350275" style="fill: #ff0000; stroke: #ff0000"/>
     <use xlink:href="#m8c37ef2db4" x="63.562189" y="70.467401" style="fill: #ff0000; stroke: #ff0000"/>
    </g>
   </g>
   <g id="PathCollection_2">
    <defs>
     <path id="m3ec79e5192" d="M 0 3 
C 0.795609 3 1.55874 2.683901 2.12132 2.12132 
C 2.683901 1.55874 3 0.795609 3 0 
C 3 -0.795609 2.683901 -1.55874 2.12132 -2.12132 
C 1.55874 -2.683901 0.795609 -3 0 -3 
C -0.795609 -3 -1.55874 -2.683901 -2.12132 -2.12132 
C -2.683901 -1.55874 -3 -0.795609 -3 0 
C -3 0.795609 -2.683901 1.55874 -2.12132 2.12132 
C -1.55874 2.683901 -0.795609 3 0 3 
z
" style="stroke: #0000ff"/>
    </defs>
    <g clip-path="url(#p09abac16c6)">
     <use xlink:href="#m3ec79e5192" x="161.674089" y="129.808848" style="fill: #0000ff; stroke: #0000ff"/>
     <use xlink:href="#m3ec79e5192" x="67.435249" y="33.17818" style="fill: #0000ff; stroke: #0000ff"/>
     <use xlink:href="#m3ec79e5192" x="40.326682" y="190.558971" style="fill: #0000ff; stroke: #0000ff"/>
     <use xlink:href="#m3ec79e5192" x="134.31228" y="104.726699" style="fill: #0000ff; stroke: #0000ff"/>
     <use xlink:href="#m3ec79e5192" x="66.840703" y="103.663001" style="fill: #0000ff; stroke: #0000ff"/>
     <use xlink:href="#m3ec79e5192" x="134.720214" y="90.530886" style="fill: #0000ff; stroke: #0000ff"/>
     <use xlink:href="#m3ec79e5192" x="169.737506" y="32.097951" style="fill: #0000ff; stroke: #0000ff"/>
     <use xlink:href="#m3ec79e5192" x="6.597472" y="98.53407" style="fill: #0000ff; stroke: #0000ff"/>
     <use xlink:href="#m3ec79e5192" x="90.543904" y="118.224833" style="fill: #0000ff; stroke: #0000ff"/>
     <use xlink:href="#m3ec79e5192" x="99.571744" y="75.340043" style="fill: #0000ff; stroke: #0000ff"/>
    </g>
   </g>
   <g id="PathCollection_3">
    <defs>
     <path id="m837f97d59a" d="M 0 3 
C 0.795609 3 1.55874 2.683901 2.12132 2.12132 
C 2.683901 1.55874 3 0.795609 3 0 
C 3 -0.795609 2.683901 -1.55874 2.12132 -2.12132 
C 1.55874 -2.683901 0.795609 -3 0 -3 
C -0.795609 -3 -1.55874 -2.683901 -2.12132 -2.12132 
C -2.683901 -1.55874 -3 -0.795609 -3 0 
C -3 0.795609 -2.683901 1.55874 -2.12132 2.12132 
C -1.55874 2.683901 -0.795609 3 0 3 
z
" style="stroke: #008000"/>
    </defs>
    <g clip-path="url(#p09abac16c6)">
     <use xlink:href="#m837f97d59a" x="108" y="108" style="fill: #008000; stroke: #008000"/>
    </g>
   </g>
   <g id="patch_3">
    <path d="M 108 132.3 
C 114.444435 132.3 120.625791 129.739599 125.182695 125.182695 
C 129.739599 120.625791 132.3 114.444435 132.3 108 
C 132.3 101.555565 129.739599 95.374209 125.182695 90.817305 
C 120.625791 86.260401 114.444435 83.7 108 83.7 
C 101.555565 83.7 95.374209 86.260401 90.817305 90.817305 
C 86.260401 95.374209 83.7 101.555565 83.7 108 
C 83.7 114.444435 86.260401 120.625791 90.817305 125.182695 
C 95.374209 129.739599 101.555565 132.3 108 132.3 
L 108 132.3 
z
" clip-path="url(#p09abac16c6)" style="fill: none; stroke: #000000; stroke-linejoin: miter"/>
   </g>
   <g id="patch_4">
    <path d="M 108 156.6 
C 120.888871 156.6 133.251582 151.479197 142.36539 142.36539 
C 151.479197 133.251582 156.6 120.888871 156.6 108 
C 156.6 95.111129 151.479197 82.748418 142.36539 73.63461 
C 133.251582 64.520803 120.888871 59.4 108 59.4 
C 95.111129 59.4 82.748418 64.520803 73.63461 73.63461 
C 64.520803 82.748418 59.4 95.111129 59.4 108 
C 59.4 120.888871 64.520803 133.251582 73.63461 142.36539 
C 82.748418 151.479197 95.111129 156.6 108 156.6 
L 108 156.6 
z
" clip-path="url(#p09abac16c6)" style="fill: none; stroke-dasharray: 3.7,1.6; stroke-dashoffset: 0; stroke: #000000; stroke-linejoin: miter"/>
   </g>
   <g id="matplotlib.axis_1"/>
   <g id="matplotlib.axis_2"/>
   <g id="patch_5">
    <path d="M 10.8 205.2 
L 10.8 10.8 
" style="fill: none; stroke: #000000; stroke-width: 0.8; stroke-linejoin: miter; stroke-linecap: square"/>
   </g>
   <g id="patch_6">
    <path d="M 205.2 205.2 
L 205.2 10.8 
" style="fill: none; stroke: #000000; stroke-width: 0.8; stroke-linejoin: miter; stroke-linecap: square"/>
   </g>
   <g id="patch_7">
    <path d="M 10.8 205.2 
L 205.2 205.2 
" style="fill: none; stroke: #000000; stroke-width: 0.8; stroke-linejoin: miter; stroke-linecap: square"/>
   </g>
   <g id="patch_8">
    <path d="M 10.8 10.8 
L 205.2 10.8 
" style="fill: none; stroke: #000000; stroke-width: 0.8; stroke-linejoin: miter; stroke-linecap: square"/>
   </g>
  </g>
 </g>
 <defs>
  <clipPath id="p09abac16c6">
   <rect x="10.8" y="10.8" width="194.4" height="194.4"/>
  </clipPath>
 </defs>
</svg>
