<?xml version="1.0" encoding="utf-8" standalone="no"?>
<!DOCTYPE svg PUBLIC "-//W3C//DTD SVG 1.1//EN"
  "http://www.w3.org/Graphics/SVG/1.1/DTD/svg11.dtd">
<svg xmlns:xlink="http://www.w3.org/1999/xlink" width="576pt" height="432pt" viewBox="0 0 576 432" xmlns="http://www.w3.org/2000/svg" version="1.1">
 <metadata>
  <rdf:RDF xmlns:dc="http://purl.org/dc/elements/1.1/" xmlns:cc="http://creativecommons.org/ns#" xmlns:rdf="http://www.w3.org/1999/02/22-rdf-syntax-ns#">
   <cc:Work>
    <dc:type rdf:resource="http://purl.org/dc/dcmitype/StillImage"/>
    <dc:date>2024-04-14T18:57:30.062123</dc:date>
    <dc:format>image/svg+xml</dc:format>
    <dc:creator>
     <cc:Agent>
      <dc:title>Matplotlib v3.7.2, https://matplotlib.org/</dc:title>
     </cc:Agent>
    </dc:creator>
   </cc:Work>
  </rdf:RDF>
 </metadata>
 <defs>
  <style type="text/css">*{stroke-linejoin: round; stroke-linecap: butt}</style>
 </defs>
 <g id="figure_1">
  <g id="patch_1">
   <path d="M 0 432 
L 576 432 
L 576 0 
L 0 0 
z
" style="fill: #ffffff"/>
  </g>
  <g id="axes_1">
   <g id="patch_2">
    <path d="M 72 384.48 
L 518.4 384.48 
L 518.4 51.84 
L 72 51.84 
z
" style="fill: #ffffff"/>
   </g>
   <g id="matplotlib.axis_1">
    <g id="xtick_1">
     <g id="line2d_1">
      <defs>
       <path id="mb9d1eb7dfa" d="M 0 0 
L 0 3.5 
" style="stroke: #000000; stroke-width: 0.8"/>
      </defs>
      <g>
       <use xlink:href="#mb9d1eb7dfa" x="92.290909" y="384.48" style="stroke: #000000; stroke-width: 0.8"/>
      </g>
     </g>
     <g id="text_1">
      <!-- 0 -->
      <g transform="translate(89.109659 399.078438) scale(0.1 -0.1)">
       <defs>
        <path id="DejaVuSans-30" d="M 2034 4250 
Q 1547 4250 1301 3770 
Q 1056 3291 1056 2328 
Q 1056 1369 1301 889 
Q 1547 409 2034 409 
Q 2525 409 2770 889 
Q 3016 1369 3016 2328 
Q 3016 3291 2770 3770 
Q 2525 4250 2034 4250 
z
M 2034 4750 
Q 2819 4750 3233 4129 
Q 3647 3509 3647 2328 
Q 3647 1150 3233 529 
Q 2819 -91 2034 -91 
Q 1250 -91 836 529 
Q 422 1150 422 2328 
Q 422 3509 836 4129 
Q 1250 4750 2034 4750 
z
" transform="scale(0.015625)"/>
       </defs>
       <use xlink:href="#DejaVuSans-30"/>
      </g>
     </g>
    </g>
    <g id="xtick_2">
     <g id="line2d_2">
      <g>
       <use xlink:href="#mb9d1eb7dfa" x="173.454545" y="384.48" style="stroke: #000000; stroke-width: 0.8"/>
      </g>
     </g>
     <g id="text_2">
      <!-- 10 -->
      <g transform="translate(167.092045 399.078438) scale(0.1 -0.1)">
       <defs>
        <path id="DejaVuSans-31" d="M 794 531 
L 1825 531 
L 1825 4091 
L 703 3866 
L 703 4441 
L 1819 4666 
L 2450 4666 
L 2450 531 
L 3481 531 
L 3481 0 
L 794 0 
L 794 531 
z
" transform="scale(0.015625)"/>
       </defs>
       <use xlink:href="#DejaVuSans-31"/>
       <use xlink:href="#DejaVuSans-30" x="63.623047"/>
      </g>
     </g>
    </g>
    <g id="xtick_3">
     <g id="line2d_3">
      <g>
       <use xlink:href="#mb9d1eb7dfa" x="254.618182" y="384.48" style="stroke: #000000; stroke-width: 0.8"/>
      </g>
     </g>
     <g id="text_3">
      <!-- 20 -->
      <g transform="translate(248.255682 399.078438) scale(0.1 -0.1)">
       <defs>
        <path id="DejaVuSans-32" d="M 1228 531 
L 3431 531 
L 3431 0 
L 469 0 
L 469 531 
Q 828 903 1448 1529 
Q 2069 2156 2228 2338 
Q 2531 2678 2651 2914 
Q 2772 3150 2772 3378 
Q 2772 3750 2511 3984 
Q 2250 4219 1831 4219 
Q 1534 4219 1204 4116 
Q 875 4013 500 3803 
L 500 4441 
Q 881 4594 1212 4672 
Q 1544 4750 1819 4750 
Q 2544 4750 2975 4387 
Q 3406 4025 3406 3419 
Q 3406 3131 3298 2873 
Q 3191 2616 2906 2266 
Q 2828 2175 2409 1742 
Q 1991 1309 1228 531 
z
" transform="scale(0.015625)"/>
       </defs>
       <use xlink:href="#DejaVuSans-32"/>
       <use xlink:href="#DejaVuSans-30" x="63.623047"/>
      </g>
     </g>
    </g>
    <g id="xtick_4">
     <g id="line2d_4">
      <g>
       <use xlink:href="#mb9d1eb7dfa" x="335.781818" y="384.48" style="stroke: #000000; stroke-width: 0.8"/>
      </g>
     </g>
     <g id="text_4">
      <!-- 30 -->
      <g transform="translate(329.419318 399.078438) scale(0.1 -0.1)">
       <defs>
        <path id="DejaVuSans-33" d="M 2597 2516 
Q 3050 2419 3304 2112 
Q 3559 1806 3559 1356 
Q 3559 666 3084 287 
Q 2609 -91 1734 -91 
Q 1441 -91 1130 -33 
Q 819 25 488 141 
L 488 750 
Q 750 597 1062 519 
Q 1375 441 1716 441 
Q 2309 441 2620 675 
Q 2931 909 2931 1356 
Q 2931 1769 2642 2001 
Q 2353 2234 1838 2234 
L 1294 2234 
L 1294 2753 
L 1863 2753 
Q 2328 2753 2575 2939 
Q 2822 3125 2822 3475 
Q 2822 3834 2567 4026 
Q 2313 4219 1838 4219 
Q 1578 4219 1281 4162 
Q 984 4106 628 3988 
L 628 4550 
Q 988 4650 1302 4700 
Q 1616 4750 1894 4750 
Q 2613 4750 3031 4423 
Q 3450 4097 3450 3541 
Q 3450 3153 3228 2886 
Q 3006 2619 2597 2516 
z
" transform="scale(0.015625)"/>
       </defs>
       <use xlink:href="#DejaVuSans-33"/>
       <use xlink:href="#DejaVuSans-30" x="63.623047"/>
      </g>
     </g>
    </g>
    <g id="xtick_5">
     <g id="line2d_5">
      <g>
       <use xlink:href="#mb9d1eb7dfa" x="416.945455" y="384.48" style="stroke: #000000; stroke-width: 0.8"/>
      </g>
     </g>
     <g id="text_5">
      <!-- 40 -->
      <g transform="translate(410.582955 399.078438) scale(0.1 -0.1)">
       <defs>
        <path id="DejaVuSans-34" d="M 2419 4116 
L 825 1625 
L 2419 1625 
L 2419 4116 
z
M 2253 4666 
L 3047 4666 
L 3047 1625 
L 3713 1625 
L 3713 1100 
L 3047 1100 
L 3047 0 
L 2419 0 
L 2419 1100 
L 313 1100 
L 313 1709 
L 2253 4666 
z
" transform="scale(0.015625)"/>
       </defs>
       <use xlink:href="#DejaVuSans-34"/>
       <use xlink:href="#DejaVuSans-30" x="63.623047"/>
      </g>
     </g>
    </g>
    <g id="xtick_6">
     <g id="line2d_6">
      <g>
       <use xlink:href="#mb9d1eb7dfa" x="498.109091" y="384.48" style="stroke: #000000; stroke-width: 0.8"/>
      </g>
     </g>
     <g id="text_6">
      <!-- 50 -->
      <g transform="translate(491.746591 399.078438) scale(0.1 -0.1)">
       <defs>
        <path id="DejaVuSans-35" d="M 691 4666 
L 3169 4666 
L 3169 4134 
L 1269 4134 
L 1269 2991 
Q 1406 3038 1543 3061 
Q 1681 3084 1819 3084 
Q 2600 3084 3056 2656 
Q 3513 2228 3513 1497 
Q 3513 744 3044 326 
Q 2575 -91 1722 -91 
Q 1428 -91 1123 -41 
Q 819 9 494 109 
L 494 744 
Q 775 591 1075 516 
Q 1375 441 1709 441 
Q 2250 441 2565 725 
Q 2881 1009 2881 1497 
Q 2881 1984 2565 2268 
Q 2250 2553 1709 2553 
Q 1456 2553 1204 2497 
Q 953 2441 691 2322 
L 691 4666 
z
" transform="scale(0.015625)"/>
       </defs>
       <use xlink:href="#DejaVuSans-35"/>
       <use xlink:href="#DejaVuSans-30" x="63.623047"/>
      </g>
     </g>
    </g>
    <g id="text_7">
     <!-- concentration / mM -->
     <g transform="translate(246.524219 412.756563) scale(0.1 -0.1)">
      <defs>
       <path id="DejaVuSans-63" d="M 3122 3366 
L 3122 2828 
Q 2878 2963 2633 3030 
Q 2388 3097 2138 3097 
Q 1578 3097 1268 2742 
Q 959 2388 959 1747 
Q 959 1106 1268 751 
Q 1578 397 2138 397 
Q 2388 397 2633 464 
Q 2878 531 3122 666 
L 3122 134 
Q 2881 22 2623 -34 
Q 2366 -91 2075 -91 
Q 1284 -91 818 406 
Q 353 903 353 1747 
Q 353 2603 823 3093 
Q 1294 3584 2113 3584 
Q 2378 3584 2631 3529 
Q 2884 3475 3122 3366 
z
" transform="scale(0.015625)"/>
       <path id="DejaVuSans-6f" d="M 1959 3097 
Q 1497 3097 1228 2736 
Q 959 2375 959 1747 
Q 959 1119 1226 758 
Q 1494 397 1959 397 
Q 2419 397 2687 759 
Q 2956 1122 2956 1747 
Q 2956 2369 2687 2733 
Q 2419 3097 1959 3097 
z
M 1959 3584 
Q 2709 3584 3137 3096 
Q 3566 2609 3566 1747 
Q 3566 888 3137 398 
Q 2709 -91 1959 -91 
Q 1206 -91 779 398 
Q 353 888 353 1747 
Q 353 2609 779 3096 
Q 1206 3584 1959 3584 
z
" transform="scale(0.015625)"/>
       <path id="DejaVuSans-6e" d="M 3513 2113 
L 3513 0 
L 2938 0 
L 2938 2094 
Q 2938 2591 2744 2837 
Q 2550 3084 2163 3084 
Q 1697 3084 1428 2787 
Q 1159 2491 1159 1978 
L 1159 0 
L 581 0 
L 581 3500 
L 1159 3500 
L 1159 2956 
Q 1366 3272 1645 3428 
Q 1925 3584 2291 3584 
Q 2894 3584 3203 3211 
Q 3513 2838 3513 2113 
z
" transform="scale(0.015625)"/>
       <path id="DejaVuSans-65" d="M 3597 1894 
L 3597 1613 
L 953 1613 
Q 991 1019 1311 708 
Q 1631 397 2203 397 
Q 2534 397 2845 478 
Q 3156 559 3463 722 
L 3463 178 
Q 3153 47 2828 -22 
Q 2503 -91 2169 -91 
Q 1331 -91 842 396 
Q 353 884 353 1716 
Q 353 2575 817 3079 
Q 1281 3584 2069 3584 
Q 2775 3584 3186 3129 
Q 3597 2675 3597 1894 
z
M 3022 2063 
Q 3016 2534 2758 2815 
Q 2500 3097 2075 3097 
Q 1594 3097 1305 2825 
Q 1016 2553 972 2059 
L 3022 2063 
z
" transform="scale(0.015625)"/>
       <path id="DejaVuSans-74" d="M 1172 4494 
L 1172 3500 
L 2356 3500 
L 2356 3053 
L 1172 3053 
L 1172 1153 
Q 1172 725 1289 603 
Q 1406 481 1766 481 
L 2356 481 
L 2356 0 
L 1766 0 
Q 1100 0 847 248 
Q 594 497 594 1153 
L 594 3053 
L 172 3053 
L 172 3500 
L 594 3500 
L 594 4494 
L 1172 4494 
z
" transform="scale(0.015625)"/>
       <path id="DejaVuSans-72" d="M 2631 2963 
Q 2534 3019 2420 3045 
Q 2306 3072 2169 3072 
Q 1681 3072 1420 2755 
Q 1159 2438 1159 1844 
L 1159 0 
L 581 0 
L 581 3500 
L 1159 3500 
L 1159 2956 
Q 1341 3275 1631 3429 
Q 1922 3584 2338 3584 
Q 2397 3584 2469 3576 
Q 2541 3569 2628 3553 
L 2631 2963 
z
" transform="scale(0.015625)"/>
       <path id="DejaVuSans-61" d="M 2194 1759 
Q 1497 1759 1228 1600 
Q 959 1441 959 1056 
Q 959 750 1161 570 
Q 1363 391 1709 391 
Q 2188 391 2477 730 
Q 2766 1069 2766 1631 
L 2766 1759 
L 2194 1759 
z
M 3341 1997 
L 3341 0 
L 2766 0 
L 2766 531 
Q 2569 213 2275 61 
Q 1981 -91 1556 -91 
Q 1019 -91 701 211 
Q 384 513 384 1019 
Q 384 1609 779 1909 
Q 1175 2209 1959 2209 
L 2766 2209 
L 2766 2266 
Q 2766 2663 2505 2880 
Q 2244 3097 1772 3097 
Q 1472 3097 1187 3025 
Q 903 2953 641 2809 
L 641 3341 
Q 956 3463 1253 3523 
Q 1550 3584 1831 3584 
Q 2591 3584 2966 3190 
Q 3341 2797 3341 1997 
z
" transform="scale(0.015625)"/>
       <path id="DejaVuSans-69" d="M 603 3500 
L 1178 3500 
L 1178 0 
L 603 0 
L 603 3500 
z
M 603 4863 
L 1178 4863 
L 1178 4134 
L 603 4134 
L 603 4863 
z
" transform="scale(0.015625)"/>
       <path id="DejaVuSans-20" transform="scale(0.015625)"/>
       <path id="DejaVuSans-2f" d="M 1625 4666 
L 2156 4666 
L 531 -594 
L 0 -594 
L 1625 4666 
z
" transform="scale(0.015625)"/>
       <path id="DejaVuSans-6d" d="M 3328 2828 
Q 3544 3216 3844 3400 
Q 4144 3584 4550 3584 
Q 5097 3584 5394 3201 
Q 5691 2819 5691 2113 
L 5691 0 
L 5113 0 
L 5113 2094 
Q 5113 2597 4934 2840 
Q 4756 3084 4391 3084 
Q 3944 3084 3684 2787 
Q 3425 2491 3425 1978 
L 3425 0 
L 2847 0 
L 2847 2094 
Q 2847 2600 2669 2842 
Q 2491 3084 2119 3084 
Q 1678 3084 1418 2786 
Q 1159 2488 1159 1978 
L 1159 0 
L 581 0 
L 581 3500 
L 1159 3500 
L 1159 2956 
Q 1356 3278 1631 3431 
Q 1906 3584 2284 3584 
Q 2666 3584 2933 3390 
Q 3200 3197 3328 2828 
z
" transform="scale(0.015625)"/>
       <path id="DejaVuSans-4d" d="M 628 4666 
L 1569 4666 
L 2759 1491 
L 3956 4666 
L 4897 4666 
L 4897 0 
L 4281 0 
L 4281 4097 
L 3078 897 
L 2444 897 
L 1241 4097 
L 1241 0 
L 628 0 
L 628 4666 
z
" transform="scale(0.015625)"/>
      </defs>
      <use xlink:href="#DejaVuSans-63"/>
      <use xlink:href="#DejaVuSans-6f" x="54.980469"/>
      <use xlink:href="#DejaVuSans-6e" x="116.162109"/>
      <use xlink:href="#DejaVuSans-63" x="179.541016"/>
      <use xlink:href="#DejaVuSans-65" x="234.521484"/>
      <use xlink:href="#DejaVuSans-6e" x="296.044922"/>
      <use xlink:href="#DejaVuSans-74" x="359.423828"/>
      <use xlink:href="#DejaVuSans-72" x="398.632812"/>
      <use xlink:href="#DejaVuSans-61" x="439.746094"/>
      <use xlink:href="#DejaVuSans-74" x="501.025391"/>
      <use xlink:href="#DejaVuSans-69" x="540.234375"/>
      <use xlink:href="#DejaVuSans-6f" x="568.017578"/>
      <use xlink:href="#DejaVuSans-6e" x="629.199219"/>
      <use xlink:href="#DejaVuSans-20" x="692.578125"/>
      <use xlink:href="#DejaVuSans-2f" x="724.365234"/>
      <use xlink:href="#DejaVuSans-20" x="758.056641"/>
      <use xlink:href="#DejaVuSans-6d" x="789.84375"/>
      <use xlink:href="#DejaVuSans-4d" x="887.255859"/>
     </g>
    </g>
   </g>
   <g id="matplotlib.axis_2">
    <g id="ytick_1">
     <g id="line2d_7">
      <defs>
       <path id="m3598e3f119" d="M 0 0 
L -3.5 0 
" style="stroke: #000000; stroke-width: 0.8"/>
      </defs>
      <g>
       <use xlink:href="#m3598e3f119" x="72" y="384.48" style="stroke: #000000; stroke-width: 0.8"/>
      </g>
     </g>
     <g id="text_8">
      <!-- 0.00 -->
      <g transform="translate(42.734375 388.279219) scale(0.1 -0.1)">
       <defs>
        <path id="DejaVuSans-2e" d="M 684 794 
L 1344 794 
L 1344 0 
L 684 0 
L 684 794 
z
" transform="scale(0.015625)"/>
       </defs>
       <use xlink:href="#DejaVuSans-30"/>
       <use xlink:href="#DejaVuSans-2e" x="63.623047"/>
       <use xlink:href="#DejaVuSans-30" x="95.410156"/>
       <use xlink:href="#DejaVuSans-30" x="159.033203"/>
      </g>
     </g>
    </g>
    <g id="ytick_2">
     <g id="line2d_8">
      <g>
       <use xlink:href="#m3598e3f119" x="72" y="342.9" style="stroke: #000000; stroke-width: 0.8"/>
      </g>
     </g>
     <g id="text_9">
      <!-- 0.25 -->
      <g transform="translate(42.734375 346.699219) scale(0.1 -0.1)">
       <use xlink:href="#DejaVuSans-30"/>
       <use xlink:href="#DejaVuSans-2e" x="63.623047"/>
       <use xlink:href="#DejaVuSans-32" x="95.410156"/>
       <use xlink:href="#DejaVuSans-35" x="159.033203"/>
      </g>
     </g>
    </g>
    <g id="ytick_3">
     <g id="line2d_9">
      <g>
       <use xlink:href="#m3598e3f119" x="72" y="301.32" style="stroke: #000000; stroke-width: 0.8"/>
      </g>
     </g>
     <g id="text_10">
      <!-- 0.50 -->
      <g transform="translate(42.734375 305.119219) scale(0.1 -0.1)">
       <use xlink:href="#DejaVuSans-30"/>
       <use xlink:href="#DejaVuSans-2e" x="63.623047"/>
       <use xlink:href="#DejaVuSans-35" x="95.410156"/>
       <use xlink:href="#DejaVuSans-30" x="159.033203"/>
      </g>
     </g>
    </g>
    <g id="ytick_4">
     <g id="line2d_10">
      <g>
       <use xlink:href="#m3598e3f119" x="72" y="259.74" style="stroke: #000000; stroke-width: 0.8"/>
      </g>
     </g>
     <g id="text_11">
      <!-- 0.75 -->
      <g transform="translate(42.734375 263.539219) scale(0.1 -0.1)">
       <defs>
        <path id="DejaVuSans-37" d="M 525 4666 
L 3525 4666 
L 3525 4397 
L 1831 0 
L 1172 0 
L 2766 4134 
L 525 4134 
L 525 4666 
z
" transform="scale(0.015625)"/>
       </defs>
       <use xlink:href="#DejaVuSans-30"/>
       <use xlink:href="#DejaVuSans-2e" x="63.623047"/>
       <use xlink:href="#DejaVuSans-37" x="95.410156"/>
       <use xlink:href="#DejaVuSans-35" x="159.033203"/>
      </g>
     </g>
    </g>
    <g id="ytick_5">
     <g id="line2d_11">
      <g>
       <use xlink:href="#m3598e3f119" x="72" y="218.16" style="stroke: #000000; stroke-width: 0.8"/>
      </g>
     </g>
     <g id="text_12">
      <!-- 1.00 -->
      <g transform="translate(42.734375 221.959219) scale(0.1 -0.1)">
       <use xlink:href="#DejaVuSans-31"/>
       <use xlink:href="#DejaVuSans-2e" x="63.623047"/>
       <use xlink:href="#DejaVuSans-30" x="95.410156"/>
       <use xlink:href="#DejaVuSans-30" x="159.033203"/>
      </g>
     </g>
    </g>
    <g id="ytick_6">
     <g id="line2d_12">
      <g>
       <use xlink:href="#m3598e3f119" x="72" y="176.58" style="stroke: #000000; stroke-width: 0.8"/>
      </g>
     </g>
     <g id="text_13">
      <!-- 1.25 -->
      <g transform="translate(42.734375 180.379219) scale(0.1 -0.1)">
       <use xlink:href="#DejaVuSans-31"/>
       <use xlink:href="#DejaVuSans-2e" x="63.623047"/>
       <use xlink:href="#DejaVuSans-32" x="95.410156"/>
       <use xlink:href="#DejaVuSans-35" x="159.033203"/>
      </g>
     </g>
    </g>
    <g id="ytick_7">
     <g id="line2d_13">
      <g>
       <use xlink:href="#m3598e3f119" x="72" y="135" style="stroke: #000000; stroke-width: 0.8"/>
      </g>
     </g>
     <g id="text_14">
      <!-- 1.50 -->
      <g transform="translate(42.734375 138.799219) scale(0.1 -0.1)">
       <use xlink:href="#DejaVuSans-31"/>
       <use xlink:href="#DejaVuSans-2e" x="63.623047"/>
       <use xlink:href="#DejaVuSans-35" x="95.410156"/>
       <use xlink:href="#DejaVuSans-30" x="159.033203"/>
      </g>
     </g>
    </g>
    <g id="ytick_8">
     <g id="line2d_14">
      <g>
       <use xlink:href="#m3598e3f119" x="72" y="93.42" style="stroke: #000000; stroke-width: 0.8"/>
      </g>
     </g>
     <g id="text_15">
      <!-- 1.75 -->
      <g transform="translate(42.734375 97.219219) scale(0.1 -0.1)">
       <use xlink:href="#DejaVuSans-31"/>
       <use xlink:href="#DejaVuSans-2e" x="63.623047"/>
       <use xlink:href="#DejaVuSans-37" x="95.410156"/>
       <use xlink:href="#DejaVuSans-35" x="159.033203"/>
      </g>
     </g>
    </g>
    <g id="ytick_9">
     <g id="line2d_15">
      <g>
       <use xlink:href="#m3598e3f119" x="72" y="51.84" style="stroke: #000000; stroke-width: 0.8"/>
      </g>
     </g>
     <g id="text_16">
      <!-- 2.00 -->
      <g transform="translate(42.734375 55.639219) scale(0.1 -0.1)">
       <use xlink:href="#DejaVuSans-32"/>
       <use xlink:href="#DejaVuSans-2e" x="63.623047"/>
       <use xlink:href="#DejaVuSans-30" x="95.410156"/>
       <use xlink:href="#DejaVuSans-30" x="159.033203"/>
      </g>
     </g>
    </g>
    <g id="text_17">
     <!-- absorbance -->
     <g transform="translate(36.654687 247.350625) rotate(-90) scale(0.1 -0.1)">
      <defs>
       <path id="DejaVuSans-62" d="M 3116 1747 
Q 3116 2381 2855 2742 
Q 2594 3103 2138 3103 
Q 1681 3103 1420 2742 
Q 1159 2381 1159 1747 
Q 1159 1113 1420 752 
Q 1681 391 2138 391 
Q 2594 391 2855 752 
Q 3116 1113 3116 1747 
z
M 1159 2969 
Q 1341 3281 1617 3432 
Q 1894 3584 2278 3584 
Q 2916 3584 3314 3078 
Q 3713 2572 3713 1747 
Q 3713 922 3314 415 
Q 2916 -91 2278 -91 
Q 1894 -91 1617 61 
Q 1341 213 1159 525 
L 1159 0 
L 581 0 
L 581 4863 
L 1159 4863 
L 1159 2969 
z
" transform="scale(0.015625)"/>
       <path id="DejaVuSans-73" d="M 2834 3397 
L 2834 2853 
Q 2591 2978 2328 3040 
Q 2066 3103 1784 3103 
Q 1356 3103 1142 2972 
Q 928 2841 928 2578 
Q 928 2378 1081 2264 
Q 1234 2150 1697 2047 
L 1894 2003 
Q 2506 1872 2764 1633 
Q 3022 1394 3022 966 
Q 3022 478 2636 193 
Q 2250 -91 1575 -91 
Q 1294 -91 989 -36 
Q 684 19 347 128 
L 347 722 
Q 666 556 975 473 
Q 1284 391 1588 391 
Q 1994 391 2212 530 
Q 2431 669 2431 922 
Q 2431 1156 2273 1281 
Q 2116 1406 1581 1522 
L 1381 1569 
Q 847 1681 609 1914 
Q 372 2147 372 2553 
Q 372 3047 722 3315 
Q 1072 3584 1716 3584 
Q 2034 3584 2315 3537 
Q 2597 3491 2834 3397 
z
" transform="scale(0.015625)"/>
      </defs>
      <use xlink:href="#DejaVuSans-61"/>
      <use xlink:href="#DejaVuSans-62" x="61.279297"/>
      <use xlink:href="#DejaVuSans-73" x="124.755859"/>
      <use xlink:href="#DejaVuSans-6f" x="176.855469"/>
      <use xlink:href="#DejaVuSans-72" x="238.037109"/>
      <use xlink:href="#DejaVuSans-62" x="279.150391"/>
      <use xlink:href="#DejaVuSans-61" x="342.626953"/>
      <use xlink:href="#DejaVuSans-6e" x="403.90625"/>
      <use xlink:href="#DejaVuSans-63" x="467.285156"/>
      <use xlink:href="#DejaVuSans-65" x="522.265625"/>
     </g>
    </g>
   </g>
   <g id="line2d_16">
    <defs>
     <path id="m5b751355be" d="M 0 3 
C 0.795609 3 1.55874 2.683901 2.12132 2.12132 
C 2.683901 1.55874 3 0.795609 3 0 
C 3 -0.795609 2.683901 -1.55874 2.12132 -2.12132 
C 1.55874 -2.683901 0.795609 -3 0 -3 
C -0.795609 -3 -1.55874 -2.683901 -2.12132 -2.12132 
C -2.683901 -1.55874 -3 -0.795609 -3 0 
C -3 0.795609 -2.683901 1.55874 -2.12132 2.12132 
C -1.55874 2.683901 -0.795609 3 0 3 
z
" style="stroke: #1f77b4"/>
    </defs>
    <g clip-path="url(#p67535f1490)">
     <use xlink:href="#m5b751355be" x="109.538182" y="374.966496" style="fill: #1f77b4; stroke: #1f77b4"/>
     <use xlink:href="#m5b751355be" x="126.785455" y="361.344888" style="fill: #1f77b4; stroke: #1f77b4"/>
     <use xlink:href="#m5b751355be" x="144.032727" y="350.401032" style="fill: #1f77b4; stroke: #1f77b4"/>
     <use xlink:href="#m5b751355be" x="161.28" y="338.675472" style="fill: #1f77b4; stroke: #1f77b4"/>
     <use xlink:href="#m5b751355be" x="178.567855" y="327.59856" style="fill: #1f77b4; stroke: #1f77b4"/>
     <use xlink:href="#m5b751355be" x="195.774545" y="315.640152" style="fill: #1f77b4; stroke: #1f77b4"/>
     <use xlink:href="#m5b751355be" x="213.0624" y="302.051808" style="fill: #1f77b4; stroke: #1f77b4"/>
     <use xlink:href="#m5b751355be" x="230.269091" y="287.76492" style="fill: #1f77b4; stroke: #1f77b4"/>
     <use xlink:href="#m5b751355be" x="247.556945" y="271.282608" style="fill: #1f77b4; stroke: #1f77b4"/>
     <use xlink:href="#m5b751355be" x="264.763636" y="260.056008" style="fill: #1f77b4; stroke: #1f77b4"/>
     <use xlink:href="#m5b751355be" x="282.051491" y="247.399056" style="fill: #1f77b4; stroke: #1f77b4"/>
     <use xlink:href="#m5b751355be" x="299.258182" y="232.62984" style="fill: #1f77b4; stroke: #1f77b4"/>
     <use xlink:href="#m5b751355be" x="316.546036" y="217.444824" style="fill: #1f77b4; stroke: #1f77b4"/>
     <use xlink:href="#m5b751355be" x="333.752727" y="204.704712" style="fill: #1f77b4; stroke: #1f77b4"/>
     <use xlink:href="#m5b751355be" x="351.040582" y="193.029048" style="fill: #1f77b4; stroke: #1f77b4"/>
     <use xlink:href="#m5b751355be" x="368.247273" y="176.862744" style="fill: #1f77b4; stroke: #1f77b4"/>
     <use xlink:href="#m5b751355be" x="385.535127" y="162.060264" style="fill: #1f77b4; stroke: #1f77b4"/>
     <use xlink:href="#m5b751355be" x="402.741818" y="151.182936" style="fill: #1f77b4; stroke: #1f77b4"/>
     <use xlink:href="#m5b751355be" x="420.029673" y="136.214136" style="fill: #1f77b4; stroke: #1f77b4"/>
     <use xlink:href="#m5b751355be" x="437.236364" y="120.812904" style="fill: #1f77b4; stroke: #1f77b4"/>
    </g>
   </g>
   <g id="line2d_17">
    <path d="M 109.538182 374.966502 
L 126.785455 361.345836 
L 144.032727 350.402137 
L 161.28 338.669922 
L 178.567855 327.621319 
L 195.774545 315.577972 
L 213.0624 302.187415 
L 230.269091 287.53072 
L 247.556945 271.611406 
L 264.763636 259.680292 
L 282.051491 247.751525 
L 299.258182 232.358606 
L 316.546036 217.614854 
L 333.752727 204.618345 
L 351.040582 193.063397 
L 368.247273 176.850826 
L 385.535127 162.062101 
L 402.741818 151.180987 
L 420.029673 136.214186 
L 437.236364 120.809919 
" clip-path="url(#p67535f1490)" style="fill: none; stroke: #ff7f0e; stroke-width: 1.5; stroke-linecap: square"/>
   </g>
   <g id="line2d_18">
    <path d="M 106.711987 -1 
L 107.321212 111.145109 
L 108.133661 230.702297 
L 108.94611 322.65015 
L 109.758559 391.658182 
L 110.415715 433 
M 120.445409 433 
L 121.945291 410.525405 
L 123.163964 394.587533 
L 124.382637 381.029875 
L 125.60131 369.908267 
L 126.819984 361.127689 
L 127.632432 356.481211 
L 128.444881 352.716018 
L 129.25733 349.750777 
L 130.069779 347.500098 
L 130.882228 345.877343 
L 131.694676 344.796868 
L 132.507125 344.1758 
L 133.319574 343.935391 
L 134.132023 344.002014 
L 134.944472 344.307866 
L 136.163145 345.082352 
L 138.194267 346.79031 
L 140.631613 348.791456 
L 142.256511 349.781119 
L 143.475184 350.262989 
L 144.693857 350.49954 
L 145.912531 350.48819 
L 147.131204 350.238773 
L 148.349877 349.770429 
L 149.974775 348.850345 
L 151.599672 347.658021 
L 153.630794 345.899184 
L 157.693038 341.999164 
L 161.349058 338.609482 
L 164.192629 336.27252 
L 167.0362 334.235581 
L 170.285995 332.2145 
L 175.160688 329.508651 
L 180.441605 326.529201 
L 184.503849 323.963698 
L 188.566093 321.113748 
L 193.847011 317.092662 
L 212.939558 302.282204 
L 219.032924 297.454778 
L 223.907617 293.324228 
L 229.188534 288.541987 
L 238.531695 279.672229 
L 244.218837 274.462748 
L 248.281081 271.017773 
L 252.343325 267.861926 
L 256.405569 264.989775 
L 261.280262 261.832999 
L 273.873219 253.862606 
L 277.935463 250.960185 
L 281.997707 247.795194 
L 286.466175 244.025207 
L 292.153317 238.909975 
L 305.558722 226.717902 
L 311.652088 221.558994 
L 318.557903 216.032965 
L 327.088616 209.504309 
L 334.400655 204.157551 
L 340.494021 199.975563 
L 354.305651 190.723236 
L 357.555446 188.118474 
L 360.399017 185.538539 
L 363.242588 182.641594 
L 366.492383 178.962933 
L 371.367076 173.007812 
L 375.023096 168.689926 
L 377.460442 166.181498 
L 379.08534 164.775171 
L 380.710238 163.634449 
L 382.335135 162.792938 
L 383.553808 162.370441 
L 384.772482 162.126856 
L 386.397379 162.064947 
L 388.022277 162.260221 
L 390.459623 162.850148 
L 392.89697 163.403734 
L 394.115643 163.482543 
L 395.334316 163.310044 
L 396.146765 163.006902 
L 396.959214 162.517698 
L 397.771663 161.812794 
L 398.584111 160.861495 
L 399.39656 159.635119 
L 400.209009 158.10745 
L 401.427682 155.200378 
L 402.646355 151.504706 
L 403.865029 146.993367 
L 405.083702 141.679901 
L 406.7086 133.481057 
L 409.145946 119.617866 
L 411.177068 108.191742 
L 412.395741 102.358673 
L 413.20819 99.281273 
L 414.020639 97.109524 
L 414.426863 96.441292 
L 414.833088 96.094272 
L 415.239312 96.102512 
L 415.645536 96.503154 
L 416.051761 97.332959 
L 416.457985 98.628054 
L 416.86421 100.428049 
L 417.676658 105.703248 
L 418.489107 113.476785 
L 419.301556 124.070636 
L 420.114005 137.794685 
L 420.926454 154.938177 
L 421.738903 175.75295 
L 422.957576 214.266266 
L 424.176249 261.760656 
L 425.394922 317.92668 
L 427.01982 404.037299 
L 427.531629 433 
M 435.882332 433 
L 436.362981 343.298595 
L 437.17543 139.031946 
L 437.608779 -1 
L 437.608779 -1 
" clip-path="url(#p67535f1490)" style="fill: none; stroke: #2ca02c; stroke-width: 1.5; stroke-linecap: square"/>
   </g>
   <g id="patch_3">
    <path d="M 72 384.48 
L 72 51.84 
" style="fill: none; stroke: #000000; stroke-width: 0.8; stroke-linejoin: miter; stroke-linecap: square"/>
   </g>
   <g id="patch_4">
    <path d="M 518.4 384.48 
L 518.4 51.84 
" style="fill: none; stroke: #000000; stroke-width: 0.8; stroke-linejoin: miter; stroke-linecap: square"/>
   </g>
   <g id="patch_5">
    <path d="M 72 384.48 
L 518.4 384.48 
" style="fill: none; stroke: #000000; stroke-width: 0.8; stroke-linejoin: miter; stroke-linecap: square"/>
   </g>
   <g id="patch_6">
    <path d="M 72 51.84 
L 518.4 51.84 
" style="fill: none; stroke: #000000; stroke-width: 0.8; stroke-linejoin: miter; stroke-linecap: square"/>
   </g>
   <g id="legend_1">
    <g id="patch_7">
     <path d="M 245.004687 379.48 
L 345.395312 379.48 
Q 347.395312 379.48 347.395312 377.48 
L 347.395312 334.445625 
Q 347.395312 332.445625 345.395312 332.445625 
L 245.004687 332.445625 
Q 243.004687 332.445625 243.004687 334.445625 
L 243.004687 377.48 
Q 243.004687 379.48 245.004687 379.48 
z
" style="fill: #ffffff; opacity: 0.8; stroke: #cccccc; stroke-linejoin: miter"/>
    </g>
    <g id="line2d_19">
     <g>
      <use xlink:href="#m5b751355be" x="257.004687" y="340.544062" style="fill: #1f77b4; stroke: #1f77b4"/>
     </g>
    </g>
    <g id="text_18">
     <!-- data -->
     <g transform="translate(275.004687 344.044062) scale(0.1 -0.1)">
      <defs>
       <path id="DejaVuSans-64" d="M 2906 2969 
L 2906 4863 
L 3481 4863 
L 3481 0 
L 2906 0 
L 2906 525 
Q 2725 213 2448 61 
Q 2172 -91 1784 -91 
Q 1150 -91 751 415 
Q 353 922 353 1747 
Q 353 2572 751 3078 
Q 1150 3584 1784 3584 
Q 2172 3584 2448 3432 
Q 2725 3281 2906 2969 
z
M 947 1747 
Q 947 1113 1208 752 
Q 1469 391 1925 391 
Q 2381 391 2643 752 
Q 2906 1113 2906 1747 
Q 2906 2381 2643 2742 
Q 2381 3103 1925 3103 
Q 1469 3103 1208 2742 
Q 947 2381 947 1747 
z
" transform="scale(0.015625)"/>
      </defs>
      <use xlink:href="#DejaVuSans-64"/>
      <use xlink:href="#DejaVuSans-61" x="63.476562"/>
      <use xlink:href="#DejaVuSans-74" x="124.755859"/>
      <use xlink:href="#DejaVuSans-61" x="163.964844"/>
     </g>
    </g>
    <g id="line2d_20">
     <path d="M 247.004687 355.222188 
L 257.004687 355.222188 
L 267.004687 355.222188 
" style="fill: none; stroke: #ff7f0e; stroke-width: 1.5; stroke-linecap: square"/>
    </g>
    <g id="text_19">
     <!-- fit discrete -->
     <g transform="translate(275.004687 358.722188) scale(0.1 -0.1)">
      <defs>
       <path id="DejaVuSans-66" d="M 2375 4863 
L 2375 4384 
L 1825 4384 
Q 1516 4384 1395 4259 
Q 1275 4134 1275 3809 
L 1275 3500 
L 2222 3500 
L 2222 3053 
L 1275 3053 
L 1275 0 
L 697 0 
L 697 3053 
L 147 3053 
L 147 3500 
L 697 3500 
L 697 3744 
Q 697 4328 969 4595 
Q 1241 4863 1831 4863 
L 2375 4863 
z
" transform="scale(0.015625)"/>
      </defs>
      <use xlink:href="#DejaVuSans-66"/>
      <use xlink:href="#DejaVuSans-69" x="35.205078"/>
      <use xlink:href="#DejaVuSans-74" x="62.988281"/>
      <use xlink:href="#DejaVuSans-20" x="102.197266"/>
      <use xlink:href="#DejaVuSans-64" x="133.984375"/>
      <use xlink:href="#DejaVuSans-69" x="197.460938"/>
      <use xlink:href="#DejaVuSans-73" x="225.244141"/>
      <use xlink:href="#DejaVuSans-63" x="277.34375"/>
      <use xlink:href="#DejaVuSans-72" x="332.324219"/>
      <use xlink:href="#DejaVuSans-65" x="371.1875"/>
      <use xlink:href="#DejaVuSans-74" x="432.710938"/>
      <use xlink:href="#DejaVuSans-65" x="471.919922"/>
     </g>
    </g>
    <g id="line2d_21">
     <path d="M 247.004687 369.900312 
L 257.004687 369.900312 
L 267.004687 369.900312 
" style="fill: none; stroke: #2ca02c; stroke-width: 1.5; stroke-linecap: square"/>
    </g>
    <g id="text_20">
     <!-- fit continuous -->
     <g transform="translate(275.004687 373.400312) scale(0.1 -0.1)">
      <defs>
       <path id="DejaVuSans-75" d="M 544 1381 
L 544 3500 
L 1119 3500 
L 1119 1403 
Q 1119 906 1312 657 
Q 1506 409 1894 409 
Q 2359 409 2629 706 
Q 2900 1003 2900 1516 
L 2900 3500 
L 3475 3500 
L 3475 0 
L 2900 0 
L 2900 538 
Q 2691 219 2414 64 
Q 2138 -91 1772 -91 
Q 1169 -91 856 284 
Q 544 659 544 1381 
z
M 1991 3584 
L 1991 3584 
z
" transform="scale(0.015625)"/>
      </defs>
      <use xlink:href="#DejaVuSans-66"/>
      <use xlink:href="#DejaVuSans-69" x="35.205078"/>
      <use xlink:href="#DejaVuSans-74" x="62.988281"/>
      <use xlink:href="#DejaVuSans-20" x="102.197266"/>
      <use xlink:href="#DejaVuSans-63" x="133.984375"/>
      <use xlink:href="#DejaVuSans-6f" x="188.964844"/>
      <use xlink:href="#DejaVuSans-6e" x="250.146484"/>
      <use xlink:href="#DejaVuSans-74" x="313.525391"/>
      <use xlink:href="#DejaVuSans-69" x="352.734375"/>
      <use xlink:href="#DejaVuSans-6e" x="380.517578"/>
      <use xlink:href="#DejaVuSans-75" x="443.896484"/>
      <use xlink:href="#DejaVuSans-6f" x="507.275391"/>
      <use xlink:href="#DejaVuSans-75" x="568.457031"/>
      <use xlink:href="#DejaVuSans-73" x="631.835938"/>
     </g>
    </g>
   </g>
  </g>
 </g>
 <defs>
  <clipPath id="p67535f1490">
   <rect x="72" y="51.84" width="446.4" height="332.64"/>
  </clipPath>
 </defs>
</svg>
