<?xml version="1.0" encoding="utf-8" standalone="no"?>
<!DOCTYPE svg PUBLIC "-//W3C//DTD SVG 1.1//EN"
  "http://www.w3.org/Graphics/SVG/1.1/DTD/svg11.dtd">
<svg xmlns:xlink="http://www.w3.org/1999/xlink" width="432pt" height="360pt" viewBox="0 0 432 360" xmlns="http://www.w3.org/2000/svg" version="1.1">
 <metadata>
  <rdf:RDF xmlns:dc="http://purl.org/dc/elements/1.1/" xmlns:cc="http://creativecommons.org/ns#" xmlns:rdf="http://www.w3.org/1999/02/22-rdf-syntax-ns#">
   <cc:Work>
    <dc:type rdf:resource="http://purl.org/dc/dcmitype/StillImage"/>
    <dc:date>2024-07-04T11:08:38.439029</dc:date>
    <dc:format>image/svg+xml</dc:format>
    <dc:creator>
     <cc:Agent>
      <dc:title>Matplotlib v3.7.1, https://matplotlib.org/</dc:title>
     </cc:Agent>
    </dc:creator>
   </cc:Work>
  </rdf:RDF>
 </metadata>
 <defs>
  <style type="text/css">*{stroke-linejoin: round; stroke-linecap: butt}</style>
 </defs>
 <g id="figure_1">
  <g id="patch_1">
   <path d="M 0 360 
L 432 360 
L 432 0 
L 0 0 
z
" style="fill: #ffffff"/>
  </g>
  <g id="axes_1">
   <g id="patch_2">
    <path d="M 33.685 328.12 
L 421.2 328.12 
L 421.2 10.8 
L 33.685 10.8 
z
" style="fill: #ffffff"/>
   </g>
   <g id="matplotlib.axis_1">
    <g id="xtick_1">
     <g id="line2d_1">
      <defs>
       <path id="m1f358f9b20" d="M 0 0 
L 0 3.5 
" style="stroke: #000000; stroke-width: 0.8"/>
      </defs>
      <g>
       <use xlink:href="#m1f358f9b20" x="51.299318" y="328.12" style="stroke: #000000; stroke-width: 0.8"/>
      </g>
     </g>
    </g>
    <g id="xtick_2">
     <g id="line2d_2">
      <g>
       <use xlink:href="#m1f358f9b20" x="110.013712" y="328.12" style="stroke: #000000; stroke-width: 0.8"/>
      </g>
     </g>
    </g>
    <g id="xtick_3">
     <g id="line2d_3">
      <g>
       <use xlink:href="#m1f358f9b20" x="168.728106" y="328.12" style="stroke: #000000; stroke-width: 0.8"/>
      </g>
     </g>
    </g>
    <g id="xtick_4">
     <g id="line2d_4">
      <g>
       <use xlink:href="#m1f358f9b20" x="227.4425" y="328.12" style="stroke: #000000; stroke-width: 0.8"/>
      </g>
     </g>
    </g>
    <g id="xtick_5">
     <g id="line2d_5">
      <g>
       <use xlink:href="#m1f358f9b20" x="286.156894" y="328.12" style="stroke: #000000; stroke-width: 0.8"/>
      </g>
     </g>
    </g>
    <g id="xtick_6">
     <g id="line2d_6">
      <g>
       <use xlink:href="#m1f358f9b20" x="344.871288" y="328.12" style="stroke: #000000; stroke-width: 0.8"/>
      </g>
     </g>
    </g>
    <g id="xtick_7">
     <g id="line2d_7">
      <g>
       <use xlink:href="#m1f358f9b20" x="403.585682" y="328.12" style="stroke: #000000; stroke-width: 0.8"/>
      </g>
     </g>
    </g>
    <g id="text_1">
     <!-- PCA2 -->
     <g transform="translate(214.334688 346.718437) scale(0.1 -0.1)">
      <defs>
       <path id="DejaVuSans-50" d="M 1259 4147 
L 1259 2394 
L 2053 2394 
Q 2494 2394 2734 2622 
Q 2975 2850 2975 3272 
Q 2975 3691 2734 3919 
Q 2494 4147 2053 4147 
L 1259 4147 
z
M 628 4666 
L 2053 4666 
Q 2838 4666 3239 4311 
Q 3641 3956 3641 3272 
Q 3641 2581 3239 2228 
Q 2838 1875 2053 1875 
L 1259 1875 
L 1259 0 
L 628 0 
L 628 4666 
z
" transform="scale(0.015625)"/>
       <path id="DejaVuSans-43" d="M 4122 4306 
L 4122 3641 
Q 3803 3938 3442 4084 
Q 3081 4231 2675 4231 
Q 1875 4231 1450 3742 
Q 1025 3253 1025 2328 
Q 1025 1406 1450 917 
Q 1875 428 2675 428 
Q 3081 428 3442 575 
Q 3803 722 4122 1019 
L 4122 359 
Q 3791 134 3420 21 
Q 3050 -91 2638 -91 
Q 1578 -91 968 557 
Q 359 1206 359 2328 
Q 359 3453 968 4101 
Q 1578 4750 2638 4750 
Q 3056 4750 3426 4639 
Q 3797 4528 4122 4306 
z
" transform="scale(0.015625)"/>
       <path id="DejaVuSans-41" d="M 2188 4044 
L 1331 1722 
L 3047 1722 
L 2188 4044 
z
M 1831 4666 
L 2547 4666 
L 4325 0 
L 3669 0 
L 3244 1197 
L 1141 1197 
L 716 0 
L 50 0 
L 1831 4666 
z
" transform="scale(0.015625)"/>
       <path id="DejaVuSans-32" d="M 1228 531 
L 3431 531 
L 3431 0 
L 469 0 
L 469 531 
Q 828 903 1448 1529 
Q 2069 2156 2228 2338 
Q 2531 2678 2651 2914 
Q 2772 3150 2772 3378 
Q 2772 3750 2511 3984 
Q 2250 4219 1831 4219 
Q 1534 4219 1204 4116 
Q 875 4013 500 3803 
L 500 4441 
Q 881 4594 1212 4672 
Q 1544 4750 1819 4750 
Q 2544 4750 2975 4387 
Q 3406 4025 3406 3419 
Q 3406 3131 3298 2873 
Q 3191 2616 2906 2266 
Q 2828 2175 2409 1742 
Q 1991 1309 1228 531 
z
" transform="scale(0.015625)"/>
      </defs>
      <use xlink:href="#DejaVuSans-50"/>
      <use xlink:href="#DejaVuSans-43" x="60.302734"/>
      <use xlink:href="#DejaVuSans-41" x="130.126953"/>
      <use xlink:href="#DejaVuSans-32" x="198.535156"/>
     </g>
    </g>
   </g>
   <g id="matplotlib.axis_2">
    <g id="ytick_1">
     <g id="line2d_8">
      <defs>
       <path id="mdcbb9f39d5" d="M 0 0 
L -3.5 0 
" style="stroke: #000000; stroke-width: 0.8"/>
      </defs>
      <g>
       <use xlink:href="#mdcbb9f39d5" x="33.685" y="301.676667" style="stroke: #000000; stroke-width: 0.8"/>
      </g>
     </g>
     <g id="text_2">
      <!-- 0.0 -->
      <g transform="translate(10.781875 305.475885) scale(0.1 -0.1)">
       <defs>
        <path id="DejaVuSans-30" d="M 2034 4250 
Q 1547 4250 1301 3770 
Q 1056 3291 1056 2328 
Q 1056 1369 1301 889 
Q 1547 409 2034 409 
Q 2525 409 2770 889 
Q 3016 1369 3016 2328 
Q 3016 3291 2770 3770 
Q 2525 4250 2034 4250 
z
M 2034 4750 
Q 2819 4750 3233 4129 
Q 3647 3509 3647 2328 
Q 3647 1150 3233 529 
Q 2819 -91 2034 -91 
Q 1250 -91 836 529 
Q 422 1150 422 2328 
Q 422 3509 836 4129 
Q 1250 4750 2034 4750 
z
" transform="scale(0.015625)"/>
        <path id="DejaVuSans-2e" d="M 684 794 
L 1344 794 
L 1344 0 
L 684 0 
L 684 794 
z
" transform="scale(0.015625)"/>
       </defs>
       <use xlink:href="#DejaVuSans-30"/>
       <use xlink:href="#DejaVuSans-2e" x="63.623047"/>
       <use xlink:href="#DejaVuSans-30" x="95.410156"/>
      </g>
     </g>
    </g>
    <g id="ytick_2">
     <g id="line2d_9">
      <g>
       <use xlink:href="#mdcbb9f39d5" x="33.685" y="248.79" style="stroke: #000000; stroke-width: 0.8"/>
      </g>
     </g>
     <g id="text_3">
      <!-- 0.2 -->
      <g transform="translate(10.781875 252.589219) scale(0.1 -0.1)">
       <use xlink:href="#DejaVuSans-30"/>
       <use xlink:href="#DejaVuSans-2e" x="63.623047"/>
       <use xlink:href="#DejaVuSans-32" x="95.410156"/>
      </g>
     </g>
    </g>
    <g id="ytick_3">
     <g id="line2d_10">
      <g>
       <use xlink:href="#mdcbb9f39d5" x="33.685" y="195.903333" style="stroke: #000000; stroke-width: 0.8"/>
      </g>
     </g>
     <g id="text_4">
      <!-- 0.4 -->
      <g transform="translate(10.781875 199.702552) scale(0.1 -0.1)">
       <defs>
        <path id="DejaVuSans-34" d="M 2419 4116 
L 825 1625 
L 2419 1625 
L 2419 4116 
z
M 2253 4666 
L 3047 4666 
L 3047 1625 
L 3713 1625 
L 3713 1100 
L 3047 1100 
L 3047 0 
L 2419 0 
L 2419 1100 
L 313 1100 
L 313 1709 
L 2253 4666 
z
" transform="scale(0.015625)"/>
       </defs>
       <use xlink:href="#DejaVuSans-30"/>
       <use xlink:href="#DejaVuSans-2e" x="63.623047"/>
       <use xlink:href="#DejaVuSans-34" x="95.410156"/>
      </g>
     </g>
    </g>
    <g id="ytick_4">
     <g id="line2d_11">
      <g>
       <use xlink:href="#mdcbb9f39d5" x="33.685" y="143.016667" style="stroke: #000000; stroke-width: 0.8"/>
      </g>
     </g>
     <g id="text_5">
      <!-- 0.6 -->
      <g transform="translate(10.781875 146.815885) scale(0.1 -0.1)">
       <defs>
        <path id="DejaVuSans-36" d="M 2113 2584 
Q 1688 2584 1439 2293 
Q 1191 2003 1191 1497 
Q 1191 994 1439 701 
Q 1688 409 2113 409 
Q 2538 409 2786 701 
Q 3034 994 3034 1497 
Q 3034 2003 2786 2293 
Q 2538 2584 2113 2584 
z
M 3366 4563 
L 3366 3988 
Q 3128 4100 2886 4159 
Q 2644 4219 2406 4219 
Q 1781 4219 1451 3797 
Q 1122 3375 1075 2522 
Q 1259 2794 1537 2939 
Q 1816 3084 2150 3084 
Q 2853 3084 3261 2657 
Q 3669 2231 3669 1497 
Q 3669 778 3244 343 
Q 2819 -91 2113 -91 
Q 1303 -91 875 529 
Q 447 1150 447 2328 
Q 447 3434 972 4092 
Q 1497 4750 2381 4750 
Q 2619 4750 2861 4703 
Q 3103 4656 3366 4563 
z
" transform="scale(0.015625)"/>
       </defs>
       <use xlink:href="#DejaVuSans-30"/>
       <use xlink:href="#DejaVuSans-2e" x="63.623047"/>
       <use xlink:href="#DejaVuSans-36" x="95.410156"/>
      </g>
     </g>
    </g>
    <g id="ytick_5">
     <g id="line2d_12">
      <g>
       <use xlink:href="#mdcbb9f39d5" x="33.685" y="90.13" style="stroke: #000000; stroke-width: 0.8"/>
      </g>
     </g>
     <g id="text_6">
      <!-- 0.8 -->
      <g transform="translate(10.781875 93.929219) scale(0.1 -0.1)">
       <defs>
        <path id="DejaVuSans-38" d="M 2034 2216 
Q 1584 2216 1326 1975 
Q 1069 1734 1069 1313 
Q 1069 891 1326 650 
Q 1584 409 2034 409 
Q 2484 409 2743 651 
Q 3003 894 3003 1313 
Q 3003 1734 2745 1975 
Q 2488 2216 2034 2216 
z
M 1403 2484 
Q 997 2584 770 2862 
Q 544 3141 544 3541 
Q 544 4100 942 4425 
Q 1341 4750 2034 4750 
Q 2731 4750 3128 4425 
Q 3525 4100 3525 3541 
Q 3525 3141 3298 2862 
Q 3072 2584 2669 2484 
Q 3125 2378 3379 2068 
Q 3634 1759 3634 1313 
Q 3634 634 3220 271 
Q 2806 -91 2034 -91 
Q 1263 -91 848 271 
Q 434 634 434 1313 
Q 434 1759 690 2068 
Q 947 2378 1403 2484 
z
M 1172 3481 
Q 1172 3119 1398 2916 
Q 1625 2713 2034 2713 
Q 2441 2713 2670 2916 
Q 2900 3119 2900 3481 
Q 2900 3844 2670 4047 
Q 2441 4250 2034 4250 
Q 1625 4250 1398 4047 
Q 1172 3844 1172 3481 
z
" transform="scale(0.015625)"/>
       </defs>
       <use xlink:href="#DejaVuSans-30"/>
       <use xlink:href="#DejaVuSans-2e" x="63.623047"/>
       <use xlink:href="#DejaVuSans-38" x="95.410156"/>
      </g>
     </g>
    </g>
    <g id="ytick_6">
     <g id="line2d_13">
      <g>
       <use xlink:href="#mdcbb9f39d5" x="33.685" y="37.243333" style="stroke: #000000; stroke-width: 0.8"/>
      </g>
     </g>
     <g id="text_7">
      <!-- 1.0 -->
      <g transform="translate(10.781875 41.042552) scale(0.1 -0.1)">
       <defs>
        <path id="DejaVuSans-31" d="M 794 531 
L 1825 531 
L 1825 4091 
L 703 3866 
L 703 4441 
L 1819 4666 
L 2450 4666 
L 2450 531 
L 3481 531 
L 3481 0 
L 794 0 
L 794 531 
z
" transform="scale(0.015625)"/>
       </defs>
       <use xlink:href="#DejaVuSans-31"/>
       <use xlink:href="#DejaVuSans-2e" x="63.623047"/>
       <use xlink:href="#DejaVuSans-30" x="95.410156"/>
      </g>
     </g>
    </g>
   </g>
   <g id="line2d_14">
    <defs>
     <path id="mc0e86263f3" d="M 0 3 
C 0.795609 3 1.55874 2.683901 2.12132 2.12132 
C 2.683901 1.55874 3 0.795609 3 0 
C 3 -0.795609 2.683901 -1.55874 2.12132 -2.12132 
C 1.55874 -2.683901 0.795609 -3 0 -3 
C -0.795609 -3 -1.55874 -2.683901 -2.12132 -2.12132 
C -2.683901 -1.55874 -3 -0.795609 -3 0 
C -3 0.795609 -2.683901 1.55874 -2.12132 2.12132 
C -1.55874 2.683901 -0.795609 3 0 3 
z
" style="stroke: #0000ff"/>
    </defs>
    <g clip-path="url(#pe08cf868a9)">
     <use xlink:href="#mc0e86263f3" x="175.477941" y="301.676667" style="fill: #0000ff; stroke: #0000ff"/>
     <use xlink:href="#mc0e86263f3" x="158.844824" y="301.676667" style="fill: #0000ff; stroke: #0000ff"/>
     <use xlink:href="#mc0e86263f3" x="142.12639" y="301.676667" style="fill: #0000ff; stroke: #0000ff"/>
     <use xlink:href="#mc0e86263f3" x="158.987686" y="301.676667" style="fill: #0000ff; stroke: #0000ff"/>
     <use xlink:href="#mc0e86263f3" x="189.088611" y="301.676667" style="fill: #0000ff; stroke: #0000ff"/>
     <use xlink:href="#mc0e86263f3" x="200.090338" y="301.676667" style="fill: #0000ff; stroke: #0000ff"/>
     <use xlink:href="#mc0e86263f3" x="164.499194" y="301.676667" style="fill: #0000ff; stroke: #0000ff"/>
     <use xlink:href="#mc0e86263f3" x="182.244797" y="301.676667" style="fill: #0000ff; stroke: #0000ff"/>
     <use xlink:href="#mc0e86263f3" x="171.754269" y="301.676667" style="fill: #0000ff; stroke: #0000ff"/>
     <use xlink:href="#mc0e86263f3" x="188.909445" y="301.676667" style="fill: #0000ff; stroke: #0000ff"/>
     <use xlink:href="#mc0e86263f3" x="157.985427" y="301.676667" style="fill: #0000ff; stroke: #0000ff"/>
     <use xlink:href="#mc0e86263f3" x="168.660545" y="301.676667" style="fill: #0000ff; stroke: #0000ff"/>
     <use xlink:href="#mc0e86263f3" x="186.343338" y="301.676667" style="fill: #0000ff; stroke: #0000ff"/>
     <use xlink:href="#mc0e86263f3" x="202.035808" y="301.676667" style="fill: #0000ff; stroke: #0000ff"/>
     <use xlink:href="#mc0e86263f3" x="185.248064" y="301.676667" style="fill: #0000ff; stroke: #0000ff"/>
     <use xlink:href="#mc0e86263f3" x="162.608088" y="301.676667" style="fill: #0000ff; stroke: #0000ff"/>
     <use xlink:href="#mc0e86263f3" x="150.737963" y="301.676667" style="fill: #0000ff; stroke: #0000ff"/>
     <use xlink:href="#mc0e86263f3" x="143.938206" y="301.676667" style="fill: #0000ff; stroke: #0000ff"/>
     <use xlink:href="#mc0e86263f3" x="189.63975" y="301.676667" style="fill: #0000ff; stroke: #0000ff"/>
     <use xlink:href="#mc0e86263f3" x="177.88314" y="301.676667" style="fill: #0000ff; stroke: #0000ff"/>
     <use xlink:href="#mc0e86263f3" x="205.572766" y="301.676667" style="fill: #0000ff; stroke: #0000ff"/>
     <use xlink:href="#mc0e86263f3" x="160.958398" y="301.676667" style="fill: #0000ff; stroke: #0000ff"/>
     <use xlink:href="#mc0e86263f3" x="194.698893" y="301.676667" style="fill: #0000ff; stroke: #0000ff"/>
     <use xlink:href="#mc0e86263f3" x="181.263807" y="301.676667" style="fill: #0000ff; stroke: #0000ff"/>
     <use xlink:href="#mc0e86263f3" x="163.368488" y="301.676667" style="fill: #0000ff; stroke: #0000ff"/>
     <use xlink:href="#mc0e86263f3" x="212.679187" y="301.676667" style="fill: #0000ff; stroke: #0000ff"/>
     <use xlink:href="#mc0e86263f3" x="179.937253" y="301.676667" style="fill: #0000ff; stroke: #0000ff"/>
     <use xlink:href="#mc0e86263f3" x="210.518493" y="301.676667" style="fill: #0000ff; stroke: #0000ff"/>
     <use xlink:href="#mc0e86263f3" x="203.931747" y="301.676667" style="fill: #0000ff; stroke: #0000ff"/>
     <use xlink:href="#mc0e86263f3" x="194.775824" y="301.676667" style="fill: #0000ff; stroke: #0000ff"/>
     <use xlink:href="#mc0e86263f3" x="185.54733" y="301.676667" style="fill: #0000ff; stroke: #0000ff"/>
     <use xlink:href="#mc0e86263f3" x="170.973111" y="301.676667" style="fill: #0000ff; stroke: #0000ff"/>
     <use xlink:href="#mc0e86263f3" x="214.838524" y="301.676667" style="fill: #0000ff; stroke: #0000ff"/>
     <use xlink:href="#mc0e86263f3" x="206.286691" y="301.676667" style="fill: #0000ff; stroke: #0000ff"/>
     <use xlink:href="#mc0e86263f3" x="185.443585" y="301.676667" style="fill: #0000ff; stroke: #0000ff"/>
     <use xlink:href="#mc0e86263f3" x="170.71379" y="301.676667" style="fill: #0000ff; stroke: #0000ff"/>
     <use xlink:href="#mc0e86263f3" x="177.484494" y="301.676667" style="fill: #0000ff; stroke: #0000ff"/>
     <use xlink:href="#mc0e86263f3" x="172.150203" y="301.676667" style="fill: #0000ff; stroke: #0000ff"/>
     <use xlink:href="#mc0e86263f3" x="188.428205" y="301.676667" style="fill: #0000ff; stroke: #0000ff"/>
     <use xlink:href="#mc0e86263f3" x="153.175481" y="301.676667" style="fill: #0000ff; stroke: #0000ff"/>
     <use xlink:href="#mc0e86263f3" x="163.675831" y="301.676667" style="fill: #0000ff; stroke: #0000ff"/>
     <use xlink:href="#mc0e86263f3" x="182.000353" y="301.676667" style="fill: #0000ff; stroke: #0000ff"/>
     <use xlink:href="#mc0e86263f3" x="197.317716" y="301.676667" style="fill: #0000ff; stroke: #0000ff"/>
     <use xlink:href="#mc0e86263f3" x="175.811602" y="301.676667" style="fill: #0000ff; stroke: #0000ff"/>
     <use xlink:href="#mc0e86263f3" x="163.244373" y="301.676667" style="fill: #0000ff; stroke: #0000ff"/>
     <use xlink:href="#mc0e86263f3" x="154.790508" y="301.676667" style="fill: #0000ff; stroke: #0000ff"/>
     <use xlink:href="#mc0e86263f3" x="157.237836" y="301.676667" style="fill: #0000ff; stroke: #0000ff"/>
     <use xlink:href="#mc0e86263f3" x="180.910769" y="301.676667" style="fill: #0000ff; stroke: #0000ff"/>
     <use xlink:href="#mc0e86263f3" x="170.338895" y="301.676667" style="fill: #0000ff; stroke: #0000ff"/>
     <use xlink:href="#mc0e86263f3" x="190.181378" y="301.676667" style="fill: #0000ff; stroke: #0000ff"/>
     <use xlink:href="#mc0e86263f3" x="168.868684" y="301.676667" style="fill: #0000ff; stroke: #0000ff"/>
     <use xlink:href="#mc0e86263f3" x="186.240252" y="301.676667" style="fill: #0000ff; stroke: #0000ff"/>
     <use xlink:href="#mc0e86263f3" x="184.81468" y="301.676667" style="fill: #0000ff; stroke: #0000ff"/>
     <use xlink:href="#mc0e86263f3" x="180.439372" y="301.676667" style="fill: #0000ff; stroke: #0000ff"/>
     <use xlink:href="#mc0e86263f3" x="193.352868" y="301.676667" style="fill: #0000ff; stroke: #0000ff"/>
     <use xlink:href="#mc0e86263f3" x="182.247823" y="301.676667" style="fill: #0000ff; stroke: #0000ff"/>
     <use xlink:href="#mc0e86263f3" x="188.344229" y="301.676667" style="fill: #0000ff; stroke: #0000ff"/>
     <use xlink:href="#mc0e86263f3" x="179.263769" y="301.676667" style="fill: #0000ff; stroke: #0000ff"/>
     <use xlink:href="#mc0e86263f3" x="182.702811" y="301.676667" style="fill: #0000ff; stroke: #0000ff"/>
     <use xlink:href="#mc0e86263f3" x="188.923175" y="301.676667" style="fill: #0000ff; stroke: #0000ff"/>
     <use xlink:href="#mc0e86263f3" x="183.300628" y="301.676667" style="fill: #0000ff; stroke: #0000ff"/>
     <use xlink:href="#mc0e86263f3" x="172.270406" y="301.676667" style="fill: #0000ff; stroke: #0000ff"/>
     <use xlink:href="#mc0e86263f3" x="175.917671" y="301.676667" style="fill: #0000ff; stroke: #0000ff"/>
     <use xlink:href="#mc0e86263f3" x="201.370991" y="301.676667" style="fill: #0000ff; stroke: #0000ff"/>
    </g>
   </g>
   <g id="line2d_15">
    <defs>
     <path id="mf739e58feb" d="M 0 3 
C 0.795609 3 1.55874 2.683901 2.12132 2.12132 
C 2.683901 1.55874 3 0.795609 3 0 
C 3 -0.795609 2.683901 -1.55874 2.12132 -2.12132 
C 1.55874 -2.683901 0.795609 -3 0 -3 
C -0.795609 -3 -1.55874 -2.683901 -2.12132 -2.12132 
C -2.683901 -1.55874 -3 -0.795609 -3 0 
C -3 0.795609 -2.683901 1.55874 -2.12132 2.12132 
C -1.55874 2.683901 -0.795609 3 0 3 
z
" style="stroke: #ff0000"/>
    </defs>
    <g clip-path="url(#pe08cf868a9)">
     <use xlink:href="#mf739e58feb" x="323.628133" y="37.243333" style="fill: #ff0000; stroke: #ff0000"/>
     <use xlink:href="#mf739e58feb" x="343.930343" y="37.243333" style="fill: #ff0000; stroke: #ff0000"/>
     <use xlink:href="#mf739e58feb" x="315.78555" y="37.243333" style="fill: #ff0000; stroke: #ff0000"/>
     <use xlink:href="#mf739e58feb" x="222.195575" y="37.243333" style="fill: #ff0000; stroke: #ff0000"/>
     <use xlink:href="#mf739e58feb" x="300.501878" y="37.243333" style="fill: #ff0000; stroke: #ff0000"/>
     <use xlink:href="#mf739e58feb" x="285.820827" y="37.243333" style="fill: #ff0000; stroke: #ff0000"/>
     <use xlink:href="#mf739e58feb" x="334.789081" y="37.243333" style="fill: #ff0000; stroke: #ff0000"/>
     <use xlink:href="#mf739e58feb" x="317.899514" y="37.243333" style="fill: #ff0000; stroke: #ff0000"/>
     <use xlink:href="#mf739e58feb" x="335.323221" y="37.243333" style="fill: #ff0000; stroke: #ff0000"/>
     <use xlink:href="#mf739e58feb" x="296.65416" y="37.243333" style="fill: #ff0000; stroke: #ff0000"/>
     <use xlink:href="#mf739e58feb" x="342.271451" y="37.243333" style="fill: #ff0000; stroke: #ff0000"/>
     <use xlink:href="#mf739e58feb" x="331.952309" y="37.243333" style="fill: #ff0000; stroke: #ff0000"/>
     <use xlink:href="#mf739e58feb" x="302.479593" y="37.243333" style="fill: #ff0000; stroke: #ff0000"/>
     <use xlink:href="#mf739e58feb" x="279.313512" y="37.243333" style="fill: #ff0000; stroke: #ff0000"/>
     <use xlink:href="#mf739e58feb" x="299.998935" y="37.243333" style="fill: #ff0000; stroke: #ff0000"/>
     <use xlink:href="#mf739e58feb" x="249.931473" y="37.243333" style="fill: #ff0000; stroke: #ff0000"/>
     <use xlink:href="#mf739e58feb" x="294.127417" y="37.243333" style="fill: #ff0000; stroke: #ff0000"/>
     <use xlink:href="#mf739e58feb" x="297.724642" y="37.243333" style="fill: #ff0000; stroke: #ff0000"/>
     <use xlink:href="#mf739e58feb" x="249.905954" y="37.243333" style="fill: #ff0000; stroke: #ff0000"/>
     <use xlink:href="#mf739e58feb" x="297.658822" y="37.243333" style="fill: #ff0000; stroke: #ff0000"/>
     <use xlink:href="#mf739e58feb" x="261.148871" y="37.243333" style="fill: #ff0000; stroke: #ff0000"/>
     <use xlink:href="#mf739e58feb" x="271.293945" y="37.243333" style="fill: #ff0000; stroke: #ff0000"/>
     <use xlink:href="#mf739e58feb" x="256.196054" y="37.243333" style="fill: #ff0000; stroke: #ff0000"/>
     <use xlink:href="#mf739e58feb" x="248.675487" y="37.243333" style="fill: #ff0000; stroke: #ff0000"/>
     <use xlink:href="#mf739e58feb" x="253.840477" y="37.243333" style="fill: #ff0000; stroke: #ff0000"/>
     <use xlink:href="#mf739e58feb" x="249.517177" y="37.243333" style="fill: #ff0000; stroke: #ff0000"/>
     <use xlink:href="#mf739e58feb" x="242.605249" y="37.243333" style="fill: #ff0000; stroke: #ff0000"/>
     <use xlink:href="#mf739e58feb" x="232.809328" y="37.243333" style="fill: #ff0000; stroke: #ff0000"/>
     <use xlink:href="#mf739e58feb" x="226.782652" y="37.243333" style="fill: #ff0000; stroke: #ff0000"/>
     <use xlink:href="#mf739e58feb" x="225.646404" y="37.243333" style="fill: #ff0000; stroke: #ff0000"/>
     <use xlink:href="#mf739e58feb" x="235.00555" y="37.243333" style="fill: #ff0000; stroke: #ff0000"/>
     <use xlink:href="#mf739e58feb" x="229.033828" y="37.243333" style="fill: #ff0000; stroke: #ff0000"/>
     <use xlink:href="#mf739e58feb" x="227.264672" y="37.243333" style="fill: #ff0000; stroke: #ff0000"/>
     <use xlink:href="#mf739e58feb" x="317.643393" y="37.243333" style="fill: #ff0000; stroke: #ff0000"/>
     <use xlink:href="#mf739e58feb" x="330.740992" y="37.243333" style="fill: #ff0000; stroke: #ff0000"/>
     <use xlink:href="#mf739e58feb" x="333.642297" y="37.243333" style="fill: #ff0000; stroke: #ff0000"/>
     <use xlink:href="#mf739e58feb" x="301.018769" y="37.243333" style="fill: #ff0000; stroke: #ff0000"/>
     <use xlink:href="#mf739e58feb" x="354.235018" y="37.243333" style="fill: #ff0000; stroke: #ff0000"/>
     <use xlink:href="#mf739e58feb" x="354.637323" y="37.243333" style="fill: #ff0000; stroke: #ff0000"/>
     <use xlink:href="#mf739e58feb" x="320.85377" y="37.243333" style="fill: #ff0000; stroke: #ff0000"/>
     <use xlink:href="#mf739e58feb" x="277.318363" y="37.243333" style="fill: #ff0000; stroke: #ff0000"/>
     <use xlink:href="#mf739e58feb" x="333.098138" y="37.243333" style="fill: #ff0000; stroke: #ff0000"/>
     <use xlink:href="#mf739e58feb" x="332.927027" y="37.243333" style="fill: #ff0000; stroke: #ff0000"/>
     <use xlink:href="#mf739e58feb" x="308.942845" y="37.243333" style="fill: #ff0000; stroke: #ff0000"/>
     <use xlink:href="#mf739e58feb" x="241.420592" y="37.243333" style="fill: #ff0000; stroke: #ff0000"/>
     <use xlink:href="#mf739e58feb" x="300.437334" y="37.243333" style="fill: #ff0000; stroke: #ff0000"/>
     <use xlink:href="#mf739e58feb" x="319.762317" y="37.243333" style="fill: #ff0000; stroke: #ff0000"/>
     <use xlink:href="#mf739e58feb" x="236.798483" y="37.243333" style="fill: #ff0000; stroke: #ff0000"/>
     <use xlink:href="#mf739e58feb" x="315.544461" y="37.243333" style="fill: #ff0000; stroke: #ff0000"/>
     <use xlink:href="#mf739e58feb" x="258.180483" y="37.243333" style="fill: #ff0000; stroke: #ff0000"/>
     <use xlink:href="#mf739e58feb" x="272.296683" y="37.243333" style="fill: #ff0000; stroke: #ff0000"/>
     <use xlink:href="#mf739e58feb" x="260.449428" y="37.243333" style="fill: #ff0000; stroke: #ff0000"/>
     <use xlink:href="#mf739e58feb" x="220.725422" y="37.243333" style="fill: #ff0000; stroke: #ff0000"/>
     <use xlink:href="#mf739e58feb" x="253.359645" y="37.243333" style="fill: #ff0000; stroke: #ff0000"/>
     <use xlink:href="#mf739e58feb" x="225.3942" y="37.243333" style="fill: #ff0000; stroke: #ff0000"/>
     <use xlink:href="#mf739e58feb" x="221.890451" y="37.243333" style="fill: #ff0000; stroke: #ff0000"/>
     <use xlink:href="#mf739e58feb" x="220.277032" y="37.243333" style="fill: #ff0000; stroke: #ff0000"/>
     <use xlink:href="#mf739e58feb" x="218.690437" y="37.243333" style="fill: #ff0000; stroke: #ff0000"/>
     <use xlink:href="#mf739e58feb" x="220.827227" y="37.243333" style="fill: #ff0000; stroke: #ff0000"/>
     <use xlink:href="#mf739e58feb" x="199.600863" y="37.243333" style="fill: #ff0000; stroke: #ff0000"/>
     <use xlink:href="#mf739e58feb" x="210.179112" y="37.243333" style="fill: #ff0000; stroke: #ff0000"/>
     <use xlink:href="#mf739e58feb" x="221.734095" y="37.243333" style="fill: #ff0000; stroke: #ff0000"/>
    </g>
   </g>
   <g id="line2d_16">
    <path d="M 125.84455 361 
L 126.026729 360.660307 
L 129.585177 354.025162 
L 133.143625 347.390017 
L 136.702073 340.754872 
L 140.260521 334.119727 
L 143.818969 327.484583 
L 147.377417 320.849438 
L 150.935865 314.214293 
L 154.494314 307.579148 
L 158.052762 300.944003 
L 161.61121 294.308858 
L 165.169658 287.673713 
L 168.728106 281.038568 
L 172.286554 274.403423 
L 175.845002 267.768278 
L 179.40345 261.133133 
L 182.961899 254.497989 
L 186.520347 247.862844 
L 190.078795 241.227699 
L 193.637243 234.592554 
L 197.195691 227.957409 
L 200.754139 221.322264 
L 204.312587 214.687119 
L 207.871035 208.051974 
L 211.429483 201.416829 
L 214.987932 194.781684 
L 218.54638 188.14654 
L 222.104828 181.511395 
L 225.663276 174.87625 
L 229.221724 168.241105 
L 232.780172 161.60596 
L 236.33862 154.970815 
L 239.897068 148.33567 
L 243.455517 141.700525 
L 247.013965 135.06538 
L 250.572413 128.430235 
L 254.130861 121.79509 
L 257.689309 115.159946 
L 261.247757 108.524801 
L 264.806205 101.889656 
L 268.364653 95.254511 
L 271.923101 88.619366 
L 275.48155 81.984221 
L 279.039998 75.349076 
L 282.598446 68.713931 
L 286.156894 62.078786 
L 289.715342 55.443641 
L 293.27379 48.808497 
L 296.832238 42.173352 
L 300.390686 35.538207 
L 303.949135 28.903062 
L 307.507583 22.267917 
L 311.066031 15.632772 
L 314.624479 8.997627 
L 318.182927 2.362482 
L 319.986236 -1 
" clip-path="url(#pe08cf868a9)" style="fill: none; stroke-dasharray: 5.55,2.4; stroke-dashoffset: 0; stroke: #808080; stroke-width: 1.5"/>
   </g>
   <g id="line2d_17">
    <path d="M 218.636399 361 
L 222.104828 330.8667 
L 225.663276 299.951325 
L 229.221724 269.03595 
L 232.780172 238.120575 
L 236.33862 207.2052 
L 239.897068 176.289825 
L 243.455517 145.37445 
L 247.013965 114.459075 
L 250.572413 83.543701 
L 254.130861 52.628326 
L 257.689309 21.712951 
L 260.303635 -1 
" clip-path="url(#pe08cf868a9)" style="fill: none; stroke: #008000; stroke-width: 1.5; stroke-linecap: square"/>
   </g>
   <g id="line2d_18">
    <path d="M 51.299318 300.81409 
L 54.857766 300.707505 
L 58.416214 300.587804 
L 61.974663 300.453388 
L 65.533111 300.302465 
L 69.091559 300.133031 
L 72.650007 299.942844 
L 76.208455 299.729399 
L 79.766903 299.489895 
L 83.325351 299.221209 
L 86.883799 298.919858 
L 90.442247 298.581959 
L 94.000696 298.203194 
L 97.559144 297.778762 
L 101.117592 297.303338 
L 104.67604 296.771019 
L 108.234488 296.175277 
L 111.792936 295.508907 
L 115.351384 294.763976 
L 118.909832 293.931771 
L 122.468281 293.002754 
L 126.026729 291.966515 
L 129.585177 290.811739 
L 133.143625 289.526183 
L 136.702073 288.096664 
L 140.260521 286.509072 
L 143.818969 284.748405 
L 147.377417 282.798836 
L 150.935865 280.643822 
L 154.494314 278.266255 
L 158.052762 275.648665 
L 161.61121 272.773493 
L 165.169658 269.623418 
L 168.728106 266.181764 
L 172.286554 262.432975 
L 175.845002 258.363166 
L 179.40345 253.960725 
L 182.961899 249.216975 
L 186.520347 244.126853 
L 190.078795 238.689599 
L 193.637243 232.909392 
L 197.195691 226.795919 
L 200.754139 220.364808 
L 204.312587 213.637899 
L 207.871035 206.643285 
L 211.429483 199.415121 
L 214.987932 191.993155 
L 218.54638 184.42199 
L 222.104828 176.750107 
L 225.663276 169.028666 
L 229.221724 161.310166 
L 232.780172 153.647027 
L 236.33862 146.090173 
L 239.897068 138.687708 
L 243.455517 131.483739 
L 247.013965 124.517421 
L 250.572413 117.822249 
L 254.130861 111.425625 
L 257.689309 105.348687 
L 261.247757 99.606385 
L 264.806205 94.207765 
L 268.364653 89.156427 
L 271.923101 84.451096 
L 275.48155 80.086272 
L 279.039998 76.052917 
L 282.598446 72.339135 
L 286.156894 68.930822 
L 289.715342 65.812273 
L 293.27379 62.966718 
L 296.832238 60.376791 
L 300.390686 58.024926 
L 303.949135 55.893682 
L 307.507583 53.966007 
L 311.066031 52.225428 
L 314.624479 50.656207 
L 318.182927 49.24344 
L 321.741375 47.973117 
L 325.299823 46.832162 
L 328.858271 45.808435 
L 332.416719 44.890723 
L 335.975168 44.068717 
L 339.533616 43.332972 
L 343.092064 42.674865 
L 346.650512 42.086546 
L 350.20896 41.560889 
L 353.767408 41.091438 
L 357.325856 40.672358 
L 360.884304 40.298383 
L 364.442753 39.964769 
L 368.001201 39.667249 
L 371.559649 39.401986 
L 375.118097 39.165539 
L 378.676545 38.954823 
L 382.234993 38.767072 
L 385.793441 38.59981 
L 389.351889 38.450825 
L 392.910337 38.318136 
L 396.468786 38.199976 
L 400.027234 38.094763 
L 403.585682 38.001089 
" clip-path="url(#pe08cf868a9)" style="fill: none; stroke: #bf00bf; stroke-width: 1.5; stroke-linecap: square"/>
   </g>
   <g id="patch_3">
    <path d="M 33.685 328.12 
L 33.685 10.8 
" style="fill: none; stroke: #000000; stroke-width: 0.8; stroke-linejoin: miter; stroke-linecap: square"/>
   </g>
   <g id="patch_4">
    <path d="M 421.2 328.12 
L 421.2 10.8 
" style="fill: none; stroke: #000000; stroke-width: 0.8; stroke-linejoin: miter; stroke-linecap: square"/>
   </g>
   <g id="patch_5">
    <path d="M 33.685 328.12 
L 421.2 328.12 
" style="fill: none; stroke: #000000; stroke-width: 0.8; stroke-linejoin: miter; stroke-linecap: square"/>
   </g>
   <g id="patch_6">
    <path d="M 33.685 10.8 
L 421.2 10.8 
" style="fill: none; stroke: #000000; stroke-width: 0.8; stroke-linejoin: miter; stroke-linecap: square"/>
   </g>
   <g id="legend_1">
    <g id="patch_7">
     <path d="M 40.685 92.190625 
L 159.0225 92.190625 
Q 161.0225 92.190625 161.0225 90.190625 
L 161.0225 17.8 
Q 161.0225 15.8 159.0225 15.8 
L 40.685 15.8 
Q 38.685 15.8 38.685 17.8 
L 38.685 90.190625 
Q 38.685 92.190625 40.685 92.190625 
z
" style="fill: #ffffff; opacity: 0.8; stroke: #cccccc; stroke-linejoin: miter"/>
    </g>
    <g id="line2d_19">
     <g>
      <use xlink:href="#mc0e86263f3" x="52.685" y="23.898438" style="fill: #0000ff; stroke: #0000ff"/>
     </g>
    </g>
    <g id="text_8">
     <!-- Data -->
     <g transform="translate(70.685 27.398438) scale(0.1 -0.1)">
      <defs>
       <path id="DejaVuSans-44" d="M 1259 4147 
L 1259 519 
L 2022 519 
Q 2988 519 3436 956 
Q 3884 1394 3884 2338 
Q 3884 3275 3436 3711 
Q 2988 4147 2022 4147 
L 1259 4147 
z
M 628 4666 
L 1925 4666 
Q 3281 4666 3915 4102 
Q 4550 3538 4550 2338 
Q 4550 1131 3912 565 
Q 3275 0 1925 0 
L 628 0 
L 628 4666 
z
" transform="scale(0.015625)"/>
       <path id="DejaVuSans-61" d="M 2194 1759 
Q 1497 1759 1228 1600 
Q 959 1441 959 1056 
Q 959 750 1161 570 
Q 1363 391 1709 391 
Q 2188 391 2477 730 
Q 2766 1069 2766 1631 
L 2766 1759 
L 2194 1759 
z
M 3341 1997 
L 3341 0 
L 2766 0 
L 2766 531 
Q 2569 213 2275 61 
Q 1981 -91 1556 -91 
Q 1019 -91 701 211 
Q 384 513 384 1019 
Q 384 1609 779 1909 
Q 1175 2209 1959 2209 
L 2766 2209 
L 2766 2266 
Q 2766 2663 2505 2880 
Q 2244 3097 1772 3097 
Q 1472 3097 1187 3025 
Q 903 2953 641 2809 
L 641 3341 
Q 956 3463 1253 3523 
Q 1550 3584 1831 3584 
Q 2591 3584 2966 3190 
Q 3341 2797 3341 1997 
z
" transform="scale(0.015625)"/>
       <path id="DejaVuSans-74" d="M 1172 4494 
L 1172 3500 
L 2356 3500 
L 2356 3053 
L 1172 3053 
L 1172 1153 
Q 1172 725 1289 603 
Q 1406 481 1766 481 
L 2356 481 
L 2356 0 
L 1766 0 
Q 1100 0 847 248 
Q 594 497 594 1153 
L 594 3053 
L 172 3053 
L 172 3500 
L 594 3500 
L 594 4494 
L 1172 4494 
z
" transform="scale(0.015625)"/>
      </defs>
      <use xlink:href="#DejaVuSans-44"/>
      <use xlink:href="#DejaVuSans-61" x="77.001953"/>
      <use xlink:href="#DejaVuSans-74" x="138.28125"/>
      <use xlink:href="#DejaVuSans-61" x="177.490234"/>
     </g>
    </g>
    <g id="line2d_20">
     <g>
      <use xlink:href="#mf739e58feb" x="52.685" y="38.576563" style="fill: #ff0000; stroke: #ff0000"/>
     </g>
    </g>
    <g id="text_9">
     <!-- Data -->
     <g transform="translate(70.685 42.076563) scale(0.1 -0.1)">
      <use xlink:href="#DejaVuSans-44"/>
      <use xlink:href="#DejaVuSans-61" x="77.001953"/>
      <use xlink:href="#DejaVuSans-74" x="138.28125"/>
      <use xlink:href="#DejaVuSans-61" x="177.490234"/>
     </g>
    </g>
    <g id="line2d_21">
     <path d="M 42.685 53.254687 
L 52.685 53.254687 
L 62.685 53.254687 
" style="fill: none; stroke-dasharray: 5.55,2.4; stroke-dashoffset: 0; stroke: #808080; stroke-width: 1.5"/>
    </g>
    <g id="text_10">
     <!-- Linear regression -->
     <g transform="translate(70.685 56.754687) scale(0.1 -0.1)">
      <defs>
       <path id="DejaVuSans-4c" d="M 628 4666 
L 1259 4666 
L 1259 531 
L 3531 531 
L 3531 0 
L 628 0 
L 628 4666 
z
" transform="scale(0.015625)"/>
       <path id="DejaVuSans-69" d="M 603 3500 
L 1178 3500 
L 1178 0 
L 603 0 
L 603 3500 
z
M 603 4863 
L 1178 4863 
L 1178 4134 
L 603 4134 
L 603 4863 
z
" transform="scale(0.015625)"/>
       <path id="DejaVuSans-6e" d="M 3513 2113 
L 3513 0 
L 2938 0 
L 2938 2094 
Q 2938 2591 2744 2837 
Q 2550 3084 2163 3084 
Q 1697 3084 1428 2787 
Q 1159 2491 1159 1978 
L 1159 0 
L 581 0 
L 581 3500 
L 1159 3500 
L 1159 2956 
Q 1366 3272 1645 3428 
Q 1925 3584 2291 3584 
Q 2894 3584 3203 3211 
Q 3513 2838 3513 2113 
z
" transform="scale(0.015625)"/>
       <path id="DejaVuSans-65" d="M 3597 1894 
L 3597 1613 
L 953 1613 
Q 991 1019 1311 708 
Q 1631 397 2203 397 
Q 2534 397 2845 478 
Q 3156 559 3463 722 
L 3463 178 
Q 3153 47 2828 -22 
Q 2503 -91 2169 -91 
Q 1331 -91 842 396 
Q 353 884 353 1716 
Q 353 2575 817 3079 
Q 1281 3584 2069 3584 
Q 2775 3584 3186 3129 
Q 3597 2675 3597 1894 
z
M 3022 2063 
Q 3016 2534 2758 2815 
Q 2500 3097 2075 3097 
Q 1594 3097 1305 2825 
Q 1016 2553 972 2059 
L 3022 2063 
z
" transform="scale(0.015625)"/>
       <path id="DejaVuSans-72" d="M 2631 2963 
Q 2534 3019 2420 3045 
Q 2306 3072 2169 3072 
Q 1681 3072 1420 2755 
Q 1159 2438 1159 1844 
L 1159 0 
L 581 0 
L 581 3500 
L 1159 3500 
L 1159 2956 
Q 1341 3275 1631 3429 
Q 1922 3584 2338 3584 
Q 2397 3584 2469 3576 
Q 2541 3569 2628 3553 
L 2631 2963 
z
" transform="scale(0.015625)"/>
       <path id="DejaVuSans-20" transform="scale(0.015625)"/>
       <path id="DejaVuSans-67" d="M 2906 1791 
Q 2906 2416 2648 2759 
Q 2391 3103 1925 3103 
Q 1463 3103 1205 2759 
Q 947 2416 947 1791 
Q 947 1169 1205 825 
Q 1463 481 1925 481 
Q 2391 481 2648 825 
Q 2906 1169 2906 1791 
z
M 3481 434 
Q 3481 -459 3084 -895 
Q 2688 -1331 1869 -1331 
Q 1566 -1331 1297 -1286 
Q 1028 -1241 775 -1147 
L 775 -588 
Q 1028 -725 1275 -790 
Q 1522 -856 1778 -856 
Q 2344 -856 2625 -561 
Q 2906 -266 2906 331 
L 2906 616 
Q 2728 306 2450 153 
Q 2172 0 1784 0 
Q 1141 0 747 490 
Q 353 981 353 1791 
Q 353 2603 747 3093 
Q 1141 3584 1784 3584 
Q 2172 3584 2450 3431 
Q 2728 3278 2906 2969 
L 2906 3500 
L 3481 3500 
L 3481 434 
z
" transform="scale(0.015625)"/>
       <path id="DejaVuSans-73" d="M 2834 3397 
L 2834 2853 
Q 2591 2978 2328 3040 
Q 2066 3103 1784 3103 
Q 1356 3103 1142 2972 
Q 928 2841 928 2578 
Q 928 2378 1081 2264 
Q 1234 2150 1697 2047 
L 1894 2003 
Q 2506 1872 2764 1633 
Q 3022 1394 3022 966 
Q 3022 478 2636 193 
Q 2250 -91 1575 -91 
Q 1294 -91 989 -36 
Q 684 19 347 128 
L 347 722 
Q 666 556 975 473 
Q 1284 391 1588 391 
Q 1994 391 2212 530 
Q 2431 669 2431 922 
Q 2431 1156 2273 1281 
Q 2116 1406 1581 1522 
L 1381 1569 
Q 847 1681 609 1914 
Q 372 2147 372 2553 
Q 372 3047 722 3315 
Q 1072 3584 1716 3584 
Q 2034 3584 2315 3537 
Q 2597 3491 2834 3397 
z
" transform="scale(0.015625)"/>
       <path id="DejaVuSans-6f" d="M 1959 3097 
Q 1497 3097 1228 2736 
Q 959 2375 959 1747 
Q 959 1119 1226 758 
Q 1494 397 1959 397 
Q 2419 397 2687 759 
Q 2956 1122 2956 1747 
Q 2956 2369 2687 2733 
Q 2419 3097 1959 3097 
z
M 1959 3584 
Q 2709 3584 3137 3096 
Q 3566 2609 3566 1747 
Q 3566 888 3137 398 
Q 2709 -91 1959 -91 
Q 1206 -91 779 398 
Q 353 888 353 1747 
Q 353 2609 779 3096 
Q 1206 3584 1959 3584 
z
" transform="scale(0.015625)"/>
      </defs>
      <use xlink:href="#DejaVuSans-4c"/>
      <use xlink:href="#DejaVuSans-69" x="55.712891"/>
      <use xlink:href="#DejaVuSans-6e" x="83.496094"/>
      <use xlink:href="#DejaVuSans-65" x="146.875"/>
      <use xlink:href="#DejaVuSans-61" x="208.398438"/>
      <use xlink:href="#DejaVuSans-72" x="269.677734"/>
      <use xlink:href="#DejaVuSans-20" x="310.791016"/>
      <use xlink:href="#DejaVuSans-72" x="342.578125"/>
      <use xlink:href="#DejaVuSans-65" x="381.441406"/>
      <use xlink:href="#DejaVuSans-67" x="442.964844"/>
      <use xlink:href="#DejaVuSans-72" x="506.441406"/>
      <use xlink:href="#DejaVuSans-65" x="545.304688"/>
      <use xlink:href="#DejaVuSans-73" x="606.828125"/>
      <use xlink:href="#DejaVuSans-73" x="658.927734"/>
      <use xlink:href="#DejaVuSans-69" x="711.027344"/>
      <use xlink:href="#DejaVuSans-6f" x="738.810547"/>
      <use xlink:href="#DejaVuSans-6e" x="799.992188"/>
     </g>
    </g>
    <g id="line2d_22">
     <path d="M 42.685 67.932813 
L 52.685 67.932813 
L 62.685 67.932813 
" style="fill: none; stroke: #008000; stroke-width: 1.5; stroke-linecap: square"/>
    </g>
    <g id="text_11">
     <!-- $w x + b$ -->
     <g transform="translate(70.685 71.432813) scale(0.1 -0.1)">
      <defs>
       <path id="DejaVuSans-Oblique-77" d="M 544 3500 
L 1113 3500 
L 1259 684 
L 2566 3500 
L 3231 3500 
L 3425 684 
L 4666 3500 
L 5241 3500 
L 3641 0 
L 2969 0 
L 2797 2900 
L 1459 0 
L 781 0 
L 544 3500 
z
" transform="scale(0.015625)"/>
       <path id="DejaVuSans-Oblique-78" d="M 3841 3500 
L 2234 1784 
L 3219 0 
L 2559 0 
L 1819 1388 
L 531 0 
L -166 0 
L 1556 1844 
L 641 3500 
L 1300 3500 
L 1972 2234 
L 3144 3500 
L 3841 3500 
z
" transform="scale(0.015625)"/>
       <path id="DejaVuSans-2b" d="M 2944 4013 
L 2944 2272 
L 4684 2272 
L 4684 1741 
L 2944 1741 
L 2944 0 
L 2419 0 
L 2419 1741 
L 678 1741 
L 678 2272 
L 2419 2272 
L 2419 4013 
L 2944 4013 
z
" transform="scale(0.015625)"/>
       <path id="DejaVuSans-Oblique-62" d="M 3169 2138 
Q 3169 2591 2961 2847 
Q 2753 3103 2388 3103 
Q 2122 3103 1889 2973 
Q 1656 2844 1484 2597 
Q 1303 2338 1198 1995 
Q 1094 1653 1094 1313 
Q 1094 881 1298 636 
Q 1503 391 1863 391 
Q 2134 391 2365 517 
Q 2597 644 2772 891 
Q 2950 1147 3059 1487 
Q 3169 1828 3169 2138 
z
M 1381 2969 
Q 1594 3256 1914 3420 
Q 2234 3584 2584 3584 
Q 3122 3584 3439 3221 
Q 3756 2859 3756 2241 
Q 3756 1734 3570 1259 
Q 3384 784 3041 416 
Q 2816 172 2522 40 
Q 2228 -91 1906 -91 
Q 1566 -91 1316 65 
Q 1066 222 909 531 
L 806 0 
L 231 0 
L 1178 4863 
L 1753 4863 
L 1381 2969 
z
" transform="scale(0.015625)"/>
      </defs>
      <use xlink:href="#DejaVuSans-Oblique-77" transform="translate(0 0.015625)"/>
      <use xlink:href="#DejaVuSans-Oblique-78" transform="translate(81.787109 0.015625)"/>
      <use xlink:href="#DejaVuSans-2b" transform="translate(160.449219 0.015625)"/>
      <use xlink:href="#DejaVuSans-Oblique-62" transform="translate(263.720703 0.015625)"/>
     </g>
    </g>
    <g id="line2d_23">
     <path d="M 42.685 82.610937 
L 52.685 82.610937 
L 62.685 82.610937 
" style="fill: none; stroke: #bf00bf; stroke-width: 1.5; stroke-linecap: square"/>
    </g>
    <g id="text_12">
     <!-- $\sigma(w x + b)$ -->
     <g transform="translate(70.685 86.110937) scale(0.1 -0.1)">
      <defs>
       <path id="DejaVuSans-Oblique-3c3" d="M 2219 3044 
Q 1744 3044 1422 2700 
Q 1081 2341 969 1747 
Q 844 1119 1044 756 
Q 1241 397 1706 397 
Q 2166 397 2503 759 
Q 2844 1122 2966 1747 
Q 3075 2319 2881 2700 
Q 2700 3044 2219 3044 
z
M 2309 3503 
L 4219 3500 
L 4106 2925 
L 3463 2925 
Q 3706 2438 3575 1747 
Q 3406 888 2884 400 
Q 2359 -91 1609 -91 
Q 856 -91 525 400 
Q 194 888 363 1747 
Q 528 2609 1050 3097 
Q 1484 3503 2309 3503 
z
" transform="scale(0.015625)"/>
       <path id="DejaVuSans-28" d="M 1984 4856 
Q 1566 4138 1362 3434 
Q 1159 2731 1159 2009 
Q 1159 1288 1364 580 
Q 1569 -128 1984 -844 
L 1484 -844 
Q 1016 -109 783 600 
Q 550 1309 550 2009 
Q 550 2706 781 3412 
Q 1013 4119 1484 4856 
L 1984 4856 
z
" transform="scale(0.015625)"/>
       <path id="DejaVuSans-29" d="M 513 4856 
L 1013 4856 
Q 1481 4119 1714 3412 
Q 1947 2706 1947 2009 
Q 1947 1309 1714 600 
Q 1481 -109 1013 -844 
L 513 -844 
Q 928 -128 1133 580 
Q 1338 1288 1338 2009 
Q 1338 2731 1133 3434 
Q 928 4138 513 4856 
z
" transform="scale(0.015625)"/>
      </defs>
      <use xlink:href="#DejaVuSans-Oblique-3c3" transform="translate(0 0.015625)"/>
      <use xlink:href="#DejaVuSans-28" transform="translate(63.378906 0.015625)"/>
      <use xlink:href="#DejaVuSans-Oblique-77" transform="translate(102.392578 0.015625)"/>
      <use xlink:href="#DejaVuSans-Oblique-78" transform="translate(184.179688 0.015625)"/>
      <use xlink:href="#DejaVuSans-2b" transform="translate(262.841797 0.015625)"/>
      <use xlink:href="#DejaVuSans-Oblique-62" transform="translate(366.113281 0.015625)"/>
      <use xlink:href="#DejaVuSans-29" transform="translate(429.589844 0.015625)"/>
     </g>
    </g>
   </g>
  </g>
 </g>
 <defs>
  <clipPath id="pe08cf868a9">
   <rect x="33.685" y="10.8" width="387.515" height="317.32"/>
  </clipPath>
 </defs>
</svg>
