<?xml version="1.0" encoding="utf-8" standalone="no"?>
<!DOCTYPE svg PUBLIC "-//W3C//DTD SVG 1.1//EN"
  "http://www.w3.org/Graphics/SVG/1.1/DTD/svg11.dtd">
<svg xmlns:xlink="http://www.w3.org/1999/xlink" width="864pt" height="432pt" viewBox="0 0 864 432" xmlns="http://www.w3.org/2000/svg" version="1.1">
 <metadata>
  <rdf:RDF xmlns:dc="http://purl.org/dc/elements/1.1/" xmlns:cc="http://creativecommons.org/ns#" xmlns:rdf="http://www.w3.org/1999/02/22-rdf-syntax-ns#">
   <cc:Work>
    <dc:type rdf:resource="http://purl.org/dc/dcmitype/StillImage"/>
    <dc:date>2024-07-07T20:02:01.444251</dc:date>
    <dc:format>image/svg+xml</dc:format>
    <dc:creator>
     <cc:Agent>
      <dc:title>Matplotlib v3.7.2, https://matplotlib.org/</dc:title>
     </cc:Agent>
    </dc:creator>
   </cc:Work>
  </rdf:RDF>
 </metadata>
 <defs>
  <style type="text/css">*{stroke-linejoin: round; stroke-linecap: butt}</style>
 </defs>
 <g id="figure_1">
  <g id="patch_1">
   <path d="M 0 432 
L 864 432 
L 864 0 
L 0 0 
z
" style="fill: #ffffff"/>
  </g>
  <g id="axes_1">
   <g id="patch_2">
    <path d="M 32.515 390.04 
L 418.98625 390.04 
L 418.98625 14.76 
L 32.515 14.76 
z
" style="fill: #ffffff"/>
   </g>
   <g id="PathCollection_1">
    <defs>
     <path id="mc19ab83dd7" d="M 0 3 
C 0.795609 3 1.55874 2.683901 2.12132 2.12132 
C 2.683901 1.55874 3 0.795609 3 0 
C 3 -0.795609 2.683901 -1.55874 2.12132 -2.12132 
C 1.55874 -2.683901 0.795609 -3 0 -3 
C -0.795609 -3 -1.55874 -2.683901 -2.12132 -2.12132 
C -2.683901 -1.55874 -3 -0.795609 -3 0 
C -3 0.795609 -2.683901 1.55874 -2.12132 2.12132 
C -1.55874 2.683901 -0.795609 3 0 3 
z
" style="stroke: #0000ff"/>
    </defs>
    <g clip-path="url(#p34c3d3b8a4)">
     <use xlink:href="#mc19ab83dd7" x="204.624843" y="208.896741" style="fill: #0000ff; stroke: #0000ff"/>
     <use xlink:href="#mc19ab83dd7" x="215.528354" y="247.05705" style="fill: #0000ff; stroke: #0000ff"/>
     <use xlink:href="#mc19ab83dd7" x="192.320985" y="226.856965" style="fill: #0000ff; stroke: #0000ff"/>
     <use xlink:href="#mc19ab83dd7" x="208.770826" y="207.177117" style="fill: #0000ff; stroke: #0000ff"/>
     <use xlink:href="#mc19ab83dd7" x="177.662768" y="178.108227" style="fill: #0000ff; stroke: #0000ff"/>
     <use xlink:href="#mc19ab83dd7" x="189.773232" y="247.964949" style="fill: #0000ff; stroke: #0000ff"/>
     <use xlink:href="#mc19ab83dd7" x="179.113634" y="183.670784" style="fill: #0000ff; stroke: #0000ff"/>
     <use xlink:href="#mc19ab83dd7" x="252.23351" y="223.195979" style="fill: #0000ff; stroke: #0000ff"/>
     <use xlink:href="#mc19ab83dd7" x="248.445936" y="207.520891" style="fill: #0000ff; stroke: #0000ff"/>
     <use xlink:href="#mc19ab83dd7" x="189.339136" y="170.607815" style="fill: #0000ff; stroke: #0000ff"/>
     <use xlink:href="#mc19ab83dd7" x="233.878927" y="231.813646" style="fill: #0000ff; stroke: #0000ff"/>
     <use xlink:href="#mc19ab83dd7" x="175.593328" y="211.340923" style="fill: #0000ff; stroke: #0000ff"/>
     <use xlink:href="#mc19ab83dd7" x="190.491188" y="218.000487" style="fill: #0000ff; stroke: #0000ff"/>
     <use xlink:href="#mc19ab83dd7" x="268.624228" y="223.416395" style="fill: #0000ff; stroke: #0000ff"/>
     <use xlink:href="#mc19ab83dd7" x="262.315201" y="185.409074" style="fill: #0000ff; stroke: #0000ff"/>
     <use xlink:href="#mc19ab83dd7" x="263.973543" y="179.773984" style="fill: #0000ff; stroke: #0000ff"/>
     <use xlink:href="#mc19ab83dd7" x="261.816131" y="197.926969" style="fill: #0000ff; stroke: #0000ff"/>
     <use xlink:href="#mc19ab83dd7" x="254.425955" y="251.132116" style="fill: #0000ff; stroke: #0000ff"/>
     <use xlink:href="#mc19ab83dd7" x="232.396887" y="238.498484" style="fill: #0000ff; stroke: #0000ff"/>
     <use xlink:href="#mc19ab83dd7" x="253.878622" y="231.481453" style="fill: #0000ff; stroke: #0000ff"/>
     <use xlink:href="#mc19ab83dd7" x="284.194136" y="210.070429" style="fill: #0000ff; stroke: #0000ff"/>
     <use xlink:href="#mc19ab83dd7" x="231.816481" y="220.859693" style="fill: #0000ff; stroke: #0000ff"/>
     <use xlink:href="#mc19ab83dd7" x="205.471698" y="197.538675" style="fill: #0000ff; stroke: #0000ff"/>
     <use xlink:href="#mc19ab83dd7" x="234.890075" y="248.097297" style="fill: #0000ff; stroke: #0000ff"/>
     <use xlink:href="#mc19ab83dd7" x="241.997105" y="187.903977" style="fill: #0000ff; stroke: #0000ff"/>
     <use xlink:href="#mc19ab83dd7" x="187.670253" y="247.053176" style="fill: #0000ff; stroke: #0000ff"/>
     <use xlink:href="#mc19ab83dd7" x="245.14992" y="178.626818" style="fill: #0000ff; stroke: #0000ff"/>
     <use xlink:href="#mc19ab83dd7" x="251.327589" y="211.400031" style="fill: #0000ff; stroke: #0000ff"/>
     <use xlink:href="#mc19ab83dd7" x="166.854479" y="210.300657" style="fill: #0000ff; stroke: #0000ff"/>
     <use xlink:href="#mc19ab83dd7" x="179.232601" y="175.55629" style="fill: #0000ff; stroke: #0000ff"/>
     <use xlink:href="#mc19ab83dd7" x="220.381751" y="145.554266" style="fill: #0000ff; stroke: #0000ff"/>
     <use xlink:href="#mc19ab83dd7" x="232.905868" y="247.678143" style="fill: #0000ff; stroke: #0000ff"/>
     <use xlink:href="#mc19ab83dd7" x="200.894357" y="195.576485" style="fill: #0000ff; stroke: #0000ff"/>
     <use xlink:href="#mc19ab83dd7" x="171.84857" y="226.403702" style="fill: #0000ff; stroke: #0000ff"/>
     <use xlink:href="#mc19ab83dd7" x="258.515891" y="198.626205" style="fill: #0000ff; stroke: #0000ff"/>
     <use xlink:href="#mc19ab83dd7" x="191.810777" y="232.439923" style="fill: #0000ff; stroke: #0000ff"/>
     <use xlink:href="#mc19ab83dd7" x="189.422134" y="232.374347" style="fill: #0000ff; stroke: #0000ff"/>
     <use xlink:href="#mc19ab83dd7" x="200.255129" y="224.766904" style="fill: #0000ff; stroke: #0000ff"/>
     <use xlink:href="#mc19ab83dd7" x="266.70067" y="217.070346" style="fill: #0000ff; stroke: #0000ff"/>
     <use xlink:href="#mc19ab83dd7" x="206.073247" y="244.241214" style="fill: #0000ff; stroke: #0000ff"/>
     <use xlink:href="#mc19ab83dd7" x="199.855114" y="171.812068" style="fill: #0000ff; stroke: #0000ff"/>
     <use xlink:href="#mc19ab83dd7" x="204.569849" y="193.809741" style="fill: #0000ff; stroke: #0000ff"/>
     <use xlink:href="#mc19ab83dd7" x="212.878908" y="239.004981" style="fill: #0000ff; stroke: #0000ff"/>
     <use xlink:href="#mc19ab83dd7" x="274.304839" y="183.655398" style="fill: #0000ff; stroke: #0000ff"/>
     <use xlink:href="#mc19ab83dd7" x="211.844173" y="225.823184" style="fill: #0000ff; stroke: #0000ff"/>
     <use xlink:href="#mc19ab83dd7" x="209.287527" y="231.757189" style="fill: #0000ff; stroke: #0000ff"/>
     <use xlink:href="#mc19ab83dd7" x="233.38196" y="173.247861" style="fill: #0000ff; stroke: #0000ff"/>
     <use xlink:href="#mc19ab83dd7" x="266.128677" y="161.207317" style="fill: #0000ff; stroke: #0000ff"/>
     <use xlink:href="#mc19ab83dd7" x="208.027179" y="162.921388" style="fill: #0000ff; stroke: #0000ff"/>
     <use xlink:href="#mc19ab83dd7" x="198.786808" y="172.211722" style="fill: #0000ff; stroke: #0000ff"/>
     <use xlink:href="#mc19ab83dd7" x="201.394907" y="213.564786" style="fill: #0000ff; stroke: #0000ff"/>
     <use xlink:href="#mc19ab83dd7" x="186.147764" y="186.781912" style="fill: #0000ff; stroke: #0000ff"/>
     <use xlink:href="#mc19ab83dd7" x="253.763329" y="204.390595" style="fill: #0000ff; stroke: #0000ff"/>
     <use xlink:href="#mc19ab83dd7" x="255.09472" y="181.132991" style="fill: #0000ff; stroke: #0000ff"/>
     <use xlink:href="#mc19ab83dd7" x="233.046325" y="175.594767" style="fill: #0000ff; stroke: #0000ff"/>
     <use xlink:href="#mc19ab83dd7" x="249.232674" y="165.807637" style="fill: #0000ff; stroke: #0000ff"/>
     <use xlink:href="#mc19ab83dd7" x="201.048361" y="236.80879" style="fill: #0000ff; stroke: #0000ff"/>
     <use xlink:href="#mc19ab83dd7" x="225.053369" y="169.667325" style="fill: #0000ff; stroke: #0000ff"/>
     <use xlink:href="#mc19ab83dd7" x="185.651713" y="194.032479" style="fill: #0000ff; stroke: #0000ff"/>
     <use xlink:href="#mc19ab83dd7" x="226.557105" y="180.050095" style="fill: #0000ff; stroke: #0000ff"/>
     <use xlink:href="#mc19ab83dd7" x="235.613553" y="187.522345" style="fill: #0000ff; stroke: #0000ff"/>
     <use xlink:href="#mc19ab83dd7" x="257.693947" y="176.616022" style="fill: #0000ff; stroke: #0000ff"/>
     <use xlink:href="#mc19ab83dd7" x="204.51895" y="233.288737" style="fill: #0000ff; stroke: #0000ff"/>
     <use xlink:href="#mc19ab83dd7" x="254.118597" y="169.865518" style="fill: #0000ff; stroke: #0000ff"/>
     <use xlink:href="#mc19ab83dd7" x="247.163903" y="142.791741" style="fill: #0000ff; stroke: #0000ff"/>
     <use xlink:href="#mc19ab83dd7" x="193.41912" y="168.426163" style="fill: #0000ff; stroke: #0000ff"/>
     <use xlink:href="#mc19ab83dd7" x="236.625508" y="224.482323" style="fill: #0000ff; stroke: #0000ff"/>
     <use xlink:href="#mc19ab83dd7" x="266.502277" y="174.736469" style="fill: #0000ff; stroke: #0000ff"/>
     <use xlink:href="#mc19ab83dd7" x="236.426248" y="219.210897" style="fill: #0000ff; stroke: #0000ff"/>
     <use xlink:href="#mc19ab83dd7" x="250.986921" y="185.497664" style="fill: #0000ff; stroke: #0000ff"/>
     <use xlink:href="#mc19ab83dd7" x="260.771532" y="207.466933" style="fill: #0000ff; stroke: #0000ff"/>
     <use xlink:href="#mc19ab83dd7" x="169.927202" y="191.582589" style="fill: #0000ff; stroke: #0000ff"/>
     <use xlink:href="#mc19ab83dd7" x="252.697897" y="206.248137" style="fill: #0000ff; stroke: #0000ff"/>
     <use xlink:href="#mc19ab83dd7" x="204.99298" y="218.003715" style="fill: #0000ff; stroke: #0000ff"/>
     <use xlink:href="#mc19ab83dd7" x="223.388478" y="236.350502" style="fill: #0000ff; stroke: #0000ff"/>
     <use xlink:href="#mc19ab83dd7" x="253.118242" y="195.721041" style="fill: #0000ff; stroke: #0000ff"/>
     <use xlink:href="#mc19ab83dd7" x="215.54994" y="155.029408" style="fill: #0000ff; stroke: #0000ff"/>
     <use xlink:href="#mc19ab83dd7" x="242.635135" y="186.965379" style="fill: #0000ff; stroke: #0000ff"/>
     <use xlink:href="#mc19ab83dd7" x="219.354875" y="181.581039" style="fill: #0000ff; stroke: #0000ff"/>
     <use xlink:href="#mc19ab83dd7" x="248.476462" y="182.006508" style="fill: #0000ff; stroke: #0000ff"/>
     <use xlink:href="#mc19ab83dd7" x="213.232415" y="175.694546" style="fill: #0000ff; stroke: #0000ff"/>
     <use xlink:href="#mc19ab83dd7" x="174.647171" y="172.741651" style="fill: #0000ff; stroke: #0000ff"/>
     <use xlink:href="#mc19ab83dd7" x="269.62657" y="184.233319" style="fill: #0000ff; stroke: #0000ff"/>
     <use xlink:href="#mc19ab83dd7" x="212.563771" y="236.269491" style="fill: #0000ff; stroke: #0000ff"/>
     <use xlink:href="#mc19ab83dd7" x="206.168116" y="210.856889" style="fill: #0000ff; stroke: #0000ff"/>
     <use xlink:href="#mc19ab83dd7" x="221.268141" y="157.525839" style="fill: #0000ff; stroke: #0000ff"/>
     <use xlink:href="#mc19ab83dd7" x="201.855979" y="205.813576" style="fill: #0000ff; stroke: #0000ff"/>
     <use xlink:href="#mc19ab83dd7" x="240.352112" y="192.90155" style="fill: #0000ff; stroke: #0000ff"/>
     <use xlink:href="#mc19ab83dd7" x="180.821063" y="224.957654" style="fill: #0000ff; stroke: #0000ff"/>
     <use xlink:href="#mc19ab83dd7" x="261.921735" y="219.118062" style="fill: #0000ff; stroke: #0000ff"/>
     <use xlink:href="#mc19ab83dd7" x="205.97472" y="160.620005" style="fill: #0000ff; stroke: #0000ff"/>
     <use xlink:href="#mc19ab83dd7" x="205.872532" y="236.196604" style="fill: #0000ff; stroke: #0000ff"/>
     <use xlink:href="#mc19ab83dd7" x="257.251109" y="169.080381" style="fill: #0000ff; stroke: #0000ff"/>
     <use xlink:href="#mc19ab83dd7" x="219.793185" y="229.333339" style="fill: #0000ff; stroke: #0000ff"/>
     <use xlink:href="#mc19ab83dd7" x="219.932354" y="180.04961" style="fill: #0000ff; stroke: #0000ff"/>
     <use xlink:href="#mc19ab83dd7" x="243.871766" y="162.972534" style="fill: #0000ff; stroke: #0000ff"/>
     <use xlink:href="#mc19ab83dd7" x="203.045643" y="215.723352" style="fill: #0000ff; stroke: #0000ff"/>
     <use xlink:href="#mc19ab83dd7" x="253.432056" y="198.985831" style="fill: #0000ff; stroke: #0000ff"/>
     <use xlink:href="#mc19ab83dd7" x="240.375295" y="228.644365" style="fill: #0000ff; stroke: #0000ff"/>
     <use xlink:href="#mc19ab83dd7" x="262.177546" y="201.35613" style="fill: #0000ff; stroke: #0000ff"/>
    </g>
   </g>
   <g id="PathCollection_2">
    <defs>
     <path id="m8e70e732fb" d="M 0 3 
C 0.795609 3 1.55874 2.683901 2.12132 2.12132 
C 2.683901 1.55874 3 0.795609 3 0 
C 3 -0.795609 2.683901 -1.55874 2.12132 -2.12132 
C 1.55874 -2.683901 0.795609 -3 0 -3 
C -0.795609 -3 -1.55874 -2.683901 -2.12132 -2.12132 
C -2.683901 -1.55874 -3 -0.795609 -3 0 
C -3 0.795609 -2.683901 1.55874 -2.12132 2.12132 
C -1.55874 2.683901 -0.795609 3 0 3 
z
" style="stroke: #ff0000"/>
    </defs>
    <g clip-path="url(#p34c3d3b8a4)">
     <use xlink:href="#m8e70e732fb" x="267.54772" y="54.149334" style="fill: #ff0000; stroke: #ff0000"/>
     <use xlink:href="#m8e70e732fb" x="84.800534" y="132.320949" style="fill: #ff0000; stroke: #ff0000"/>
     <use xlink:href="#m8e70e732fb" x="133.670387" y="112.048664" style="fill: #ff0000; stroke: #ff0000"/>
     <use xlink:href="#m8e70e732fb" x="110.637352" y="176.361585" style="fill: #ff0000; stroke: #ff0000"/>
     <use xlink:href="#m8e70e732fb" x="206.001393" y="93.041007" style="fill: #ff0000; stroke: #ff0000"/>
     <use xlink:href="#m8e70e732fb" x="91.756787" y="281.331215" style="fill: #ff0000; stroke: #ff0000"/>
     <use xlink:href="#m8e70e732fb" x="305.740216" y="291.790648" style="fill: #ff0000; stroke: #ff0000"/>
     <use xlink:href="#m8e70e732fb" x="325.681152" y="114.067808" style="fill: #ff0000; stroke: #ff0000"/>
     <use xlink:href="#m8e70e732fb" x="93.141368" y="216.517258" style="fill: #ff0000; stroke: #ff0000"/>
     <use xlink:href="#m8e70e732fb" x="322.892971" y="99.296867" style="fill: #ff0000; stroke: #ff0000"/>
     <use xlink:href="#m8e70e732fb" x="203.525404" y="304.542555" style="fill: #ff0000; stroke: #ff0000"/>
     <use xlink:href="#m8e70e732fb" x="107.74995" y="114.73551" style="fill: #ff0000; stroke: #ff0000"/>
     <use xlink:href="#m8e70e732fb" x="83.61613" y="262.560273" style="fill: #ff0000; stroke: #ff0000"/>
     <use xlink:href="#m8e70e732fb" x="285.437619" y="72.340511" style="fill: #ff0000; stroke: #ff0000"/>
     <use xlink:href="#m8e70e732fb" x="311.000198" y="95.889965" style="fill: #ff0000; stroke: #ff0000"/>
     <use xlink:href="#m8e70e732fb" x="79.354985" y="191.711859" style="fill: #ff0000; stroke: #ff0000"/>
     <use xlink:href="#m8e70e732fb" x="131.734255" y="85.635647" style="fill: #ff0000; stroke: #ff0000"/>
     <use xlink:href="#m8e70e732fb" x="310.776986" y="234.830555" style="fill: #ff0000; stroke: #ff0000"/>
     <use xlink:href="#m8e70e732fb" x="243.317999" y="379.008802" style="fill: #ff0000; stroke: #ff0000"/>
     <use xlink:href="#m8e70e732fb" x="224.470436" y="350.444492" style="fill: #ff0000; stroke: #ff0000"/>
     <use xlink:href="#m8e70e732fb" x="334.587998" y="275.473587" style="fill: #ff0000; stroke: #ff0000"/>
     <use xlink:href="#m8e70e732fb" x="344.679887" y="135.63826" style="fill: #ff0000; stroke: #ff0000"/>
     <use xlink:href="#m8e70e732fb" x="79.514712" y="250.71156" style="fill: #ff0000; stroke: #ff0000"/>
     <use xlink:href="#m8e70e732fb" x="102.698784" y="272.535444" style="fill: #ff0000; stroke: #ff0000"/>
     <use xlink:href="#m8e70e732fb" x="328.429138" y="226.710861" style="fill: #ff0000; stroke: #ff0000"/>
     <use xlink:href="#m8e70e732fb" x="177.376513" y="29.188216" style="fill: #ff0000; stroke: #ff0000"/>
     <use xlink:href="#m8e70e732fb" x="233.97431" y="63.97433" style="fill: #ff0000; stroke: #ff0000"/>
     <use xlink:href="#m8e70e732fb" x="358.768299" y="108.190574" style="fill: #ff0000; stroke: #ff0000"/>
     <use xlink:href="#m8e70e732fb" x="356.604145" y="189.236305" style="fill: #ff0000; stroke: #ff0000"/>
     <use xlink:href="#m8e70e732fb" x="383.526433" y="275.047942" style="fill: #ff0000; stroke: #ff0000"/>
     <use xlink:href="#m8e70e732fb" x="153.19689" y="330.394069" style="fill: #ff0000; stroke: #ff0000"/>
     <use xlink:href="#m8e70e732fb" x="260.078775" y="350.858018" style="fill: #ff0000; stroke: #ff0000"/>
     <use xlink:href="#m8e70e732fb" x="201.048348" y="83.682179" style="fill: #ff0000; stroke: #ff0000"/>
     <use xlink:href="#m8e70e732fb" x="81.626503" y="286.849146" style="fill: #ff0000; stroke: #ff0000"/>
     <use xlink:href="#m8e70e732fb" x="371.400666" y="142.295892" style="fill: #ff0000; stroke: #ff0000"/>
     <use xlink:href="#m8e70e732fb" x="56.360633" y="187.50577" style="fill: #ff0000; stroke: #ff0000"/>
     <use xlink:href="#m8e70e732fb" x="357.215126" y="220.572346" style="fill: #ff0000; stroke: #ff0000"/>
     <use xlink:href="#m8e70e732fb" x="322.559372" y="294.643857" style="fill: #ff0000; stroke: #ff0000"/>
     <use xlink:href="#m8e70e732fb" x="126.097116" y="45.947032" style="fill: #ff0000; stroke: #ff0000"/>
     <use xlink:href="#m8e70e732fb" x="346.58389" y="231.295508" style="fill: #ff0000; stroke: #ff0000"/>
     <use xlink:href="#m8e70e732fb" x="242.075095" y="65.13322" style="fill: #ff0000; stroke: #ff0000"/>
     <use xlink:href="#m8e70e732fb" x="384.255501" y="253.13932" style="fill: #ff0000; stroke: #ff0000"/>
     <use xlink:href="#m8e70e732fb" x="362.718589" y="253.731827" style="fill: #ff0000; stroke: #ff0000"/>
     <use xlink:href="#m8e70e732fb" x="273.271575" y="346.878368" style="fill: #ff0000; stroke: #ff0000"/>
     <use xlink:href="#m8e70e732fb" x="132.107202" y="299.780254" style="fill: #ff0000; stroke: #ff0000"/>
     <use xlink:href="#m8e70e732fb" x="332.8035" y="307.287211" style="fill: #ff0000; stroke: #ff0000"/>
     <use xlink:href="#m8e70e732fb" x="193.793104" y="90.405452" style="fill: #ff0000; stroke: #ff0000"/>
     <use xlink:href="#m8e70e732fb" x="328.817012" y="342.09144" style="fill: #ff0000; stroke: #ff0000"/>
     <use xlink:href="#m8e70e732fb" x="120.474667" y="295.863043" style="fill: #ff0000; stroke: #ff0000"/>
     <use xlink:href="#m8e70e732fb" x="357.078356" y="191.769286" style="fill: #ff0000; stroke: #ff0000"/>
     <use xlink:href="#m8e70e732fb" x="135.229016" y="76.884284" style="fill: #ff0000; stroke: #ff0000"/>
     <use xlink:href="#m8e70e732fb" x="306.983504" y="96.455126" style="fill: #ff0000; stroke: #ff0000"/>
     <use xlink:href="#m8e70e732fb" x="344.11906" y="215.580025" style="fill: #ff0000; stroke: #ff0000"/>
     <use xlink:href="#m8e70e732fb" x="107.943653" y="186.756829" style="fill: #ff0000; stroke: #ff0000"/>
     <use xlink:href="#m8e70e732fb" x="67.439005" y="199.880102" style="fill: #ff0000; stroke: #ff0000"/>
     <use xlink:href="#m8e70e732fb" x="134.974645" y="308.235667" style="fill: #ff0000; stroke: #ff0000"/>
     <use xlink:href="#m8e70e732fb" x="129.236679" y="100.803596" style="fill: #ff0000; stroke: #ff0000"/>
     <use xlink:href="#m8e70e732fb" x="333.872483" y="80.405302" style="fill: #ff0000; stroke: #ff0000"/>
     <use xlink:href="#m8e70e732fb" x="279.664415" y="309.917795" style="fill: #ff0000; stroke: #ff0000"/>
     <use xlink:href="#m8e70e732fb" x="274.020248" y="84.344934" style="fill: #ff0000; stroke: #ff0000"/>
     <use xlink:href="#m8e70e732fb" x="88.608716" y="211.886997" style="fill: #ff0000; stroke: #ff0000"/>
     <use xlink:href="#m8e70e732fb" x="249.329143" y="61.750959" style="fill: #ff0000; stroke: #ff0000"/>
     <use xlink:href="#m8e70e732fb" x="343.476032" y="121.686893" style="fill: #ff0000; stroke: #ff0000"/>
     <use xlink:href="#m8e70e732fb" x="316.067065" y="305.488732" style="fill: #ff0000; stroke: #ff0000"/>
     <use xlink:href="#m8e70e732fb" x="367.410821" y="226.034288" style="fill: #ff0000; stroke: #ff0000"/>
     <use xlink:href="#m8e70e732fb" x="364.300234" y="236.192308" style="fill: #ff0000; stroke: #ff0000"/>
     <use xlink:href="#m8e70e732fb" x="334.83046" y="272.880538" style="fill: #ff0000; stroke: #ff0000"/>
     <use xlink:href="#m8e70e732fb" x="245.200287" y="326.445466" style="fill: #ff0000; stroke: #ff0000"/>
     <use xlink:href="#m8e70e732fb" x="150.788833" y="75.977172" style="fill: #ff0000; stroke: #ff0000"/>
     <use xlink:href="#m8e70e732fb" x="337.236239" y="141.905736" style="fill: #ff0000; stroke: #ff0000"/>
     <use xlink:href="#m8e70e732fb" x="123.421558" y="136.897253" style="fill: #ff0000; stroke: #ff0000"/>
     <use xlink:href="#m8e70e732fb" x="241.222444" y="68.369248" style="fill: #ff0000; stroke: #ff0000"/>
     <use xlink:href="#m8e70e732fb" x="321.245814" y="100.507092" style="fill: #ff0000; stroke: #ff0000"/>
     <use xlink:href="#m8e70e732fb" x="403.761707" y="142.090748" style="fill: #ff0000; stroke: #ff0000"/>
     <use xlink:href="#m8e70e732fb" x="205.693789" y="328.410793" style="fill: #ff0000; stroke: #ff0000"/>
     <use xlink:href="#m8e70e732fb" x="388.484123" y="191.034411" style="fill: #ff0000; stroke: #ff0000"/>
     <use xlink:href="#m8e70e732fb" x="246.301159" y="355.858195" style="fill: #ff0000; stroke: #ff0000"/>
     <use xlink:href="#m8e70e732fb" x="299.311741" y="107.948615" style="fill: #ff0000; stroke: #ff0000"/>
     <use xlink:href="#m8e70e732fb" x="366.075292" y="128.021723" style="fill: #ff0000; stroke: #ff0000"/>
     <use xlink:href="#m8e70e732fb" x="328.963581" y="139.145915" style="fill: #ff0000; stroke: #ff0000"/>
     <use xlink:href="#m8e70e732fb" x="181.744813" y="282.554256" style="fill: #ff0000; stroke: #ff0000"/>
     <use xlink:href="#m8e70e732fb" x="230.309651" y="50.357457" style="fill: #ff0000; stroke: #ff0000"/>
     <use xlink:href="#m8e70e732fb" x="128.302821" y="150.795844" style="fill: #ff0000; stroke: #ff0000"/>
     <use xlink:href="#m8e70e732fb" x="81.983926" y="255.020311" style="fill: #ff0000; stroke: #ff0000"/>
     <use xlink:href="#m8e70e732fb" x="310.05617" y="300.662044" style="fill: #ff0000; stroke: #ff0000"/>
     <use xlink:href="#m8e70e732fb" x="200.310127" y="372.485138" style="fill: #ff0000; stroke: #ff0000"/>
     <use xlink:href="#m8e70e732fb" x="204.660288" y="42.93014" style="fill: #ff0000; stroke: #ff0000"/>
     <use xlink:href="#m8e70e732fb" x="318.033641" y="105.174739" style="fill: #ff0000; stroke: #ff0000"/>
     <use xlink:href="#m8e70e732fb" x="349.498482" y="158.818624" style="fill: #ff0000; stroke: #ff0000"/>
     <use xlink:href="#m8e70e732fb" x="187.056994" y="90.595544" style="fill: #ff0000; stroke: #ff0000"/>
     <use xlink:href="#m8e70e732fb" x="215.374586" y="70.327238" style="fill: #ff0000; stroke: #ff0000"/>
     <use xlink:href="#m8e70e732fb" x="91.505285" y="165.538481" style="fill: #ff0000; stroke: #ff0000"/>
     <use xlink:href="#m8e70e732fb" x="169.628814" y="324.693962" style="fill: #ff0000; stroke: #ff0000"/>
     <use xlink:href="#m8e70e732fb" x="176.180168" y="337.766913" style="fill: #ff0000; stroke: #ff0000"/>
     <use xlink:href="#m8e70e732fb" x="193.11644" y="54.163963" style="fill: #ff0000; stroke: #ff0000"/>
     <use xlink:href="#m8e70e732fb" x="115.225933" y="101.523163" style="fill: #ff0000; stroke: #ff0000"/>
     <use xlink:href="#m8e70e732fb" x="280.31723" y="87.651278" style="fill: #ff0000; stroke: #ff0000"/>
     <use xlink:href="#m8e70e732fb" x="253.844899" y="312.831497" style="fill: #ff0000; stroke: #ff0000"/>
     <use xlink:href="#m8e70e732fb" x="386.233558" y="144.242927" style="fill: #ff0000; stroke: #ff0000"/>
     <use xlink:href="#m8e70e732fb" x="182.728663" y="323.171887" style="fill: #ff0000; stroke: #ff0000"/>
    </g>
   </g>
   <g id="PathCollection_3">
    <path d="M 36.41875 390.04 
L 40.3225 390.04 
L 44.22625 390.04 
L 48.13 390.04 
L 52.03375 390.04 
L 55.9375 390.04 
L 59.84125 390.04 
L 63.745 390.04 
L 67.64875 390.04 
L 71.5525 390.04 
L 75.45625 390.04 
L 79.36 390.04 
L 83.26375 390.04 
L 87.1675 390.04 
L 91.07125 390.04 
L 94.975 390.04 
L 98.87875 390.04 
L 102.7825 390.04 
L 106.68625 390.04 
L 110.59 390.04 
L 114.49375 390.04 
L 118.3975 390.04 
L 122.30125 390.04 
L 126.205 390.04 
L 130.10875 390.04 
L 134.0125 390.04 
L 137.91625 390.04 
L 141.82 390.04 
L 145.72375 390.04 
L 149.6275 390.04 
L 153.53125 390.04 
L 157.435 390.04 
L 161.33875 390.04 
L 165.2425 390.04 
L 169.14625 390.04 
L 173.05 390.04 
L 176.95375 390.04 
L 180.8575 390.04 
L 184.76125 390.04 
L 188.665 390.04 
L 192.56875 390.04 
L 196.4725 390.04 
L 200.37625 390.04 
L 204.28 390.04 
L 208.18375 390.04 
L 212.0875 390.04 
L 215.99125 390.04 
L 219.895 390.04 
L 223.79875 390.04 
L 227.7025 390.04 
L 231.60625 390.04 
L 235.51 390.04 
L 239.41375 390.04 
L 243.3175 390.04 
L 247.22125 390.04 
L 251.125 390.04 
L 255.02875 390.04 
L 258.9325 390.04 
L 262.83625 390.04 
L 266.74 390.04 
L 270.64375 390.04 
L 274.5475 390.04 
L 278.45125 390.04 
L 282.355 390.04 
L 286.25875 390.04 
L 290.1625 390.04 
L 294.06625 390.04 
L 297.97 390.04 
L 301.87375 390.04 
L 305.7775 390.04 
L 309.68125 390.04 
L 313.585 390.04 
L 317.48875 390.04 
L 321.3925 390.04 
L 325.29625 390.04 
L 329.2 390.04 
L 333.10375 390.04 
L 337.0075 390.04 
L 340.91125 390.04 
L 344.815 390.04 
L 348.71875 390.04 
L 352.6225 390.04 
L 356.52625 390.04 
L 360.43 390.04 
L 364.33375 390.04 
L 368.2375 390.04 
L 372.14125 390.04 
L 376.045 390.04 
L 379.94875 390.04 
L 383.8525 390.04 
L 387.75625 390.04 
L 391.66 390.04 
L 395.56375 390.04 
L 399.4675 390.04 
L 403.37125 390.04 
L 407.275 390.04 
L 411.17875 390.04 
L 415.0825 390.04 
L 418.98625 390.04 
L 418.98625 386.249293 
L 418.98625 382.458586 
L 418.98625 378.667879 
L 418.98625 374.877172 
L 418.98625 371.086465 
L 418.98625 367.295758 
L 418.98625 363.505051 
L 418.98625 359.714343 
L 418.98625 355.923636 
L 418.98625 352.132929 
L 418.98625 348.342222 
L 418.98625 344.551515 
L 418.98625 340.760808 
L 418.98625 336.970101 
L 418.98625 333.179394 
L 418.98625 329.388687 
L 418.98625 325.59798 
L 418.98625 321.807273 
L 418.98625 318.016566 
L 418.98625 314.225859 
L 418.98625 310.435152 
L 418.98625 306.644444 
L 418.98625 302.853737 
L 418.98625 299.06303 
L 418.98625 295.272323 
L 418.98625 291.481616 
L 418.98625 287.690909 
L 418.98625 283.900202 
L 418.98625 280.109495 
L 418.98625 276.318788 
L 418.98625 272.528081 
L 418.98625 268.737374 
L 418.98625 264.946667 
L 418.98625 261.15596 
L 418.98625 257.365253 
L 418.98625 253.574545 
L 418.98625 249.783838 
L 418.98625 245.993131 
L 418.98625 242.202424 
L 418.98625 238.411717 
L 418.98625 234.62101 
L 418.98625 230.830303 
L 418.98625 227.039596 
L 418.98625 223.248889 
L 418.98625 219.458182 
L 418.98625 215.667475 
L 418.98625 211.876768 
L 418.98625 208.086061 
L 418.98625 204.295354 
L 418.98625 200.504646 
L 418.98625 196.713939 
L 418.98625 192.923232 
L 418.98625 189.132525 
L 418.98625 185.341818 
L 418.98625 181.551111 
L 418.98625 177.760404 
L 418.98625 173.969697 
L 418.98625 170.17899 
L 418.98625 166.388283 
L 418.98625 162.597576 
L 418.98625 158.806869 
L 418.98625 155.016162 
L 418.98625 151.225455 
L 418.98625 147.434747 
L 418.98625 143.64404 
L 418.98625 139.853333 
L 418.98625 136.062626 
L 418.98625 132.271919 
L 418.98625 128.481212 
L 418.98625 124.690505 
L 418.98625 120.899798 
L 418.98625 117.109091 
L 418.98625 113.318384 
L 418.98625 109.527677 
L 418.98625 105.73697 
L 418.98625 101.946263 
L 418.98625 98.155556 
L 418.98625 94.364848 
L 418.98625 90.574141 
L 418.98625 86.783434 
L 418.98625 82.992727 
L 418.98625 79.20202 
L 418.98625 75.411313 
L 418.98625 71.620606 
L 418.98625 67.829899 
L 418.98625 64.039192 
L 418.98625 60.248485 
L 418.98625 56.457778 
L 418.98625 52.667071 
L 418.98625 48.876364 
L 418.98625 45.085657 
L 418.98625 41.294949 
L 418.98625 37.504242 
L 418.98625 33.713535 
L 418.98625 29.922828 
L 418.98625 26.132121 
L 418.98625 22.341414 
L 418.98625 18.550707 
L 418.98625 14.76 
L 415.0825 14.76 
L 411.17875 14.76 
L 407.275 14.76 
L 403.37125 14.76 
L 399.4675 14.76 
L 395.56375 14.76 
L 391.66 14.76 
L 387.75625 14.76 
L 383.8525 14.76 
L 379.94875 14.76 
L 376.045 14.76 
L 372.14125 14.76 
L 368.2375 14.76 
L 364.33375 14.76 
L 360.43 14.76 
L 356.52625 14.76 
L 352.6225 14.76 
L 348.71875 14.76 
L 344.815 14.76 
L 340.91125 14.76 
L 337.0075 14.76 
L 333.10375 14.76 
L 329.2 14.76 
L 325.29625 14.76 
L 321.3925 14.76 
L 317.48875 14.76 
L 313.585 14.76 
L 309.68125 14.76 
L 305.7775 14.76 
L 301.87375 14.76 
L 297.97 14.76 
L 294.06625 14.76 
L 290.1625 14.76 
L 286.25875 14.76 
L 282.355 14.76 
L 278.45125 14.76 
L 274.5475 14.76 
L 270.64375 14.76 
L 266.74 14.76 
L 262.83625 14.76 
L 258.9325 14.76 
L 255.02875 14.76 
L 251.125 14.76 
L 247.22125 14.76 
L 243.3175 14.76 
L 239.41375 14.76 
L 235.51 14.76 
L 231.60625 14.76 
L 227.7025 14.76 
L 223.79875 14.76 
L 219.895 14.76 
L 215.99125 14.76 
L 212.0875 14.76 
L 208.18375 14.76 
L 204.28 14.76 
L 200.37625 14.76 
L 196.4725 14.76 
L 192.56875 14.76 
L 188.665 14.76 
L 184.76125 14.76 
L 180.8575 14.76 
L 176.95375 14.76 
L 173.05 14.76 
L 169.14625 14.76 
L 165.2425 14.76 
L 161.33875 14.76 
L 157.435 14.76 
L 153.53125 14.76 
L 149.6275 14.76 
L 145.72375 14.76 
L 141.82 14.76 
L 137.91625 14.76 
L 134.0125 14.76 
L 130.10875 14.76 
L 126.205 14.76 
L 122.30125 14.76 
L 118.3975 14.76 
L 114.49375 14.76 
L 110.59 14.76 
L 106.68625 14.76 
L 102.7825 14.76 
L 98.87875 14.76 
L 94.975 14.76 
L 91.07125 14.76 
L 87.1675 14.76 
L 83.26375 14.76 
L 79.36 14.76 
L 75.45625 14.76 
L 71.5525 14.76 
L 67.64875 14.76 
L 63.745 14.76 
L 59.84125 14.76 
L 55.9375 14.76 
L 52.03375 14.76 
L 48.13 14.76 
L 44.22625 14.76 
L 40.3225 14.76 
L 36.41875 14.76 
L 32.515 14.76 
L 32.515 18.550707 
L 32.515 22.341414 
L 32.515 26.132121 
L 32.515 29.922828 
L 32.515 33.713535 
L 32.515 37.504242 
L 32.515 41.294949 
L 32.515 45.085657 
L 32.515 48.876364 
L 32.515 52.667071 
L 32.515 56.457778 
L 32.515 60.248485 
L 32.515 64.039192 
L 32.515 67.829899 
L 32.515 71.620606 
L 32.515 75.411313 
L 32.515 79.20202 
L 32.515 82.992727 
L 32.515 86.783434 
L 32.515 90.574141 
L 32.515 94.364848 
L 32.515 98.155556 
L 32.515 101.946263 
L 32.515 105.73697 
L 32.515 109.527677 
L 32.515 113.318384 
L 32.515 117.109091 
L 32.515 120.899798 
L 32.515 124.690505 
L 32.515 128.481212 
L 32.515 132.271919 
L 32.515 136.062626 
L 32.515 139.853333 
L 32.515 143.64404 
L 32.515 147.434747 
L 32.515 151.225455 
L 32.515 155.016162 
L 32.515 158.806869 
L 32.515 162.597576 
L 32.515 166.388283 
L 32.515 170.17899 
L 32.515 173.969697 
L 32.515 177.760404 
L 32.515 181.551111 
L 32.515 185.341818 
L 32.515 189.132525 
L 32.515 192.923232 
L 32.515 196.713939 
L 32.515 200.504646 
L 32.515 204.295354 
L 32.515 208.086061 
L 32.515 211.876768 
L 32.515 215.667475 
L 32.515 219.458182 
L 32.515 223.248889 
L 32.515 227.039596 
L 32.515 230.830303 
L 32.515 234.62101 
L 32.515 238.411717 
L 32.515 242.202424 
L 32.515 245.993131 
L 32.515 249.783838 
L 32.515 253.574545 
L 32.515 257.365253 
L 32.515 261.15596 
L 32.515 264.946667 
L 32.515 268.737374 
L 32.515 272.528081 
L 32.515 276.318788 
L 32.515 280.109495 
L 32.515 283.900202 
L 32.515 287.690909 
L 32.515 291.481616 
L 32.515 295.272323 
L 32.515 299.06303 
L 32.515 302.853737 
L 32.515 306.644444 
L 32.515 310.435152 
L 32.515 314.225859 
L 32.515 318.016566 
L 32.515 321.807273 
L 32.515 325.59798 
L 32.515 329.388687 
L 32.515 333.179394 
L 32.515 336.970101 
L 32.515 340.760808 
L 32.515 344.551515 
L 32.515 348.342222 
L 32.515 352.132929 
L 32.515 355.923636 
L 32.515 359.714343 
L 32.515 363.505051 
L 32.515 367.295758 
L 32.515 371.086465 
L 32.515 374.877172 
L 32.515 378.667879 
L 32.515 382.458586 
L 32.515 386.249293 
L 32.515 390.04 
z
M 198.986168 280.109495 
L 196.4725 279.269308 
L 192.56875 277.386035 
L 190.870232 276.318788 
L 188.665 274.862341 
L 185.747128 272.528081 
L 184.76125 271.699668 
L 181.656242 268.737374 
L 180.8575 267.931295 
L 178.158532 264.946667 
L 176.95375 263.505953 
L 175.134007 261.15596 
L 173.05 258.125177 
L 172.56344 257.365253 
L 170.424988 253.574545 
L 169.14625 250.824439 
L 168.690277 249.783838 
L 167.295372 245.993131 
L 166.193479 242.202424 
L 165.308537 238.411717 
L 165.2425 238.085759 
L 164.524014 234.62101 
L 163.787029 230.830303 
L 163.034962 227.039596 
L 162.22826 223.248889 
L 161.362757 219.458182 
L 161.33875 219.351797 
L 160.384023 215.667475 
L 159.443676 211.876768 
L 158.640441 208.086061 
L 158.068256 204.295354 
L 157.798435 200.504646 
L 157.865562 196.713939 
L 158.261608 192.923232 
L 158.938949 189.132525 
L 159.822273 185.341818 
L 160.828205 181.551111 
L 161.33875 179.73238 
L 161.840179 177.760404 
L 162.843428 173.969697 
L 163.918311 170.17899 
L 165.159541 166.388283 
L 165.2425 166.179085 
L 166.698779 162.597576 
L 168.907657 158.806869 
L 169.14625 158.505365 
L 172.30084 155.016162 
L 173.05 154.408531 
L 176.95375 151.658629 
L 177.652088 151.225455 
L 180.8575 149.516161 
L 184.76125 147.599845 
L 185.106668 147.434747 
L 188.665 145.748539 
L 192.56875 143.887238 
L 193.074036 143.64404 
L 196.4725 141.900119 
L 200.37625 139.870571 
L 200.409272 139.853333 
L 204.28 137.689756 
L 207.185288 136.062626 
L 208.18375 135.471696 
L 212.0875 133.13458 
L 213.482848 132.271919 
L 215.99125 130.653167 
L 219.199985 128.481212 
L 219.895 127.990249 
L 223.79875 125.093443 
L 224.337318 124.690505 
L 227.7025 122.005709 
L 229.164318 120.899798 
L 231.60625 118.895324 
L 234.167798 117.109091 
L 235.51 116.071646 
L 239.41375 114.026999 
L 243.3175 113.489285 
L 247.22125 115.361751 
L 248.604007 117.109091 
L 251.125 120.603371 
L 251.263982 120.899798 
L 253.041294 124.690505 
L 254.761988 128.481212 
L 255.02875 129.053756 
L 256.295794 132.271919 
L 257.868195 136.062626 
L 258.9325 138.456067 
L 259.533282 139.853333 
L 261.332135 143.64404 
L 262.83625 146.516197 
L 263.343494 147.434747 
L 265.653385 151.225455 
L 266.74 152.854654 
L 268.323491 155.016162 
L 270.64375 157.955072 
L 271.390949 158.806869 
L 274.5475 162.20971 
L 274.943696 162.597576 
L 278.45125 165.897372 
L 279.012833 166.388283 
L 282.355 169.243189 
L 283.497109 170.17899 
L 286.25875 172.452163 
L 288.109066 173.969697 
L 290.1625 175.747962 
L 292.405196 177.760404 
L 294.06625 179.460638 
L 295.981746 181.551111 
L 297.97 184.296047 
L 298.675527 185.341818 
L 300.565614 189.132525 
L 301.779291 192.923232 
L 301.87375 193.411552 
L 302.499876 196.713939 
L 302.818476 200.504646 
L 302.815306 204.295354 
L 302.545305 208.086061 
L 302.04204 211.876768 
L 301.87375 212.756008 
L 301.357442 215.667475 
L 300.481732 219.458182 
L 299.377243 223.248889 
L 297.97886 227.039596 
L 297.97 227.058866 
L 296.221412 230.830303 
L 294.06625 234.224288 
L 293.794005 234.62101 
L 290.262919 238.411717 
L 290.1625 238.495128 
L 286.25875 241.325152 
L 284.825133 242.202424 
L 282.355 243.511619 
L 278.45125 245.368267 
L 277.070426 245.993131 
L 274.5475 247.118543 
L 270.64375 248.88629 
L 268.747986 249.783838 
L 266.74 250.805153 
L 262.83625 252.938407 
L 261.75158 253.574545 
L 258.9325 255.418733 
L 256.139356 257.365253 
L 255.02875 258.237101 
L 251.445174 261.15596 
L 251.125 261.447674 
L 247.271139 264.946667 
L 247.22125 264.9961 
L 243.3175 268.649638 
L 243.213759 268.737374 
L 239.41375 272.06507 
L 238.784847 272.528081 
L 235.51 274.968297 
L 233.188587 276.318788 
L 231.60625 277.2423 
L 227.7025 278.941982 
L 223.86106 280.109495 
L 223.79875 280.128738 
L 219.895 280.950133 
L 215.99125 281.458429 
L 212.0875 281.704395 
L 208.18375 281.68017 
L 204.28 281.326969 
L 200.37625 280.552829 
z
" clip-path="url(#p34c3d3b8a4)" style="fill: #ff0000; fill-opacity: 0.2"/>
   </g>
   <g id="PathCollection_4">
    <path d="M 200.37625 280.552829 
L 204.28 281.326969 
L 208.18375 281.68017 
L 212.0875 281.704395 
L 215.99125 281.458429 
L 219.895 280.950133 
L 223.79875 280.128738 
L 223.86106 280.109495 
L 227.7025 278.941982 
L 231.60625 277.2423 
L 233.188587 276.318788 
L 235.51 274.968297 
L 238.784847 272.528081 
L 239.41375 272.06507 
L 243.213759 268.737374 
L 243.3175 268.649638 
L 247.22125 264.9961 
L 247.271139 264.946667 
L 251.125 261.447674 
L 251.445174 261.15596 
L 255.02875 258.237101 
L 256.139356 257.365253 
L 258.9325 255.418733 
L 261.75158 253.574545 
L 262.83625 252.938407 
L 266.74 250.805153 
L 268.747986 249.783838 
L 270.64375 248.88629 
L 274.5475 247.118543 
L 277.070426 245.993131 
L 278.45125 245.368267 
L 282.355 243.511619 
L 284.825133 242.202424 
L 286.25875 241.325152 
L 290.1625 238.495128 
L 290.262919 238.411717 
L 293.794005 234.62101 
L 294.06625 234.224288 
L 296.221412 230.830303 
L 297.97 227.058866 
L 297.97886 227.039596 
L 299.377243 223.248889 
L 300.481732 219.458182 
L 301.357442 215.667475 
L 301.87375 212.756008 
L 302.04204 211.876768 
L 302.545305 208.086061 
L 302.815306 204.295354 
L 302.818476 200.504646 
L 302.499876 196.713939 
L 301.87375 193.411552 
L 301.779291 192.923232 
L 300.565614 189.132525 
L 298.675527 185.341818 
L 297.97 184.296047 
L 295.981746 181.551111 
L 294.06625 179.460638 
L 292.405196 177.760404 
L 290.1625 175.747962 
L 288.109066 173.969697 
L 286.25875 172.452163 
L 283.497109 170.17899 
L 282.355 169.243189 
L 279.012833 166.388283 
L 278.45125 165.897372 
L 274.943696 162.597576 
L 274.5475 162.20971 
L 271.390949 158.806869 
L 270.64375 157.955072 
L 268.323491 155.016162 
L 266.74 152.854654 
L 265.653385 151.225455 
L 263.343494 147.434747 
L 262.83625 146.516197 
L 261.332135 143.64404 
L 259.533282 139.853333 
L 258.9325 138.456067 
L 257.868195 136.062626 
L 256.295794 132.271919 
L 255.02875 129.053756 
L 254.761988 128.481212 
L 253.041294 124.690505 
L 251.263982 120.899798 
L 251.125 120.603371 
L 248.604007 117.109091 
L 247.22125 115.361751 
L 243.3175 113.489285 
L 239.41375 114.026999 
L 235.51 116.071646 
L 234.167798 117.109091 
L 231.60625 118.895324 
L 229.164318 120.899798 
L 227.7025 122.005709 
L 224.337318 124.690505 
L 223.79875 125.093443 
L 219.895 127.990249 
L 219.199985 128.481212 
L 215.99125 130.653167 
L 213.482848 132.271919 
L 212.0875 133.13458 
L 208.18375 135.471696 
L 207.185288 136.062626 
L 204.28 137.689756 
L 200.409272 139.853333 
L 200.37625 139.870571 
L 196.4725 141.900119 
L 193.074036 143.64404 
L 192.56875 143.887238 
L 188.665 145.748539 
L 185.106668 147.434747 
L 184.76125 147.599845 
L 180.8575 149.516161 
L 177.652088 151.225455 
L 176.95375 151.658629 
L 173.05 154.408531 
L 172.30084 155.016162 
L 169.14625 158.505365 
L 168.907657 158.806869 
L 166.698779 162.597576 
L 165.2425 166.179085 
L 165.159541 166.388283 
L 163.918311 170.17899 
L 162.843428 173.969697 
L 161.840179 177.760404 
L 161.33875 179.73238 
L 160.828205 181.551111 
L 159.822273 185.341818 
L 158.938949 189.132525 
L 158.261608 192.923232 
L 157.865562 196.713939 
L 157.798435 200.504646 
L 158.068256 204.295354 
L 158.640441 208.086061 
L 159.443676 211.876768 
L 160.384023 215.667475 
L 161.33875 219.351797 
L 161.362757 219.458182 
L 162.22826 223.248889 
L 163.034962 227.039596 
L 163.787029 230.830303 
L 164.524014 234.62101 
L 165.2425 238.085759 
L 165.308537 238.411717 
L 166.193479 242.202424 
L 167.295372 245.993131 
L 168.690277 249.783838 
L 169.14625 250.824439 
L 170.424988 253.574545 
L 172.56344 257.365253 
L 173.05 258.125177 
L 175.134007 261.15596 
L 176.95375 263.505953 
L 178.158532 264.946667 
L 180.8575 267.931295 
L 181.656242 268.737374 
L 184.76125 271.699668 
L 185.747128 272.528081 
L 188.665 274.862341 
L 190.870232 276.318788 
L 192.56875 277.386035 
L 196.4725 279.269308 
L 198.986168 280.109495 
z
" clip-path="url(#p34c3d3b8a4)" style="fill: #0000ff; fill-opacity: 0.2"/>
   </g>
   <g id="matplotlib.axis_1">
    <g id="xtick_1">
     <g id="line2d_1">
      <defs>
       <path id="mdfd0fe13fa" d="M 0 0 
L 0 3.5 
" style="stroke: #000000; stroke-width: 0.8"/>
      </defs>
      <g>
       <use xlink:href="#mdfd0fe13fa" x="32.515" y="390.04" style="stroke: #000000; stroke-width: 0.8"/>
      </g>
     </g>
     <g id="text_1">
      <!-- −8 -->
      <g transform="translate(25.143906 404.638438) scale(0.1 -0.1)">
       <defs>
        <path id="DejaVuSans-2212" d="M 678 2272 
L 4684 2272 
L 4684 1741 
L 678 1741 
L 678 2272 
z
" transform="scale(0.015625)"/>
        <path id="DejaVuSans-38" d="M 2034 2216 
Q 1584 2216 1326 1975 
Q 1069 1734 1069 1313 
Q 1069 891 1326 650 
Q 1584 409 2034 409 
Q 2484 409 2743 651 
Q 3003 894 3003 1313 
Q 3003 1734 2745 1975 
Q 2488 2216 2034 2216 
z
M 1403 2484 
Q 997 2584 770 2862 
Q 544 3141 544 3541 
Q 544 4100 942 4425 
Q 1341 4750 2034 4750 
Q 2731 4750 3128 4425 
Q 3525 4100 3525 3541 
Q 3525 3141 3298 2862 
Q 3072 2584 2669 2484 
Q 3125 2378 3379 2068 
Q 3634 1759 3634 1313 
Q 3634 634 3220 271 
Q 2806 -91 2034 -91 
Q 1263 -91 848 271 
Q 434 634 434 1313 
Q 434 1759 690 2068 
Q 947 2378 1403 2484 
z
M 1172 3481 
Q 1172 3119 1398 2916 
Q 1625 2713 2034 2713 
Q 2441 2713 2670 2916 
Q 2900 3119 2900 3481 
Q 2900 3844 2670 4047 
Q 2441 4250 2034 4250 
Q 1625 4250 1398 4047 
Q 1172 3844 1172 3481 
z
" transform="scale(0.015625)"/>
       </defs>
       <use xlink:href="#DejaVuSans-2212"/>
       <use xlink:href="#DejaVuSans-38" x="83.789062"/>
      </g>
     </g>
    </g>
    <g id="xtick_2">
     <g id="line2d_2">
      <g>
       <use xlink:href="#mdfd0fe13fa" x="80.823906" y="390.04" style="stroke: #000000; stroke-width: 0.8"/>
      </g>
     </g>
     <g id="text_2">
      <!-- −6 -->
      <g transform="translate(73.452812 404.638438) scale(0.1 -0.1)">
       <defs>
        <path id="DejaVuSans-36" d="M 2113 2584 
Q 1688 2584 1439 2293 
Q 1191 2003 1191 1497 
Q 1191 994 1439 701 
Q 1688 409 2113 409 
Q 2538 409 2786 701 
Q 3034 994 3034 1497 
Q 3034 2003 2786 2293 
Q 2538 2584 2113 2584 
z
M 3366 4563 
L 3366 3988 
Q 3128 4100 2886 4159 
Q 2644 4219 2406 4219 
Q 1781 4219 1451 3797 
Q 1122 3375 1075 2522 
Q 1259 2794 1537 2939 
Q 1816 3084 2150 3084 
Q 2853 3084 3261 2657 
Q 3669 2231 3669 1497 
Q 3669 778 3244 343 
Q 2819 -91 2113 -91 
Q 1303 -91 875 529 
Q 447 1150 447 2328 
Q 447 3434 972 4092 
Q 1497 4750 2381 4750 
Q 2619 4750 2861 4703 
Q 3103 4656 3366 4563 
z
" transform="scale(0.015625)"/>
       </defs>
       <use xlink:href="#DejaVuSans-2212"/>
       <use xlink:href="#DejaVuSans-36" x="83.789062"/>
      </g>
     </g>
    </g>
    <g id="xtick_3">
     <g id="line2d_3">
      <g>
       <use xlink:href="#mdfd0fe13fa" x="129.132812" y="390.04" style="stroke: #000000; stroke-width: 0.8"/>
      </g>
     </g>
     <g id="text_3">
      <!-- −4 -->
      <g transform="translate(121.761719 404.638438) scale(0.1 -0.1)">
       <defs>
        <path id="DejaVuSans-34" d="M 2419 4116 
L 825 1625 
L 2419 1625 
L 2419 4116 
z
M 2253 4666 
L 3047 4666 
L 3047 1625 
L 3713 1625 
L 3713 1100 
L 3047 1100 
L 3047 0 
L 2419 0 
L 2419 1100 
L 313 1100 
L 313 1709 
L 2253 4666 
z
" transform="scale(0.015625)"/>
       </defs>
       <use xlink:href="#DejaVuSans-2212"/>
       <use xlink:href="#DejaVuSans-34" x="83.789062"/>
      </g>
     </g>
    </g>
    <g id="xtick_4">
     <g id="line2d_4">
      <g>
       <use xlink:href="#mdfd0fe13fa" x="177.441719" y="390.04" style="stroke: #000000; stroke-width: 0.8"/>
      </g>
     </g>
     <g id="text_4">
      <!-- −2 -->
      <g transform="translate(170.070625 404.638438) scale(0.1 -0.1)">
       <defs>
        <path id="DejaVuSans-32" d="M 1228 531 
L 3431 531 
L 3431 0 
L 469 0 
L 469 531 
Q 828 903 1448 1529 
Q 2069 2156 2228 2338 
Q 2531 2678 2651 2914 
Q 2772 3150 2772 3378 
Q 2772 3750 2511 3984 
Q 2250 4219 1831 4219 
Q 1534 4219 1204 4116 
Q 875 4013 500 3803 
L 500 4441 
Q 881 4594 1212 4672 
Q 1544 4750 1819 4750 
Q 2544 4750 2975 4387 
Q 3406 4025 3406 3419 
Q 3406 3131 3298 2873 
Q 3191 2616 2906 2266 
Q 2828 2175 2409 1742 
Q 1991 1309 1228 531 
z
" transform="scale(0.015625)"/>
       </defs>
       <use xlink:href="#DejaVuSans-2212"/>
       <use xlink:href="#DejaVuSans-32" x="83.789062"/>
      </g>
     </g>
    </g>
    <g id="xtick_5">
     <g id="line2d_5">
      <g>
       <use xlink:href="#mdfd0fe13fa" x="225.750625" y="390.04" style="stroke: #000000; stroke-width: 0.8"/>
      </g>
     </g>
     <g id="text_5">
      <!-- 0 -->
      <g transform="translate(222.569375 404.638438) scale(0.1 -0.1)">
       <defs>
        <path id="DejaVuSans-30" d="M 2034 4250 
Q 1547 4250 1301 3770 
Q 1056 3291 1056 2328 
Q 1056 1369 1301 889 
Q 1547 409 2034 409 
Q 2525 409 2770 889 
Q 3016 1369 3016 2328 
Q 3016 3291 2770 3770 
Q 2525 4250 2034 4250 
z
M 2034 4750 
Q 2819 4750 3233 4129 
Q 3647 3509 3647 2328 
Q 3647 1150 3233 529 
Q 2819 -91 2034 -91 
Q 1250 -91 836 529 
Q 422 1150 422 2328 
Q 422 3509 836 4129 
Q 1250 4750 2034 4750 
z
" transform="scale(0.015625)"/>
       </defs>
       <use xlink:href="#DejaVuSans-30"/>
      </g>
     </g>
    </g>
    <g id="xtick_6">
     <g id="line2d_6">
      <g>
       <use xlink:href="#mdfd0fe13fa" x="274.059531" y="390.04" style="stroke: #000000; stroke-width: 0.8"/>
      </g>
     </g>
     <g id="text_6">
      <!-- 2 -->
      <g transform="translate(270.878281 404.638438) scale(0.1 -0.1)">
       <use xlink:href="#DejaVuSans-32"/>
      </g>
     </g>
    </g>
    <g id="xtick_7">
     <g id="line2d_7">
      <g>
       <use xlink:href="#mdfd0fe13fa" x="322.368437" y="390.04" style="stroke: #000000; stroke-width: 0.8"/>
      </g>
     </g>
     <g id="text_7">
      <!-- 4 -->
      <g transform="translate(319.187187 404.638438) scale(0.1 -0.1)">
       <use xlink:href="#DejaVuSans-34"/>
      </g>
     </g>
    </g>
    <g id="xtick_8">
     <g id="line2d_8">
      <g>
       <use xlink:href="#mdfd0fe13fa" x="370.677344" y="390.04" style="stroke: #000000; stroke-width: 0.8"/>
      </g>
     </g>
     <g id="text_8">
      <!-- 6 -->
      <g transform="translate(367.496094 404.638438) scale(0.1 -0.1)">
       <use xlink:href="#DejaVuSans-36"/>
      </g>
     </g>
    </g>
    <g id="xtick_9">
     <g id="line2d_9">
      <g>
       <use xlink:href="#mdfd0fe13fa" x="418.98625" y="390.04" style="stroke: #000000; stroke-width: 0.8"/>
      </g>
     </g>
     <g id="text_9">
      <!-- 8 -->
      <g transform="translate(415.805 404.638438) scale(0.1 -0.1)">
       <use xlink:href="#DejaVuSans-38"/>
      </g>
     </g>
    </g>
   </g>
   <g id="matplotlib.axis_2">
    <g id="ytick_1">
     <g id="line2d_10">
      <defs>
       <path id="m65f18731bf" d="M 0 0 
L -3.5 0 
" style="stroke: #000000; stroke-width: 0.8"/>
      </defs>
      <g>
       <use xlink:href="#m65f18731bf" x="32.515" y="390.04" style="stroke: #000000; stroke-width: 0.8"/>
      </g>
     </g>
     <g id="text_10">
      <!-- −8 -->
      <g transform="translate(10.772812 393.839219) scale(0.1 -0.1)">
       <use xlink:href="#DejaVuSans-2212"/>
       <use xlink:href="#DejaVuSans-38" x="83.789062"/>
      </g>
     </g>
    </g>
    <g id="ytick_2">
     <g id="line2d_11">
      <g>
       <use xlink:href="#m65f18731bf" x="32.515" y="343.13" style="stroke: #000000; stroke-width: 0.8"/>
      </g>
     </g>
     <g id="text_11">
      <!-- −6 -->
      <g transform="translate(10.772812 346.929219) scale(0.1 -0.1)">
       <use xlink:href="#DejaVuSans-2212"/>
       <use xlink:href="#DejaVuSans-36" x="83.789062"/>
      </g>
     </g>
    </g>
    <g id="ytick_3">
     <g id="line2d_12">
      <g>
       <use xlink:href="#m65f18731bf" x="32.515" y="296.22" style="stroke: #000000; stroke-width: 0.8"/>
      </g>
     </g>
     <g id="text_12">
      <!-- −4 -->
      <g transform="translate(10.772812 300.019219) scale(0.1 -0.1)">
       <use xlink:href="#DejaVuSans-2212"/>
       <use xlink:href="#DejaVuSans-34" x="83.789062"/>
      </g>
     </g>
    </g>
    <g id="ytick_4">
     <g id="line2d_13">
      <g>
       <use xlink:href="#m65f18731bf" x="32.515" y="249.31" style="stroke: #000000; stroke-width: 0.8"/>
      </g>
     </g>
     <g id="text_13">
      <!-- −2 -->
      <g transform="translate(10.772812 253.109219) scale(0.1 -0.1)">
       <use xlink:href="#DejaVuSans-2212"/>
       <use xlink:href="#DejaVuSans-32" x="83.789062"/>
      </g>
     </g>
    </g>
    <g id="ytick_5">
     <g id="line2d_14">
      <g>
       <use xlink:href="#m65f18731bf" x="32.515" y="202.4" style="stroke: #000000; stroke-width: 0.8"/>
      </g>
     </g>
     <g id="text_14">
      <!-- 0 -->
      <g transform="translate(19.1525 206.199219) scale(0.1 -0.1)">
       <use xlink:href="#DejaVuSans-30"/>
      </g>
     </g>
    </g>
    <g id="ytick_6">
     <g id="line2d_15">
      <g>
       <use xlink:href="#m65f18731bf" x="32.515" y="155.49" style="stroke: #000000; stroke-width: 0.8"/>
      </g>
     </g>
     <g id="text_15">
      <!-- 2 -->
      <g transform="translate(19.1525 159.289219) scale(0.1 -0.1)">
       <use xlink:href="#DejaVuSans-32"/>
      </g>
     </g>
    </g>
    <g id="ytick_7">
     <g id="line2d_16">
      <g>
       <use xlink:href="#m65f18731bf" x="32.515" y="108.58" style="stroke: #000000; stroke-width: 0.8"/>
      </g>
     </g>
     <g id="text_16">
      <!-- 4 -->
      <g transform="translate(19.1525 112.379219) scale(0.1 -0.1)">
       <use xlink:href="#DejaVuSans-34"/>
      </g>
     </g>
    </g>
    <g id="ytick_8">
     <g id="line2d_17">
      <g>
       <use xlink:href="#m65f18731bf" x="32.515" y="61.67" style="stroke: #000000; stroke-width: 0.8"/>
      </g>
     </g>
     <g id="text_17">
      <!-- 6 -->
      <g transform="translate(19.1525 65.469219) scale(0.1 -0.1)">
       <use xlink:href="#DejaVuSans-36"/>
      </g>
     </g>
    </g>
    <g id="ytick_9">
     <g id="line2d_18">
      <g>
       <use xlink:href="#m65f18731bf" x="32.515" y="14.76" style="stroke: #000000; stroke-width: 0.8"/>
      </g>
     </g>
     <g id="text_18">
      <!-- 8 -->
      <g transform="translate(19.1525 18.559219) scale(0.1 -0.1)">
       <use xlink:href="#DejaVuSans-38"/>
      </g>
     </g>
    </g>
   </g>
   <g id="PathCollection_5">
    <path d="M 200.37625 280.552829 
L 204.28 281.326969 
L 208.18375 281.68017 
L 212.0875 281.704395 
L 215.99125 281.458429 
L 219.895 280.950133 
L 223.79875 280.128738 
L 223.86106 280.109495 
L 227.7025 278.941982 
L 231.60625 277.2423 
L 233.188587 276.318788 
L 235.51 274.968297 
L 238.784847 272.528081 
L 239.41375 272.06507 
L 243.213759 268.737374 
L 243.3175 268.649638 
L 247.22125 264.9961 
L 247.271139 264.946667 
L 251.125 261.447674 
L 251.445174 261.15596 
L 255.02875 258.237101 
L 256.139356 257.365253 
L 258.9325 255.418733 
L 261.75158 253.574545 
L 262.83625 252.938407 
L 266.74 250.805153 
L 268.747986 249.783838 
L 270.64375 248.88629 
L 274.5475 247.118543 
L 277.070426 245.993131 
L 278.45125 245.368267 
L 282.355 243.511619 
L 284.825133 242.202424 
L 286.25875 241.325152 
L 290.1625 238.495128 
L 290.262919 238.411717 
L 293.794005 234.62101 
L 294.06625 234.224288 
L 296.221412 230.830303 
L 297.97 227.058866 
L 297.97886 227.039596 
L 299.377243 223.248889 
L 300.481732 219.458182 
L 301.357442 215.667475 
L 301.87375 212.756008 
L 302.04204 211.876768 
L 302.545305 208.086061 
L 302.815306 204.295354 
L 302.818476 200.504646 
L 302.499876 196.713939 
L 301.87375 193.411552 
L 301.779291 192.923232 
L 300.565614 189.132525 
L 298.675527 185.341818 
L 297.97 184.296047 
L 295.981746 181.551111 
L 294.06625 179.460638 
L 292.405196 177.760404 
L 290.1625 175.747962 
L 288.109066 173.969697 
L 286.25875 172.452163 
L 283.497109 170.17899 
L 282.355 169.243189 
L 279.012833 166.388283 
L 278.45125 165.897372 
L 274.943696 162.597576 
L 274.5475 162.20971 
L 271.390949 158.806869 
L 270.64375 157.955072 
L 268.323491 155.016162 
L 266.74 152.854654 
L 265.653385 151.225455 
L 263.343494 147.434747 
L 262.83625 146.516197 
L 261.332135 143.64404 
L 259.533282 139.853333 
L 258.9325 138.456067 
L 257.868195 136.062626 
L 256.295794 132.271919 
L 255.02875 129.053756 
L 254.761988 128.481212 
L 253.041294 124.690505 
L 251.263982 120.899798 
L 251.125 120.603371 
L 248.604007 117.109091 
L 247.22125 115.361751 
L 243.3175 113.489285 
L 239.41375 114.026999 
L 235.51 116.071646 
L 234.167798 117.109091 
L 231.60625 118.895324 
L 229.164318 120.899798 
L 227.7025 122.005709 
L 224.337318 124.690505 
L 223.79875 125.093443 
L 219.895 127.990249 
L 219.199985 128.481212 
L 215.99125 130.653167 
L 213.482848 132.271919 
L 212.0875 133.13458 
L 208.18375 135.471696 
L 207.185288 136.062626 
L 204.28 137.689756 
L 200.409272 139.853333 
L 200.37625 139.870571 
L 196.4725 141.900119 
L 193.074036 143.64404 
L 192.56875 143.887238 
L 188.665 145.748539 
L 185.106668 147.434747 
L 184.76125 147.599845 
L 180.8575 149.516161 
L 177.652088 151.225455 
L 176.95375 151.658629 
L 173.05 154.408531 
L 172.30084 155.016162 
L 169.14625 158.505365 
L 168.907657 158.806869 
L 166.698779 162.597576 
L 165.2425 166.179085 
L 165.159541 166.388283 
L 163.918311 170.17899 
L 162.843428 173.969697 
L 161.840179 177.760404 
L 161.33875 179.73238 
L 160.828205 181.551111 
L 159.822273 185.341818 
L 158.938949 189.132525 
L 158.261608 192.923232 
L 157.865562 196.713939 
L 157.798435 200.504646 
L 158.068256 204.295354 
L 158.640441 208.086061 
L 159.443676 211.876768 
L 160.384023 215.667475 
L 161.33875 219.351797 
L 161.362757 219.458182 
L 162.22826 223.248889 
L 163.034962 227.039596 
L 163.787029 230.830303 
L 164.524014 234.62101 
L 165.2425 238.085759 
L 165.308537 238.411717 
L 166.193479 242.202424 
L 167.295372 245.993131 
L 168.690277 249.783838 
L 169.14625 250.824439 
L 170.424988 253.574545 
L 172.56344 257.365253 
L 173.05 258.125177 
L 175.134007 261.15596 
L 176.95375 263.505953 
L 178.158532 264.946667 
L 180.8575 267.931295 
L 181.656242 268.737374 
L 184.76125 271.699668 
L 185.747128 272.528081 
L 188.665 274.862341 
L 190.870232 276.318788 
L 192.56875 277.386035 
L 196.4725 279.269308 
L 198.986168 280.109495 
L 200.37625 280.552829 
z
" clip-path="url(#p34c3d3b8a4)" style="fill: none; stroke-dasharray: 5.55,2.4; stroke-dashoffset: 0; stroke: #000000; stroke-width: 1.5"/>
   </g>
   <g id="patch_3">
    <path d="M 32.515 390.04 
L 32.515 14.76 
" style="fill: none; stroke: #000000; stroke-width: 0.8; stroke-linejoin: miter; stroke-linecap: square"/>
   </g>
   <g id="patch_4">
    <path d="M 418.98625 390.04 
L 418.98625 14.76 
" style="fill: none; stroke: #000000; stroke-width: 0.8; stroke-linejoin: miter; stroke-linecap: square"/>
   </g>
   <g id="patch_5">
    <path d="M 32.515 390.04 
L 418.98625 390.04 
" style="fill: none; stroke: #000000; stroke-width: 0.8; stroke-linejoin: miter; stroke-linecap: square"/>
   </g>
   <g id="patch_6">
    <path d="M 32.515 14.76 
L 418.98625 14.76 
" style="fill: none; stroke: #000000; stroke-width: 0.8; stroke-linejoin: miter; stroke-linecap: square"/>
   </g>
  </g>
  <g id="axes_2">
   <g id="patch_7">
    <path d="M 466.72875 390.04 
L 853.2 390.04 
L 853.2 14.76 
L 466.72875 14.76 
z
" style="fill: #ffffff"/>
   </g>
   <g id="matplotlib.axis_3">
    <g id="xtick_10">
     <g id="line2d_19">
      <g>
       <use xlink:href="#mdfd0fe13fa" x="484.295625" y="390.04" style="stroke: #000000; stroke-width: 0.8"/>
      </g>
     </g>
     <g id="text_19">
      <!-- 0 -->
      <g transform="translate(481.114375 404.638438) scale(0.1 -0.1)">
       <use xlink:href="#DejaVuSans-30"/>
      </g>
     </g>
    </g>
    <g id="xtick_11">
     <g id="line2d_20">
      <g>
       <use xlink:href="#mdfd0fe13fa" x="555.272898" y="390.04" style="stroke: #000000; stroke-width: 0.8"/>
      </g>
     </g>
     <g id="text_20">
      <!-- 20 -->
      <g transform="translate(548.910398 404.638438) scale(0.1 -0.1)">
       <use xlink:href="#DejaVuSans-32"/>
       <use xlink:href="#DejaVuSans-30" x="63.623047"/>
      </g>
     </g>
    </g>
    <g id="xtick_12">
     <g id="line2d_21">
      <g>
       <use xlink:href="#mdfd0fe13fa" x="626.25017" y="390.04" style="stroke: #000000; stroke-width: 0.8"/>
      </g>
     </g>
     <g id="text_21">
      <!-- 40 -->
      <g transform="translate(619.88767 404.638438) scale(0.1 -0.1)">
       <use xlink:href="#DejaVuSans-34"/>
       <use xlink:href="#DejaVuSans-30" x="63.623047"/>
      </g>
     </g>
    </g>
    <g id="xtick_13">
     <g id="line2d_22">
      <g>
       <use xlink:href="#mdfd0fe13fa" x="697.227443" y="390.04" style="stroke: #000000; stroke-width: 0.8"/>
      </g>
     </g>
     <g id="text_22">
      <!-- 60 -->
      <g transform="translate(690.864943 404.638438) scale(0.1 -0.1)">
       <use xlink:href="#DejaVuSans-36"/>
       <use xlink:href="#DejaVuSans-30" x="63.623047"/>
      </g>
     </g>
    </g>
    <g id="xtick_14">
     <g id="line2d_23">
      <g>
       <use xlink:href="#mdfd0fe13fa" x="768.204716" y="390.04" style="stroke: #000000; stroke-width: 0.8"/>
      </g>
     </g>
     <g id="text_23">
      <!-- 80 -->
      <g transform="translate(761.842216 404.638438) scale(0.1 -0.1)">
       <use xlink:href="#DejaVuSans-38"/>
       <use xlink:href="#DejaVuSans-30" x="63.623047"/>
      </g>
     </g>
    </g>
    <g id="xtick_15">
     <g id="line2d_24">
      <g>
       <use xlink:href="#mdfd0fe13fa" x="839.181989" y="390.04" style="stroke: #000000; stroke-width: 0.8"/>
      </g>
     </g>
     <g id="text_24">
      <!-- 100 -->
      <g transform="translate(829.638239 404.638438) scale(0.1 -0.1)">
       <defs>
        <path id="DejaVuSans-31" d="M 794 531 
L 1825 531 
L 1825 4091 
L 703 3866 
L 703 4441 
L 1819 4666 
L 2450 4666 
L 2450 531 
L 3481 531 
L 3481 0 
L 794 0 
L 794 531 
z
" transform="scale(0.015625)"/>
       </defs>
       <use xlink:href="#DejaVuSans-31"/>
       <use xlink:href="#DejaVuSans-30" x="63.623047"/>
       <use xlink:href="#DejaVuSans-30" x="127.246094"/>
      </g>
     </g>
    </g>
    <g id="text_25">
     <!-- Epoch -->
     <g transform="translate(644.653437 418.316562) scale(0.1 -0.1)">
      <defs>
       <path id="DejaVuSans-45" d="M 628 4666 
L 3578 4666 
L 3578 4134 
L 1259 4134 
L 1259 2753 
L 3481 2753 
L 3481 2222 
L 1259 2222 
L 1259 531 
L 3634 531 
L 3634 0 
L 628 0 
L 628 4666 
z
" transform="scale(0.015625)"/>
       <path id="DejaVuSans-70" d="M 1159 525 
L 1159 -1331 
L 581 -1331 
L 581 3500 
L 1159 3500 
L 1159 2969 
Q 1341 3281 1617 3432 
Q 1894 3584 2278 3584 
Q 2916 3584 3314 3078 
Q 3713 2572 3713 1747 
Q 3713 922 3314 415 
Q 2916 -91 2278 -91 
Q 1894 -91 1617 61 
Q 1341 213 1159 525 
z
M 3116 1747 
Q 3116 2381 2855 2742 
Q 2594 3103 2138 3103 
Q 1681 3103 1420 2742 
Q 1159 2381 1159 1747 
Q 1159 1113 1420 752 
Q 1681 391 2138 391 
Q 2594 391 2855 752 
Q 3116 1113 3116 1747 
z
" transform="scale(0.015625)"/>
       <path id="DejaVuSans-6f" d="M 1959 3097 
Q 1497 3097 1228 2736 
Q 959 2375 959 1747 
Q 959 1119 1226 758 
Q 1494 397 1959 397 
Q 2419 397 2687 759 
Q 2956 1122 2956 1747 
Q 2956 2369 2687 2733 
Q 2419 3097 1959 3097 
z
M 1959 3584 
Q 2709 3584 3137 3096 
Q 3566 2609 3566 1747 
Q 3566 888 3137 398 
Q 2709 -91 1959 -91 
Q 1206 -91 779 398 
Q 353 888 353 1747 
Q 353 2609 779 3096 
Q 1206 3584 1959 3584 
z
" transform="scale(0.015625)"/>
       <path id="DejaVuSans-63" d="M 3122 3366 
L 3122 2828 
Q 2878 2963 2633 3030 
Q 2388 3097 2138 3097 
Q 1578 3097 1268 2742 
Q 959 2388 959 1747 
Q 959 1106 1268 751 
Q 1578 397 2138 397 
Q 2388 397 2633 464 
Q 2878 531 3122 666 
L 3122 134 
Q 2881 22 2623 -34 
Q 2366 -91 2075 -91 
Q 1284 -91 818 406 
Q 353 903 353 1747 
Q 353 2603 823 3093 
Q 1294 3584 2113 3584 
Q 2378 3584 2631 3529 
Q 2884 3475 3122 3366 
z
" transform="scale(0.015625)"/>
       <path id="DejaVuSans-68" d="M 3513 2113 
L 3513 0 
L 2938 0 
L 2938 2094 
Q 2938 2591 2744 2837 
Q 2550 3084 2163 3084 
Q 1697 3084 1428 2787 
Q 1159 2491 1159 1978 
L 1159 0 
L 581 0 
L 581 4863 
L 1159 4863 
L 1159 2956 
Q 1366 3272 1645 3428 
Q 1925 3584 2291 3584 
Q 2894 3584 3203 3211 
Q 3513 2838 3513 2113 
z
" transform="scale(0.015625)"/>
      </defs>
      <use xlink:href="#DejaVuSans-45"/>
      <use xlink:href="#DejaVuSans-70" x="63.183594"/>
      <use xlink:href="#DejaVuSans-6f" x="126.660156"/>
      <use xlink:href="#DejaVuSans-63" x="187.841797"/>
      <use xlink:href="#DejaVuSans-68" x="242.822266"/>
     </g>
    </g>
   </g>
   <g id="matplotlib.axis_4">
    <g id="ytick_10">
     <g id="line2d_25">
      <g>
       <use xlink:href="#m65f18731bf" x="466.72875" y="376.273863" style="stroke: #000000; stroke-width: 0.8"/>
      </g>
     </g>
     <g id="text_26">
      <!-- 0 -->
      <g transform="translate(453.36625 380.073082) scale(0.1 -0.1)">
       <use xlink:href="#DejaVuSans-30"/>
      </g>
     </g>
    </g>
    <g id="ytick_11">
     <g id="line2d_26">
      <g>
       <use xlink:href="#m65f18731bf" x="466.72875" y="306.407166" style="stroke: #000000; stroke-width: 0.8"/>
      </g>
     </g>
     <g id="text_27">
      <!-- 2 -->
      <g transform="translate(453.36625 310.206384) scale(0.1 -0.1)">
       <use xlink:href="#DejaVuSans-32"/>
      </g>
     </g>
    </g>
    <g id="ytick_12">
     <g id="line2d_27">
      <g>
       <use xlink:href="#m65f18731bf" x="466.72875" y="236.540469" style="stroke: #000000; stroke-width: 0.8"/>
      </g>
     </g>
     <g id="text_28">
      <!-- 4 -->
      <g transform="translate(453.36625 240.339687) scale(0.1 -0.1)">
       <use xlink:href="#DejaVuSans-34"/>
      </g>
     </g>
    </g>
    <g id="ytick_13">
     <g id="line2d_28">
      <g>
       <use xlink:href="#m65f18731bf" x="466.72875" y="166.673771" style="stroke: #000000; stroke-width: 0.8"/>
      </g>
     </g>
     <g id="text_29">
      <!-- 6 -->
      <g transform="translate(453.36625 170.47299) scale(0.1 -0.1)">
       <use xlink:href="#DejaVuSans-36"/>
      </g>
     </g>
    </g>
    <g id="ytick_14">
     <g id="line2d_29">
      <g>
       <use xlink:href="#m65f18731bf" x="466.72875" y="96.807074" style="stroke: #000000; stroke-width: 0.8"/>
      </g>
     </g>
     <g id="text_30">
      <!-- 8 -->
      <g transform="translate(453.36625 100.606293) scale(0.1 -0.1)">
       <use xlink:href="#DejaVuSans-38"/>
      </g>
     </g>
    </g>
    <g id="ytick_15">
     <g id="line2d_30">
      <g>
       <use xlink:href="#m65f18731bf" x="466.72875" y="26.940377" style="stroke: #000000; stroke-width: 0.8"/>
      </g>
     </g>
     <g id="text_31">
      <!-- 10 -->
      <g transform="translate(447.00375 30.739596) scale(0.1 -0.1)">
       <use xlink:href="#DejaVuSans-31"/>
       <use xlink:href="#DejaVuSans-30" x="63.623047"/>
      </g>
     </g>
    </g>
    <g id="text_32">
     <!-- Loss -->
     <g transform="translate(440.924062 213.367188) rotate(-90) scale(0.1 -0.1)">
      <defs>
       <path id="DejaVuSans-4c" d="M 628 4666 
L 1259 4666 
L 1259 531 
L 3531 531 
L 3531 0 
L 628 0 
L 628 4666 
z
" transform="scale(0.015625)"/>
       <path id="DejaVuSans-73" d="M 2834 3397 
L 2834 2853 
Q 2591 2978 2328 3040 
Q 2066 3103 1784 3103 
Q 1356 3103 1142 2972 
Q 928 2841 928 2578 
Q 928 2378 1081 2264 
Q 1234 2150 1697 2047 
L 1894 2003 
Q 2506 1872 2764 1633 
Q 3022 1394 3022 966 
Q 3022 478 2636 193 
Q 2250 -91 1575 -91 
Q 1294 -91 989 -36 
Q 684 19 347 128 
L 347 722 
Q 666 556 975 473 
Q 1284 391 1588 391 
Q 1994 391 2212 530 
Q 2431 669 2431 922 
Q 2431 1156 2273 1281 
Q 2116 1406 1581 1522 
L 1381 1569 
Q 847 1681 609 1914 
Q 372 2147 372 2553 
Q 372 3047 722 3315 
Q 1072 3584 1716 3584 
Q 2034 3584 2315 3537 
Q 2597 3491 2834 3397 
z
" transform="scale(0.015625)"/>
      </defs>
      <use xlink:href="#DejaVuSans-4c"/>
      <use xlink:href="#DejaVuSans-6f" x="53.962891"/>
      <use xlink:href="#DejaVuSans-73" x="115.144531"/>
      <use xlink:href="#DejaVuSans-73" x="167.244141"/>
     </g>
    </g>
   </g>
   <g id="line2d_31">
    <path d="M 484.295625 31.818182 
L 487.844489 315.214511 
L 491.393352 328.439601 
L 494.942216 333.460484 
L 498.49108 337.554368 
L 502.039943 340.526419 
L 505.588807 343.308898 
L 509.13767 345.749987 
L 512.686534 348.663481 
L 516.235398 350.56986 
L 519.784261 352.750874 
L 523.333125 354.401878 
L 526.881989 355.699979 
L 530.430852 357.253818 
L 533.979716 358.569529 
L 537.52858 359.536015 
L 541.077443 360.492162 
L 544.626307 361.509969 
L 548.17517 362.384228 
L 551.724034 363.266703 
L 555.272898 363.839943 
L 558.821761 364.537247 
L 562.370625 365.126007 
L 565.919489 365.596826 
L 569.468352 366.034888 
L 573.017216 366.661028 
L 576.56608 366.990306 
L 580.114943 367.363264 
L 583.663807 367.788143 
L 587.21267 368.017136 
L 590.761534 368.312042 
L 594.310398 368.705236 
L 597.859261 368.903281 
L 601.408125 369.118076 
L 604.956989 369.303562 
L 608.505852 369.561754 
L 612.054716 369.740172 
L 615.60358 369.886397 
L 619.152443 370.128051 
L 622.701307 370.283477 
L 626.25017 370.335896 
L 629.799034 370.509151 
L 633.347898 370.611951 
L 636.896761 370.769408 
L 640.445625 370.845299 
L 643.994489 370.973716 
L 647.543352 370.978079 
L 651.092216 371.146829 
L 654.64108 371.183973 
L 658.189943 371.312328 
L 661.738807 371.351395 
L 665.28767 371.442407 
L 668.836534 371.544359 
L 672.385398 371.615015 
L 675.934261 371.683548 
L 679.483125 371.706034 
L 683.031989 371.761484 
L 686.580852 371.797863 
L 690.129716 371.897337 
L 693.67858 371.913353 
L 697.227443 371.982233 
L 700.776307 371.998079 
L 704.32517 372.046221 
L 707.874034 372.088688 
L 711.422898 372.160525 
L 714.971761 372.190383 
L 718.520625 372.23382 
L 722.069489 372.26333 
L 725.618352 372.286536 
L 729.167216 372.324946 
L 732.71608 372.361958 
L 736.264943 372.379259 
L 739.813807 372.394516 
L 743.36267 372.432345 
L 746.911534 372.482951 
L 750.460398 372.478236 
L 754.009261 372.557026 
L 757.558125 372.497216 
L 761.106989 372.607121 
L 764.655852 372.622609 
L 768.204716 372.634784 
L 771.75358 372.606439 
L 775.302443 372.696163 
L 778.851307 372.682845 
L 782.40017 372.715866 
L 785.949034 372.748168 
L 789.497898 372.752156 
L 793.046761 372.773069 
L 796.595625 372.776639 
L 800.144489 372.836288 
L 803.693352 372.822547 
L 807.242216 372.848324 
L 810.79108 372.859457 
L 814.339943 372.864646 
L 817.888807 372.914301 
L 821.43767 372.928555 
L 824.986534 372.906704 
L 828.535398 372.958281 
L 832.084261 372.980214 
L 835.633125 372.981818 
" clip-path="url(#p5793ff94cd)" style="fill: none; stroke: #1f77b4; stroke-width: 1.5; stroke-linecap: square"/>
   </g>
   <g id="patch_8">
    <path d="M 466.72875 390.04 
L 466.72875 14.76 
" style="fill: none; stroke: #000000; stroke-width: 0.8; stroke-linejoin: miter; stroke-linecap: square"/>
   </g>
   <g id="patch_9">
    <path d="M 853.2 390.04 
L 853.2 14.76 
" style="fill: none; stroke: #000000; stroke-width: 0.8; stroke-linejoin: miter; stroke-linecap: square"/>
   </g>
   <g id="patch_10">
    <path d="M 466.72875 390.04 
L 853.2 390.04 
" style="fill: none; stroke: #000000; stroke-width: 0.8; stroke-linejoin: miter; stroke-linecap: square"/>
   </g>
   <g id="patch_11">
    <path d="M 466.72875 14.76 
L 853.2 14.76 
" style="fill: none; stroke: #000000; stroke-width: 0.8; stroke-linejoin: miter; stroke-linecap: square"/>
   </g>
  </g>
 </g>
 <defs>
  <clipPath id="p34c3d3b8a4">
   <rect x="32.515" y="14.76" width="386.47125" height="375.28"/>
  </clipPath>
  <clipPath id="p5793ff94cd">
   <rect x="466.72875" y="14.76" width="386.47125" height="375.28"/>
  </clipPath>
 </defs>
</svg>
