<?xml version="1.0" encoding="utf-8" standalone="no"?>
<!DOCTYPE svg PUBLIC "-//W3C//DTD SVG 1.1//EN"
  "http://www.w3.org/Graphics/SVG/1.1/DTD/svg11.dtd">
<svg xmlns:xlink="http://www.w3.org/1999/xlink" width="288pt" height="576pt" viewBox="0 0 288 576" xmlns="http://www.w3.org/2000/svg" version="1.1">
 <metadata>
  <rdf:RDF xmlns:dc="http://purl.org/dc/elements/1.1/" xmlns:cc="http://creativecommons.org/ns#" xmlns:rdf="http://www.w3.org/1999/02/22-rdf-syntax-ns#">
   <cc:Work>
    <dc:type rdf:resource="http://purl.org/dc/dcmitype/StillImage"/>
    <dc:date>2024-05-30T21:02:25.999090</dc:date>
    <dc:format>image/svg+xml</dc:format>
    <dc:creator>
     <cc:Agent>
      <dc:title>Matplotlib v3.8.4, https://matplotlib.org/</dc:title>
     </cc:Agent>
    </dc:creator>
   </cc:Work>
  </rdf:RDF>
 </metadata>
 <defs>
  <style type="text/css">*{stroke-linejoin: round; stroke-linecap: butt}</style>
 </defs>
 <g id="figure_1">
  <g id="patch_1">
   <path d="M 0 576 
L 288 576 
L 288 0 
L 0 0 
z
" style="fill: #ffffff"/>
  </g>
  <g id="axes_1">
   <g id="patch_2">
    <path d="M 68.825 565.2 
L 277.2 565.2 
L 277.2 10.8 
L 68.825 10.8 
z
" style="fill: #ffffff"/>
   </g>
   <g id="matplotlib.axis_1"/>
   <g id="matplotlib.axis_2">
    <g id="ytick_1">
     <g id="line2d_1">
      <defs>
       <path id="mfa5f007abc" d="M 0 0 
L -3.5 0 
" style="stroke: #000000; stroke-width: 0.8"/>
      </defs>
      <g>
       <use xlink:href="#mfa5f007abc" x="68.825" y="487.798856" style="stroke: #000000; stroke-width: 0.8"/>
      </g>
     </g>
     <g id="text_1">
      <!-- −1.802 -->
      <g transform="translate(24.817188 491.598075) scale(0.1 -0.1)">
       <defs>
        <path id="DejaVuSans-2212" d="M 678 2272 
L 4684 2272 
L 4684 1741 
L 678 1741 
L 678 2272 
z
" transform="scale(0.015625)"/>
        <path id="DejaVuSans-31" d="M 794 531 
L 1825 531 
L 1825 4091 
L 703 3866 
L 703 4441 
L 1819 4666 
L 2450 4666 
L 2450 531 
L 3481 531 
L 3481 0 
L 794 0 
L 794 531 
z
" transform="scale(0.015625)"/>
        <path id="DejaVuSans-2e" d="M 684 794 
L 1344 794 
L 1344 0 
L 684 0 
L 684 794 
z
" transform="scale(0.015625)"/>
        <path id="DejaVuSans-38" d="M 2034 2216 
Q 1584 2216 1326 1975 
Q 1069 1734 1069 1313 
Q 1069 891 1326 650 
Q 1584 409 2034 409 
Q 2484 409 2743 651 
Q 3003 894 3003 1313 
Q 3003 1734 2745 1975 
Q 2488 2216 2034 2216 
z
M 1403 2484 
Q 997 2584 770 2862 
Q 544 3141 544 3541 
Q 544 4100 942 4425 
Q 1341 4750 2034 4750 
Q 2731 4750 3128 4425 
Q 3525 4100 3525 3541 
Q 3525 3141 3298 2862 
Q 3072 2584 2669 2484 
Q 3125 2378 3379 2068 
Q 3634 1759 3634 1313 
Q 3634 634 3220 271 
Q 2806 -91 2034 -91 
Q 1263 -91 848 271 
Q 434 634 434 1313 
Q 434 1759 690 2068 
Q 947 2378 1403 2484 
z
M 1172 3481 
Q 1172 3119 1398 2916 
Q 1625 2713 2034 2713 
Q 2441 2713 2670 2916 
Q 2900 3119 2900 3481 
Q 2900 3844 2670 4047 
Q 2441 4250 2034 4250 
Q 1625 4250 1398 4047 
Q 1172 3844 1172 3481 
z
" transform="scale(0.015625)"/>
        <path id="DejaVuSans-30" d="M 2034 4250 
Q 1547 4250 1301 3770 
Q 1056 3291 1056 2328 
Q 1056 1369 1301 889 
Q 1547 409 2034 409 
Q 2525 409 2770 889 
Q 3016 1369 3016 2328 
Q 3016 3291 2770 3770 
Q 2525 4250 2034 4250 
z
M 2034 4750 
Q 2819 4750 3233 4129 
Q 3647 3509 3647 2328 
Q 3647 1150 3233 529 
Q 2819 -91 2034 -91 
Q 1250 -91 836 529 
Q 422 1150 422 2328 
Q 422 3509 836 4129 
Q 1250 4750 2034 4750 
z
" transform="scale(0.015625)"/>
        <path id="DejaVuSans-32" d="M 1228 531 
L 3431 531 
L 3431 0 
L 469 0 
L 469 531 
Q 828 903 1448 1529 
Q 2069 2156 2228 2338 
Q 2531 2678 2651 2914 
Q 2772 3150 2772 3378 
Q 2772 3750 2511 3984 
Q 2250 4219 1831 4219 
Q 1534 4219 1204 4116 
Q 875 4013 500 3803 
L 500 4441 
Q 881 4594 1212 4672 
Q 1544 4750 1819 4750 
Q 2544 4750 2975 4387 
Q 3406 4025 3406 3419 
Q 3406 3131 3298 2873 
Q 3191 2616 2906 2266 
Q 2828 2175 2409 1742 
Q 1991 1309 1228 531 
z
" transform="scale(0.015625)"/>
       </defs>
       <use xlink:href="#DejaVuSans-2212"/>
       <use xlink:href="#DejaVuSans-31" x="83.789062"/>
       <use xlink:href="#DejaVuSans-2e" x="147.412109"/>
       <use xlink:href="#DejaVuSans-38" x="179.199219"/>
       <use xlink:href="#DejaVuSans-30" x="242.822266"/>
       <use xlink:href="#DejaVuSans-32" x="306.445312"/>
      </g>
     </g>
    </g>
    <g id="ytick_2">
     <g id="line2d_2">
      <g>
       <use xlink:href="#mfa5f007abc" x="68.825" y="426.265098" style="stroke: #000000; stroke-width: 0.8"/>
      </g>
     </g>
     <g id="text_2">
      <!-- −1.247 -->
      <g transform="translate(24.817188 430.064317) scale(0.1 -0.1)">
       <defs>
        <path id="DejaVuSans-34" d="M 2419 4116 
L 825 1625 
L 2419 1625 
L 2419 4116 
z
M 2253 4666 
L 3047 4666 
L 3047 1625 
L 3713 1625 
L 3713 1100 
L 3047 1100 
L 3047 0 
L 2419 0 
L 2419 1100 
L 313 1100 
L 313 1709 
L 2253 4666 
z
" transform="scale(0.015625)"/>
        <path id="DejaVuSans-37" d="M 525 4666 
L 3525 4666 
L 3525 4397 
L 1831 0 
L 1172 0 
L 2766 4134 
L 525 4134 
L 525 4666 
z
" transform="scale(0.015625)"/>
       </defs>
       <use xlink:href="#DejaVuSans-2212"/>
       <use xlink:href="#DejaVuSans-31" x="83.789062"/>
       <use xlink:href="#DejaVuSans-2e" x="147.412109"/>
       <use xlink:href="#DejaVuSans-32" x="179.199219"/>
       <use xlink:href="#DejaVuSans-34" x="242.822266"/>
       <use xlink:href="#DejaVuSans-37" x="306.445312"/>
      </g>
     </g>
    </g>
    <g id="ytick_3">
     <g id="line2d_3">
      <g>
       <use xlink:href="#mfa5f007abc" x="68.825" y="337.346242" style="stroke: #000000; stroke-width: 0.8"/>
      </g>
     </g>
     <g id="text_3">
      <!-- −0.445 -->
      <g transform="translate(24.817188 341.145461) scale(0.1 -0.1)">
       <defs>
        <path id="DejaVuSans-35" d="M 691 4666 
L 3169 4666 
L 3169 4134 
L 1269 4134 
L 1269 2991 
Q 1406 3038 1543 3061 
Q 1681 3084 1819 3084 
Q 2600 3084 3056 2656 
Q 3513 2228 3513 1497 
Q 3513 744 3044 326 
Q 2575 -91 1722 -91 
Q 1428 -91 1123 -41 
Q 819 9 494 109 
L 494 744 
Q 775 591 1075 516 
Q 1375 441 1709 441 
Q 2250 441 2565 725 
Q 2881 1009 2881 1497 
Q 2881 1984 2565 2268 
Q 2250 2553 1709 2553 
Q 1456 2553 1204 2497 
Q 953 2441 691 2322 
L 691 4666 
z
" transform="scale(0.015625)"/>
       </defs>
       <use xlink:href="#DejaVuSans-2212"/>
       <use xlink:href="#DejaVuSans-30" x="83.789062"/>
       <use xlink:href="#DejaVuSans-2e" x="147.412109"/>
       <use xlink:href="#DejaVuSans-34" x="179.199219"/>
       <use xlink:href="#DejaVuSans-34" x="242.822266"/>
       <use xlink:href="#DejaVuSans-35" x="306.445312"/>
      </g>
     </g>
    </g>
    <g id="ytick_4">
     <g id="line2d_4">
      <g>
       <use xlink:href="#mfa5f007abc" x="68.825" y="238.653758" style="stroke: #000000; stroke-width: 0.8"/>
      </g>
     </g>
     <g id="text_4">
      <!-- 0.445 -->
      <g transform="translate(33.196875 242.452976) scale(0.1 -0.1)">
       <use xlink:href="#DejaVuSans-30"/>
       <use xlink:href="#DejaVuSans-2e" x="63.623047"/>
       <use xlink:href="#DejaVuSans-34" x="95.410156"/>
       <use xlink:href="#DejaVuSans-34" x="159.033203"/>
       <use xlink:href="#DejaVuSans-35" x="222.65625"/>
      </g>
     </g>
    </g>
    <g id="ytick_5">
     <g id="line2d_5">
      <g>
       <use xlink:href="#mfa5f007abc" x="68.825" y="149.734902" style="stroke: #000000; stroke-width: 0.8"/>
      </g>
     </g>
     <g id="text_5">
      <!-- 1.247 -->
      <g transform="translate(33.196875 153.53412) scale(0.1 -0.1)">
       <use xlink:href="#DejaVuSans-31"/>
       <use xlink:href="#DejaVuSans-2e" x="63.623047"/>
       <use xlink:href="#DejaVuSans-32" x="95.410156"/>
       <use xlink:href="#DejaVuSans-34" x="159.033203"/>
       <use xlink:href="#DejaVuSans-37" x="222.65625"/>
      </g>
     </g>
    </g>
    <g id="ytick_6">
     <g id="line2d_6">
      <g>
       <use xlink:href="#mfa5f007abc" x="68.825" y="88.201144" style="stroke: #000000; stroke-width: 0.8"/>
      </g>
     </g>
     <g id="text_6">
      <!-- 1.802 -->
      <g transform="translate(33.196875 92.000363) scale(0.1 -0.1)">
       <use xlink:href="#DejaVuSans-31"/>
       <use xlink:href="#DejaVuSans-2e" x="63.623047"/>
       <use xlink:href="#DejaVuSans-38" x="95.410156"/>
       <use xlink:href="#DejaVuSans-30" x="159.033203"/>
       <use xlink:href="#DejaVuSans-32" x="222.65625"/>
      </g>
     </g>
    </g>
    <g id="text_7">
     <!-- energy -->
     <g transform="translate(18.7375 305.423438) rotate(-90) scale(0.1 -0.1)">
      <defs>
       <path id="DejaVuSans-65" d="M 3597 1894 
L 3597 1613 
L 953 1613 
Q 991 1019 1311 708 
Q 1631 397 2203 397 
Q 2534 397 2845 478 
Q 3156 559 3463 722 
L 3463 178 
Q 3153 47 2828 -22 
Q 2503 -91 2169 -91 
Q 1331 -91 842 396 
Q 353 884 353 1716 
Q 353 2575 817 3079 
Q 1281 3584 2069 3584 
Q 2775 3584 3186 3129 
Q 3597 2675 3597 1894 
z
M 3022 2063 
Q 3016 2534 2758 2815 
Q 2500 3097 2075 3097 
Q 1594 3097 1305 2825 
Q 1016 2553 972 2059 
L 3022 2063 
z
" transform="scale(0.015625)"/>
       <path id="DejaVuSans-6e" d="M 3513 2113 
L 3513 0 
L 2938 0 
L 2938 2094 
Q 2938 2591 2744 2837 
Q 2550 3084 2163 3084 
Q 1697 3084 1428 2787 
Q 1159 2491 1159 1978 
L 1159 0 
L 581 0 
L 581 3500 
L 1159 3500 
L 1159 2956 
Q 1366 3272 1645 3428 
Q 1925 3584 2291 3584 
Q 2894 3584 3203 3211 
Q 3513 2838 3513 2113 
z
" transform="scale(0.015625)"/>
       <path id="DejaVuSans-72" d="M 2631 2963 
Q 2534 3019 2420 3045 
Q 2306 3072 2169 3072 
Q 1681 3072 1420 2755 
Q 1159 2438 1159 1844 
L 1159 0 
L 581 0 
L 581 3500 
L 1159 3500 
L 1159 2956 
Q 1341 3275 1631 3429 
Q 1922 3584 2338 3584 
Q 2397 3584 2469 3576 
Q 2541 3569 2628 3553 
L 2631 2963 
z
" transform="scale(0.015625)"/>
       <path id="DejaVuSans-67" d="M 2906 1791 
Q 2906 2416 2648 2759 
Q 2391 3103 1925 3103 
Q 1463 3103 1205 2759 
Q 947 2416 947 1791 
Q 947 1169 1205 825 
Q 1463 481 1925 481 
Q 2391 481 2648 825 
Q 2906 1169 2906 1791 
z
M 3481 434 
Q 3481 -459 3084 -895 
Q 2688 -1331 1869 -1331 
Q 1566 -1331 1297 -1286 
Q 1028 -1241 775 -1147 
L 775 -588 
Q 1028 -725 1275 -790 
Q 1522 -856 1778 -856 
Q 2344 -856 2625 -561 
Q 2906 -266 2906 331 
L 2906 616 
Q 2728 306 2450 153 
Q 2172 0 1784 0 
Q 1141 0 747 490 
Q 353 981 353 1791 
Q 353 2603 747 3093 
Q 1141 3584 1784 3584 
Q 2172 3584 2450 3431 
Q 2728 3278 2906 2969 
L 2906 3500 
L 3481 3500 
L 3481 434 
z
" transform="scale(0.015625)"/>
       <path id="DejaVuSans-79" d="M 2059 -325 
Q 1816 -950 1584 -1140 
Q 1353 -1331 966 -1331 
L 506 -1331 
L 506 -850 
L 844 -850 
Q 1081 -850 1212 -737 
Q 1344 -625 1503 -206 
L 1606 56 
L 191 3500 
L 800 3500 
L 1894 763 
L 2988 3500 
L 3597 3500 
L 2059 -325 
z
" transform="scale(0.015625)"/>
      </defs>
      <use xlink:href="#DejaVuSans-65"/>
      <use xlink:href="#DejaVuSans-6e" x="61.523438"/>
      <use xlink:href="#DejaVuSans-65" x="124.902344"/>
      <use xlink:href="#DejaVuSans-72" x="186.425781"/>
      <use xlink:href="#DejaVuSans-67" x="225.789062"/>
      <use xlink:href="#DejaVuSans-79" x="289.265625"/>
     </g>
    </g>
   </g>
   <g id="line2d_7">
    <path d="M 89.6625 487.798856 
L 256.3625 487.798856 
" clip-path="url(#p591cbd4465)" style="fill: none; stroke-dasharray: 5.55,2.4; stroke-dashoffset: 0; stroke: #000000; stroke-width: 1.5"/>
   </g>
   <g id="line2d_8">
    <defs>
     <path id="mc1fdfacc44" d="M 0 2.689359 
C 0.713226 2.689359 1.397337 2.405991 1.901664 1.901664 
C 2.405991 1.397337 2.689359 0.713226 2.689359 0 
C 2.689359 -0.713226 2.405991 -1.397337 1.901664 -1.901664 
C 1.397337 -2.405991 0.713226 -2.689359 0 -2.689359 
C -0.713226 -2.689359 -1.397337 -2.405991 -1.901664 -1.901664 
C -2.405991 -1.397337 -2.689359 -0.713226 -2.689359 0 
C -2.689359 0.713226 -2.405991 1.397337 -1.901664 1.901664 
C -1.397337 2.405991 -0.713226 2.689359 0 2.689359 
z
" style="stroke: #0000ff"/>
    </defs>
    <g clip-path="url(#p591cbd4465)">
     <use xlink:href="#mc1fdfacc44" x="86.189583" y="487.798856" style="fill: #0000ff; stroke: #0000ff"/>
    </g>
   </g>
   <g id="line2d_9">
    <defs>
     <path id="ma4d80f5445" d="M 0 8.732292 
C 2.315831 8.732292 4.537123 7.812203 6.174663 6.174663 
C 7.812203 4.537123 8.732292 2.315831 8.732292 0 
C 8.732292 -2.315831 7.812203 -4.537123 6.174663 -6.174663 
C 4.537123 -7.812203 2.315831 -8.732292 0 -8.732292 
C -2.315831 -8.732292 -4.537123 -7.812203 -6.174663 -6.174663 
C -7.812203 -4.537123 -8.732292 -2.315831 -8.732292 0 
C -8.732292 2.315831 -7.812203 4.537123 -6.174663 6.174663 
C -4.537123 7.812203 -2.315831 8.732292 0 8.732292 
z
" style="stroke: #0000ff"/>
    </defs>
    <g clip-path="url(#p591cbd4465)">
     <use xlink:href="#ma4d80f5445" x="120.91875" y="487.798856" style="fill: #0000ff; stroke: #0000ff"/>
    </g>
   </g>
   <g id="line2d_10">
    <defs>
     <path id="me1cf21091c" d="M 0 13.578349 
C 3.60102 13.578349 7.055037 12.147649 9.601343 9.601343 
C 12.147649 7.055037 13.578349 3.60102 13.578349 0 
C 13.578349 -3.60102 12.147649 -7.055037 9.601343 -9.601343 
C 7.055037 -12.147649 3.60102 -13.578349 0 -13.578349 
C -3.60102 -13.578349 -7.055037 -12.147649 -9.601343 -9.601343 
C -12.147649 -7.055037 -13.578349 -3.60102 -13.578349 0 
C -13.578349 3.60102 -12.147649 7.055037 -9.601343 9.601343 
C -7.055037 12.147649 -3.60102 13.578349 0 13.578349 
z
" style="stroke: #0000ff"/>
    </defs>
    <g clip-path="url(#p591cbd4465)">
     <use xlink:href="#me1cf21091c" x="155.647917" y="487.798856" style="fill: #0000ff; stroke: #0000ff"/>
    </g>
   </g>
   <g id="line2d_11">
    <g clip-path="url(#p591cbd4465)">
     <use xlink:href="#me1cf21091c" x="190.377083" y="487.798856" style="fill: #0000ff; stroke: #0000ff"/>
    </g>
   </g>
   <g id="line2d_12">
    <g clip-path="url(#p591cbd4465)">
     <use xlink:href="#ma4d80f5445" x="225.10625" y="487.798856" style="fill: #0000ff; stroke: #0000ff"/>
    </g>
   </g>
   <g id="line2d_13">
    <g clip-path="url(#p591cbd4465)">
     <use xlink:href="#mc1fdfacc44" x="259.835417" y="487.798856" style="fill: #0000ff; stroke: #0000ff"/>
    </g>
   </g>
   <g id="line2d_14">
    <path d="M 89.6625 426.265098 
L 256.3625 426.265098 
" clip-path="url(#p591cbd4465)" style="fill: none; stroke-dasharray: 5.55,2.4; stroke-dashoffset: 0; stroke: #000000; stroke-width: 1.5"/>
   </g>
   <g id="line2d_15">
    <defs>
     <path id="m3f98d75f21" d="M 0 8.732292 
C 2.315831 8.732292 4.537123 7.812203 6.174663 6.174663 
C 7.812203 4.537123 8.732292 2.315831 8.732292 0 
C 8.732292 -2.315831 7.812203 -4.537123 6.174663 -6.174663 
C 4.537123 -7.812203 2.315831 -8.732292 0 -8.732292 
C -2.315831 -8.732292 -4.537123 -7.812203 -6.174663 -6.174663 
C -7.812203 -4.537123 -8.732292 -2.315831 -8.732292 0 
C -8.732292 2.315831 -7.812203 4.537123 -6.174663 6.174663 
C -4.537123 7.812203 -2.315831 8.732292 0 8.732292 
z
" style="stroke: #ff0000"/>
    </defs>
    <g clip-path="url(#p591cbd4465)">
     <use xlink:href="#m3f98d75f21" x="86.189583" y="426.265098" style="fill: #ff0000; stroke: #ff0000"/>
    </g>
   </g>
   <g id="line2d_16">
    <defs>
     <path id="mb57f81ebeb" d="M 0 13.578349 
C 3.60102 13.578349 7.055037 12.147649 9.601343 9.601343 
C 12.147649 7.055037 13.578349 3.60102 13.578349 0 
C 13.578349 -3.60102 12.147649 -7.055037 9.601343 -9.601343 
C 7.055037 -12.147649 3.60102 -13.578349 0 -13.578349 
C -3.60102 -13.578349 -7.055037 -12.147649 -9.601343 -9.601343 
C -12.147649 -7.055037 -13.578349 -3.60102 -13.578349 0 
C -13.578349 3.60102 -12.147649 7.055037 -9.601343 9.601343 
C -7.055037 12.147649 -3.60102 13.578349 0 13.578349 
z
" style="stroke: #ff0000"/>
    </defs>
    <g clip-path="url(#p591cbd4465)">
     <use xlink:href="#mb57f81ebeb" x="120.91875" y="426.265098" style="fill: #ff0000; stroke: #ff0000"/>
    </g>
   </g>
   <g id="line2d_17">
    <defs>
     <path id="m7f68b2f152" d="M 0 2.689359 
C 0.713226 2.689359 1.397337 2.405991 1.901664 1.901664 
C 2.405991 1.397337 2.689359 0.713226 2.689359 0 
C 2.689359 -0.713226 2.405991 -1.397337 1.901664 -1.901664 
C 1.397337 -2.405991 0.713226 -2.689359 0 -2.689359 
C -0.713226 -2.689359 -1.397337 -2.405991 -1.901664 -1.901664 
C -2.405991 -1.397337 -2.689359 -0.713226 -2.689359 0 
C -2.689359 0.713226 -2.405991 1.397337 -1.901664 1.901664 
C -1.397337 2.405991 -0.713226 2.689359 0 2.689359 
z
" style="stroke: #ff0000"/>
    </defs>
    <g clip-path="url(#p591cbd4465)">
     <use xlink:href="#m7f68b2f152" x="155.647917" y="426.265098" style="fill: #ff0000; stroke: #ff0000"/>
    </g>
   </g>
   <g id="line2d_18">
    <g clip-path="url(#p591cbd4465)">
     <use xlink:href="#mc1fdfacc44" x="190.377083" y="426.265098" style="fill: #0000ff; stroke: #0000ff"/>
    </g>
   </g>
   <g id="line2d_19">
    <g clip-path="url(#p591cbd4465)">
     <use xlink:href="#me1cf21091c" x="225.10625" y="426.265098" style="fill: #0000ff; stroke: #0000ff"/>
    </g>
   </g>
   <g id="line2d_20">
    <g clip-path="url(#p591cbd4465)">
     <use xlink:href="#ma4d80f5445" x="259.835417" y="426.265098" style="fill: #0000ff; stroke: #0000ff"/>
    </g>
   </g>
   <g id="line2d_21">
    <path d="M 89.6625 337.346242 
L 256.3625 337.346242 
" clip-path="url(#p591cbd4465)" style="fill: none; stroke-dasharray: 5.55,2.4; stroke-dashoffset: 0; stroke: #000000; stroke-width: 1.5"/>
   </g>
   <g id="line2d_22">
    <g clip-path="url(#p591cbd4465)">
     <use xlink:href="#me1cf21091c" x="86.189583" y="337.346242" style="fill: #0000ff; stroke: #0000ff"/>
    </g>
   </g>
   <g id="line2d_23">
    <g clip-path="url(#p591cbd4465)">
     <use xlink:href="#mc1fdfacc44" x="120.91875" y="337.346242" style="fill: #0000ff; stroke: #0000ff"/>
    </g>
   </g>
   <g id="line2d_24">
    <g clip-path="url(#p591cbd4465)">
     <use xlink:href="#m3f98d75f21" x="155.647917" y="337.346242" style="fill: #ff0000; stroke: #ff0000"/>
    </g>
   </g>
   <g id="line2d_25">
    <g clip-path="url(#p591cbd4465)">
     <use xlink:href="#m3f98d75f21" x="190.377083" y="337.346242" style="fill: #ff0000; stroke: #ff0000"/>
    </g>
   </g>
   <g id="line2d_26">
    <g clip-path="url(#p591cbd4465)">
     <use xlink:href="#mc1fdfacc44" x="225.10625" y="337.346242" style="fill: #0000ff; stroke: #0000ff"/>
    </g>
   </g>
   <g id="line2d_27">
    <g clip-path="url(#p591cbd4465)">
     <use xlink:href="#me1cf21091c" x="259.835417" y="337.346242" style="fill: #0000ff; stroke: #0000ff"/>
    </g>
   </g>
   <g id="line2d_28">
    <path d="M 89.6625 238.653758 
L 256.3625 238.653758 
" clip-path="url(#p591cbd4465)" style="fill: none; stroke-dasharray: 5.55,2.4; stroke-dashoffset: 0; stroke: #000000; stroke-width: 1.5"/>
   </g>
   <g id="line2d_29">
    <g clip-path="url(#p591cbd4465)">
     <use xlink:href="#me1cf21091c" x="86.189583" y="238.653758" style="fill: #0000ff; stroke: #0000ff"/>
    </g>
   </g>
   <g id="line2d_30">
    <g clip-path="url(#p591cbd4465)">
     <use xlink:href="#m7f68b2f152" x="120.91875" y="238.653758" style="fill: #ff0000; stroke: #ff0000"/>
    </g>
   </g>
   <g id="line2d_31">
    <g clip-path="url(#p591cbd4465)">
     <use xlink:href="#m3f98d75f21" x="155.647917" y="238.653758" style="fill: #ff0000; stroke: #ff0000"/>
    </g>
   </g>
   <g id="line2d_32">
    <g clip-path="url(#p591cbd4465)">
     <use xlink:href="#ma4d80f5445" x="190.377083" y="238.653758" style="fill: #0000ff; stroke: #0000ff"/>
    </g>
   </g>
   <g id="line2d_33">
    <g clip-path="url(#p591cbd4465)">
     <use xlink:href="#mc1fdfacc44" x="225.10625" y="238.653758" style="fill: #0000ff; stroke: #0000ff"/>
    </g>
   </g>
   <g id="line2d_34">
    <g clip-path="url(#p591cbd4465)">
     <use xlink:href="#mb57f81ebeb" x="259.835417" y="238.653758" style="fill: #ff0000; stroke: #ff0000"/>
    </g>
   </g>
   <g id="line2d_35">
    <path d="M 89.6625 149.734902 
L 256.3625 149.734902 
" clip-path="url(#p591cbd4465)" style="fill: none; stroke-dasharray: 5.55,2.4; stroke-dashoffset: 0; stroke: #000000; stroke-width: 1.5"/>
   </g>
   <g id="line2d_36">
    <g clip-path="url(#p591cbd4465)">
     <use xlink:href="#ma4d80f5445" x="86.189583" y="149.734902" style="fill: #0000ff; stroke: #0000ff"/>
    </g>
   </g>
   <g id="line2d_37">
    <g clip-path="url(#p591cbd4465)">
     <use xlink:href="#mb57f81ebeb" x="120.91875" y="149.734902" style="fill: #ff0000; stroke: #ff0000"/>
    </g>
   </g>
   <g id="line2d_38">
    <g clip-path="url(#p591cbd4465)">
     <use xlink:href="#mc1fdfacc44" x="155.647917" y="149.734902" style="fill: #0000ff; stroke: #0000ff"/>
    </g>
   </g>
   <g id="line2d_39">
    <g clip-path="url(#p591cbd4465)">
     <use xlink:href="#mc1fdfacc44" x="190.377083" y="149.734902" style="fill: #0000ff; stroke: #0000ff"/>
    </g>
   </g>
   <g id="line2d_40">
    <g clip-path="url(#p591cbd4465)">
     <use xlink:href="#mb57f81ebeb" x="225.10625" y="149.734902" style="fill: #ff0000; stroke: #ff0000"/>
    </g>
   </g>
   <g id="line2d_41">
    <g clip-path="url(#p591cbd4465)">
     <use xlink:href="#ma4d80f5445" x="259.835417" y="149.734902" style="fill: #0000ff; stroke: #0000ff"/>
    </g>
   </g>
   <g id="line2d_42">
    <path d="M 89.6625 88.201144 
L 256.3625 88.201144 
" clip-path="url(#p591cbd4465)" style="fill: none; stroke-dasharray: 5.55,2.4; stroke-dashoffset: 0; stroke: #000000; stroke-width: 1.5"/>
   </g>
   <g id="line2d_43">
    <g clip-path="url(#p591cbd4465)">
     <use xlink:href="#m7f68b2f152" x="86.189583" y="88.201144" style="fill: #ff0000; stroke: #ff0000"/>
    </g>
   </g>
   <g id="line2d_44">
    <g clip-path="url(#p591cbd4465)">
     <use xlink:href="#ma4d80f5445" x="120.91875" y="88.201144" style="fill: #0000ff; stroke: #0000ff"/>
    </g>
   </g>
   <g id="line2d_45">
    <g clip-path="url(#p591cbd4465)">
     <use xlink:href="#mb57f81ebeb" x="155.647917" y="88.201144" style="fill: #ff0000; stroke: #ff0000"/>
    </g>
   </g>
   <g id="line2d_46">
    <g clip-path="url(#p591cbd4465)">
     <use xlink:href="#me1cf21091c" x="190.377083" y="88.201144" style="fill: #0000ff; stroke: #0000ff"/>
    </g>
   </g>
   <g id="line2d_47">
    <g clip-path="url(#p591cbd4465)">
     <use xlink:href="#m3f98d75f21" x="225.10625" y="88.201144" style="fill: #ff0000; stroke: #ff0000"/>
    </g>
   </g>
   <g id="line2d_48">
    <g clip-path="url(#p591cbd4465)">
     <use xlink:href="#mc1fdfacc44" x="259.835417" y="88.201144" style="fill: #0000ff; stroke: #0000ff"/>
    </g>
   </g>
   <g id="patch_3">
    <path d="M 68.825 565.2 
L 68.825 10.8 
" style="fill: none; stroke: #000000; stroke-width: 0.8; stroke-linejoin: miter; stroke-linecap: square"/>
   </g>
   <g id="patch_4">
    <path d="M 277.2 565.2 
L 277.2 10.8 
" style="fill: none"/>
   </g>
   <g id="patch_5">
    <path d="M 68.825 565.2 
L 277.2 565.2 
" style="fill: none"/>
   </g>
   <g id="patch_6">
    <path d="M 68.825 10.8 
L 277.2 10.8 
" style="fill: none"/>
   </g>
  </g>
 </g>
 <defs>
  <clipPath id="p591cbd4465">
   <rect x="68.825" y="10.8" width="208.375" height="554.4"/>
  </clipPath>
 </defs>
</svg>
