<?xml version="1.0" encoding="utf-8" standalone="no"?>
<!DOCTYPE svg PUBLIC "-//W3C//DTD SVG 1.1//EN"
  "http://www.w3.org/Graphics/SVG/1.1/DTD/svg11.dtd">
<svg xmlns:xlink="http://www.w3.org/1999/xlink" width="576pt" height="432pt" viewBox="0 0 576 432" xmlns="http://www.w3.org/2000/svg" version="1.1">
 <metadata>
  <rdf:RDF xmlns:dc="http://purl.org/dc/elements/1.1/" xmlns:cc="http://creativecommons.org/ns#" xmlns:rdf="http://www.w3.org/1999/02/22-rdf-syntax-ns#">
   <cc:Work>
    <dc:type rdf:resource="http://purl.org/dc/dcmitype/StillImage"/>
    <dc:date>2024-06-07T13:58:35.872405</dc:date>
    <dc:format>image/svg+xml</dc:format>
    <dc:creator>
     <cc:Agent>
      <dc:title>Matplotlib v3.8.1, https://matplotlib.org/</dc:title>
     </cc:Agent>
    </dc:creator>
   </cc:Work>
  </rdf:RDF>
 </metadata>
 <defs>
  <style type="text/css">*{stroke-linejoin: round; stroke-linecap: butt}</style>
 </defs>
 <g id="figure_1">
  <g id="patch_1">
   <path d="M 0 432 
L 576 432 
L 576 0 
L 0 0 
z
" style="fill: #ffffff"/>
  </g>
  <g id="axes_1">
   <g id="patch_2">
    <path d="M 46.595 378.65181 
L 507.6 378.65181 
L 507.6 93.78924 
L 46.595 93.78924 
z
" style="fill: #ffffff"/>
   </g>
   <g id="PathCollection_1">
    <defs>
     <path id="m809842ff96" d="M 0 3 
C 0.795609 3 1.55874 2.683901 2.12132 2.12132 
C 2.683901 1.55874 3 0.795609 3 0 
C 3 -0.795609 2.683901 -1.55874 2.12132 -2.12132 
C 1.55874 -2.683901 0.795609 -3 0 -3 
C -0.795609 -3 -1.55874 -2.683901 -2.12132 -2.12132 
C -2.683901 -1.55874 -3 -0.795609 -3 0 
C -3 0.795609 -2.683901 1.55874 -2.12132 2.12132 
C -1.55874 2.683901 -0.795609 3 0 3 
z
" style="stroke: #1f77b4"/>
    </defs>
    <g clip-path="url(#p83c82d9ba3)">
     <use xlink:href="#m809842ff96" x="252.84127" y="276.385057" style="fill: #1f77b4; stroke: #1f77b4"/>
     <use xlink:href="#m809842ff96" x="134.806398" y="238.658573" style="fill: #1f77b4; stroke: #1f77b4"/>
     <use xlink:href="#m809842ff96" x="177.076804" y="307.317592" style="fill: #1f77b4; stroke: #1f77b4"/>
     <use xlink:href="#m809842ff96" x="204.000675" y="293.758906" style="fill: #1f77b4; stroke: #1f77b4"/>
     <use xlink:href="#m809842ff96" x="187.053887" y="294.081684" style="fill: #1f77b4; stroke: #1f77b4"/>
     <use xlink:href="#m809842ff96" x="198.13891" y="267.813614" style="fill: #1f77b4; stroke: #1f77b4"/>
     <use xlink:href="#m809842ff96" x="313.074186" y="256.383186" style="fill: #1f77b4; stroke: #1f77b4"/>
     <use xlink:href="#m809842ff96" x="237.94505" y="291.895405" style="fill: #1f77b4; stroke: #1f77b4"/>
     <use xlink:href="#m809842ff96" x="267.187696" y="268.128087" style="fill: #1f77b4; stroke: #1f77b4"/>
     <use xlink:href="#m809842ff96" x="241.963513" y="274.993753" style="fill: #1f77b4; stroke: #1f77b4"/>
     <use xlink:href="#m809842ff96" x="260.257963" y="244.761687" style="fill: #1f77b4; stroke: #1f77b4"/>
     <use xlink:href="#m809842ff96" x="129.43596" y="178.853788" style="fill: #1f77b4; stroke: #1f77b4"/>
     <use xlink:href="#m809842ff96" x="373.610123" y="250.916203" style="fill: #1f77b4; stroke: #1f77b4"/>
     <use xlink:href="#m809842ff96" x="305.771056" y="261.302513" style="fill: #1f77b4; stroke: #1f77b4"/>
     <use xlink:href="#m809842ff96" x="317.735096" y="269.932078" style="fill: #1f77b4; stroke: #1f77b4"/>
     <use xlink:href="#m809842ff96" x="352.944758" y="259.249997" style="fill: #1f77b4; stroke: #1f77b4"/>
     <use xlink:href="#m809842ff96" x="282.048366" y="265.404112" style="fill: #1f77b4; stroke: #1f77b4"/>
     <use xlink:href="#m809842ff96" x="329.562675" y="228.046161" style="fill: #1f77b4; stroke: #1f77b4"/>
     <use xlink:href="#m809842ff96" x="196.644778" y="170.196565" style="fill: #1f77b4; stroke: #1f77b4"/>
     <use xlink:href="#m809842ff96" x="67.549773" y="106.737539" style="fill: #1f77b4; stroke: #1f77b4"/>
     <use xlink:href="#m809842ff96" x="430.782901" y="254.757624" style="fill: #1f77b4; stroke: #1f77b4"/>
     <use xlink:href="#m809842ff96" x="378.286411" y="250.110858" style="fill: #1f77b4; stroke: #1f77b4"/>
     <use xlink:href="#m809842ff96" x="247.632591" y="284.369229" style="fill: #1f77b4; stroke: #1f77b4"/>
     <use xlink:href="#m809842ff96" x="148.240024" y="182.79734" style="fill: #1f77b4; stroke: #1f77b4"/>
     <use xlink:href="#m809842ff96" x="191.458173" y="288.668072" style="fill: #1f77b4; stroke: #1f77b4"/>
     <use xlink:href="#m809842ff96" x="211.716621" y="259.867878" style="fill: #1f77b4; stroke: #1f77b4"/>
     <use xlink:href="#m809842ff96" x="195.251315" y="257.489971" style="fill: #1f77b4; stroke: #1f77b4"/>
     <use xlink:href="#m809842ff96" x="210.434255" y="256.728667" style="fill: #1f77b4; stroke: #1f77b4"/>
     <use xlink:href="#m809842ff96" x="339.009883" y="255.2261" style="fill: #1f77b4; stroke: #1f77b4"/>
     <use xlink:href="#m809842ff96" x="339.009883" y="255.2261" style="fill: #1f77b4; stroke: #1f77b4"/>
     <use xlink:href="#m809842ff96" x="312.879098" y="260.278297" style="fill: #1f77b4; stroke: #1f77b4"/>
     <use xlink:href="#m809842ff96" x="174.651967" y="196.63159" style="fill: #1f77b4; stroke: #1f77b4"/>
     <use xlink:href="#m809842ff96" x="254.133374" y="282.612979" style="fill: #1f77b4; stroke: #1f77b4"/>
     <use xlink:href="#m809842ff96" x="230.245778" y="289.97404" style="fill: #1f77b4; stroke: #1f77b4"/>
     <use xlink:href="#m809842ff96" x="329.562675" y="228.046161" style="fill: #1f77b4; stroke: #1f77b4"/>
     <use xlink:href="#m809842ff96" x="205.732237" y="166.379745" style="fill: #1f77b4; stroke: #1f77b4"/>
     <use xlink:href="#m809842ff96" x="255.433532" y="254.519433" style="fill: #1f77b4; stroke: #1f77b4"/>
     <use xlink:href="#m809842ff96" x="246.713397" y="254.3207" style="fill: #1f77b4; stroke: #1f77b4"/>
     <use xlink:href="#m809842ff96" x="430.782901" y="254.757624" style="fill: #1f77b4; stroke: #1f77b4"/>
     <use xlink:href="#m809842ff96" x="378.286411" y="250.110858" style="fill: #1f77b4; stroke: #1f77b4"/>
     <use xlink:href="#m809842ff96" x="378.667451" y="249.377078" style="fill: #1f77b4; stroke: #1f77b4"/>
     <use xlink:href="#m809842ff96" x="287.68526" y="271.682716" style="fill: #1f77b4; stroke: #1f77b4"/>
     <use xlink:href="#m809842ff96" x="413.140296" y="257.245113" style="fill: #1f77b4; stroke: #1f77b4"/>
     <use xlink:href="#m809842ff96" x="356.04239" y="250.241162" style="fill: #1f77b4; stroke: #1f77b4"/>
     <use xlink:href="#m809842ff96" x="320.370574" y="138.041852" style="fill: #1f77b4; stroke: #1f77b4"/>
     <use xlink:href="#m809842ff96" x="350.947009" y="266.183931" style="fill: #1f77b4; stroke: #1f77b4"/>
     <use xlink:href="#m809842ff96" x="413.140296" y="257.245113" style="fill: #1f77b4; stroke: #1f77b4"/>
     <use xlink:href="#m809842ff96" x="356.04239" y="250.241162" style="fill: #1f77b4; stroke: #1f77b4"/>
     <use xlink:href="#m809842ff96" x="354.516806" y="251.168838" style="fill: #1f77b4; stroke: #1f77b4"/>
     <use xlink:href="#m809842ff96" x="191.56815" y="296.73842" style="fill: #1f77b4; stroke: #1f77b4"/>
     <use xlink:href="#m809842ff96" x="155.848737" y="304.299094" style="fill: #1f77b4; stroke: #1f77b4"/>
     <use xlink:href="#m809842ff96" x="225.629465" y="321.641417" style="fill: #1f77b4; stroke: #1f77b4"/>
     <use xlink:href="#m809842ff96" x="179.79955" y="353.260667" style="fill: #1f77b4; stroke: #1f77b4"/>
     <use xlink:href="#m809842ff96" x="486.645227" y="260.179306" style="fill: #1f77b4; stroke: #1f77b4"/>
     <use xlink:href="#m809842ff96" x="446.823299" y="253.747332" style="fill: #1f77b4; stroke: #1f77b4"/>
     <use xlink:href="#m809842ff96" x="282.182469" y="243.511015" style="fill: #1f77b4; stroke: #1f77b4"/>
     <use xlink:href="#m809842ff96" x="255.310093" y="251.763557" style="fill: #1f77b4; stroke: #1f77b4"/>
     <use xlink:href="#m809842ff96" x="119.039945" y="164.296468" style="fill: #1f77b4; stroke: #1f77b4"/>
     <use xlink:href="#m809842ff96" x="146.086446" y="163.908079" style="fill: #1f77b4; stroke: #1f77b4"/>
     <use xlink:href="#m809842ff96" x="281.553877" y="240.72936" style="fill: #1f77b4; stroke: #1f77b4"/>
     <use xlink:href="#m809842ff96" x="130.608759" y="141.93265" style="fill: #1f77b4; stroke: #1f77b4"/>
     <use xlink:href="#m809842ff96" x="144.224115" y="157.751827" style="fill: #1f77b4; stroke: #1f77b4"/>
     <use xlink:href="#m809842ff96" x="405.52021" y="256.131521" style="fill: #1f77b4; stroke: #1f77b4"/>
     <use xlink:href="#m809842ff96" x="381.538533" y="255.902727" style="fill: #1f77b4; stroke: #1f77b4"/>
     <use xlink:href="#m809842ff96" x="254.015757" y="176.891983" style="fill: #1f77b4; stroke: #1f77b4"/>
     <use xlink:href="#m809842ff96" x="333.361567" y="261.453427" style="fill: #1f77b4; stroke: #1f77b4"/>
     <use xlink:href="#m809842ff96" x="303.358478" y="270.638682" style="fill: #1f77b4; stroke: #1f77b4"/>
     <use xlink:href="#m809842ff96" x="393.437506" y="219.857968" style="fill: #1f77b4; stroke: #1f77b4"/>
     <use xlink:href="#m809842ff96" x="323.706473" y="231.313286" style="fill: #1f77b4; stroke: #1f77b4"/>
     <use xlink:href="#m809842ff96" x="308.993374" y="153.892147" style="fill: #1f77b4; stroke: #1f77b4"/>
     <use xlink:href="#m809842ff96" x="323.706473" y="231.313286" style="fill: #1f77b4; stroke: #1f77b4"/>
     <use xlink:href="#m809842ff96" x="393.437506" y="219.857968" style="fill: #1f77b4; stroke: #1f77b4"/>
     <use xlink:href="#m809842ff96" x="279.174324" y="139.773305" style="fill: #1f77b4; stroke: #1f77b4"/>
     <use xlink:href="#m809842ff96" x="285.919896" y="132.900122" style="fill: #1f77b4; stroke: #1f77b4"/>
     <use xlink:href="#m809842ff96" x="137.51584" y="112.597004" style="fill: #1f77b4; stroke: #1f77b4"/>
     <use xlink:href="#m809842ff96" x="338.881656" y="167.294869" style="fill: #1f77b4; stroke: #1f77b4"/>
     <use xlink:href="#m809842ff96" x="327.878808" y="223.302745" style="fill: #1f77b4; stroke: #1f77b4"/>
     <use xlink:href="#m809842ff96" x="182.829544" y="167.940591" style="fill: #1f77b4; stroke: #1f77b4"/>
     <use xlink:href="#m809842ff96" x="179.443806" y="166.730148" style="fill: #1f77b4; stroke: #1f77b4"/>
     <use xlink:href="#m809842ff96" x="179.443806" y="166.730148" style="fill: #1f77b4; stroke: #1f77b4"/>
     <use xlink:href="#m809842ff96" x="446.823299" y="253.747332" style="fill: #1f77b4; stroke: #1f77b4"/>
     <use xlink:href="#m809842ff96" x="375.481961" y="253.659935" style="fill: #1f77b4; stroke: #1f77b4"/>
     <use xlink:href="#m809842ff96" x="486.645227" y="260.179306" style="fill: #1f77b4; stroke: #1f77b4"/>
     <use xlink:href="#m809842ff96" x="446.823299" y="253.747332" style="fill: #1f77b4; stroke: #1f77b4"/>
     <use xlink:href="#m809842ff96" x="441.928301" y="245.070586" style="fill: #1f77b4; stroke: #1f77b4"/>
     <use xlink:href="#m809842ff96" x="469.639575" y="259.686738" style="fill: #1f77b4; stroke: #1f77b4"/>
     <use xlink:href="#m809842ff96" x="427.490666" y="249.553609" style="fill: #1f77b4; stroke: #1f77b4"/>
     <use xlink:href="#m809842ff96" x="421.891619" y="258.37205" style="fill: #1f77b4; stroke: #1f77b4"/>
     <use xlink:href="#m809842ff96" x="311.523896" y="180.728585" style="fill: #1f77b4; stroke: #1f77b4"/>
     <use xlink:href="#m809842ff96" x="365.444848" y="231.127719" style="fill: #1f77b4; stroke: #1f77b4"/>
     <use xlink:href="#m809842ff96" x="255.095542" y="152.609337" style="fill: #1f77b4; stroke: #1f77b4"/>
     <use xlink:href="#m809842ff96" x="299.04531" y="237.523833" style="fill: #1f77b4; stroke: #1f77b4"/>
     <use xlink:href="#m809842ff96" x="255.095542" y="152.609337" style="fill: #1f77b4; stroke: #1f77b4"/>
     <use xlink:href="#m809842ff96" x="299.04531" y="237.523833" style="fill: #1f77b4; stroke: #1f77b4"/>
     <use xlink:href="#m809842ff96" x="469.639575" y="259.686738" style="fill: #1f77b4; stroke: #1f77b4"/>
     <use xlink:href="#m809842ff96" x="427.490666" y="249.553609" style="fill: #1f77b4; stroke: #1f77b4"/>
     <use xlink:href="#m809842ff96" x="427.490666" y="249.553609" style="fill: #1f77b4; stroke: #1f77b4"/>
     <use xlink:href="#m809842ff96" x="421.891619" y="258.37205" style="fill: #1f77b4; stroke: #1f77b4"/>
     <use xlink:href="#m809842ff96" x="346.013388" y="259.315011" style="fill: #1f77b4; stroke: #1f77b4"/>
     <use xlink:href="#m809842ff96" x="469.639575" y="259.686738" style="fill: #1f77b4; stroke: #1f77b4"/>
     <use xlink:href="#m809842ff96" x="421.891619" y="258.37205" style="fill: #1f77b4; stroke: #1f77b4"/>
     <use xlink:href="#m809842ff96" x="390.103319" y="112.41029" style="fill: #1f77b4; stroke: #1f77b4"/>
     <use xlink:href="#m809842ff96" x="427.490666" y="249.553609" style="fill: #1f77b4; stroke: #1f77b4"/>
     <use xlink:href="#m809842ff96" x="340.791525" y="279.857868" style="fill: #1f77b4; stroke: #1f77b4"/>
     <use xlink:href="#m809842ff96" x="445.376454" y="260.13877" style="fill: #1f77b4; stroke: #1f77b4"/>
     <use xlink:href="#m809842ff96" x="353.43284" y="282.283057" style="fill: #1f77b4; stroke: #1f77b4"/>
     <use xlink:href="#m809842ff96" x="291.348711" y="270.63622" style="fill: #1f77b4; stroke: #1f77b4"/>
     <use xlink:href="#m809842ff96" x="263.200203" y="279.83581" style="fill: #1f77b4; stroke: #1f77b4"/>
     <use xlink:href="#m809842ff96" x="241.905971" y="286.839378" style="fill: #1f77b4; stroke: #1f77b4"/>
     <use xlink:href="#m809842ff96" x="282.182469" y="243.511015" style="fill: #1f77b4; stroke: #1f77b4"/>
     <use xlink:href="#m809842ff96" x="255.310093" y="251.763557" style="fill: #1f77b4; stroke: #1f77b4"/>
     <use xlink:href="#m809842ff96" x="120.656157" y="139.703643" style="fill: #1f77b4; stroke: #1f77b4"/>
     <use xlink:href="#m809842ff96" x="171.674001" y="195.333123" style="fill: #1f77b4; stroke: #1f77b4"/>
     <use xlink:href="#m809842ff96" x="138.579823" y="165.310245" style="fill: #1f77b4; stroke: #1f77b4"/>
     <use xlink:href="#m809842ff96" x="291.348711" y="270.63622" style="fill: #1f77b4; stroke: #1f77b4"/>
     <use xlink:href="#m809842ff96" x="263.200203" y="279.83581" style="fill: #1f77b4; stroke: #1f77b4"/>
     <use xlink:href="#m809842ff96" x="282.182469" y="243.511015" style="fill: #1f77b4; stroke: #1f77b4"/>
     <use xlink:href="#m809842ff96" x="333.361567" y="261.453427" style="fill: #1f77b4; stroke: #1f77b4"/>
     <use xlink:href="#m809842ff96" x="405.52021" y="256.131521" style="fill: #1f77b4; stroke: #1f77b4"/>
     <use xlink:href="#m809842ff96" x="313.686799" y="119.411007" style="fill: #1f77b4; stroke: #1f77b4"/>
     <use xlink:href="#m809842ff96" x="405.52021" y="256.131521" style="fill: #1f77b4; stroke: #1f77b4"/>
     <use xlink:href="#m809842ff96" x="381.538533" y="255.902727" style="fill: #1f77b4; stroke: #1f77b4"/>
     <use xlink:href="#m809842ff96" x="261.560715" y="166.167867" style="fill: #1f77b4; stroke: #1f77b4"/>
     <use xlink:href="#m809842ff96" x="337.655934" y="254.200865" style="fill: #1f77b4; stroke: #1f77b4"/>
     <use xlink:href="#m809842ff96" x="307.876272" y="258.570209" style="fill: #1f77b4; stroke: #1f77b4"/>
     <use xlink:href="#m809842ff96" x="333.361567" y="261.453427" style="fill: #1f77b4; stroke: #1f77b4"/>
     <use xlink:href="#m809842ff96" x="303.358478" y="270.638682" style="fill: #1f77b4; stroke: #1f77b4"/>
     <use xlink:href="#m809842ff96" x="393.437506" y="219.857968" style="fill: #1f77b4; stroke: #1f77b4"/>
     <use xlink:href="#m809842ff96" x="285.919896" y="132.900122" style="fill: #1f77b4; stroke: #1f77b4"/>
     <use xlink:href="#m809842ff96" x="327.878808" y="223.302745" style="fill: #1f77b4; stroke: #1f77b4"/>
     <use xlink:href="#m809842ff96" x="327.878808" y="223.302745" style="fill: #1f77b4; stroke: #1f77b4"/>
     <use xlink:href="#m809842ff96" x="323.706473" y="231.313286" style="fill: #1f77b4; stroke: #1f77b4"/>
     <use xlink:href="#m809842ff96" x="486.645227" y="260.179306" style="fill: #1f77b4; stroke: #1f77b4"/>
     <use xlink:href="#m809842ff96" x="446.823299" y="253.747332" style="fill: #1f77b4; stroke: #1f77b4"/>
     <use xlink:href="#m809842ff96" x="441.928301" y="245.070586" style="fill: #1f77b4; stroke: #1f77b4"/>
     <use xlink:href="#m809842ff96" x="441.928301" y="245.070586" style="fill: #1f77b4; stroke: #1f77b4"/>
     <use xlink:href="#m809842ff96" x="376.703505" y="251.957183" style="fill: #1f77b4; stroke: #1f77b4"/>
     <use xlink:href="#m809842ff96" x="375.481961" y="253.659935" style="fill: #1f77b4; stroke: #1f77b4"/>
     <use xlink:href="#m809842ff96" x="376.730121" y="264.684895" style="fill: #1f77b4; stroke: #1f77b4"/>
     <use xlink:href="#m809842ff96" x="261.50751" y="174.385092" style="fill: #1f77b4; stroke: #1f77b4"/>
     <use xlink:href="#m809842ff96" x="307.87458" y="266.871711" style="fill: #1f77b4; stroke: #1f77b4"/>
     <use xlink:href="#m809842ff96" x="347.722029" y="271.332548" style="fill: #1f77b4; stroke: #1f77b4"/>
     <use xlink:href="#m809842ff96" x="230.631766" y="182.846164" style="fill: #1f77b4; stroke: #1f77b4"/>
     <use xlink:href="#m809842ff96" x="280.08087" y="276.804753" style="fill: #1f77b4; stroke: #1f77b4"/>
     <use xlink:href="#m809842ff96" x="365.444848" y="231.127719" style="fill: #1f77b4; stroke: #1f77b4"/>
     <use xlink:href="#m809842ff96" x="255.095542" y="152.609337" style="fill: #1f77b4; stroke: #1f77b4"/>
     <use xlink:href="#m809842ff96" x="299.04531" y="237.523833" style="fill: #1f77b4; stroke: #1f77b4"/>
     <use xlink:href="#m809842ff96" x="272.497005" y="157.971517" style="fill: #1f77b4; stroke: #1f77b4"/>
     <use xlink:href="#m809842ff96" x="469.639575" y="259.686738" style="fill: #1f77b4; stroke: #1f77b4"/>
     <use xlink:href="#m809842ff96" x="427.490666" y="249.553609" style="fill: #1f77b4; stroke: #1f77b4"/>
     <use xlink:href="#m809842ff96" x="390.103319" y="112.41029" style="fill: #1f77b4; stroke: #1f77b4"/>
     <use xlink:href="#m809842ff96" x="427.490666" y="249.553609" style="fill: #1f77b4; stroke: #1f77b4"/>
     <use xlink:href="#m809842ff96" x="421.891619" y="258.37205" style="fill: #1f77b4; stroke: #1f77b4"/>
     <use xlink:href="#m809842ff96" x="308.421003" y="155.543717" style="fill: #1f77b4; stroke: #1f77b4"/>
     <use xlink:href="#m809842ff96" x="346.013388" y="259.315011" style="fill: #1f77b4; stroke: #1f77b4"/>
     <use xlink:href="#m809842ff96" x="428.502715" y="258.219139" style="fill: #1f77b4; stroke: #1f77b4"/>
     <use xlink:href="#m809842ff96" x="300.237611" y="207.466934" style="fill: #1f77b4; stroke: #1f77b4"/>
     <use xlink:href="#m809842ff96" x="365.65341" y="250.241383" style="fill: #1f77b4; stroke: #1f77b4"/>
     <use xlink:href="#m809842ff96" x="469.639575" y="259.686738" style="fill: #1f77b4; stroke: #1f77b4"/>
     <use xlink:href="#m809842ff96" x="427.490666" y="249.553609" style="fill: #1f77b4; stroke: #1f77b4"/>
     <use xlink:href="#m809842ff96" x="346.434285" y="253.275917" style="fill: #1f77b4; stroke: #1f77b4"/>
     <use xlink:href="#m809842ff96" x="445.376454" y="260.13877" style="fill: #1f77b4; stroke: #1f77b4"/>
     <use xlink:href="#m809842ff96" x="398.208602" y="258.591451" style="fill: #1f77b4; stroke: #1f77b4"/>
     <use xlink:href="#m809842ff96" x="398.208602" y="258.591451" style="fill: #1f77b4; stroke: #1f77b4"/>
     <use xlink:href="#m809842ff96" x="152.474103" y="313.196395" style="fill: #1f77b4; stroke: #1f77b4"/>
     <use xlink:href="#m809842ff96" x="122.271697" y="318.963673" style="fill: #1f77b4; stroke: #1f77b4"/>
     <use xlink:href="#m809842ff96" x="125.32667" y="310.48531" style="fill: #1f77b4; stroke: #1f77b4"/>
     <use xlink:href="#m809842ff96" x="125.32667" y="310.48531" style="fill: #1f77b4; stroke: #1f77b4"/>
     <use xlink:href="#m809842ff96" x="122.271697" y="318.963673" style="fill: #1f77b4; stroke: #1f77b4"/>
     <use xlink:href="#m809842ff96" x="181.493199" y="351.4587" style="fill: #1f77b4; stroke: #1f77b4"/>
     <use xlink:href="#m809842ff96" x="149.46049" y="363.950351" style="fill: #1f77b4; stroke: #1f77b4"/>
     <use xlink:href="#m809842ff96" x="150.878161" y="359.926567" style="fill: #1f77b4; stroke: #1f77b4"/>
     <use xlink:href="#m809842ff96" x="150.118234" y="361.213965" style="fill: #1f77b4; stroke: #1f77b4"/>
     <use xlink:href="#m809842ff96" x="131.601154" y="363.200232" style="fill: #1f77b4; stroke: #1f77b4"/>
     <use xlink:href="#m809842ff96" x="149.881135" y="361.618752" style="fill: #1f77b4; stroke: #1f77b4"/>
     <use xlink:href="#m809842ff96" x="129.374138" y="365.703511" style="fill: #1f77b4; stroke: #1f77b4"/>
     <use xlink:href="#m809842ff96" x="126.139511" y="348.887755" style="fill: #1f77b4; stroke: #1f77b4"/>
    </g>
   </g>
   <g id="matplotlib.axis_1">
    <g id="xtick_1">
     <g id="line2d_1">
      <defs>
       <path id="m0c1bba96e4" d="M 0 0 
L 0 3.5 
" style="stroke: #000000; stroke-width: 0.8"/>
      </defs>
      <g>
       <use xlink:href="#m0c1bba96e4" x="109.565525" y="378.65181" style="stroke: #000000; stroke-width: 0.8"/>
      </g>
     </g>
     <g id="text_1">
      <!-- −10 -->
      <g transform="translate(99.013181 393.250247) scale(0.1 -0.1)">
       <defs>
        <path id="DejaVuSans-2212" d="M 678 2272 
L 4684 2272 
L 4684 1741 
L 678 1741 
L 678 2272 
z
" transform="scale(0.015625)"/>
        <path id="DejaVuSans-31" d="M 794 531 
L 1825 531 
L 1825 4091 
L 703 3866 
L 703 4441 
L 1819 4666 
L 2450 4666 
L 2450 531 
L 3481 531 
L 3481 0 
L 794 0 
L 794 531 
z
" transform="scale(0.015625)"/>
        <path id="DejaVuSans-30" d="M 2034 4250 
Q 1547 4250 1301 3770 
Q 1056 3291 1056 2328 
Q 1056 1369 1301 889 
Q 1547 409 2034 409 
Q 2525 409 2770 889 
Q 3016 1369 3016 2328 
Q 3016 3291 2770 3770 
Q 2525 4250 2034 4250 
z
M 2034 4750 
Q 2819 4750 3233 4129 
Q 3647 3509 3647 2328 
Q 3647 1150 3233 529 
Q 2819 -91 2034 -91 
Q 1250 -91 836 529 
Q 422 1150 422 2328 
Q 422 3509 836 4129 
Q 1250 4750 2034 4750 
z
" transform="scale(0.015625)"/>
       </defs>
       <use xlink:href="#DejaVuSans-2212"/>
       <use xlink:href="#DejaVuSans-31" x="83.789062"/>
       <use xlink:href="#DejaVuSans-30" x="147.412109"/>
      </g>
     </g>
    </g>
    <g id="xtick_2">
     <g id="line2d_2">
      <g>
       <use xlink:href="#m0c1bba96e4" x="206.162888" y="378.65181" style="stroke: #000000; stroke-width: 0.8"/>
      </g>
     </g>
     <g id="text_2">
      <!-- −5 -->
      <g transform="translate(198.791795 393.250247) scale(0.1 -0.1)">
       <defs>
        <path id="DejaVuSans-35" d="M 691 4666 
L 3169 4666 
L 3169 4134 
L 1269 4134 
L 1269 2991 
Q 1406 3038 1543 3061 
Q 1681 3084 1819 3084 
Q 2600 3084 3056 2656 
Q 3513 2228 3513 1497 
Q 3513 744 3044 326 
Q 2575 -91 1722 -91 
Q 1428 -91 1123 -41 
Q 819 9 494 109 
L 494 744 
Q 775 591 1075 516 
Q 1375 441 1709 441 
Q 2250 441 2565 725 
Q 2881 1009 2881 1497 
Q 2881 1984 2565 2268 
Q 2250 2553 1709 2553 
Q 1456 2553 1204 2497 
Q 953 2441 691 2322 
L 691 4666 
z
" transform="scale(0.015625)"/>
       </defs>
       <use xlink:href="#DejaVuSans-2212"/>
       <use xlink:href="#DejaVuSans-35" x="83.789062"/>
      </g>
     </g>
    </g>
    <g id="xtick_3">
     <g id="line2d_3">
      <g>
       <use xlink:href="#m0c1bba96e4" x="302.760252" y="378.65181" style="stroke: #000000; stroke-width: 0.8"/>
      </g>
     </g>
     <g id="text_3">
      <!-- 0 -->
      <g transform="translate(299.579002 393.250247) scale(0.1 -0.1)">
       <use xlink:href="#DejaVuSans-30"/>
      </g>
     </g>
    </g>
    <g id="xtick_4">
     <g id="line2d_4">
      <g>
       <use xlink:href="#m0c1bba96e4" x="399.357616" y="378.65181" style="stroke: #000000; stroke-width: 0.8"/>
      </g>
     </g>
     <g id="text_4">
      <!-- 5 -->
      <g transform="translate(396.176366 393.250247) scale(0.1 -0.1)">
       <use xlink:href="#DejaVuSans-35"/>
      </g>
     </g>
    </g>
    <g id="xtick_5">
     <g id="line2d_5">
      <g>
       <use xlink:href="#m0c1bba96e4" x="495.954979" y="378.65181" style="stroke: #000000; stroke-width: 0.8"/>
      </g>
     </g>
     <g id="text_5">
      <!-- 10 -->
      <g transform="translate(489.592479 393.250247) scale(0.1 -0.1)">
       <use xlink:href="#DejaVuSans-31"/>
       <use xlink:href="#DejaVuSans-30" x="63.623047"/>
      </g>
     </g>
    </g>
    <g id="text_6">
     <!-- PC1 -->
     <g transform="translate(267.41 406.928372) scale(0.1 -0.1)">
      <defs>
       <path id="DejaVuSans-50" d="M 1259 4147 
L 1259 2394 
L 2053 2394 
Q 2494 2394 2734 2622 
Q 2975 2850 2975 3272 
Q 2975 3691 2734 3919 
Q 2494 4147 2053 4147 
L 1259 4147 
z
M 628 4666 
L 2053 4666 
Q 2838 4666 3239 4311 
Q 3641 3956 3641 3272 
Q 3641 2581 3239 2228 
Q 2838 1875 2053 1875 
L 1259 1875 
L 1259 0 
L 628 0 
L 628 4666 
z
" transform="scale(0.015625)"/>
       <path id="DejaVuSans-43" d="M 4122 4306 
L 4122 3641 
Q 3803 3938 3442 4084 
Q 3081 4231 2675 4231 
Q 1875 4231 1450 3742 
Q 1025 3253 1025 2328 
Q 1025 1406 1450 917 
Q 1875 428 2675 428 
Q 3081 428 3442 575 
Q 3803 722 4122 1019 
L 4122 359 
Q 3791 134 3420 21 
Q 3050 -91 2638 -91 
Q 1578 -91 968 557 
Q 359 1206 359 2328 
Q 359 3453 968 4101 
Q 1578 4750 2638 4750 
Q 3056 4750 3426 4639 
Q 3797 4528 4122 4306 
z
" transform="scale(0.015625)"/>
      </defs>
      <use xlink:href="#DejaVuSans-50"/>
      <use xlink:href="#DejaVuSans-43" x="60.302734"/>
      <use xlink:href="#DejaVuSans-31" x="130.126953"/>
     </g>
    </g>
   </g>
   <g id="matplotlib.axis_2">
    <g id="ytick_1">
     <g id="line2d_6">
      <defs>
       <path id="m220601f7a3" d="M 0 0 
L -3.5 0 
" style="stroke: #000000; stroke-width: 0.8"/>
      </defs>
      <g>
       <use xlink:href="#m220601f7a3" x="46.595" y="359.329673" style="stroke: #000000; stroke-width: 0.8"/>
      </g>
     </g>
     <g id="text_7">
      <!-- −6 -->
      <g transform="translate(24.852813 363.128891) scale(0.1 -0.1)">
       <defs>
        <path id="DejaVuSans-36" d="M 2113 2584 
Q 1688 2584 1439 2293 
Q 1191 2003 1191 1497 
Q 1191 994 1439 701 
Q 1688 409 2113 409 
Q 2538 409 2786 701 
Q 3034 994 3034 1497 
Q 3034 2003 2786 2293 
Q 2538 2584 2113 2584 
z
M 3366 4563 
L 3366 3988 
Q 3128 4100 2886 4159 
Q 2644 4219 2406 4219 
Q 1781 4219 1451 3797 
Q 1122 3375 1075 2522 
Q 1259 2794 1537 2939 
Q 1816 3084 2150 3084 
Q 2853 3084 3261 2657 
Q 3669 2231 3669 1497 
Q 3669 778 3244 343 
Q 2819 -91 2113 -91 
Q 1303 -91 875 529 
Q 447 1150 447 2328 
Q 447 3434 972 4092 
Q 1497 4750 2381 4750 
Q 2619 4750 2861 4703 
Q 3103 4656 3366 4563 
z
" transform="scale(0.015625)"/>
       </defs>
       <use xlink:href="#DejaVuSans-2212"/>
       <use xlink:href="#DejaVuSans-36" x="83.789062"/>
      </g>
     </g>
    </g>
    <g id="ytick_2">
     <g id="line2d_7">
      <g>
       <use xlink:href="#m220601f7a3" x="46.595" y="320.690727" style="stroke: #000000; stroke-width: 0.8"/>
      </g>
     </g>
     <g id="text_8">
      <!-- −4 -->
      <g transform="translate(24.852813 324.489946) scale(0.1 -0.1)">
       <defs>
        <path id="DejaVuSans-34" d="M 2419 4116 
L 825 1625 
L 2419 1625 
L 2419 4116 
z
M 2253 4666 
L 3047 4666 
L 3047 1625 
L 3713 1625 
L 3713 1100 
L 3047 1100 
L 3047 0 
L 2419 0 
L 2419 1100 
L 313 1100 
L 313 1709 
L 2253 4666 
z
" transform="scale(0.015625)"/>
       </defs>
       <use xlink:href="#DejaVuSans-2212"/>
       <use xlink:href="#DejaVuSans-34" x="83.789062"/>
      </g>
     </g>
    </g>
    <g id="ytick_3">
     <g id="line2d_8">
      <g>
       <use xlink:href="#m220601f7a3" x="46.595" y="282.051782" style="stroke: #000000; stroke-width: 0.8"/>
      </g>
     </g>
     <g id="text_9">
      <!-- −2 -->
      <g transform="translate(24.852813 285.851001) scale(0.1 -0.1)">
       <defs>
        <path id="DejaVuSans-32" d="M 1228 531 
L 3431 531 
L 3431 0 
L 469 0 
L 469 531 
Q 828 903 1448 1529 
Q 2069 2156 2228 2338 
Q 2531 2678 2651 2914 
Q 2772 3150 2772 3378 
Q 2772 3750 2511 3984 
Q 2250 4219 1831 4219 
Q 1534 4219 1204 4116 
Q 875 4013 500 3803 
L 500 4441 
Q 881 4594 1212 4672 
Q 1544 4750 1819 4750 
Q 2544 4750 2975 4387 
Q 3406 4025 3406 3419 
Q 3406 3131 3298 2873 
Q 3191 2616 2906 2266 
Q 2828 2175 2409 1742 
Q 1991 1309 1228 531 
z
" transform="scale(0.015625)"/>
       </defs>
       <use xlink:href="#DejaVuSans-2212"/>
       <use xlink:href="#DejaVuSans-32" x="83.789062"/>
      </g>
     </g>
    </g>
    <g id="ytick_4">
     <g id="line2d_9">
      <g>
       <use xlink:href="#m220601f7a3" x="46.595" y="243.412836" style="stroke: #000000; stroke-width: 0.8"/>
      </g>
     </g>
     <g id="text_10">
      <!-- 0 -->
      <g transform="translate(33.2325 247.212055) scale(0.1 -0.1)">
       <use xlink:href="#DejaVuSans-30"/>
      </g>
     </g>
    </g>
    <g id="ytick_5">
     <g id="line2d_10">
      <g>
       <use xlink:href="#m220601f7a3" x="46.595" y="204.773891" style="stroke: #000000; stroke-width: 0.8"/>
      </g>
     </g>
     <g id="text_11">
      <!-- 2 -->
      <g transform="translate(33.2325 208.57311) scale(0.1 -0.1)">
       <use xlink:href="#DejaVuSans-32"/>
      </g>
     </g>
    </g>
    <g id="ytick_6">
     <g id="line2d_11">
      <g>
       <use xlink:href="#m220601f7a3" x="46.595" y="166.134946" style="stroke: #000000; stroke-width: 0.8"/>
      </g>
     </g>
     <g id="text_12">
      <!-- 4 -->
      <g transform="translate(33.2325 169.934164) scale(0.1 -0.1)">
       <use xlink:href="#DejaVuSans-34"/>
      </g>
     </g>
    </g>
    <g id="ytick_7">
     <g id="line2d_12">
      <g>
       <use xlink:href="#m220601f7a3" x="46.595" y="127.496" style="stroke: #000000; stroke-width: 0.8"/>
      </g>
     </g>
     <g id="text_13">
      <!-- 6 -->
      <g transform="translate(33.2325 131.295219) scale(0.1 -0.1)">
       <use xlink:href="#DejaVuSans-36"/>
      </g>
     </g>
    </g>
    <g id="text_14">
     <!-- PC2 -->
     <g transform="translate(18.773125 245.908025) rotate(-90) scale(0.1 -0.1)">
      <use xlink:href="#DejaVuSans-50"/>
      <use xlink:href="#DejaVuSans-43" x="60.302734"/>
      <use xlink:href="#DejaVuSans-32" x="130.126953"/>
     </g>
    </g>
   </g>
   <g id="patch_3">
    <path d="M 46.595 378.65181 
L 46.595 93.78924 
" style="fill: none; stroke: #000000; stroke-width: 0.8; stroke-linejoin: miter; stroke-linecap: square"/>
   </g>
   <g id="patch_4">
    <path d="M 507.6 378.65181 
L 507.6 93.78924 
" style="fill: none; stroke: #000000; stroke-width: 0.8; stroke-linejoin: miter; stroke-linecap: square"/>
   </g>
   <g id="patch_5">
    <path d="M 46.595 378.65181 
L 507.6 378.65181 
" style="fill: none; stroke: #000000; stroke-width: 0.8; stroke-linejoin: miter; stroke-linecap: square"/>
   </g>
   <g id="patch_6">
    <path d="M 46.595 93.78924 
L 507.6 93.78924 
" style="fill: none; stroke: #000000; stroke-width: 0.8; stroke-linejoin: miter; stroke-linecap: square"/>
   </g>
  </g>
 </g>
 <defs>
  <clipPath id="p83c82d9ba3">
   <rect x="46.595" y="93.78924" width="461.005" height="284.862569"/>
  </clipPath>
 </defs>
</svg>
