<?xml version="1.0" encoding="utf-8" standalone="no"?>
<!DOCTYPE svg PUBLIC "-//W3C//DTD SVG 1.1//EN"
  "http://www.w3.org/Graphics/SVG/1.1/DTD/svg11.dtd">
<svg xmlns:xlink="http://www.w3.org/1999/xlink" width="576pt" height="432pt" viewBox="0 0 576 432" xmlns="http://www.w3.org/2000/svg" version="1.1">
 <metadata>
  <rdf:RDF xmlns:dc="http://purl.org/dc/elements/1.1/" xmlns:cc="http://creativecommons.org/ns#" xmlns:rdf="http://www.w3.org/1999/02/22-rdf-syntax-ns#">
   <cc:Work>
    <dc:type rdf:resource="http://purl.org/dc/dcmitype/StillImage"/>
    <dc:date>2024-05-13T10:59:34.611202</dc:date>
    <dc:format>image/svg+xml</dc:format>
    <dc:creator>
     <cc:Agent>
      <dc:title>Matplotlib v3.8.4, https://matplotlib.org/</dc:title>
     </cc:Agent>
    </dc:creator>
   </cc:Work>
  </rdf:RDF>
 </metadata>
 <defs>
  <style type="text/css">*{stroke-linejoin: round; stroke-linecap: butt}</style>
 </defs>
 <g id="figure_1">
  <g id="patch_1">
   <path d="M 0 432 
L 576 432 
L 576 0 
L 0 0 
z
" style="fill: #ffffff"/>
  </g>
  <g id="axes_1">
   <g id="patch_2">
    <path d="M 46.595 384.536733 
L 565.2 384.536733 
L 565.2 30.062934 
L 46.595 30.062934 
z
" style="fill: #ffffff"/>
   </g>
   <g id="PathCollection_1">
    <defs>
     <path id="md49be903ac" d="M 0 3 
C 0.795609 3 1.55874 2.683901 2.12132 2.12132 
C 2.683901 1.55874 3 0.795609 3 0 
C 3 -0.795609 2.683901 -1.55874 2.12132 -2.12132 
C 1.55874 -2.683901 0.795609 -3 0 -3 
C -0.795609 -3 -1.55874 -2.683901 -2.12132 -2.12132 
C -2.683901 -1.55874 -3 -0.795609 -3 0 
C -3 0.795609 -2.683901 1.55874 -2.12132 2.12132 
C -1.55874 2.683901 -0.795609 3 0 3 
z
" style="stroke: #1f77b4"/>
    </defs>
    <g clip-path="url(#p71144cfb93)">
     <use xlink:href="#md49be903ac" x="230.492616" y="267.378567" style="fill: #1f77b4; stroke: #1f77b4"/>
     <use xlink:href="#md49be903ac" x="230.492616" y="267.378567" style="fill: #1f77b4; stroke: #1f77b4"/>
     <use xlink:href="#md49be903ac" x="230.492616" y="267.378567" style="fill: #1f77b4; stroke: #1f77b4"/>
     <use xlink:href="#md49be903ac" x="231.594384" y="265.098605" style="fill: #1f77b4; stroke: #1f77b4"/>
     <use xlink:href="#md49be903ac" x="229.650588" y="261.870482" style="fill: #1f77b4; stroke: #1f77b4"/>
     <use xlink:href="#md49be903ac" x="223.313322" y="214.162721" style="fill: #1f77b4; stroke: #1f77b4"/>
     <use xlink:href="#md49be903ac" x="276.357612" y="259.216121" style="fill: #1f77b4; stroke: #1f77b4"/>
     <use xlink:href="#md49be903ac" x="259.323672" y="261.987785" style="fill: #1f77b4; stroke: #1f77b4"/>
     <use xlink:href="#md49be903ac" x="286.155953" y="255.004538" style="fill: #1f77b4; stroke: #1f77b4"/>
     <use xlink:href="#md49be903ac" x="284.724409" y="252.616826" style="fill: #1f77b4; stroke: #1f77b4"/>
     <use xlink:href="#md49be903ac" x="276.699099" y="207.976147" style="fill: #1f77b4; stroke: #1f77b4"/>
     <use xlink:href="#md49be903ac" x="212.170869" y="148.658309" style="fill: #1f77b4; stroke: #1f77b4"/>
     <use xlink:href="#md49be903ac" x="325.302038" y="270.551734" style="fill: #1f77b4; stroke: #1f77b4"/>
     <use xlink:href="#md49be903ac" x="307.563563" y="250.530233" style="fill: #1f77b4; stroke: #1f77b4"/>
     <use xlink:href="#md49be903ac" x="280.624174" y="254.893768" style="fill: #1f77b4; stroke: #1f77b4"/>
     <use xlink:href="#md49be903ac" x="365.041431" y="291.793931" style="fill: #1f77b4; stroke: #1f77b4"/>
     <use xlink:href="#md49be903ac" x="333.562875" y="240.508983" style="fill: #1f77b4; stroke: #1f77b4"/>
     <use xlink:href="#md49be903ac" x="332.714061" y="218.001147" style="fill: #1f77b4; stroke: #1f77b4"/>
     <use xlink:href="#md49be903ac" x="274.297809" y="144.904999" style="fill: #1f77b4; stroke: #1f77b4"/>
     <use xlink:href="#md49be903ac" x="201.873" y="95.063794" style="fill: #1f77b4; stroke: #1f77b4"/>
     <use xlink:href="#md49be903ac" x="365.041431" y="291.793931" style="fill: #1f77b4; stroke: #1f77b4"/>
     <use xlink:href="#md49be903ac" x="360.729975" y="261.056166" style="fill: #1f77b4; stroke: #1f77b4"/>
     <use xlink:href="#md49be903ac" x="344.750783" y="269.692874" style="fill: #1f77b4; stroke: #1f77b4"/>
     <use xlink:href="#md49be903ac" x="281.832497" y="187.814135" style="fill: #1f77b4; stroke: #1f77b4"/>
     <use xlink:href="#md49be903ac" x="291.335754" y="246.85215" style="fill: #1f77b4; stroke: #1f77b4"/>
     <use xlink:href="#md49be903ac" x="286.067835" y="193.407248" style="fill: #1f77b4; stroke: #1f77b4"/>
     <use xlink:href="#md49be903ac" x="284.055953" y="189.309483" style="fill: #1f77b4; stroke: #1f77b4"/>
     <use xlink:href="#md49be903ac" x="280.214428" y="186.499812" style="fill: #1f77b4; stroke: #1f77b4"/>
     <use xlink:href="#md49be903ac" x="344.750783" y="269.692874" style="fill: #1f77b4; stroke: #1f77b4"/>
     <use xlink:href="#md49be903ac" x="344.750783" y="269.692874" style="fill: #1f77b4; stroke: #1f77b4"/>
     <use xlink:href="#md49be903ac" x="343.502758" y="267.705658" style="fill: #1f77b4; stroke: #1f77b4"/>
     <use xlink:href="#md49be903ac" x="280.006866" y="185.231162" style="fill: #1f77b4; stroke: #1f77b4"/>
     <use xlink:href="#md49be903ac" x="323.888239" y="245.634052" style="fill: #1f77b4; stroke: #1f77b4"/>
     <use xlink:href="#md49be903ac" x="322.16093" y="242.601517" style="fill: #1f77b4; stroke: #1f77b4"/>
     <use xlink:href="#md49be903ac" x="332.714061" y="218.001147" style="fill: #1f77b4; stroke: #1f77b4"/>
     <use xlink:href="#md49be903ac" x="201.873" y="95.063794" style="fill: #1f77b4; stroke: #1f77b4"/>
     <use xlink:href="#md49be903ac" x="280.382203" y="185.474843" style="fill: #1f77b4; stroke: #1f77b4"/>
     <use xlink:href="#md49be903ac" x="312.279658" y="192.630282" style="fill: #1f77b4; stroke: #1f77b4"/>
     <use xlink:href="#md49be903ac" x="365.041431" y="291.793931" style="fill: #1f77b4; stroke: #1f77b4"/>
     <use xlink:href="#md49be903ac" x="360.729975" y="261.056166" style="fill: #1f77b4; stroke: #1f77b4"/>
     <use xlink:href="#md49be903ac" x="333.562875" y="240.508983" style="fill: #1f77b4; stroke: #1f77b4"/>
     <use xlink:href="#md49be903ac" x="333.562875" y="240.508983" style="fill: #1f77b4; stroke: #1f77b4"/>
     <use xlink:href="#md49be903ac" x="400.22531" y="309.671066" style="fill: #1f77b4; stroke: #1f77b4"/>
     <use xlink:href="#md49be903ac" x="393.545314" y="252.170382" style="fill: #1f77b4; stroke: #1f77b4"/>
     <use xlink:href="#md49be903ac" x="272.209405" y="125.172457" style="fill: #1f77b4; stroke: #1f77b4"/>
     <use xlink:href="#md49be903ac" x="406.703945" y="283.580488" style="fill: #1f77b4; stroke: #1f77b4"/>
     <use xlink:href="#md49be903ac" x="400.22531" y="309.671066" style="fill: #1f77b4; stroke: #1f77b4"/>
     <use xlink:href="#md49be903ac" x="393.545314" y="252.170382" style="fill: #1f77b4; stroke: #1f77b4"/>
     <use xlink:href="#md49be903ac" x="358.464766" y="260.559879" style="fill: #1f77b4; stroke: #1f77b4"/>
     <use xlink:href="#md49be903ac" x="87.287965" y="353.782336" style="fill: #1f77b4; stroke: #1f77b4"/>
     <use xlink:href="#md49be903ac" x="85.978039" y="355.612199" style="fill: #1f77b4; stroke: #1f77b4"/>
     <use xlink:href="#md49be903ac" x="133.935186" y="312.791119" style="fill: #1f77b4; stroke: #1f77b4"/>
     <use xlink:href="#md49be903ac" x="78.098885" y="361.776381" style="fill: #1f77b4; stroke: #1f77b4"/>
     <use xlink:href="#md49be903ac" x="400.22531" y="309.671066" style="fill: #1f77b4; stroke: #1f77b4"/>
     <use xlink:href="#md49be903ac" x="406.703945" y="283.580488" style="fill: #1f77b4; stroke: #1f77b4"/>
     <use xlink:href="#md49be903ac" x="351.733201" y="206.784971" style="fill: #1f77b4; stroke: #1f77b4"/>
     <use xlink:href="#md49be903ac" x="349.904838" y="203.087704" style="fill: #1f77b4; stroke: #1f77b4"/>
     <use xlink:href="#md49be903ac" x="283.099455" y="160.990227" style="fill: #1f77b4; stroke: #1f77b4"/>
     <use xlink:href="#md49be903ac" x="282.498414" y="119.236971" style="fill: #1f77b4; stroke: #1f77b4"/>
     <use xlink:href="#md49be903ac" x="347.283007" y="200.463233" style="fill: #1f77b4; stroke: #1f77b4"/>
     <use xlink:href="#md49be903ac" x="275.939885" y="109.967072" style="fill: #1f77b4; stroke: #1f77b4"/>
     <use xlink:href="#md49be903ac" x="275.712097" y="110.909445" style="fill: #1f77b4; stroke: #1f77b4"/>
     <use xlink:href="#md49be903ac" x="392.083357" y="297.901452" style="fill: #1f77b4; stroke: #1f77b4"/>
     <use xlink:href="#md49be903ac" x="390.544294" y="295.455841" style="fill: #1f77b4; stroke: #1f77b4"/>
     <use xlink:href="#md49be903ac" x="346.904296" y="198.547591" style="fill: #1f77b4; stroke: #1f77b4"/>
     <use xlink:href="#md49be903ac" x="386.705055" y="259.512707" style="fill: #1f77b4; stroke: #1f77b4"/>
     <use xlink:href="#md49be903ac" x="385.161266" y="256.880669" style="fill: #1f77b4; stroke: #1f77b4"/>
     <use xlink:href="#md49be903ac" x="377.511805" y="234.782853" style="fill: #1f77b4; stroke: #1f77b4"/>
     <use xlink:href="#md49be903ac" x="372.516606" y="201.845602" style="fill: #1f77b4; stroke: #1f77b4"/>
     <use xlink:href="#md49be903ac" x="191.898703" y="51.350465" style="fill: #1f77b4; stroke: #1f77b4"/>
     <use xlink:href="#md49be903ac" x="372.516606" y="201.845602" style="fill: #1f77b4; stroke: #1f77b4"/>
     <use xlink:href="#md49be903ac" x="377.511805" y="234.782853" style="fill: #1f77b4; stroke: #1f77b4"/>
     <use xlink:href="#md49be903ac" x="338.431852" y="153.157595" style="fill: #1f77b4; stroke: #1f77b4"/>
     <use xlink:href="#md49be903ac" x="272.698451" y="91.063917" style="fill: #1f77b4; stroke: #1f77b4"/>
     <use xlink:href="#md49be903ac" x="191.898703" y="51.350465" style="fill: #1f77b4; stroke: #1f77b4"/>
     <use xlink:href="#md49be903ac" x="336.929292" y="165.662928" style="fill: #1f77b4; stroke: #1f77b4"/>
     <use xlink:href="#md49be903ac" x="340.841685" y="173.065929" style="fill: #1f77b4; stroke: #1f77b4"/>
     <use xlink:href="#md49be903ac" x="275.761492" y="101.21565" style="fill: #1f77b4; stroke: #1f77b4"/>
     <use xlink:href="#md49be903ac" x="314.145287" y="121.429194" style="fill: #1f77b4; stroke: #1f77b4"/>
     <use xlink:href="#md49be903ac" x="314.145287" y="121.429194" style="fill: #1f77b4; stroke: #1f77b4"/>
     <use xlink:href="#md49be903ac" x="406.703945" y="283.580488" style="fill: #1f77b4; stroke: #1f77b4"/>
     <use xlink:href="#md49be903ac" x="393.545314" y="252.170382" style="fill: #1f77b4; stroke: #1f77b4"/>
     <use xlink:href="#md49be903ac" x="400.22531" y="309.671066" style="fill: #1f77b4; stroke: #1f77b4"/>
     <use xlink:href="#md49be903ac" x="406.703945" y="283.580488" style="fill: #1f77b4; stroke: #1f77b4"/>
     <use xlink:href="#md49be903ac" x="393.545314" y="252.170382" style="fill: #1f77b4; stroke: #1f77b4"/>
     <use xlink:href="#md49be903ac" x="432.686762" y="325.281092" style="fill: #1f77b4; stroke: #1f77b4"/>
     <use xlink:href="#md49be903ac" x="446.57025" y="278.335791" style="fill: #1f77b4; stroke: #1f77b4"/>
     <use xlink:href="#md49be903ac" x="449.39847" y="303.045145" style="fill: #1f77b4; stroke: #1f77b4"/>
     <use xlink:href="#md49be903ac" x="405.030813" y="175.551923" style="fill: #1f77b4; stroke: #1f77b4"/>
     <use xlink:href="#md49be903ac" x="415.075251" y="245.216006" style="fill: #1f77b4; stroke: #1f77b4"/>
     <use xlink:href="#md49be903ac" x="346.087226" y="101.28431" style="fill: #1f77b4; stroke: #1f77b4"/>
     <use xlink:href="#md49be903ac" x="407.89466" y="183.416716" style="fill: #1f77b4; stroke: #1f77b4"/>
     <use xlink:href="#md49be903ac" x="346.087226" y="101.28431" style="fill: #1f77b4; stroke: #1f77b4"/>
     <use xlink:href="#md49be903ac" x="407.89466" y="183.416716" style="fill: #1f77b4; stroke: #1f77b4"/>
     <use xlink:href="#md49be903ac" x="432.686762" y="325.281092" style="fill: #1f77b4; stroke: #1f77b4"/>
     <use xlink:href="#md49be903ac" x="446.57025" y="278.335791" style="fill: #1f77b4; stroke: #1f77b4"/>
     <use xlink:href="#md49be903ac" x="446.57025" y="278.335791" style="fill: #1f77b4; stroke: #1f77b4"/>
     <use xlink:href="#md49be903ac" x="449.39847" y="303.045145" style="fill: #1f77b4; stroke: #1f77b4"/>
     <use xlink:href="#md49be903ac" x="422.673177" y="249.333282" style="fill: #1f77b4; stroke: #1f77b4"/>
     <use xlink:href="#md49be903ac" x="432.686762" y="325.281092" style="fill: #1f77b4; stroke: #1f77b4"/>
     <use xlink:href="#md49be903ac" x="449.39847" y="303.045145" style="fill: #1f77b4; stroke: #1f77b4"/>
     <use xlink:href="#md49be903ac" x="349.295637" y="140.168302" style="fill: #1f77b4; stroke: #1f77b4"/>
     <use xlink:href="#md49be903ac" x="446.57025" y="278.335791" style="fill: #1f77b4; stroke: #1f77b4"/>
     <use xlink:href="#md49be903ac" x="446.57025" y="278.335791" style="fill: #1f77b4; stroke: #1f77b4"/>
     <use xlink:href="#md49be903ac" x="464.437308" y="340.422019" style="fill: #1f77b4; stroke: #1f77b4"/>
     <use xlink:href="#md49be903ac" x="541.627045" y="317.318072" style="fill: #1f77b4; stroke: #1f77b4"/>
     <use xlink:href="#md49be903ac" x="363.435536" y="269.707664" style="fill: #1f77b4; stroke: #1f77b4"/>
     <use xlink:href="#md49be903ac" x="364.146704" y="266.699334" style="fill: #1f77b4; stroke: #1f77b4"/>
     <use xlink:href="#md49be903ac" x="361.481604" y="266.805568" style="fill: #1f77b4; stroke: #1f77b4"/>
     <use xlink:href="#md49be903ac" x="351.733201" y="206.784971" style="fill: #1f77b4; stroke: #1f77b4"/>
     <use xlink:href="#md49be903ac" x="349.904838" y="203.087704" style="fill: #1f77b4; stroke: #1f77b4"/>
     <use xlink:href="#md49be903ac" x="192.234318" y="52.789481" style="fill: #1f77b4; stroke: #1f77b4"/>
     <use xlink:href="#md49be903ac" x="275.761492" y="101.21565" style="fill: #1f77b4; stroke: #1f77b4"/>
     <use xlink:href="#md49be903ac" x="191.890414" y="54.125333" style="fill: #1f77b4; stroke: #1f77b4"/>
     <use xlink:href="#md49be903ac" x="363.435536" y="269.707664" style="fill: #1f77b4; stroke: #1f77b4"/>
     <use xlink:href="#md49be903ac" x="364.146704" y="266.699334" style="fill: #1f77b4; stroke: #1f77b4"/>
     <use xlink:href="#md49be903ac" x="351.733201" y="206.784971" style="fill: #1f77b4; stroke: #1f77b4"/>
     <use xlink:href="#md49be903ac" x="386.705055" y="259.512707" style="fill: #1f77b4; stroke: #1f77b4"/>
     <use xlink:href="#md49be903ac" x="392.083357" y="297.901452" style="fill: #1f77b4; stroke: #1f77b4"/>
     <use xlink:href="#md49be903ac" x="272.908837" y="116.516202" style="fill: #1f77b4; stroke: #1f77b4"/>
     <use xlink:href="#md49be903ac" x="392.083357" y="297.901452" style="fill: #1f77b4; stroke: #1f77b4"/>
     <use xlink:href="#md49be903ac" x="390.544294" y="295.455841" style="fill: #1f77b4; stroke: #1f77b4"/>
     <use xlink:href="#md49be903ac" x="277.346674" y="133.024413" style="fill: #1f77b4; stroke: #1f77b4"/>
     <use xlink:href="#md49be903ac" x="354.883677" y="234.825381" style="fill: #1f77b4; stroke: #1f77b4"/>
     <use xlink:href="#md49be903ac" x="352.651933" y="230.976924" style="fill: #1f77b4; stroke: #1f77b4"/>
     <use xlink:href="#md49be903ac" x="386.705055" y="259.512707" style="fill: #1f77b4; stroke: #1f77b4"/>
     <use xlink:href="#md49be903ac" x="385.161266" y="256.880669" style="fill: #1f77b4; stroke: #1f77b4"/>
     <use xlink:href="#md49be903ac" x="377.511805" y="234.782853" style="fill: #1f77b4; stroke: #1f77b4"/>
     <use xlink:href="#md49be903ac" x="272.698451" y="91.063917" style="fill: #1f77b4; stroke: #1f77b4"/>
     <use xlink:href="#md49be903ac" x="340.841685" y="173.065929" style="fill: #1f77b4; stroke: #1f77b4"/>
     <use xlink:href="#md49be903ac" x="340.841685" y="173.065929" style="fill: #1f77b4; stroke: #1f77b4"/>
     <use xlink:href="#md49be903ac" x="372.516606" y="201.845602" style="fill: #1f77b4; stroke: #1f77b4"/>
     <use xlink:href="#md49be903ac" x="400.22531" y="309.671066" style="fill: #1f77b4; stroke: #1f77b4"/>
     <use xlink:href="#md49be903ac" x="406.703945" y="283.580488" style="fill: #1f77b4; stroke: #1f77b4"/>
     <use xlink:href="#md49be903ac" x="393.545314" y="252.170382" style="fill: #1f77b4; stroke: #1f77b4"/>
     <use xlink:href="#md49be903ac" x="393.545314" y="252.170382" style="fill: #1f77b4; stroke: #1f77b4"/>
     <use xlink:href="#md49be903ac" x="351.414965" y="232.869517" style="fill: #1f77b4; stroke: #1f77b4"/>
     <use xlink:href="#md49be903ac" x="393.545314" y="252.170382" style="fill: #1f77b4; stroke: #1f77b4"/>
     <use xlink:href="#md49be903ac" x="432.327894" y="320.901228" style="fill: #1f77b4; stroke: #1f77b4"/>
     <use xlink:href="#md49be903ac" x="355.47974" y="150.696397" style="fill: #1f77b4; stroke: #1f77b4"/>
     <use xlink:href="#md49be903ac" x="424.51652" y="249.839503" style="fill: #1f77b4; stroke: #1f77b4"/>
     <use xlink:href="#md49be903ac" x="430.276938" y="317.615554" style="fill: #1f77b4; stroke: #1f77b4"/>
     <use xlink:href="#md49be903ac" x="353.498837" y="148.308639" style="fill: #1f77b4; stroke: #1f77b4"/>
     <use xlink:href="#md49be903ac" x="422.468296" y="246.391543" style="fill: #1f77b4; stroke: #1f77b4"/>
     <use xlink:href="#md49be903ac" x="415.075251" y="245.216006" style="fill: #1f77b4; stroke: #1f77b4"/>
     <use xlink:href="#md49be903ac" x="346.087226" y="101.28431" style="fill: #1f77b4; stroke: #1f77b4"/>
     <use xlink:href="#md49be903ac" x="407.89466" y="183.416716" style="fill: #1f77b4; stroke: #1f77b4"/>
     <use xlink:href="#md49be903ac" x="272.38481" y="46.175379" style="fill: #1f77b4; stroke: #1f77b4"/>
     <use xlink:href="#md49be903ac" x="432.686762" y="325.281092" style="fill: #1f77b4; stroke: #1f77b4"/>
     <use xlink:href="#md49be903ac" x="446.57025" y="278.335791" style="fill: #1f77b4; stroke: #1f77b4"/>
     <use xlink:href="#md49be903ac" x="349.295637" y="140.168302" style="fill: #1f77b4; stroke: #1f77b4"/>
     <use xlink:href="#md49be903ac" x="446.57025" y="278.335791" style="fill: #1f77b4; stroke: #1f77b4"/>
     <use xlink:href="#md49be903ac" x="449.39847" y="303.045145" style="fill: #1f77b4; stroke: #1f77b4"/>
     <use xlink:href="#md49be903ac" x="382.535086" y="144.516425" style="fill: #1f77b4; stroke: #1f77b4"/>
     <use xlink:href="#md49be903ac" x="422.673177" y="249.333282" style="fill: #1f77b4; stroke: #1f77b4"/>
     <use xlink:href="#md49be903ac" x="430.804931" y="322.489336" style="fill: #1f77b4; stroke: #1f77b4"/>
     <use xlink:href="#md49be903ac" x="349.906976" y="139.031056" style="fill: #1f77b4; stroke: #1f77b4"/>
     <use xlink:href="#md49be903ac" x="423.09347" y="250.72562" style="fill: #1f77b4; stroke: #1f77b4"/>
     <use xlink:href="#md49be903ac" x="432.686762" y="325.281092" style="fill: #1f77b4; stroke: #1f77b4"/>
     <use xlink:href="#md49be903ac" x="446.57025" y="278.335791" style="fill: #1f77b4; stroke: #1f77b4"/>
     <use xlink:href="#md49be903ac" x="368.954151" y="225.170159" style="fill: #1f77b4; stroke: #1f77b4"/>
     <use xlink:href="#md49be903ac" x="464.437308" y="340.422019" style="fill: #1f77b4; stroke: #1f77b4"/>
     <use xlink:href="#md49be903ac" x="496.294441" y="300.416791" style="fill: #1f77b4; stroke: #1f77b4"/>
     <use xlink:href="#md49be903ac" x="496.294441" y="300.416791" style="fill: #1f77b4; stroke: #1f77b4"/>
     <use xlink:href="#md49be903ac" x="70.167955" y="368.424287" style="fill: #1f77b4; stroke: #1f77b4"/>
     <use xlink:href="#md49be903ac" x="70.973588" y="367.74395" style="fill: #1f77b4; stroke: #1f77b4"/>
     <use xlink:href="#md49be903ac" x="87.629172" y="354.189959" style="fill: #1f77b4; stroke: #1f77b4"/>
     <use xlink:href="#md49be903ac" x="87.629172" y="354.189959" style="fill: #1f77b4; stroke: #1f77b4"/>
     <use xlink:href="#md49be903ac" x="70.973588" y="367.74395" style="fill: #1f77b4; stroke: #1f77b4"/>
     <use xlink:href="#md49be903ac" x="87.330091" y="353.048904" style="fill: #1f77b4; stroke: #1f77b4"/>
     <use xlink:href="#md49be903ac" x="73.299894" y="365.193967" style="fill: #1f77b4; stroke: #1f77b4"/>
     <use xlink:href="#md49be903ac" x="80.737486" y="359.410646" style="fill: #1f77b4; stroke: #1f77b4"/>
     <use xlink:href="#md49be903ac" x="76.847121" y="362.592238" style="fill: #1f77b4; stroke: #1f77b4"/>
     <use xlink:href="#md49be903ac" x="87.263156" y="353.169887" style="fill: #1f77b4; stroke: #1f77b4"/>
     <use xlink:href="#md49be903ac" x="76.854453" y="362.570487" style="fill: #1f77b4; stroke: #1f77b4"/>
     <use xlink:href="#md49be903ac" x="78.185006" y="361.65891" style="fill: #1f77b4; stroke: #1f77b4"/>
     <use xlink:href="#md49be903ac" x="135.890213" y="311.198653" style="fill: #1f77b4; stroke: #1f77b4"/>
    </g>
   </g>
   <g id="matplotlib.axis_1">
    <g id="xtick_1">
     <g id="line2d_1">
      <defs>
       <path id="me7cdb601a7" d="M 0 0 
L 0 3.5 
" style="stroke: #000000; stroke-width: 0.8"/>
      </defs>
      <g>
       <use xlink:href="#me7cdb601a7" x="90.465023" y="384.536733" style="stroke: #000000; stroke-width: 0.8"/>
      </g>
     </g>
     <g id="text_1">
      <!-- −6 -->
      <g transform="translate(83.093929 399.13517) scale(0.1 -0.1)">
       <defs>
        <path id="DejaVuSans-2212" d="M 678 2272 
L 4684 2272 
L 4684 1741 
L 678 1741 
L 678 2272 
z
" transform="scale(0.015625)"/>
        <path id="DejaVuSans-36" d="M 2113 2584 
Q 1688 2584 1439 2293 
Q 1191 2003 1191 1497 
Q 1191 994 1439 701 
Q 1688 409 2113 409 
Q 2538 409 2786 701 
Q 3034 994 3034 1497 
Q 3034 2003 2786 2293 
Q 2538 2584 2113 2584 
z
M 3366 4563 
L 3366 3988 
Q 3128 4100 2886 4159 
Q 2644 4219 2406 4219 
Q 1781 4219 1451 3797 
Q 1122 3375 1075 2522 
Q 1259 2794 1537 2939 
Q 1816 3084 2150 3084 
Q 2853 3084 3261 2657 
Q 3669 2231 3669 1497 
Q 3669 778 3244 343 
Q 2819 -91 2113 -91 
Q 1303 -91 875 529 
Q 447 1150 447 2328 
Q 447 3434 972 4092 
Q 1497 4750 2381 4750 
Q 2619 4750 2861 4703 
Q 3103 4656 3366 4563 
z
" transform="scale(0.015625)"/>
       </defs>
       <use xlink:href="#DejaVuSans-2212"/>
       <use xlink:href="#DejaVuSans-36" x="83.789062"/>
      </g>
     </g>
    </g>
    <g id="xtick_2">
     <g id="line2d_2">
      <g>
       <use xlink:href="#me7cdb601a7" x="170.027665" y="384.536733" style="stroke: #000000; stroke-width: 0.8"/>
      </g>
     </g>
     <g id="text_2">
      <!-- −4 -->
      <g transform="translate(162.656571 399.13517) scale(0.1 -0.1)">
       <defs>
        <path id="DejaVuSans-34" d="M 2419 4116 
L 825 1625 
L 2419 1625 
L 2419 4116 
z
M 2253 4666 
L 3047 4666 
L 3047 1625 
L 3713 1625 
L 3713 1100 
L 3047 1100 
L 3047 0 
L 2419 0 
L 2419 1100 
L 313 1100 
L 313 1709 
L 2253 4666 
z
" transform="scale(0.015625)"/>
       </defs>
       <use xlink:href="#DejaVuSans-2212"/>
       <use xlink:href="#DejaVuSans-34" x="83.789062"/>
      </g>
     </g>
    </g>
    <g id="xtick_3">
     <g id="line2d_3">
      <g>
       <use xlink:href="#me7cdb601a7" x="249.590307" y="384.536733" style="stroke: #000000; stroke-width: 0.8"/>
      </g>
     </g>
     <g id="text_3">
      <!-- −2 -->
      <g transform="translate(242.219213 399.13517) scale(0.1 -0.1)">
       <defs>
        <path id="DejaVuSans-32" d="M 1228 531 
L 3431 531 
L 3431 0 
L 469 0 
L 469 531 
Q 828 903 1448 1529 
Q 2069 2156 2228 2338 
Q 2531 2678 2651 2914 
Q 2772 3150 2772 3378 
Q 2772 3750 2511 3984 
Q 2250 4219 1831 4219 
Q 1534 4219 1204 4116 
Q 875 4013 500 3803 
L 500 4441 
Q 881 4594 1212 4672 
Q 1544 4750 1819 4750 
Q 2544 4750 2975 4387 
Q 3406 4025 3406 3419 
Q 3406 3131 3298 2873 
Q 3191 2616 2906 2266 
Q 2828 2175 2409 1742 
Q 1991 1309 1228 531 
z
" transform="scale(0.015625)"/>
       </defs>
       <use xlink:href="#DejaVuSans-2212"/>
       <use xlink:href="#DejaVuSans-32" x="83.789062"/>
      </g>
     </g>
    </g>
    <g id="xtick_4">
     <g id="line2d_4">
      <g>
       <use xlink:href="#me7cdb601a7" x="329.152949" y="384.536733" style="stroke: #000000; stroke-width: 0.8"/>
      </g>
     </g>
     <g id="text_4">
      <!-- 0 -->
      <g transform="translate(325.971699 399.13517) scale(0.1 -0.1)">
       <defs>
        <path id="DejaVuSans-30" d="M 2034 4250 
Q 1547 4250 1301 3770 
Q 1056 3291 1056 2328 
Q 1056 1369 1301 889 
Q 1547 409 2034 409 
Q 2525 409 2770 889 
Q 3016 1369 3016 2328 
Q 3016 3291 2770 3770 
Q 2525 4250 2034 4250 
z
M 2034 4750 
Q 2819 4750 3233 4129 
Q 3647 3509 3647 2328 
Q 3647 1150 3233 529 
Q 2819 -91 2034 -91 
Q 1250 -91 836 529 
Q 422 1150 422 2328 
Q 422 3509 836 4129 
Q 1250 4750 2034 4750 
z
" transform="scale(0.015625)"/>
       </defs>
       <use xlink:href="#DejaVuSans-30"/>
      </g>
     </g>
    </g>
    <g id="xtick_5">
     <g id="line2d_5">
      <g>
       <use xlink:href="#me7cdb601a7" x="408.715591" y="384.536733" style="stroke: #000000; stroke-width: 0.8"/>
      </g>
     </g>
     <g id="text_5">
      <!-- 2 -->
      <g transform="translate(405.534341 399.13517) scale(0.1 -0.1)">
       <use xlink:href="#DejaVuSans-32"/>
      </g>
     </g>
    </g>
    <g id="xtick_6">
     <g id="line2d_6">
      <g>
       <use xlink:href="#me7cdb601a7" x="488.278232" y="384.536733" style="stroke: #000000; stroke-width: 0.8"/>
      </g>
     </g>
     <g id="text_6">
      <!-- 4 -->
      <g transform="translate(485.096982 399.13517) scale(0.1 -0.1)">
       <use xlink:href="#DejaVuSans-34"/>
      </g>
     </g>
    </g>
    <g id="text_7">
     <!-- PC1 -->
     <g transform="translate(296.21 412.813295) scale(0.1 -0.1)">
      <defs>
       <path id="DejaVuSans-50" d="M 1259 4147 
L 1259 2394 
L 2053 2394 
Q 2494 2394 2734 2622 
Q 2975 2850 2975 3272 
Q 2975 3691 2734 3919 
Q 2494 4147 2053 4147 
L 1259 4147 
z
M 628 4666 
L 2053 4666 
Q 2838 4666 3239 4311 
Q 3641 3956 3641 3272 
Q 3641 2581 3239 2228 
Q 2838 1875 2053 1875 
L 1259 1875 
L 1259 0 
L 628 0 
L 628 4666 
z
" transform="scale(0.015625)"/>
       <path id="DejaVuSans-43" d="M 4122 4306 
L 4122 3641 
Q 3803 3938 3442 4084 
Q 3081 4231 2675 4231 
Q 1875 4231 1450 3742 
Q 1025 3253 1025 2328 
Q 1025 1406 1450 917 
Q 1875 428 2675 428 
Q 3081 428 3442 575 
Q 3803 722 4122 1019 
L 4122 359 
Q 3791 134 3420 21 
Q 3050 -91 2638 -91 
Q 1578 -91 968 557 
Q 359 1206 359 2328 
Q 359 3453 968 4101 
Q 1578 4750 2638 4750 
Q 3056 4750 3426 4639 
Q 3797 4528 4122 4306 
z
" transform="scale(0.015625)"/>
       <path id="DejaVuSans-31" d="M 794 531 
L 1825 531 
L 1825 4091 
L 703 3866 
L 703 4441 
L 1819 4666 
L 2450 4666 
L 2450 531 
L 3481 531 
L 3481 0 
L 794 0 
L 794 531 
z
" transform="scale(0.015625)"/>
      </defs>
      <use xlink:href="#DejaVuSans-50"/>
      <use xlink:href="#DejaVuSans-43" x="60.302734"/>
      <use xlink:href="#DejaVuSans-31" x="130.126953"/>
     </g>
    </g>
   </g>
   <g id="matplotlib.axis_2">
    <g id="ytick_1">
     <g id="line2d_7">
      <defs>
       <path id="mae46a394c6" d="M 0 0 
L -3.5 0 
" style="stroke: #000000; stroke-width: 0.8"/>
      </defs>
      <g>
       <use xlink:href="#mae46a394c6" x="46.595" y="358.727166" style="stroke: #000000; stroke-width: 0.8"/>
      </g>
     </g>
     <g id="text_8">
      <!-- −3 -->
      <g transform="translate(24.852813 362.526384) scale(0.1 -0.1)">
       <defs>
        <path id="DejaVuSans-33" d="M 2597 2516 
Q 3050 2419 3304 2112 
Q 3559 1806 3559 1356 
Q 3559 666 3084 287 
Q 2609 -91 1734 -91 
Q 1441 -91 1130 -33 
Q 819 25 488 141 
L 488 750 
Q 750 597 1062 519 
Q 1375 441 1716 441 
Q 2309 441 2620 675 
Q 2931 909 2931 1356 
Q 2931 1769 2642 2001 
Q 2353 2234 1838 2234 
L 1294 2234 
L 1294 2753 
L 1863 2753 
Q 2328 2753 2575 2939 
Q 2822 3125 2822 3475 
Q 2822 3834 2567 4026 
Q 2313 4219 1838 4219 
Q 1578 4219 1281 4162 
Q 984 4106 628 3988 
L 628 4550 
Q 988 4650 1302 4700 
Q 1616 4750 1894 4750 
Q 2613 4750 3031 4423 
Q 3450 4097 3450 3541 
Q 3450 3153 3228 2886 
Q 3006 2619 2597 2516 
z
" transform="scale(0.015625)"/>
       </defs>
       <use xlink:href="#DejaVuSans-2212"/>
       <use xlink:href="#DejaVuSans-33" x="83.789062"/>
      </g>
     </g>
    </g>
    <g id="ytick_2">
     <g id="line2d_8">
      <g>
       <use xlink:href="#mae46a394c6" x="46.595" y="318.945845" style="stroke: #000000; stroke-width: 0.8"/>
      </g>
     </g>
     <g id="text_9">
      <!-- −2 -->
      <g transform="translate(24.852813 322.745063) scale(0.1 -0.1)">
       <use xlink:href="#DejaVuSans-2212"/>
       <use xlink:href="#DejaVuSans-32" x="83.789062"/>
      </g>
     </g>
    </g>
    <g id="ytick_3">
     <g id="line2d_9">
      <g>
       <use xlink:href="#mae46a394c6" x="46.595" y="279.164524" style="stroke: #000000; stroke-width: 0.8"/>
      </g>
     </g>
     <g id="text_10">
      <!-- −1 -->
      <g transform="translate(24.852813 282.963742) scale(0.1 -0.1)">
       <use xlink:href="#DejaVuSans-2212"/>
       <use xlink:href="#DejaVuSans-31" x="83.789062"/>
      </g>
     </g>
    </g>
    <g id="ytick_4">
     <g id="line2d_10">
      <g>
       <use xlink:href="#mae46a394c6" x="46.595" y="239.383203" style="stroke: #000000; stroke-width: 0.8"/>
      </g>
     </g>
     <g id="text_11">
      <!-- 0 -->
      <g transform="translate(33.2325 243.182421) scale(0.1 -0.1)">
       <use xlink:href="#DejaVuSans-30"/>
      </g>
     </g>
    </g>
    <g id="ytick_5">
     <g id="line2d_11">
      <g>
       <use xlink:href="#mae46a394c6" x="46.595" y="199.601882" style="stroke: #000000; stroke-width: 0.8"/>
      </g>
     </g>
     <g id="text_12">
      <!-- 1 -->
      <g transform="translate(33.2325 203.4011) scale(0.1 -0.1)">
       <use xlink:href="#DejaVuSans-31"/>
      </g>
     </g>
    </g>
    <g id="ytick_6">
     <g id="line2d_12">
      <g>
       <use xlink:href="#mae46a394c6" x="46.595" y="159.820561" style="stroke: #000000; stroke-width: 0.8"/>
      </g>
     </g>
     <g id="text_13">
      <!-- 2 -->
      <g transform="translate(33.2325 163.619779) scale(0.1 -0.1)">
       <use xlink:href="#DejaVuSans-32"/>
      </g>
     </g>
    </g>
    <g id="ytick_7">
     <g id="line2d_13">
      <g>
       <use xlink:href="#mae46a394c6" x="46.595" y="120.03924" style="stroke: #000000; stroke-width: 0.8"/>
      </g>
     </g>
     <g id="text_14">
      <!-- 3 -->
      <g transform="translate(33.2325 123.838458) scale(0.1 -0.1)">
       <use xlink:href="#DejaVuSans-33"/>
      </g>
     </g>
    </g>
    <g id="ytick_8">
     <g id="line2d_14">
      <g>
       <use xlink:href="#mae46a394c6" x="46.595" y="80.257919" style="stroke: #000000; stroke-width: 0.8"/>
      </g>
     </g>
     <g id="text_15">
      <!-- 4 -->
      <g transform="translate(33.2325 84.057137) scale(0.1 -0.1)">
       <use xlink:href="#DejaVuSans-34"/>
      </g>
     </g>
    </g>
    <g id="ytick_9">
     <g id="line2d_15">
      <g>
       <use xlink:href="#mae46a394c6" x="46.595" y="40.476598" style="stroke: #000000; stroke-width: 0.8"/>
      </g>
     </g>
     <g id="text_16">
      <!-- 5 -->
      <g transform="translate(33.2325 44.275816) scale(0.1 -0.1)">
       <defs>
        <path id="DejaVuSans-35" d="M 691 4666 
L 3169 4666 
L 3169 4134 
L 1269 4134 
L 1269 2991 
Q 1406 3038 1543 3061 
Q 1681 3084 1819 3084 
Q 2600 3084 3056 2656 
Q 3513 2228 3513 1497 
Q 3513 744 3044 326 
Q 2575 -91 1722 -91 
Q 1428 -91 1123 -41 
Q 819 9 494 109 
L 494 744 
Q 775 591 1075 516 
Q 1375 441 1709 441 
Q 2250 441 2565 725 
Q 2881 1009 2881 1497 
Q 2881 1984 2565 2268 
Q 2250 2553 1709 2553 
Q 1456 2553 1204 2497 
Q 953 2441 691 2322 
L 691 4666 
z
" transform="scale(0.015625)"/>
       </defs>
       <use xlink:href="#DejaVuSans-35"/>
      </g>
     </g>
    </g>
    <g id="text_17">
     <!-- PC2 -->
     <g transform="translate(18.773125 216.987333) rotate(-90) scale(0.1 -0.1)">
      <use xlink:href="#DejaVuSans-50"/>
      <use xlink:href="#DejaVuSans-43" x="60.302734"/>
      <use xlink:href="#DejaVuSans-32" x="130.126953"/>
     </g>
    </g>
   </g>
   <g id="patch_3">
    <path d="M 46.595 384.536733 
L 46.595 30.062934 
" style="fill: none; stroke: #000000; stroke-width: 0.8; stroke-linejoin: miter; stroke-linecap: square"/>
   </g>
   <g id="patch_4">
    <path d="M 565.2 384.536733 
L 565.2 30.062934 
" style="fill: none; stroke: #000000; stroke-width: 0.8; stroke-linejoin: miter; stroke-linecap: square"/>
   </g>
   <g id="patch_5">
    <path d="M 46.595 384.536733 
L 565.2 384.536733 
" style="fill: none; stroke: #000000; stroke-width: 0.8; stroke-linejoin: miter; stroke-linecap: square"/>
   </g>
   <g id="patch_6">
    <path d="M 46.595 30.062934 
L 565.2 30.062934 
" style="fill: none; stroke: #000000; stroke-width: 0.8; stroke-linejoin: miter; stroke-linecap: square"/>
   </g>
  </g>
 </g>
 <defs>
  <clipPath id="p71144cfb93">
   <rect x="46.595" y="30.062934" width="518.605" height="354.473799"/>
  </clipPath>
 </defs>
</svg>
