<?xml version="1.0" encoding="utf-8" standalone="no"?>
<!DOCTYPE svg PUBLIC "-//W3C//DTD SVG 1.1//EN"
  "http://www.w3.org/Graphics/SVG/1.1/DTD/svg11.dtd">
<svg xmlns:xlink="http://www.w3.org/1999/xlink" width="576pt" height="432pt" viewBox="0 0 576 432" xmlns="http://www.w3.org/2000/svg" version="1.1">
 <metadata>
  <rdf:RDF xmlns:dc="http://purl.org/dc/elements/1.1/" xmlns:cc="http://creativecommons.org/ns#" xmlns:rdf="http://www.w3.org/1999/02/22-rdf-syntax-ns#">
   <cc:Work>
    <dc:type rdf:resource="http://purl.org/dc/dcmitype/StillImage"/>
    <dc:date>2024-05-06T00:19:36.706334</dc:date>
    <dc:format>image/svg+xml</dc:format>
    <dc:creator>
     <cc:Agent>
      <dc:title>Matplotlib v3.8.4, https://matplotlib.org/</dc:title>
     </cc:Agent>
    </dc:creator>
   </cc:Work>
  </rdf:RDF>
 </metadata>
 <defs>
  <style type="text/css">*{stroke-linejoin: round; stroke-linecap: butt}</style>
 </defs>
 <g id="figure_1">
  <g id="patch_1">
   <path d="M 0 432 
L 576 432 
L 576 0 
L 0 0 
z
" style="fill: #ffffff"/>
  </g>
  <g id="axes_1">
   <g id="patch_2">
    <path d="M 70.448652 390.04 
L 511.632544 390.04 
L 511.632544 10.8 
L 70.448652 10.8 
z
" style="fill: #ffffff"/>
   </g>
   <g id="PathCollection_1">
    <defs>
     <path id="m79529e5c7c" d="M 0 3 
C 0.795609 3 1.55874 2.683901 2.12132 2.12132 
C 2.683901 1.55874 3 0.795609 3 0 
C 3 -0.795609 2.683901 -1.55874 2.12132 -2.12132 
C 1.55874 -2.683901 0.795609 -3 0 -3 
C -0.795609 -3 -1.55874 -2.683901 -2.12132 -2.12132 
C -2.683901 -1.55874 -3 -0.795609 -3 0 
C -3 0.795609 -2.683901 1.55874 -2.12132 2.12132 
C -1.55874 2.683901 -0.795609 3 0 3 
z
" style="stroke: #1f77b4"/>
    </defs>
    <g clip-path="url(#p3dbf019670)">
     <use xlink:href="#m79529e5c7c" x="136.98979" y="276.113866" style="fill: #1f77b4; stroke: #1f77b4"/>
     <use xlink:href="#m79529e5c7c" x="188.669558" y="193.183629" style="fill: #1f77b4; stroke: #1f77b4"/>
     <use xlink:href="#m79529e5c7c" x="174.328264" y="256.870277" style="fill: #1f77b4; stroke: #1f77b4"/>
     <use xlink:href="#m79529e5c7c" x="116.439211" y="337.390585" style="fill: #1f77b4; stroke: #1f77b4"/>
     <use xlink:href="#m79529e5c7c" x="244.702492" y="249.341052" style="fill: #1f77b4; stroke: #1f77b4"/>
     <use xlink:href="#m79529e5c7c" x="149.427858" y="307.801602" style="fill: #1f77b4; stroke: #1f77b4"/>
     <use xlink:href="#m79529e5c7c" x="177.485679" y="263.577057" style="fill: #1f77b4; stroke: #1f77b4"/>
     <use xlink:href="#m79529e5c7c" x="195.671738" y="283.83818" style="fill: #1f77b4; stroke: #1f77b4"/>
     <use xlink:href="#m79529e5c7c" x="174.602038" y="251.592538" style="fill: #1f77b4; stroke: #1f77b4"/>
     <use xlink:href="#m79529e5c7c" x="163.272114" y="245.588905" style="fill: #1f77b4; stroke: #1f77b4"/>
     <use xlink:href="#m79529e5c7c" x="129.382837" y="269.527008" style="fill: #1f77b4; stroke: #1f77b4"/>
     <use xlink:href="#m79529e5c7c" x="209.892091" y="237.306388" style="fill: #1f77b4; stroke: #1f77b4"/>
     <use xlink:href="#m79529e5c7c" x="193.150236" y="240.280783" style="fill: #1f77b4; stroke: #1f77b4"/>
     <use xlink:href="#m79529e5c7c" x="130.390023" y="261.513188" style="fill: #1f77b4; stroke: #1f77b4"/>
     <use xlink:href="#m79529e5c7c" x="90.502465" y="306.568257" style="fill: #1f77b4; stroke: #1f77b4"/>
     <use xlink:href="#m79529e5c7c" x="184.201916" y="286.339295" style="fill: #1f77b4; stroke: #1f77b4"/>
     <use xlink:href="#m79529e5c7c" x="190.420226" y="317.364988" style="fill: #1f77b4; stroke: #1f77b4"/>
     <use xlink:href="#m79529e5c7c" x="203.161068" y="284.883914" style="fill: #1f77b4; stroke: #1f77b4"/>
     <use xlink:href="#m79529e5c7c" x="126.47755" y="326.281219" style="fill: #1f77b4; stroke: #1f77b4"/>
     <use xlink:href="#m79529e5c7c" x="194.500943" y="258.26983" style="fill: #1f77b4; stroke: #1f77b4"/>
     <use xlink:href="#m79529e5c7c" x="145.96716" y="245.470331" style="fill: #1f77b4; stroke: #1f77b4"/>
     <use xlink:href="#m79529e5c7c" x="241.077835" y="220.026667" style="fill: #1f77b4; stroke: #1f77b4"/>
     <use xlink:href="#m79529e5c7c" x="173.465573" y="204.45747" style="fill: #1f77b4; stroke: #1f77b4"/>
     <use xlink:href="#m79529e5c7c" x="215.015075" y="184.647886" style="fill: #1f77b4; stroke: #1f77b4"/>
     <use xlink:href="#m79529e5c7c" x="209.573647" y="193.941775" style="fill: #1f77b4; stroke: #1f77b4"/>
     <use xlink:href="#m79529e5c7c" x="245.581307" y="252.647167" style="fill: #1f77b4; stroke: #1f77b4"/>
     <use xlink:href="#m79529e5c7c" x="208.934152" y="240.769387" style="fill: #1f77b4; stroke: #1f77b4"/>
     <use xlink:href="#m79529e5c7c" x="234.130456" y="204.552382" style="fill: #1f77b4; stroke: #1f77b4"/>
     <use xlink:href="#m79529e5c7c" x="189.652414" y="240.927816" style="fill: #1f77b4; stroke: #1f77b4"/>
     <use xlink:href="#m79529e5c7c" x="186.492565" y="217.6799" style="fill: #1f77b4; stroke: #1f77b4"/>
     <use xlink:href="#m79529e5c7c" x="175.099299" y="266.656679" style="fill: #1f77b4; stroke: #1f77b4"/>
     <use xlink:href="#m79529e5c7c" x="166.829356" y="277.439878" style="fill: #1f77b4; stroke: #1f77b4"/>
     <use xlink:href="#m79529e5c7c" x="215.780934" y="211.203746" style="fill: #1f77b4; stroke: #1f77b4"/>
     <use xlink:href="#m79529e5c7c" x="202.987461" y="284.962863" style="fill: #1f77b4; stroke: #1f77b4"/>
     <use xlink:href="#m79529e5c7c" x="225.964428" y="241.318218" style="fill: #1f77b4; stroke: #1f77b4"/>
     <use xlink:href="#m79529e5c7c" x="202.934471" y="216.991435" style="fill: #1f77b4; stroke: #1f77b4"/>
     <use xlink:href="#m79529e5c7c" x="227.155803" y="239.484248" style="fill: #1f77b4; stroke: #1f77b4"/>
     <use xlink:href="#m79529e5c7c" x="239.414552" y="214.069683" style="fill: #1f77b4; stroke: #1f77b4"/>
     <use xlink:href="#m79529e5c7c" x="221.679616" y="172.832606" style="fill: #1f77b4; stroke: #1f77b4"/>
     <use xlink:href="#m79529e5c7c" x="173.718678" y="292.894455" style="fill: #1f77b4; stroke: #1f77b4"/>
     <use xlink:href="#m79529e5c7c" x="170.997937" y="245.130518" style="fill: #1f77b4; stroke: #1f77b4"/>
     <use xlink:href="#m79529e5c7c" x="260.591038" y="216.676396" style="fill: #1f77b4; stroke: #1f77b4"/>
     <use xlink:href="#m79529e5c7c" x="148.468596" y="262.693492" style="fill: #1f77b4; stroke: #1f77b4"/>
     <use xlink:href="#m79529e5c7c" x="270.218302" y="224.180451" style="fill: #1f77b4; stroke: #1f77b4"/>
     <use xlink:href="#m79529e5c7c" x="193.715459" y="205.429737" style="fill: #1f77b4; stroke: #1f77b4"/>
     <use xlink:href="#m79529e5c7c" x="238.763062" y="291.685891" style="fill: #1f77b4; stroke: #1f77b4"/>
     <use xlink:href="#m79529e5c7c" x="164.533542" y="264.346432" style="fill: #1f77b4; stroke: #1f77b4"/>
     <use xlink:href="#m79529e5c7c" x="160.111871" y="238.906384" style="fill: #1f77b4; stroke: #1f77b4"/>
     <use xlink:href="#m79529e5c7c" x="197.98604" y="266.945844" style="fill: #1f77b4; stroke: #1f77b4"/>
     <use xlink:href="#m79529e5c7c" x="165.425437" y="290.512546" style="fill: #1f77b4; stroke: #1f77b4"/>
     <use xlink:href="#m79529e5c7c" x="141.742604" y="216.537828" style="fill: #1f77b4; stroke: #1f77b4"/>
     <use xlink:href="#m79529e5c7c" x="158.356026" y="243.527902" style="fill: #1f77b4; stroke: #1f77b4"/>
     <use xlink:href="#m79529e5c7c" x="128.175529" y="284.014172" style="fill: #1f77b4; stroke: #1f77b4"/>
     <use xlink:href="#m79529e5c7c" x="187.954234" y="296.262622" style="fill: #1f77b4; stroke: #1f77b4"/>
     <use xlink:href="#m79529e5c7c" x="191.585519" y="256.198205" style="fill: #1f77b4; stroke: #1f77b4"/>
     <use xlink:href="#m79529e5c7c" x="176.541037" y="270.772" style="fill: #1f77b4; stroke: #1f77b4"/>
     <use xlink:href="#m79529e5c7c" x="163.837331" y="275.791179" style="fill: #1f77b4; stroke: #1f77b4"/>
     <use xlink:href="#m79529e5c7c" x="190.336886" y="265.32026" style="fill: #1f77b4; stroke: #1f77b4"/>
     <use xlink:href="#m79529e5c7c" x="145.268117" y="289.560974" style="fill: #1f77b4; stroke: #1f77b4"/>
     <use xlink:href="#m79529e5c7c" x="335.129959" y="65.296707" style="fill: #1f77b4; stroke: #1f77b4"/>
     <use xlink:href="#m79529e5c7c" x="363.782103" y="144.268518" style="fill: #1f77b4; stroke: #1f77b4"/>
     <use xlink:href="#m79529e5c7c" x="377.493057" y="170.006489" style="fill: #1f77b4; stroke: #1f77b4"/>
     <use xlink:href="#m79529e5c7c" x="290.362248" y="149.80655" style="fill: #1f77b4; stroke: #1f77b4"/>
     <use xlink:href="#m79529e5c7c" x="196.09997" y="118.897872" style="fill: #1f77b4; stroke: #1f77b4"/>
     <use xlink:href="#m79529e5c7c" x="320.246055" y="119.690081" style="fill: #1f77b4; stroke: #1f77b4"/>
     <use xlink:href="#m79529e5c7c" x="249.774887" y="173.090263" style="fill: #1f77b4; stroke: #1f77b4"/>
     <use xlink:href="#m79529e5c7c" x="186.847359" y="120.785312" style="fill: #1f77b4; stroke: #1f77b4"/>
     <use xlink:href="#m79529e5c7c" x="283.231759" y="95.462994" style="fill: #1f77b4; stroke: #1f77b4"/>
     <use xlink:href="#m79529e5c7c" x="329.726363" y="198.451966" style="fill: #1f77b4; stroke: #1f77b4"/>
     <use xlink:href="#m79529e5c7c" x="199.583655" y="143.249204" style="fill: #1f77b4; stroke: #1f77b4"/>
     <use xlink:href="#m79529e5c7c" x="365.169959" y="167.43955" style="fill: #1f77b4; stroke: #1f77b4"/>
     <use xlink:href="#m79529e5c7c" x="214.422639" y="164.091777" style="fill: #1f77b4; stroke: #1f77b4"/>
     <use xlink:href="#m79529e5c7c" x="325.645666" y="159.10094" style="fill: #1f77b4; stroke: #1f77b4"/>
     <use xlink:href="#m79529e5c7c" x="172.205272" y="220.888008" style="fill: #1f77b4; stroke: #1f77b4"/>
     <use xlink:href="#m79529e5c7c" x="206.260289" y="148.635442" style="fill: #1f77b4; stroke: #1f77b4"/>
     <use xlink:href="#m79529e5c7c" x="332.302117" y="94.671659" style="fill: #1f77b4; stroke: #1f77b4"/>
     <use xlink:href="#m79529e5c7c" x="274.521258" y="108.215739" style="fill: #1f77b4; stroke: #1f77b4"/>
     <use xlink:href="#m79529e5c7c" x="359.810131" y="144.179454" style="fill: #1f77b4; stroke: #1f77b4"/>
     <use xlink:href="#m79529e5c7c" x="232.846642" y="172.766447" style="fill: #1f77b4; stroke: #1f77b4"/>
     <use xlink:href="#m79529e5c7c" x="274.234877" y="160.809246" style="fill: #1f77b4; stroke: #1f77b4"/>
     <use xlink:href="#m79529e5c7c" x="256.223339" y="51.2218" style="fill: #1f77b4; stroke: #1f77b4"/>
     <use xlink:href="#m79529e5c7c" x="243.504435" y="141.035691" style="fill: #1f77b4; stroke: #1f77b4"/>
     <use xlink:href="#m79529e5c7c" x="314.887865" y="97.605381" style="fill: #1f77b4; stroke: #1f77b4"/>
     <use xlink:href="#m79529e5c7c" x="410.291077" y="204.662701" style="fill: #1f77b4; stroke: #1f77b4"/>
     <use xlink:href="#m79529e5c7c" x="252.80429" y="139.964054" style="fill: #1f77b4; stroke: #1f77b4"/>
     <use xlink:href="#m79529e5c7c" x="255.017289" y="114.156232" style="fill: #1f77b4; stroke: #1f77b4"/>
     <use xlink:href="#m79529e5c7c" x="329.447594" y="104.485516" style="fill: #1f77b4; stroke: #1f77b4"/>
     <use xlink:href="#m79529e5c7c" x="317.835972" y="97.990807" style="fill: #1f77b4; stroke: #1f77b4"/>
     <use xlink:href="#m79529e5c7c" x="343.835731" y="124.62857" style="fill: #1f77b4; stroke: #1f77b4"/>
     <use xlink:href="#m79529e5c7c" x="317.727702" y="84.70994" style="fill: #1f77b4; stroke: #1f77b4"/>
     <use xlink:href="#m79529e5c7c" x="354.765222" y="109.891538" style="fill: #1f77b4; stroke: #1f77b4"/>
     <use xlink:href="#m79529e5c7c" x="364.809012" y="122.296471" style="fill: #1f77b4; stroke: #1f77b4"/>
     <use xlink:href="#m79529e5c7c" x="381.987889" y="135.958393" style="fill: #1f77b4; stroke: #1f77b4"/>
     <use xlink:href="#m79529e5c7c" x="256.942" y="100.793662" style="fill: #1f77b4; stroke: #1f77b4"/>
     <use xlink:href="#m79529e5c7c" x="247.103937" y="104.966334" style="fill: #1f77b4; stroke: #1f77b4"/>
     <use xlink:href="#m79529e5c7c" x="173.062272" y="216.644336" style="fill: #1f77b4; stroke: #1f77b4"/>
     <use xlink:href="#m79529e5c7c" x="317.178355" y="191.525185" style="fill: #1f77b4; stroke: #1f77b4"/>
     <use xlink:href="#m79529e5c7c" x="243.669105" y="89.002439" style="fill: #1f77b4; stroke: #1f77b4"/>
     <use xlink:href="#m79529e5c7c" x="186.688568" y="141.874319" style="fill: #1f77b4; stroke: #1f77b4"/>
     <use xlink:href="#m79529e5c7c" x="225.972479" y="107.642378" style="fill: #1f77b4; stroke: #1f77b4"/>
     <use xlink:href="#m79529e5c7c" x="254.559191" y="97.805826" style="fill: #1f77b4; stroke: #1f77b4"/>
     <use xlink:href="#m79529e5c7c" x="317.438747" y="101.71792" style="fill: #1f77b4; stroke: #1f77b4"/>
     <use xlink:href="#m79529e5c7c" x="299.313121" y="154.394585" style="fill: #1f77b4; stroke: #1f77b4"/>
     <use xlink:href="#m79529e5c7c" x="322.585004" y="83.66349" style="fill: #1f77b4; stroke: #1f77b4"/>
     <use xlink:href="#m79529e5c7c" x="273.478595" y="110.790905" style="fill: #1f77b4; stroke: #1f77b4"/>
     <use xlink:href="#m79529e5c7c" x="374.517655" y="128.593804" style="fill: #1f77b4; stroke: #1f77b4"/>
     <use xlink:href="#m79529e5c7c" x="308.885347" y="107.494821" style="fill: #1f77b4; stroke: #1f77b4"/>
     <use xlink:href="#m79529e5c7c" x="367.431537" y="145.475473" style="fill: #1f77b4; stroke: #1f77b4"/>
     <use xlink:href="#m79529e5c7c" x="287.938595" y="101.106233" style="fill: #1f77b4; stroke: #1f77b4"/>
     <use xlink:href="#m79529e5c7c" x="218.128748" y="140.507147" style="fill: #1f77b4; stroke: #1f77b4"/>
     <use xlink:href="#m79529e5c7c" x="225.489268" y="142.552691" style="fill: #1f77b4; stroke: #1f77b4"/>
     <use xlink:href="#m79529e5c7c" x="304.79849" y="118.639517" style="fill: #1f77b4; stroke: #1f77b4"/>
     <use xlink:href="#m79529e5c7c" x="352.611739" y="173.124762" style="fill: #1f77b4; stroke: #1f77b4"/>
     <use xlink:href="#m79529e5c7c" x="313.123417" y="102.824666" style="fill: #1f77b4; stroke: #1f77b4"/>
     <use xlink:href="#m79529e5c7c" x="314.855619" y="118.243876" style="fill: #1f77b4; stroke: #1f77b4"/>
     <use xlink:href="#m79529e5c7c" x="269.291141" y="28.038182" style="fill: #1f77b4; stroke: #1f77b4"/>
     <use xlink:href="#m79529e5c7c" x="303.593693" y="77.057879" style="fill: #1f77b4; stroke: #1f77b4"/>
     <use xlink:href="#m79529e5c7c" x="296.795323" y="118.716342" style="fill: #1f77b4; stroke: #1f77b4"/>
     <use xlink:href="#m79529e5c7c" x="405.345453" y="150.070021" style="fill: #1f77b4; stroke: #1f77b4"/>
     <use xlink:href="#m79529e5c7c" x="317.511454" y="105.03013" style="fill: #1f77b4; stroke: #1f77b4"/>
     <use xlink:href="#m79529e5c7c" x="257.270762" y="142.98441" style="fill: #1f77b4; stroke: #1f77b4"/>
     <use xlink:href="#m79529e5c7c" x="229.421308" y="220.567759" style="fill: #1f77b4; stroke: #1f77b4"/>
     <use xlink:href="#m79529e5c7c" x="346.728302" y="177.754926" style="fill: #1f77b4; stroke: #1f77b4"/>
     <use xlink:href="#m79529e5c7c" x="313.369061" y="179.886862" style="fill: #1f77b4; stroke: #1f77b4"/>
     <use xlink:href="#m79529e5c7c" x="246.122942" y="141.275552" style="fill: #1f77b4; stroke: #1f77b4"/>
     <use xlink:href="#m79529e5c7c" x="296.309093" y="110.26508" style="fill: #1f77b4; stroke: #1f77b4"/>
     <use xlink:href="#m79529e5c7c" x="289.994454" y="149.620982" style="fill: #1f77b4; stroke: #1f77b4"/>
     <use xlink:href="#m79529e5c7c" x="366.334077" y="152.356854" style="fill: #1f77b4; stroke: #1f77b4"/>
     <use xlink:href="#m79529e5c7c" x="314.173224" y="118.253415" style="fill: #1f77b4; stroke: #1f77b4"/>
     <use xlink:href="#m79529e5c7c" x="375.466711" y="155.057111" style="fill: #1f77b4; stroke: #1f77b4"/>
     <use xlink:href="#m79529e5c7c" x="353.729857" y="216.696385" style="fill: #1f77b4; stroke: #1f77b4"/>
     <use xlink:href="#m79529e5c7c" x="403.081289" y="226.226594" style="fill: #1f77b4; stroke: #1f77b4"/>
     <use xlink:href="#m79529e5c7c" x="428.864994" y="221.058982" style="fill: #1f77b4; stroke: #1f77b4"/>
     <use xlink:href="#m79529e5c7c" x="391.987723" y="225.931267" style="fill: #1f77b4; stroke: #1f77b4"/>
     <use xlink:href="#m79529e5c7c" x="402.398408" y="187.291607" style="fill: #1f77b4; stroke: #1f77b4"/>
     <use xlink:href="#m79529e5c7c" x="434.787799" y="225.238549" style="fill: #1f77b4; stroke: #1f77b4"/>
     <use xlink:href="#m79529e5c7c" x="474.548647" y="215.958647" style="fill: #1f77b4; stroke: #1f77b4"/>
     <use xlink:href="#m79529e5c7c" x="475.515215" y="239.533132" style="fill: #1f77b4; stroke: #1f77b4"/>
     <use xlink:href="#m79529e5c7c" x="436.208255" y="225.025252" style="fill: #1f77b4; stroke: #1f77b4"/>
     <use xlink:href="#m79529e5c7c" x="402.613201" y="222.371343" style="fill: #1f77b4; stroke: #1f77b4"/>
     <use xlink:href="#m79529e5c7c" x="421.484809" y="222.129791" style="fill: #1f77b4; stroke: #1f77b4"/>
     <use xlink:href="#m79529e5c7c" x="398.510208" y="226.12976" style="fill: #1f77b4; stroke: #1f77b4"/>
     <use xlink:href="#m79529e5c7c" x="431.137635" y="231.576907" style="fill: #1f77b4; stroke: #1f77b4"/>
     <use xlink:href="#m79529e5c7c" x="402.646948" y="231.255605" style="fill: #1f77b4; stroke: #1f77b4"/>
     <use xlink:href="#m79529e5c7c" x="394.930627" y="262.886415" style="fill: #1f77b4; stroke: #1f77b4"/>
     <use xlink:href="#m79529e5c7c" x="414.334963" y="235.028003" style="fill: #1f77b4; stroke: #1f77b4"/>
     <use xlink:href="#m79529e5c7c" x="491.578731" y="239.065648" style="fill: #1f77b4; stroke: #1f77b4"/>
     <use xlink:href="#m79529e5c7c" x="459.001467" y="268.14408" style="fill: #1f77b4; stroke: #1f77b4"/>
     <use xlink:href="#m79529e5c7c" x="422.803343" y="282.04459" style="fill: #1f77b4; stroke: #1f77b4"/>
     <use xlink:href="#m79529e5c7c" x="427.125009" y="304.005071" style="fill: #1f77b4; stroke: #1f77b4"/>
     <use xlink:href="#m79529e5c7c" x="400.105272" y="318.721325" style="fill: #1f77b4; stroke: #1f77b4"/>
     <use xlink:href="#m79529e5c7c" x="410.797654" y="304.202313" style="fill: #1f77b4; stroke: #1f77b4"/>
     <use xlink:href="#m79529e5c7c" x="376.386524" y="280.042909" style="fill: #1f77b4; stroke: #1f77b4"/>
     <use xlink:href="#m79529e5c7c" x="420.613513" y="308.573155" style="fill: #1f77b4; stroke: #1f77b4"/>
     <use xlink:href="#m79529e5c7c" x="419.54032" y="227.874304" style="fill: #1f77b4; stroke: #1f77b4"/>
     <use xlink:href="#m79529e5c7c" x="460.03888" y="292.865623" style="fill: #1f77b4; stroke: #1f77b4"/>
     <use xlink:href="#m79529e5c7c" x="426.666062" y="298.598607" style="fill: #1f77b4; stroke: #1f77b4"/>
     <use xlink:href="#m79529e5c7c" x="450.111048" y="269.972411" style="fill: #1f77b4; stroke: #1f77b4"/>
     <use xlink:href="#m79529e5c7c" x="340.711983" y="372.801818" style="fill: #1f77b4; stroke: #1f77b4"/>
     <use xlink:href="#m79529e5c7c" x="366.929328" y="321.067647" style="fill: #1f77b4; stroke: #1f77b4"/>
     <use xlink:href="#m79529e5c7c" x="438.488431" y="243.195698" style="fill: #1f77b4; stroke: #1f77b4"/>
     <use xlink:href="#m79529e5c7c" x="396.344401" y="263.605768" style="fill: #1f77b4; stroke: #1f77b4"/>
     <use xlink:href="#m79529e5c7c" x="424.698714" y="234.695844" style="fill: #1f77b4; stroke: #1f77b4"/>
     <use xlink:href="#m79529e5c7c" x="413.022349" y="241.319675" style="fill: #1f77b4; stroke: #1f77b4"/>
     <use xlink:href="#m79529e5c7c" x="429.441832" y="281.33401" style="fill: #1f77b4; stroke: #1f77b4"/>
     <use xlink:href="#m79529e5c7c" x="456.546071" y="249.933604" style="fill: #1f77b4; stroke: #1f77b4"/>
     <use xlink:href="#m79529e5c7c" x="404.089867" y="329.735565" style="fill: #1f77b4; stroke: #1f77b4"/>
     <use xlink:href="#m79529e5c7c" x="428.498364" y="268.225486" style="fill: #1f77b4; stroke: #1f77b4"/>
     <use xlink:href="#m79529e5c7c" x="393.602668" y="305.707697" style="fill: #1f77b4; stroke: #1f77b4"/>
     <use xlink:href="#m79529e5c7c" x="402.914526" y="329.563403" style="fill: #1f77b4; stroke: #1f77b4"/>
     <use xlink:href="#m79529e5c7c" x="441.684854" y="197.017482" style="fill: #1f77b4; stroke: #1f77b4"/>
     <use xlink:href="#m79529e5c7c" x="463.448297" y="248.310385" style="fill: #1f77b4; stroke: #1f77b4"/>
     <use xlink:href="#m79529e5c7c" x="406.864324" y="311.133885" style="fill: #1f77b4; stroke: #1f77b4"/>
     <use xlink:href="#m79529e5c7c" x="449.101433" y="312.183588" style="fill: #1f77b4; stroke: #1f77b4"/>
     <use xlink:href="#m79529e5c7c" x="413.230452" y="290.758134" style="fill: #1f77b4; stroke: #1f77b4"/>
     <use xlink:href="#m79529e5c7c" x="416.772127" y="337.601882" style="fill: #1f77b4; stroke: #1f77b4"/>
     <use xlink:href="#m79529e5c7c" x="403.198729" y="315.966744" style="fill: #1f77b4; stroke: #1f77b4"/>
     <use xlink:href="#m79529e5c7c" x="441.551415" y="337.976215" style="fill: #1f77b4; stroke: #1f77b4"/>
    </g>
   </g>
   <g id="matplotlib.axis_1">
    <g id="xtick_1">
     <g id="line2d_1">
      <defs>
       <path id="m6859ce285b" d="M 0 0 
L 0 3.5 
" style="stroke: #000000; stroke-width: 0.8"/>
      </defs>
      <g>
       <use xlink:href="#m6859ce285b" x="105.100863" y="390.04" style="stroke: #000000; stroke-width: 0.8"/>
      </g>
     </g>
     <g id="text_1">
      <!-- −4 -->
      <g transform="translate(97.729769 404.638438) scale(0.1 -0.1)">
       <defs>
        <path id="DejaVuSans-2212" d="M 678 2272 
L 4684 2272 
L 4684 1741 
L 678 1741 
L 678 2272 
z
" transform="scale(0.015625)"/>
        <path id="DejaVuSans-34" d="M 2419 4116 
L 825 1625 
L 2419 1625 
L 2419 4116 
z
M 2253 4666 
L 3047 4666 
L 3047 1625 
L 3713 1625 
L 3713 1100 
L 3047 1100 
L 3047 0 
L 2419 0 
L 2419 1100 
L 313 1100 
L 313 1709 
L 2253 4666 
z
" transform="scale(0.015625)"/>
       </defs>
       <use xlink:href="#DejaVuSans-2212"/>
       <use xlink:href="#DejaVuSans-34" x="83.789062"/>
      </g>
     </g>
    </g>
    <g id="xtick_2">
     <g id="line2d_2">
      <g>
       <use xlink:href="#m6859ce285b" x="198.445804" y="390.04" style="stroke: #000000; stroke-width: 0.8"/>
      </g>
     </g>
     <g id="text_2">
      <!-- −2 -->
      <g transform="translate(191.07471 404.638438) scale(0.1 -0.1)">
       <defs>
        <path id="DejaVuSans-32" d="M 1228 531 
L 3431 531 
L 3431 0 
L 469 0 
L 469 531 
Q 828 903 1448 1529 
Q 2069 2156 2228 2338 
Q 2531 2678 2651 2914 
Q 2772 3150 2772 3378 
Q 2772 3750 2511 3984 
Q 2250 4219 1831 4219 
Q 1534 4219 1204 4116 
Q 875 4013 500 3803 
L 500 4441 
Q 881 4594 1212 4672 
Q 1544 4750 1819 4750 
Q 2544 4750 2975 4387 
Q 3406 4025 3406 3419 
Q 3406 3131 3298 2873 
Q 3191 2616 2906 2266 
Q 2828 2175 2409 1742 
Q 1991 1309 1228 531 
z
" transform="scale(0.015625)"/>
       </defs>
       <use xlink:href="#DejaVuSans-2212"/>
       <use xlink:href="#DejaVuSans-32" x="83.789062"/>
      </g>
     </g>
    </g>
    <g id="xtick_3">
     <g id="line2d_3">
      <g>
       <use xlink:href="#m6859ce285b" x="291.790744" y="390.04" style="stroke: #000000; stroke-width: 0.8"/>
      </g>
     </g>
     <g id="text_3">
      <!-- 0 -->
      <g transform="translate(288.609494 404.638438) scale(0.1 -0.1)">
       <defs>
        <path id="DejaVuSans-30" d="M 2034 4250 
Q 1547 4250 1301 3770 
Q 1056 3291 1056 2328 
Q 1056 1369 1301 889 
Q 1547 409 2034 409 
Q 2525 409 2770 889 
Q 3016 1369 3016 2328 
Q 3016 3291 2770 3770 
Q 2525 4250 2034 4250 
z
M 2034 4750 
Q 2819 4750 3233 4129 
Q 3647 3509 3647 2328 
Q 3647 1150 3233 529 
Q 2819 -91 2034 -91 
Q 1250 -91 836 529 
Q 422 1150 422 2328 
Q 422 3509 836 4129 
Q 1250 4750 2034 4750 
z
" transform="scale(0.015625)"/>
       </defs>
       <use xlink:href="#DejaVuSans-30"/>
      </g>
     </g>
    </g>
    <g id="xtick_4">
     <g id="line2d_4">
      <g>
       <use xlink:href="#m6859ce285b" x="385.135685" y="390.04" style="stroke: #000000; stroke-width: 0.8"/>
      </g>
     </g>
     <g id="text_4">
      <!-- 2 -->
      <g transform="translate(381.954435 404.638438) scale(0.1 -0.1)">
       <use xlink:href="#DejaVuSans-32"/>
      </g>
     </g>
    </g>
    <g id="xtick_5">
     <g id="line2d_5">
      <g>
       <use xlink:href="#m6859ce285b" x="478.480626" y="390.04" style="stroke: #000000; stroke-width: 0.8"/>
      </g>
     </g>
     <g id="text_5">
      <!-- 4 -->
      <g transform="translate(475.299376 404.638438) scale(0.1 -0.1)">
       <use xlink:href="#DejaVuSans-34"/>
      </g>
     </g>
    </g>
    <g id="text_6">
     <!-- PC 1 (0.36) -->
     <g transform="translate(263.140598 418.316562) scale(0.1 -0.1)">
      <defs>
       <path id="DejaVuSans-50" d="M 1259 4147 
L 1259 2394 
L 2053 2394 
Q 2494 2394 2734 2622 
Q 2975 2850 2975 3272 
Q 2975 3691 2734 3919 
Q 2494 4147 2053 4147 
L 1259 4147 
z
M 628 4666 
L 2053 4666 
Q 2838 4666 3239 4311 
Q 3641 3956 3641 3272 
Q 3641 2581 3239 2228 
Q 2838 1875 2053 1875 
L 1259 1875 
L 1259 0 
L 628 0 
L 628 4666 
z
" transform="scale(0.015625)"/>
       <path id="DejaVuSans-43" d="M 4122 4306 
L 4122 3641 
Q 3803 3938 3442 4084 
Q 3081 4231 2675 4231 
Q 1875 4231 1450 3742 
Q 1025 3253 1025 2328 
Q 1025 1406 1450 917 
Q 1875 428 2675 428 
Q 3081 428 3442 575 
Q 3803 722 4122 1019 
L 4122 359 
Q 3791 134 3420 21 
Q 3050 -91 2638 -91 
Q 1578 -91 968 557 
Q 359 1206 359 2328 
Q 359 3453 968 4101 
Q 1578 4750 2638 4750 
Q 3056 4750 3426 4639 
Q 3797 4528 4122 4306 
z
" transform="scale(0.015625)"/>
       <path id="DejaVuSans-20" transform="scale(0.015625)"/>
       <path id="DejaVuSans-31" d="M 794 531 
L 1825 531 
L 1825 4091 
L 703 3866 
L 703 4441 
L 1819 4666 
L 2450 4666 
L 2450 531 
L 3481 531 
L 3481 0 
L 794 0 
L 794 531 
z
" transform="scale(0.015625)"/>
       <path id="DejaVuSans-28" d="M 1984 4856 
Q 1566 4138 1362 3434 
Q 1159 2731 1159 2009 
Q 1159 1288 1364 580 
Q 1569 -128 1984 -844 
L 1484 -844 
Q 1016 -109 783 600 
Q 550 1309 550 2009 
Q 550 2706 781 3412 
Q 1013 4119 1484 4856 
L 1984 4856 
z
" transform="scale(0.015625)"/>
       <path id="DejaVuSans-2e" d="M 684 794 
L 1344 794 
L 1344 0 
L 684 0 
L 684 794 
z
" transform="scale(0.015625)"/>
       <path id="DejaVuSans-33" d="M 2597 2516 
Q 3050 2419 3304 2112 
Q 3559 1806 3559 1356 
Q 3559 666 3084 287 
Q 2609 -91 1734 -91 
Q 1441 -91 1130 -33 
Q 819 25 488 141 
L 488 750 
Q 750 597 1062 519 
Q 1375 441 1716 441 
Q 2309 441 2620 675 
Q 2931 909 2931 1356 
Q 2931 1769 2642 2001 
Q 2353 2234 1838 2234 
L 1294 2234 
L 1294 2753 
L 1863 2753 
Q 2328 2753 2575 2939 
Q 2822 3125 2822 3475 
Q 2822 3834 2567 4026 
Q 2313 4219 1838 4219 
Q 1578 4219 1281 4162 
Q 984 4106 628 3988 
L 628 4550 
Q 988 4650 1302 4700 
Q 1616 4750 1894 4750 
Q 2613 4750 3031 4423 
Q 3450 4097 3450 3541 
Q 3450 3153 3228 2886 
Q 3006 2619 2597 2516 
z
" transform="scale(0.015625)"/>
       <path id="DejaVuSans-36" d="M 2113 2584 
Q 1688 2584 1439 2293 
Q 1191 2003 1191 1497 
Q 1191 994 1439 701 
Q 1688 409 2113 409 
Q 2538 409 2786 701 
Q 3034 994 3034 1497 
Q 3034 2003 2786 2293 
Q 2538 2584 2113 2584 
z
M 3366 4563 
L 3366 3988 
Q 3128 4100 2886 4159 
Q 2644 4219 2406 4219 
Q 1781 4219 1451 3797 
Q 1122 3375 1075 2522 
Q 1259 2794 1537 2939 
Q 1816 3084 2150 3084 
Q 2853 3084 3261 2657 
Q 3669 2231 3669 1497 
Q 3669 778 3244 343 
Q 2819 -91 2113 -91 
Q 1303 -91 875 529 
Q 447 1150 447 2328 
Q 447 3434 972 4092 
Q 1497 4750 2381 4750 
Q 2619 4750 2861 4703 
Q 3103 4656 3366 4563 
z
" transform="scale(0.015625)"/>
       <path id="DejaVuSans-29" d="M 513 4856 
L 1013 4856 
Q 1481 4119 1714 3412 
Q 1947 2706 1947 2009 
Q 1947 1309 1714 600 
Q 1481 -109 1013 -844 
L 513 -844 
Q 928 -128 1133 580 
Q 1338 1288 1338 2009 
Q 1338 2731 1133 3434 
Q 928 4138 513 4856 
z
" transform="scale(0.015625)"/>
      </defs>
      <use xlink:href="#DejaVuSans-50"/>
      <use xlink:href="#DejaVuSans-43" x="60.302734"/>
      <use xlink:href="#DejaVuSans-20" x="130.126953"/>
      <use xlink:href="#DejaVuSans-31" x="161.914062"/>
      <use xlink:href="#DejaVuSans-20" x="225.537109"/>
      <use xlink:href="#DejaVuSans-28" x="257.324219"/>
      <use xlink:href="#DejaVuSans-30" x="296.337891"/>
      <use xlink:href="#DejaVuSans-2e" x="359.960938"/>
      <use xlink:href="#DejaVuSans-33" x="391.748047"/>
      <use xlink:href="#DejaVuSans-36" x="455.371094"/>
      <use xlink:href="#DejaVuSans-29" x="518.994141"/>
     </g>
    </g>
   </g>
   <g id="matplotlib.axis_2">
    <g id="ytick_1">
     <g id="line2d_6">
      <defs>
       <path id="m4e76f614b0" d="M 0 0 
L -3.5 0 
" style="stroke: #000000; stroke-width: 0.8"/>
      </defs>
      <g>
       <use xlink:href="#m4e76f614b0" x="70.448652" y="348.76131" style="stroke: #000000; stroke-width: 0.8"/>
      </g>
     </g>
     <g id="text_7">
      <!-- −3 -->
      <g transform="translate(48.706464 352.560529) scale(0.1 -0.1)">
       <use xlink:href="#DejaVuSans-2212"/>
       <use xlink:href="#DejaVuSans-33" x="83.789062"/>
      </g>
     </g>
    </g>
    <g id="ytick_2">
     <g id="line2d_7">
      <g>
       <use xlink:href="#m4e76f614b0" x="70.448652" y="302.088839" style="stroke: #000000; stroke-width: 0.8"/>
      </g>
     </g>
     <g id="text_8">
      <!-- −2 -->
      <g transform="translate(48.706464 305.888058) scale(0.1 -0.1)">
       <use xlink:href="#DejaVuSans-2212"/>
       <use xlink:href="#DejaVuSans-32" x="83.789062"/>
      </g>
     </g>
    </g>
    <g id="ytick_3">
     <g id="line2d_8">
      <g>
       <use xlink:href="#m4e76f614b0" x="70.448652" y="255.416369" style="stroke: #000000; stroke-width: 0.8"/>
      </g>
     </g>
     <g id="text_9">
      <!-- −1 -->
      <g transform="translate(48.706464 259.215588) scale(0.1 -0.1)">
       <use xlink:href="#DejaVuSans-2212"/>
       <use xlink:href="#DejaVuSans-31" x="83.789062"/>
      </g>
     </g>
    </g>
    <g id="ytick_4">
     <g id="line2d_9">
      <g>
       <use xlink:href="#m4e76f614b0" x="70.448652" y="208.743899" style="stroke: #000000; stroke-width: 0.8"/>
      </g>
     </g>
     <g id="text_10">
      <!-- 0 -->
      <g transform="translate(57.086152 212.543117) scale(0.1 -0.1)">
       <use xlink:href="#DejaVuSans-30"/>
      </g>
     </g>
    </g>
    <g id="ytick_5">
     <g id="line2d_10">
      <g>
       <use xlink:href="#m4e76f614b0" x="70.448652" y="162.071428" style="stroke: #000000; stroke-width: 0.8"/>
      </g>
     </g>
     <g id="text_11">
      <!-- 1 -->
      <g transform="translate(57.086152 165.870647) scale(0.1 -0.1)">
       <use xlink:href="#DejaVuSans-31"/>
      </g>
     </g>
    </g>
    <g id="ytick_6">
     <g id="line2d_11">
      <g>
       <use xlink:href="#m4e76f614b0" x="70.448652" y="115.398958" style="stroke: #000000; stroke-width: 0.8"/>
      </g>
     </g>
     <g id="text_12">
      <!-- 2 -->
      <g transform="translate(57.086152 119.198177) scale(0.1 -0.1)">
       <use xlink:href="#DejaVuSans-32"/>
      </g>
     </g>
    </g>
    <g id="ytick_7">
     <g id="line2d_12">
      <g>
       <use xlink:href="#m4e76f614b0" x="70.448652" y="68.726488" style="stroke: #000000; stroke-width: 0.8"/>
      </g>
     </g>
     <g id="text_13">
      <!-- 3 -->
      <g transform="translate(57.086152 72.525706) scale(0.1 -0.1)">
       <use xlink:href="#DejaVuSans-33"/>
      </g>
     </g>
    </g>
    <g id="ytick_8">
     <g id="line2d_13">
      <g>
       <use xlink:href="#m4e76f614b0" x="70.448652" y="22.054017" style="stroke: #000000; stroke-width: 0.8"/>
      </g>
     </g>
     <g id="text_14">
      <!-- 4 -->
      <g transform="translate(57.086152 25.853236) scale(0.1 -0.1)">
       <use xlink:href="#DejaVuSans-34"/>
      </g>
     </g>
    </g>
    <g id="text_15">
     <!-- PC 2 (0.19) -->
     <g transform="translate(42.626777 228.32) rotate(-90) scale(0.1 -0.1)">
      <defs>
       <path id="DejaVuSans-39" d="M 703 97 
L 703 672 
Q 941 559 1184 500 
Q 1428 441 1663 441 
Q 2288 441 2617 861 
Q 2947 1281 2994 2138 
Q 2813 1869 2534 1725 
Q 2256 1581 1919 1581 
Q 1219 1581 811 2004 
Q 403 2428 403 3163 
Q 403 3881 828 4315 
Q 1253 4750 1959 4750 
Q 2769 4750 3195 4129 
Q 3622 3509 3622 2328 
Q 3622 1225 3098 567 
Q 2575 -91 1691 -91 
Q 1453 -91 1209 -44 
Q 966 3 703 97 
z
M 1959 2075 
Q 2384 2075 2632 2365 
Q 2881 2656 2881 3163 
Q 2881 3666 2632 3958 
Q 2384 4250 1959 4250 
Q 1534 4250 1286 3958 
Q 1038 3666 1038 3163 
Q 1038 2656 1286 2365 
Q 1534 2075 1959 2075 
z
" transform="scale(0.015625)"/>
      </defs>
      <use xlink:href="#DejaVuSans-50"/>
      <use xlink:href="#DejaVuSans-43" x="60.302734"/>
      <use xlink:href="#DejaVuSans-20" x="130.126953"/>
      <use xlink:href="#DejaVuSans-32" x="161.914062"/>
      <use xlink:href="#DejaVuSans-20" x="225.537109"/>
      <use xlink:href="#DejaVuSans-28" x="257.324219"/>
      <use xlink:href="#DejaVuSans-30" x="296.337891"/>
      <use xlink:href="#DejaVuSans-2e" x="359.960938"/>
      <use xlink:href="#DejaVuSans-31" x="391.748047"/>
      <use xlink:href="#DejaVuSans-39" x="455.371094"/>
      <use xlink:href="#DejaVuSans-29" x="518.994141"/>
     </g>
    </g>
   </g>
   <g id="patch_3">
    <path d="M 70.448652 390.04 
L 70.448652 10.8 
" style="fill: none; stroke: #000000; stroke-width: 0.8; stroke-linejoin: miter; stroke-linecap: square"/>
   </g>
   <g id="patch_4">
    <path d="M 511.632544 390.04 
L 511.632544 10.8 
" style="fill: none; stroke: #000000; stroke-width: 0.8; stroke-linejoin: miter; stroke-linecap: square"/>
   </g>
   <g id="patch_5">
    <path d="M 70.448652 390.04 
L 511.632544 390.04 
" style="fill: none; stroke: #000000; stroke-width: 0.8; stroke-linejoin: miter; stroke-linecap: square"/>
   </g>
   <g id="patch_6">
    <path d="M 70.448652 10.8 
L 511.632544 10.8 
" style="fill: none; stroke: #000000; stroke-width: 0.8; stroke-linejoin: miter; stroke-linecap: square"/>
   </g>
  </g>
 </g>
 <defs>
  <clipPath id="p3dbf019670">
   <rect x="70.448652" y="10.8" width="441.183892" height="379.24"/>
  </clipPath>
 </defs>
</svg>
